<?xml version="1.0" encoding="utf-8"?>
<!-- Generator: Adobe Illustrator 25.1.0, SVG Export Plug-In . SVG Version: 6.00 Build 0)  -->
<svg version="1.1" id="Calque_1" xmlns="http://www.w3.org/2000/svg" xmlns:xlink="http://www.w3.org/1999/xlink" x="0px" y="0px"
	 viewBox="0 0 297.6 297.6" style="enable-background:new 0 0 297.6 297.6;" xml:space="preserve">
<style type="text/css">
	.st0{fill:#1B2479;}
	.st1{fill:url(#SVGID_1_);}
	.st2{fill:url(#SVGID_2_);}
	.st3{fill:#FFFFFF;stroke:#000000;stroke-miterlimit:10;}
	.st4{fill:url(#SVGID_3_);}
	.st5{fill:#EFEFE6;}
	.st6{fill:#BF968A;}
	.st7{fill:#B47D6A;}
	.st8{fill:#B98D7E;}
	.st9{fill:url(#SVGID_4_);}
	.st10{fill:#0E115A;}
	.st11{fill:#F8EEE8;}
	.st12{fill:#9CCB34;}
	.st13{fill:#F82627;}
	.st14{fill:#E9F3EB;}
	.st15{fill:#E7F1E1;}
	.st16{fill:#B2CB78;}
	.st17{fill:#9FCE41;}
	.st18{fill:#F3F2F6;}
	.st19{fill:#E66077;}
	.st20{fill:#EC474E;}
	.st21{fill:#EF902F;}
	.st22{fill:#E7827D;}
	.st23{fill:#F6EDE5;}
	.st24{fill:#F9E8DA;}
	.st25{fill:#EFF4F0;}
	.st26{fill:#EEF4EF;}
	.st27{fill:#EEF3F2;}
	.st28{fill:#EDF3F0;}
	.st29{fill:#ECF3EF;}
	.st30{fill:#F0F6EF;}
	.st31{fill:#E9F3E6;}
	.st32{fill:#E4EEDB;}
	.st33{fill:#EDF6E9;}
	.st34{fill:#E7F2E3;}
	.st35{fill:#EBF2EB;}
	.st36{fill:#EAF5E6;}
	.st37{fill:#E8F2DE;}
	.st38{fill:#E9F3E2;}
	.st39{fill:#EDF4E8;}
	.st40{fill:#ECF6EA;}
	.st41{fill:#CFE29A;}
	.st42{fill:#BED694;}
	.st43{fill:#C9D9A5;}
	.st44{fill:#B8D282;}
	.st45{fill:#BFD594;}
	.st46{fill:#EBF3EE;}
	.st47{fill:#EBF3EC;}
	.st48{fill:#F5F1ED;}
	.st49{fill:#B2D06F;}
	.st50{fill:#B6CE84;}
	.st51{fill:#EDF5EE;}
	.st52{fill:#EEF5EC;}
	.st53{fill:#EBF6EA;}
	.st54{fill:#C1D1A3;}
	.st55{fill:#EAF6E4;}
	.st56{fill:url(#SVGID_5_);}
	.st57{fill:url(#SVGID_6_);}
	.st58{fill:#F7E7C3;}
	.st59{fill:#A52009;}
	.st60{fill:none;stroke:#FFFFFF;stroke-width:2;stroke-miterlimit:10;}
</style>
<g>
	<g id="Calque_2_1_">
		<path class="st0" d="M129.3,335.9"/>
		
			<linearGradient id="SVGID_1_" gradientUnits="userSpaceOnUse" x1="91.602" y1="128.1017" x2="234.8148" y2="128.1017" gradientTransform="matrix(1 0 0 1 -5.9 115.12)">
			<stop  offset="0" style="stop-color:#401205"/>
			<stop  offset="0.52" style="stop-color:#9A3F20"/>
			<stop  offset="1" style="stop-color:#662719"/>
		</linearGradient>
		<path class="st1" d="M228.3,235.2c1.6,6.1-0.3,12.6-0.3,12.6c-2.6,9.3-10.4,14.6-13.7,16.8c-4.8,3.4-10.4,5.8-31.4,7.8
			c-18,1.8-30.9,3-48.5,0.9c-14.2-1.7-22.2-4.6-28-7.3c-7.4-3.5-14.2-6.6-17.9-13.8c-3.9-7.6-2.8-16.5-1.1-20.9
			C99.8,199.9,221.9,210.5,228.3,235.2z"/>
		
			<linearGradient id="SVGID_2_" gradientUnits="userSpaceOnUse" x1="93.1782" y1="-25.0211" x2="234.7212" y2="-25.0211" gradientTransform="matrix(1 0 0 1 -5.9 115.12)">
			<stop  offset="0" style="stop-color:#401205"/>
			<stop  offset="0.52" style="stop-color:#9A3F20"/>
			<stop  offset="1" style="stop-color:#662719"/>
		</linearGradient>
		<path class="st2" d="M92.2,77.2c-2.1,3.2-3.6,6.7-4.5,10.4c-0.4,2.8-0.5,5.8-0.3,8.7c1.4,13.9,127,37.6,140.3,3.4
			c2.2-5.7,0.5-10.9,0-12.6C215.2,48.5,100.8,64.6,92.2,77.2z"/>
		<path class="st3" d="M258.2,12.4"/>
		<path class="st3" d="M219.8,14.6"/>
		
			<radialGradient id="SVGID_3_" cx="164.9023" cy="65.1606" r="67.2709" gradientTransform="matrix(1.1103 0 0 1.1146 -26.6058 99.8828)" gradientUnits="userSpaceOnUse">
			<stop  offset="0" style="stop-color:#F4E76C"/>
			<stop  offset="1" style="stop-color:#EF4102"/>
		</radialGradient>
		<path class="st4" d="M225.4,237.4c0.5-0.2,2.3-0.9,2.8-2.3c0.1-0.3,0.2-0.8,0.3-1.1c-0.1,0.4-0.1,0.8-0.3,1.1
			c-0.7,0,0-72.8,0.3-109.1c0.1-13.6,0.2-24.5,0.2-29.9l0,0c0,0-21.2,4.5-26.3,5.5c-39,7.8-80.2,1-95.4-1.5
			c-8.6-1.4-15.4-2.9-19.7-3.8l-0.5-1.1c0,0-1.2,16.6-1.6,32.1c-0.3,8.4-0.1,8.8-0.3,25.9c-0.2,19.2-0.4,21.8-0.5,33.5
			c-0.3,28.2-0.4,42.3,1.6,45.9c7.1,12.1,27.6,13.8,68.6,17.2C154.6,249.6,185.7,252.1,225.4,237.4z"/>
		<path class="st3" d="M153.7,245.3"/>
		<path class="st3" d="M296.9,94"/>
		<path class="st5" d="M196.6,123.8c0.5-3.2,2.1-5.7,5.1-7c1.7-0.8,3.4-0.3,4.9,0.7c1.8,1.2,3,2.9,4.1,4.9c0.2,0.3,0.3,0.8,0.3,1.2
			c-0.1,0.9,0.1,1.7,0.8,2.4c-0.1,0.5,0.3,0.9,0.5,1.3c0.7,1,0.9,2.2,0.5,3.3c-0.5,2-1.6,3.8-2.9,5.3c-0.9,1.1-2.1,1.7-3.5,2.1
			c-0.1,0-0.3,0.1-0.4,0.2c-0.9,0.7-0.2,1.8-0.7,3.2c-0.2,0.7-0.4,0.5-3.5,3.6l-0.7,0.7c-2.1,2.2-3,3.6-4.2,4.9
			c-2.8,3.2-3.7,2.4-5.9,5.3c-1.2,1.6-0.8,1.6-2.1,3.4c-2.2,2.8-3.4,2.7-5,5.1c-1.4,2.1-0.5,2.3-2.1,5.3c-0.9,1.6-2.5,4.9-5.5,6.6
			c-1.6,0.9-3.2,1.8-4.6,2.9c-0.2,0.2-0.4,0.3-0.7,0.5c-0.4,0.4-0.9,1-1.3,1.5c-1.2,1.4-3.6,3.2-9,4.2c-0.5,0.1-1,0.3-1.5,0.7
			c-0.4,0.2-0.9,0.5-1.3,0.7c-0.2,0.1-0.4,0.1-0.5,0.2c-0.1,0.1-0.3,0.1-0.3,0.2c-0.5,1-1.3,1.7-2.2,2.4c-1.4,1.2-2.7,2.6-4.9,2.2
			c-0.4-0.1-1,0.3-0.9,0.7c0.1,0.8-0.2,1.3-0.5,2c-1.3,2.6-3.6,3.9-6.4,4.2c-1.8,0.2-2.8-1.1-3.4-0.7c-0.5,0.5,0.8,2,0.1,3.8
			c-0.2,0.8-0.8,1.4-1.4,2c-0.8,0.7-1.7,1.2-2.3,2.1c-0.4,0.4-1,0.7-1.6,0.8c-1.5,0.1-2.7-1.7-3.3-1.4c-0.2,0.1-0.1,0.7-0.1,1.2
			c0,1.2-0.2,2.5-0.7,3.6c-0.2,0.4-1.7,3.5-4.9,4c-1.7,0.3-3.5-0.1-5-1.1c-2.1-1.3-3.5-3.3-4.6-5.3c-1.8-3.3-3-6.7-2.2-10.5
			c0.5-2.4,2.4-4.5,4.7-4.9c0.3-0.1,0.7-0.2,1-0.4c0.8-0.7,0.5-1.3,1.2-2.3c0.4-0.8,1.1-1.3,1.8-1.7c0.9-0.5,1-0.2,1.7-0.7
			c1-0.7,1-1.3,2.1-2.6c0.4-0.5,1-1.1,1.6-1.5l0.3-0.1l0.9-0.4c1,0.1,1.4-0.2,2.1-1.5c1.3-2.6,3.4-4.1,6.4-4.1c1.3,0,1.3,0,1.4-1.4
			c0-0.2,0-0.3,0.1-0.5c0.9-1.3,1.6-2.8,2.7-4c0.3-0.3,0.5-0.8,0.8-1.2c0.2-0.8,0.3-1.5,0.1-2.3c-0.1-0.4,0-2,0.1-5.1
			c0.1-2.2,0.1-3.3,0.3-4.2c0.5-2,1.5-3.8,2.9-5.4c0.1-0.2,0,0,2-2.2c0.4-0.5,1-1.1,1.6-1.6s1.3-1,2.1-1.3c1.2-0.7,2.5-1.3,3.7-1.8
			c1.7-0.7,1.8-0.5,4-1.3c0.9-0.3,1.8-0.8,2.6-1.2c0.9-0.5,0.9-0.9,2.7-2.1c0.7-0.4,1.3-0.9,2-1.2c2.7-1.3,3.6-0.2,5.9-1.4
			c0.9-0.4,1.8-1.2,2.7-1.1c0.7,0.1,1-0.3,1-1.1c-0.2-1.4,0.2-2.9,1.2-4c1.1-1.4,2.9-2,4.7-1.5c1.6,0.3,2.8,1.6,3.2,3.3
			c0.1,0.3,0.2,0.5,0.5,0.7c0.1-0.4,0.5-0.5,0.7-0.9c1.2-2.3,2.9-4.3,5.1-6c1.5-1.2,2.4-0.4,4-1.7
			C195.5,125.4,196.2,124.7,196.6,123.8z"/>
		<path class="st0" d="M155.4,163.4c1.4,0.1,2.8,0.8,3.7,2c2.1,2.3,4,4.8,6,7.2c0.7,0.8,1.3,1.5,2,2.3c0.7,0.8,0.7,1.1-0.1,1.7
			c-0.8,0.7-1.6,1.4-2.4,2.1c-0.8,0.7-1,0.5-1.6-0.1c-2.5-2.9-4.9-5.9-7.3-8.8c-0.8-1-1.5-1.1-2.2-0.7c-0.7,0.4-0.8,0.8-0.2,1.4
			c1.8,2.2,3.6,4.3,5.4,6.6c0.9,1.1,1.6,2.1,2.5,3c0.3,0.3,0.4,0.9,0.1,1.3c-0.1,0.1-0.1,0.1-0.2,0.2c-0.9,0.8-1.7,1.5-2.6,2.2
			c-0.5,0.4-1,0.4-1.5-0.2c-2.3-2.8-4.6-5.7-6.8-8.4c-0.3-0.4-0.8-0.8-1.1-1.2c-0.4-0.4-1.1-0.4-1.5-0.1c-0.7,0.4-0.8,0.9-0.2,1.5
			l7.7,9.5c0.8,0.9,0.7,1.2-0.2,1.8c-0.8,0.7-1.5,1.3-2.3,2c-0.7,0.5-1,0.5-1.5-0.1c-3.2-3.9-6.3-7.9-9.5-11.8
			c-0.5-0.5-0.7-1.5-0.1-2.2c1.4-2.2,3.3-4,5.5-5.2c0.5-0.3,1.1-0.4,1.6-0.4c0.7,0,0.9-0.2,1.1-0.9
			C150.3,165.6,152.9,163.4,155.4,163.4z"/>
		<path class="st0" d="M132,184.1c-0.1-3.2,2.4-5.9,5.5-6c0.8,0,1.6,0.1,2.4,0.4c0.9,0.4,1.7,1,2.5,1.6c2.4,2.1,4.3,4.5,5.3,7.5
			c0.9,2.8,0.2,5.2-2,7c-2.2,1.7-4.6,1.8-7.1,0c-3-2.1-5.2-5.2-6.2-8.7C132.1,185.3,132,184.8,132,184.1z M137.1,184.5
			c0,0.3,0.1,0.8,0.3,1.1c0.8,1.5,1.8,2.9,3.2,4.1c0.4,0.4,1,1.1,1.7,0.5c0.7-0.5,0.3-1.3,0-2c-0.8-1.4-1.7-2.7-2.8-3.8
			c-0.3-0.3-0.7-0.7-1.1-0.8c-0.3-0.2-0.9-0.1-1.1,0.2C137.1,184.1,137.1,184.3,137.1,184.5L137.1,184.5z"/>
		<path class="st0" d="M169.1,173c-2.2-0.1-3.6-1.4-4.7-3.2c-1.4-2.1-1.2-4.2,0-6.3c0.5-0.9,1.1-1.6,1.7-2.3
			c0.2-0.3,0.7-0.5,0.3-1.1c-0.2-0.4-0.7-0.7-1.1-0.8c-0.7,0-1.3,0.2-1.7,0.7c-0.9,0.8-1.6,1.7-2.3,2.7c-0.3,0.5-0.5,0.7-1,0.1
			c-0.4-0.5-1-1.2-1.5-1.8c-0.2-0.2-0.4-0.4-0.2-0.9c1.3-2.5,3-4.5,5.7-5.4c2.3-0.9,4.1,0,5.8,1.5c1.7,1.6,3.2,3.6,4.7,5.4
			c0.9,1.1,1.7,2.1,2.6,3.2c0.4,0.3,0.4,1,0.2,1.4c-1.4,2.7-3.8,4.9-6.5,6.3C170.4,172.8,169.8,173,169.1,173z M170.3,168.3
			c0.7,0.1,1.4-0.3,1.7-0.9c0.3-0.5-0.2-0.9-0.4-1.2c-0.8-1-1.5-1.8-2.3-2.7c-0.3-0.4-0.8-0.4-1,0c-0.7,0.8-0.8,1.7-0.3,2.6
			C168.6,167.2,169.2,168.2,170.3,168.3L170.3,168.3z"/>
		<path class="st0" d="M195,127.8c1.6,0,2.5,0.9,3.4,1.8c1.2,1.5,2.3,3.2,3.5,4.8c0.9,1.2,1.6,2.4,2.5,3.6c0.4,0.5,0.4,1.2,0,1.7
			c-0.7,0.8-1.3,1.5-2,2.3c-0.5,0.7-0.9,0.4-1.3-0.1c-2-2.6-3.8-5.2-5.8-7.8c-0.2-0.3-0.4-0.5-0.7-0.8c-0.5-0.5-1.1-0.3-1.6,0.1
			c-0.5,0.4-0.3,0.9,0,1.4c2.2,2.9,4.3,5.8,6.5,8.7c0.5,0.7,0.5,1.2-0.1,1.8c-0.7,0.8-1.3,1.4-2,2.2c-0.5,0.5-0.9,0.5-1.3-0.1
			c-2.5-3.3-5-6.5-7.5-9.8c-0.1-0.2-0.3-0.4-0.4-0.7c-1.3-1.6-1.3-1.2-0.2-3.2c1.3-2.5,3.4-4.6,5.9-5.9c0.3-0.1,0.5-0.2,0.9-0.3
			C194.7,127.8,194.8,127.7,195,127.8z"/>
		<path class="st0" d="M114.6,199.3c0-1.1,0.2-2.1,0.8-3c1.4-2.6,3.9-3.3,6.4-1.7c2.5,1.5,4,3.8,5.3,6.2c0.8,1.4,1.3,2.9,1.5,4.5
			c0.3,2.4-0.9,4.8-3,6c-1.6,0.9-3.7,0.7-5.3-0.9c-1.8-1.6-3.4-3.7-4.3-6.1C115.1,202.6,114.7,201,114.6,199.3z M123.8,205.1
			c0-0.1,0-0.2,0-0.2c-0.8-2.2-2-4-3.7-5.5c-0.2-0.2-0.5-0.2-0.8-0.1c-0.3,0.1-0.4,0.4-0.3,0.8c0.1,0.8,0.3,1.5,0.8,2.2
			c0.8,1.4,1.5,2.7,2.8,3.6C123.3,206.2,123.8,205.9,123.8,205.1z"/>
		<path class="st0" d="M167.2,141.5c0.3,0.1,0.8,0.3,0.9,0.7l12.3,14.8c0.9,1.1,1.8,2.2,2.7,3.3c0.7,0.8,0.7,1.1-0.1,1.8
			c-0.8,0.8-1.5,1.4-2.3,2.2c-0.7,0.7-0.9,0.7-1.5-0.1l-10.5-12.7c-1.5-1.8-3.2-3.8-4.7-5.7c-0.5-0.7-0.5-1.1,0.1-1.6
			c0.9-0.8,1.7-1.5,2.6-2.2C166.6,141.8,166.8,141.6,167.2,141.5z"/>
		<path class="st0" d="M130.9,195.3c-0.5-1.4-1.3-2.7-2-4c-0.7-1.4-1.4-2.8-2.2-4.2c-0.3-0.4-0.2-1.1,0.2-1.4c0,0,0,0,0.1,0
			c0.7-0.5,1.2-1.1,1.8-1.5c0.7-0.5,1-0.4,1.4,0.3c1.5,3.5,3.2,6.8,4.7,10.3c0.8,1.6,1.4,3.3,2.3,4.8c0.3,0.5,0.2,1.2-0.3,1.6
			c0,0,0,0-0.1,0c-0.9,0.7-1.6,1.4-2.5,2.1c-0.3,0.3-0.9,0.4-1.2,0.1c0,0,0,0-0.1-0.1c-4-3.6-8-7.2-11.8-11
			c-0.7-0.7-0.7-1.1,0.1-1.6c0.7-0.7,1.3-1.1,2-1.7c0.7-0.7,1-0.5,1.5,0c1.7,2,3.6,3.8,5.3,5.8C130.3,195.1,130.7,195.3,130.9,195.3
			z"/>
		<path class="st0" d="M175.1,138.8c0.5,0.1,0.9,0.7,1.2,1.1c0.4,0.5,0.9,1.1,1.3,1.6c0.5,0.7,1,0.7,1.6,0.1
			c0.8-0.7,1.1-0.7,1.6,0.1c0.5,0.8,1.2,1.6,1.8,2.4c0.4,0.3,0.4,1,0,1.4l-0.1,0.1c-0.8,0.8-0.8,1.1-0.1,2c2,2.4,3.9,4.8,5.9,7.3
			c0.8,1,0.8,1.2-0.1,2c-0.7,0.7-1.4,1.4-2.1,2.1c-0.4,0.5-0.9,0.4-1.4-0.1c-3.8-4.7-7.6-9.3-11.4-13.9c-0.5-0.7-1.2-1.4-1.7-2.1
			c-0.4-0.3-0.4-1-0.1-1.3c0.1-0.1,0.1-0.1,0.2-0.2c0.9-0.7,1.6-1.4,2.4-2.2C174.3,138.9,174.8,138.8,175.1,138.8z"/>
		<path class="st0" d="M210.4,126c0.5,0.9,1,1.7,1.5,2.5c0.1,0.2,0.1,0.5,0,0.9c-0.5,1.8-1.6,3.6-3,4.9c-1.4,1.3-2.9,1.3-4.6,0.3
			c-3.6-2.1-6.1-7.4-5.3-11.4c0.3-1.8,1.4-3.6,3-4.6c1.4-0.9,3-0.7,4.6,0.5c1.2,1.1,2.3,2.3,3,3.8c0.3,0.5,0,0.9-0.3,1.3
			c-1.1,1.4-2.3,2.8-3.4,4.2c-0.3,0.4-0.9,0.8-0.4,1.4c0.4,0.5,1.3,0.8,2,0.3c0.9-0.5,1.3-1.3,1.8-2.2
			C209.7,127.4,209.9,126.6,210.4,126z M202.4,123.8c0.1,0.5,0.2,1,0.4,1.5c0.3,0.5,0.4,1.5,1.1,1.5s1-0.9,1.4-1.4
			c0.2-0.2,0.2-0.5,0-0.8c-0.4-0.8-1-1.3-1.6-1.8C203,122.3,202.4,122.7,202.4,123.8z"/>
		<path class="st0" d="M191.9,153.1c-0.4,0-0.5-0.3-0.8-0.7c-2.4-3-4.9-6.1-7.3-9.1c-0.7-0.9-1.3-1.7-2.1-2.5
			c-0.3-0.3-0.4-0.9-0.1-1.3c0-0.1,0.1-0.1,0.2-0.1c0.9-0.9,1.7-1.6,2.6-2.5c0.7-0.7,1.1-0.1,1.4,0.3c2.2,2.7,4.3,5.5,6.5,8.3
			c0.9,1.1,1.6,2.2,2.5,3.3c0.4,0.4,0.4,1.1,0.1,1.5l-0.1,0.1c-0.8,0.8-1.5,1.5-2.3,2.3C192.3,152.9,192.1,153.1,191.9,153.1z"/>
		<path class="st0" d="M177.9,135.1c0-1.7,1.1-2.9,2.7-2.9c1.5,0.1,2.7,1.4,2.7,2.9c0.1,1.5-1.1,2.8-2.5,2.9h-0.1
			C179.1,138.1,177.9,136.8,177.9,135.1L177.9,135.1z"/>
		<path class="st0" d="M181.5,122.8c2.5,2,2.8,5.2,2.8,6.2c-0.1-0.2-0.3-0.3-0.4-0.5c-2.1-3.5-5.2-4.9-9.2-4
			c-2.6,0.7-5.2,1.7-7.5,3.3c-4.9,2.9-9.1,6.6-13.2,10.7c-6.3,6.3-12,13.3-17,20.7c-1.8,2.7-3.6,5.4-5.2,8.3
			c-1.4,2.4-2.6,4.9-3.9,7.3c0-0.2,0-0.3,0-0.5c0-0.2,0.1-0.3,0.1-0.5c0.1-0.3,2.1-4.5,4.7-10.1c0.8-1.6,1.8-3.6,3.2-5.8
			c1.8-3.2,3.5-5.3,6.6-9.3c2.3-3,3.7-4.8,4.1-5.2c1.7-2,3-3.5,3.8-4.3c3.5-3.7,7.2-7.2,11.2-10.3c1.6-1.3,3.4-2.5,5.1-3.6
			c2.4-1.4,3.6-2.2,5.3-2.7C173.9,121.5,178.3,120.2,181.5,122.8z"/>
		<path class="st5" d="M127.4,176c0.2-0.2,0.3-0.7,0.4-1l0,0c0.1,0,0.2-0.1,0.2-0.3l0.1-0.2c1.3-2.4,2.5-5,3.9-7.3
			c1.6-2.8,3.4-5.5,5.2-8.3c5-7.4,10.7-14.3,17-20.7c4-4,8.3-7.7,13.2-10.7c2.3-1.5,4.8-2.6,7.5-3.3c4-0.9,7.2,0.4,9.2,4
			c0.1,0.2,0.2,0.3,0.4,0.5l0,0c0.2,0.5,0.3,1.1,0.4,1.4c0.2,0.7,0.4,1.1,0.2,1.3l-0.1,0.1c-0.2,0-0.4-0.4-0.4-0.5
			c-0.3-0.9-1.7-3.2-2.8-4c-0.8-0.5-1.5-1-2.4-1.2c-1.5-0.4-3.3-0.2-4.9,0.1c-2.2,0.5-4.2,1.4-6.2,2.6c-1.4,0.9-2.7,1.6-4,2.6
			c-2.6,2-5.1,4-7.4,6.3c-4.7,4.5-7,6.6-9.6,9.7c-3.2,3.7-5.4,6.8-8.8,11.5c-0.9,1.3-1.6,2.3-2.1,2.9c-0.7,1.1-1.5,2.3-2.5,3.9
			c-1,1.6-1.6,2.8-2,3.4c-1,1.8-2.7,5-6,10.5C126.2,178.4,127.1,177.3,127.4,176z"/>
		<path class="st5" d="M123.8,205.1c0,0.8-0.5,1.1-1.2,0.7c-1.3-0.9-2.1-2.3-2.8-3.6c-0.4-0.7-0.7-1.4-0.8-2.2
			c-0.1-0.3,0.1-0.7,0.3-0.8c0.2-0.1,0.5-0.1,0.8,0.1c1.7,1.5,2.9,3.4,3.7,5.5C123.8,205,123.8,205.1,123.8,205.1z"/>
		<path class="st6" d="M152.5,90.9c-7.5,9-16,5.4-23.8,5.5c-4.3,0.1-8.7-0.4-13-0.7c-0.8,0-1.6,0-1.6-1.3c0-2,1-3.5,2.7-3.5
			C128.4,90.8,140,90.9,152.5,90.9z"/>
		<path class="st7" d="M192.8,95h-1c-1.2,0.3-2.5-0.1-3.7,0.2H188h-0.1c-4.2,0.2-8.4,0.9-12.6,0.7c-2.1-0.1-4.1-1.7-6.2-2.7l0.1-0.2
			c0.5-0.3,1.2-0.3,1.7,0c2.1,1,4.3,1.2,6.6,1.3c2.3,0.1,4.5,0,6.7,0c4,0,8.2-0.3,12.2-0.7c0.5,0,1.1-0.1,1.5-0.3
			c1.2-0.4,2.5-0.7,3.9-0.7c1,0.1,1.8-0.2,2.6-0.7c0.4-0.1,0.5-0.7,0.4-1c0-0.1-0.1-0.2-0.2-0.3c-0.4-0.5-1.1-0.9-1.2-1.7
			c0-0.1,0.1-0.1,0.1-0.2c1.5,1.1,3.7,2,3.2,4.2c-0.1,0.5-2.6,0.7-3.9,0.9c-2.4,0.3-4.8,0.5-7.2,0.8C194.8,95.1,193.7,94.7,192.8,95
			z"/>
		<path class="st8" d="M202.3,88.9h1.3c0.3,1.2,2.7,1.3,1.8,2.8c-0.9,1.5-2.8,1.1-4.2,1.4c-6.4,1.7-12.9,1.5-19.3,1.7
			c-4.2,0.2-8.5-1.2-12.7-2c-1.5-2.8-1.5-2.9,2.8-3.2c3.5-0.2,7.1-0.2,10.5-0.3c0.2,0.9-0.3,1.2-0.9,1.5c-0.4,0.2-0.9,0.3-1.3,0.9
			c2.6,0.1,5.1,0.4,7.5,0.3c1.3-0.1,2.6,0,3.9,0.1c2.6,0.3,5-0.5,7.5-1c0.9-0.1,1.7-0.5,2.6-0.8c0.8-0.2,1.3-0.4,0.5-1.3
			C202.3,89.5,202.2,89.2,202.3,88.9z"/>
		
			<radialGradient id="SVGID_4_" cx="165.7681" cy="-34.9845" r="46.9246" gradientTransform="matrix(1.1103 0 0 1.1146 -26.6058 99.8828)" gradientUnits="userSpaceOnUse">
			<stop  offset="0" style="stop-color:#616BAA"/>
			<stop  offset="0.1" style="stop-color:#535C9D"/>
			<stop  offset="0.35" style="stop-color:#353B80"/>
			<stop  offset="0.59" style="stop-color:#20246B"/>
			<stop  offset="0.81" style="stop-color:#12165E"/>
			<stop  offset="1" style="stop-color:#0E115A"/>
		</radialGradient>
		<path class="st9" d="M176.4,38.6c9.6,0.3,19,1.8,28.6,1.5c5.2-0.2,10.4,0.9,15.7,1.5c1.4,0.1,2.8,0.5,4.1,1.2c0.4,0.2,1,0.7,1,1.1
			c0,1.4,0.5,2.6,0.5,3.9c0.4,9.3,0.9,18.6,1.3,27.9c0.1,0.9-0.3,1.6-1.1,2.1c-1,0.5-2.1,1-3.2,1.3c-0.2,0.1-0.7,0-0.7,0.5
			c-0.4,0-1,0.1-1.4,0.3c-1.8,0.3-3.8,0.3-5.8,0.8c-1.7,0.3-3.6,0.5-5.3,0.7c-2.5,0.2-5,0.5-7.5,0.8c-3.9,0.3-7.8,0.5-11.8,0.7
			c-4.9,0.2-9.8,0.5-14.7,0.4c-0.3,0-0.5,0-0.9,0c-2,0.3-3.8-0.1-5.8,0c-1.3,0.1-2.6,0-3.9,0c-2.7,0.2-5.3,0.1-8,0.1
			c-1.2,0-2.5-0.1-3.7-0.1c-7.2-0.2-14.2,0-21.4-0.3c-3.9-0.2-7.8-0.2-11.7-0.4c-0.1,0-0.2,0-0.3,0c-2.5-0.5-5.1-0.2-7.7-0.5
			c-1.8-0.2-3.7-0.7-5.7-0.4c-0.1,0-0.2,0-0.2,0c-1.1-0.5-2.3-0.4-3.4-0.4c-2-0.1-3.8-0.4-5.8-0.7c-0.2,0-0.3,0-0.5-0.1
			c-1.4-0.8-3-0.9-4.7-1.3c0-0.4-0.4-0.3-0.7-0.4c-0.9-0.3-1.6-0.5-2.5-1c-1.7-0.8-2.2-1.4-2.1-3.4c0.2-4.7,0.4-9.3,0.5-13.9
			c0.2-4.1,0.3-8.3,0.4-12.4c0-0.4,0-1.1,0.4-1.3c0.4-0.3,0.3-0.5,0.3-1c0-0.4,0-0.9,0-1.3c-0.1-1.2,0.5-2,1.5-2.4
			c0.4-0.2,0.9-0.3,1.3-0.4C121.4,36.9,176.4,38.6,176.4,38.6z M194.4,48.2c-8.6-0.1-17.2,0.2-25.9,0.2
			C177.2,49,185.8,48.6,194.4,48.2L194.4,48.2z M122.9,47.7c2.4,0.4,22.8,1,24.2,0.7C139,48.1,131,47.7,122.9,47.7z"/>
		<ellipse class="st10" cx="157.7" cy="42.9" rx="67.8" ry="10.4"/>
	</g>
	<g id="Calque_3">
		<path class="st11" d="M95,153.7c0.5-0.2,1.1-0.2,1.4,0.4c0,0.1-0.2,0.4-0.3,0.4c-0.1,0-0.3-0.2-0.5-0.2c0,0-0.2,0.2-0.2,0.3
			c0.1,0.7,0.5,0.5,1,0.5c1,0,1.5,0.7,1.7,1.5c0,0.4-0.1,0.9-0.4,1.2c-0.4,0.4-1,0.2-1.4-0.3c-0.2-0.7-0.1-0.8,0.4-0.7
			c0.2,0,0.4,0,0.3-0.3c-0.1-0.4-0.5-0.7-1-0.5c-1.2,0-1.7-0.8-1.4-2L95,153.7z"/>
		<path class="st11" d="M99.7,149.3c0.5-0.2,1.1-0.2,1.4,0.4c0,0.1-0.2,0.4-0.3,0.4s-0.3-0.2-0.5-0.2c0,0-0.2,0.2-0.2,0.3
			c0.1,0.7,0.5,0.5,1,0.5c1,0,1.5,0.7,1.7,1.5c0,0.4-0.1,0.9-0.4,1.2c-0.4,0.4-1,0.2-1.4-0.3c-0.2-0.7-0.1-0.8,0.5-0.7
			c0.2,0,0.4,0,0.3-0.3c-0.1-0.4-0.5-0.7-1-0.5c-1.2,0-1.7-0.8-1.4-2L99.7,149.3z"/>
		<polygon class="st12" points="88.7,123.3 122.3,117.7 124.8,132.7 91.2,138.4 		"/>
		<polygon class="st13" points="110.8,136.9 116.6,144.3 109,150.2 103.1,142.8 		"/>
		<path class="st14" d="M92.9,130.2c-0.2-1.4-0.4-2.7-0.5-4.1c-0.1-0.9,0.4-1.2,1.3-1.1c0.5,0.3,0.9,0.8,0.9,1.3
			c0.1,1.1,0.5,2.2,0.4,3.3c0,0.7-0.4,1.2-1.1,1.3c-0.2,0-0.3,0-0.5-0.1C93,130.8,93,130.4,92.9,130.2z"/>
		<path class="st15" d="M93.4,133.4c-0.3-0.5-0.3-1.1,0.2-1.4c0.5-0.4,0.7,0.1,0.9,0.4c0.3,0.4,0.1,0.7-0.2,0.8
			c0.1,0.2,0.3,0.4,0.4,0.7c0.1-0.7,0-1.1,0.1-1.6c0.1-0.2-0.1-0.5,0.3-0.5c0.2,0,0.4,0.1,0.5,0.4c0,0,0,0,0,0.1
			c0,0.1,0,0.2,0.1,0.2l0,0c0.3,0.8,0.5,1.5,0.8,2.3c0.1,0.7,0,0.8-0.7,0.5c-0.2-0.1-0.2,0.1-0.3,0.1c-0.2,0.1-0.5,0-0.8,0.1
			c-0.2,0.2-0.7,0.3-1,0.1c-0.3-0.1-0.3-0.5-0.3-0.8v-0.1C93.8,134,93.8,134,93.4,133.4z"/>
		<path class="st16" d="M96,130.8v-0.2c-0.1-0.5-0.2-1.2-0.3-1.7c0-0.3,0-0.8,0.4-0.8s0.5,0.3,0.5,0.7c0,0.2,0.1,0.5,0.1,0.8
			c0,0.4,0.3,0.8,0.7,0.9l0,0l-0.8,0.5l0,0c-0.1-0.1-0.2-0.1-0.3-0.3c-0.1-0.2-0.1,0.1-0.2,0L96,130.8z"/>
		<path class="st17" d="M96.3,130.6v-1.3c0.2,0.7,0.3,1.1,0.5,1.5L96.3,130.6z"/>
		<path class="st18" d="M109.2,145.9l-0.3,0.2c-0.1,0.1-0.2,0.2-0.3,0.2c-0.5,0.4-0.5,0.4-1-0.1c-0.3-0.3-0.5-0.7-0.8-1.1
			c-0.2-0.2-0.2-0.5,0-0.8l0.1-0.1l0.1-0.1c1-0.9,1-0.9,0.2-2c-0.5-0.8-0.5-1,0.1-1.6c0.9-0.9,1-0.9,1.8,0.1c0.2,0.4,0.3,1,1,0.9
			l0,0c0.2-0.2,0.4-0.3,0.7-0.5c0.8-0.8,1,0,1.5,0.3c1.1,1.1,0,1.4-0.5,2c-0.2,0.2-0.2,0.5,0,0.8c0,0,0,0,0.1,0.1
			c0.3,0.3,0.4,0.8,0.7,1c0.3,0.3,0.2,0.4,0,0.7c-0.2,0.3-0.5,0.5-0.9,0.7l-0.1,0.1c-0.2,0.3-0.4,0.3-0.8,0s-0.5-0.7-0.8-1.1
			C109.7,145.4,109.5,145.6,109.2,145.9z"/>
		<path class="st19" d="M114.9,145.1l-2.1,1.7L114.9,145.1z"/>
		<path class="st20" d="M108.1,139.6l1-0.9L108.1,139.6z"/>
		<path class="st21" d="M108.7,149.8L108,149L108.7,149.8z"/>
		<path class="st22" d="M110.9,141.2l-0.7,0.5L110.9,141.2z"/>
		<path class="st23" d="M97.3,153.4l1.3,1.8c0.1,0.2,0.2,0.3,0.4,0.3c0.2,0.1,0.4,0.1,0.5,0c0.2-0.2,0.2-0.5,0.1-0.9
			c-0.1-0.5-0.3-1-0.7-1.4c0,0-0.2-0.3-1.1-1.3l0,0c0-0.1,0-0.3,0.1-0.3s0.3,0.1,0.4,0.2c0.5,0.5,1,1.1,1.3,1.6
			c0.2,0.4,0.4,0.9,0.5,1.3c0.2,0.7-0.1,1.3-0.8,1.5c-0.3,0.1-0.7,0.1-1-0.1c-0.3-0.4-0.8-1.1-1.2-1.6c0,0-1-1.4-0.9-1.7l0.1-0.1
			c0.3-0.1,0.3,0.2,0.4,0.3C97.2,153.3,97.2,153.4,97.3,153.4z"/>
		<path class="st11" d="M101.4,147.5c0.5-0.2,1.1-0.2,1.4,0.4c0,0.1-0.2,0.4-0.3,0.4c-0.1,0-0.3-0.2-0.5-0.2c0,0-0.2,0.2-0.2,0.3
			c0.1,0.7,0.5,0.5,1,0.5c1,0,1.5,0.7,1.7,1.5c0.1,0.4-0.1,0.9-0.4,1.2c-0.4,0.4-1,0.2-1.4-0.3c-0.2-0.7-0.1-0.8,0.5-0.7
			c0.2,0,0.4,0,0.3-0.3c-0.1-0.4-0.5-0.7-1-0.5c-1.2,0-1.7-0.8-1.4-2L101.4,147.5z"/>
		<path class="st24" d="M101.1,154.9c-0.4-0.8-1-1.5-1.6-2.3c-0.3-0.4-0.7-1-1-1.4c-0.1-0.1-0.1-0.2,0-0.3l0,0
			c0.1-0.1,0.2-0.1,0.3,0l1,1.3c0.5,0.8,0.8,1,1,1.3c0.3,0.4,0.5,0.9,0.7,1.1c0.1,0.1,0,0.2-0.1,0.3
			C101.3,154.9,101.2,154.9,101.1,154.9L101.1,154.9z"/>
		<path class="st25" d="M111.7,123.3c0-0.5-0.5-1.1,0.2-1.4c1-0.4,1,0.4,1.3,1c0.2,0.1,0.3,0.3,0.4,0.5c0-0.4,0-0.9,0-1.2
			s0.2-0.8,0.7-0.9c0.7-0.1,1,0.1,1.1,0.7c0.1,0.5,0.2,1.1,0.3,1.6c0.2,1.1,0.5,2.1,0.5,3.2c0,0.1,0,0.2-0.1,0.3
			c-0.8,0.3-0.8,0.3-1.2-0.7c0-0.1,0-0.2,0-0.3c0-0.1,0-0.2-0.1-0.4c-0.1,0.5,0,1.2-0.2,1.7c-0.3,0.2-0.5,0.1-0.7-0.1
			c-0.2-0.2-0.4-0.5-0.4-0.9c0.1,0.2,0.1,0.4,0.1,0.8s0,0.5-0.4,0.7c-0.4,0-0.7-0.1-0.7-0.5c-0.1-0.7-0.2-1.3-0.3-1.8
			C112.1,124.6,111.8,123.9,111.7,123.3z"/>
		<path class="st26" d="M119.1,126.1l-0.4,0.4c-1.3,0.5-1.8,0.3-2.4-0.9c-0.4-1.1-0.7-2.2-0.7-3.4c0-0.3,0-0.7,0.2-0.9l0,0
			c0.2-0.7,1-1,1.6-0.8c0.1,0.1,0.3,0.1,0.4,0.2l0,0c0.5,0.2,0.9,0.8,0.9,1.3c0.1,1,0.3,1.8,0.5,2.8
			C119.5,125.4,119.3,125.8,119.1,126.1z"/>
		<path class="st27" d="M106.8,126.1v-1c-0.1-0.7,0-1.3-0.1-2c-0.1-0.3,0.2-0.4,0.5-0.5c0.3,0,0.7,0,0.8,0.3
			c0.1,0.3,0.3,0.8,0.4,1.2l0.5,1.5c0.2,0.4,0.3,0.9,0.5,1.3l0,0c0.1,0.4,0.5,0.8,0.2,1.3l0,0c-0.4,0.2-0.8,0.3-1-0.2l0,0
			c-0.1-0.1-0.1-0.2-0.1-0.3c0-0.1-0.2-0.2-0.3-0.2c-0.1,0-0.2,0.2-0.2,0.3c0,0.1,0,0.3,0,0.4c0,0.3-0.2,0.4-0.5,0.4
			s-0.4-0.2-0.4-0.4C107,127.5,107,126.8,106.8,126.1z"/>
		<path class="st28" d="M104,126.1c0.7-0.9-1.6-2.4,0.7-2.9c1.1-0.2,1.4,0.5,1.6,1.3c0.2,0.5,0.2,1.1,0,1.5l-0.8,0.5
			c-0.4,0.2-0.3,0.7-0.2,1.1l0,0c0.1,0.4,0.2,0.9,0,1.3c-0.7,0.2-0.9,0.1-1-0.4C104.3,127.7,104.1,126.9,104,126.1L104,126.1z"/>
		<path class="st29" d="M102.7,128.5c0.1,0.3,0.4,1-0.2,1c-0.5,0-1.5,0.9-1.7-0.5c-0.2-1.4-0.4-2.8-0.8-4.2c-0.1-0.4,0-0.8,0.4-0.8
			s1-0.5,1.4,0.1c0.4,0.7-0.4,0.4-0.7,0.7c-0.5,0.3-0.3,1.2-0.1,1.2c1.3,0.3,1,0.9,0.3,1.5v0.2c0.1,0.2,0,0.5,0.2,0.8L102.7,128.5z"
			/>
		<path class="st30" d="M120.5,124c-0.1,1.3,0.9,0.9,1.5,1.1c0.2,0.3,0.1,0.8-0.2,1c-0.1,0-0.1,0.1-0.2,0.1
			c-0.5,0.2-1.1,0.2-1.6,0.2c-0.2,0-0.2-0.3-0.3-0.4l0,0c-0.3-0.7-0.5-1.4-0.7-2.2c-0.2-0.8-0.3-1.5-0.4-2.4c-0.1-0.9,0.2-1.1,1-1
			l0.3,1.1C120.2,122.3,120.4,123.2,120.5,124z"/>
		<path class="st31" d="M109.5,125.1c0.2-1-1.2-2.6,0-2.6c1.3,0,0.7,2.2,1.2,3.2c0.1,0.1,0,0.3,0,0.5c0.1,0.5,0.3,0.9,1,0.7
			c0.4-0.1,0.7,0.3,0.5,0.9l0,0c-0.5,0.3-1.3,0.5-2,0.4c-0.4,0-0.5-0.4-0.5-0.8C109.9,126.5,109.6,125.9,109.5,125.1z"/>
		<path class="st32" d="M116.4,129.5c-0.2,0.5,1.4,1.7-0.5,1.8l-0.4,0.5c-0.1-0.2-0.2-0.3-0.3-0.5c-0.1-0.3-0.2-0.7-0.2-1
			c-0.4,0.3-1,0.5-0.8,1.2c-0.3,0.2-0.4-0.1-0.4-0.3c0-0.3,0.1-0.7,0.4-0.9c0.2-0.1,0.4-0.2,0.3-0.5c-0.1-0.3,0-0.7-0.3-0.9
			c-0.3-0.1-0.8,0-1,0.3c0-0.2,0-0.8,0.1-0.8c0.7-0.2,1.4-0.3,1.7,0.7c0.2-0.5,0-1.6,1-0.9C116.2,128.6,116.2,129.1,116.4,129.5z"/>
		<path class="st33" d="M109.5,129.3h0.2c0.9,0.4,0.9,1.4,1,2.2c0.1,0.4,0.1,0.9-0.2,1.2c-0.7,0.4-1.4,0.9-1.5-0.5
			c-0.2-0.4-0.1-0.9-0.2-1.3l0,0c-0.1-0.1-0.1-0.2-0.1-0.3C108.4,129.5,108.5,129.4,109.5,129.3z"/>
		<path class="st34" d="M100.6,134.5c-0.2-1.2-0.3-2.4-0.5-3.6c0.5-0.1,0.5,0.4,0.8,0.8c0.1-0.2-0.1-0.7,0.3-0.8s0.4,0.1,0.5,0.3
			c0.2,0.8,0.2,1.5,0.4,2.2v0.1c0,0.3,0.1,0.8-0.4,0.9c-0.4,0.1-0.4-0.3-0.5-0.7C101.2,134,101.3,134.5,100.6,134.5z"/>
		<path class="st35" d="M97.3,131.3l0.7,3.2c0,0.1,0,0.2,0,0.2c-0.8,0.7-0.8-1.1-0.9-0.5c-0.5,1.6-0.4,0.7-0.5-0.1
			c0-0.4-0.2-0.8-0.2-1.2s0-0.9,0-1.3l0.8,0.9v-1.2h0.2V131.3z"/>
		<path class="st36" d="M102.7,130.6l0.1-0.2c0.1-0.1,0.3-0.1,0.4,0c0.1,0.1,0.2,0.3,0.2,0.5c0.2,0.7,0.1,1.4,0.4,2.1
			c0.1,0.4,0,0.9-0.4,1.1c-0.3,0.2-0.8,0.2-1,0l0,0c0,0-0.1,0-0.1-0.1c-0.4-1-0.7-2.1-0.5-3.2c0-0.3,0.2-0.3,0.4-0.1
			c0.2,0.2,0.3,0.4,0.3,0.7c0.1,0.4,0.1,0.9,0.2,1.3C102.8,132,102.5,131.2,102.7,130.6z"/>
		<path class="st37" d="M98.4,134.7c0.2-0.1-0.8-1.1,0.4-0.7l0.2-0.1c-0.1-0.2-0.2-0.4-0.3-0.7c-0.2-0.5-0.5-1.2-0.8-1.7
			c0.2-0.4,0.5-0.7,1-0.4c0.2,0.2,0.2,0.8,0.3,1.1c0.1,0.3,0.2,0.8,0.3,1.1c0.2,0.3,0.2,0.9-0.1,1.2C99,134.9,98.6,134.9,98.4,134.7
			L98.4,134.7z"/>
		<path class="st38" d="M106.3,132.3c0.2-0.9-1.2-2.1,0.4-2.7c0.5-0.2,0.8,0,0.7,0.5l-0.1,0.1c-0.2,0-0.4,0.1-0.4,0.3
			s0.1,0.3,0.3,0.3c0.3,0.1,0.5,0.3,0.2,0.7l-0.3,0.5l0.9,0.3c0.3,0.5-0.1,0.5-0.3,0.8h-0.3c-0.5,0.2-0.8,0-0.9-0.4
			C106.4,132.7,106.4,132.5,106.3,132.3z"/>
		<path class="st39" d="M111.7,128.9c-1,0.7,0.3,1.5-0.2,2.4c-0.3,0.5,0.4,0.4,0.8,0.5c0.2,0.4,0.1,0.5-0.3,0.7
			c-1,0.3-1.2,0.1-1.3-0.9c0-0.4-0.1-1-0.2-1.4c-0.1-0.4-0.3-0.9,0-1.2C110.8,128.8,111.3,128.7,111.7,128.9z"/>
		<path class="st40" d="M113,129.3c0.2-0.2,0.3-0.5,0.5-0.5c0.3,0.1,0.9,0.2,1,0.4c0.1,0.2,0.5,0.9-0.1,1.2
			c-0.5,0.2-0.9,0.5-0.3,1.1l-0.2,0.7c-0.1-0.1-0.4-0.2-0.4-0.4C113.3,130.9,113.1,130.1,113,129.3z"/>
		<path class="st38" d="M105.5,133.7c-1.2-1-0.7-2.4-1-3.5l0,0c0.3-0.2,0.5,0,0.7,0.3s0,0.5,0.1,0.9l0.3,1.3
			c0.1,0.2,0.3,0.3,0.4,0.2c0.2,0,0.4,0,0.4,0.3c0,0.2-0.1,0.4-0.3,0.4c0,0,0,0-0.1,0C105.9,133.6,105.8,133.5,105.5,133.7
			L105.5,133.7z"/>
		<path class="st41" d="M120.5,124c-0.2-0.9-0.3-1.7-0.5-2.6L120.5,124z"/>
		<path class="st42" d="M109.5,126.9c-0.2-0.4-0.3-0.9-0.5-1.3C109,126.1,109.2,126.4,109.5,126.9z"/>
		<path class="st43" d="M108.7,130.8l0.2,1.3L108.7,130.8z"/>
		<path class="st44" d="M101.6,128.5l-0.2-0.8L101.6,128.5z"/>
		<path class="st45" d="M116.6,128.7c0-0.3,0-0.5,0-0.9l0,0C116.8,128.2,116.8,128.5,116.6,128.7
			C116.7,128.7,116.7,128.7,116.6,128.7L116.6,128.7z"/>
		<path class="st46" d="M99.3,129.5c-0.2-0.5-0.5-1.1-0.8-1.6c0,0.5,0.1,1.1,0,1.5c0,0.2-0.1,0.4-0.2,0.7c-0.1-0.1-0.4-0.3-0.4-0.4
			c-0.2-1.5-0.5-3-0.8-4.6c0-0.2,0.1-0.4,0.2-0.7l0.7,0.3c0.2,0.4,0.4,1,0.7,1.4h0.1c0.5-0.2,0.2-1.7,0.3-1.7s1.2,2.1,1,4.7
			c0,0.3,0,0.5-0.1,0.7L99.3,129.5z"/>
		<path class="st47" d="M97.5,130.2c-1.1,0.4-0.7-0.5-0.9-0.9c-0.2-0.3,0.2-1.1-0.5-1.2c0,0.4-0.1,0.9-0.1,1.4c0,0.3,0,0.7,0,1.1
			c-1.5-0.9-0.7-2.5-1.1-3.8c-0.2-0.4-0.8-1.5,0-1.7c0.8-0.1,0.4,1.1,0.7,1.6c0.1,0.2,0.3,0.3,0.4,0.4c0.1-0.3,0.1-0.8,0.2-1.1
			c0-0.4,0-0.9,0-1.3l0.7,0.3L97.5,130.2z"/>
		<path class="st48" d="M103.7,146.6c-0.1,0.1-0.2,0.3-0.2,0.5c0,0.1,0,0.2,0.5,0.7c0.3,0.2,0.3,0.3,0.4,0.3c0.2,0,0.4,0,0.5-0.1
			c0-0.2,0.2-0.3,0.3-0.3c0.2,0,0.4,0.1,0.4,0.2c0,0.3-0.9,0.5-0.9,1c0,0.2,0.1,0.1,0.4,0.7c0.1,0.2,0.1,0.3,0.3,0.3
			c0.2,0,0.2-0.1,0.4-0.2c0.2-0.2,0.5-0.4,0.9-0.5l0.3,0.5l0,0c-0.3,0.4-0.8,0.8-1.3,1.1c0,0-0.3,0.3-0.5,0.1
			c-1-1.3-1.8-2.5-2.7-3.8l0.1-0.1c0.2-0.2,0.4-0.4,0.7-0.7c0.7-0.4,0.8-0.5,0.9-0.5c0.1,0.1,0.2,0.2,0.3,0.3L103.7,146.6z"/>
		<path class="st49" d="M116.7,122.5l0.4-0.7c0.3,1.1,0.7,2.3,1,3.4c0,0.1-0.2,0.3-0.3,0.4L116.7,122.5z"/>
		<path class="st50" d="M105.8,125.1l-0.7,0.5c-0.2-0.4-0.3-0.9-0.4-1.2c0-0.1,0.2-0.2,0.2-0.4L105.8,125.1z"/>
		<path class="st51" d="M119.7,130.4l-0.4,0.7c-0.1-0.3-0.4-0.5-0.4-0.9c0-0.9-0.9-1.8-0.1-2.5c0.7-0.5,0.4,0.9,1,1
			c0.3-0.3,0.1-1.6,0.4-1.3c0.7,0.7,0.9,2,1,2.9c0.1,0.5-0.3,0.5-0.5,0c-0.1-0.2-0.1-0.4-0.1-0.7l-0.4,1.1L119.7,130.4z"/>
		<path class="st52" d="M121.6,126.9l0.8,0.2c-0.1,0.2-0.4,0.3-0.4,0.5c0.1,0.8,0.3,1.6,0.5,2.4c0,0.1,0.3,0.2,0.5,0.3l-1.2,0.2
			C121.6,129.4,120.4,128.3,121.6,126.9L121.6,126.9z"/>
		<path class="st53" d="M116.7,128.7v-0.8c1,0.1,0.5,1,0.8,1.4c0.3,0.5,0,1.6,1.2,1.4c0.1,0.8-0.7,0.5-1,0.7c-0.8,0-0.4-0.8-0.5-1.1
			C117,129.8,116.7,129.3,116.7,128.7z"/>
		<path class="st54" d="M114.2,129.7l-0.3,0.2c-0.1-0.1-0.2-0.3-0.2-0.5c0-0.1,0.1-0.2,0.2-0.3L114.2,129.7z"/>
		<path class="st55" d="M104.1,130.2c0,0.2,0.1,0.4,0.1,0.7c0.1,0.9,0.2,1.8,0.2,2.7c-0.1,0-0.1,0-0.2,0c-0.2-1.1-0.4-2.1-0.7-3.2
			C103.7,130.4,103.9,130.3,104.1,130.2L104.1,130.2z"/>
		
			<radialGradient id="SVGID_5_" cx="-3.300639e-02" cy="-28.3629" r="0" gradientTransform="matrix(1.1103 0 0 1.1146 -26.6058 99.8828)" gradientUnits="userSpaceOnUse">
			<stop  offset="0" style="stop-color:#616BAA"/>
			<stop  offset="0.1" style="stop-color:#535C9D"/>
			<stop  offset="0.35" style="stop-color:#353B80"/>
			<stop  offset="0.59" style="stop-color:#20246B"/>
			<stop  offset="0.81" style="stop-color:#12165E"/>
			<stop  offset="1" style="stop-color:#0E115A"/>
		</radialGradient>
		<path class="st56" d="M-26.6,68.3"/>
		
			<radialGradient id="SVGID_6_" cx="204.4895" cy="113.7482" r="43.2794" fx="204.4895" fy="129.138" gradientTransform="matrix(1.1103 0 0 1.1146 -26.6058 99.8828)" gradientUnits="userSpaceOnUse">
			<stop  offset="0.1" style="stop-color:#E76E2F"/>
			<stop  offset="0.11" style="stop-color:#E76F30"/>
			<stop  offset="0.38" style="stop-color:#E99157"/>
			<stop  offset="0.62" style="stop-color:#EBAA73"/>
			<stop  offset="0.84" style="stop-color:#ECB984"/>
			<stop  offset="1" style="stop-color:#ECBE8A"/>
		</radialGradient>
		<path class="st57" d="M141.5,215.3c-2.5,6,0.5,12.2,0.9,12.9c2.2,4.3,5.7,6.5,7.4,7.6c9.8,6,30.2,8.7,49.6-0.9
			c6.6-3.3,19.2-9.5,22.7-22.2c0.5-1.8,2.5-8.5,0.3-16.2c-0.9-2.9-2.4-8.2-6.8-10.9c-2.3-1.4-5.5-2.3-16.5,0.3
			c-4,1-12.9,3.3-27.5,10.2c-1.8,0.9-6.7,3.7-16.8,9C146.2,209.8,143.2,211.4,141.5,215.3z"/>
		<path class="st58" d="M140.1,217.2c-0.2,3.2,1.6,6,2,6.4c2.3,3.4,4.8,2.9,12.7,6.7c6.8,3.3,8.7,5.2,12.2,4.5
			c2.1-0.4,2.2-1.3,4.9-2.4c4.5-1.7,8.5-1,10.2-0.8c11,1.3,23.5-8.3,24.9-9.3c3-2.4,10.7-8.3,13.5-18.4c1.2-4,1.3-8.3,0.4-12.4
			c-0.4-2-1.7-7.6-5-8.4c-2.1-0.4-3.3,1.3-6,0.5c-2-0.5-2.2-1.6-4-2.3c-2.6-0.9-5.2,0.5-6.5,1.2c-11.6,6-23.6,11.3-35,17.6
			C148.9,208.8,140.5,210.9,140.1,217.2z"/>
		<path class="st59" d="M143,217.2c-0.3,1.3-0.4,2.1-0.1,2.9c0.5,1.7,2.4,2.6,3.4,3c4.5,2.2,5.3,4.2,8.3,5.9
			c7.9,4.5,22.3,1.3,27.7,0.1c9.6-2.1,15.3-3.4,21.7-8.2c8.8-6.6,11.8-14.7,13.4-18.5c1.2-3.2,3-8,0.9-10.4
			c-1.5-1.7-4.7-1.5-6.7-4.7c-0.7-1.1-0.5-1.3-1.2-1.8c-1.5-1.3-4.2-1.1-8.6,0.4c-4.9,1.6-8.8,2.9-13.4,6.4
			c-3.6,2.7-4.8,4.7-8.6,5.9c-1.8,0.5-2.5,0.4-4.7,1.2c-2.8,1.1-4,2.3-7.1,4.6c-5.2,3.9-7.9,5.9-11.2,6.1c-0.7,0-4.5,0.3-5.8-1.7
			c-1-1.4-0.3-3.3-0.9-3.5c-0.4-0.1-1.2,1-2.5,2.9C144.8,212.4,143.8,214.6,143,217.2z"/>
		<path class="st60" d="M92.2,153.2l5.2,7.9l18.7-16.3l-5.8-8.2L92.2,153.2z"/>
	</g>
</g>
</svg>
