<svg xmlns="http://www.w3.org/2000/svg" xmlns:xlink="http://www.w3.org/1999/xlink" viewBox="0 0 281.23 468.3"><defs><style>.cls-1{fill:#1b2479;}.cls-2{fill:url(#Dégradé_sans_nom_16);}.cls-3{fill:url(#Dégradé_sans_nom_16-2);}.cls-4{fill:#fff;stroke:#000;}.cls-4,.cls-61{stroke-miterlimit:10;}.cls-5{fill:url(#Dégradé_sans_nom_22);}.cls-6{fill:#efefe6;}.cls-7{fill:#bf968a;}.cls-8{fill:#b47d6a;}.cls-9{fill:#b98d7e;}.cls-10{fill:url(#Dégradé_sans_nom_45);}.cls-11{fill:#0e115a;}.cls-12{fill:#f8eee8;}.cls-13{fill:#9ccb34;}.cls-14{fill:#f82627;}.cls-15{fill:#e9f3eb;}.cls-16{fill:#e7f1e1;}.cls-17{fill:#b2cb78;}.cls-18{fill:#9fce41;}.cls-19{fill:#f3f2f6;}.cls-20{fill:#e66077;}.cls-21{fill:#ec474e;}.cls-22{fill:#ef902f;}.cls-23{fill:#e7827d;}.cls-24{fill:#f6ede5;}.cls-25{fill:#f9e8da;}.cls-26{fill:#eff4f0;}.cls-27{fill:#eef4ef;}.cls-28{fill:#eef3f2;}.cls-29{fill:#edf3f0;}.cls-30{fill:#ecf3ef;}.cls-31{fill:#f0f6ef;}.cls-32{fill:#e9f3e6;}.cls-33{fill:#e4eedb;}.cls-34{fill:#edf6e9;}.cls-35{fill:#e7f2e3;}.cls-36{fill:#ebf2eb;}.cls-37{fill:#eaf5e6;}.cls-38{fill:#e8f2de;}.cls-39{fill:#e9f3e2;}.cls-40{fill:#edf4e8;}.cls-41{fill:#ecf6ea;}.cls-42{fill:#cfe29a;}.cls-43{fill:#bed694;}.cls-44{fill:#c9d9a5;}.cls-45{fill:#b8d282;}.cls-46{fill:#bfd594;}.cls-47{fill:#ebf3ee;}.cls-48{fill:#ebf3ec;}.cls-49{fill:#f5f1ed;}.cls-50{fill:#b2d06f;}.cls-51{fill:#b6ce84;}.cls-52{fill:#edf5ee;}.cls-53{fill:#eef5ec;}.cls-54{fill:#ebf6ea;}.cls-55{fill:#c1d1a3;}.cls-56{fill:#eaf6e4;}.cls-57{fill:url(#Dégradé_sans_nom_45-2);}.cls-58{fill:url(#Dégradé_sans_nom_51);}.cls-59{fill:#f7e7c3;}.cls-60{fill:#a52009;}.cls-61{fill:none;stroke:#fff;stroke-width:2px;}</style><linearGradient id="Dégradé_sans_nom_16" x1="9.13" y1="462.47" x2="287.13" y2="462.47" gradientUnits="userSpaceOnUse"><stop offset="0" stop-color="#401205"/><stop offset="0.52" stop-color="#9a3f20"/><stop offset="1" stop-color="#662719"/></linearGradient><linearGradient id="Dégradé_sans_nom_16-2" x1="11.96" y1="166.1" x2="286.99" y2="166.1" xlink:href="#Dégradé_sans_nom_16"/><radialGradient id="Dégradé_sans_nom_22" cx="146.38" cy="325.45" r="145.08" gradientUnits="userSpaceOnUse"><stop offset="0" stop-color="#f4e76c"/><stop offset="1" stop-color="#ef4102"/></radialGradient><radialGradient id="Dégradé_sans_nom_45" cx="148.55" cy="109.68" r="101.01" gradientUnits="userSpaceOnUse"><stop offset="0" stop-color="#616baa"/><stop offset="0.1" stop-color="#535c9d"/><stop offset="0.35" stop-color="#353b80"/><stop offset="0.59" stop-color="#20246b"/><stop offset="0.81" stop-color="#12165e"/><stop offset="1" stop-color="#0e115a"/></radialGradient><radialGradient id="Dégradé_sans_nom_45-2" cx="-209.17" cy="123.97" r="0" xlink:href="#Dégradé_sans_nom_45"/><radialGradient id="Dégradé_sans_nom_51" cx="231.9" cy="430.41" fy="463.59739095235375" r="93.33" gradientUnits="userSpaceOnUse"><stop offset="0.1" stop-color="#e76e2f"/><stop offset="0.11" stop-color="#e76f30"/><stop offset="0.38" stop-color="#e99157"/><stop offset="0.62" stop-color="#ebaa73"/><stop offset="0.84" stop-color="#ecb984"/><stop offset="1" stop-color="#ecbe8a"/></radialGradient></defs><g id="Calque_2" data-name="Calque 2"><path class="cls-1" d="M93.8,641.73" transform="translate(-5.9 -54.88)"/><path class="cls-2" d="M285.9,446.91c3.07,11.76-.55,24.48-.55,24.48-5.15,18.18-20.24,28.15-26.66,32.65-9.25,6.5-20.37,11.17-60.95,15.24-35,3.51-60,5.86-94.14,1.63-27.59-3.41-43-8.85-54.41-14.14C34.92,500.13,21.61,494,14.36,480.1c-7.68-14.68-5.53-32-2.19-40.46C36.33,378.61,273.39,399,285.9,446.91Z" transform="translate(-5.9 -54.88)"/><path class="cls-3" d="M21.59,141.2a61.73,61.73,0,0,0-8.73,20.14,76.94,76.94,0,0,0-.67,16.75c2.76,27,246.66,72.68,272.62,6.53,4.27-10.87,1.15-20.94,0-24.49C260.62,85.72,38.36,116.75,21.59,141.2Z" transform="translate(-5.9 -54.88)"/><path class="cls-4" d="M344.08,15.79" transform="translate(-5.9 -54.88)"/><path class="cls-4" d="M269.51,20" transform="translate(-5.9 -54.88)"/><path class="cls-5" d="M280.46,451.26c1.13-.41,4.37-1.6,5.44-4.35a12.06,12.06,0,0,0,.54-2.18,11.57,11.57,0,0,1-.54,2.18c-1.27,0,0-141,.54-211.14.21-26.37.35-47.29.43-57.85h0s-41.14,8.7-51.13,10.68c-75.7,15.07-155.84,1.83-185.41-3-16.61-2.74-30-5.61-38.14-7.46l-1.09-2.17s-2.29,32.2-3.27,62c-.53,16.13-.2,17-.54,50.06-.39,37.29-.87,42.24-1.09,64.76-.54,54.5-.81,81.75,3.26,88.7,13.73,23.42,53.6,26.68,133.32,33.19C142.78,474.66,203.21,479.6,280.46,451.26Z" transform="translate(-5.9 -54.88)"/><path class="cls-4" d="M141.15,466.5" transform="translate(-5.9 -54.88)"/><path class="cls-4" d="M419.22,173.74" transform="translate(-5.9 -54.88)"/><path class="cls-6" d="M224.53,231.34c1.13-6.07,3.95-11,9.84-13.47,3.28-1.4,6.49-.73,9.41,1.19,3.59,2.35,6,5.75,8,9.45a3.78,3.78,0,0,1,.62,2.37,6,6,0,0,0,1.39,4.58c-.11,1.06.66,1.73,1.14,2.49a7.21,7.21,0,0,1,1,6.3,27.14,27.14,0,0,1-5.72,10.31,11,11,0,0,1-6.67,3.91,1.85,1.85,0,0,0-.77.38c-1.64,1.2-.38,3.51-1.25,6.12-.45,1.33-.91,1.13-6.79,7l-1.34,1.36c-4.1,4.18-6,6.89-8.29,9.49-5.4,6.07-7.19,4.72-11.3,10.27-2.31,3.13-1.49,3.22-3.92,6.46-4.16,5.56-6.6,5.33-9.68,9.79-2.73,4-1.13,4.52-4.07,10.24-1.67,3.24-4.88,9.48-10.8,12.88a65.2,65.2,0,0,0-8.82,5.76,16.05,16.05,0,0,0-1.34,1.13,27.66,27.66,0,0,0-2.44,2.88c-2.27,2.7-6.94,6-17.58,8.22a12.7,12.7,0,0,0-2.93,1.16,21.15,21.15,0,0,1-2.53,1.34c-.37.14-.75.28-1.12.44s-.56.22-.66.42a14.94,14.94,0,0,1-4.18,4.73c-2.8,2.26-5.34,5.05-9.54,4.16-.91-.19-1.88.58-1.78,1.28.23,1.54-.46,2.61-1.1,3.84-2.63,5.07-6.94,7.51-12.43,8.16-3.64.44-5.55-2.1-6.52-1.18-1.14,1.08,1.39,3.81.21,7.33a7,7,0,0,1-2.66,3.75c-1.58,1.23-3.36,2.28-4.53,4a5.09,5.09,0,0,1-3.09,1.43c-3,.13-5.24-3.34-6.26-2.7-.47.29-.25,1.2-.23,2.31a23.11,23.11,0,0,1-1.2,7c-.39.8-3.35,6.66-9.58,7.81a13.32,13.32,0,0,1-9.64-2.15c-3.93-2.57-6.67-6.23-8.94-10.22-3.6-6.32-5.89-13-4.31-20.41,1-4.56,4.66-8.67,9.1-9.43a4.49,4.49,0,0,0,1.87-.93c1.49-1.2,1.12-2.46,2.39-4.51a10.28,10.28,0,0,1,3.68-3.44c1.7-.95,1.95-.43,3.3-1.26,1.9-1.17,2-2.54,4-5a18.77,18.77,0,0,1,3.12-2.91l.6-.31,1.77-.8c2,.18,2.7-.49,4-2.91,2.6-5,6.6-8,12.42-8,2.56,0,2.58,0,2.85-2.7a2.49,2.49,0,0,1,.19-1c1.69-2.62,3.1-5.52,5.21-7.74a6.8,6.8,0,0,0,1.48-2.29,8.1,8.1,0,0,0,.28-4.33c-.12-.77,0-3.78.13-9.79.12-4.26.17-6.39.62-8.12A27,27,0,0,1,124.79,287c.29-.34,0,0,3.8-4.17a26.83,26.83,0,0,1,3.08-3.13,21.87,21.87,0,0,1,3.91-2.49,61.67,61.67,0,0,1,7.25-3.56c3.36-1.34,3.62-1,7.74-2.61a29.29,29.29,0,0,0,5.15-2.32c1.75-1.08,1.73-1.6,5.38-4a36.62,36.62,0,0,1,3.72-2.26c5.18-2.53,7-.45,11.36-2.72,1.69-.88,3.55-2.37,5.33-2.18,1.36.15,1.94-.59,1.81-2.05a10.1,10.1,0,0,1,2.33-7.83,8.86,8.86,0,0,1,9.06-3,8.23,8.23,0,0,1,6.18,6.21,1.85,1.85,0,0,0,1.05,1.33c.17-.76,1-1,1.28-1.65a34.6,34.6,0,0,1,9.91-11.49c3-2.32,4.69-.86,7.73-3.3A14.75,14.75,0,0,0,224.53,231.34Z" transform="translate(-5.9 -54.88)"/><path class="cls-1" d="M144.49,308a10.2,10.2,0,0,1,7.25,3.7c4,4.51,7.78,9.18,11.65,13.78,1.25,1.48,2.5,2.95,3.74,4.43s1.2,2-.27,3.32-3.09,2.66-4.66,4c-1.4,1.18-2,1.15-3.17-.25q-7.14-8.5-14.23-17c-1.49-1.79-2.86-2.18-4.25-1.19s-1.43,1.56-.39,2.82c3.51,4.26,7.05,8.5,10.57,12.75,1.62,2,3.21,3.94,4.85,5.87a1.72,1.72,0,0,1-.27,2.82c-1.7,1.41-3.38,2.85-5.06,4.28-1.1.94-2,.84-2.95-.32q-6.63-8.16-13.33-16.27a18.56,18.56,0,0,0-2.17-2.26,2.23,2.23,0,0,0-2.91-.12c-1.35.91-1.47,1.68-.43,3l15,18.36c1.41,1.72,1.35,2.22-.39,3.63-1.5,1.22-3,2.47-4.47,3.69-1.34,1.1-2,1-3-.28-6.09-7.63-12.16-15.29-18.29-22.89a3.11,3.11,0,0,1-.28-4.17,28.14,28.14,0,0,1,10.87-10.15,6.91,6.91,0,0,1,3.17-.89c1.26,0,1.78-.42,2.14-1.67C134.53,312.1,139.72,308,144.49,308Z" transform="translate(-5.9 -54.88)"/><path class="cls-1" d="M98.87,348.16a11.13,11.13,0,0,1,15.27-10.73,17.79,17.79,0,0,1,4.86,3.1c4.59,4,8.36,8.64,10.25,14.56,1.77,5.53.41,10.14-3.89,13.45s-8.88,3.49-13.78.08a31,31,0,0,1-12.13-16.87A26.6,26.6,0,0,1,98.87,348.16Zm10,.66a5.52,5.52,0,0,0,.54,2.07,28.44,28.44,0,0,0,6.1,8c.92.82,2,2,3.32,1s.59-2.57,0-3.76a29.78,29.78,0,0,0-5.56-7.36,6.22,6.22,0,0,0-2.15-1.51A1.51,1.51,0,0,0,108.84,348.82Z" transform="translate(-5.9 -54.88)"/><path class="cls-1" d="M171.13,326.53c-4.25-.16-7-2.73-9.18-6-2.73-4-2.37-8.11.09-12.14a36.76,36.76,0,0,1,3.34-4.51c.48-.57,1.2-1.12.72-2a2.63,2.63,0,0,0-2.14-1.37,4.39,4.39,0,0,0-3.31,1.26,20.25,20.25,0,0,0-4.42,5.33c-.6,1-1.08,1.3-1.91.18s-2-2.36-3-3.55c-.39-.46-.78-.92-.41-1.62,2.48-4.74,6-8.54,11-10.56,4.33-1.74,8,0,11.15,3,3.41,3.17,6.12,7,9.15,10.47,1.7,2,3.28,4,5,6a2.13,2.13,0,0,1,.4,2.69,28.13,28.13,0,0,1-12.71,12.12A8.28,8.28,0,0,1,171.13,326.53Zm2.32-9.07a3.57,3.57,0,0,0,3.35-1.68c.65-1-.32-1.63-.83-2.27-1.45-1.79-3-3.53-4.44-5.31-.72-.87-1.39-.81-2,0a4.62,4.62,0,0,0-.56,5.12C170,315.44,171.41,317.15,173.45,317.46Z" transform="translate(-5.9 -54.88)"/><path class="cls-1" d="M221.32,239.12c3.09-.07,4.91,1.65,6.44,3.64,2.33,3,4.51,6.14,6.72,9.24,1.67,2.32,3.26,4.7,4.93,7a2.41,2.41,0,0,1-.1,3.31c-1.28,1.51-2.63,3-3.88,4.52-1,1.19-1.63.91-2.43-.19-3.7-5.09-7.45-10.14-11.18-15.2a9.81,9.81,0,0,0-1.28-1.52c-1.14-1-2.16-.65-3.21.29s-.7,1.69,0,2.65c4.24,5.58,8.4,11.22,12.64,16.8,1,1.29,1,2.33-.17,3.49-1.35,1.38-2.63,2.83-3.9,4.29-1,1.1-1.72,1.05-2.63-.15-4.82-6.31-9.7-12.59-14.56-18.88-.3-.39-.62-.77-.92-1.17-2.48-3.2-2.61-2.33-.49-6a28.37,28.37,0,0,1,11.41-11.44,7.86,7.86,0,0,1,1.71-.59A4.37,4.37,0,0,1,221.32,239.12Z" transform="translate(-5.9 -54.88)"/><path class="cls-1" d="M65.21,377.46a12.38,12.38,0,0,1,1.39-5.88c2.65-5,7.66-6.41,12.44-3.42s7.72,7.33,10.41,12a22.85,22.85,0,0,1,3,8.69,11.28,11.28,0,0,1-5.85,11.52c-3.17,1.75-7.08,1.16-10.43-1.66A33.49,33.49,0,0,1,67.71,387,25.35,25.35,0,0,1,65.21,377.46ZM83.1,388.85a2.63,2.63,0,0,0,0-.49,24.84,24.84,0,0,0-7.13-10.75,1.29,1.29,0,0,0-1.54-.24,1.47,1.47,0,0,0-.72,1.55,10.12,10.12,0,0,0,1.53,4.16c1.46,2.63,2.93,5.29,5.55,7C82,390.91,83.09,390.32,83.1,388.85Z" transform="translate(-5.9 -54.88)"/><path class="cls-1" d="M167.23,265.82A2.53,2.53,0,0,1,169,267l23.79,28.61c1.76,2.12,3.51,4.26,5.25,6.4,1.28,1.57,1.25,2.16-.19,3.49s-3,2.77-4.51,4.14c-1.32,1.19-1.78,1.16-3-.25l-20.47-24.54c-3-3.65-6.08-7.29-9.17-10.9-1-1.2-1.1-2.17.19-3.22,1.71-1.39,3.36-2.86,5-4.3A2.46,2.46,0,0,1,167.23,265.82Z" transform="translate(-5.9 -54.88)"/><path class="cls-1" d="M96.87,369.92c-1.11-2.81-2.57-5.21-3.82-7.7-1.35-2.72-2.72-5.43-4.15-8.11a1.92,1.92,0,0,1,.59-2.74c1.2-1,2.35-2,3.55-3s1.95-.86,2.65.65q4.59,10,9.18,20c1.42,3.11,2.85,6.22,4.35,9.31a2.22,2.22,0,0,1-.68,3.16c-1.67,1.26-3.26,2.64-4.87,4a1.66,1.66,0,0,1-2.49,0c-7.86-6.87-15.57-13.89-22.93-21.3-1.25-1.25-1.17-2,.17-3.16s2.53-2.15,3.7-3.31,1.88-1,2.9.1c3.42,3.75,6.91,7.45,10.38,11.15A2.13,2.13,0,0,0,96.87,369.92Z" transform="translate(-5.9 -54.88)"/><path class="cls-1" d="M182.64,260.44c1.09.21,1.63,1.34,2.39,2.15.94,1,1.69,2.17,2.58,3.21,1.1,1.29,2,1.32,3.24.21,1.43-1.24,2.08-1.22,3.2.19s2.42,3.14,3.66,4.69a1.88,1.88,0,0,1-.21,2.89c-1.56,1.51-1.57,2.11-.22,3.79,3.77,4.68,7.56,9.35,11.31,14.05,1.46,1.82,1.4,2.21-.29,3.87-1.37,1.35-2.75,2.71-4.11,4.07-.95.95-1.78.89-2.64-.15q-11.09-13.5-22.19-27c-1.12-1.36-2.27-2.7-3.41-4.06a1.84,1.84,0,0,1,.27-3c1.59-1.35,3.09-2.81,4.61-4.26A2.56,2.56,0,0,1,182.64,260.44Z" transform="translate(-5.9 -54.88)"/><path class="cls-1" d="M251.22,235.74c1.06,1.71,2,3.29,3,4.89a1.93,1.93,0,0,1,0,1.61,19.7,19.7,0,0,1-6,9.39c-2.76,2.43-5.6,2.56-8.85.66-7-4.1-11.83-14.34-10.37-22a12.67,12.67,0,0,1,5.95-8.79c2.66-1.65,6-1.26,8.94,1.08a26,26,0,0,1,6,7.26c.65,1.08,0,1.78-.56,2.51-2.18,2.71-4.4,5.39-6.55,8.13-.58.74-1.79,1.4-.84,2.67a2.93,2.93,0,0,0,3.76.67c1.73-.95,2.63-2.62,3.57-4.25C249.94,238.36,250.21,237,251.22,235.74Zm-15.49-4.38a8,8,0,0,0,.91,2.89c.6,1.08.86,2.86,2.15,2.88s1.82-1.74,2.76-2.64a1.09,1.09,0,0,0,.08-1.39,11,11,0,0,0-3.15-3.56C237,228.58,235.75,229.31,235.73,231.36Z" transform="translate(-5.9 -54.88)"/><path class="cls-1" d="M215.19,288.08c-.8,0-1.13-.73-1.56-1.27q-7.08-8.85-14.13-17.73c-1.31-1.63-2.6-3.29-4-4.89a1.73,1.73,0,0,1,.15-2.73c1.69-1.58,3.39-3.15,5.06-4.76,1.3-1.25,2.06-.28,2.81.66q6.31,8,12.61,16c1.64,2.09,3.2,4.22,4.84,6.3a2.09,2.09,0,0,1-.14,3.2c-1.5,1.46-2.92,3-4.37,4.52A2.08,2.08,0,0,1,215.19,288.08Z" transform="translate(-5.9 -54.88)"/><path class="cls-1" d="M188.18,253.32c0-3.37,2.19-5.71,5.34-5.69a5.6,5.6,0,0,1,5.28,5.71,5.33,5.33,0,0,1-5.19,5.69A5.51,5.51,0,0,1,188.18,253.32Z" transform="translate(-5.9 -54.88)"/><path class="cls-1" d="M195.14,229.55c4.81,3.89,5.43,10.1,5.55,12a13,13,0,0,1-.78-1c-4-6.78-10.18-9.42-17.9-7.7a48.5,48.5,0,0,0-14.54,6.25c-9.42,5.7-17.68,12.84-25.48,20.55a268.63,268.63,0,0,0-32.94,39.92c-3.54,5.2-7,10.49-10.15,15.91-2.71,4.6-5,9.44-7.5,14.17,0-.33,0-.66,0-1a5.12,5.12,0,0,1,.21-1c.24-.72,4-8.69,9.13-19.53,1.54-3.11,3.57-6.92,6.16-11.16,3.68-6,6.85-10.22,12.85-18.18,4.5-5.95,7.18-9.24,8-10.19,3.37-3.84,5.87-6.81,7.38-8.44a191.11,191.11,0,0,1,21.73-20,95,95,0,0,1,9.93-7c4.63-2.81,6.94-4.21,10.27-5.18S188.92,224.52,195.14,229.55Z" transform="translate(-5.9 -54.88)"/><path class="cls-6" d="M90.05,332.35a2.93,2.93,0,0,0,.75-1.84l0,0c.3-.06.39-.3.47-.55l.18-.34c2.48-4.73,4.79-9.57,7.5-14.17,3.19-5.42,6.61-10.71,10.15-15.91A268.63,268.63,0,0,1,142,259.65c7.8-7.71,16.06-14.85,25.48-20.55A48.5,48.5,0,0,1,182,232.85c7.72-1.72,13.87.92,17.9,7.7a13,13,0,0,0,.78,1h0c.32,1.11.63,2,.86,2.63.44,1.19.86,2.12.48,2.58a.43.43,0,0,1-.28.17c-.4,0-.75-.8-.85-1-.72-1.65-3.29-6-5.58-7.72a15.06,15.06,0,0,0-4.61-2.28c-3.05-.91-6.27-.51-9.45.27a43.86,43.86,0,0,0-12.09,5c-2.66,1.59-5.29,3.25-7.82,5.08A142.18,142.18,0,0,0,147,258.46c-9,8.57-13.44,12.85-18.49,18.67-6.13,7.05-10.54,13.16-17.09,22.23-1.76,2.44-3.16,4.47-4,5.77-1.34,2-3,4.48-4.9,7.55s-3.15,5.49-3.72,6.56c-2,3.64-5.31,9.7-11.51,20.38C87.75,337,89.33,334.86,90.05,332.35Z" transform="translate(-5.9 -54.88)"/><path class="cls-6" d="M83.1,388.85c0,1.47-1.06,2.06-2.36,1.22-2.62-1.7-4.09-4.36-5.55-7a10.12,10.12,0,0,1-1.53-4.16,1.47,1.47,0,0,1,.72-1.55,1.29,1.29,0,0,1,1.54.24,24.84,24.84,0,0,1,7.13,10.75A2.63,2.63,0,0,1,83.1,388.85Z" transform="translate(-5.9 -54.88)"/><path class="cls-7" d="M138.77,167.71c-14.51,17.53-31,10.42-46.24,10.67-8.44.14-16.89-.77-25.33-1.27-1.51-.09-3.24,0-3.17-2.57.1-3.77,2-6.66,5.28-6.7C91.94,167.58,114.57,167.71,138.77,167.71Z" transform="translate(-5.9 -54.88)"/><path class="cls-8" d="M217.07,175.75l-2,0c-2.35.69-4.81-.19-7.17.49l-.25,0-.24,0c-8.14.49-16.31,1.64-24.39,1.19-4.07-.23-8-3.39-11.95-5.22l.26-.34a3.36,3.36,0,0,1,3.41,0c4.09,1.92,8.42,2.27,12.86,2.58s8.71.08,13.07.07c7.91,0,15.76-.61,23.62-1.22a12.66,12.66,0,0,0,3-.63,20.13,20.13,0,0,1,7.5-1.22,8.07,8.07,0,0,0,5.08-1.35,1.49,1.49,0,0,0,.36-2.54c-.86-1-2.13-1.75-2.27-3.27.06-.13.13-.25.2-.38,2.9,2.16,7.17,3.76,6.16,8.13-.25,1.09-5,1.28-7.66,1.64-4.62.61-9.26,1-13.9,1.55C220.89,176,218.91,175.07,217.07,175.75Z" transform="translate(-5.9 -54.88)"/><path class="cls-9" d="M235.5,164l2.52,0c.71,2.25,5.27,2.58,3.66,5.54s-5.41,2-8.3,2.83c-12.36,3.37-25.06,2.89-37.56,3.46-8.15.37-16.44-2.39-24.66-3.76-3-5.47-3-5.58,5.48-6,6.84-.36,13.69-.39,20.53-.57.5,1.59-.57,2.33-1.66,3-.76.48-1.77.58-2.59,1.65,5.09.2,9.85.84,14.66.67a46,46,0,0,1,7.6.31c5,.68,9.72-1.06,14.54-1.89,1.74-.3,3.41-1,5.14-1.44,1.44-.36,2.56-.85,1-2.47A1.21,1.21,0,0,1,235.5,164Z" transform="translate(-5.9 -54.88)"/><path class="cls-10" d="M185.16,66.64c18.54.58,37,3.53,55.58,2.93,10.16-.32,20.27,1.58,30.34,3A21.86,21.86,0,0,1,279,74.85c.91.51,1.88,1.18,1.86,2.18-.07,2.63,1,5,1.14,7.59.91,18,1.68,36,2.58,54a3.77,3.77,0,0,1-2.1,3.91,58.26,58.26,0,0,1-6.09,2.59c-.46.2-1.33.06-1.19,1a10.08,10.08,0,0,0-2.71.63c-3.66.68-7.43.59-11.09,1.41a88.55,88.55,0,0,1-10.4,1.21c-4.83.47-9.66,1-14.5,1.42-7.63.61-15.29,1-22.93,1.28-9.48.32-19,1-28.46.82a8.36,8.36,0,0,0-1.66.06c-3.72.7-7.46-.19-11.19.06-2.5.16-5-.09-7.54.07-5.21.33-10.45.29-15.66.21-2.33,0-4.8-.22-7.17-.28-13.85-.36-27.7,0-41.56-.7-7.58-.38-15.18-.45-22.77-.83a4.91,4.91,0,0,1-.66-.06c-4.93-1.08-10-.52-15-1.13-3.61-.44-7.28-1.19-11-.82a1,1,0,0,1-.49-.07c-2.1-1-4.41-.74-6.58-.88-3.78-.25-7.48-.91-11.23-1.29a2.54,2.54,0,0,1-1-.18c-2.81-1.54-6-1.72-9-2.46-.09-.78-.79-.65-1.26-.83-1.6-.6-3.25-1.09-4.81-1.79-3.45-1.57-4.17-2.83-4-6.56q.58-13.48,1.14-27c.32-8,.58-16,.88-24,0-.93-.08-2,.79-2.6s.72-1.14.72-1.85a22.77,22.77,0,0,0,0-2.48c-.24-2.38,1-3.75,3-4.58a10.87,10.87,0,0,1,2.52-.81C78.43,63.26,185.16,66.64,185.16,66.64Zm35,18.34c-16.73-.23-33.46.35-50.19.48C186.67,86.65,203.4,86,220.12,85ZM81.3,84.27c4.6.93,44.29,1.93,47.05,1.16C112.67,84.89,97,84.27,81.3,84.27Z" transform="translate(-5.9 -54.88)"/><ellipse class="cls-11" cx="143.07" cy="20.2" rx="131.78" ry="20.2"/></g><g id="Calque_3" data-name="Calque 3"><path class="cls-12" d="M27.12,289.21c1.13-.44,2.15-.41,2.78.78.06.13-.42.78-.68.8s-.71-.35-1.1-.46c-.08,0-.43.42-.4.6.16,1.16,1.07,1.07,1.91,1.06,2-.05,3.05,1.29,3.47,3a2.84,2.84,0,0,1-.82,2.34c-.87.75-1.94.42-2.69-.53-.37-1.34-.24-1.52.95-1.26.5.06.89,0,.62-.66a1.82,1.82,0,0,0-1.89-1.14c-2.36,0-3.45-1.54-2.67-3.78Z" transform="translate(-5.9 -54.88)"/><path class="cls-12" d="M36.23,280.64c1.12-.44,2.14-.41,2.77.78.07.13-.41.78-.68.8s-.71-.35-1.1-.46c-.08,0-.43.42-.4.6.16,1.16,1.07,1.07,1.91,1.06,2-.05,3.05,1.29,3.47,3a2.84,2.84,0,0,1-.82,2.34c-.87.75-1.94.42-2.69-.53-.37-1.34-.24-1.52,1-1.26.51.06.89,0,.62-.66a1.82,1.82,0,0,0-1.89-1.14c-2.36,0-3.45-1.54-2.67-3.78Z" transform="translate(-5.9 -54.88)"/><rect class="cls-13" x="16.83" y="224.88" width="66.13" height="29.49" transform="translate(-44.43 -43.49) rotate(-9.42)"/><rect class="cls-14" x="46.85" y="260.24" width="18.33" height="18.65" transform="translate(226.89 3.6) rotate(51.68)"/><path class="cls-15" d="M23,243.93c-.35-2.66-.79-5.32-1-8-.13-1.65.89-2.31,2.5-2a3.42,3.42,0,0,1,1.76,2.59c.19,2.16,1,4.22.91,6.41a2.34,2.34,0,0,1-3.2,2.35C23.23,245,23.34,244.36,23,243.93Z" transform="translate(-5.9 -54.88)"/><path class="cls-16" d="M24,250c-.62-1-.7-2,.36-2.8s1.25.25,1.68.79c.63.74.16,1.18-.45,1.55.24.44.58.76.94,1.31.24-1.16,0-2.19.25-3.16.11-.41-.15-1,.55-1.06a.9.9,0,0,1,1,.91.7.7,0,0,0,.21.45h0a18,18,0,0,1,1.4,4.36c.18,1.18-.1,1.39-1.26,1-.36-.12-.42.15-.62.25-.44.26-1,0-1.4.24a1.54,1.54,0,0,1-1.83.25c-.61-.31-.56-1-.53-1.54a.93.93,0,0,1,0-.24C24.68,251.24,24.68,251.24,24,250Z" transform="translate(-5.9 -54.88)"/><path class="cls-17" d="M29,244.9l0-.41a21.05,21.05,0,0,1-.6-3.43c-.08-.68,0-1.44.87-1.52s1,.57,1.13,1.23c.08.49.18,1,.25,1.47a1.83,1.83,0,0,0,1.3,1.64l.1.09-1.53.95h0c-.2-.2-.49-.31-.64-.56-.25-.44-.2.14-.33.1Z" transform="translate(-5.9 -54.88)"/><path class="cls-18" d="M29.58,244.46V242c.45,1.35.71,2.12,1,2.88Z" transform="translate(-5.9 -54.88)"/><path class="cls-19" d="M54.67,274.1l-.57.44a2.33,2.33,0,0,1-.54.5c-1.05.93-1.05.93-2-.13a14.44,14.44,0,0,1-1.48-2,1.07,1.07,0,0,1,.28-1.71,1.54,1.54,0,0,0,.19-.17c1.83-1.66,1.84-1.7.45-3.74-1-1.54-1-1.85.27-3.06,1.78-1.68,1.93-1.67,3.56.11.41.79.61,1.81,1.85,1.72h0a9.43,9.43,0,0,1,1.25-1c1.41-1.54,2-.08,2.86.73,2.07,2-.06,2.75-1.1,3.82a1.08,1.08,0,0,0,.06,1.65c.55.56.76,1.37,1.36,1.92s.36.88-.06,1.3a5.51,5.51,0,0,1-1.63,1.33l-.29.27c-.48.62-.93.53-1.4,0s-1.07-1.35-1.56-2.06S55.12,273.54,54.67,274.1Z" transform="translate(-5.9 -54.88)"/><path class="cls-20" d="M65.71,272.59,61.64,276Z" transform="translate(-5.9 -54.88)"/><path class="cls-21" d="M52.61,262l2-1.72Z" transform="translate(-5.9 -54.88)"/><path class="cls-22" d="M53.63,281.61l-1.23-1.52Z" transform="translate(-5.9 -54.88)"/><path class="cls-23" d="M57.91,265l-1.25,1Z" transform="translate(-5.9 -54.88)"/><path class="cls-24" d="M31.52,288.68l2.5,3.51a1.39,1.39,0,0,0,.76.69,1.24,1.24,0,0,0,1.12-.1,1.27,1.27,0,0,0,.19-1.59,9.82,9.82,0,0,0-1.26-2.77s-.35-.53-2.12-2.58h0c0-.14,0-.62.27-.72s.59.24.81.46a15.14,15.14,0,0,1,2.49,3.22,17.06,17.06,0,0,1,1.09,2.62A2.33,2.33,0,0,1,34,294.15c-.69-.93-1.44-2-2.24-3.08,0,0-2-2.8-1.62-3.31a.72.72,0,0,1,.21-.17c.57-.25.61.39.85.68C31.34,288.4,31.42,288.55,31.52,288.68Z" transform="translate(-5.9 -54.88)"/><path class="cls-12" d="M39.6,277.37c1.12-.44,2.15-.41,2.77.78.07.13-.41.78-.67.8s-.72-.35-1.1-.46c-.08,0-.43.42-.41.6.17,1.16,1.08,1.07,1.92,1.06,2,0,3,1.29,3.46,3a2.8,2.8,0,0,1-.81,2.34c-.87.75-1.94.42-2.69-.53-.38-1.34-.25-1.52,1-1.26.5.06.88,0,.61-.66a1.82,1.82,0,0,0-1.88-1.14c-2.36,0-3.46-1.54-2.68-3.78Z" transform="translate(-5.9 -54.88)"/><path class="cls-25" d="M38.93,291.49c-.94-1.44-2-2.93-3.07-4.44-.69-.93-1.37-1.83-2-2.69a.5.5,0,0,1,0-.72.51.51,0,0,1,.69,0l1.83,2.57c1.06,1.5,1.38,1.95,1.81,2.59.6.9,1.06,1.64,1.36,2.14a.4.4,0,0,1-.57.53Z" transform="translate(-5.9 -54.88)"/><path class="cls-26" d="M59.68,230.36c0-1-1-2.15.44-2.82,1.85-.84,1.91.91,2.53,1.85a3.14,3.14,0,0,1,.76,1.12c0-.86,0-1.59,0-2.32s.33-1.45,1.25-1.58c1.27-.17,1.8.11,2.13,1.16a26.71,26.71,0,0,1,.61,3.06c.39,2,1.14,3.93,1,6a1.36,1.36,0,0,1-.14.6c-1.54.65-1.56.65-2.37-1.36a2.13,2.13,0,0,1-.1-.56,2,2,0,0,0-.13-.75c-.3,1.07,0,2.23-.37,3.29-.57.43-1,.21-1.37-.27a3.82,3.82,0,0,1-.95-1.6,6.29,6.29,0,0,1,.18,1.4c0,.57-.08,1.11-.82,1.2s-1.31-.24-1.36-1a32.41,32.41,0,0,0-.59-3.68C60.2,232.86,59.88,231.62,59.68,230.36Z" transform="translate(-5.9 -54.88)"/><path class="cls-27" d="M74,235.91l-.84.93c-2.61.95-3.65.55-4.58-1.67a20.07,20.07,0,0,1-1.34-6.54,2.36,2.36,0,0,1,.46-1.76h0a2.5,2.5,0,0,1,4-1l0,0a3.07,3.07,0,0,1,1.74,2.56,49.07,49.07,0,0,0,1.08,5.37A2.44,2.44,0,0,1,74,235.91Z" transform="translate(-5.9 -54.88)"/><path class="cls-28" d="M50.15,235.83l0-1.94c-.29-1.27,0-2.56-.23-3.83-.11-.7.39-.9,1-1s1.2-.09,1.43.61.55,1.46.77,2.22l1,3a19.84,19.84,0,0,1,1,2.47h0c.22.82,1.1,1.51.5,2.49h0c-.79.37-1.55.59-2-.48h0a2,2,0,0,1-.3-.53.58.58,0,0,0-.7-.38.64.64,0,0,0-.48.64c0,.29,0,.58,0,.87-.09.6-.48.8-1.06.78s-.78-.34-.8-.88A30.88,30.88,0,0,0,50.15,235.83Z" transform="translate(-5.9 -54.88)"/><path class="cls-29" d="M44.59,235.9c1.19-1.7-3.12-4.68,1.33-5.63,2.21-.47,2.69,1.06,3.21,2.62a4.54,4.54,0,0,1,0,3l-1.46,1c-.9.46-.72,1.21-.51,2v0a3.78,3.78,0,0,1,.08,2.44c-1.18.51-1.78.26-1.84-.83-.08-1.58-.62-3.07-.77-4.63Z" transform="translate(-5.9 -54.88)"/><path class="cls-30" d="M42.05,240.46c.14.72.77,1.81-.48,1.86-1.09.05-2.88,1.72-3.28-1s-.93-5.47-1.41-8.21c-.14-.76-.06-1.37.86-1.43s2-1,2.7.21-.76.92-1.26,1.26c-1,.73-.71,2.24-.28,2.33,2.53.56,1.88,1.6.67,2.89l0,.51c.29.46.09,1.08.48,1.52Z" transform="translate(-5.9 -54.88)"/><path class="cls-31" d="M76.74,231.87c-.15,2.45,1.77,1.74,3.05,2a1.3,1.3,0,0,1-.74,2,7,7,0,0,1-3.18.34c-.46,0-.47-.53-.63-.85h0A11.88,11.88,0,0,1,74,231.23a44.2,44.2,0,0,1-.8-4.55c-.16-1.68.37-2.11,2-1.8l.55,2C76.07,228.53,76.45,230.19,76.74,231.87Z" transform="translate(-5.9 -54.88)"/><path class="cls-32" d="M55.14,233.88c.44-1.83-2.23-5,.07-5.13,2.59-.09,1.17,4.12,2.37,6.15.15.25.07.65.1,1,.16,1.09.62,1.61,1.88,1.33.83-.18,1.28.65,1.08,1.67h0a6.16,6.16,0,0,1-3.79.84c-.8,0-1.12-.76-1-1.46C56,236.73,55.33,235.35,55.14,233.88Z" transform="translate(-5.9 -54.88)"/><path class="cls-33" d="M68.67,242.47c-.47,1.12,2.76,3.26-1,3.49l-.81,1.14a5.93,5.93,0,0,1-.69-1.12,19.55,19.55,0,0,1-.48-1.9c-.84.57-1.87,1-1.5,2.35-.68.33-.79-.17-.86-.63a1.85,1.85,0,0,1,.85-1.69c.33-.28.8-.49.66-1.08s0-1.34-.7-1.63a1.93,1.93,0,0,0-2,.57c.07-.5.05-1.39.23-1.43,1.34-.33,2.78-.7,3.39,1.34.41-1.11,0-3.13,1.92-1.63C68.25,240.68,68.35,241.71,68.67,242.47Z" transform="translate(-5.9 -54.88)"/><path class="cls-34" d="M55.13,241.93l.51,0c1.72.92,1.59,2.69,1.84,4.23a2.33,2.33,0,0,1-.35,2.25c-1.35.76-2.77,1.74-3-1-.39-.8-.21-1.71-.51-2.52h0a1.52,1.52,0,0,1-.21-.57C53.15,242.42,53.28,242.23,55.13,241.93Z" transform="translate(-5.9 -54.88)"/><path class="cls-35" d="M38.07,252c-.33-2.35-.67-4.7-1-7,1.11-.11,1.06.85,1.4,1.44.11-.51-.21-1.27.53-1.56s.85.31,1.12.72c.38,1.41.47,2.87.8,4.28a.71.71,0,0,1,0,.25c0,.66.12,1.47-.79,1.59s-.87-.69-1-1.26C39.09,251.12,39.36,252.08,38.07,252Z" transform="translate(-5.9 -54.88)"/><path class="cls-36" d="M31.51,246l1.26,6c0,.16.06.41,0,.48-1.47,1.22-1.39-2.16-1.78-1-1.07,3.2-.83,1.24-1-.14-.09-.75-.35-1.47-.4-2.22a23.7,23.7,0,0,1,.1-2.52l1.42,1.77V246Z" transform="translate(-5.9 -54.88)"/><path class="cls-37" d="M42.09,244.43l.28-.48a.61.61,0,0,1,.78-.1,1.69,1.69,0,0,1,.48,1c.35,1.31.31,2.69.77,4a1.79,1.79,0,0,1-.76,2.18,1.55,1.55,0,0,1-2,0h0c-.06-.06-.15-.1-.18-.17a10.83,10.83,0,0,1-1-6c.06-.53.44-.65.9-.26a2,2,0,0,1,.69,1.28,19.9,19.9,0,0,0,.49,2.57C42.31,247.16,41.68,245.84,42.09,244.43Z" transform="translate(-5.9 -54.88)"/><path class="cls-38" d="M33.57,252.45c.49-.24-1.52-2.11.78-1.2.08,0,.36-.18.35-.19-.2-.43-.43-.83-.63-1.26-.52-1.12-1-2.25-1.55-3.38.35-.89,1.11-1.36,1.81-.76.47.41.46,1.4.67,2.12s.41,1.45.62,2.17a1.93,1.93,0,0,1-.13,2.39,1.42,1.42,0,0,1-1.92.12Z" transform="translate(-5.9 -54.88)"/><path class="cls-39" d="M49.14,247.93c.43-1.71-2.42-3.93.78-5.18,1-.37,1.41.1,1.18,1.14a.57.57,0,0,1-.31.18c-.34.1-.78.12-.77.63s.31.55.63.67c.66.26,1,.63.42,1.28l-.66,1.12,1.69.72c.71.95-.14,1.14-.72,1.46l-.49,0c-1.12.32-1.51.1-1.6-.94A2.9,2.9,0,0,0,49.14,247.93Z" transform="translate(-5.9 -54.88)"/><path class="cls-40" d="M59.67,241.4c-1.94,1.31.55,3-.44,4.61-.62,1,.82.79,1.44,1,.48.77.11,1.13-.63,1.35-1.81.54-2.29.22-2.53-1.67A11.93,11.93,0,0,0,57,244c-.26-.74-.59-1.64.09-2.24A2.29,2.29,0,0,1,59.67,241.4Z" transform="translate(-5.9 -54.88)"/><path class="cls-41" d="M62.15,242c.32-.35.71-1,1-1,.71.14,1.77.43,2,.93s1,1.73-.3,2.37c-1,.48-1.69,1.1-.53,2.15l-.33,1.19c-.3-.27-.81-.49-.88-.81C62.67,245.21,62.43,243.58,62.15,242Z" transform="translate(-5.9 -54.88)"/><path class="cls-39" d="M47.63,250.49c-2.22-1.8-1.31-4.53-2-6.78v0c.68-.43,1,0,1.19.55s.1,1.15.28,1.71l.53,2.51a.74.74,0,0,0,.93.4c.43-.08.75.06.79.55a.78.78,0,0,1-.77.93c-.31,0-.66-.12-.94.16Z" transform="translate(-5.9 -54.88)"/><path class="cls-42" d="M76.74,231.87c-.34-1.67-.67-3.34-1-5Z" transform="translate(-5.9 -54.88)"/><path class="cls-43" d="M55.13,237.41c-.35-.82-.7-1.65-1-2.47C54.43,235.76,54.78,236.59,55.13,237.41Z" transform="translate(-5.9 -54.88)"/><path class="cls-44" d="M53.63,244.94l.51,2.52Z" transform="translate(-5.9 -54.88)"/><path class="cls-45" d="M40.07,240.43l-.48-1.52Z" transform="translate(-5.9 -54.88)"/><path class="cls-46" d="M69.14,241c0-.54,0-1.08,0-1.61l.09.1a1,1,0,0,1,0,1.43Z" transform="translate(-5.9 -54.88)"/><path class="cls-47" d="M35.62,242.39c-.48-1-1-2-1.46-3.06,0,1,.13,2,.09,3a5.22,5.22,0,0,1-.5,1.34c-.29-.31-.77-.57-.83-.92-.51-2.91-1-5.82-1.38-8.75a3.53,3.53,0,0,1,.33-1.23l1.21.63c.4.94.81,1.88,1.2,2.8a.73.73,0,0,0,.25-.07c1-.47.36-3.37.65-3.44s2.28,4,1.93,9c0,.54-.09,1-.14,1.34Z" transform="translate(-5.9 -54.88)"/><path class="cls-48" d="M32,243.88c-2.11.92-1.29-1.07-1.77-1.77s.46-2.05-1-2.33c-.05.89-.12,1.77-.15,2.66,0,.68,0,1.36,0,2-2.89-1.77-1.27-4.93-2.15-7.34-.34-.91-1.51-3,.05-3.28,1.38-.23.83,2,1.17,3.15.11.33.55.56.84.84a18.29,18.29,0,0,0,.36-2.07c.07-.86,0-1.72,0-2.58l1.17.7Z" transform="translate(-5.9 -54.88)"/><path class="cls-49" d="M44.06,275.54a1.23,1.23,0,0,0-.45,1c0,.17.07.32,1,1.26.53.52.64.61.83.65a1.47,1.47,0,0,0,1.1-.3.88.88,0,0,1,.64-.65.79.79,0,0,1,.88.49c.09.61-1.61,1-1.6,1.79,0,.32.27.28.88,1.29.23.38.31.6.53.64s.52-.23.79-.49a6.06,6.06,0,0,1,1.63-1.1l.65,1.1h0a7.84,7.84,0,0,1-2.51,2s-.69.59-1,.15c-1.82-2.45-3.58-4.94-5.35-7.42l.11-.17a4.12,4.12,0,0,1,1.33-1.22c1.26-.86,1.4-1.15,1.74-1.06a1.07,1.07,0,0,1,.61.65Z" transform="translate(-5.9 -54.88)"/><path class="cls-50" d="M69.38,229l.87-1.35c.64,2.18,1.31,4.37,1.89,6.57,0,.2-.43.54-.67.81Z" transform="translate(-5.9 -54.88)"/><path class="cls-51" d="M48,234l-1.18,1.05a24.35,24.35,0,0,1-.85-2.39c-.05-.2.32-.51.49-.77Z" transform="translate(-5.9 -54.88)"/><path class="cls-52" d="M75,244.19l-.79,1.23c-.29-.55-.82-1.09-.84-1.65-.07-1.64-1.68-3.64-.18-4.78,1.3-1,.78,1.64,1.91,1.91.69-.72.21-3.2.86-2.51,1.27,1.34,1.65,3.7,2,5.7.18,1.15-.64,1.14-1.1.08a5.41,5.41,0,0,1-.2-1.23l-.84,2.15Z" transform="translate(-5.9 -54.88)"/><path class="cls-53" d="M78.74,237.39l1.47.36c-.3.33-.91.71-.86,1a38.54,38.54,0,0,0,1.16,4.62c.1.31.73.45,1.12.66l-2.35.52c-.35-2.36-2.79-4.56-.55-7.12Z" transform="translate(-5.9 -54.88)"/><path class="cls-54" d="M69.24,240.89v-1.43c1.84.17,1,1.81,1.44,2.73.53,1.15-.07,3.14,2.29,2.74.16,1.57-1.22,1.13-1.83,1.16-1.56.07-.82-1.42-1.14-2.19A18.68,18.68,0,0,1,69.24,240.89Z" transform="translate(-5.9 -54.88)"/><path class="cls-55" d="M64.58,242.87l-.61.51a4.12,4.12,0,0,1-.51-1c0-.21.26-.48.4-.72Z" transform="translate(-5.9 -54.88)"/><path class="cls-56" d="M44.87,243.94c.08.45.18.9.23,1.35.18,1.74.34,3.49.5,5.23a2,2,0,0,1-.44,0c-.44-2-.88-4-1.23-6,0-.16.59-.43.9-.65Z" transform="translate(-5.9 -54.88)"/><path class="cls-57" d="M-209.17,124" transform="translate(-5.9 -54.88)"/><path class="cls-58" d="M117.44,408.5c-4.87,11.51,1,23.6,1.69,25.06,4.19,8.39,11,12.64,14.36,14.65,19,11.48,58.65,16.87,96.33-1.69,12.88-6.34,37.34-18.39,44.22-42.81,1-3.55,4.89-16.33.57-31.27-1.65-5.67-4.59-15.82-13.24-21.12-4.35-2.66-10.76-4.49-32.11.56-7.82,1.85-25.09,6.38-53.52,19.72-3.51,1.64-13.15,7.06-32.67,17.46C126.58,397.84,120.61,401,117.44,408.5Z" transform="translate(-5.9 -54.88)"/><path class="cls-59" d="M114.66,412.06c-.44,6,3.19,11.56,3.74,12.39,4.38,6.53,9.28,5.76,24.79,13,13.36,6.21,16.95,10.14,23.64,8.64,4-.88,4.24-2.61,9.52-4.61,8.7-3.3,16.46-1.84,19.89-1.44,21.28,2.49,45.65-16,48.43-18.16,6-4.56,20.61-16,26.23-35.46a47.47,47.47,0,0,0,.86-23.93c-.9-3.86-3.43-14.63-9.8-16.14-4-.94-6.25,2.51-11.53,1.15-3.8-1-4.25-3.18-7.78-4.32-5.06-1.63-10.09,1-12.69,2.31-22.58,11.53-45.79,21.83-68,34C131.88,395.94,115.53,400,114.66,412.06Z" transform="translate(-5.9 -54.88)"/><path class="cls-60" d="M120.53,412.16c-.64,2.46-.82,4-.28,5.63,1.13,3.42,4.68,5,6.48,5.92,8.69,4.25,10.4,8.11,16.06,11.26,15.44,8.61,43.29,2.56,53.79.28,18.56-4,29.79-6.46,42.25-15.77,17.11-12.77,23.11-28.44,25.92-35.77,2.32-6.06,5.86-15.62,1.69-20.28-3-3.35-9-3-13-9-1.32-2-1.07-2.61-2.25-3.67-2.95-2.62-8.16-2-16.62.85-9.56,3.21-17.11,5.75-25.91,12.39-7,5.28-9.32,9-16.62,11.27-3.65,1.12-4.94.76-9,2.25-5.4,2-7.87,4.34-13.8,8.73-10.23,7.58-15.47,11.37-21.69,11.83-1.21.09-8.63.65-11.26-3.38-1.8-2.75-.55-6.38-1.69-6.76-.93-.3-2.42,1.89-4.79,5.64C123.9,402.92,121.86,407.06,120.53,412.16Z" transform="translate(-5.9 -54.88)"/><path class="cls-61" d="M21.67,288.16l10.09,15.36,36.33-31.64L56.83,256.1Z" transform="translate(-5.9 -54.88)"/></g></svg>