<?xml version="1.0" encoding="utf-8"?>
<!-- Generator: Adobe Illustrator 25.1.0, SVG Export Plug-In . SVG Version: 6.00 Build 0)  -->
<svg version="1.1" id="Calque_1" xmlns="http://www.w3.org/2000/svg" xmlns:xlink="http://www.w3.org/1999/xlink" x="0px" y="0px"
	 viewBox="0 0 297.6 297.6" style="enable-background:new 0 0 297.6 297.6;" xml:space="preserve">
<style type="text/css">
	.st0{fill:url(#SVGID_1_);}
	.st1{fill:url(#SVGID_2_);}
	.st2{fill:url(#SVGID_3_);}
	.st3{opacity:0.2;}
	.st4{fill:url(#SVGID_4_);}
	.st5{fill:url(#SVGID_5_);}
	.st6{fill:url(#SVGID_6_);}
	.st7{fill:url(#SVGID_7_);}
	.st8{clip-path:url(#SVGID_9_);}
	.st9{clip-path:url(#SVGID_11_);}
	.st10{fill:url(#SVGID_12_);}
	.st11{fill:url(#SVGID_13_);}
	.st12{fill:url(#SVGID_14_);}
	.st13{fill:url(#SVGID_15_);}
	.st14{fill:url(#SVGID_16_);}
	.st15{fill:url(#SVGID_17_);}
	.st16{fill:url(#SVGID_18_);}
	.st17{fill:url(#SVGID_19_);}
	.st18{fill:url(#SVGID_20_);}
</style>
<radialGradient id="SVGID_1_" cx="160.5672" cy="114.0288" r="28.0363" gradientTransform="matrix(1 0 0 1.99 -20.64 -35.4034)" gradientUnits="userSpaceOnUse">
	<stop  offset="0" style="stop-color:#F9AB4E"/>
	<stop  offset="0.25" style="stop-color:#E59644"/>
	<stop  offset="0.77" style="stop-color:#B16129"/>
	<stop  offset="1" style="stop-color:#99481D"/>
</radialGradient>
<path class="st0" d="M174.8,155.3l0.5,16.7v10.1l0,0c-0.2-0.5-31.1,4.9-31.8,12.7c-0.5,6,17.4,8.4,17.2,14.9
	c-0.3,8.1-29,15.7-52.7,16.7l-3.6,0.2l0.5-49.1"/>
<radialGradient id="SVGID_2_" cx="158.9046" cy="171.8955" r="13.7658" gradientTransform="matrix(1 0 0 1 -20.64 -138.18)" gradientUnits="userSpaceOnUse">
	<stop  offset="5.000000e-02" style="stop-color:#796156"/>
	<stop  offset="0.66" style="stop-color:#3B1A12"/>
</radialGradient>
<path class="st1" d="M157.7,34.6c-0.2,1-5.7,0.8-18.2,0.8c-14.6,0-20.6,0.2-20.8-0.6c0-0.6,3.2-1.5,3.4-1.6c0.8-0.2,1.5-0.3,2.3-0.5
	c4.1-0.5,14.1-0.5,14.4-0.5c7.8,0,10.2-0.8,15.2,0.8C155.3,33.3,157.7,34,157.7,34.6z"/>
<radialGradient id="SVGID_3_" cx="158.9857" cy="165.5591" r="13.2772" gradientTransform="matrix(1 0 0 1 -20.64 -138.18)" gradientUnits="userSpaceOnUse">
	<stop  offset="0" style="stop-color:#FFFFFF"/>
	<stop  offset="1" style="stop-color:#8C8C8C"/>
</radialGradient>
<path class="st2" d="M156.1,31.4c-5.5-0.3-11.5-0.6-17.8-0.6c-6,0-16.9,0.6-16.9,0.6l-1.5-5.8c11.8-2.9,24.8-2.8,36.8,0L156.1,31.4z
	"/>
<g class="st3">
	<path d="M156.8,26.3c-11.4,0-22.7,0-34.2,0.2h-2.3c0-0.2-0.2-0.5-0.2-0.6c-0.3-4.7,0-9.4,1.3-13.8c0.8-0.8,1.8-1.5,2.9-1.9
		c2.4-1,5-1.3,7.6-0.8c4.4,0.3,8.9,0,13.3,0.2l7,0.3c1.1,0.2,2.1,0.6,2.9,1.5c1.3,1.3,1.5,3.2,1.5,6.8
		C156.8,22.6,156.8,25,156.8,26.3z"/>
</g>
<radialGradient id="SVGID_4_" cx="138.2166" cy="285.2939" r="15.8502" gradientTransform="matrix(1 0 0 -1 0 302.4231)" gradientUnits="userSpaceOnUse">
	<stop  offset="0" style="stop-color:#FFFFFF"/>
	<stop  offset="1" style="stop-color:#8C8C8C"/>
</radialGradient>
<path class="st4" d="M156.8,25.5c-11.4,0-22.7,0-34.2,0.2h-2.4V25c0-1.1-0.2-2.4-0.2-3.6c0-1.3,0-2.4,0.2-3.7
	c0.2-1.3,0.3-2.4,0.5-3.6c0.2-0.5,0.2-1,0.3-1.5c0.2-0.6,0.2-1.1,0.5-1.6c0.3-0.3,0.6-0.6,1-0.8c0.8-0.5,1.6-1,2.6-1.3h27.1
	c1.1,0.2,2.1,0.6,2.9,1.5c1.3,1.3,1.5,3.2,1.5,6.8C156.8,21.8,156.8,24.2,156.8,25.5z"/>
<radialGradient id="SVGID_5_" cx="160.478" cy="268.9683" r="36.7489" gradientTransform="matrix(1 0 0 1 -20.64 -138.18)" gradientUnits="userSpaceOnUse">
	<stop  offset="0" style="stop-color:#F9AB4E"/>
	<stop  offset="0.25" style="stop-color:#E59644"/>
	<stop  offset="0.77" style="stop-color:#B16129"/>
	<stop  offset="1" style="stop-color:#99481D"/>
</radialGradient>
<path class="st5" d="M101.4,96.1l1.1,4.2l-1,1.9l0.6,3.7l-1,2.4l0.8,4.1l-0.6,3.1l1.5,2.4l-1,2.9l1.3,4.5l-0.3,4.1l1.5,3.6L104,137
	l0.8,4.1l-0.3,5l1.6,5l-1.3,3.1l-0.2,2.6l16.1,8.6l53.9-10.2l-0.5-3.7l1.5-4.9l-1-4.4l1.5-4.9l-0.6-3.7l1.6-4.4l-1.1-2.9l1.9-4.5
	l-0.6-2.8l1.5-3.4l-1-3.6l0.6-3.2l-1.1-2.3l1.1-3.4l-1.8-1"/>
<radialGradient id="SVGID_6_" cx="159.5535" cy="169.8355" r="11.127" gradientTransform="matrix(1 0 0 1 -20.64 -138.18)" gradientUnits="userSpaceOnUse">
	<stop  offset="0" style="stop-color:#E39551"/>
	<stop  offset="1" style="stop-color:#7D2E09"/>
	<stop  offset="1" style="stop-color:#843916"/>
</radialGradient>
<path class="st6" d="M154.6,32.7c-4.9-0.3-10.2-0.5-15.7-0.5c-5.5,0-10.7,0.2-15.6,0.5l-0.2-1.5c5-0.3,10.4-0.6,16.1-0.6
	c5.4,0,10.5,0.2,15.2,0.6L154.6,32.7z"/>
<radialGradient id="SVGID_7_" cx="160.1749" cy="207.1756" r="36.0777" gradientTransform="matrix(1 0 0 1 -20.64 -138.18)" gradientUnits="userSpaceOnUse">
	<stop  offset="0" style="stop-color:#F9B05F"/>
	<stop  offset="1.000000e-02" style="stop-color:#F8AF5E"/>
	<stop  offset="0.21" style="stop-color:#D38745"/>
	<stop  offset="0.23" style="stop-color:#D08443"/>
	<stop  offset="0.44" style="stop-color:#B2642F"/>
	<stop  offset="0.64" style="stop-color:#9D4D21"/>
	<stop  offset="0.83" style="stop-color:#903F18"/>
	<stop  offset="1" style="stop-color:#8C3A15"/>
</radialGradient>
<path class="st7" d="M177.4,102.7l-75.9-6.7c-0.5-5.5,0-11,1.5-16.2c2.1-6.7,5.4-12.8,9.4-18.2c6-8.4,9.9-10.5,11.5-17.4
	c0.6-2.9,0.8-6,0.5-8.9h29.5c-0.3,3.6,0,7.1,1.1,10.5c2.4,7.5,6.7,8.9,12.2,16.4c5.2,7.1,8.6,15.4,9.9,24.2
	C178,91.9,178,97.4,177.4,102.7z"/>
<g>
	<g>
		<defs>
			<path id="SVGID_8_" d="M178,102.7c-6.2,1.6-12.3,3.6-18.3,6c-9.9,3.9-12.7,6.3-18.5,6.5c-5.4,0.2-9.7-1.9-18.2-6.2
				c-7.3-3.7-14.3-7.9-20.9-12.8c-0.5-3.6-0.5-7.1,0-10.5c1.1-8.9,5-17.4,11-24l53.7-0.2C175.2,73.4,179.3,88.1,178,102.7L178,102.7
				z"/>
		</defs>
		<clipPath id="SVGID_9_">
			<use xlink:href="#SVGID_8_"  style="overflow:visible;"/>
		</clipPath>
		<g class="st8">
			<g>
				<g>
					<defs>
						<rect id="SVGID_10_" x="93.7" y="53.3" width="92.8" height="69.9"/>
					</defs>
					<clipPath id="SVGID_11_">
						<use xlink:href="#SVGID_10_"  style="overflow:visible;"/>
					</clipPath>
					<g class="st9">
					</g>
				</g>
			</g>
		</g>
	</g>
</g>
<radialGradient id="SVGID_12_" cx="160.1262" cy="389.7183" r="37.4642" gradientTransform="matrix(1 0 0 1 -20.64 -138.18)" gradientUnits="userSpaceOnUse">
	<stop  offset="0" style="stop-color:#F9AB4E"/>
	<stop  offset="0.25" style="stop-color:#E59644"/>
	<stop  offset="0.77" style="stop-color:#B16129"/>
	<stop  offset="1" style="stop-color:#99481D"/>
</radialGradient>
<path class="st10" d="M176.2,277.1c-1.1,1.6-4.2,6.2-9.2,6.8c-1.1,0.2-2.1,0-3.2-0.2c-4.9-0.6-6.3-3.6-10.2-3.4
	c-1,0-1.9,0.2-2.9,0.6c-2.1,0.8-2.6,1.9-4.4,3.1c-1.6,1-3.6,1.5-5.5,1.3c-2.4,0.2-4.9-0.3-7.1-1.3c-2.9-1.3-2.6-2.4-4.5-3.2
	c-5-2.1-9.6,4.2-16.9,3.6c-2.3-0.3-4.5-1.1-6.3-2.6c-2.1-3.6-3.7-7.3-4.9-11.2c-5.4-18.2,0.6-34.4,3.6-41.2
	c3.9-2.6,26.3-17.2,51.7-9.6c6.8,2.1,13.3,5.5,18.8,10.2c4.5,11.4,6,23.7,4.1,35.7C178.7,269.6,177.7,273.4,176.2,277.1z"/>
<linearGradient id="SVGID_13_" gradientUnits="userSpaceOnUse" x1="-581.481" y1="-499.062" x2="-526.1213" y2="-499.062" gradientTransform="matrix(-0.9983 5.913214e-02 -5.913214e-02 -0.9983 -450.2871 -243.6686)">
	<stop  offset="0" style="stop-color:#DADADA"/>
	<stop  offset="0.61" style="stop-color:#EAEEEF"/>
	<stop  offset="1" style="stop-color:#F6FDFE"/>
</linearGradient>
<path class="st11" d="M145.9,215.1l-19.8,3.6l-21.6,3.9c0,1,0,1.8,0,2.8c0,1.3,0.2,2.6,0.2,3.9l54.8-9.2L145.9,215.1z"/>
<linearGradient id="SVGID_14_" gradientUnits="userSpaceOnUse" x1="142.7488" y1="301.4178" x2="196.0031" y2="301.4178" gradientTransform="matrix(1 0 0 1 -20.64 -138.18)">
	<stop  offset="0" style="stop-color:#DADADA"/>
	<stop  offset="0.61" style="stop-color:#EAEEEF"/>
	<stop  offset="1" style="stop-color:#F6FDFE"/>
</linearGradient>
<path class="st12" d="M134.7,171.2c4.5-1.1,9.4-2.3,14.6-3.4c9.2-1.9,17.8-3.2,26.1-4.1c0-0.8,0.2-1.8,0.2-2.8
	c0-1.9-0.2-3.9-0.6-5.7L122,165.3L134.7,171.2z"/>
<linearGradient id="SVGID_15_" gradientUnits="userSpaceOnUse" x1="195.7256" y1="300.769" x2="195.7256" y2="300.769" gradientTransform="matrix(1 0 0 1 -20.64 -138.18)">
	<stop  offset="0" style="stop-color:#DADADA"/>
	<stop  offset="0.61" style="stop-color:#EAEEEF"/>
	<stop  offset="1" style="stop-color:#F6FDFE"/>
</linearGradient>
<path class="st13" d="M175.1,162.6"/>
<linearGradient id="SVGID_16_" gradientUnits="userSpaceOnUse" x1="125.3278" y1="308.1494" x2="164.0952" y2="308.1494" gradientTransform="matrix(1 0 0 1 -20.64 -138.18)">
	<stop  offset="0" style="stop-color:#DADADA"/>
	<stop  offset="0.61" style="stop-color:#EAEEEF"/>
	<stop  offset="1" style="stop-color:#F6FDFE"/>
</linearGradient>
<path class="st14" d="M104.7,156.9l30,14.1l8.8,4.1c-8.4,0.8-16.7,2.3-24.8,4.2c-4.9,1.1-9.4,2.4-13.6,3.7c0-4.9,0-9.6-0.2-14.4
	C104.8,164.7,104.8,160.8,104.7,156.9z"/>
<linearGradient id="SVGID_17_" gradientUnits="userSpaceOnUse" x1="202.2139" y1="311.9613" x2="202.2139" y2="311.9613" gradientTransform="matrix(1 0 0 1 -20.64 -138.18)">
	<stop  offset="0" style="stop-color:#DADADA"/>
	<stop  offset="0.61" style="stop-color:#EAEEEF"/>
	<stop  offset="1" style="stop-color:#F6FDFE"/>
</linearGradient>
<path class="st15" d="M181.6,173.8"/>
<linearGradient id="SVGID_18_" gradientUnits="userSpaceOnUse" x1="224.4362" y1="301.58" x2="224.4362" y2="301.58" gradientTransform="matrix(1 0 0 1 -20.64 -138.18)">
	<stop  offset="0" style="stop-color:#DADADA"/>
	<stop  offset="0.61" style="stop-color:#EAEEEF"/>
	<stop  offset="1" style="stop-color:#F6FDFE"/>
</linearGradient>
<path class="st16" d="M203.8,163.4"/>
<linearGradient id="SVGID_19_" gradientUnits="userSpaceOnUse" x1="-599.7045" y1="-475.4045" x2="-560.7223" y2="-475.4045" gradientTransform="matrix(-1 -3.000000e-02 3.000000e-02 -1 -410.8955 -276.2474)">
	<stop  offset="0" style="stop-color:#DADADA"/>
	<stop  offset="0.61" style="stop-color:#EAEEEF"/>
	<stop  offset="1" style="stop-color:#F6FDFE"/>
</linearGradient>
<path class="st17" d="M175.2,230.1l-29.8-14.8l-8.6-4.4c8.4-0.6,16.7-1.8,25-3.4c4.9-1,9.4-2.1,13.6-3.2c-0.2,4.7-0.3,9.6-0.3,14.4
	C175.1,222.8,175.2,226.2,175.2,230.1z"/>
<radialGradient id="SVGID_20_" cx="160.9241" cy="331.4424" r="30.4819" gradientTransform="matrix(1 0 0 1 -20.64 -138.18)" gradientUnits="userSpaceOnUse">
	<stop  offset="0" style="stop-color:#DD251D"/>
	<stop  offset="0.27" style="stop-color:#C81E17"/>
	<stop  offset="0.81" style="stop-color:#930D09"/>
	<stop  offset="1" style="stop-color:#7F0603"/>
</radialGradient>
<path class="st18" d="M105,218.1c1.3-0.2,3.2-0.3,5.7-0.6c12.7-1.6,16.5-3.2,30-5.8c12-2.3,18-3.4,21.7-3.9
	c4.5-0.8,8.9-1.9,13.3-3.4l0,0c0-8.8,0-17.5,0-26.3c0-3.1,0-6.2,0-9.2c-19.6,1.9-39.1,5.5-58.1,10.5c-4.2,1.1-8.4,2.3-12.5,3.6"/>
</svg>
