<?xml version="1.0" encoding="utf-8"?>
<!-- Generator: Adobe Illustrator 25.2.3, SVG Export Plug-In . SVG Version: 6.00 Build 0)  -->
<svg version="1.1" id="Calque_1" xmlns="http://www.w3.org/2000/svg" xmlns:xlink="http://www.w3.org/1999/xlink" x="0px" y="0px"
	 viewBox="0 0 1029.5 901" style="enable-background:new 0 0 1029.5 901;" xml:space="preserve">
<style type="text/css">
	.st0{fill:#80331D;}
	.st1{fill:#E4AD2E;}
	.st2{fill:#F4D06F;}
	.st3{fill:#F1DFDA;}
	.st4{fill:#BE6F1B;}
	.st5{fill:#AFABA7;}
	.st6{fill:#C1C5CE;}
	.st7{fill:#A49175;}
	.st8{fill:#8E7559;}
</style>
<path class="st0" d="M318,422.4c-1.3-8-3-20.1-3.9-35c-2.5-40.7,3.8-51-3.9-57.8c-15.4-13.6-64.8,7-85.1,25.7
	c-1.3,1.3-2.9,2.4-4.6,3.2c-17.1,6.9-45.4-24.2-67.4-52.7L304.8,70.5c85.2,39.2,111,62.9,116.7,77.8c0.8,2.1,6.7,18.2,11.5,17.5
	c2.6-0.4,2.3-5.1,5.6-8.6c5.3-5.7,16-3.4,49.6,6c24.5,6.9,29.3,8.6,34.5,14c5.4,5.7,9.6,12.6,12.1,20.1c1.2,3.7,2,7.4,2.5,11.2
	c0.3,2.3,0.3,4,0.3,4.9c2.8,77.4,149.5,429.9,104.1,461C593.1,708,300.3,385.4,300.6,385.1c3.3,8,8.3,15.2,14.6,21.1
	C318.4,409.2,317.2,416.9,318,422.4z"/>
<path class="st1" d="M372,395.2c7.9,4.8,14.8-8.4,30.3-8.5c60.5-0.6,70.2,165.4,170.4,226.3c28.2,17.1,73.9,32.1,148.6,18
	c9.2-11.6,29.9-37.7,33.7-40.6c0.5-0.4,1.7-1.3,2.4-0.9s0.5,2.3,0,3.8c-0.8,2.2-1.7,4.4-2.5,6.5c-1,6.2,4.4,14-4.6,18.2
	c0.2,0.9,0.4,1.8,0.6,2.7l4-1.7c6.3-16.9,17.3-26.1,36.3-21.9c5.2,5.4,8.8,11.2,4.2,18.8c-0.2,0.3-1.6-0.2-2.4-0.4l0.1,6.7
	c4.5-0.2,13.1-10.7,11.3,4.7c-0.5,3.7-0.5,7.3,0,11c3.8,25.6,0.1,38-10.6,35.2c-2.3,4.6,7.6,11.1-2.3,14.4l3.1,13.4l0.1,0.6
	c12.3,5.7,9.5-9.7,16.3-11.7l1.9-2c-1.8-23.6-3.6-47.1-5-70.7c-0.1-1.9,3.2-3.9,4.9-5.9c1,1.8,2.6,3.6,2.8,5.4
	c1.6,21,2.9,42,4.7,62.9c0.1,1.7,3,3.1,4.6,4.7l4.1,1.1l0.4-1.6c-5-2.3-5.4-6.4-6.2-11.5c-4-26.2,8.5-57.3-24.6-75.2
	c-8.1-4.4-22.5-4.2-24-18.5c-2.1,1.8-3.9,4.2-6.3,5c-1.1,0.4-5-2.8-4.8-3.6c1-3.1,2.3-6.7,4.7-8.7c12.5-10.7,14.7-23.6,10.6-38.8
	c-2.5-9.1,10.7-1,11.9-11.1c2.1-18.3,8.6-36,13.4-53.9c0.4-1.5,1.8-2.8,2.8-4.2c0.3,1.5,1,3.1,0.7,4.5c-3,16.4-6.1,32.8-9.1,49.2
	c3.3-7.5,6.6-15,9.9-22.6l2.9-7.8c-2.7-13.7,5-28.3-3.1-41.6l-8-21.6c-0.5-1-1-1.9-1.7-2.7c-22.3-23.6-44.7-47.2-67-70.8
	c-0.9-0.4-1.7-0.8-2.4-1.4c-2-1.5-3.5-3.5-4.4-5.8l-12.6-13.3l-90.3-81.1c-18.7-7.4-37.9-12.2-57.4-15.6c-21.8-3.9-41.6-6.6-59-7.6
	c-16-1-45-0.4-73,16.2C366,280.8,352,382.9,372,395.2z"/>
<path class="st2" d="M543.1,436c-4.3-12.8-13.1-33-32.4-46.8c-39.1-28.1-94.3-10.7-97.1-21.6c-1-3.7,3.8-10.9,36.9-27
	c9.7-9.5,50.7-47.7,108.1-45.1c56.7,2.6,92.3,43.2,116.8,71.2c51.3,58.6,68,131.2,59.4,135.9c-8.4,4.5-42-54.8-58.5-47.7
	c-7.2,3.1-6.1,16.7-10.2,69c-3.9,50.5-6.2,54-8.7,55.2C648,583.4,621.7,562.2,543.1,436z"/>
<path class="st2" d="M763.8,755.6C763.9,755.6,763.9,755.7,763.8,755.6c0.1,0.2,0.2,0.4,0.2,0.5c0.1,0,0.2-0.1,0.3-0.2l0,0
	C764.2,755.8,764,755.7,763.8,755.6z M829.1,731l0.1,3.4C829.2,733.3,829.2,732.2,829.1,731z M823.2,715.8c4,4.8,5.6,9.9,6,15.2
	l-0.6-19.2L823.2,715.8z M773.2,776.3c-0.6-1.5-1.4-3-2.2-4.4C771.8,773.3,772.6,774.8,773.2,776.3z M755.4,771.8
	c-0.4-0.6-0.7-1.3-0.8-1.8C754.7,770.5,755,771.1,755.4,771.8z M746.2,720c0.2,1.9,0.2,3.8,0.4,5.6
	C746.5,723.8,746.4,721.8,746.2,720z M746.7,751.4c-1.8-3.4-3.3-6.1-4.5-8.5C743.4,745.2,744.9,748,746.7,751.4z M739.3,737.1
	C739.3,737.1,739.3,737.1,739.3,737.1c0.9,1.9,1.8,3.7,2.9,5.8C741.1,740.8,740.2,738.9,739.3,737.1z"/>
<path class="st2" d="M993.7,670.8c5.9,9.1,0,11.8-7.4,13.6c-0.4,5.4,12.8,4.6,6.1,13l-0.1,2c0.1,0.4,0,0.7-0.4,0.9
	c-0.2,0.5-0.4,0.9-0.6,1.4l-1.4,2.3l-5.2,10.8c-2.9,10.5-5.4,21.5-20.6,15.7c-0.8-0.2-1.6-0.4-2.5-0.5c0.6,1.6,1.6,3.1,1.6,4.7
	c0.1,19.2,2.9,39.6-20,49.5c-0.1,0.3-0.3,0.5-0.5,0.8c-17.6,27.6-41.7,49.2-69.5,65c-8.1,4.6-9.1-12.6-11.1-20.1
	c-1.2-4.6,0.5-7.8-6.2-7.2c-24.5,2.1-40.5-15.8-59.7-26c-1.3-0.7-3.7,1.1-5.6,1.2c-25,1-5.8-23.6-18.6-31.9c-3.6-2.4-6-5.8-7.8-9.7
	c-0.1-0.2-0.1-0.3-0.2-0.5c0,0,0,0,0-0.1c0,0,0,0,0,0c-4.5-9.7-6.2-22.1-17.2-28l0.2-0.2c0,0,0,0,0,0c4.9-3.8,2.4-18-4.1-23.6
	l-0.9,0.4c0-0.2-0.1-0.3-0.1-0.5h1c0.6-2.9,1.2-5.8,1.7-8.7c2.8,3.4,5.8,6.7,8.3,10.2c14,19.3,14.8,47.6,36.8,60.6
	c16.6,9.8,28.6,23.4,41.8,36.3c1.2,1.2,4.2,0.6,6.3,0.9c-1.1-1.3-2.2-2.6-3.3-3.9c-7-8-14.5-15.5-20.7-24.1
	c-3.3-4.5,0.3-8.3,5.3-8.6c6-0.4,10-2.5,10.9-8.8l-0.7-23.2c0,6.5-1.3,13.2-1.5,19.6c-0.1,3.4-2.2,10.3-9.4,9.1l-7.9,3
	c-21.9,5.1-28.9-12.5-37.6-26c-4.5-7-5.8-16-8.4-24.1c-0.5-2-0.9-4-1.2-6l5.8,0.4l-6.7-16.5l-8.8,0.8c-0.1-1.8-0.9-4.2-0.1-5.2
	c3.2-4.2,7.1-7.7,13.1-6.6c0.4-0.7,0.9-1.3,1.3-2c-0.4-1.4-1.2-2.8-1-4.1c1-6.1,2.2-12.1,3.4-18.1l0.3,15.8c0.3,0.2,0.5,0.4,0.8,0.6
	c3.1-16.1,12.2-1,18-3.4l3.6-0.4c-0.3-0.6-0.5-1.1-0.8-1.7c-4.2-7.8-17.1-11.7-11.1-24.2c0.3-1.6,0.7-3.2,1-4.8l-21.7,19.3
	c-2.5,8.6-8.5,14.3-16.1,18.6l-0.6,1.1l-13.8,30.9c-4.9,22.6-15.1,44.2-13.1,68.1l2,5.5c0.1,0.8,0.3,1.5,0.4,2.2
	c3.4,15.5,19.7,11.7,29.1,18.9c9.8,7.5,25.7,7.3,34.8,15.2c8.8,7.6,21.8,11.1,26.5,24c1.9,5.2,8.7,5.9,11.5,14.2
	c8.8,26.6-12.2,31.3-25.5,42.3c10.3-1.8,19.9-4.7,26.2-14.1l-4.2-0.8c1.7-2.7,3-6,5.3-7.8c3-2.2,6.6-1.9,8.2,2.6
	c4.2-1.4,8.7-2.1,12.4-4.2c35.8-21.1,66.2-48.9,95.3-78.3c3.9-5.4,6.7-12.8,11.9-15.7c14.2-7.9,14.6-21.2,16.6-34.3
	c-0.2-0.6-0.4-1.1-0.6-1.7c0-2.8-0.7-6,0.3-8.4c0.7-1.6,4-2.1,6.1-3.1h1.3c16.4-6.2,13-25.3,23.1-35.6l7.9-27.6L993.7,670.8z
	 M759.9,783.8L759.9,783.8C759.9,783.9,759.9,783.9,759.9,783.8L759.9,783.8z"/>
<path class="st1" d="M719.2,786.3c3.3,15.5,19.7,11.7,29.1,18.9c9.8,7.5,25.7,7.3,34.8,15.2c8.8,7.6,21.8,11.1,26.5,24
	c1.9,5.2,8.7,5.9,11.5,14.2c8.8,26.6-12.2,31.3-25.5,42.3c-22.5,2.1-18.1-22.1-29.8-30.8c-4.6-3.4-6.7-10.1-10-15.3l-29-45.5
	c-3.4-7.5-6.8-15.1-10.1-22.6l0.2-8.1c0.7,1.8,1.3,3.6,2,5.5C718.9,784.8,719.1,785.5,719.2,786.3z"/>
<path class="st3" d="M821.8,886.8l-4.2-0.8c1.7-2.7,3-6,5.3-7.8c3-2.2,6.6-1.9,8.2,2.6L821.8,886.8z"/>
<path class="st4" d="M400.6,222.7c21.6,2.5,35.4-10.8,45.8-26.1c7.9-11.5,15.4-24.5,16-39.7c0-0.6,2-1.9,2.7-1.7
	c5,1.3,9.8,2.9,14.7,4.5c-0.7,1.4-1.2,2.8-1.7,4.2c-4.3,18-17.8,29.9-28.7,43.4c-1,1.2-0.9,3.2-1.4,4.9c1.5-0.4,2.9-0.9,4.3-1.5
	c23.2-11.5,46.3-23.1,69.4-34.6c0.1,0.4,0.1,0.4,0.1,0.4l0.9,0.7c22,6.6,39,21.6,57.9,33.6c16.1,10.2,29.4,22.8,41.1,37.5
	c-37.4-14.8-76.9-19.2-116.5-23.3c-1.8-7.3-6.9-11.1-13.8-13c2.1,2.5,5.2,4.8,6,7.7c1.7,5.7-3.1,4.1-6.1,4.2
	c0.6-8.6-6.4-6.1-10.8-7.5l-8.8,0.9c-6.7-1.3-11.7,1.4-15.1,6.8c-0.3,0.4,2.6,2.9,4.1,4.4c5.6,1.5-0.8,3.4,0.2,5.1
	c-2.8,0.7-7.2-5-8.5,2l-0.7,1.4c-10.8-18.5-13.9-1.6-19.4,4.2l-8.2,0.1l-1.1-3.2c0-0.8,0-1.6,0-2.4l-5,2.1
	c-4.3,2.5-11.2,3.8-5.7,11.3l8.6,0.5l0,0l2.3-0.8l12.4-4.1l3-0.6c3.5,2.8,15.1-2.5,10.4,7.4c-2.9,6.1-3.2,8.5,1.4,12.2l0,0l-1.6,2.4
	c-0.2,0.3-0.4,0.5-0.6,0.8l-2.8,3.6l-0.9,1.7l-9.6,8.9l-1.1,1.1l-2.4,0.8l1.3,1.2c-7,5.5-13.9,11.1-21,16.6
	c-5.7,4.4-15.6,13.2-16.5,12.4c-15.7-14.6-23.7-11.5-28.2,9.1c-2.7,12.6-10.6,24-7.3,37.8c0.1,0.7,0.5,1.3,1.1,1.7
	c0.7,0.1,1.4,0,1.9-0.4c26.2-15.7,42.6-41.2,62.3-63.4c3.7-4.1,5.9-9.6,8.8-14.5c0-0.4,0-0.8,0.1-1.2l1.1-1.1l12.8-9l13.1-11.6
	l1.4-0.7c-4.9,15.8-6.6,33.7-15.4,46.9c-14.3,21.6-32,41.6-50.9,59.4c-7.8,7.4-11.9,22.5-27.2,20.5c-2.9-0.4-5.7-2.3-8.5-3.5
	c0,2.3,1,5.2,0,6.9c-1.9,3.4-2.3,9.3-8.8,7.5c-1.8-4.2-5-5.4-9.2-4.4l-0.9-1.1c6.6-5.8,4.6-13.4,4.4-20.7l0.3-0.4l0.1-0.2l2.4-14
	c1.6-3.4,4.6-7,4.4-10.2c-0.5-6.5-3.9-6.2-6.8-1c-1.6,2.8-2.5,6.1-3.7,9.1l-0.8-1.9l-0.9,3.3l0.1,0.5c-1.6,0.6-3.1,1.4-4.5,2.3
	c-16.7,13.8-12.5,33.7-15,51.7c-0.1,0.6,0.9,1.4,1.4,2l3.1-3.2c11.6,8.4,11.8,32.2,34.5,25.4c0.5,8.3-14.4,12-8.5,20
	c9.7,12.9,20.1,28.5,40.7,16.7c0.3-0.2,1.8,0.7,1.8,0.9c-2.9,14,8.2,17.4,16.9,22.6l0,0c2.2,4.8,4,9.9,10.7,9.8l5.2,0.4
	c1,14.1,12.2,19.4,22.5,25.2c4,2.3,8.6,1.8,11.4-3c0.3-0.5,0.5-1,0.8-1.5l2.1-1.4l9.4-1.6c-2.4,5-4.8,10-7.2,15
	c3.9-3.5,7.7-7,11.7-10.3c1.2-0.8,2.5-1.4,3.8-1.9c-8.3,13,7.5,20.4,11,22.2c15.6,8.4,28.6,19.1,41.2,31.2
	c13.6,13,31.7,21.1,41.9,37.9c-0.2,0-0.4,0-0.6,0l-0.9,0.8l-5.7,2.3l-3.7,2.1c-0.3,0.1-0.5,0.3-0.7,0.6l-15.6,3.6l-13.1-4.5
	c-0.3-0.2-0.6-0.2-1-0.3c-22.9-19.3-45.7-38.8-68.8-57.9c-39.4-32.8-78.8-65.6-118.6-98c-14.4-11.7-23.4-26.2-28.7-43.6
	c-0.9-5.5,0.3-13.2-2.9-16.2c-24.2-22.4-19-48-10-74.4l14.4-7.7c9.6-2.6,11.3-12.2,16.2-18.8c10.6-14.6,16.8-37.4,42.7-18.5
	c4.7,3.4,14.1,5,20.7-0.8c0.9-0.8,1.5-3,1-3.8c-4.3-7.1-11.3-4.5-17.7-5.4c-6.8-1-17.1,3.8-20.2-7.7l2.2-3.8l-4.5-0.1l14.9-17
	l3.1-3.3l1.7-0.1c5.5-6.7,19.3-5.9,17.5-19.2L400.6,222.7z M398.3,257.8l9.6-6.6l-5.2-6.9c-2.9,2.6-6,5.1-8.6,8
	C393.8,252.6,396.3,255.2,398.3,257.8z M380.3,262.2l-4.1-5l-8.7,7.4c0.6,0.5,1.4,1.6,1.9,1.5C372.8,265,376.1,263.7,380.3,262.2
	L380.3,262.2z"/>
<path class="st4" d="M257.1,25L312,49.4l13.7,9.3c19.7,7.8,33.5,26.8,55.6,30.2c5.4,4.6,4.1,8-0.1,13.6c-6.8,9-11.5,19.7-17.1,29.7
	l-5.8-0.2c1.3-9.9,2.8-19.8,3.7-29.8c0.2-2.5-0.4-6.5-2.1-7.7c-15.5-11.4-23,2.7-31.9,11c-0.9,0.9,1.5,5.5,2.5,8.2
	c2.7,7.4,10,13.6,6.3,22.7c-4.6-2.8-11.4-2.4-13.2-9.2c-0.2-0.6-1.6-0.9-2.5-1.4c0.1,1.5-0.3,3.9,0.5,4.5
	c12.7,9.3,16.9,23,19.1,37.5c1.1,7-12.1,9.6-6.1,18.5c-1.8,0.6-4.1,2.2-5.5,1.6c-20.8-8.5-20,4.1-21.3,18.9
	c-0.4,3.8,10.2,20.1-8.4,17.8c-0.8-0.1-2.4,1.8-2.5,2.8c-1.7,14.1-3.4,28.1-22.3,28.8c-1.4,0.1-2.7,0.1-4.1,0.1
	c0.7,1.5,1,3.5,2.1,4.3c1.5,0.7,3.1,0.9,4.7,0.4c17-5.1,29.4-17.8,43.6-27.4c-0.9,3.9-1.8,7.7-2.7,11.6l-4.4,1.9l-15.4,8.2l-10.3,9
	c-11.2,14.2-23.1,27.9-33.2,42.8c-7.1,10.4-21.5,14.3-24.1,28.2h-4.3c-0.2-0.4-0.3-0.8-0.5-1.1l9.2-16.3l-31.4-5.9l-0.7-1.3
	l-0.5,0.5l1.3,0.7c-1.4,5.5,8.3,8,3.8,14.3c-11.5-27.7-33.5-23-55.6-18c-11.4-7.1-21.3-14.5-22.7-30c-0.6-6.6-0.6-7.6,5.5-7.3
	c34.2,2.2,2.2-19.6,9.8-27.1c-0.1-1.9-0.2-3.9-0.3-5.8c0.1-3.3,0.2-6.7,0.3-10l6.1-2.2l-0.1,3v0.1l5.4,17.8l4.6,14.9
	c0.4,3.4,0.8,6.8,1.2,10.2l-3.9-0.3l4,2.5l6.7,3.8l0.1,0.1l11.9,7.9c0.5-1,1-2.1,1.6-3.1c13.4-20.8-3.4-37.5-7.6-55.8
	c-0.1-0.6-0.2-1.2-0.4-1.9c0.5-0.9,0.9-2.4,1.6-2.5c4.5-0.8,11.7-3.4,13-1.7c5.1,6.9,8,15.5,12.7,22.7c1.1,1.7-1.7,13.6,5,5
	c5.2-6.6,7.3-18.1,6.2-26.9c-2.9-22.9-8.4-45.5-12.3-68.2c-0.5-3,2.6-6.5,4.1-9.8c0.8,1.1,1.5,2.3,2.1,3.5c6.3,16,12.2,32.2,18.8,48
	c2,4.7,7.7,12.8,8.3,12.5c7.9-4,10-12.2,9.7-20c-1.6-38.2-16.4-73.6-23.8-110.6c-0.6-3,0.4-6.3,0.6-9.5c2,2.4,4.4,4.5,6.1,7.1
	c16,24.3,15.7,54.3,27.4,80c3.3,7.2,2.5,17.3,12.4,20.6c3-9.2,9.1-18.7,8.4-27.7c-1.2-17.1-6.4-33.8-9.6-50.8
	c-0.3-1.7,1.7-3.8,2.6-5.7c1.1,1,2.6,1.9,3.2,3.1c2.9,6,5.5,12.1,8.3,18.2c0.5,1.4,1,2.7,1.4,4.1l2.9,4.8l1,1
	c2.4,6.9,3,17.6,7.7,19.8c5.4,2.5,3.7-7.4,5.2-11.7c2.6-7.3,5.2-13.3,14.6-9.2l0.2,0.3l-0.2-0.3c-3.6-2.2-7.1-4.8-11-6.5
	c-7.9-3.5-7-11.4-9.6-17.6c3,0.1,6.1-0.3,9,0.3s5.7,2.2,8.6,3.4c-2.3-2.4-4.6-4.9-7-7.3c-1.4-1.2-2.7-2.4-3.9-3.8
	c-0.3-0.4,0.5-2.4,0.8-2.4c11.1,0.4,7.1-10.4,10.9-15.3c0.7-1-1.4-6.1-3.2-6.8c-15.1-6.2-31.4-8.9-47.7-8.2l-1.9-0.6l-2.3-0.8h-2.9
	l-1.6-0.1l-10.6,1c-7.3-8.1-16.4-10-26.7-8.1l-2.7-0.1c1.3-4.8,4.2-4.2,8.5-3.9c8.1,0.6,16.2,0.2,24.1-1.2c1.1-0.2,2.6-9.7,0.6-12.3
	c-5.1-6.4-12.1-11.4-18.4-16.9l9.6,1.3C240.6,21.5,247.6,26.4,257.1,25z M315.7,125.2c-11,4.8-12.2,14.2-12.5,24
	c0,0.5,0.5,1,0.7,1.5c3.8-8.2,3.5-18.9,13.9-23.1L315.7,125.2z M295,147.6l-1.3-0.8c-0.2,0.5-0.6,1-0.5,1.4s0.7,0.6,1,0.9
	C294.4,148.7,294.6,148.2,295,147.6L295,147.6z"/>
<path class="st3" d="M669.5,659.7l-15.7,8.5l-3.7,2l-0.3,0.1c-8.3,4.4-17,6.9-26.5,5.6c-7.5-18.6-25-32.6-25.4-54.5
	c13.2,5.8,39-7.3,35.8,23.6c-0.1,1.1,2.8,2.9,4.6,3.6c1,0.4,2.6-0.8,4-1.2c-8.2-11.3,4.5-12,8.7-17l1.6-0.3c8-1.2,16-2.7,24.1-3.6
	c2.7-0.3,5.5,0.6,8.2,1c-0.9,1.9-1.4,5.2-2.7,5.5c-13.9,3.6-10.5,12.8-7.5,21.9L669.5,659.7z M627.3,652.6c-0.3,1.3,1.1-1.3,0.8-3.7
	c-1.2-7.3-7-9.8-13.4-10.5c-1.8-0.2-5.8,3.2-5.6,4.2C610.6,649.8,615.8,652.5,627.3,652.6L627.3,652.6z"/>
<path class="st5" d="M597.9,621.4c0.5,21.9,17.9,35.9,25.4,54.5c-18.3-1-39.3-22.8-32.5-34.1c1.5-2.4,5.7-3.1,8.7-4.6l-21.9-0.7
	l-5.1,1l-8.8-14.4c0.2-0.3,0.4-0.5,0.7-0.6l3.2-0.7L597.9,621.4z"/>
<path class="st4" d="M729.7,680.7c0-0.3,0-0.7,0-1l3.9-5.6c4.7,1.5,0.9-7.4,8.4-5.7c11.2,2.6-6.7,9.1,2.3,10.1l-0.6,1.1
	c-11.4,7.2-14.7,18.1-13.8,30.9c-4.9,22.6-15.1,44.2-13.1,68.1l-0.2,8.1c-0.9-2.4-1.7-4.7-2.6-7.1c-3.2-31.8-0.7-62.9,13.4-92.2
	L729.7,680.7z"/>
<path class="st6" d="M128.1,267l3.9,1.1l-4-0.5C128,267.3,128,267.2,128.1,267z"/>
<path class="st5" d="M128.1,267c-0.1,0.2-0.1,0.4-0.1,0.5l-1.4-0.2L128.1,267z"/>
<polygon class="st5" points="126.1,267.6 126.1,267.6 126.1,268.1 "/>
<path class="st2" d="M374.1,138.2l-3.1,1.6l-7-7.6l-5.8-0.2c-0.9,4.4-1.8,8.8-2.7,13.3l1.5,4c4.1-4,8.9-2,7.6,2.3
	c-5.4,19.3-9.7,39.2-21.8,56l-4.3,1.6h-0.2l-1.1,0.9c3.4,12.2-10.4,12.6-13.7,20.2l1.3,1.6c5.2,0,9,1.6,5.1,7.2
	c-2.2,3.2-6.3,5.1-9.6,7.6c7.3-2.1,13.3-5.6,16.6-13c0.8-1.7,3.4-2.7,5.1-4l5.6,8.5c1.6,1,3.2,2.1,4.9,3.1c10.9-8.7,19-8.3,22.4,7
	l3.1-3.3c-5-13.7,1.6-28.1,9-34.8c15-13.7,9.9,6.2,13.6,11.7l2.7-5.1c1.5-10.1,2.6-19.9-12.8-18.6c-0.3,0-2.2-5.3-1.3-7.1
	c1.7-3.5,4.4-7.9,7.7-8.9c2.3-0.7,6.1,3.7,9.2,5.8c1.5-5,3-9.9,4.5-14.9c-3.4-15.2-1.3-29.4,8.1-42.2c0.3-0.4-0.5-2.3-0.5-2.3
	c-3.2,0.5-6.5,1-9.7,1.8C396.9,132.7,385.5,135.5,374.1,138.2 M391.7,200.7c1.3-0.2,2.7,0.4,4,0.6c-1.2,0.8-2.2,2-3.5,2.4
	c-16.1,5.3-32.2,10.6-50.7,16.6c-0.4-1.1-1.7-2.8-1.2-4c0.9-2.5,3.1-6.9,4.2-6.7C361.3,211.8,375.9,202.8,391.7,200.7z"/>
<path class="st1" d="M371,139.8l-7-7.6c5.6-10,10.3-20.7,17.2-29.7c4.3-5.6,5.6-9,0.1-13.6c21.8,5.9,37.8,19.9,52.7,36.2
	c11.9,13,5.8,24.4-1.6,36.2L422.3,184c-1.1-2.2-2.2-4.3-3.2-6.5l-1.5-1.9c-0.2-0.2-0.4-0.4-0.5-0.6c0-0.3-0.2-0.5-0.5-0.5l-6-1.6
	c-3.4-15.2-1.3-29.4,8.1-42.2c0.3-0.4-0.5-2.4-0.5-2.4c-3.2,0.5-6.5,1-9.7,1.8c-11.4,2.6-22.8,5.4-34.2,8.1L371,139.8z"/>
<path class="st4" d="M422.3,184l10.1-22.9c0.5,0.3,1,0.8,1.3,0.8c5.9-1.3,9.8-14.2,15.5-6.6c5,6.7-3,14.7-8.5,21
	c-9.4,10.7-18.2,22-27.3,33c-1-0.6-1.9-1.3-2.8-2l6.2-12.1L422.3,184z"/>
<path class="st1" d="M377.9,244.8c-5-13.7,1.7-28.1,9-34.8c15-13.7,9.9,6.2,13.6,11.7c0.1,0.3,0.2,0.7,0.1,1.1l-3.5,2.8l-17.5,19.2
	L377.9,244.8z"/>
<path class="st4" d="M196.2,13.6c3.5-6.7,3.3-18.9,16.6-11.1l-5.2,7.3c-2,13.3-4,26.7-6,40.1c-0.2,0.4-0.4,0.8-0.5,1.1l-0.6,1
	l-1.2,4.5C192.9,42.6,192.6,28.3,196.2,13.6z"/>
<path class="st1" d="M416.7,195.2l-6.2,12.1l-7.3,9.3c1.5-10.1,2.6-19.9-12.8-18.7c-0.3,0-2.2-5.3-1.3-7.1c1.7-3.5,4.4-7.9,7.7-8.9
	c2.3-0.7,6.1,3.7,9.2,5.8l0,0l2.2,3.1L416.7,195.2z"/>
<path class="st7" d="M207.5,9.8c1.8-2.4,3.5-4.9,5.2-7.3c7.8,2.9,16.3,4.7,21.5,12.2c0,0.3-0.1,0.5-0.2,0.8l-9.6-1.3
	C219.3,10.7,214.3,6.8,207.5,9.8z"/>
<path class="st1" d="M234,15.5c0.1-0.2,0.2-0.5,0.2-0.8l23,10.3C247.6,26.4,240.6,21.5,234,15.5z"/>
<path class="st8" d="M325.7,58.6L312,49.4l17,7.5L325.7,58.6z"/>
<path class="st4" d="M789.2,551.5c23.4,2,40.6-14.7,61.3-20.5c22.2-6.2,41.1-20,62.5-26.8c10.4-3.3,24.4,4.4,36.8,7.2l28.8,10.8
	l10.7,7.5l1.1,0.1c0.2,0.3,0.4,0.5,0.7,0.8c11.7,16.2,22.8,32.8,35.2,48.4c7.7,9.7-0.8,16.4-2.1,24.5l-22.7-2.7
	c-8.2-12.5-11.8-28.5-27.3-35.2c-4.3-18.7-11.2-35.3-31.2-42.7c-6.4-2.3-12.4-5.6-18.6-8.3c-3.9-1.7-5.4-11.9-10.2-6.5
	c-8.8,10-14.4,22.9-22.8,33.4c-5.4,6.7,2.1,24.9-16.6,19.9c-10.4-2.8-14.9,8.4-23.7,9l17,13.7c-1.2,6.2,18.4,19.1-5.8,18
	c-3.5-0.2-7,0-10.5,0c2.5,1.8,5.8,3.1,7.3,5.5c3.9,6.4,8,13,10.2,20.1c7.7,24.8-3,52.4,11.9,76.3c3.7,6,6.9,13.4,2.1,20.9
	c-4.2-5.8-8.9-11.4-12.4-17.6c-15.7-27.8-9.8-60.8-21.1-90c-4.5-11.6-11-19.9-21.3-16.9c-7.2,2.1,5.4,6.8,4.8,12.8
	c-2.1,21,5.5,40.3,10.7,60.1c0.3,1.1-0.2,2.5-0.4,3.7c0,0.1-1.1,0.2-1.3-0.1c-1.5-1.8-1.2-7.9-4.9-4.5c-3.3,3.1-0.4,8.1,1.2,12.8
	c3.2,9.7,20.6,9.3,16,23.8c-1.1,3.5-0.6,7.5-1.5,11.2c-3.9,15.2,0,32.6-12.7,45.2c-0.9,0.9-6.2-0.5-6.4-1.4c-0.6-2.8,0.2-6-4.2-6.2
	l-1.4-45.8c0.1-0.3,0.1-0.5,0.1-0.8l2.5-0.9c4.4-3,14.5,4.4,13.4-2.4c-1.4-8.6-9.8-16-15.1-24c-5-2.3-5.4-6.4-6.2-11.5
	c-4-26.2,8.5-57.3-24.6-75.2c-8.1-4.4-22.5-4.2-24-18.5C779.4,569.6,784.3,560.6,789.2,551.5z"/>
<path class="st2" d="M974.2,565.6c15.5,6.8,19.1,22.8,27.3,35.2c5.4,6.7,4.7,20.8,19.5,16l-11.8,47c-2.3-4.9-12.2,2.2-11.4-7.4
	c6.8-14,12.3-27.5-11-30.6l15.4-2.5c-2.2-4.8-3.2-11.5-7-14c-6.4-4.4-9.2-10.3-11.3-16.7c-7.9-24-16.9-12.5-28.4-2.5
	c-5,4.3-14.6,3.3-22.1,4.6c-0.8,0.1-1.7-0.9-2.6-1.4c2.1-3.3,3.6-8.7,6.5-9.7C950.4,579,958.4,564.2,974.2,565.6z"/>
<path class="st3" d="M997.8,656.4c-0.8,9.6,9.2,2.5,11.4,7.4c-0.4,1.7-0.8,3.3-1.1,5l-2.6,1.4c-3-0.5-6.5-0.2-9-1.6
	c-4.2-2.4-10.4-5.3-11.1-8.9c-1.9-10.1-1.1-20.7,6.6-28.8c1.3-1.4,6.7-1.6,7.8-0.3c5.8,6.8-0.1,13.4-1.4,20.1
	C998.1,652.5,998,654.5,997.8,656.4z"/>
<path class="st1" d="M1021,616.8c-14.8,4.8-14.1-9.3-19.5-16l22.7,2.7C1023.2,608,1022.1,612.4,1021,616.8z"/>
<polygon class="st8" points="994.2,531 994.3,531 994.3,531.3 "/>
<path class="st1" d="M830,757.8c4.4,0.2,3.5,3.3,4.2,6.2c0.2,1,5.5,2.3,6.4,1.4c12.6-12.6,8.8-30,12.7-45.2
	c0.9-3.6,0.3-7.7,1.5-11.2c4.6-14.5-12.8-14.2-16-23.8c-1.6-4.7-4.5-9.7-1.2-12.8c3.7-3.4,3.3,2.7,4.9,4.5c0.2,0.2,1.3,0.1,1.3,0.1
	c0.2-1.2,0.7-2.6,0.4-3.7c-5.2-19.8-12.8-39.2-10.7-60.1c0.6-6-12-10.7-4.8-12.8c10.4-3,16.8,5.4,21.3,16.9
	c11.3,29.2,5.4,62.1,21.1,90c3.5,6.2,8.2,11.8,12.4,17.6c4.8-7.5,1.6-14.9-2.1-20.9c-14.9-23.9-4.2-51.5-11.9-76.3
	c-2.2-7.1-6.3-13.7-10.2-20.1c-1.5-2.4-4.8-3.7-7.3-5.5c3.5,0,7-0.2,10.5,0c24.2,1.1,4.5-11.8,5.8-18l0.3-0.3
	c14.7,1.6,24.7,10.1,32.2,22.2l0.8,2.4c6.2,4.2,2.7,8-0.4,11.9c-1.8-2.3-3.2-5.3-5.5-6.9c-4.6-3.2-9.7-5.7-14.6-8.4
	c-0.3,1-1.2,2.4-0.8,2.9c14.1,21.7,11.4,47,14.9,70.9c-1.5-1.9-3.9-3.7-4.2-5.8c-2.6-15.9-5.2-31.8-7-47.8c-0.7-6.3-3-11-8.4-13.7
	c-1.7-0.9-4.4,0.3-6.6,0.6c0.8,3.8,1.3,7.8,2.5,11.5c5,15,5.1,31.1,9.4,45.7c3.2,11.2-11.3,35.6,18,33.3
	c3.4,22.2,2.6,46.2,19.8,63.5c7,7.1,9,21.9,24,19.1c-17.6,27.6-41.7,49.2-69.5,65c-8.1,4.6-9.1-12.6-11.1-20.1
	c-1.2-4.6,0.5-7.8-6.2-7.2c-24.5,2.2-40.5-15.8-59.7-26c-1.3-0.7-3.7,1.1-5.6,1.2c-25,1-5.7-23.6-18.6-31.9s-9.7-30-25.3-38.2
	l0.2-0.2c4.9-3.8,2.4-18-4.1-23.6l0,0c0.6-2.9,1.2-5.8,1.7-8.7c2.8,3.4,5.8,6.7,8.3,10.2c14,19.3,14.8,47.6,36.8,60.6
	c16.6,9.8,28.6,23.4,41.8,36.3c1.2,1.2,4.2,0.6,6.3,0.9c-1.1-1.3-2.2-2.6-3.3-3.9c-7-8-14.5-15.5-20.7-24c-3.3-4.5,0.3-8.3,5.3-8.6
	C825.1,766.1,829.1,764,830,757.8z M843.1,655.1L843.1,655.1l1.1,1.3l0,0l8,24.7c1.3-6.7,2.6-13.4,3.9-20.2l-0.6-6.5
	c-0.9-2.8-1.8-5.7-2.7-8.5l0.2-3.2c-1.9-8.5-3.2-17.2-6.1-25.4c-1.3-3.8-5.6-6.5-8.5-9.7c-0.4,0.8-1.2,1.6-1.1,2.3
	c1.5,13.5,3.1,27,4.7,40.5c0,1.3,0.1,2.6,0.1,3.9L843.1,655.1z M900.8,757.1c-7.1,2.5-3.9,9.1-4.6,13.6c-1.3,8,4.7,14.1,11,16.4
	c8.1,2.9,4-5.4,5.4-8.7l10.5,16.3c-0.1-4.6,1.3-10-0.6-13.6c-4.8-8.8-11-16.9-16.8-25.2c-0.9-1.1-1.9-2.1-3-2.9L900.8,757.1z
	 M889.3,768.6c2.5-21.7-15.7-36-19.9-55.4c-0.5-2.4-2.9-4.4-4.5-6.5c-0.5,3-1.7,6.1-1.3,9.1c1.9,16.1,3.6,32.2,6.5,48.2
	c1.8,9.8,0.3,24.9,12,26.1C890.1,790.8,889.1,776.9,889.3,768.6L889.3,768.6z M859.5,810.4c2.4-2.9,5.2-4.8,5-6.2
	c-0.4-2.4-2.6-4.4-4.1-6.6c-2.1,2-4.9,3.6-6,6C854,804.6,857.1,807.3,859.5,810.4z"/>
<path class="st1" d="M974.2,565.6c-15.8-1.5-23.8,13.4-36.8,18c-2.9,1-4.4,6.3-6.5,9.7c0.8,0.5,1.8,1.5,2.6,1.4
	c7.5-1.2,17.1-0.3,22.1-4.6c11.5-10,20.5-21.5,28.4,2.5c2.1,6.4,5,12.3,11.3,16.7c3.8,2.6,4.7,9.2,7,14l-15.4,2.5l-20.6-5.2l-5.9-3
	l-2.1-2.7c-0.3,0-0.7,0-1-0.1c-2.5-9.2-10.6-13.3-17.8-16.9c-8.5-4.3-15.4-0.3-18.4,9.1l0,0c0.5,0.9,1,1.8,1.5,2.7
	c0.9-0.7,1.6-1.6,2.3-2.6c3.2-6.8,7.5-7.5,13-2.5l-2.7,0.3c-11.4-3.5-5.2,10.2-11.4,11.8l3.4,3.4c0.1,0.8,0.2,1.7,0.3,2.5
	c-0.2-0.1-0.5-0.1-0.7-0.1c-1.1,0.8-3.3,1.8-3.2,2.5c3.5,21.2,6.9,42.4,11.3,63.4c0.5,2.4,7.2,3.5,10.9,5.2c0.1-2.8,0.9-5.7,0.3-8.3
	c-3.6-17.7-7.5-35.3-11.2-53c4.6,0.9,7.1,3.6,7.7,8.3c1.1,8.2-2.9,17.7,6.1,23.9l1.2,1.6c0.4,0.4,0.7,0.8,1.1,1.2l5.1,26.6l-1.5,0.6
	c-1.1,0.6-2.7,1-3.3,1.9c-0.3,0.5,0.7,2.8,1.5,3c7.9,1.7,14.7,0.3,18.6-7.7l0,0l2.5-3.7c-17.8-1-4.8-14.8-9-21.5l1.3-1.2l0.1,1.8
	c3.7,8.9,1.5,24.5,19.5,16.8c0.2,0.2,0.3,0.4,0.5,0.6c-0.4,5.5,12.8,4.6,6.1,13c-4.6-2.7-7.3-11.5-14.9-5c-6.9,5.9,3,11.3,0.7,17.4
	c-0.3,0.7,4.2,3.3,6.5,5c-2.9,10.5-5.4,21.5-20.7,15.7c-0.8-0.2-1.6-0.4-2.4-0.5c0.5,1.5,1.6,3.1,1.6,4.7c0.1,19.2,2.9,39.6-20,49.5
	c-7.5-20.5-15-41.1-22.5-61.7c3.3,1.7,7.6,2.6,9.8,5.2c6.1,7.2,13.6,8,22,6.5c1-0.2,2.5-2,2.3-2.6c-2.8-7.7-10.1,2.2-13.5-3.4
	l-0.3-0.5c3.7-8.1-4.9-12-6.2-17.7c-6.1-27.4-10.1-55.2-16.2-82.5c-2.4-11,6.9-27.2-12.2-31.9c-1.3-0.3-2.6-0.8-3.8-1.2
	c1.3-0.8,2.6-1.6,3.8-2.4c1.7-1.1,3.4-2.2,5.1-3.4c-2.2-0.8-4.3-2-6.6-2.4c-6.9-1.5-13.8-2.6-20.8-3.4c-5.1-0.4-10.8-6-15.5,0.9
	l-0.3,0.3l-17-13.7c8.8-0.6,13.3-11.8,23.7-9c18.6,5,11.2-13.2,16.6-19.9c8.4-10.5,14-23.3,22.8-33.4c4.7-5.3,6.2,4.8,10.2,6.5
	c6.2,2.7,12.3,6,18.6,8.3C963,530.3,969.9,547,974.2,565.6z M953.2,711.1c-1.1-9.8-8.4-10.1-13.6-12.7c-0.4-0.2-3,2.2-2.9,3.2
	c0.8,6.5,3,12.5,10.8,12.9C949.6,714.7,951.7,712,953.2,711.1L953.2,711.1z"/>
<path class="st4" d="M920.6,722.4l22.5,61.8c-0.1,0.3-0.3,0.5-0.5,0.8c-15.1,2.8-17-12-24-19.1c-17.3-17.3-16.4-41.2-19.8-63.5
	c7.3-9.2-2.8-15.7-3.6-23.7c-3.5-23.9-0.8-49.2-14.9-70.9c-0.4-0.6,0.5-1.9,0.8-2.9c4.9,2.8,10,5.2,14.6,8.4
	c2.3,1.6,3.7,4.6,5.5,6.9l5.4,13.2c2.5,18.8,4.4,37.7,7.8,56.2c1.8,10-10.2,22.2,4.6,30.1L920.6,722.4z M934.5,777.9
	c-0.3,0.6-0.7,1.1-0.6,1.4s0.7,0.7,1.1,1.1c0.3-0.5,0.8-0.9,0.9-1.5C935.8,778.7,935,778.3,934.5,777.9L934.5,777.9z"/>
<path class="st3" d="M771.4,675.1c3.2-16.1,12.3-1,18-3.4c-0.2,5-0.3,10.1-0.5,15.1l-1.5,0.7c-0.1,0.1-0.3,0.3-0.4,0.4
	c-0.2,6-0.2,11.7,7.6,13.1c0,0.2,0.1,0.4,0.1,0.6l3.4,8.8c1.8,9.1,0.8,20.7,9.9,24.8c3.3,1.5,3.2-10.1,3.9-15.8l-1-29.4l1.9-2
	l11.4-2.2c6.2,7.7,6.5,16.3,4.3,25.4c0,0.3,0,0.5-0.1,0.8l-5.3,4l-0.3,0.2l0.3-0.3c9.8,11.7,4.8,25.4,4.6,38.3
	c-0.1,3.4-2.2,10.3-9.3,9.1l-29.1-31.9C776.5,714.7,766.2,697.4,771.4,675.1z M819.6,715.1c-0.2,0-0.3,0-0.5,0c-0.1,0,0,0.3,0,0.4
	c0.2,0,0.3,0,0.5,0C819.7,715.6,819.6,715.4,819.6,715.1L819.6,715.1z"/>
<path class="st3" d="M782.1,640.6l-21.7,19.3c-0.2-12.9,1.8-26.5-12.7-34.1l3.2-5.1l4-1.7l13.9-0.4c-7-21,12.1-15.6,20.9-20.7
	c1,2.9,1.9,5.8,2.9,8.7c-14.7,4.3-2.9,15-5.3,22.3L782.1,640.6z"/>
<path class="st3" d="M810.6,766.2c-21.9,5.1-28.9-12.5-37.6-26c-4.5-7-5.8-16-8.4-24.1c-0.5-2-0.9-4-1.2-6l5.8,0.4v-0.1l1.4,3
	l16.3,18.9L810.6,766.2z"/>
<path class="st4" d="M782.1,640.6l5.3-11.6l5.8-6.7c4.5-0.2,13.1-10.7,11.3,4.7c-0.5,3.7-0.5,7.3,0,11c3.8,25.6,0.1,38.1-10.5,35.2
	c-0.3-0.6-0.5-1.3-0.8-1.9s-0.5-1.1-0.8-1.7c-0.7-9.5,3.5-21.2-11.2-24.2L782.1,640.6z"/>
<path class="st1" d="M747.8,625.8c14.4,7.6,12.5,21.2,12.7,34.1c-2.5,8.7-8.5,14.3-16.1,18.6c-9-1,8.8-7.5-2.3-10.1
	c-7.5-1.7-3.6,7.2-8.4,5.7C741.6,658.9,734.3,639.4,747.8,625.8z M747.8,651c6.9-0.8,10.2-3.5,10.3-8.5c0.1-5.6-5.1-6.4-9-6.7
	c-6.2-0.5-4.5,5.3-4.7,8.4C744.4,646.6,746.9,649.1,747.8,651z"/>
<path class="st5" d="M966.2,620.6l20.6,5.2c23.3,3.1,17.8,16.6,11,30.6c0.2-1.9,0.3-3.9,0.6-5.8c1.3-6.7,7.2-13.3,1.4-20.1
	c-1.1-1.3-6.4-1.1-7.8,0.3c-7.7,8.1-8.5,18.7-6.6,28.8c0.7,3.6,6.9,6.5,11.1,8.9c2.5,1.4,6,1.1,9,1.6c0,0.5,0,1.1,0,1.6l-11.9-1.2
	l-10.6-5.6c-0.2-0.6-0.4-1.2-0.6-1.8l-0.9-12.3c-2.4-4.9-4.9-9.8-7.3-14.7l6.2,7.2c1.5-4.6,4.4-9.3,3.9-13.7
	c-0.3-2.5-6.1-4.3-9.4-6.4l-3.3,6.5L966.2,620.6z"/>
<path class="st5" d="M786.9,732.4l-16.4-19l-1.4-3v0.1l-6.7-16.5l4.2-11c0.4-0.7,0.9-1.3,1.3-2l1.3,3.2l1.4-9.6
	c0.3,0.2,0.5,0.4,0.8,0.6c-5.3,22.3,5.1,39.6,17.7,56.2L786.9,732.4z"/>
<path class="st4" d="M984.7,714.8c-2.3-1.7-6.8-4.2-6.5-5c2.3-6-7.6-11.5-0.7-17.4c7.7-6.5,10.3,2.2,14.9,5c0,0.7-0.1,1.3-0.1,2
	c-0.3,0.2-0.5,0.5-0.4,0.9c-0.2,0.5-0.4,0.9-0.6,1.3c-0.5,0.8-0.9,1.5-1.4,2.3L984.7,714.8z"/>
<path class="st6" d="M786.9,732.4l2.2-1l29.2,31.9l-7.9,3C802.7,754.9,794.8,743.6,786.9,732.4z"/>
<path class="st1" d="M781.1,645.4c14.7,3,10.5,14.8,11.2,24.2C788,661.8,775.1,658,781.1,645.4z"/>
<path class="st2" d="M746.7,751.4c-1.8-3.4-3.3-6.1-4.5-8.5C743.4,745.3,744.9,748,746.7,751.4z"/>
<path class="st1" d="M729.9,710.5c-0.9-12.8,2.5-23.6,13.8-30.9L729.9,710.5z"/>
<path class="st1" d="M983.1,665.1l10.6,5.6c5.9,9.1,0,11.8-7.4,13.6c-0.2-0.2-0.3-0.4-0.5-0.6C990.9,676.7,981.6,671.7,983.1,665.1z
	"/>
<path class="st3" d="M766.6,683l-4.2,11l-8.8,0.8c-0.1-1.8-0.9-4.1-0.1-5.2C756.8,685.4,760.6,681.9,766.6,683z"/>
<path class="st2" d="M764.4,756c-0.1,0.1-0.2,0.1-0.3,0.2c-0.1-0.2-0.1-0.3-0.2-0.5C764,755.8,764.2,755.9,764.4,756z"/>
<path class="st5" d="M793.1,671.3c0.3,0.6,0.5,1.2,0.8,1.9c-2.3,4.6,7.6,11.1-2.3,14.4l-2.5-0.8c0.2-5,0.3-10.1,0.5-15.1
	L793.1,671.3z"/>
<path class="st4" d="M770.7,674.5l-1.4,9.6L768,681c-0.4-1.4-1.2-2.8-1-4.1c1-6,2.2-12.1,3.3-18.1L770.7,674.5z"/>
<path class="st5" d="M966.9,746.5c0-2.8-0.8-6,0.3-8.4c0.7-1.6,4-2.1,6.1-3.1L966.9,746.5z"/>
<path class="st3" d="M966.9,746.5l6.4-11.5h1.3l-7.1,13.2C967.3,747.7,967.1,747.1,966.9,746.5z"/>
<path class="st1" d="M989.9,703.9c0.5-0.8,0.9-1.5,1.4-2.3C990.8,702.4,990.3,703.2,989.9,703.9z"/>
<path class="st1" d="M742.8,703.8l-0.9,0.4c0-0.2-0.1-0.3-0.1-0.5L742.8,703.8L742.8,703.8z"/>
<path class="st7" d="M719.2,786.3c-0.2-0.8-0.3-1.5-0.4-2.2C718.9,784.8,719.1,785.5,719.2,786.3z"/>
<path class="st1" d="M991.9,700.3c-0.1-0.4,0.1-0.7,0.4-0.9C992.3,699.8,992.2,700.1,991.9,700.3z"/>
<path class="st2" d="M774.6,578.6c-2.1,1.8-3.9,4.2-6.3,5c-1.1,0.4-5-2.8-4.8-3.6c1-3.1,2.3-6.7,4.7-8.7
	c12.5-10.7,14.7-23.6,10.6-38.8c-2.5-9.1,10.7-1,11.9-11.1c2.1-18.3,8.6-36,13.4-53.9c0.4-1.5,1.8-2.8,2.8-4.2
	c0.3,1.5,1,3.1,0.7,4.5c-3,16.4-6.1,32.8-9.1,49.2c-1.8,7.3-3.6,14.6-5.4,21.9l-2.3,1.9l-2.9-6.9c-0.9,1.1-2.8,2.4-2.6,3.2
	c1.2,3.5,2.6,6.9,4.1,10.3c0,1.4-0.1,2.8-0.1,4.2C784.3,560.6,779.4,569.6,774.6,578.6z"/>
<path class="st4" d="M793,539c1.8-7.3,3.6-14.6,5.4-21.9l9.9-22.6C804.6,509.8,802.8,525.8,793,539z"/>
<path class="st3" d="M789.3,547.4c-1.6-3.3-2.9-6.8-4.1-10.2c-0.2-0.7,1.7-2.1,2.6-3.2l2.9,6.9C790.2,543,789.8,545.2,789.3,547.4z"
	/>
<path class="st3" d="M352.4,241.2c10.9-8.7,19-8.3,22.4,7c-5,5.6-9.9,11.3-14.9,17l-2.3,3.7l-38.4,54.5c-6.8-2.6-6.1-8.7-6.5-14.2
	c0.1-0.6,0.2-1.2,0.3-1.7c0.2-0.1,0.4-0.3,0.5-0.4l0.5-0.5c0.2-0.1,0.3-0.2,0.4-0.3l2.7-2.5l0,0c7.7-4.3,20.3-4.1,12.8-19.9
	c-3.1-6.6-18.5-18.1,1.5-24.8L352.4,241.2z M350.8,263.7c-7.7-0.1-11.3,3.3-12.1,9.2c-0.1,0.9,4.1,3.5,4.4,3.2
	c3.5-3.1,6.8-6.4,9.8-10C352.3,265.3,351.6,264.5,350.8,263.7z"/>
<path class="st2" d="M472.9,523.3c3-3.1,8.2-5.8,8.7-9.3c2.3-14.5-7.9-23.7-18.5-29.2c-28.3-14.7-36-38.3-32.3-67.4
	c3.5-27.8-15.9-20.3-30.2-20.1c-10.2,0.1-20.4,1.3-30.6,1.4c-2.8,0-5.9-1.4-8.3-3c-0.7-0.5,0.4-3.7,0.7-5.7c2.1,0.8,4.2,2.2,6.2,2.2
	c13.2,0.1,26.7,1.7,39.4-0.7c25.8-4.8,29.7,9.5,29.1,29.6c-0.3,8.7-0.9,17.5-0.2,26.2c1.3,17.5,16.8,25.1,28.8,31.1
	c19,9.6,29,33.2,15.7,47.5c-1.3,0.5-2.6,1.1-3.8,1.9c-4,3.3-7.8,6.8-11.7,10.3L472.9,523.3z"/>
<path class="st7" d="M423.9,502.7l-2.3,2.5c-6.7,0.1-8.5-5-10.7-9.8l0,0c-8.7-5.2-19.8-8.7-16.9-22.6c0-0.2-1.4-1.1-1.8-0.9
	c-20.6,11.7-31.1-3.8-40.7-16.7c-6-8,9-11.7,8.5-20c1.1-1.3,2.9-1.4-0.1-4s-13.1-2.1-8-11c0.2-0.3,0.5-0.5,0.7-0.7l0.3-0.3
	c0.1-0.2,0.3-0.4,0.5-0.6h0.5l0.5-0.1c6.1-1.4,1,12.3,9.8,7.2c0.2-0.2,0.3-0.3,0.5-0.5l2.3-1.8l3.2-3l2.6,1.1
	c-0.3,1.2-0.7,2.3-1,3.5l-1.8,3c-0.3,0.5-0.7,0.9-1,1.4l-1.9,1.8c-5.1,3.3-7,9.9-4,13.1c6.5,6.9,7.4-4.3,11.9-5.4l2.6-0.4l1.8-0.2
	l5.1,1.5l2.2,1.5c7.8,5.2,2.8,10.7,0.3,16.1l-8,4c2.3,3.1,4.1,7.4,7.2,8.9c1.7,0.8,5.7-3.1,8.6-4.9l12.9-11.7
	c0.8-2.1,1.7-4.3,2.5-6.4c0.3,3.3,0.7,6.7,1.1,10c-3.7,4.1-7.3,8.1-11,12.2c-0.9,3.3-3,6.9-2.3,9.8s4.3,4.8,6.6,7.1l4.4-6.9l7.5-5.6
	c-2.2,5.2-10.4,9.3-3,16.3C413.7,497.2,417.8,500.8,423.9,502.7z M386.2,452.4c1.2-7.7-1.5-10.4-6.8-10.5c-4.4-0.1-6.1,2.5-6.2,6.5
	c-0.2,6.7,5.3,6,9.3,6.4C384.1,454.9,385.9,452.6,386.2,452.4z"/>
<path class="st5" d="M312.7,309c0.4,5.5-0.3,11.6,6.5,14.2c0.3,0.2,0.4,0.6,0.5,0.9l-14.4,7.7L261,346.4l-6.4,1
	c-7.7-3.6-17.9,4.9-24.2-5C260.2,337.1,284.4,318,312.7,309z"/>
<path class="st0" d="M319.6,324.2c0-0.4-0.2-0.7-0.5-0.9l38.4-54.5l4.7,0.2c3.2,11.5,13.4,6.7,20.2,7.7c6.4,1,13.4-1.6,17.7,5.4
	c0.5,0.8-0.2,3.1-1,3.8c-6.6,5.8-16,4.2-20.7,0.8c-25.9-18.9-32.1,3.9-42.7,18.5C331,312,329.3,321.6,319.6,324.2z"/>
<path class="st8" d="M351.9,420.1c-5.1,9,4.9,8.5,8,11s1.2,2.6,0.1,4c-22.7,6.8-22.9-17-34.5-25.4l9.1-14.1l2-0.6
	c0.9,5.4,4.1,8.8,9.4,10.2c0.3,0.8,0.6,1.5,0.9,2.3c-3.8,1.6-9.4,2.4-7.8,8.3C341,422.7,346.9,420.9,351.9,420.1z"/>
<path class="st7" d="M426.8,505.6c9.9,2.9,13.5-1.9,13.5-11.1c0.9,4.5,1.8,9,2.7,13.4l2.8,3.8l1.7,2.6l0.7,1.4
	c-5.3,13.8,3,13.5,12.5,12.1c-2.8,4.8-7.4,5.3-11.4,3C439,525,427.8,519.7,426.8,505.6z"/>
<path class="st2" d="M577.8,617.4c25.8-3.9,48.4,10.7,73.1,13c-4.2,5-16.9,5.7-8.7,17c-1.3,0.5-3,1.6-4,1.2
	c-1.8-0.7-4.7-2.5-4.6-3.6c3.1-30.9-22.6-17.8-35.8-23.6l-30.4,0.5c0.2-0.5,0.4-1,0.5-1.4l5.7-2.3l0.9-0.8c0.2,0,0.4,0,0.6,0
	c0.3,0,0.7-0.1,0.9-0.4L577.8,617.4z"/>
<path class="st5" d="M460.6,527.7c-9.5,1.5-17.8,1.8-12.5-12.1l6.4-11.9l6.9,22.5C461.2,526.8,460.9,527.2,460.6,527.7z"/>
<path class="st1" d="M335.3,374.7c0.3-1.1,0.6-2.2,0.8-3.2l9.4,0.2c0.2,7.2,2.2,14.9-4.4,20.7l-3.9,0.2
	C336.6,386.6,336,380.6,335.3,374.7z"/>
<path class="st2" d="M398.3,257.8c-2-2.6-4.5-5.2-4.2-5.5c2.7-2.9,5.7-5.4,8.6-8l5.2,6.9L398.3,257.8z"/>
<path class="st7" d="M345.6,371.6l-9.4-0.3l4.4-14.6c0,0-0.1-0.5-0.1-0.5h1.4l6.5,0.7c-0.8,4.7-1.6,9.3-2.4,14l-0.1,0.2L345.6,371.6
	z M348.1,367.5c-2.7-6.1-3.3-7.5-3.9-8.8c-1.7,2.8-3.4,5.6-4.9,8.5c-0.2,0.4,1.3,2.3,1.8,2.2C344,368.8,346.9,367.8,348.1,367.5
	L348.1,367.5z"/>
<path class="st7" d="M461.4,526.3l-6.9-22.5l3.5-0.1l3.8,3.6l4,7.7c-0.8,3.3-1.5,6.6-2.3,9.9L461.4,526.3z"/>
<path class="st5" d="M337.3,392.5l3.9-0.2c0.3,0.4,0.6,0.7,0.9,1.1l6.9,8.9l-3,2.8c-5.3-1.4-8.5-4.8-9.4-10.2L337.3,392.5z"/>
<path class="st0" d="M379.6,244.8l17.5-19.2C398.9,238.9,385.1,238.1,379.6,244.8z"/>
<path class="st1" d="M348.4,357l-6.5-0.7c0.1-0.5,0.3-0.9,0.4-1.4c1.2-3,2.1-6.3,3.7-9.1c2.9-5.3,6.3-5.5,6.8,1
	C353,350,350,353.6,348.4,357z"/>
<path class="st1" d="M423.2,242.6l1-1.2l8.2-0.1l3.2,3.5l-12.3,4.1C423.2,246.8,423.2,244.7,423.2,242.6z"/>
<path class="st2" d="M380.4,262.2c-4.2,1.5-7.5,2.8-10.9,3.8c-0.4,0.1-1.2-1-1.9-1.5l8.7-7.4L380.4,262.2z"/>
<path class="st7" d="M349,402.3l-6.9-8.9c4.3-1,7.5,0.2,9.2,4.4L349,402.3z"/>
<path class="st1" d="M444.4,272.2l3.2-0.1l-12.8,9l0,0L444.4,272.2z"/>
<path class="st2" d="M362.3,269l-4.7-0.2l2.3-3.7l4.5,0.1L362.3,269z"/>
<path class="st1" d="M423,238.2l-5-0.3l5-2.1C423,236.6,423,237.4,423,238.2z"/>
<path class="st7" d="M568,620.4c-0.2,0.5-0.3,1-0.5,1.4l-3.2,0.7L568,620.4z"/>
<path class="st1" d="M448.1,267l-2.8,3.6L448.1,267z"/>
<path class="st0" d="M342.2,354.9c-0.1,0.5-0.2,0.9-0.4,1.4h-1.4c0.3-1.1,0.6-2.2,0.9-3.3L342.2,354.9z"/>
<path class="st1" d="M433.6,283.5l-1,0.8l-1.3-1.2l2.4-0.8l0,0C433.6,282.7,433.6,283.1,433.6,283.5z"/>
<path class="st1" d="M450.3,263.7l-1.6,2.4L450.3,263.7z"/>
<path class="st1" d="M345.9,371.2l0.1-0.2L345.9,371.2z"/>
<path class="st0" d="M521.9,176.6l0.9,0.7L521.9,176.6z"/>
<path class="st1" d="M421,249.7L421,249.7z"/>
<path class="st1" d="M411,495.4L411,495.4z"/>
<path class="st1" d="M433.6,282.3l1.1-1.1l0,0L433.6,282.3L433.6,282.3z"/>
<path class="st1" d="M574.6,617.4l-0.9,0.8L574.6,617.4z"/>
<path class="st1" d="M278.6,112.8c-2.7-6.1-5.4-12.2-8.3-18.2c-0.6-1.3-2.1-2.1-3.2-3.1c-0.9,1.9-2.9,4-2.6,5.7
	c3.2,17,8.4,33.7,9.6,50.8c0.6,9-5.4,18.4-8.4,27.7c-9.9-3.4-9.1-13.5-12.4-20.6c-11.7-25.7-11.4-55.7-27.4-80
	c-1.7-2.6-4-4.8-6.1-7.1c-0.2,3.2-1.2,6.5-0.6,9.5c7.4,37,22.2,72.4,23.8,110.6c0.3,7.8-1.8,16-9.7,20c-0.6,0.3-6.3-7.8-8.3-12.5
	c-6.6-15.9-12.6-32-18.8-48c-0.6-1.2-1.3-2.4-2.1-3.5c-1.5,3.3-4.6,6.9-4.1,9.8c3.9,22.8,9.4,45.4,12.3,68.2
	c1.1,8.8-1,20.2-6.2,26.9c-2,2.5-3.2,3.3-3.8,3c-1.8-0.7-0.3-7.8-1.2-8.1c-1.9-0.5-5.3,31.2-25,47c-8.8,7.1-24.5,15.5-35.7,10.1
	c-11.7-5.6-6.3-20.1-18.5-43.1C107.1,229.5,87,228.1,86.9,211c-0.1-7.8,4-13.8,26-36.2c22.5-22.9,40.1-38.4,43.1-41.7
	C201.8,82,191.5,1.4,203,1.3c6.1,0,9.7,22.8,25.6,65.5c4.1,11.1,7.9,20.3,16.5,43.9c2.9,7.8,5.7,15.6,8.5,23.5
	c-0.5-8.4,1.7-18.7-2.4-24.8s10.5-16.5-5-18c-1.3-0.1-3-2.6-3.5-4.3c-2.4-7.6-5-17.6,1.8-22c10.9-7.1,23.2-3.6,34.1,3.3
	c1.4,0.9,3.6,0.6,5.5,0.9c-1.3-1.2-2.4-2.9-4-3.5c-7.2-2.9-14.5-5.4-21.8-8.1c16.3-0.8,32.6,2,47.7,8.2c1.8,0.7,4,5.8,3.2,6.8
	c-3.8,4.9,0.2,15.7-10.9,15.3c-0.2,0-1.1,2-0.8,2.4c1.2,1.3,2.6,2.6,3.9,3.8c2.4,2.4,4.7,4.9,7,7.3c-2.9-1.2-5.6-2.8-8.6-3.4
	s-6-0.2-9-0.3c2.6,6.2,1.7,14.1,9.6,17.6c3.9,1.7,7.3,4.3,11,6.5l0,0c-9.4-4.1-12,1.9-14.6,9.2c-1.5,4.3,0.2,14.2-5.2,11.7
	c-4.6-2.2-5.3-12.9-7.7-19.8l7,1.8c-0.1-0.7-0.4-1.3-0.7-1.9c-8-10.8-12.5-22.6-11.4-36.3c0.2-2.2-1.2-4.6-2.1-6.8
	c-1-0.1-2.1,0.2-3,0.7c-0.5,0.3-0.4,1.7-0.2,2.6C275.2,92.7,276.9,102.7,278.6,112.8z M173,180.4c-2,2.8-4.4,4.6-4.1,5.9
	c2.1,9.8,4.8,19.4,7.3,29.1c2.9-2.3,8.7-5.4,8.3-6.6C181.5,199.5,177.4,190.7,173,180.4z M192,212.8c0.3,4.2,0.4,8.3,1.1,12.3
	c0.2,1.1,2.2,1.9,3.5,2.8c1.9-2.6,5-5,5.3-7.8C202.5,215.2,198.6,213.4,192,212.8L192,212.8z"/>
<path class="st0" d="M337.3,209.9c3.4,12.2-10.4,12.6-13.7,20.2L321,233c-0.2,0.2-0.2,0.5-0.1,0.7c-14.2,9.6-26.6,22.3-43.6,27.4
	c-1.6,0.5-3.2,0.4-4.7-0.4c-1.2-0.8-1.5-2.8-2.1-4.3c1.4,0,2.7,0,4.1-0.1c18.9-0.7,20.6-14.7,22.3-28.8c0.1-1.1,1.8-2.9,2.5-2.8
	c18.5,2.3,8-14,8.4-17.8c1.4-14.8,0.5-27.4,21.3-18.9c1.4,0.6,3.6-1,5.5-1.6c-6-8.9,7.2-11.5,6.1-18.5c-2.2-14.5-6.4-28.2-19.1-37.5
	c-0.8-0.6-0.4-3-0.5-4.5c0.9,0.5,2.3,0.7,2.5,1.4c1.9,6.9,8.7,6.4,13.3,9.2c3.7-9.2-3.6-15.3-6.3-22.7c-1-2.8-3.5-7.4-2.5-8.2
	c8.9-8.3,16.4-22.4,31.9-11c1.7,1.2,2.3,5.2,2.1,7.7c-0.9,10-2.4,19.9-3.7,29.8c-0.9,4.4-1.8,8.8-2.8,13.2
	c-8.1,20.6-15.4,41.5-17,63.9h-0.2L337.3,209.9z"/>
<path class="st1" d="M298.3,255.4l15.4-8.1l-2.2,5.1l-0.2,0.2c-4.9,11.3,9.4,7.9,9.1,9.6c-2.4,13.7,13.9,29-3.1,41.3l0,0
	c-0.9,0.8-1.8,1.7-2.7,2.5c-0.1,0.1-0.3,0.3-0.4,0.3c-0.2,0.1-0.4,0.3-0.5,0.5c-0.1,0.2-0.3,0.3-0.5,0.4c-8.8,2.6-18.5,4.4-24.6-3.5
	c-5.2-6.6,2-13.8,3.1-20.8C292.9,273.5,303.6,266.4,298.3,255.4z"/>
<path class="st1" d="M230.6,335.4c2.6-13.9,17-17.8,24.1-28.2c10.1-14.9,22-28.6,33.2-42.8c-2.4,13.5-4.5,27.1-7.4,40.4
	c-1.3,5.9,12,9.1,4.7,11.9C267.4,323.6,252.1,339,230.6,335.4z"/>
<path class="st2" d="M258.3,57.5c7.3,2.7,14.6,5.2,21.8,8.1c1.5,0.6,2.6,2.3,4,3.5c-1.8-0.3-4,0-5.5-0.9
	c-10.9-6.9-23.2-10.4-34.1-3.3c-6.8,4.4-4.2,14.4-1.8,22c0.5,1.7,2.2,4.1,3.5,4.3c15.5,1.5,1,11.8,5,18s1.8,16.4,2.4,24.8
	c-2.8-7.8-5.6-15.6-8.5-23.5c-5.4-14.7-10.5-29.5-16.5-43.9c-1.7-4-6.5-9.5-9.8-9.4c-6.7,0.1-4.2,8-6.1,12.4
	c-1.4,3.2-1.2,7.1-6.3,6.1c4.5-13.1-8.4-4.8-11.1-9l3.9-10.2l1.2-4.5l0.6-1c0.2-0.4,0.4-0.8,0.5-1.1l8.1-1.2l2.7,0.1l26.7,8.1
	l10.6-1l1.6,0.1h2.9l2.3,0.8L258.3,57.5z"/>
<path class="st1" d="M209.6,48.7l-8,1.2c2-13.3,4-26.7,6-40.1c6.8-3,11.8,0.9,16.9,4.3c6.2,5.5,13.3,10.5,18.4,16.9
	c2,2.6,0.5,12.1-0.6,12.3c-8,1.5-16.1,2-24.1,1.4C213.8,44.5,210.9,43.9,209.6,48.7z"/>
<path class="st2" d="M230.6,335.4c21.5,3.7,36.8-11.7,54.6-18.7c7.3-2.8-6-6-4.7-11.9c2.9-13.4,5-26.9,7.4-40.4l10.3-9
	c5.4,11-5.4,18.2-6.8,27.7c-1,7-8.2,14.2-3.1,20.8c6.2,7.9,15.8,6.1,24.6,3.5c-0.1,0.6-0.2,1.2-0.3,1.7c-28.3,9-52.5,28.1-82.4,33.4
	l-4.1-1.7l-3.5,1c-0.2-0.1-0.4-0.2-0.6-0.2l4.3-6.2L230.6,335.4L230.6,335.4z"/>
<path class="st2" d="M174.3,226.9c-5.1,11.7-10.8,23-10.8,36.5c0,6.1,12.5,6.9,4.9,14.5l-0.1-0.1l-6.4-5.2c-0.1-0.3-0.2-0.6-0.4-0.8
	c-0.4-3.4-0.8-6.8-1.2-10.2l-4.6-14.9l-5.4-17.8V229l0.1-3c0.4-1,0.8-2,1.2-3.1l18.4-2.6l4,4.8C174.1,225.7,174.2,226.4,174.3,226.9
	z"/>
<path class="st2" d="M278.6,112.8c-1.7-10-3.4-20.1-5.1-30.1c-0.1-0.9-0.2-2.2,0.2-2.6c0.9-0.5,2-0.8,3-0.7c0.9,2.2,2.2,4.6,2.1,6.8
	c-1.1,13.7,3.4,25.5,11.4,36.3c0.3,0.6,0.6,1.2,0.7,1.9l-7-1.8l-1-1l-2.9-4.8C279.6,115.5,279.1,114.1,278.6,112.8z"/>
<path class="st1" d="M315.7,125.2l2,2.4c-10.3,4.3-10.1,14.9-13.9,23.1c-0.2-0.5-0.7-1-0.7-1.5C303.5,139.4,304.7,130,315.7,125.2z"
	/>
<path class="st1" d="M239,56.9l-26.7-8.1C222.6,46.9,231.8,48.9,239,56.9z"/>
<path class="st1" d="M324.8,231.8c5.2,0,9,1.6,5.1,7.2c-2.2,3.2-6.3,5.1-9.6,7.6l-2.2,0.4c0-0.5,0-1,0-1.6c0.9-3.9,1.8-7.7,2.7-11.6
	c-0.1-0.3,0-0.5,0.1-0.7L324.8,231.8z"/>
<path class="st1" d="M155.7,246.9l4.6,14.9L155.7,246.9z"/>
<path class="st2" d="M318.1,245.4c0,0.5,0,1,0,1.6l-6.6,5.4l2.2-5.1L318.1,245.4z"/>
<path class="st1" d="M162,272.8l6.4,5.2l-6.7-3.8C161.8,273.7,161.9,273.2,162,272.8z"/>
<path class="st7" d="M162,272.8c-0.1,0.5-0.2,0.9-0.3,1.4l-4-2.5l3.9,0.3C161.7,272.2,161.8,272.5,162,272.8z"/>
<path class="st1" d="M280.1,116.8l2.9,4.8L280.1,116.8z"/>
<path class="st1" d="M295,147.6c-0.3,0.6-0.6,1.1-0.8,1.6c-0.4-0.3-1-0.6-1-0.9s0.3-1,0.5-1.4L295,147.6z"/>
<path class="st0" d="M203.7,312l-1.3-0.7l0.5-0.5L203.7,312L203.7,312z"/>
<path class="st1" d="M256.4,56.9l-2.3-0.8L256.4,56.9z"/>
<path class="st1" d="M226.4,335.4l-0.5-1.1L226.4,335.4L226.4,335.4z"/>
<polygon class="st1" points="311.5,121.6 311.7,121.9 311.5,121.6 "/>
<path class="st1" d="M251.2,56.1l-1.6-0.1L251.2,56.1z"/>
<path class="st8" d="M150.3,229L150.3,229z"/>
<path class="st6" d="M226.2,340.7l4.1,1.7c6.4,10,16.5,1.5,24.2,5c-11.3,3.8-22.6,7.6-34,11.1c-0.8,0.2-2.2-1.6-3.3-2.5
	C224.7,353.5,226.5,347.7,226.2,340.7z"/>
<path class="st3" d="M226.2,340.7c0.3,7-1.5,12.9-9,15.4c0.1-1.1,0.3-2.3,0.4-3.4l0.3-1.1l4.7-9.9L226.2,340.7z"/>
<path class="st6" d="M218,351.6l-0.3,1.1L218,351.6z"/>
<path class="st0" d="M727.6,616.9c0.7-1.5,1.4-2.9,2-4.4l5.8,1.3c-0.3,2.6-0.6,5.1-0.9,7.7l8.5-7l1-0.9l1.1-1.1l1-1.1l1.1-1.1
	l0.1-0.1l0.9-0.9l0.2-0.2h0.4l0.4-0.1l1.1,8.9c0.2,0.9,0.4,1.8,0.6,2.7l-3.2,5.1c-13.4,13.7-6.1,33.2-14.1,48.4
	c-1.3,1.9-2.6,3.7-3.9,5.6c1.3-8.6,3.6-17.2,3.5-25.8c-0.1-7.1,4.9-19.3-6.2-20c-8-0.5-16.8,6.8-24.8,11.4
	c-10.4,6-18.4,17.1-32.7,14.3l5.2-4.8l44.8-27.8l4.2-2.3C725,622.1,726.3,619.5,727.6,616.9z"/>
<path class="st0" d="M729.7,680.7l-2.2,6.7L729.7,680.7z"/>
<path class="st5" d="M147.3,182.4l-0.6,3.9L147.3,182.4z"/>
<path class="st5" d="M193.5,61.1c-0.2,0.3-0.5,0.6-0.7,0.9L193.5,61.1z"/>
<polygon class="st5" points="151.1,151.9 151.1,151.9 150.8,151.9 "/>
<path class="st2" d="M719.4,627l-44.8,27.8c-3-9.2-6.5-18.3,7.5-21.9c1.3-0.3,1.8-3.6,2.7-5.5c-2.8-0.4-5.6-1.3-8.2-1
	c-8.1,1-16.1,2.4-24.1,3.6c9.2-1.8,17.4-4.6,15-16.8c8.3,5.1,22-9.7,27.3,7.7c0.7,2.3,6.8,3,10.4,4.4c-3.8,1.8-7.8,3.2-11.5,5.3
	c-2.6,1.5-4.8,3.8-7.1,5.8c4.5-0.6,9.1-0.7,13.3-2C706.5,632.4,712.9,629.6,719.4,627z"/>
<path class="st2" d="M627.4,652.6c-11.6-0.2-16.8-2.9-18.2-9.9c-0.2-1.1,3.8-4.4,5.6-4.2c6.4,0.6,12.2,3.2,13.4,10.5
	C628.5,651.3,627,653.9,627.4,652.6z"/>
<path class="st3" d="M311.5,252.4l6.6-5.4l2.2-0.4c7.3-2.1,13.3-5.6,16.6-13c0.8-1.7,3.3-2.7,5.1-4l5.6,8.5
	c-1.8,12.8-13.2,14.9-22,19.9c-6,1.5-12.8,4.8-14.2-5.5L311.5,252.4z"/>
<path class="st1" d="M357,149.1c4.1-4,8.9-2,7.7,2.3c-5.5,19.3-9.7,39.3-21.8,56L357,149.1z"/>
<path class="st4" d="M357,149.1l-14.2,58.4l-4.3,1.6c1.6-22.4,8.9-43.2,17-63.9L357,149.1z"/>
<path class="st3" d="M341.6,220.2c-0.3-1.1-1.7-2.9-1.2-4c0.9-2.5,3.1-6.9,4.2-6.7c16.8,2.3,31.3-6.8,47.2-8.8
	c1.3-0.2,2.7,0.4,4,0.6c-1.2,0.8-2.2,2-3.5,2.4C376.1,209,360,214.2,341.6,220.2z"/>
<path class="st3" d="M416.7,195.2l-8.5-4.4l-2.2-3.1l0,0c1.5-5,3-9.9,4.5-14.9l6,1.6v0.5h0.5c0.1,0.2,0.3,0.4,0.5,0.6l1.5,1.9
	c1.1,2.2,2.2,4.3,3.2,6.5L416.7,195.2z"/>
<path class="st5" d="M325.6,258c8.8-5.1,20.2-7.2,22-19.9l4.9,3.1l-20.9,17.6L325.6,258z"/>
<path class="st4" d="M324.8,231.8L321,233l2.6-2.9L324.8,231.8z"/>
<path class="st4" d="M337.3,209.9l1.1-0.9L337.3,209.9z"/>
<path class="st2" d="M419.1,177.5l-1.5-1.9L419.1,177.5z"/>
<path class="st2" d="M417,175h-0.5v-0.5C416.8,174.5,417,174.7,417,175z"/>
<path class="st1" d="M201,51l-0.6,1L201,51z"/>
<path class="st2" d="M406,187.8l2.2,3.1L406,187.8z"/>
<path class="st3" d="M190.9,74.4l3-6.3l1.4-1.3c2.7,4.2,15.5-4.1,11,9c-0.2,0.2-0.4,0.4-0.5,0.6l-8.8,6.4l-0.3,0.2l-9.7,3
	C188.4,82.2,189.6,78.3,190.9,74.4z"/>
<path class="st7" d="M829.3,683.8c5.3,7.9,13.7,15.4,15.1,24c1.1,6.8-9-0.6-13.4,2.4c4.4-8.7,2.6-16.9-2.2-24.8L829.3,683.8z"/>
<path class="st5" d="M828.9,685.4c4.7,7.9,6.5,16.1,2.2,24.8l-2.5,0.9c2.2-9.1,1.8-17.7-4.3-25.4c0.2-0.5,0.4-1,0.6-1.4L828.9,685.4
	z"/>
<path class="st8" d="M989.3,529.8l1.1,0.1L989.3,529.8z"/>
<path class="st2" d="M906.6,633.4l-5.4-13.1c3.1-3.9,6.7-7.7,0.4-11.9c4.8-1.9,9.4,8.1,13.2,1.3c1.9-3.3-0.3-9.8-6.9-10
	c-4.1-0.2-8,0.6-7.2,6.3c-7.5-12.1-17.5-20.6-32.2-22.2c4.7-6.9,10.4-1.3,15.5-0.9c7,0.8,13.9,1.9,20.8,3.4c2.3,0.4,4.4,1.6,6.6,2.4
	c-1.7,1.1-3.4,2.3-5.1,3.4c-1.3,0.8-2.6,1.6-3.8,2.4c1.3,0.4,2.6,0.8,3.8,1.2c19.1,4.8,9.8,20.9,12.2,31.9
	c6.1,27.4,10,55.2,16.1,82.5c1.3,5.8,9.9,9.7,6.2,17.8c-0.8-0.7-2.3-1.3-2.3-2c-0.2-3.1,2.3-7.5-3.4-7.8c-0.8,0-2.9,4-2.6,5.9
	c0.7,4.8,4.2,5.9,8.6,4.3c3.4,5.6,10.8-4.3,13.5,3.4c0.2,0.5-1.4,2.4-2.3,2.6c-8.3,1.6-15.8,0.7-22-6.5c-2.2-2.6-6.5-3.5-9.8-5.2
	c-0.5-0.9-1-1.8-1.5-2.6c-0.7-12.6-1.3-25.2-2.2-37.8c-0.8-11.5-2-22.9-3-34.4c3.4,10.2,6.8,20.3,10.3,30.4c0.7,1.6,1.6,3.1,2.5,4.6
	c0-1.7,0.5-3.5,0.1-5c-3.3-13.4-6.8-26.7-10.1-40.1c-1.1-4.4-0.8-9.5-7.2-9.9c0.3,2.9,0.6,5.8,0.9,8.7L906.6,633.4z"/>
<path class="st4" d="M889.2,768.6c-0.1,8.3,0.9,22.2-7.1,21.4c-11.6-1.2-10.1-16.3-12-26.1c-3-15.9-4.6-32.1-6.5-48.2
	c-0.3-2.9,0.8-6,1.3-9.1c1.5,2.2,4,4.2,4.5,6.5C873.6,732.5,891.8,746.9,889.2,768.6z"/>
<path class="st2" d="M895.1,678.7c0.7,8,10.9,14.5,3.6,23.7c-29.3,2.3-14.7-22.2-18-33.3c-4.2-14.6-4.4-30.7-9.4-45.7
	c-1.2-3.7-1.7-7.6-2.5-11.5c2.2-0.3,5-1.5,6.6-0.6c5.4,2.8,7.7,7.5,8.4,13.7c1.8,16,4.4,31.9,7,47.8
	C891.3,675,893.7,676.8,895.1,678.7z M885.3,689.2c-0.3,5,3.3,9.6,6.9,8.6c7.7-2.2-3.1-9.7,2.4-13.7c-0.9-0.9-1.8-2.6-2.6-2.5
	C887.6,682.1,885,684.5,885.3,689.2L885.3,689.2z"/>
<path class="st2" d="M900.8,757.1l1.9-4.2c1.1,0.9,2.1,1.9,3,2.9c5.8,8.3,12,16.3,16.8,25.2c1.9,3.6,0.5,9,0.6,13.6l-10.5-16.3
	l-0.1-0.1c-0.8-1.4-1.6-2.8-2.3-4.3l-0.8-2.2l-2-3.4l-1.3-1.1c-0.3-0.7-0.7-1.4-1-2.1L900.8,757.1z"/>
<path class="st4" d="M909.3,771.8c0.3,0.8,0.5,1.5,0.8,2.2c-1.5,2.7-1.3,4.4,2.3,4.3l0.1,0.1c-1.5,3.3,2.7,11.6-5.4,8.7
	c-6.4-2.3-12.3-8.4-11-16.4c0.7-4.5-2.5-11.1,4.6-13.6l4.2,8.1c0.3,0.7,0.7,1.4,1,2.1l1.3,1.1L909.3,771.8z"/>
<path class="st2" d="M841.9,650.4c-1.6-13.5-3.2-27-4.7-40.5c-0.1-0.7,0.7-1.5,1.1-2.3c2.9,3.2,7.2,5.9,8.5,9.7
	c2.8,8.2,4.1,16.9,6.1,25.4C838.3,629.6,847.4,650.5,841.9,650.4z"/>
<path class="st2" d="M852.7,645.9c0.9,2.8,1.8,5.6,2.7,8.5c-1.3-0.1-3.4-0.6-3.7-0.1c-0.9,1.6-1.1,3.6-1.5,5.5l5.8,1.2
	c-1.3,6.7-2.6,13.4-3.9,20.2l-7.9-24.7L852.7,645.9z"/>
<path class="st3" d="M900.7,605.9c-0.8-5.7,3-6.4,7.2-6.3c6.7,0.2,8.8,6.7,6.9,10c-3.9,6.8-8.4-3.2-13.2-1.3L900.7,605.9z"/>
<path class="st3" d="M852.7,645.9l-8.6,10.4l0,0l-1-1.2l-0.1-0.1l-1.1-0.8c0-1.3-0.1-2.6-0.1-3.9c5.5,0.1-3.6-20.8,11-7.7
	L852.7,645.9z"/>
<path class="st2" d="M859.5,810.4c-2.4-3.2-5.5-5.8-5.1-6.8c1.1-2.4,3.9-4.1,6-6c1.5,2.2,3.7,4.3,4.1,6.6
	C864.7,805.6,862,807.5,859.5,810.4z"/>
<path class="st3" d="M856,660.9l-5.8-1.2c0.5-1.8,0.7-3.8,1.5-5.5c0.2-0.5,2.4,0,3.7,0.1L856,660.9z"/>
<path class="st2" d="M843.2,655.2l1,1.2L843.2,655.2z"/>
<path class="st2" d="M842,654.4l1.1,0.8L842,654.4z"/>
<path class="st3" d="M966.2,665.1l-1.3,1.2l-13.9,0.9c-0.3-0.4-0.7-0.8-1.1-1.2l-1.2-1.6c-9-6.2-5-15.7-6.1-23.9
	c-0.7-4.7-3.1-7.4-7.7-8.3l-1.3-2.1l-2.5-2.2l-3.6-4.9c0.1-0.1,0.2-0.3,0.1-0.4c0,0-0.1-0.1-0.1-0.1c-0.1-0.8-0.2-1.7-0.3-2.5
	c4.2-3.4-2.1-14.7,9.5-12.4l2.7,0.7c0.5,3,1,6.1,1.4,9.1c0.2,2.2,0,4.3,0.2,6.5c0,0.7,0.7,1.2,1.1,1.9c2.1-10.3,6.7-6.9,11.6-2.2
	c0,0.7,0,1.4,0.1,2.1l0.1,2.1l4.8,8.9C960.9,646.2,968.3,654.4,966.2,665.1z"/>
<path class="st4" d="M933.5,630.1l1.3,2.1c3.8,17.6,7.6,35.3,11.2,53c0.5,2.6-0.2,5.5-0.3,8.3c-3.8-1.7-10.4-2.8-10.9-5.2
	c-4.4-21-7.8-42.2-11.3-63.4c-0.1-0.6,2.1-1.6,3.2-2.5c0,0.3,0.3,0.6,0.6,0.6c0,0,0,0,0,0c1.2,1.6,2.4,3.2,3.6,4.9L933.5,630.1z"/>
<path class="st2" d="M951,667.2l13.9-0.9c4.2,6.7-8.8,20.6,9,21.5l-2.5,3.7l-0.3-0.2l0.3,0.2c-3.9,8-10.7,9.5-18.6,7.7
	c-0.7-0.2-1.8-2.4-1.5-3c0.6-0.9,2.1-1.3,3.3-1.9c0.4,1.1,0.7,2.3,1.1,3.4c3.5-1.4,6.9-2.8,10.3-4.4c0.4-0.2,0.2-1.5,0.3-2.3
	l-10.3,2.8L951,667.2z"/>
<path class="st4" d="M983.1,665.1c-1.5,6.5,7.9,11.5,2.7,18.6c-18,7.7-15.8-8-19.5-16.8c1.2-0.8,2.5-1.5,3.8-2.2l12.4-1.3
	L983.1,665.1z"/>
<path class="st7" d="M970.1,664.7c-1.3,0.7-2.5,1.5-3.8,2.2l-0.1-1.8c2.1-10.8-5.3-18.9-7.8-28.4c0.2-0.2,0.5-0.4,0.7-0.7
	c4,1.4,8.6,6.6,11.3-1.6l3.5,1.1c0.1,0.3,0.2,0.6,0.3,0.9c2.4,4.9,4.9,9.8,7.3,14.7C977.7,655.6,973.9,660.1,970.1,664.7z"/>
<path class="st4" d="M921.1,607c3-9.4,9.9-13.4,18.4-9.1c7.2,3.6,15.2,7.8,17.8,16.9l-12.6-0.5l-1.9-2.1l-2.9-6.4l0,0l-1.3-1.1
	c-0.2,0-0.5-0.1-0.7-0.2c-5.4-5-9.8-4.3-13,2.5c-0.6,1-1.4,1.8-2.3,2.6C922.1,608.7,921.6,607.8,921.1,607L921.1,607z"/>
<path class="st4" d="M953.2,711.1c-1.5,1-3.7,3.6-5.7,3.5c-7.7-0.5-9.9-6.5-10.8-12.9c-0.1-1,2.5-3.4,2.9-3.2
	C944.9,701,952.1,701.3,953.2,711.1z"/>
<path class="st7" d="M944.7,614.3l12.6,0.5c0.3,0.1,0.7,0.2,1,0.1l2.1,2.7l5.9,3c1.8,3.1,3.6,6.2,5.4,9.4l0.1,0.2l-1.2,2.2
	c-2.4,5.6-19.2-34-11.3,3.6c-0.2,0.2-0.5,0.5-0.7,0.7l-4.7-8.9c0-0.7-0.1-1.4-0.1-2.1s0-1.4-0.1-2.1
	C955,616.3,948.3,616.8,944.7,614.3z"/>
<path class="st3" d="M956.1,693.8l10.3-2.8c-0.1,0.8,0.1,2.2-0.3,2.3c-3.4,1.6-6.9,3-10.3,4.4c-0.4-1.1-0.7-2.3-1.1-3.4L956.1,693.8
	z"/>
<path class="st2" d="M936.6,607.6c-11.5-2.2-5.3,9.1-9.5,12.4l-3.4-3.4c6.2-1.6,0-15.2,11.5-11.8L936.6,607.6z"/>
<path class="st5" d="M936.6,607.6l-1.4-2.8l2.7-0.3c0.2,0.2,0.4,0.2,0.7,0.2l1.3,1.1l0,0c0,0.8,0,1.5-0.1,2.2l-0.5,0.2L936.6,607.6z
	"/>
<path class="st4" d="M960.3,617.6l-2.1-2.7L960.3,617.6z"/>
<path class="st2" d="M948.7,664.5l1.2,1.6L948.7,664.5z"/>
<path class="st4" d="M921.1,606.9L921.1,606.9z"/>
<path class="st2" d="M927.4,623c-0.3,0-0.7-0.2-0.7-0.6c0,0,0,0,0,0c0.2,0,0.5,0,0.7,0.1c0.1,0.1,0.2,0.3,0.1,0.4
	C927.5,623,927.5,623,927.4,623z"/>
<path class="st1" d="M906.6,633.4l3.8,2.9l0.2,0.4c1,3,1.9,5.9,2.9,8.9l0,0l0.1,1.3c0.2,0.2,0.3,0.5,0.4,0.8c1,11.5,2.2,22.9,3,34.4
	c0.9,12.6,1.5,25.2,2.2,37.8c-14.8-7.9-2.8-20.1-4.6-30.1C911,671,909.1,652.1,906.6,633.4z"/>
<path class="st1" d="M934.4,777.9c0.6,0.4,1.4,0.8,1.3,1c-0.1,0.5-0.6,1-0.9,1.5c-0.4-0.3-0.9-0.7-1.1-1.1S934.1,778.5,934.4,777.9z
	"/>
<path class="st2" d="M824.8,684.3c-0.2,0.5-0.4,0.9-0.6,1.4l-11.4,2.2c-1.8-23.6-3.6-47.1-5-70.7c-0.1-1.9,3.2-3.9,4.9-5.9
	c1,1.8,2.6,3.6,2.8,5.4c1.6,21,2.9,42,4.7,62.9C820.4,681.3,823.2,682.7,824.8,684.3z"/>
<path class="st5" d="M794.7,701.6c12.3,5.7,9.5-9.7,16.3-11.7l1,29.4l-13.8-9L794.7,701.6z"/>
<path class="st6" d="M798.1,710.4l13.8,9c-0.8,5.8-0.6,17.3-3.9,15.8C798.9,731.1,799.9,719.5,798.1,710.4z"/>
<path class="st2" d="M791.6,687.6l3.1,13.4c-7.7-1.4-7.8-7.1-7.6-13.1c0.2,0,0.4-0.2,0.4-0.4l1.5-0.7L791.6,687.6z"/>
<path class="st2" d="M819.7,715.2c0,0.1,0,0.4,0,0.4c-0.2,0-0.3,0-0.5,0c0-0.1,0-0.4,0-0.4C819.3,715.2,819.5,715.2,819.7,715.2z"/>
<path class="st5" d="M787.5,687.5c0,0.2-0.2,0.4-0.4,0.4C787.2,687.8,787.3,687.6,787.5,687.5z"/>
<polygon class="st2" points="823.1,715.9 822.9,716.2 823.2,715.9 "/>
<path class="st2" d="M755,619c6.3-16.9,17.3-26.1,36.3-21.9l-1.5,0.8c-8.8,5.1-27.8-0.3-20.9,20.7L755,619z"/>
<path class="st2" d="M793.1,615.6l0.1,6.7l-5.8,6.7c2.5-7.3-9.4-18,5.3-22.4C792.8,609.6,793,612.6,793.1,615.6z"/>
<path class="st4" d="M793.1,615.6c-0.1-3-0.2-5.9-0.4-8.9c-0.9-2.9-1.9-5.8-2.8-8.7l1.5-0.8c5.2,5.4,8.8,11.2,4.2,18.8
	C795.4,616.2,793.9,615.7,793.1,615.6z"/>
<path class="st2" d="M769.2,710.4l1.4,3L769.2,710.4z"/>
<path class="st4" d="M747.8,651c-1-1.9-3.5-4.4-3.3-6.8c0.2-3.1-1.6-8.9,4.7-8.4c3.9,0.3,9,1.1,9,6.7
	C758.1,647.5,754.7,650.2,747.8,651z"/>
<path class="st3" d="M974.2,636.4c-0.1-0.3-0.2-0.6-0.3-0.9c-0.7-1.8-1.5-3.6-2.2-5.3l-0.1-0.2l3.3-6.5c3.3,2.1,9.2,4,9.4,6.4
	c0.5,4.4-2.4,9.1-3.9,13.7L974.2,636.4z"/>
<path class="st8" d="M970.1,664.7c3.8-4.5,7.6-9.1,11.5-13.6l0.9,12.3L970.1,664.7z"/>
<path class="st2" d="M808.2,445.1l-8-21.6C806.2,429.4,808.6,436.8,808.2,445.1z"/>
<path class="st3" d="M696.6,351.8l-12.2-1c1.7,2,3.4,4.2,4.9,6.4c11.5,18.3,2,53.5-19.5,69.4c-23.3,17.3-49.6,16.8-67.9-3.3
	c-18-19.8-44.2-38-37.8-72.3c3.2-17.1,8.9-33,25.4-39.6c21.6-8.5,45-12.2,65.2,3c5.5,4.2-0.1,14.8,15.5,6.1
	c12.9-7.2,27.1,12.9,35.4,27.5l-6.8,3.5L696.6,351.8z M583.3,360.1c0.7,4.4,1.4,8.7,2.2,13.1c0.8-2.3,2.3-4.7,2.3-7
	c0.1-22.7,13.7-33.4,33.7-38.9c2.1-0.6,3.7-3.1,5.5-4.7c-2.6-1-5.4-3.1-7.6-2.7C597.8,324.6,586.5,338.7,583.3,360.1z M646,338.4
	c3.8,0.6,6.6-0.2,5.7-4.4c-1.7-7.6-7.5-10.8-14.6-11.6c-1.5-0.2-5,2.8-4.9,4C633.3,334.2,639.6,336.7,646,338.4z"/>
<path class="st2" d="M744,613.6l-1,0.9c-1.4-2,1.4-6.7-4-6c0.2-0.9,0.4-1.7,0.6-2.6c5.1-5.2,9.8-11,15.5-15.6
	c3.4-2.7,3.2,0.6,2.4,2.9s-1.7,4.4-2.5,6.5c-1.8,2.3-3.6,4.5-5.4,6.7c-0.3,0.9-0.7,1.7-1.1,2.6l-0.2,0.2l-0.9,0.9l-0.1,0.1l-1.1,1
	l-1,1.1L744,613.6z"/>
<path class="st4" d="M739.6,605.9c-0.2,0.9-0.4,1.7-0.6,2.6l-3.5,5.3l-5.8-1.3l1-3.7c0.4-1,0.9-2,1.3-3v0.1
	c3.8-6.4,7.6-12.7,11.5-19.1c0.6-1.2,1.2-2.5,1.8-3.7c1.8-3.4,3.5-6.8,5.3-10.1c5.1,11.2-9.5,15-9.1,24.6
	C741.4,600.4,740.2,603.2,739.6,605.9z"/>
<path class="st4" d="M749.5,606.5c1.8-2.2,3.6-4.5,5.4-6.7c-1,6.2,4.4,14-4.6,18.2l-1.1-8.9L749.5,606.5z"/>
<path class="st2" d="M555.6,425.6c-0.4-11.1,4.7-13.7,10.4-13.4c6.8,0.3,13.4,4.7,13.1,11.4c-0.3,4.8-6.3,13.4-9.3,13.2
	C562.3,436.2,556.1,430.7,555.6,425.6z M569.1,420.9l3.8-2c-2.5-1.5-4.9-4-7.6-4.4c-4-0.7-8.5,2.2-7.2,6
	C561.4,429.8,565.1,415.1,569.1,420.9L569.1,420.9z"/>
<path class="st3" d="M577.4,441.7c1-2,1.9-4,2.9-6.1c11.9-3.6,12.6,15.5,24.5,12c-9.5,13.5-9.1,13.3-16.1,1.2
	c-1.1-1.9-6.8-1.2-10.5-1.7C577.9,445.3,577.6,443.5,577.4,441.7z"/>
<path class="st6" d="M400.5,469.6c3.7-4.1,7.3-8.1,11-12.2c8.3-2,13,0.3,11.4,9.8l-3.6,3.7c-0.2,0.2-0.4,0.4-0.5,0.7l-1.5,1.6
	c-0.2,0.3-0.4,0.5-0.6,0.8l-7.5,5.6L400.5,469.6z"/>
<path class="st2" d="M540.3,394c0.8-5.3,4.8-4.2,8-3.6c7.8,1.6,12.2,6.7,9.7,14.4c-1.6,5-5.9,9.1-8.9,13.6
	c-5.2-4.3-10.6-8.3-15.4-13c-0.7-0.7,1.4-4.3,2.2-6.6c0.1,3.7-0.4,8.2,5.1,7.5c4.6-0.5,11.2-0.5,10.2-7.6
	C550.4,393.1,544.8,393.6,540.3,394z"/>
<path class="st3" d="M425,484.9c3-5,6.8-9.2,13.3-8.5c1.7,0.2,4.2,2.1,4.6,3.6c1.4,6-3.4,9-7.1,12.4l-2,2.1
	c-0.1,0.2-0.3,0.2-0.5,0.3l-3,2l0,0l-2.5,2.2l-0.3,0.2C426.7,494.5,425.9,489.7,425,484.9z"/>
<path class="st4" d="M727.6,616.9c-1.3,2.6-2.7,5.2-4,7.8c-8.5-3-11.2-11.1-15.5-17.6c-0.5-0.7,1.1-4.1,1.8-4.2
	c5.7-0.1,8.6,3.6,10.8,8.4C722,614.1,720.6,621.1,727.6,616.9z"/>
<path class="st2" d="M531.8,393.1c-2.5-7.8-20.2,2.7-16-13.2c0.2,0.1,0.3,0.3,0.5,0.4c0.9,2.5-0.1,7.4,4.8,5.1
	c2.8-1.3,4.7-4.8,7-7.2l-7.4-2.4l-0.4-0.5c2.5-4.7,7-4.3,9.5-1.6c4.4,4.7,13.5,8.3,6.9,17.5c-1.1-2.7-2.2-5.5-3.5-8.2
	c-0.1-0.2-3.1,0.6-3,0.8C530.5,387,531.2,390,531.8,393.1z"/>
<path class="st2" d="M465.8,515c-1.3-2.6-2.7-5.1-4-7.7c0.1-0.4,0.3-0.8,0.4-1.2l5.2,0.9c-0.4-1.6-1.1-3.1-1.8-4.6
	c-5.4-7.7-12.2-12.1-22-8.8l-0.3-0.4c4.4-6.6,10.3-3.9,15-1.5c8.1,4.2,16,9.6,13.9,20.7C471.9,513.7,468,514.2,465.8,515z"/>
<path class="st4" d="M351.9,420.1c-5,0.8-10.9,2.6-12.8-4.3c-1.6-5.9,3.9-6.7,7.8-8.3c6.3-0.9,6.9,3.5,7.5,8l-1,3
	c-0.2,0.2-0.4,0.4-0.5,0.6l-0.3,0.3C352.3,419.6,352.1,419.8,351.9,420.1z"/>
<path class="st3" d="M540.3,394c4.5-0.4,10.1-0.9,10.9,4.8c1,7.1-5.7,7.1-10.2,7.6c-5.5,0.7-5.1-3.9-5.1-7.5l1.1-1.2l1.2-2l0,0
	l1.5-1.4C539.9,394.1,540.1,394,540.3,394z"/>
<path class="st5" d="M425,484.9c0.8,4.8,1.6,9.6,2.5,14.4c-0.2,0.5-0.5,1-0.7,1.5c-0.2,0-0.5,0.1-0.5,0.4c0,0,0,0,0,0l-2.5,1.5
	c-6.1-1.9-10.2-5.5-10.2-12.4l3.7-0.8l1.8-0.8l1.9-1.2c0.2-0.1,0.2-0.4,0.1-0.5L425,484.9z"/>
<path class="st2" d="M410.4,447.4c-0.8,2.1-1.7,4.2-2.5,6.4c-7.6-14.6-15.8-28.5-35.8-25.8l-2,0.1l1.8-3
	C392.1,419.9,398.5,438.4,410.4,447.4z"/>
<path class="st4" d="M471.6,252.5l7.2-8.8l0,0l2.8-2.3l1.3-1.8c0.3-0.3,0.7-0.6,1-0.9l1.4-1.3c0.2-0.2,0.3-0.5,0.2-0.8l4.3-5.9
	l7.3,1.9L471.6,252.5z"/>
<path class="st2" d="M604.7,447.6c-11.8,3.5-12.6-15.6-24.5-12c2-1.8,4.8-5.6,5.9-5.2c2.8,1.1,7,4.4,6.7,6.3
	C591.6,446.7,606.7,437.8,604.7,447.6z"/>
<path class="st5" d="M364.3,425.6c-8.8,5.1-3.7-8.6-9.8-7.2v-0.2l5.7-7.3l1.8,1.1C362.7,416.5,363.5,421.1,364.3,425.6z"/>
<path class="st2" d="M362,412l-1.8-1.1c4.1-5.6,9.1-3.3,12.7-0.3c3.4,2.7,3.7,7.2,0.1,10.8c-0.9-0.4-1.8-0.8-2.6-1.1l0.5-2.4
	l1.8-1.7l-1.9-1.8l-0.8-1.3l-1.2-1.1L362,412z"/>
<path class="st4" d="M496.9,232.7l9.9,3.1l0.7,0.9c0.2,0,0.4,0.2,0.4,0.4c-1.4,2.2-2.8,4.4-4.2,6.6L496.9,232.7z"/>
<path class="st3" d="M531.8,393.1c-0.6-3.1-1.3-6.2-1.8-9.2c0-0.1,2.9-1,3-0.8c1.3,2.6,2.3,5.4,3.5,8.2c-0.2,0.2-0.3,0.4-0.5,0.7
	h-0.5v0.5c-0.2,0.1-0.5,0.3-0.6,0.5l-1.2,0.4L531.8,393.1z"/>
<path class="st2" d="M443,507.9c-0.9-4.5-1.8-9-2.7-13.4l2.9-1.3l0.3,0.4L443,507.9z"/>
<path class="st2" d="M577.4,441.7c0.2,1.8,0.5,3.7,0.7,5.5C573.9,445.8,573.2,444.1,577.4,441.7z"/>
<path class="st7" d="M419.3,470.9l3.6-3.7L419.3,470.9z"/>
<path class="st5" d="M430.3,496.9l3-2L430.3,496.9z"/>
<path class="st2" d="M731.9,605.9c-0.4,1-0.9,2-1.3,3L731.9,605.9z"/>
<path class="st5" d="M427.8,499.1l2.5-2.2L427.8,499.1z"/>
<path class="st7" d="M417.3,473.2l1.5-1.6L417.3,473.2z"/>
<path class="st5" d="M433.9,494.6l2-2.1L433.9,494.6z"/>
<path class="st2" d="M518,377.5l2.2-2.2l0.4,0.5l-2.2,2.2L518,377.5z"/>
<path class="st2" d="M515.8,379.9l2.2-2.4l0.4,0.5c-0.7,0.8-1.4,1.5-2.1,2.3C516.1,380.2,516,380,515.8,379.9z"/>
<path class="st8" d="M354.5,418.2v0.2l-0.5,0.1h-0.5l1-3C354.5,416.4,354.5,417.3,354.5,418.2z"/>
<path class="st7" d="M421.2,486.9c0.1,0.2,0,0.4-0.1,0.5c-0.1-0.2-0.1-0.4-0.2-0.5H421.2z"/>
<path class="st2" d="M538.1,395.6l-1.2,2L538.1,395.6z"/>
<path class="st2" d="M539.7,394.2l-1.5,1.4L539.7,394.2z"/>
<path class="st7" d="M419.2,488.6l-1.8,0.8L419.2,488.6z"/>
<path class="st7" d="M426.3,501.2c0-0.2,0.3-0.4,0.5-0.4c0,0,0,0,0,0C426.8,501,426.6,501.2,426.3,501.2z"/>
<path class="st2" d="M533.7,393.4l1.2-0.4L533.7,393.4z"/>
<path class="st2" d="M535.6,392.5V392h0.5C535.9,392.2,535.8,392.4,535.6,392.5z"/>
<path class="st4" d="M577.8,617.4l-1.7-0.5L577.8,617.4z"/>
<path class="st1" d="M512.8,303.2c14.9,0.8,36.1,0.4,53.1,15.2c1,0.8,2.3,2.5,2,3.3c-3.9,10-8,19.8-12.1,29.7
	c-2.9-1.5-6-2.8-8.7-4.7c-16.6-12-31-27.7-52.6-31.7c-0.9-0.2-2.4-2.4-2.1-2.9C495.6,306.4,499.2,301.1,512.8,303.2z"/>
<path class="st3" d="M475.7,299.2c3.6-14.1,4.8-30.3,12.3-42.8c3.8-6.5,1,7.9,6.6,8.8c1.8,0.3,3.3,1.9,5,2.6c5.1,2.1,1.6-16,9.3-4.8
	c6.9,10.1,9.2,21.6-5,29.9c-8.4,5-15.7,11.9-23.5,18c-0.4,0.3-0.9,0.5-1.3,0.6L475.7,299.2z"/>
<path class="st1" d="M724.6,532.8c-0.9-1.4-1.9-2.2-1.8-2.8c0.3-1.1,1.3-2,2-2.9c0.8,0.8,2.2,1.6,2.2,2.4S725.7,531.3,724.6,532.8z"
	/>
<path class="st1" d="M507.6,236.6l-0.7-0.9L507.6,236.6z"/>
<path class="st2" d="M325.6,258l6.1,0.8c-20,6.7-4.6,18.2-1.5,24.8c7.4,15.8-5.1,15.6-12.8,19.9c17-12.3,0.7-27.6,3.1-41.4
	c0.3-1.7-14,1.7-9.1-9.6C312.8,262.8,319.6,259.4,325.6,258z"/>
<path class="st2" d="M350.8,263.7c0.8,0.8,1.5,1.6,2.1,2.5c-3,3.5-6.3,6.9-9.8,10c-0.4,0.3-4.6-2.3-4.4-3.2
	C339.6,267,343.1,263.6,350.8,263.7z"/>
<path class="st2" d="M314.6,306c0.9-0.8,1.8-1.7,2.7-2.5L314.6,306z"/>
<path class="st2" d="M313.6,306.8c0.1-0.2,0.3-0.4,0.5-0.5L313.6,306.8z"/>
<path class="st3" d="M372.1,427.9c20-2.6,28.2,11.2,35.8,25.8L395,465.4l-7.8-8c2.5-5.4,7.5-10.8-0.3-16l-2.2-1.5l-5.1-1.6l-1.8,0.2
	l-2.5,0.4l-8-7.8l1.9-1.8L372.1,427.9z"/>
<path class="st4" d="M386.2,452.4c-0.3,0.2-2.2,2.5-3.8,2.4c-4-0.3-9.4,0.3-9.3-6.4c0.1-4,1.8-6.7,6.2-6.5
	C384.7,442,387.4,444.7,386.2,452.4z"/>
<path class="st5" d="M387.2,457.4l7.8,8.1c-2.9,1.8-6.9,5.7-8.6,4.9c-3.1-1.5-4.9-5.8-7.2-8.9L387.2,457.4z"/>
<path class="st5" d="M367.2,431.2l8,7.8c-4.5,1.1-5.5,12.2-11.9,5.4C360.2,441.1,362.1,434.5,367.2,431.2z"/>
<path class="st6" d="M362,412l6.8,0.1l1.2,1.1c0.2,0.4,0.5,0.8,0.8,1.3c0,1.2,0,2.3,0,3.5l-0.5,2.4l-3.2,3l-2.3,1.8
	c-0.2,0.2-0.3,0.3-0.5,0.5C363.5,421.1,362.7,416.5,362,412z"/>
<path class="st5" d="M400.5,469.6l8.7,10l-4.4,6.9c-2.3-2.3-5.9-4.4-6.6-7.1S399.6,472.9,400.5,469.6z"/>
<path class="st5" d="M372.1,427.9l-3,1.5c0.3-0.5,0.7-0.9,1-1.4C370.8,428,371.5,428,372.1,427.9z"/>
<path class="st5" d="M364.8,425.2l2.3-1.8L364.8,425.2z"/>
<path class="st5" d="M377.7,438.5l1.8-0.2L377.7,438.5z"/>
<path class="st5" d="M384.7,439.8l2.2,1.5L384.7,439.8z"/>
<path class="st8" d="M352.6,419.4c0,0,0.3-0.3,0.3-0.3L352.6,419.4z"/>
<path class="st4" d="M337.3,392.5l-0.7,2.4l-2,0.6c-8.1-5.8-7.8-15.6,0.7-20.9C336,380.6,336.6,386.6,337.3,392.5z"/>
<path class="st3" d="M443,507.9l0.5-14.3c9.8-3.3,16.6,1,22,8.8c0.8,1.4,1.4,3,1.9,4.6l-5.2-0.9l-4.3-2.4l-3.5,0.1l-6.4,11.9
	c-0.2-0.5-0.5-0.9-0.7-1.4c0.3-1.5,0.6-2.9,0.9-4.4l-2.6,1.8L443,507.9z"/>
<path class="st5" d="M445.8,511.7l2.6-1.8c-0.3,1.5-0.6,2.9-0.9,4.4L445.8,511.7z"/>
<path class="st5" d="M468.6,235.9l-2.7,0.2L468.6,235.9z"/>
<path class="st3" d="M348.1,367.5c-1.3,0.4-4.1,1.3-7,1.8c-0.5,0.1-2-1.8-1.8-2.2c1.5-2.9,3.2-5.7,4.9-8.5
	C344.9,360,345.5,361.4,348.1,367.5z"/>
<path class="st5" d="M458,503.7l4.3,2.4c-0.1,0.4-0.3,0.8-0.4,1.2C460.6,506.1,459.3,504.9,458,503.7z"/>
<polygon class="st5" points="455.2,234.9 455.1,234.9 455.1,234.6 "/>
<path class="st3" d="M151.6,222.9c0.8-5.7,1.7-11.4,2.5-17.1l14-0.4c0.1,0.3,0.3,0.6,0.5,0.9l3.1,9.8c-0.6,1.4-1.2,2.8-1.8,4.2
	L151.6,222.9z M160.8,209c-1.8,1.8-3.6,3.8-5.2,5.8c-0.2,0.4,1,1.8,1.6,2.8l7.5-6.6L160.8,209z"/>
<path class="st2" d="M194.5,154.4c-1,12-2,23.9-3.1,35.9c-0.1,0.8-1.3,1.4-2,2.2c-2.7-5.5-5.3-11.1-8-16.6L194.5,154.4z"/>
<path class="st4" d="M173,180.4c4.4,10.3,8.5,19.1,11.4,28.3c0.4,1.2-5.4,4.4-8.3,6.6c-2.5-9.7-5.1-19.3-7.3-29.1
	C168.6,185,171,183.1,173,180.4z"/>
<path class="st2" d="M197.6,140.8l-2.5-27.6c-3.2-6-4.3-13.6-12-16.4c1.3-3.6,2.6-7.2,3.9-10.8l9.7-3c-19.9,11.3,1.6,19.7,1.9,29.5
	C199,122,198,131.4,197.6,140.8z"/>
<path class="st3" d="M192,212.8c6.6,0.6,10.5,2.4,9.9,7.4c-0.4,2.8-3.5,5.2-5.3,7.8c-1.2-0.9-3.3-1.7-3.5-2.8
	C192.3,221.2,192.3,217.1,192,212.8z"/>
<path class="st2" d="M168.2,205.5l-14,0.4c1-6.8,2-13.6,3.1-20.4l4.6,0.5C161.9,193.2,160.7,200.7,168.2,205.5z"/>
<path class="st2" d="M171.8,216.1l-3.1-9.8L171.8,216.1z"/>
<path class="st2" d="M197.1,82.8l8.8-6.4L197.1,82.8z"/>
<path class="st7" d="M735.4,613.8l3.5-5.3c5.4-0.7,2.7,4.1,4,6.1l-8.5,7C734.8,619,735.1,616.4,735.4,613.8z"/>
<path class="st7" d="M749.5,606.5l-0.2,2.5l-0.4,0.1h-0.4C748.8,608.2,749.1,607.4,749.5,606.5z"/>
<path class="st7" d="M747.3,610.2l0.9-0.9L747.3,610.2z"/>
<path class="st7" d="M746.1,611.4l1.1-1.1L746.1,611.4z"/>
<path class="st7" d="M744,613.6l1.1-1.1L744,613.6z"/>
<path class="st3" d="M913.8,647.6c-0.1-0.3-0.2-0.5-0.4-0.8l-0.1-1.3l0,0c-1-3-1.9-5.9-2.9-8.9l-0.2-0.4c-0.3-2.9-0.6-5.8-0.9-8.7
	c6.4,0.4,6.1,5.6,7.2,9.9c3.3,13.4,6.8,26.7,10.1,40.1c0.4,1.6,0,3.3-0.1,5c-1-1.4-1.8-3-2.5-4.6
	C920.6,667.9,917.2,657.7,913.8,647.6z"/>
<path class="st3" d="M941.1,728.1c-4.4,1.6-7.9,0.5-8.6-4.3c-0.3-1.9,1.8-6,2.6-5.9c5.7,0.3,3.1,4.6,3.4,7.8c0.1,0.7,1.5,1.4,2.3,2
	L941.1,728.1z"/>
<path class="st3" d="M885.3,689.2c-0.2-4.8,2.3-7.1,6.7-7.6c0.8-0.1,1.7,1.6,2.6,2.5c-5.6,3.9,5.3,11.4-2.4,13.7
	C888.6,698.8,885,694.2,885.3,689.2z"/>
<path class="st1" d="M912.5,778.4c-3.7,0.2-3.8-1.6-2.3-4.3L912.5,778.4z"/>
<path class="st1" d="M909.3,771.8l-2-3.4L909.3,771.8z"/>
<path class="st1" d="M906,767.4c-0.3-0.7-0.7-1.4-1-2.1C905.4,765.9,905.7,766.6,906,767.4z"/>
<path class="st5" d="M944.7,614.3c3.6,2.5,10.3,2,8.9,9.3c-4.9-4.7-9.5-8.1-11.6,2.2c-0.4-0.6-1.1-1.2-1.1-1.9
	c-0.2-2.2,0-4.4-0.2-6.5c-0.3-3-0.9-6.1-1.4-9.1l0.5-0.2l3,4.1L944.7,614.3z"/>
<path class="st1" d="M933.5,630.1l-2.5-2.2L933.5,630.1z"/>
<path class="st5" d="M953.6,625.7c0,0.7,0.1,1.4,0.1,2.1C953.7,627.1,953.6,626.4,953.6,625.7z"/>
<polygon class="st3" points="971.5,691.5 971.1,691.3 971.5,691.5 "/>
<path class="st4" d="M959.2,636c-7.9-37.6,9,2,11.3-3.6c0,0.7,0,1.4,0,2C967.8,642.6,963.2,637.4,959.2,636z"/>
<path class="st5" d="M970.5,634.4c0-0.7,0-1.4,0-2l1.2-2.2c0.7,1.8,1.5,3.5,2.2,5.3L970.5,634.4z"/>
<path class="st1" d="M942.7,612.2l-3-4.1c0-0.8,0-1.5,0.1-2.2L942.7,612.2z"/>
<path class="st1" d="M939.8,605.8l-1.3-1.1L939.8,605.8z"/>
<path class="st2" d="M910.5,636.6c1,3,1.9,5.9,2.9,8.9C912.4,642.5,911.4,639.6,910.5,636.6z"/>
<path class="st2" d="M913.3,645.5l0.1,1.3L913.3,645.5z"/>
<path class="st2" d="M583.3,360.1c3.2-21.4,14.5-35.5,36-40.2c2.2-0.5,5.1,1.7,7.6,2.7c-1.8,1.6-3.4,4.1-5.5,4.7
	c-19.9,5.6-33.6,16.2-33.7,38.9c0,2.3-1.5,4.7-2.3,7C584.7,368.8,584,364.4,583.3,360.1z"/>
<path class="st2" d="M646,338.4c-6.4-1.7-12.7-4.1-13.8-12c-0.2-1.2,3.3-4.1,4.9-4c7.1,0.8,12.9,4,14.6,11.6
	C652.6,338.2,649.8,338.9,646,338.4z"/>
<path class="st3" d="M602.6,468.4c-2.2-6.5,2.2-9.4,6.9-11.7c0.6-0.3,3.2,1.5,3.5,2.8c2.5,9-4.3,8.6-9.9,9.5
	C602.8,468.8,602.6,468.6,602.6,468.4z"/>
<path class="st3" d="M569.1,420.9c-4-5.7-7.7,9-10.9-0.4c-1.3-3.8,3.2-6.7,7.2-6c2.7,0.4,5,2.9,7.6,4.4L569.1,420.9z"/>
<path class="st3" d="M516.3,380.4c0.7-0.8,1.4-1.5,2.1-2.3l2.2-2.2l7.4,2.4c-2.3,2.5-4.1,5.9-7,7.2
	C516.2,387.7,517.1,382.8,516.3,380.4z"/>
<path class="st5" d="M483.8,238.8l1.4-1.3L483.8,238.8z"/>
<path class="st5" d="M370.9,417.9c0-1.2,0-2.3,0-3.5l1.9,1.8L370.9,417.9z"/>
<path class="st5" d="M370,413.2l-1.2-1.1L370,413.2z"/>
<path class="st2" d="M160.8,209l3.9,1.9l-7.5,6.6c-0.6-1-1.9-2.5-1.6-2.8C157.3,212.7,159,210.8,160.8,209z"/>
</svg>
