<?xml version="1.0" encoding="utf-8"?>
<!-- Generator: Adobe Illustrator 25.1.0, SVG Export Plug-In . SVG Version: 6.00 Build 0)  -->
<svg version="1.1" id="Calque_1" xmlns="http://www.w3.org/2000/svg" xmlns:xlink="http://www.w3.org/1999/xlink" x="0px" y="0px"
	 viewBox="0 0 297.6 297.6" style="enable-background:new 0 0 297.6 297.6;" xml:space="preserve">
<style type="text/css">
	.st0{fill:#CDD9ED;}
	.st1{fill:url(#SVGID_1_);}
	.st2{fill:url(#SVGID_2_);}
	.st3{fill:url(#SVGID_3_);}
	.st4{fill:url(#SVGID_4_);}
	.st5{fill:url(#SVGID_5_);}
	.st6{fill:url(#SVGID_6_);}
	.st7{fill:url(#SVGID_7_);}
	.st8{fill:url(#SVGID_8_);}
	.st9{fill:url(#SVGID_9_);}
	.st10{fill:url(#SVGID_10_);}
	.st11{fill:url(#SVGID_11_);}
	.st12{fill:url(#SVGID_12_);}
	.st13{fill:url(#SVGID_13_);}
	.st14{fill:url(#SVGID_14_);}
	.st15{fill:url(#SVGID_15_);}
	.st16{fill:url(#SVGID_16_);}
	.st17{fill:url(#SVGID_17_);}
	.st18{fill:url(#SVGID_18_);}
	.st19{fill:url(#SVGID_19_);}
	.st20{fill:url(#SVGID_20_);}
	.st21{fill:url(#SVGID_21_);}
	.st22{fill:url(#SVGID_22_);}
	.st23{fill:url(#SVGID_23_);}
	.st24{fill:url(#SVGID_24_);}
	.st25{fill:url(#SVGID_25_);}
	.st26{fill:url(#SVGID_26_);}
	.st27{fill:url(#SVGID_27_);}
	.st28{fill:url(#SVGID_28_);}
	.st29{fill:url(#SVGID_29_);}
	.st30{fill:url(#SVGID_30_);}
	.st31{fill:url(#SVGID_31_);}
	.st32{fill:url(#SVGID_32_);}
	.st33{fill:#D1A717;}
	.st34{fill:#E4C77D;}
	.st35{fill:#F6F6F6;}
	.st36{fill:#E99F15;}
	.st37{fill:#E6BA22;}
	.st38{fill:#E3D1AB;}
	.st39{fill:#CA5E1A;}
	.st40{fill:#D4A95C;}
	.st41{fill:#D4871E;}
	.st42{fill:#E9CC39;}
	.st43{fill:#918148;}
	.st44{fill:#A49F98;}
	.st45{fill:#DAD7D8;}
	.st46{fill:#4E4B4C;}
	.st47{fill:#AAC6E6;}
</style>
<g id="Calque_2_2_">
	<rect x="83.4" y="7.1" class="st0" width="135.4" height="280.3"/>
	<g id="Calque_2_1_">
		
			<linearGradient id="SVGID_1_" gradientUnits="userSpaceOnUse" x1="151.1301" y1="-219.7882" x2="151.1301" y2="-212.8129" gradientTransform="matrix(1 0 0 1 0 226.89)">
			<stop  offset="0" style="stop-color:#FFFFFF"/>
			<stop  offset="0.16" style="stop-color:#CDD9ED"/>
			<stop  offset="0.46" style="stop-color:#7094CD"/>
			<stop  offset="0.78" style="stop-color:#4B76B9"/>
			<stop  offset="1" style="stop-color:#3565AE"/>
		</linearGradient>
		<rect x="83.5" y="7.1" class="st1" width="135.2" height="7"/>
		
			<linearGradient id="SVGID_2_" gradientUnits="userSpaceOnUse" x1="151.2375" y1="-212.6197" x2="151.2375" y2="-205.6443" gradientTransform="matrix(1 0 0 1 0 226.89)">
			<stop  offset="0" style="stop-color:#FFFFFF"/>
			<stop  offset="0.16" style="stop-color:#CDD9ED"/>
			<stop  offset="0.46" style="stop-color:#7094CD"/>
			<stop  offset="0.78" style="stop-color:#4B76B9"/>
			<stop  offset="1" style="stop-color:#3565AE"/>
		</linearGradient>
		<rect x="83.7" y="14.3" class="st2" width="135.2" height="7"/>
		
			<linearGradient id="SVGID_3_" gradientUnits="userSpaceOnUse" x1="151.0228" y1="-205.7034" x2="151.0228" y2="-198.7281" gradientTransform="matrix(1 0 0 1 0 226.89)">
			<stop  offset="0" style="stop-color:#FFFFFF"/>
			<stop  offset="0.16" style="stop-color:#CDD9ED"/>
			<stop  offset="0.46" style="stop-color:#7094CD"/>
			<stop  offset="0.78" style="stop-color:#4B76B9"/>
			<stop  offset="1" style="stop-color:#3565AE"/>
		</linearGradient>
		<rect x="83.4" y="21.2" class="st3" width="135.2" height="7"/>
		
			<linearGradient id="SVGID_4_" gradientUnits="userSpaceOnUse" x1="151.1301" y1="-198.5403" x2="151.1301" y2="-191.5649" gradientTransform="matrix(1 0 0 1 0 226.89)">
			<stop  offset="0" style="stop-color:#FFFFFF"/>
			<stop  offset="0.16" style="stop-color:#CDD9ED"/>
			<stop  offset="0.46" style="stop-color:#7094CD"/>
			<stop  offset="0.78" style="stop-color:#4B76B9"/>
			<stop  offset="1" style="stop-color:#3565AE"/>
		</linearGradient>
		<rect x="83.5" y="28.3" class="st4" width="135.2" height="7"/>
		
			<linearGradient id="SVGID_5_" gradientUnits="userSpaceOnUse" x1="151.1301" y1="-191.2001" x2="151.1301" y2="-184.2247" gradientTransform="matrix(1 0 0 1 0 226.89)">
			<stop  offset="0" style="stop-color:#FFFFFF"/>
			<stop  offset="0.16" style="stop-color:#CDD9ED"/>
			<stop  offset="0.46" style="stop-color:#7094CD"/>
			<stop  offset="0.78" style="stop-color:#4B76B9"/>
			<stop  offset="1" style="stop-color:#3565AE"/>
		</linearGradient>
		<rect x="83.5" y="35.7" class="st5" width="135.2" height="7"/>
		
			<linearGradient id="SVGID_6_" gradientUnits="userSpaceOnUse" x1="151.2375" y1="-184.0316" x2="151.2375" y2="-177.0563" gradientTransform="matrix(1 0 0 1 0 226.89)">
			<stop  offset="0" style="stop-color:#FFFFFF"/>
			<stop  offset="0.16" style="stop-color:#CDD9ED"/>
			<stop  offset="0.46" style="stop-color:#7094CD"/>
			<stop  offset="0.78" style="stop-color:#4B76B9"/>
			<stop  offset="1" style="stop-color:#3565AE"/>
		</linearGradient>
		<rect x="83.7" y="42.8" class="st6" width="135.2" height="7"/>
		
			<linearGradient id="SVGID_7_" gradientUnits="userSpaceOnUse" x1="150.996" y1="246.4631" x2="150.996" y2="239.4878" gradientTransform="matrix(1 0 0 -1 0 296.2378)">
			<stop  offset="0" style="stop-color:#FFFFFF"/>
			<stop  offset="0.16" style="stop-color:#CDD9ED"/>
			<stop  offset="0.46" style="stop-color:#7094CD"/>
			<stop  offset="0.78" style="stop-color:#4B76B9"/>
			<stop  offset="1" style="stop-color:#3565AE"/>
		</linearGradient>
		<rect x="83.4" y="49.8" class="st7" width="135.1" height="7"/>
		
			<linearGradient id="SVGID_8_" gradientUnits="userSpaceOnUse" x1="151.0765" y1="-169.9414" x2="151.0765" y2="-162.9661" gradientTransform="matrix(1 0 0 1 0 226.89)">
			<stop  offset="0" style="stop-color:#FFFFFF"/>
			<stop  offset="0.16" style="stop-color:#CDD9ED"/>
			<stop  offset="0.46" style="stop-color:#7094CD"/>
			<stop  offset="0.78" style="stop-color:#4B76B9"/>
			<stop  offset="1" style="stop-color:#3565AE"/>
		</linearGradient>
		<rect x="83.5" y="56.9" class="st8" width="135.2" height="7"/>
		
			<linearGradient id="SVGID_9_" gradientUnits="userSpaceOnUse" x1="151.1301" y1="-163.1378" x2="151.1301" y2="-156.1625" gradientTransform="matrix(1 0 0 1 0 226.89)">
			<stop  offset="0" style="stop-color:#FFFFFF"/>
			<stop  offset="0.16" style="stop-color:#CDD9ED"/>
			<stop  offset="0.46" style="stop-color:#7094CD"/>
			<stop  offset="0.78" style="stop-color:#4B76B9"/>
			<stop  offset="1" style="stop-color:#3565AE"/>
		</linearGradient>
		<rect x="83.5" y="63.8" class="st9" width="135.2" height="7"/>
		
			<linearGradient id="SVGID_10_" gradientUnits="userSpaceOnUse" x1="151.2375" y1="-155.9693" x2="151.2375" y2="-148.994" gradientTransform="matrix(1 0 0 1 0 226.89)">
			<stop  offset="0" style="stop-color:#FFFFFF"/>
			<stop  offset="0.16" style="stop-color:#CDD9ED"/>
			<stop  offset="0.46" style="stop-color:#7094CD"/>
			<stop  offset="0.78" style="stop-color:#4B76B9"/>
			<stop  offset="1" style="stop-color:#3565AE"/>
		</linearGradient>
		<rect x="83.7" y="70.9" class="st10" width="135.2" height="7"/>
		
			<linearGradient id="SVGID_11_" gradientUnits="userSpaceOnUse" x1="151.0228" y1="218.4008" x2="151.0228" y2="211.4255" gradientTransform="matrix(1 0 0 -1 0 296.2378)">
			<stop  offset="0" style="stop-color:#FFFFFF"/>
			<stop  offset="0.16" style="stop-color:#CDD9ED"/>
			<stop  offset="0.46" style="stop-color:#7094CD"/>
			<stop  offset="0.78" style="stop-color:#4B76B9"/>
			<stop  offset="1" style="stop-color:#3565AE"/>
		</linearGradient>
		<rect x="83.4" y="77.8" class="st11" width="135.2" height="7"/>
		
			<linearGradient id="SVGID_12_" gradientUnits="userSpaceOnUse" x1="151.0765" y1="-141.8792" x2="151.0765" y2="-134.9039" gradientTransform="matrix(1 0 0 1 0 226.89)">
			<stop  offset="0" style="stop-color:#FFFFFF"/>
			<stop  offset="0.16" style="stop-color:#CDD9ED"/>
			<stop  offset="0.46" style="stop-color:#7094CD"/>
			<stop  offset="0.78" style="stop-color:#4B76B9"/>
			<stop  offset="1" style="stop-color:#3565AE"/>
		</linearGradient>
		<rect x="83.5" y="85" class="st12" width="135.2" height="7"/>
		
			<linearGradient id="SVGID_13_" gradientUnits="userSpaceOnUse" x1="151.0765" y1="-134.5497" x2="151.0765" y2="-127.5744" gradientTransform="matrix(1 0 0 1 0 226.89)">
			<stop  offset="0" style="stop-color:#FFFFFF"/>
			<stop  offset="0.16" style="stop-color:#CDD9ED"/>
			<stop  offset="0.46" style="stop-color:#7094CD"/>
			<stop  offset="0.78" style="stop-color:#4B76B9"/>
			<stop  offset="1" style="stop-color:#3565AE"/>
		</linearGradient>
		<rect x="83.5" y="92.4" class="st13" width="135.2" height="7"/>
		
			<linearGradient id="SVGID_14_" gradientUnits="userSpaceOnUse" x1="151.1838" y1="-127.3759" x2="151.1838" y2="-120.4005" gradientTransform="matrix(1 0 0 1 0 226.89)">
			<stop  offset="0" style="stop-color:#FFFFFF"/>
			<stop  offset="0.16" style="stop-color:#CDD9ED"/>
			<stop  offset="0.46" style="stop-color:#7094CD"/>
			<stop  offset="0.78" style="stop-color:#4B76B9"/>
			<stop  offset="1" style="stop-color:#3565AE"/>
		</linearGradient>
		<rect x="83.6" y="99.5" class="st14" width="135.2" height="7"/>
		
			<linearGradient id="SVGID_15_" gradientUnits="userSpaceOnUse" x1="150.996" y1="189.8181" x2="150.996" y2="182.8428" gradientTransform="matrix(1 0 0 -1 0 296.2378)">
			<stop  offset="0" style="stop-color:#FFFFFF"/>
			<stop  offset="0.16" style="stop-color:#CDD9ED"/>
			<stop  offset="0.46" style="stop-color:#7094CD"/>
			<stop  offset="0.78" style="stop-color:#4B76B9"/>
			<stop  offset="1" style="stop-color:#3565AE"/>
		</linearGradient>
		<rect x="83.4" y="106.4" class="st15" width="135.1" height="7"/>
		
			<linearGradient id="SVGID_16_" gradientUnits="userSpaceOnUse" x1="151.0765" y1="-113.2964" x2="151.0765" y2="-106.3211" gradientTransform="matrix(1 0 0 1 0 226.89)">
			<stop  offset="0" style="stop-color:#FFFFFF"/>
			<stop  offset="0.16" style="stop-color:#CDD9ED"/>
			<stop  offset="0.46" style="stop-color:#7094CD"/>
			<stop  offset="0.78" style="stop-color:#4B76B9"/>
			<stop  offset="1" style="stop-color:#3565AE"/>
		</linearGradient>
		<rect x="83.5" y="113.6" class="st16" width="135.2" height="7"/>
		
			<linearGradient id="SVGID_17_" gradientUnits="userSpaceOnUse" x1="151.0228" y1="-106.4392" x2="151.0228" y2="-99.4638" gradientTransform="matrix(1 0 0 1 0 226.89)">
			<stop  offset="0" style="stop-color:#FFFFFF"/>
			<stop  offset="0.16" style="stop-color:#CDD9ED"/>
			<stop  offset="0.46" style="stop-color:#7094CD"/>
			<stop  offset="0.78" style="stop-color:#4B76B9"/>
			<stop  offset="1" style="stop-color:#3565AE"/>
		</linearGradient>
		<rect x="83.4" y="120.4" class="st17" width="135.2" height="7"/>
		
			<linearGradient id="SVGID_18_" gradientUnits="userSpaceOnUse" x1="151.1301" y1="-99.276" x2="151.1301" y2="-92.3007" gradientTransform="matrix(1 0 0 1 0 226.89)">
			<stop  offset="0" style="stop-color:#FFFFFF"/>
			<stop  offset="0.16" style="stop-color:#CDD9ED"/>
			<stop  offset="0.46" style="stop-color:#7094CD"/>
			<stop  offset="0.78" style="stop-color:#4B76B9"/>
			<stop  offset="1" style="stop-color:#3565AE"/>
		</linearGradient>
		<rect x="83.5" y="127.6" class="st18" width="135.2" height="7"/>
		
			<linearGradient id="SVGID_19_" gradientUnits="userSpaceOnUse" x1="150.9692" y1="161.7022" x2="150.9692" y2="154.7269" gradientTransform="matrix(1 0 0 -1 0 296.2378)">
			<stop  offset="0" style="stop-color:#FFFFFF"/>
			<stop  offset="0.16" style="stop-color:#CDD9ED"/>
			<stop  offset="0.46" style="stop-color:#7094CD"/>
			<stop  offset="0.78" style="stop-color:#4B76B9"/>
			<stop  offset="1" style="stop-color:#3565AE"/>
		</linearGradient>
		<rect x="83.4" y="134.5" class="st19" width="135.1" height="7"/>
		
			<linearGradient id="SVGID_20_" gradientUnits="userSpaceOnUse" x1="151.0228" y1="154.5391" x2="151.0228" y2="147.5637" gradientTransform="matrix(1 0 0 -1 0 296.2378)">
			<stop  offset="0" style="stop-color:#FFFFFF"/>
			<stop  offset="0.16" style="stop-color:#CDD9ED"/>
			<stop  offset="0.46" style="stop-color:#7094CD"/>
			<stop  offset="0.78" style="stop-color:#4B76B9"/>
			<stop  offset="1" style="stop-color:#3565AE"/>
		</linearGradient>
		<rect x="83.4" y="141.7" class="st20" width="135.2" height="7"/>
		
			<linearGradient id="SVGID_21_" gradientUnits="userSpaceOnUse" x1="151.0228" y1="147.1989" x2="151.0228" y2="140.2236" gradientTransform="matrix(1 0 0 -1 0 296.2378)">
			<stop  offset="0" style="stop-color:#FFFFFF"/>
			<stop  offset="0.16" style="stop-color:#CDD9ED"/>
			<stop  offset="0.46" style="stop-color:#7094CD"/>
			<stop  offset="0.78" style="stop-color:#4B76B9"/>
			<stop  offset="1" style="stop-color:#3565AE"/>
		</linearGradient>
		<rect x="83.4" y="149" class="st21" width="135.2" height="7"/>
		
			<linearGradient id="SVGID_22_" gradientUnits="userSpaceOnUse" x1="151.0765" y1="-70.6772" x2="151.0765" y2="-63.7019" gradientTransform="matrix(1 0 0 1 0 226.89)">
			<stop  offset="0" style="stop-color:#FFFFFF"/>
			<stop  offset="0.16" style="stop-color:#CDD9ED"/>
			<stop  offset="0.46" style="stop-color:#7094CD"/>
			<stop  offset="0.78" style="stop-color:#4B76B9"/>
			<stop  offset="1" style="stop-color:#3565AE"/>
		</linearGradient>
		<rect x="83.5" y="156.2" class="st22" width="135.2" height="7"/>
		
			<linearGradient id="SVGID_23_" gradientUnits="userSpaceOnUse" x1="150.9424" y1="133.1195" x2="150.9424" y2="126.1441" gradientTransform="matrix(1 0 0 -1 0 296.2378)">
			<stop  offset="0" style="stop-color:#FFFFFF"/>
			<stop  offset="0.16" style="stop-color:#CDD9ED"/>
			<stop  offset="0.46" style="stop-color:#7094CD"/>
			<stop  offset="0.78" style="stop-color:#4B76B9"/>
			<stop  offset="1" style="stop-color:#3565AE"/>
		</linearGradient>
		<rect x="83.4" y="163.1" class="st23" width="135" height="7"/>
		
			<linearGradient id="SVGID_24_" gradientUnits="userSpaceOnUse" x1="150.996" y1="125.9456" x2="150.996" y2="118.9649" gradientTransform="matrix(1 0 0 -1 0 296.2378)">
			<stop  offset="0" style="stop-color:#FFFFFF"/>
			<stop  offset="0.16" style="stop-color:#CDD9ED"/>
			<stop  offset="0.46" style="stop-color:#7094CD"/>
			<stop  offset="0.78" style="stop-color:#4B76B9"/>
			<stop  offset="1" style="stop-color:#3565AE"/>
		</linearGradient>
		<polygon class="st24" points="218.5,170.3 218.5,177.3 83.4,177.3 83.4,177.1 83.4,177.1 83.4,170.3 		"/>
		
			<linearGradient id="SVGID_25_" gradientUnits="userSpaceOnUse" x1="151.0228" y1="119.1366" x2="151.0228" y2="112.1613" gradientTransform="matrix(1 0 0 -1 0 296.2378)">
			<stop  offset="0" style="stop-color:#FFFFFF"/>
			<stop  offset="0.16" style="stop-color:#CDD9ED"/>
			<stop  offset="0.46" style="stop-color:#7094CD"/>
			<stop  offset="0.78" style="stop-color:#4B76B9"/>
			<stop  offset="1" style="stop-color:#3565AE"/>
		</linearGradient>
		<rect x="83.4" y="177.1" class="st25" width="135.2" height="7"/>
		
			<linearGradient id="SVGID_26_" gradientUnits="userSpaceOnUse" x1="151.1301" y1="-42.6149" x2="151.1301" y2="-35.6396" gradientTransform="matrix(1 0 0 1 0 226.89)">
			<stop  offset="0" style="stop-color:#FFFFFF"/>
			<stop  offset="0.16" style="stop-color:#CDD9ED"/>
			<stop  offset="0.46" style="stop-color:#7094CD"/>
			<stop  offset="0.78" style="stop-color:#4B76B9"/>
			<stop  offset="1" style="stop-color:#3565AE"/>
		</linearGradient>
		<rect x="83.5" y="184.3" class="st26" width="135.2" height="7"/>
		
			<linearGradient id="SVGID_27_" gradientUnits="userSpaceOnUse" x1="150.9692" y1="105.0572" x2="150.9692" y2="98.0819" gradientTransform="matrix(1 0 0 -1 0 296.2378)">
			<stop  offset="0" style="stop-color:#FFFFFF"/>
			<stop  offset="0.16" style="stop-color:#CDD9ED"/>
			<stop  offset="0.46" style="stop-color:#7094CD"/>
			<stop  offset="0.78" style="stop-color:#4B76B9"/>
			<stop  offset="1" style="stop-color:#3565AE"/>
		</linearGradient>
		<rect x="83.4" y="191.2" class="st27" width="135.1" height="7"/>
		
			<linearGradient id="SVGID_28_" gradientUnits="userSpaceOnUse" x1="150.9692" y1="-28.5355" x2="150.9692" y2="-21.5602" gradientTransform="matrix(1 0 0 1 0 226.89)">
			<stop  offset="0" style="stop-color:#FFFFFF"/>
			<stop  offset="0.16" style="stop-color:#CDD9ED"/>
			<stop  offset="0.46" style="stop-color:#7094CD"/>
			<stop  offset="0.78" style="stop-color:#4B76B9"/>
			<stop  offset="1" style="stop-color:#3565AE"/>
		</linearGradient>
		<rect x="83.4" y="198.3" class="st28" width="135.2" height="7"/>
		
			<linearGradient id="SVGID_29_" gradientUnits="userSpaceOnUse" x1="150.996" y1="90.5539" x2="150.996" y2="83.5786" gradientTransform="matrix(1 0 0 -1 0 296.2378)">
			<stop  offset="0" style="stop-color:#FFFFFF"/>
			<stop  offset="0.16" style="stop-color:#CDD9ED"/>
			<stop  offset="0.46" style="stop-color:#7094CD"/>
			<stop  offset="0.78" style="stop-color:#4B76B9"/>
			<stop  offset="1" style="stop-color:#3565AE"/>
		</linearGradient>
		<rect x="83.4" y="205.7" class="st29" width="135.1" height="7"/>
		
			<linearGradient id="SVGID_30_" gradientUnits="userSpaceOnUse" x1="151.0765" y1="-14.0322" x2="151.0765" y2="-7.0569" gradientTransform="matrix(1 0 0 1 0 226.89)">
			<stop  offset="0" style="stop-color:#FFFFFF"/>
			<stop  offset="0.16" style="stop-color:#CDD9ED"/>
			<stop  offset="0.46" style="stop-color:#7094CD"/>
			<stop  offset="0.78" style="stop-color:#4B76B9"/>
			<stop  offset="1" style="stop-color:#3565AE"/>
		</linearGradient>
		<rect x="83.5" y="212.9" class="st30" width="135.2" height="7"/>
		
			<linearGradient id="SVGID_31_" gradientUnits="userSpaceOnUse" x1="150.9424" y1="76.4637" x2="150.9424" y2="69.4884" gradientTransform="matrix(1 0 0 -1 0 296.2378)">
			<stop  offset="0" style="stop-color:#FFFFFF"/>
			<stop  offset="0.16" style="stop-color:#CDD9ED"/>
			<stop  offset="0.46" style="stop-color:#7094CD"/>
			<stop  offset="0.78" style="stop-color:#4B76B9"/>
			<stop  offset="1" style="stop-color:#3565AE"/>
		</linearGradient>
		<rect x="83.4" y="219.8" class="st31" width="135" height="7"/>
		
			<linearGradient id="SVGID_32_" gradientUnits="userSpaceOnUse" x1="150.996" y1="69.2952" x2="150.996" y2="62.3199" gradientTransform="matrix(1 0 0 -1 0 296.2378)">
			<stop  offset="0" style="stop-color:#FFFFFF"/>
			<stop  offset="0.16" style="stop-color:#CDD9ED"/>
			<stop  offset="0.46" style="stop-color:#7094CD"/>
			<stop  offset="0.78" style="stop-color:#4B76B9"/>
			<stop  offset="1" style="stop-color:#3565AE"/>
		</linearGradient>
		<rect x="83.4" y="226.9" class="st32" width="135.1" height="7"/>
	</g>
</g>
<g id="Calque_4">
	<path class="st33" d="M128.8,187.8l-0.7,25.3L83.4,206v-16.8c2.7-2.7,6.8-6.6,8.2-8.1l5.2-4l2.6-1.8c0,0,24.3-0.4,24.7-0.5
		C124.5,174.6,128.8,187.8,128.8,187.8z"/>
	<rect x="171.7" y="183" class="st34" width="47.2" height="31.6"/>
	<path class="st35" d="M157.4,203.8c-3.1-0.2-28-2-32.8-16.6c-1.2-3.7-0.8-7.4,0.2-14.9c0.4-3,0.8-4.4,1.9-5c2.7-1.4,6,3.8,10.4,2.9
		c2.4-0.5,3.5-2.8,5.8-5.4c3.3-3.6,2.1-6.2,3.9-7c5.3-2.5,18.8,20.2,24.9,17c1.3-0.7,3.1-3.1,3.9-5.3c0.9-2.5,0.3-3.8,1.6-6.3
		c0.4-0.8,1.4-2.8,3.4-3.7c2.5-1.1,5.2,0.2,7.1,1c7.9,3.4,17.1,5.1,21.4,5.6c4.2,0.5,7.6,0.4,9.1,2.8c0.5,0.8,0.6,1.7,0.6,4.3
		c-0.1,3.6-0.3,7.1-0.7,10.7c-0.6,7.1,0.5,9.1-0.8,10c-2,1.3-5.2-2.3-10.1-4.1c-4.5-1.6-9.3-1.3-46.6,14
		C159.4,203.9,158.4,203.9,157.4,203.8z"/>
	<path class="st36" d="M218.9,195.4v92.1H109l0,0l0,0l0.2-1.4l11.6-79.5l0.3-1.7l0.4-2.4l0.1-0.6l0.6-4v-0.1l0.3-2.3h46.9
		c0.1-0.2,0.2-0.3,0.3-0.5l0.8-0.2c0.1,0,0.1,0,0.2,0c0.3-0.3,0.6-0.5,1-0.7c0.1-0.1,0.2-0.1,0.3-0.2c1-0.5,2.1-0.9,3.3-1
		c2-1,4.2-1.6,6.4-1.5c2.3,0.1,4.4,0.7,6.4,1.8c0.5,0.3,1,0.5,1.4,0.9c0.6,0.4,1.2,1,1.7,1.5h27.7V195.4z"/>
	<path class="st33" d="M157.8,197.6V286H88.1c-0.4-0.1-0.8-0.2-1.2-0.2c-0.1-0.1-0.2-0.1-0.3-0.1c-1.7-0.6-2.7-1.6-3.1-2.4v-85.6
		H157.8z"/>
	<rect x="83.4" y="197.7" class="st33" width="51.1" height="89.7"/>
	<path class="st37" d="M187.3,243.9c-2-1.5-4.6-2.3-7.1-2c-2,0.1-4,0.8-5.7,1.9l-0.4-0.1l-0.2-0.7c-1.9,0-1-1.3-1.1-2.3v-0.6
		l-0.4,0.9c-0.2-0.2-0.5-0.3-0.5-0.5c0.1-1.1,0.2-2.3,0.2-3.4c-0.2-1.9-0.5-3.7-0.8-5.6c0,0.3-0.1,0.5-0.1,0.8
		c-0.2-0.1-0.4-0.3-0.4-0.4c0.2-0.3,0.3-0.5,0.5-0.8l0.3-0.3l-4.9,0.3l0.1,0.5c-0.2-0.1-0.6-0.2-0.6-0.3c0.1-0.3,0.1-0.6,0.3-0.9
		c-0.3-0.5-0.5-0.9-0.8-1.3c-0.1,0.3-0.1,0.8-0.2,0.8c-1.7,0.4-0.1,2.5-0.9,2.5c-0.8,0.1-1.3-0.1-1.6-0.2c-1.1-0.7,0.8-2.8-0.1-3.7
		c-0.5,1.4-1,2.8-1.4,4.2l-0.8,5.7c0.3,0.1,0.7,0.1,1,0.2c0.1,0,0.2,0,0.2,0.1c-0.1,0.1-0.1,0.2-0.1,0.3c-0.1,0-0.1,0-0.2,0
		c-0.3,0.1-0.1,0.6-0.2,1c0,0,0,0,0,0.1c-0.1,0.2-0.2,0.3-0.7,0c-0.4,1.3-0.8,2.6-1.1,4c0,0.1,0.3,0.3,0.6,0.5
		c-0.5,1.8-0.9,3.5-1.2,5.4c-0.5,2-1,4-1.3,6c-0.3,1.5-0.5,3-0.6,4.5c-0.1,0.5-0.1,1.1-0.1,1.7c-0.4,1.2-0.8,2.5-1.1,3.8
		c-0.3,1-0.5,1.9-0.7,2.9c-0.3,1.3-0.5,2.6-0.7,3.9c-0.8,2.1-1.2,4.3-1.4,6.5c-0.1,0.5,0.3,0.9,0.6,1.1c0,0.1,0.1,0.1,0.1,0.2
		c0,0,0,0.1,0.1,0.1c0.1,0.1,0.2,0.3,0.3,0.4c0.7,0.6,1.8,0.9,2.8,1c0.1,0.1,0.3,0.2,0.4,0.2c0.1,0.1,0.3,0.3,0.4,0.3
		c0.2,0.1,0.4,0.2,0.6,0.2c0.1,0,0.3-0.1,0.4-0.1c1.8,0.3,3.7,0,5.5,0.1c2.1,0.1,4.2,0.2,6.3,0.1c2.1-0.1,4.1-0.5,6-1.4
		c1.7-1,3.2-2.3,4.2-4c1.1-1.7,1.8-3.5,2.2-5.4c0.3-0.8,0.6-1.5,0.8-2.3c0.7-3.4,0.9-7,1-10.4c0-0.3-0.1-0.6-0.2-0.8
		c0.1-0.5,0.2-1,0.3-1.6c0.2-0.5,0.4-1,0.7-1.4c0.7-1.2,1.6-2.4,2.3-3.6C189.4,249,189.7,245.8,187.3,243.9z"/>
	<path class="st34" d="M170,186.7c-0.1,0.4-0.1,0.7-0.1,1.1c-0.3,2.5-0.6,5-0.9,7.6c-0.2,1.4-0.4,2.8-0.5,4.2
		c-0.1,0.3-0.1,0.7-0.2,1c-0.9,6.1-1.8,12.4-2.9,18.7c-0.7,4.3-1.4,8.5-2.3,12.8c-0.4,2.1-0.8,4.3-1.2,6.4c0,0.1-0.1,0.3-0.1,0.4
		c-0.1,0.3-0.1,0.6-0.2,1c0,0,0,0,0,0.1c-1.2,5.9-2.4,11.8-3.8,17.7c-0.2,0.9-0.4,1.7-0.6,2.6c-0.4,1.8-0.9,3.6-1.3,5.4
		c-0.2,1-0.5,1.9-0.7,2.9c-1,4-2,7.9-3.1,11.9c-0.4,1.6-0.9,3.2-1.3,4.8c-0.1,0.3-0.2,0.6-0.3,0.9c-0.1,0.4-0.2,0.8-0.3,1.2
		c-1.4,0.1-2.8,0.2-4.2,0.3h-0.1h-0.2h-15.8c-0.3,0-0.5,0-0.9,0h-0.1l0,0l0,0l0,0c0.2-0.2,0.8-0.5,1.9-0.9c0.1-0.2,0.3-0.4,0.4-0.5
		c0.1-0.1,0.1-0.1,0.1-0.2l0,0c0.9-1.3,1.7-2.7,2.5-4.1c0.1-0.2,0.2-0.3,0.3-0.5l0,0c0.1-0.2,0.2-0.3,0.2-0.4
		c3.4-6.8,4.7-13.5,5.6-22.4c0.9-8,1.3-12,1.2-19c0-1.7,0-3.5,0.1-5.5c0.1-0.8,0.1-1.6,0.1-2.5l0,0c0.1-0.7,0.1-1.4,0.2-2.2l0,0
		c0-0.4,0.1-0.8,0.1-1.1l0,0c0-0.4,0.1-0.7,0.1-1.1l0,0c0.4-4.6,1-9.9,2-16.2c0.4-2.7,0.9-5.6,1.5-8.7c0.3-1.4,0.5-2.8,0.9-4.3
		c0.2-0.8,0.3-1.5,0.5-2.3c0.9-4.3,1.9-8.9,3.1-13.8L170,186.7z"/>
	<g>
		<path class="st38" d="M160.7,185c-3.8-1-7.4-1.8-10.7-2.4c-1.6,6.5-3,13.3-4.3,20.4c-1.7,9.3-3,18.2-4,26.7
			c1.2,0.4,2.9,0.6,4.1-0.2c2.1-1.4,1.3-5.2,1.4-10c0.1-2.9,1.8-7.3,4.9-16c0.5-1.4,1.3-3.4,2.4-3.4c1.5-0.1,1.9,3.4,5.5,5.6
			c1.1,0.7,1.6,0.6,2,1.3c0.9,1.4-0.5,3.1-0.3,5.8c0.1,1,0.3,2,0.8,2.9c1-0.3,2-1,2.7-1.8c0.9-1.1,1.4-2.5,1.5-3.9
			c0.3-3.1,1.8-10.9,3.9-21.7C167.6,187,164.2,185.9,160.7,185z"/>
		<path class="st38" d="M134.6,265.1C134.4,265.2,134.5,265.2,134.6,265.1L134.6,265.1z"/>
	</g>
	<path class="st39" d="M144.8,211.3c-0.3,1.8-0.5,3.5-0.8,5.3v0.4l-0.1,0.6l-0.4,1.5l-0.1,0.3c-0.5,1.8-1.2,3.6-0.5,5.5
		c0,0.2-0.1,0.3-0.1,0.5c-0.4,0.3-0.6,0.5-0.9,0.9c-0.1,0.2-0.2,0.4-0.2,0.6l0,0c-0.1,0.3-0.1,0.7-0.1,1.1l0,0c0,0.2,0,0.4,0.1,0.5
		l0,0c0,0.1,0,0.3,0.1,0.4c-0.1,0.1-0.1,0.1-0.1,0.1l0,0c0,0-0.1,0.1-0.1,0.1l0,0c-0.5,0.8-0.4,1.5-0.2,2.2l0,0
		c0.2,0.8,0.6,1.4,0.6,2.3c-0.1,0-0.1,0.1-0.2,0.1c-0.2,0.1-0.4,0.1-0.5,0.1c-1.5,0.5-1,2.3-1.4,3.4l-0.7,0.8
		c0.1-0.4,0.1-0.8,0.1-1.1c0-0.1,0-0.3-0.1-0.4c0-0.1,0-0.1,0-0.2s0-0.1-0.1-0.2c-0.1-0.3-0.2-0.5-0.3-0.7c-1.6-1.8-2.7,0.9-4.1,0.6
		l0,0c0.3,0.5,0.6,1,0.8,1.5c0.1,0.2,0.1,0.3,0.1,0.4c0.1,0.2,0.1,0.3,0.1,0.4c0.1,0.4,0.1,0.7,0.1,1.1v0.1c0,0.1,0,0.2,0,0.3
		c0,0.1,0,0.2,0,0.3c0,0.2-0.1,0.3-0.1,0.5c-0.1,0.2-0.1,0.4-0.1,0.5c-0.3,1-0.7,2-1.1,3.1c-0.3,0.7-0.5,1.4-0.6,2.2
		c0,0.1-0.1,0.2-0.1,0.3c-0.1,0.2-0.1,0.4-0.1,0.6c0,0.2,0,0.3-0.1,0.4c0,0.2,0,0.3,0,0.4c0,0.3,0,0.5,0.1,0.8c0,0.1,0,0.1,0,0.1
		c0,0.1,0,0.1,0,0.2v0.1c-0.1,0.3-0.2,0.8-0.4,1.2c-0.3,0.6-0.6,1.4-1.1,2.1c-0.4,0.8-0.9,1.5-1.3,2.1c-0.1,0.1-0.2,0.2-0.2,0.4
		c-0.1,0.1-0.1,0.2-0.2,0.3c-0.1,0.1-0.1,0.2-0.1,0.3c-0.1,0.2-0.2,0.4-0.2,0.5c0,0.1,0,0.1-0.1,0.1c-0.2,0.9,0,1.8,0.3,2.6l0,0
		c0.3,0.6,0.6,1.1,0.9,1.7c0.6,1.2,1.9,1.9,3.2,1.8c0.1,0,0.1,0,0.2,0l0,0l0,0l0.9,0.4l0,0l2.3,2.7c-0.3,0.2-0.6,0.4-1,0.5
		c-0.6,0.1,0.2-1.6-1.1-0.9l1.8,2c0.1,0.2,0.1,0.4,0.1,0.6l-1.2,0.4l1.3,1.1l0.1,0.2l-1.6,2.8h-1.5c0.1,1.5,0.1,3-0.1,4.5
		c0,0.3,0,0.7,0,1c0,0.8-0.1,1.6-0.2,2.3c-0.1,0.4-0.2,0.7-0.2,1.1l0,0c-0.1,0.4-0.2,0.8-0.4,1.1c0,0.2,0,0.4-0.1,0.5l0,0
		c-0.1,0.2-0.1,0.5-0.2,0.7c-0.2,0.3-0.3,0.5-0.5,0.7c-0.4,0.6-1,1.1-1.6,1.6l0,0c-0.1,0-0.1,0.1-0.1,0.1c-0.1,0.1-0.1,0.1-0.2,0.1
		c-0.7,0.5-1.6,0.8-2.5,0.7c-0.4,0.2-0.8,0.3-1.2,0.3c0.1,0.2,0.1,0.3,0.1,0.4l0,0l0,0h-2l0,0h-0.1c-0.5-0.2-1-0.3-1.4-0.5
		c-0.2,0.2-0.4,0.3-0.6,0.3l0.4,0.2h0.1l0,0l0,0l0,0h-0.3h-0.5l-4.7-0.2c-0.8,0-1.6,0.1-2.3,0.2c-0.1,0-0.1,0-0.1,0c0,0-0.1,0-0.1,0
		h-3.6l0,0l0,0c-0.1-0.1-0.1-0.3-0.1-0.4l-1-0.1c0,0,0,0,0.1,0c0.4-0.3,0.6-0.6,0.8-1c0.4-1,0.1-2.2,0.2-3.3
		c0.5-3.8-0.6-8.5,2.6-10.8c1.3-3.6,3.2-7,5-10.4c0-0.1-0.1-0.2-0.1-0.3c-1.9-1.7-3-3.3-2-5.8l1.2-0.9l-1.2-0.9
		c1.8-1.4-1.2-1.7-0.6-2.9l0.2-0.7l0.3-0.2l0.6-0.5l-0.6-0.1h-0.8l-0.6-0.2v-0.4l0.2-0.3l1.2,0.2c0.1,0,0.1-0.1,0.1-0.1
		c1-0.4,1.3-1.3,1.2-2.4v-0.2l0.7-2.9l0.1-0.2l-0.1-0.9l0.2-0.6c0.1,0,0.1-0.1,0.2-0.1c0.1,0,0.1-0.1,0.2-0.1h0.1l0.2-1.5
		c0,0,0,0,0-0.1l0.3-1.6V238l0.1-0.5c0,0,0,0,0-0.1l0,0l0.1-0.4c0.1-0.3,0.2-0.5,0.3-0.6c0.2-1.4,0.3-2.9,0.4-4.4
		c0.1-1.1,0.2-2.2,0.8-3.2c0.2-1.2,0.8-2.6,0.5-3.8l0,0v-0.1l0.3-3.5v-0.4l0.5-3.2l0.3-0.1l0.1-0.2l0.2-0.9l0.2-0.2l0.3-0.1l0.4-0.2
		l0.4,0.1l0.1-0.2l-0.5-0.1c0.5-3.5,0.9-7,1.4-10.4c0.1-0.5,0.3-0.9,0.6-1.3c0.3-0.4,0.6-0.9,1-1.3c-1.6-1.1-0.4-2.9-1.2-4.2
		c0.1-0.4,0.1-0.8,0-1.1c0-0.1,0-0.1-0.1-0.1c-0.3-0.5-0.8-1-1.2-1.4l0,0c-0.2-0.2-0.3-0.3-0.5-0.5c-0.1-0.1-0.3-0.2-0.4-0.3
		c-0.2-0.2-0.4-0.3-0.6-0.4l-0.4-0.3l-0.2-0.3c-0.1-0.4-0.2-0.7-0.3-1.1h0.3l0.7-0.4l-0.5-0.3l0.1-0.6h0.6l-0.6-0.5l0.4-0.4l0.6-0.5
		c0-0.1-0.1-0.1-0.2-0.1c0,0,0,0-0.1,0l-0.1-0.1v-0.5l0.5-0.5l-0.9,0.1l-0.2-0.3l0.2-0.4l0.9-0.4l0.4-0.2l0.1,0.9l0,0l0.1,0.5
		l0.3,1.6l0.4-0.4l0.4,0.8l-0.6,2c0.5-0.3,0.9-0.7,1.3-1.1c0.1-0.1-0.4-0.6-0.5-0.9l0.2-0.1l0.7-0.4c0.8-0.2,1.9-0.9,2.1-0.6
		c1.3,1.3,2.5,2.8,4,4.1c0.9,0.8,2.3-1.1,2.5,0.4c0,0.1,0,0.2,0,0.3c0,0.7,0.1,1.3,0.3,1.9s0.4,1.1,0.6,1.7c0.7,1.3,1.7,2.5,2.8,3.6
		c0.7,0.8,2.3,0.2,2.4,2c0.1,1.9-0.4,4.3,1.3,5.7c0.1,0.1,0.3,0.2,0.4,0.3C144.4,211.1,144.6,211.2,144.8,211.3z"/>
	<path class="st40" d="M214.1,287.1l-12,0.3h-0.7h11.8c0.1,0,0.2,0,0.3,0c0.2,0,0.4,0,0.6-0.1L214.1,287.1z M129.2,287.4
		c-0.1,0-0.2,0-0.3,0c-0.3,0-0.6,0-0.9,0c-0.1,0-0.1,0-0.2,0H124h-0.1h-0.5l-12.2-0.4l0,0c-0.3-0.3-0.6-0.6-1-1
		c-0.1-0.1-0.2-0.2-0.2-0.2c0.6-0.3,1-1,0.7-1.7c0.1-0.1,0.2-0.3,0.2-0.4c0.3-0.8,0.5-1.7,0.7-2.5c0.1-0.1,0.2-0.1,0.2-0.2
		c0.5-0.5,0.5-1.2,0.1-1.7c0.2-1.8,0.3-3.6,0.3-5.5l0.1-1c0.3-2.5,0.7-4.9,1.3-7.4c0.6-2.1,1.1-4.3,1.5-6.5c0.1-0.1,0.2-0.3,0.2-0.4
		c0.5-3.2,1.2-6.3,2.1-9.4c0.1-0.3,0.2-0.5,0.2-0.8c0.1-0.3,0.2-0.6,0.3-0.9c0.4-1,0.7-1.9,1-2.9c0.3-0.5,0.5-1.1,0.7-1.7
		c0.2-0.6,0.4-1.2,0.5-1.8c0.1-0.5,0.2-1,0.3-1.5c0,0,0,0,0-0.1l0.3-1.6V238c0.4-2.6,0.6-5.2,0.8-7.8c0.4-1.4,0.8-2.9,1.2-4.3
		c0.1-0.2,0.2-0.4,0.2-0.7l0,0c0.8-2.4,1.3-4.7,1.7-7.2c0.1-0.5,0.1-1,0.1-1.6c0.1-0.9,0.1-1.7,0.1-2.6c0.4-2.6,0.6-5.2,0.6-7.7
		c0.1-0.1,0.1-0.2,0.1-0.3c0.6-2.6,0.6-5.4,0.3-8c0-0.1,0-0.1,0-0.1c-0.1-0.4-0.1-0.7-0.1-1.1c0-0.1,0-0.2-0.1-0.4l0,0
		c0-0.3-0.1-0.5-0.1-0.9c-0.2-1.9-0.3-3.9,0-5.8l0,0c0-0.1,0-0.2,0.1-0.3l0,0c0.1-0.5,0.2-1.1,0.4-1.7c0.3-1.1-0.9-1.9-1.8-1.6
		c-0.3,0.1-0.5,0.3-0.7,0.6c-1.3,2.4-1.5,4.9-1.6,7.6c0,0.1,0,0.2,0,0.3c0,0.4,0,0.9,0,1.3c-0.2,0.1-0.3,0.2-0.4,0.3
		c-0.1,0.1-0.2,0.3-0.2,0.5c0,0.1,0,0.2-0.1,0.4c0,0,0,0,0,0.1c-0.1,0.2-0.1,0.4-0.1,0.6c0,0.1,0,0.1,0,0.1
		c-0.1,0.4-0.1,0.8-0.1,1.1c0,0.2,0,0.3,0,0.4c-0.1,0.8-0.1,1.7-0.1,2.5c0,0.2,0,0.4,0,0.7c0,0.8,0,1.5,0,2.3c0,0.5,0,1.1,0,1.6
		c-0.1,0.1-0.2,0.1-0.3,0.1c-0.3,0.2-0.6,0.4-0.8,0.8c0,0,0,0,0,0.1c-0.5,0.8-0.5,1.9-0.6,2.8c-0.1,0.4-0.1,0.9-0.1,1.3
		c-2.1,9.5-3.9,19-5.6,28.7c-0.2,1.1-0.4,2.1-0.6,3.2c-0.3,1.7-0.6,3.4-0.9,5.2c0,0.1,0,0.1-0.1,0.1l0,0c-0.1,0.4,0,0.8,0.2,1
		l-1.2,8.4l-0.2,1.6l-0.1,0.5l-0.9,5.8l0,0l-0.1,0.8l0,0c0,0.1-0.1,0.3-0.1,0.4c0,0.1,0,0.2,0,0.3c0,0.2-0.1,0.5-0.1,0.7
		c0,0.1,0,0.2-0.1,0.3c-0.1,0.1-0.1,0.2-0.1,0.3v0.1l-0.2,0.9v0.1l-0.4,2.3l0,0l-0.5,2.7l-0.5,2.8c-0.2,1.1-0.4,2.2-0.5,3.3l0,0
		c-0.1,0.5-0.1,1.1,0,1.6v0.1c0.1,0.8,0.3,1.6,0.6,2.3l-0.4,0.4l0.4,0.2l-0.4,0.2c0,0.1,0.1,0.3,0.1,0.4c0.1,0.5,0.2,1,0.2,1.4l0,0
		h1.1l0,0h20.3C129.2,287.5,129.2,287.5,129.2,287.4z M174.3,287.4c-0.8,0-1.6,0-2.4-0.1c-0.5,0-1.9,0.1-1.8-1.2l-4.9-0.2l-0.6,0.6
		l-5,0.4l-1.7,0.4h-11.6l0,0c-0.1,0-0.2-0.1-0.3-0.1l0.5-0.3c-1.1-0.1-1.8-0.4-2-1.1c-0.1-0.4-0.1-0.9,0.2-1.4
		c0.2-0.4,1-0.5,1.4-0.6c0,0,0.1,0.3,0.2,0.4l-0.9,0.3l2.1,0.8l-0.5,0.6l-0.4,0.4c-0.1,0.2-0.2,0.4-0.3,0.6c1.6,0,2.7-0.4,3.6-1.1
		c0.3-0.3,0.6-0.5,0.9-0.9c0.7-0.9,1.1-2.1,1.3-3.5v-0.3l0.6-1l1-0.1l1.4-0.2l-1.4,0.1l-1.7,0.1l-1.9,0.2v1.3c-0.6,0-1.2,0-1.8-0.2
		c-0.2-0.1-0.2-0.8-0.3-1.2l-4.6-0.2l-0.1,0.9l-0.6,0.2v-1.1c0,0-8.2,0.4-8.2,0.5c-0.1,0.3-0.1,0.5-0.2,0.8s-0.2,0.5-0.4,0.8
		c-0.1,0.2-0.2,0.3-0.3,0.5l0,0c-0.2,0.5-0.5,1-0.7,1.4c-0.3,0.6-0.6,1.2-1,1.8c-0.3,0.4-0.5,0.8-0.9,1.1c-0.2,0.2-0.5,0.3-0.9,0.4
		c-0.1,0-0.1,0-0.2,0c-0.1,0-0.2,0-0.2,0h45.4C175.1,287.4,174.7,287.4,174.3,287.4z M148.6,282.6l1.4,0.9c-0.3,0.4-0.7,0.7-1.1,1
		c-0.1,0.1-0.7-0.4-0.7-0.7C148.3,283.3,148.4,282.9,148.6,282.6z"/>
	<path class="st36" d="M136.9,255l-1.3,7.7l-0.9-0.4c-1.6-1.9-5.6-2.7-2.8-6.5c0.4-0.5,0.8-1,1-1.6c0.6-2,0.1-4.8,3.3-5.4
		c0.4-0.1,1.1-0.6,1-0.9c-0.3-1.6,0.3-3.2,1.6-4.2l-0.1,2.1l-0.3,0.3c-0.5,2.7-1,5.4-1.5,8.2L136.9,255z"/>
	<path class="st41" d="M140.1,237.2c0.3,2-1.3,4,0.3,6.2c0.7,1-1.2-0.3-1.5,0.5c-1.2,1-1.8,2.6-1.6,4.2c0.1,0.3-0.6,0.9-1,0.9
		c-3.2,0.5-2.6,3.3-3.3,5.4c-0.3,0.6-0.6,1.1-1,1.6c-2.8,3.8,1.2,4.6,2.8,6.5c-1.4,0.2-2.8-0.5-3.4-1.7c-1-1.8-2.1-3.5-0.5-5.9
		c1.2-1.8,3-4.8,2.8-5.8c-0.5-4.1,3.1-7.4,1.9-11.3c-0.2-0.5-0.5-1.1-0.9-1.6c1.4,0.3,2.5-2.4,4.1-0.6c0.3,0.4,0.4,0.9,0.4,1.4
		c0,0.4,0,0.8-0.1,1.1L140.1,237.2z"/>
	<path class="st37" d="M198.6,251.1c-4.5,0.3-7.9,9.9-8.2,17.2c-0.1,1.1-0.5,14.2,6.2,17.5c2.5,1.2,3.5-0.1,11.8,0.3
		c7,0.3,8,1.3,9.1,0.3c4.2-3.9-7.2-21.5-10.7-26.8C201.7,251.8,199.9,251.1,198.6,251.1z"/>
	<path class="st37" d="M218.1,231.7c0-0.1-0.1-0.1-0.1-0.2l0.1-0.1v-1.3v-15.6v-5.1l-0.4,0.2c-0.4,1-2.1,1.2-1.7,2.6l0.8,0.3
		c-0.4,0.3-0.8,0.5-1.2,0.8c-0.2,0.4-0.4,0.8-0.5,1.2c-1.2,3.6,1.1,7.6-0.3,11.3c-0.2,0.7-0.9,1.2-1.6,1.2c-1.4,0.2-2.8,0.2-4.2,0.3
		l-0.6,0.9v0.4h-0.2l-1.1,1.2l-0.6,0.4l0.2,1.3l0.3,0.2l0.3,0.2l-0.3,0.3c-0.1,0.1-0.2,0.2-0.3,0.3c-0.4,0.6-0.6,1.1,0.4,1.1
		c1.2,1.6-1.7,4.7,2,5.3l0,0l0,0c-0.9-4.9,2.8-6.4,6.1-8.2c0.3-0.2,0.6-0.3,1-0.5v-0.6c0.1-0.5,0.2-1,0.3-1.4
		c0.1-0.2,0.1-0.3,0.1-0.5l0,0c0,0,0.6,0.1,0.6,0.1c0.3,1,0.4,1.9,0.5,2.9c0,1.2-0.8,2.4,0.2,3.5l0.5-1.5L218.1,231.7z"/>
	<path class="st42" d="M215.1,247.4c-0.2,0.3-0.4,0.6-0.6,0.9l-6.9-0.5l-0.2-0.2c-0.9-2.7,0.8-4.9,1.6-7.2c0-0.5,0-1,0-1.5
		c-0.9-4.9,2.8-6.4,6.1-8.2c0.3-0.2,0.6-0.3,1-0.5v-0.6c0.1-0.6,0.2-1.3,0.4-1.9c0,0,0.6,0.1,0.6,0.1c0.3,1,0.4,1.9,0.5,2.9
		c0,1.2-0.8,2.4,0.2,3.5c0.8,2.4-1.6,1.3-2.2,2c-0.5,0.1-1.6-0.5-1.1,0.9c-1.2-0.3-2.1,0-2.7,1.3c-0.7,1.5,1,1.4,1.2,2.1
		c0.5,1.8,0.9,3.6,1.3,5.4l0,0l3.4-2.6l0.2,1.5l-2,2.1l-0.4,0.2c-0.1,0-0.1,0.1-0.1,0.2L215.1,247.4z"/>
	<path class="st42" d="M92,206.1l-1-0.4l0,0c0.3-0.2,0.5-0.4,0.8-0.6c0.2-0.2,0.4-0.5,0.6-0.7l0,0c-1.3-0.3-2.7-0.5-4.1-0.7
		c-1.4-0.1-2.3,0.3-2.8,1.1c-0.1,0.1-0.1,0.1-0.1,0.2l0,0c-0.1,0.1-0.1,0.2-0.2,0.3c-0.1,0.1-0.1,0.1-0.1,0.2
		c-0.1,0.1-0.1,0.2-0.1,0.3c-0.1,0.2-0.1,0.3-0.1,0.4c0,0.1-0.1,0.1-0.1,0.2c0,0.1,0,0.2-0.1,0.3c0,0.1,0,0.3-0.1,0.4
		c0,0.1,0,0.1,0,0.2c0,0.2,0,0.4,0,0.6c0,0.1,0,0.1,0,0.1c0,0.1-0.1,0.1-0.1,0.1c-0.1,0.1-0.1,0.1-0.1,0.2l0,0
		c-0.1,0.1-0.1,0.1-0.1,0.2c-0.1,0.2-0.3,0.3-0.4,0.5c-0.2-0.4-0.6-0.7-0.6-1.1c0-0.4,0-0.8,0-1.1c0-0.1,0-0.1,0-0.1l0,0
		c0-0.9,0-1.9,0-2.8c0-0.9,0-1.9,0-2.8V198l-0.2-0.1v11.6c2.4,0.7,3.9,1.5,0.2,3.1c0.2,0.4,0.3,1,0.6,1.1c0.8,0.3,2.1,0.5,1.5,1.6
		c-0.5,0.9,1,3.4-1.9,2.7l-0.2,1.7v0.1c2.6-1,5.6-1.4,5.3-5.2c1.8-0.4,1.6-1.5,1.1-3c-0.2-0.6,0.3-1.3,0.4-2l1.1,0.6
		C91.9,208.8,93.1,207.6,92,206.1z M87.6,208.6l2,1.8l-0.9,0.8c-0.5-0.8-1-1.5-1.4-2.3C87.3,208.8,87.5,208.7,87.6,208.6z
		 M88.9,214.5l-1.6,0.5c0.1-0.3,0.1-0.8,0.4-1C88.2,213.7,88.8,213.7,88.9,214.5L88.9,214.5L88.9,214.5L88.9,214.5z"/>
	<path class="st42" d="M113.2,244.3c0-0.4,0-0.8-0.1-1.1c-0.4-3.9-3.6-5.9-6.2-8.4l-0.4-0.2l-0.4-0.4l-7.2-3.6
		c-2.8-0.6-5.7-1.2-8.5-1.7c-1-0.2-1.4,0.3-1.6,0.8c0,0.1,0,0.1,0,0.1c0,0.1,0,0.1,0,0.2c0,0.1,0,0.1,0,0.2c0,0.1,0,0.1,0,0.2
		c0,0.1,0,0.1,0.1,0.2c0.1,0.1,0.1,0.1,0.1,0.2c0,0.1,0.1,0.1,0.1,0.1s0.1,0.1,0.1,0.1c1.3,1.2,3.5,1.2,4.2,3.3
		c0.2,0.4,1.3,0.4,1.9,0.6l0,0c-0.7,0.6-1.3,1.7-2.1,1.9c-0.4,0.1-0.6,0-0.6-0.2c0-0.1,0-0.1-0.1-0.1c-0.1-0.3,0.1-0.6,0.1-0.9
		c0-0.1-0.1-0.2-0.1-0.2c-1.4-0.5-2.8-0.9-4.2-1.1c-1.5-0.3-2.5,0.7-3.4,1.7l0.6,1l0.1,0.5c0.9,0,1.6,0.2,0.9,1.3l-0.9,2.2v0.4
		c0.7,0.9,1.9,1.6,2.2,2.7c0,0.1,0.1,0.1,0.1,0.2c0.1,0.4,0,1-0.3,1.6c-0.1,0.1-0.1,0.2-0.1,0.3l0,0c0.1,0.6,1.1,1.7,1.7,2.4
		c1.1,1.6,1.4-0.2,2.1-0.5c0,0,0,0,0.1,0c0,0.3,0,0.6,0.1,0.8c0,0,0,0,0,0.1c0,0.1,0.1,0.1,0.1,0.2c0.3,0.8,1,1.3,1.9,1.7
		c0.6,0.2,1.5,0.5,1.7,1c0.9,2,4,2.1,4.3,1.9c2.2-1.3,4.5,0.3,6.7-0.7c0.3-0.1,0.4,0,0.5,0.2c0,0,0,0,0,0.1c0.1,0.3,0.1,0.7-0.1,1.1
		c-0.6,1.6-2.4,3-2.4,4.7c0,0.1,0,0.2,0,0.2l0,0c0,0.1,0,0.1,0,0.2c0.1,0.5,0.3,1,0.8,1.6c0.1,0.1-0.4,0.6-0.6,0.6
		c-4.6,0.2-9.2,0.3-13.8,0.5c-0.4,0.1-0.8,0.2-1.2,0.4l14,0.1l4-0.1c0-0.1,0-0.1,0-0.1c0-0.2,0-0.4,0-0.6c0-0.1,0-0.2,0-0.2
		s0-0.2,0-0.2c-0.1-0.8-0.3-1.4-0.5-2.2c0,0,0,0,0.1,0c0.1,0.1,0.3,0.1,0.3,0.1c-0.1,1.7,3,1.2,3,2.9c0,0,0,0.1,0,0.1
		c0,0.2-0.1,0.4-0.2,0.8c-0.1,0.2-0.2,0.4-0.2,0.6c0,0.1,0,0.1,0,0.1c-0.1,0.5,0.2,1,0.6,1.3v-0.1l0,0l0.1-0.8l0.3-1.1l0.2-1
		l0.1-0.9c0.1-0.3,0.1-0.6,0.2-0.9c0-0.1,0.1-0.3,0.1-0.4v-0.6c0-0.2,0.1-0.4,0.1-0.6c0.1-0.2,0.1-0.3,0.2-0.5
		c0.1-0.3,0.2-0.5,0.2-0.8l0.1-0.2l-0.1-0.2l0.1-0.4v-0.1c0.1-1,0.3-2,0.4-3.1l0.1-0.2l0.4-1c0-0.2,0-0.4,0-0.6
		c0-1.1,0.2-2.3,0.6-3.3l0.2-0.7v-0.1l-0.2-0.6c0.1-0.1,0.1-0.1,0.1-0.2c0-0.1,0.1-0.1,0.1-0.1l0.1-1c0.1-0.1,0.1-0.3,0.2-0.4
		l0.1-0.5L113.2,244.3z M102.2,251.2c0.2,0,0.5,0.2,1.1,0.4c-0.5,0.3-0.8,0.5-1.1,0.5s-0.5-0.3-0.8-0.5
		C101.7,251.5,102,251.2,102.2,251.2z M91.1,247.8l0.2-0.3l0.1,0.1L91.1,247.8z"/>
	<g>
		<polygon class="st37" points="108.5,274.6 108.5,274.7 108.5,274.7 		"/>
		<path class="st37" d="M107.4,265.8L107.4,265.8z"/>
		<path class="st37" d="M110.1,267.1l-0.1,0.6l-0.2,0.3l-0.2,0.3v0.5l-0.2,0.8v0.1l-0.5,2.1v0.2l0,0v0.1l-0.5,2.5l-0.1,0.1l-1,1.7
			l0,0l-0.1,4.4v0.1c0,0.5,0,1,0,1.6v0.1c0,0.5,0,1.1,0,1.6v0.4l-0.9-0.1l-0.1-0.1c1.1-3.2-0.7-3.2-3.1-3.2
			c-3.1,0.1-6.2-0.2-9.4-0.4h-1c-0.5,0.1-1,0.1-1.3,0.1h-0.6c0.4,1.2,1.9,1.7,2.6,2.3c3.6,3.3,8.3,2.6,12.8,1.2v0.7
			c-0.5,0.3-1.1,0.4-1.7,0.5c-5.3,0.1-10.6,0.1-15.9,0.1h-2.3h-2.3c-0.5-0.5-0.8-1-0.9-1.6v-11.3c0,0.2,0.1,0.4,0.1,0.6
			c0.1-0.3,0.1-0.6,0.1-0.9c0.6-3.4,1.2-6.8,1.8-10.2c0.2,0,0.4,0,0.4,0c-1-3.2,0.3-6.8-1.4-9.9c-2.3-4,0.4-7.6,1-11.3
			c0,0,0,0,0,0.1c0.8,0.9,1.9,1.6,2.2,2.7c0,0.1,0.1,0.1,0.1,0.2c0.1,0.4,0,0.9-0.3,1.5c-0.1,0.1-0.1,0.2,0,0.3l0,0
			c0.2,0.6,1.1,1.6,1.6,2.4c1.1,1.6,1.4-0.3,2.1-0.5c0,0.1,0,0.1,0,0.1c0,0.3,0.1,0.6,0.1,0.8c0,0,0,0,0,0.1c0,0.1,0.1,0.1,0.1,0.2
			c0.3,0.8,1,1.2,1.9,1.6c0.6,0.2,1.5,0.5,1.7,1c0.9,2,4,2,4.3,1.9c2.2-1.3,4.5,0.3,6.7-0.7c0.3-0.1,0.5,0,0.5,0.3c0,0,0,0,0,0.1
			c0.1,0.3,0,0.6-0.2,1.1c-0.6,1.6-2.5,3-2.4,4.8c0,0.1,0,0.2,0,0.2l0,0c0,0.1,0,0.1,0,0.2c0.1,0.5,0.3,1,0.7,1.6c0,0,1.2,0.4,2,1.6
			h0.4l0,0c0-0.2,0-0.4,0-0.6c0-0.1,0-0.2,0-0.2c0-0.1,0-0.2,0-0.3c-0.1-0.7-0.3-1.4-0.4-2.1c0-0.1,0-0.1,0-0.1
			c0.1,0.1,0.4,0.1,0.4,0.1c-0.1,1.8,3.1,1.2,3,3c0,0,0,0.1,0,0.1c0,0.2-0.1,0.4-0.2,0.6c-0.1,0.2-0.2,0.4-0.2,0.7
			c0,0.1,0,0.1,0,0.1c0,0.5,0.2,1,0.6,1.2v0.1l0,0c0,0.4,0,0.8,0,1.1l0,0C110,266.3,110,266.7,110.1,267.1z"/>
		<path class="st37" d="M107.4,265.8L107.4,265.8z"/>
	</g>
	<path class="st43" d="M122,191.3l-0.7,0.6l-0.2,0.1l1.1-1.5l-0.2-1.4l-5.1,0.9l-0.3,0.1l-0.3,0.1l-6.1,3.3c-1,1.4-2.3,2.7-3.3,4.1
		c-0.1,0.1-0.1,0.1-0.1,0.1c-0.7,1-1.3,2.1-1.6,3.4v0.1l1.2,0.7l3.6,2.6l0.2,0.2l0,0l5.3,4.7l4.2-4.4l0.5-0.9
		c0.3-0.5-0.5-1.7,0.8-1.7h0.1l0.3-0.1l0.5-0.2v-0.4h-0.9c-0.9-0.7-0.1-1.4,0-2.1c0-0.1,0.1-0.1,0.1-0.1c0-0.1,0-0.1,0.1-0.2
		c0.1-0.5,0.2-1,0.2-1.5c0-0.1,0-0.1,0-0.1c0.1-0.5,0.2-1,0.2-1.6c0.1-0.2,0.1-0.5,0.1-0.7c0.1-0.3,0.2-0.6,0.3-0.9c0,0,0,0,0-0.1
		V194L122,191.3z"/>
	<path class="st37" d="M88.9,183.7L88.9,183.7L88.9,183.7L88.9,183.7z"/>
	<path class="st37" d="M105.7,197.7c-0.6,0.9-1,2-0.4,3.4l0,0l1.3,0.7l3.5,2.6c0.1,0.1,0.1,0.2,0.2,0.2l0,0c0.7,1.1,1.4,2.1,2.1,3.3
		c1.2,1.9,1.5,5,1,5.5c-1.5,1.2-2.9,2.5-4.1,4c-1.8,2.4-1.6,6.8-6.5,5.5l-0.7-0.2c0.1,0.3,0.2,0.5,0.4,0.8c2,3-1.9,2.5-2.4,4.1
		c-0.8-0.3-1.5-0.6-2.3-1c-0.5-0.3-1.2-1.1-1.3-1c-0.7,0.5-1.3,1.1-1.8,1.8c-0.1,0.1,0.4,0.8,0.8,1c1.1,0.8,2.3,1.4,3.4,2.1
		c-2.8-0.6-5.7-1.2-8.5-1.7c-1-0.2-1.4,0.3-1.6,0.9c0,0.1,0,0.1,0,0.1c0,0.1,0,0.1,0,0.2c0,0.1,0,0.1,0,0.2c0,0.1,0,0.1,0,0.2
		s0,0.1,0.1,0.2c0.1,0.1,0.1,0.1,0.1,0.2c0,0.1,0.1,0.1,0.1,0.1l0.1,0.1c1.3,1.2,3.5,1.2,4.2,3.3c0.2,0.4,1.3,0.4,2,0.6l0,0
		c-0.7,0.6-1.3,1.7-2.1,1.9c-0.4,0.1-0.6,0-0.6-0.2c0-0.1,0-0.1-0.1-0.1c-0.1-0.3,0.1-0.6,0.1-0.9c0-0.1-0.1-0.2-0.1-0.2
		c-1.4-0.5-2.8-0.9-4.2-1.1c-1.5-0.3-2.5,0.7-3.4,1.7c-1.2,0-1-1-1.3-1.7v-13.1l0.2-1.3c0,0,0,0,0.1,0c2.5-0.9,5.6-1.4,5.3-5.2l0,0
		l0,0l0,0c1.1-0.3,1.4-0.8,1.4-1.5c0-0.4-0.1-0.9-0.3-1.4c-0.2-0.6,0.3-1.3,0.4-2l1.1,0.6c0,0,0,0,0,0.1c0.9,2.4,1.2,5.7,4.8,5.3
		c2.5-0.3,3.2,1.6,4.4,2.8c1.6,1.6,1.6,1.8,2.5,0.3c2-3.7,0.7-7.7-1.1-10.6c-2.1-3.5-6.3-3.1-10.1-1.7l-1-0.4l0,0
		c0.3-0.2,0.5-0.4,0.8-0.6c0.2-0.2,0.4-0.4,0.6-0.6l0,0c-1.3-0.3-2.7-0.5-4.1-0.7c-1.5-0.1-2.4,0.4-2.8,1.2l0,0
		c-0.1,0.1-0.1,0.2-0.2,0.3c-0.1,0.1-0.1,0.1-0.1,0.2c-0.1,0.1-0.1,0.2-0.1,0.3c-0.1,0.2-0.1,0.3-0.1,0.4c0,0.1-0.1,0.1-0.1,0.2
		c0,0.1,0,0.2-0.1,0.3c0,0.1,0,0.3-0.1,0.4c0,0.1,0,0.1,0,0.2c0,0.2,0,0.4,0,0.6c0,0,0,0,0,0.1c0,0.1,0,0.1,0,0.1s-0.1,0.1-0.1,0.1
		c-0.1,0.1-0.1,0.1-0.1,0.2l0,0c-0.2,0.2-0.3,0.4-0.5,0.6c-0.2-0.4-0.6-0.7-0.6-1.1c0-0.4,0-0.7,0-1.1c0-0.1,0-0.1,0-0.1l0,0
		c0-0.9,0-1.9,0-2.8c0-0.9,0-1.9,0-2.8c0-1.1,0-2.1,0-3.2c0-0.1,0-0.1,0.1-0.2V198l0.1-0.1l0.1-0.1c0.1-0.1,0.1-0.1,0.2-0.1
		c3.8-1,7.7-1,11.4,0c0.4,0.1,0.8,0.2,1.1,0.2c0.3,0.1,0.5,0.1,0.8,0c0.5-0.1,0.5-0.5,0.2-1.3c-1.4-3.6-4.5-6.4-7.5-8
		c-3.2-1.7-1.8-2.8-1.1-4.6l0.5-0.4l3.5-3.5c0.1,0,0.1,0,0.1,0l0,0c0.4-0.1,0.4,0.2,0.4,0.5c0,0.1,0,0.3,0,0.4
		c0,0.4,0.1,0.8,0.9,0.5c1.4-0.4,2.7-1.1,4.7-0.9c3.8,0.4,7.2,0.8,11,1.8c1.7,0.5,2.1,0.9,2.1,1.3l0,0c0,0.1,0,0.1,0,0.1
		c-0.2,0.6-1.3,1.2-1.5,1.8c-0.4,1.2-1.5,0.6-2.3,0.4c-0.9-0.3-1.5-0.2-1.8,0.8c-0.2,0.5-0.4,0.9-0.6,1.4l0,0
		c1.9,0.6,3.7,1.3,5.6,1.7c0.3,0.1,0.8-1,1.3-1.3c1.1-0.5,1.3,0.7,1.8,1.2c0,0,0,0-0.1,0.1c-0.6,0.5-1.3,1.1-2,1.6
		c-0.8,0.6-1.6,1.2-2.4,1.8c-0.6,0.6-1.5,1.1-2,1.8c-0.6,1-1.6,1.8-2.3,2.7C105.8,197.7,105.7,197.7,105.7,197.7z"/>
	<path class="st42" d="M124.7,173.9c-0.1-0.1-0.1-0.1-0.1-0.1c-4.9-2-10.1-3.2-15.4-1.9c-3.9,1-7.6,2.4-11.4,3.6l-4.8,4.3l0,0
		l-0.1,0.1c0.4-0.1,0.5,0.1,0.5,0.4c0,0.1,0,0.3,0,0.4c0,0.4,0.1,0.8,0.9,0.6c1.4-0.4,2.7-1.1,4.7-0.9c3.8,0.4,7.2,0.8,11,1.8
		c1.6,0.4,2.1,0.9,2.1,1.3l0,0c0,0.1,0,0.1,0,0.1c-0.1,0.6-1.3,1.3-1.5,1.9c-0.4,1.2-1.5,0.6-2.3,0.4c-0.9-0.3-1.5-0.2-1.8,0.8
		c-0.2,0.5-0.4,0.9-0.6,1.3v0.1c1.8,0.6,3.7,1.3,5.6,1.7c0.3,0.1,0.8-1,1.3-1.3c1.1-0.5,1.3,0.6,1.8,1.2c0,0,0,0,0.1,0.1
		c-0.6,0.5-1.3,1.1-2,1.6c-0.8,0.6-1.6,1.2-2.4,1.8l0.1,0.4l6.1-3.3l0.1-0.4l0.3-1l0.6,0.4c0.8-0.6,4,0.8,1.8-2.3
		c-0.4-0.5-0.2-2,0.2-2.4c1.4-1,2.8,0.1,4.2,0.6l0.4-0.4c0.1-0.5,0.2-0.9,0.2-1.3l0,0c0.2-1.4,0.5-2.9,0.7-4.4l0.3-2.5
		C124.9,175.6,125.6,174.7,124.7,173.9z M99.1,175.6l0.4,1.2l1.5,0.2c-0.1,0.1-0.2,0.3-0.2,0.3c-0.4-0.1-0.9-0.3-1.3-0.4l-0.9-0.6
		L99.1,175.6z M115.9,185.8l-0.8-0.9l2.7-2.4c0.1,0.2,0.3,0.4,0.3,0.4C117.3,183.9,116.6,184.9,115.9,185.8z"/>
	<path class="st43" d="M214.1,192.6l3.9,0.1l0.1,1.2c-0.4-0.3-0.7-0.7-1.1-0.7c-1.9-0.1-3.7,0-5.6,0.1l-1.8-0.1l-0.8-0.1h-0.3h-0.3
		l-3-0.1l-0.8-0.1l-5.7-0.9l-4.9-0.6l-1.1-0.1l-0.6-0.2l-3.8-0.3l-0.4-0.1c-0.1-0.1-0.2-0.1-0.2-0.1l-4-1l-0.5-0.2l-3-0.6l-6.9-1.7
		l-1.5-0.2l-1.8-0.5l-11.6-3.3l0,0c0.1,0,0.2,0,0.2-0.1c0.1-0.1,0.3-0.1,0.4-0.2l-6.1-1.9h-1.2l-1.9-0.5l-4-1.1l-0.5-0.8l-4.5-1.1
		l-0.8-0.1l0.5-0.8l-1,0.3l0,0v-0.6l0.3-0.2l-0.3-0.2l-1.3-0.9l-0.9-0.4l-0.1-0.1l0.1,0.1l0.6,0.5l0.3,0.6l-1.7,0.2
		c-0.5-1.3-1.6-1.7-2.8-1.9c-0.2-0.3,1-1.2-0.4-1.1c-0.5-1.2-1.1,0.3-1.6,0l-0.1-1.4l-1.8-1.5l-1.8-1.8l-0.9-1.2l-0.4-0.5l0.2-0.4
		c1.1-0.2,0.4-1,0.5-1.4c0.7,0.9,1.3,1.7,2,2.6l3.5,3.3l0.7,0.6l0.7,0.7l1.1,0.6l0,0l1.3,0.7l7.3,3.9h0.1l0.2,0.1l0.4,0.1l6.6,2.7
		l2.7,1l2.8,0.9l17.3,5l4.6,1.1l0.2,0.1h0.4l1,0.1c0.1,0.1,0.1,0.1,0.2,0.1l0.1,0.1h0.1l0.5,0.2l2.2,0.4l0.1,0.1l0.2,0.1l6.9,1.3
		l0.4,0.1l1.9,0.3l13.4,1.5h0.6l1.8,0.2l1.8,0.2l2.1,0.1H214.1z"/>
	<path class="st44" d="M182.9,159.2L182.9,159.2L182.9,159.2l-2.1-0.4c-0.3,0-0.6-0.1-0.9-0.1l0,0c-2.9-0.3-5.8-0.5-8.7-0.8
		c0,0,0,0-0.1,0c0,0,0,0-0.1,0c-1.2-0.1-2.4-0.2-3.5-0.3c-4.4-0.4-8.9-0.8-13.3-1.1c-0.3,0-0.5-0.1-0.8-0.1c-2.5-0.1-5,0.2-7.5,0.3
		l0.5,0.3l-1.3-0.2l-2.2,0.4l-5.6,1.6l7.1-0.5l2.4-0.4l0,0l0.3-0.1l-0.4,0.5l2.6,1.3l1.1,1.7l0.4,0.4l1.2,0.8l0.4,0.1
		c0.1,0.2,0.2,0.4,0.3,0.6c0.9,0.3,2.3-0.1,2.2,1.6l1.4,1.5l0.3,0.3l-0.3,0.2l-0.2,0.2c-0.2,0.6,1.5,0.8,0.5,1.4
		c-0.4,0.3-1.2,0-1.8-0.1c-0.9-0.5-1.9-1.1-2.8-1.7l-0.5-0.4l-1.6-0.2c-0.3,2.9-3.3,2.1-4.8,3.5l-0.5,0.2c0,0.4,0,0.8,0,1.2
		c-0.1,0.9-0.2,1.8-0.3,2.6c-0.1-0.1-0.3-0.1-0.3-0.1c0.2-1.3,0.3-2.6,0.5-3.8l0.1-0.4c0.8-1.4-0.1-2.4-1.1-3.1
		c-0.2-0.1-1.2,1.1-1.6,1c-0.2-0.1-0.4-0.1-0.5-0.2l0,0c-1.3-0.2-2,0.6-2.7,1.6l-1.1,1.6l0,0c0.5,0.2-1.9,1.6,0.4,1.1
		c0.3-0.1,0.7,0.6,1.1,0.9c-0.4,0.1-0.9,0.2-1.3,0.2c-1.2-0.2-0.1,0.7-0.5,0.9l7.3,3.9l0.6-1v1.2l6.6,2.7l0.6-0.6l-2-1.2l2.4-0.6
		l-0.2-0.4c-1.3,0.1-2.6,0.1-3.9,0.3c-2,0.4-3.6,0.4-2-2.3v-0.5c-0.1-0.2-0.2-0.3-0.2-0.5c-0.1-0.4-0.1-0.8-0.2-1.2l-0.7-1.8
		c-0.1-0.3-0.1-0.6-0.2-1c0.1,0,0.2,0,0.3,0c0.1,0.3,0.2,0.5,0.2,0.8c1.3-0.4,1.5,0.9,1.8,1.5c1.6,3.3,4.2,2.8,6.7,1.7
		c1.5-0.8-0.8-0.7-0.6-1.3l-1.6-0.5c0.2-0.2,0.5-0.5,0.6-0.5c1.3,0.7,2.4-1.9,3.8-0.4l0.3-1.3c0-0.1-0.1-0.1-0.1-0.2l-0.6,0.1
		l-0.7,0.3l0.7-0.5l0.7,0.2l0.4,0.2c0.6,2.6,2,4.5,4.7,5.1l1.8,0.2l1.1,0.7l1.4,0.4l0.7,0.9l1.8,0.1l-1.3,0.6l6.3,3.9
		c-0.2-0.6-0.3-1.1-0.4-1.7c-1.1-1.9-1.8-4.3-4.9-3.8l-1.5-1.3l1.6-0.1c0.3-0.1,0.5-0.3,0.8-0.4l0,0c0.1,0,0.1-0.1,0.1-0.1
		c0,0,0.1,0.1,0.1,0.1l0.1,0.1l-1,0.3l0.4,0.6c1.4-0.8,2.4,0,3.3,0.9c0.2-0.4,0.3-0.9,0.4-1.3c0.1-0.5,0.2-1,0.8-1
		c0.1,0,0.2,0,0.3,0.1c-0.3-0.2-0.6-0.3-0.8-0.5c-0.9-0.6-0.6-1.3,0.8-2l-2.1-0.2l-0.7-0.3l-6.4-4.4l-4.9-3.6l-7.1-4.8l-2.4-1.3
		c0.9-0.2,1.8-0.2,2.6-0.2c5.8,0.4,11.8,0.7,17.6,1.1c0.3,0.1,0.6,0.3,0.9,0.4l9.5,0.9l0,0h0.1l0.3-0.1l0.8-0.2l1.2-0.2l0,0h0.1
		L182.9,159.2z M141,173.1L141,173.1c-0.2-0.3-0.3-0.5-0.3-0.6c0-0.1,0.3-0.3,0.4-0.3c0.2,0.1,0.3,0.3,0.3,0.4
		C141.4,172.8,141.2,172.9,141,173.1z M141.6,171.2c-0.2-0.2-0.5-0.4-0.5-0.5c0.2-0.6,0.5-1.1,0.8-1.7l0.8,1.1L141.6,171.2z
		 M145.6,175.2c0.1,0.1,0.2,0.2,0.2,0.3c-0.1,0.1-0.1,0.3-0.3,0.3c-0.1,0-0.2-0.1-0.3-0.2L145.6,175.2z M145.4,173.7
		c0,0.2,0,0.3-0.1,0.5c-0.2-0.3-0.4-0.5-0.6-0.8c-0.1-0.1,0.1-0.4,0.2-1l0,0l0,0l0,0C145.1,172.8,145.3,173.2,145.4,173.7z
		 M161.4,173.2c-0.1-0.1-0.1-0.1-0.2-0.2l0.2-0.2c0.1,0.1,0.1,0.2,0.1,0.3C161.5,173.2,161.4,173.2,161.4,173.2z M164,174.6
		c-0.3-0.2-0.5-0.3-0.8-0.5c0.1-0.1,0.1-0.2,0.2-0.3l1,0.6C164.2,174.5,164,174.7,164,174.6z M157.8,163.1l1.1,0.9
		c-0.2,0.1-0.4,0.3-0.5,0.3c-0.3-0.2-0.6-0.4-0.9-0.7C157.6,163.3,157.6,163.2,157.8,163.1z"/>
	<path class="st44" d="M214.4,173.1l0.9,0.1l2.9-0.1c0.4-1.9-0.4-2.7-2.3-3.3c-2.5-0.7-4.9-1.8-7.4-2.7c-1-0.1-1.8-1.2-2.8-0.2
		c0.1,0.3,0.1,0.5,0.2,0.9c1.1,0.4,2.2,0.6,3.3,1c1.1,0.4,2.1,0.9,2.8,1.9l0.4,0.5l2,0.9c-0.8-0.2-1.6-0.4-2.4-0.6
		c-1.1-0.4-2.3-0.2-3.2,0.5c-0.4,0.1-0.9,0.1-1.3,0.1c-0.3-0.1-0.6-0.3-0.9-0.5l0.9-0.2l-1.9-0.9c0.9,0.1,1.7,0.2,2.6,0.3
		c0.2,0,1.4,0.4,0.3-0.5c-0.3-0.2-0.6-0.3-0.9-0.3c-0.9-0.3-1.7-0.6-2.6-1c-2-0.1-3.8-0.3-5.2-1.9l-2.1-1l-2,0.1l-2.5,2l-0.9,0.6
		c-1,1.6-2.8,0.9-4.2,1.3l0.8,0.5c-0.1,0.1-0.3,0.2-0.4,0.2c-0.2-0.2-0.4-0.4-0.5-0.6l-1.1-0.2c-0.5-0.2-1.3,0.2-1.1-0.9l-1,0.4
		c-1.3,1.9,1.2,2.9,1.1,4.5l0.7-0.4c0.2-0.5,0.3-1.1,0.5-1.7h0.9l0.3,0.2l1.5,1l2.2-0.5l1.1-0.4l1.1-0.5l0.4,0.1l1.1,0.1L194,170
		c-0.7,0.3-1.4,0.6-2.1,1c-0.1,0-0.1-0.1-0.2-0.2l1.1-1.1l0.2-0.2l1-0.4l-0.1,0.9l2.2-0.2l-0.8,0.6c0.3,0.2,0.6,0.3,0.9,0.4
		c0.2,0.1,0.4-0.2,0.5-0.1c0.5,0.3,1,0.5,1.6,0.8l-0.6,0.9c0.9,1,1.7,1.9,2.5,2.9c0.1,0.1-0.2,0.4-0.2,0.4c-1-0.4-2-0.9-3.1-1.3
		l-1.3,0.2c-0.5,0.3-0.9,0.4-0.8-0.4H193l0.1,0.2l0.7,0.3l-0.6,0.1l-1.2-0.6l-0.6,0.9h-0.4l1.1,0.2l2.4,0.6h2.2
		c0,0.6,0.1,1.2,0.1,1.8c0.3,0.6,2.5-0.8,1.5,1.3c1.4,0.2,3.5-0.5,2.9,2.2c-0.1,0.2-0.2,0.4-0.3,0.6l-0.2,1.1l0,0c0,0.1,0,0.1,0,0.2
		l0.4,0.7c1.3,0.1,2.8,1.5,4-0.5c0.1-0.1-0.6,2,0.9,2.3l0.5,0.4l0.2,0.3l0.6-0.1c-0.1-0.5-0.2-1-0.3-1.4l1.3,1.3l1.5,1.4
		c2.3,1,6.5,0.2,4.6,5l3.6,0.1h0.3l0,0c0-3.2,0-6.5,0-9.7c0-0.2,0-0.4,0-0.6l0,0l0,0c0-2.6,0-5.3,0-7.9l-3.1-0.8l-2.8-0.5l1-0.2
		C213.7,172.5,214,172.4,214.4,173.1z M209.4,172.7l0.7-0.7l0.2,0.6L209.4,172.7l-0.3,0.1L209.4,172.7z M202.5,169.4
		c0.5,0.1,1,0.3,1.6,0.4l-0.6,0.2l-1.3-0.5C202.2,169.4,202.3,169.4,202.5,169.4z M206.4,184.4c-0.1,0-0.3-0.3-0.3-0.3
		c0.1-0.2,0.3-0.3,0.4-0.4l0,0c0.1,0.2,0.3,0.3,0.2,0.4C206.6,184.3,206.5,184.4,206.4,184.4z M209.4,185.1c-0.4,0-0.8-0.1-1.1-0.4
		c0.3-1.4-0.9-1.2-1.7-1.4h-0.3l-0.6-0.4h-0.1c-0.1-0.9-0.2-1.7-0.3-2.6l-0.8-0.6l-0.5,0.7l-0.5-0.1l-0.1-0.1l-0.6-0.6l-1.6-0.3
		l-0.9-1.1l0.8-0.9l-0.8-0.3c0.5-0.9,1.1-1.7,1.7-2.4c0.2-0.2,0.8,0.1,1.2,0.2c-0.4,0.3-0.9,0.4-1.1,0.8c-0.2,0.5-0.4,1-0.4,1.5
		l1.9,0.5c1.1,1,2,2.4,3.9,1.2l-1.7-0.3c0.1-0.1,0.2-0.3,0.3-0.3c0.6,0.2,1.1,0.3,1.7,0.5l1,1.5c1.3,0.3,1.4,1.5,1.8,2.5
		c0.1,0.2,0.1,0.3,0.2,0.4l0.9,0.7C211,184.5,210.2,184.8,209.4,185.1z M211.6,181.6c0-0.1,0.3-0.3,0.5-0.4c0.3,0.3,0.5,0.6,0.7,0.9
		c0.1,0.1-0.2,0.4-0.4,0.8l0,0C212.1,182.5,211.8,182.1,211.6,181.6z M217.3,183c-0.2,0.2-0.4,0.4-0.6,0.4c-0.2,0-0.5-0.3-0.7-0.4
		c-0.1-0.1-0.1-0.1-0.2-0.1c-0.4-0.1-0.7,0-0.9,0.1c-1.1,0.5,0.1,2.6-1.2,2.9l0.1,0.6c-0.1,0.3-0.2,0.6-0.3,1l-1.5-0.4
		c0.3-0.8-1.6-1-0.5-1.9c0.4-0.3,0.7-1.1,1.3-0.3l0.4,0.1c0.3-0.7,0.7-1.3,1.1-2c0.2-0.3,0.3-0.5,0.5-0.8c1.1-1.3,1.8,0.8,2.8,0.4
		C217.5,182.8,217.4,182.9,217.3,183z M216,176.3l1.6,0.9c-0.1,0.1-0.3,0.2-0.3,0.2c-0.4-0.2-0.9-0.4-1.2-0.6l-2.7-0.2
		c0.2,0.9,2,1.3,0.8,2.4c-1.3,1.1-2.4,0.8-2.6-1.1c0-0.1-0.3-0.2-0.3-0.2c-0.2,0.1-0.3,0.2-0.4,0.3c-0.1,0.4-0.2,0.9-0.2,1.2
		c-0.1-0.2-0.4-0.4-0.3-0.5c0.4-0.7-1-1.7,0.4-2.1l0,0l1.2,0.4l0.2-1.2l-0.2-0.2c-2.5,0.4-3.6-2.5-5.9-2.5c0.1-0.1,0.2-0.3,0.2-0.3
		c1.9,0.5,3.8,1,5.7,1.5C213.4,174.4,214.9,175.1,216,176.3z M210.7,176.8l0.2-0.3l0.1,0.1L210.7,176.8z"/>
	<g>
		<path class="st44" d="M177.8,171.7c0.9-0.3,1.1-1,0.7-1.8c0-0.9,0-1.9-0.1-2.8l-2,0.9l-0.8,1.5l0.1,0.3l0.4-0.1l0.2-0.6l0.8-0.4
			l-0.1,1.7l-1.1,0.3v0.3l0.4,0.3l0.9,0.7l0,0c-0.1,0.1-0.2,0.3-0.2,0.4l0.1,0.5c0.3-0.1,0.6-0.1,0.9-0.1c0.2,0,0.3-0.1,0.5-0.2
			c0.1,0,0.1-0.1,0.1-0.1l0.1-0.1c0.1-0.2,0.2-0.4,0.2-0.8h-1V171.7z M177.4,170.8l-0.3-0.4l0.5,0.2L177.4,170.8z"/>
		<path class="st44" d="M186.8,178.6c0.3-0.9,0.5-1.7,0.9-2.5l-0.6-0.4l-0.3-0.1l-0.4,0.1c0.2,1.9-1,3.1-2.5,3.9
			c-0.2,0.2-0.4,0.3-0.6,0.5c-0.2-0.4-0.3-0.9-0.3-1.3c0-0.1,0.4-0.2,0.6-0.3l2.2-1.1c-0.5-0.3-1.1-0.6-1.4-1c-0.8-1.2,1.3-0.1,1-1
			l-0.1-0.1l-0.8-0.1c-2.5,0.8-1.4-1.8-2.4-2.4l-0.5-0.4c-0.1-0.1-0.1-0.2-0.1-0.2c-0.7-0.9-1.5-1.2-2.5-0.5c0,0.4-0.1,0.6-0.2,0.8
			l-0.1,0.1c-0.1,0.1-0.1,0.1-0.1,0.1c-0.1,0.1-0.3,0.1-0.5,0.2c-0.3,0.1-0.6,0.1-1,0.1l-2-0.3l-0.9,2l-0.1,0.6
			c1-0.9,1.8-2.6,3.4-1.6c1.2,0.8-0.5,1.8-0.4,2.8l1.9,0.2l0.2-0.6l0.3,0.3c0.2,0.3,0.4,0.6,0.5,0.9c0,0-0.2,0.1-0.2,0.2l-0.3-0.8
			l-0.5,0.1l0.2,1.1l-0.9,0.3c-1,0.4-0.1,0.9,0,1.3l0.7,0.4l-0.5,0.5l1.1,0.2l0.2-0.6l0.1-0.3l-0.5-0.3l0.7-1
			c0.9-0.6,1.6-0.2,2.1,0.5l-2.2,0.4l0.1,0.3l0.9,0.6l0.7,0.9h-0.6l-0.9,0.3l-1.2,1.3l-0.2,0.5l0.3,0.6l0.3,0.2l-0.3,0.1
			c0.5,1.4,1.1-0.4,1.6,0l-0.1-0.9l-0.1-0.8l1,0.8l0.8,0.6c-0.2,0.1-0.3,0.2-0.5,0.3c-0.3,0.1-0.6,0.2-1,0.3l-0.1,0.4
			c1,0.2,2.1-1.2,3.1,0.2c0.3,1.5-0.1,2.8-1.3,3.8l1.3-0.4c1.8-1.8,0.5-3.4-0.1-5.1c-0.2-0.5-0.4-1-0.4-1.4l-1-0.6l1,0.1l0.3-0.3
			l0.1,0.1l-0.3,0.3v0.4c3.1-3.2,2.3-0.5,2.1,1.4c0,0.1,0,0.1,0,0.2c0,0.5,0,1,0,1.6l2.3-0.1l-1.6,0.5l1.3,0.9l1.3-0.7
			c-0.5-1.3,0.7-1.6,1.4-2.2l0,0C187.9,182.8,186.8,181.2,186.8,178.6z M184.2,176.8c0.2,0,0.5,0.1,0.7,0.2
			c-0.3,0.1-0.4,0.2-0.5,0.2s-0.3-0.1-0.4-0.1C184,177,184.1,176.8,184.2,176.8z M179.4,174c-0.2-0.4-0.4-0.6-0.4-0.7
			c0.1-0.3,0.3-0.5,0.4-0.8c0.1,0.2,0.3,0.4,0.3,0.5C179.6,173.4,179.5,173.7,179.4,174z"/>
	</g>
	<path class="st38" d="M137.7,177.1c-0.1,0-0.1-0.1-0.2-0.1c-0.1,0-0.2-0.1-0.2-0.1c-0.1,0-0.2-0.1-0.3-0.1c-0.4-0.1-0.8,0-1.3,0.1
		c-0.1,0-0.2,0-0.2,0c-0.2,0-0.4,0-0.5,0c-1.3-0.2-1.5-1.4-1.9-2.5l0,0c-0.6-0.7-0.2-1.1,0.4-1.5l0,0c-0.1-0.3-0.2-0.4-0.3-0.4l0,0
		l0,0c-0.4-0.2-0.8,0.6-1.2,0.5l0,0c-0.2,0-0.4,0-0.6,0.1c-0.1,0-0.2,0-0.3,0.1c-0.1,0-0.2,0.1-0.3,0.1c-0.1,0-0.1,0.1-0.2,0.1
		c-0.1,0-0.1,0.1-0.2,0.1c-0.8,0.4-1.2,1.2-1.2,2.4c0.1,3.1-0.5,5.3-4.2,4.5l0,0c-0.1,0-0.2-0.1-0.2-0.1v0.2l0,0l-0.2,1.6l0.1-0.1
		l-0.1,0.1l-0.2,0.5l1,0.6c0.3-0.2,0.6-0.9,1,0l0.5-0.5l0,0c0-0.1,0-0.1,0.1-0.1l0,0l0.1-0.7l0,0c0.1,0,0.1,0,0.1-0.1
		c0.1-0.1,0.2-0.1,0.2-0.1c0.1-0.1,0.1-0.1,0.2-0.2c0.1-0.1,0.1-0.1,0.1-0.1c0.3-0.3,0.5-0.5,0.8-0.6c0.1,0,0.1,0,0.1,0
		c0.1,0,0.1,0,0.2,0c0.3,0,0.8,0.4,1.3,1.5c0.3,0.6,0.5,0.8,0.7,0.8h0.1c0.5-0.2,0.6-2.3,1.5-2.7c0.1,0,0.1,0,0.1-0.1
		c0,0,0.1,0,0.1,0c0.2-0.1,0.5,0,0.8,0.2c0.2,0.1,0.4,0.2,0.6,0.2c0.1,0,0.2,0,0.2,0c0.3,0,0.6,0,0.9,0.1c1.2,1.1,1.9-0.5,2.8-0.7
		l0,0l0,0C138.5,178.4,138.4,177.5,137.7,177.1z M136.9,179.4c-0.2-0.2-0.6-0.5-0.6-0.6c0.2-0.4,0.4-0.8,0.6-1.1l0.8,0.9
		L136.9,179.4z"/>
	<path class="st34" d="M144.6,183.5c-0.2,0.4-0.4,0.8-0.5,1.2c-0.3-0.3-0.8-0.5-0.8-0.7c0.1-0.5,0.3-1.4,0.6-1.4
		c1.7-0.3,1.3-1.9,1.8-2.8c-0.2-0.3-0.4-0.5-0.5-0.8c-1.8,0.4-1,3.6-3.5,3.2h-0.2c-0.3,0.1-0.5,0.1-0.8,0c-0.1-0.1-0.2-0.5-0.1-0.7
		c0.3-0.7,0.7-1.3,1.1-2c-0.3-0.5-0.6-1.1-0.9-1.6l-0.8-0.1l0,0l-0.4-0.4l-3.1-1.2l0,0c-0.1-0.3-0.2-0.4-0.4-0.6
		c-0.1-0.1-0.1-0.1-0.2-0.2c-0.1-0.1-0.1-0.1-0.2-0.2c-0.1-0.1-0.1-0.1-0.1-0.1c-0.1-0.1-0.1-0.1-0.1-0.1c0,0-0.1,0-0.1-0.1
		c-0.1-0.1-0.2-0.1-0.2-0.2c-0.5-0.3-1.1-0.5-1.7-0.6l-0.8,0.4l0,0c0.4,1.1,0.6,2.4,2,2.5c0.2,0,0.3,0,0.5,0c0.1,0,0.2,0,0.2,0
		c0.5-0.1,0.9-0.1,1.3-0.1c0.1,0,0.2,0,0.3,0.1c0.1,0,0.2,0.1,0.2,0.1c0.1,0,0.1,0.1,0.2,0.1c0.8,0.4,0.8,1.3-0.1,2.7l0,0
		c0.6,0.2,1.4-1.1,1.9,0.2c0.4,1.3,1.2,2.8,0.9,4c-0.3,1-1.4-0.4-2.1-0.6H138c-0.6,0-1.2,0.2-1.1-0.8l-0.5-0.4l-3.2,0.6
		c-0.6,1.4,1.5,1.2,1.4,2.4v0.1l1.9,1.3l0,0l1.7-0.3l1.5-0.4c1-0.5,1.8,0,2.4,0.7c0,0,0,0,0.1,0.1l2.3-0.7c0.3-0.8,0.6-1.6,0.9-2.3
		C145.1,183.5,144.7,183.4,144.6,183.5z M134.6,183.6c0.2-0.1,0.4-0.4,0.6-0.4c0.2,0,0.4,0.2,0.6,0.4l-0.6,0.3L134.6,183.6z
		 M137.2,185l-0.9-0.6l0.7-0.4c0.2,0.2,0.5,0.2,0.6,0.4C137.6,184.5,137.4,184.8,137.2,185z"/>
	<path class="st37" d="M145.6,191.1l-0.4,0.2c-0.7-0.1-1.6,0.1-1.1-1.1l1.3-2.4l-0.8-1.3c0-0.2-0.1-0.4-0.1-0.6l0,0l-2.3,0.7h-0.1
		l-2.4-0.5l-0.7,0.3c0,0.8,0.2,1.8-0.9,1.9c-0.4,0-0.8-0.8-1.2-1.2l-0.4-0.4l0,0l-1.9-1.3l-1.7-1.3c-0.9,0.6,0,2.6-2,2.2
		c0.6,1.4,1.3,2.8,2,4.2l2.6,2.5l0.9-0.2c-0.5-0.8-1.1-1.6-1.6-2.4c0-0.1,0-0.2,0-0.2c-0.4-0.3-0.8-0.5-1.2-0.9
		c-0.2-0.2,0.1-0.6,0.1-1l1,0.4c2.6,0.5,5.2,1.8,8,0.8c-0.8,1.2,2.6,2.2,0.2,3.5c-0.3,0.2-0.9,0-1.3,0l3.5,1.3
		C146.4,193.1,147.2,192.2,145.6,191.1z M132.5,187c-0.1-0.1-0.2-0.2-0.2-0.2s0.1-0.2,0.2-0.3l0,0l0,0l0,0c0.1,0.1,0.3,0.2,0.3,0.2
		C132.6,186.9,132.6,186.9,132.5,187z"/>
	<path class="st34" d="M126.9,181.6c1-0.3,1.4-2.6,2.9,0.3c1.4,2.9,0.9-3.3,3.2-1.8c0.5,0.3,1.2,0.2,1.8,0.3l-1.5,1.5l-0.7-0.9
		l-0.4,0.1v1.1c-0.5,0.8,1,4.6-2.3,1.6l-0.4,0.8l-0.2,0.9l-0.7-0.3c0-0.5,0-1.1,0-1.6c1.4-3.3-1.1-0.9-1.7-1.2l-0.1-0.1
		c0-0.1,0-0.1,0.1-0.1l0.8-0.3L126.9,181.6z"/>
	<path class="st45" d="M131.8,173c0-0.5-0.1-0.9-0.1-1.4l0,0l-1.8-1.5l0,0l-1.3-1.4c-0.2-0.8-0.3-1.3-0.3-1.3
		c-0.2-0.1-1.3-1.6-1.3-1.6l-0.2,1.4l-0.2-0.1l-0.4,0.1v0.4c-0.2,0.3,0,0.5,0.4,0.6l-0.7,4.2c-0.1,0.3-0.2,0.6-0.3,0.9l0,0l0.2,0.2
		l-0.1,0.3h-0.1l0.1,0.2l-0.4,2.4h-0.2v0.9l-0.3,2.1l-0.1,0.1c0,0.2,0,0.3-0.1,0.4l-0.1,0.4l0.3-0.2c3.7,0.8,4.3-1.4,4.2-4.5
		C128.9,173.9,130,173,131.8,173z"/>
	<path class="st46" d="M219.1,169.3c0-1.1-0.3-1.2-0.3-1.2l-3.7-1l-0.3-0.1l-2.3-0.6l-14.6-4.1l-3.1-0.8l-3.5-0.8l-6.5-1.2l0,0
		l-0.5-0.1l-1.1-0.2h-0.1H183l0,0c-0.1,0-0.2-0.1-0.3-0.1l0,0l0,0l0,0c-1-0.2-1.9-0.3-2.7-0.5c0.3,0,0.6,0.1,0.9,0.1
		c-3.2-0.5-6.3-1-9.6-1.4c-0.2,0-0.4-0.1-0.5-0.1c-5.8-0.8-11.6-1.3-17.4-1.3c-7.1,0-14.1,0.8-21.2,3l-3.5,2.3l0,0
		c0,0.1-0.1,0.1-0.1,0.1l-0.2,0.2l-0.9,3c0.1,0.1,0.1,0.2,0.2,0.3c0.7,0.9,1.3,1.7,2,2.6l-0.1-0.5l-0.8-1.8l-0.4-1.4l0,0
		c0.8-2.7,3-3.6,5.4-4.5l0,0c0-0.1,0.1-0.1,0.1,0l0.3-0.1l8.7-1.8l2.2-0.4l0.8-0.1c2.6-0.1,5.1-0.4,7.6-0.3c0.3,0,0.5,0,0.8,0.1
		c4.4,0.3,8.9,0.7,13.3,1.1c1.2,0.1,2.4,0.2,3.5,0.3c0,0,0,0,0.1,0c0,0,0,0,0.1,0c0.6,0.1,5.1,0.8,9.6,1.6c0.1,0,0.1,0,0.2,0.1
		c2.5,0.4,5,0.9,6.9,1.2l0,0c0.1,0,0.2,0.1,0.3,0.1h0.1l0.4,0.1h0.3c0.5,0.1,1,0.2,1.3,0.3l3.8,0.9c1.2,0.3,2.7,0.7,4.5,1.2
		c1.7,0.5,3.6,1,5.6,1.6l-0.4,0.1l3.8,1.1l0,0l3.5,1.1c1.3,0.4,2.6,0.8,3.9,1.1c1.1,0.3,2.1,0.5,3.2,0.8l0,0c0.1,0,0.1,0,0.1,0.1
		c0-0.1,0-0.1,0-0.1c0.3,0.1,0.5,0.2,0.7,0.3C219,169.1,219.1,169.2,219.1,169.3z M128.3,163.9l-0.1-0.1c0.1-0.1,0.1-0.2,0.1-0.3
		V163.9z"/>
</g>
<g id="Calque_3">
	<path class="st47" d="M160.2,43.3c-0.1,0.4,0.1,0.7,0.5,0.8c0.5,0.1,0.8,0.4,1.3,0.4c0.6-0.1,1,0.3,1,1c0,0.9,0.1,1.7,0.1,2.5
		c0.3,5.8,0.3,11.6,0.1,17.4c-0.1,1.6-0.1,1.6-1.7,2c-0.8,0.2-1.2,0.5-1.1,1.4c0.1,0.6,0.1,1.2,0,1.8c-0.1,0.9,0.2,1.1,1.1,1.1
		c8.5-0.1,17-0.2,25.5-0.1c0.7,0,1-0.2,1.1-0.9c0.4-2,0.9-4.1,1.3-6.1c0.4-1.9,0.7-1.7-1.4-2.4c-2.3-0.8-2.3-0.9-3.3,1.3
		c-0.3,0.6-0.9,1.1-1.5,1.1c-2.8,0.6-5.8,0.8-8.7,0.6c-0.6,0-1-0.2-1-0.9c0-2.1-0.1-4.1-0.1-6.2c0-0.6,0.2-0.8,0.8-0.8
		c1.4,0.1,2.9,0,4.3,0.2c0.4,0.1,0.8,0.2,0.9,0.6c0.3,1.3,1.2,1.7,2.4,1.5c0.5-0.1,1.1-0.1,1.7,0c0.5,0,0.7-0.2,0.6-0.7
		c-0.1-0.8-0.2-1.6-0.2-2.3c-0.3-2.2-0.1-4.4,0-6.6c0-0.7-0.2-1-1-1c-1,0.1-1.9,0.1-2.8,0c-0.6-0.1-1,0.1-0.8,0.8
		c0.2,0.8-0.2,1.2-1,1.2c-1.4,0-2.8,0.1-4.2,0.1c-0.4,0-0.8,0.1-0.9-0.4c-0.2-1.4-0.1-2.8-0.1-4.2c0-0.2,0.1-0.4,0.3-0.4
		c1.8-0.2,3.7-0.1,5.5-0.1c2,0,3.9,0.4,4.9,2.5c0,0.1,0.1,0.1,0.1,0.2c0.2,0.3,0.7,0.4,1,0.2c0.8-0.4,1.6-0.6,2.4-1
		c0.1,0,0.1,0,0.1-0.1c0.4-0.2,0.5-0.6,0.4-1c-0.4-2.1-1.1-4.1-1.6-6.2c-0.2-0.8-0.5-1.1-1.3-1.1c-7.2,0.1-14.5,0.1-21.7,0.1
		c-1,0-2.4-0.4-3,0.2s-0.1,2-0.2,3C160.2,43.2,160.2,43.2,160.2,43.3z"/>
	<path class="st47" d="M129.7,64.4c1,2.3,2.8,3.9,4.8,5.3c4.4,3.1,9.3,3.3,14.4,2.4c4.5-0.8,7.9-3.3,11.1-6.3c0.4-0.4,0.3-0.6,0.1-1
		c-0.9-1.2-1.8-2.3-2.8-3.3c-0.4-0.5-0.8-0.5-1.3-0.1c-1.3,1-2.6,2.3-4.2,2.8c-2.8,1-5.8,1.5-8.6-0.3c-2.6-1.5-4.4-4.2-4.8-7.2
		c-0.7-5.1,1.7-9.8,7.6-10.4c2-0.3,4,0.2,5.7,1.3c0.3,0.2,0.5,0.4,0.5,0.8c0.2,0.8,0,1.8,0.6,2.1c0.6,0.4,1.5,0.2,2.3,0.3h0.4
		c1.4,0.1,1.4,0.1,1.4-1.3c0.2-2.3,0.6-4.6,1.3-6.8c0.3-0.9,0.1-1.1-0.6-1.4c-3.2-1.2-6.5-1.9-9.5-1.8c-3.7-0.1-6.8,0.4-9.7,1.6
		c-3.9,1.7-7,4.2-9,8.1c-1.5,3-2,6.4-1.4,9.7C128.4,60.7,128.9,62.6,129.7,64.4z"/>
	<path class="st47" d="M112.5,71.6c3.9-0.3,7.7-0.3,11.5-0.1c1,0.1,2.2,0.5,2.8-0.1c0.5-0.7,0.1-1.9,0.2-3c0.1-0.5-0.3-1-0.8-1.1
		c-1.8-0.6-1.8-0.6-1.9-2.5c0-0.2,0-0.4,0-0.6c-0.3-5.8-0.2-11.6-0.2-17.4c0-2.2,0.1-2.2,2-2.8c0.5-0.1,0.8-0.5,0.7-1
		c-0.1-0.9-0.1-1.7,0.1-2.5c0.1-0.8-0.2-0.8-0.8-0.8c-1.8,0.1-3.6,0.2-5.4,0.2c-2.8,0.1-5.6,0-8.4-0.3c-0.6-0.1-1,0.1-0.9,0.8
		c0.1,0.6,0,1.2,0,1.8c0,1.6,0.1,1.7,1.7,2h0.1c0.5,0.1,1,0.5,0.9,1.1c0.1,4.1,0.3,8.2-0.1,12.2c0,2.7-0.1,5.3-0.1,8
		c0.1,1.2-0.5,1.6-1.6,1.7c-0.8,0.1-1.1,0.5-1.1,1.3c0.1,0.7,0.1,1.3,0,2C111.4,71.4,111.7,71.7,112.5,71.6z M125.3,68.9L125.3,68.9
		L125.3,68.9z"/>
	<path class="st47" d="M194.2,101.4c-1.4-0.2-1.8-1.3-2.2-2.4c-0.1-0.3-0.2-0.7-0.3-1c-1.7-4-3.2-8-4.6-12
		c-1.3-3.6-2.5-7.2-3.6-10.9c-0.1-0.3-0.2-0.9-0.5-1c-1.6-0.4-3-1.3-4.7-0.8c-1.6,0.6-3.2,1.1-4.9,1.3c-0.7,0.1-1.2,0.5-1.4,1.2
		c-0.5,2.1-1.3,4.1-1.9,6.1c-1.9,6.1-4.2,11.9-6.7,17.8c-0.3,1-1.3,1.7-2.3,1.6c0-0.4-0.1-0.8,0-1.1c0.1-0.3,0.2-0.5,0.2-0.9
		c0.5-3,1.2-2.4-2-3.5c-1.4-0.5-1.4-0.4-2.3,0.9c-0.3,0.5-0.5,1.2-1.2,1.4c-0.9,0.3-1.7,0.5-2.6,0.7c-2.3,0.5-4.7,0.3-7.1,0.3
		c-0.5,0-0.6-0.2-0.6-0.6c0-2.1-0.1-4.3-0.1-6.5c0-0.4,0.2-0.6,0.6-0.6c1.5,0,3-0.1,4.5,0.1c0.4,0.1,0.9,0.2,1,0.6
		c0.3,1.4,1.3,1.6,2.6,1.5c0.5-0.1,1-0.1,1.6,0c0.5,0,0.7-0.3,0.6-0.7c-0.4-3-0.5-6-0.3-8.9c0.1-0.7-0.3-0.9-0.9-0.9
		c-0.9,0-1.8,0.1-2.6,0c-0.7-0.1-1,0.3-1,1c0.1,0.7-0.2,1.1-1,1.1c-1.4,0-2.8,0.1-4.3,0.1c-0.8,0.1-1-0.3-0.9-1c0.1-0.7,0-1.3,0-2
		c0-2.1,0-2.1,2-2.1c2.3,0,4.6-0.1,6.9,0.5c0.3,0.1,0.9,0.2,0.9,0.5c0,0.8,0.8,1.1,1,1.7c0.2,0.4,0.5,0.5,1,0.3
		c0.8-0.4,1.6-0.7,2.4-1c0.1,0,0.1-0.1,0.2-0.1c0.4-0.2,0.6-0.6,0.4-1.1c-0.6-2.1-1.2-4.3-1.7-6.5c-0.2-0.6-0.5-0.7-1-0.7
		c-2.7,0.1-5.4,0.1-8.1,0.1c-6.2,0-12.4-0.1-18.6,0c-5.9,0.1-11.8,0.3-17.7,0.2c-2.7-0.1-5.5-0.2-8.3-0.2c-0.4,0-0.9-0.2-0.9,0.4
		c-0.3,2.7-1.3,5.2-1.9,7.8c-0.1,0.1-0.1,0.1-0.1,0.2c-0.1,0.4,0.2,0.8,0.6,0.9c0.9,0.3,1.8,0.6,2.7,1c0.4,0.2,0.8,0.1,1-0.3
		c0.4-0.8,1-1.4,1.2-2.3c0.1-0.4,0.4-0.7,0.8-0.7c1-0.2,2-0.3,3.1-0.4c1.6-0.1,1.6-0.1,1.7,1.4c0.3,4.6,0.3,9.2,0.2,13.8
		c0,1.6-0.2,3.1-0.3,4.7c0,0.5-0.3,0.8-0.8,0.9c-2.3,0.6-2.3,0.6-2.2,3c0,0.2,0,0.3,0,0.5c-0.1,0.8,0.2,1.1,1.1,1.1
		c4.6-0.3,9.3-0.3,13.9,0c1.7,0.1,1.6,0.4,1.6-1.6c0-2.4,0-2.4-2.3-3c-0.5-0.1-0.9-0.5-0.8-1c-0.4-6.4-0.4-12.8-0.4-19.3
		c0-0.6,0.2-0.8,0.8-0.8c1.2,0.1,2.4,0.2,3.6,0.4c0.6,0.1,1.1,0.4,1.3,1.1c0.3,0.7,0.7,1.3,1.2,1.9c0.4,0.6,1.4,0.5,2,0l0,0
		c0.5-0.2,1-0.5,1.5-0.6c0.5-0.2,0.8-0.5,0.6-1.1c-0.3-1-0.6-1.9-0.9-2.9c-0.1-0.3-0.2-0.6,0.2-0.7c0.9-0.1,1.7,0.5,1.9,1.4
		c0.2,1.7,0.2,3.4,0.3,5.1c0.3,5.1,0.3,10.2-0.1,15.3c0,0.5-0.4,1.1-0.9,1.2c-1.9,0.6-1.9,0.6-1.9,2.6c0,0.3,0,0.6,0,0.9
		c-0.1,0.9,0.3,1,1.1,1c3.2-0.1,6.3-0.2,9.4-0.2c6.3-0.1,12.5-0.1,18.8,0.1c3.4,0.1,6.8-0.2,10.1,0.1c0.6,0.1,1-0.1,1-0.9
		c-0.1-0.7-0.1-1.4,0-2.1c0.1-0.8-0.2-1.3-1.1-1.3c-0.5-0.1-1-0.2-0.8-1c0.5-1.7,1-3.3,1.4-5c0.1-0.4,0.3-0.7,0.8-0.7
		c2,0,4.1,0,6.1,0c0.4,0,0.7,0.1,0.8,0.5c0.2,1.6,0.9,2.9,1.4,4.4c0.5,1.4,0.6,1.4-1,1.9c-0.1,0-0.1,0-0.2,0
		c-0.5,0.1-0.8,0.6-0.6,1.1c0.1,0.8,0.1,1.5,0,2.3c-0.1,0.9,0.3,1,1.1,1c4.1-0.1,8.2-0.1,12.3-0.1c2.6,0,2.5,0,2.6-2.5
		C195.7,102.1,195.3,101.5,194.2,101.4z M176.8,88.6c-0.3,0-0.5,0-0.8,0l0,0c-1.9,0-1.6,0.1-1.1-1.6c0.2-0.6,0.4-1.3,0.6-1.9
		c0.1-0.3,0.3-0.5,0.5-0.5s0.4,0.3,0.4,0.5c0.3,0.9,0.6,1.7,1,2.5C177.8,88.3,177.7,88.7,176.8,88.6z"/>
</g>
</svg>
