<?xml version="1.0" encoding="utf-8"?>
<!-- Generator: Adobe Illustrator 25.2.3, SVG Export Plug-In . SVG Version: 6.00 Build 0)  -->
<svg version="1.1" xmlns="http://www.w3.org/2000/svg" xmlns:xlink="http://www.w3.org/1999/xlink" x="0px" y="0px"
	 viewBox="0 0 338.9 524.4" style="enable-background:new 0 0 338.9 524.4;" xml:space="preserve">
<style type="text/css">
	.st0{fill:#CDD9ED;}
	.st1{fill:url(#SVGID_1_);}
	.st2{fill:url(#SVGID_2_);}
	.st3{fill:url(#SVGID_3_);}
	.st4{fill:url(#SVGID_4_);}
	.st5{fill:url(#SVGID_5_);}
	.st6{fill:url(#SVGID_6_);}
	.st7{fill:url(#SVGID_7_);}
	.st8{fill:url(#SVGID_8_);}
	.st9{fill:url(#SVGID_9_);}
	.st10{fill:url(#SVGID_10_);}
	.st11{fill:url(#SVGID_11_);}
	.st12{fill:url(#SVGID_12_);}
	.st13{fill:url(#SVGID_13_);}
	.st14{fill:url(#SVGID_14_);}
	.st15{fill:url(#SVGID_15_);}
	.st16{fill:url(#SVGID_16_);}
	.st17{fill:url(#SVGID_17_);}
	.st18{fill:url(#SVGID_18_);}
	.st19{fill:url(#SVGID_19_);}
	.st20{fill:url(#SVGID_20_);}
	.st21{fill:url(#SVGID_21_);}
	.st22{fill:url(#SVGID_22_);}
	.st23{fill:url(#SVGID_23_);}
	.st24{fill:url(#SVGID_24_);}
	.st25{fill:url(#SVGID_25_);}
	.st26{fill:url(#SVGID_26_);}
	.st27{fill:url(#SVGID_27_);}
	.st28{fill:url(#SVGID_28_);}
	.st29{fill:url(#SVGID_29_);}
	.st30{fill:url(#SVGID_30_);}
	.st31{fill:url(#SVGID_31_);}
	.st32{fill:url(#SVGID_32_);}
	.st33{fill:#D1A717;}
	.st34{fill:#E4C77D;}
	.st35{fill:#F6F6F6;}
	.st36{fill:#E99F15;}
	.st37{fill:#E6BA22;}
	.st38{fill:#E3D1AB;}
	.st39{fill:#CA5E1A;}
	.st40{fill:#D4A95C;}
	.st41{fill:#D4871E;}
	.st42{fill:#E9CC39;}
	.st43{fill:#918148;}
	.st44{fill:#A49F98;}
	.st45{fill:#DAD7D8;}
	.st46{fill:#4E4B4C;}
	.st47{fill:#AAC6E6;}
</style>
<g id="Calque_2">
	<rect x="86.5" y="0" class="st0" width="252.4" height="522.4"/>
	<g id="Calque_2_1_">
		
			<linearGradient id="SVGID_1_" gradientUnits="userSpaceOnUse" x1="212.695" y1="523.89" x2="212.695" y2="510.88" gradientTransform="matrix(1 0 0 -1 0 523.89)">
			<stop  offset="0" style="stop-color:#FFFFFF"/>
			<stop  offset="0.16" style="stop-color:#CDD9ED"/>
			<stop  offset="0.46" style="stop-color:#7094CD"/>
			<stop  offset="0.78" style="stop-color:#4B76B9"/>
			<stop  offset="1" style="stop-color:#3565AE"/>
		</linearGradient>
		<rect x="86.7" y="0" class="st1" width="251.9" height="13"/>
		
			<linearGradient id="SVGID_2_" gradientUnits="userSpaceOnUse" x1="212.905" y1="510.53" x2="212.905" y2="497.52" gradientTransform="matrix(1 0 0 -1 0 523.89)">
			<stop  offset="0" style="stop-color:#FFFFFF"/>
			<stop  offset="0.16" style="stop-color:#CDD9ED"/>
			<stop  offset="0.46" style="stop-color:#7094CD"/>
			<stop  offset="0.78" style="stop-color:#4B76B9"/>
			<stop  offset="1" style="stop-color:#3565AE"/>
		</linearGradient>
		<rect x="86.9" y="13.4" class="st2" width="251.9" height="13"/>
		
			<linearGradient id="SVGID_3_" gradientUnits="userSpaceOnUse" x1="212.425" y1="497.64" x2="212.425" y2="484.63" gradientTransform="matrix(1 0 0 -1 0 523.89)">
			<stop  offset="0" style="stop-color:#FFFFFF"/>
			<stop  offset="0.16" style="stop-color:#CDD9ED"/>
			<stop  offset="0.46" style="stop-color:#7094CD"/>
			<stop  offset="0.78" style="stop-color:#4B76B9"/>
			<stop  offset="1" style="stop-color:#3565AE"/>
		</linearGradient>
		<rect x="86.5" y="26.2" class="st3" width="251.9" height="13"/>
		
			<linearGradient id="SVGID_4_" gradientUnits="userSpaceOnUse" x1="212.645" y1="484.28" x2="212.645" y2="471.27" gradientTransform="matrix(1 0 0 -1 0 523.89)">
			<stop  offset="0" style="stop-color:#FFFFFF"/>
			<stop  offset="0.16" style="stop-color:#CDD9ED"/>
			<stop  offset="0.46" style="stop-color:#7094CD"/>
			<stop  offset="0.78" style="stop-color:#4B76B9"/>
			<stop  offset="1" style="stop-color:#3565AE"/>
		</linearGradient>
		<rect x="86.7" y="39.6" class="st4" width="251.9" height="13"/>
		
			<linearGradient id="SVGID_5_" gradientUnits="userSpaceOnUse" x1="212.615" y1="470.61" x2="212.615" y2="457.6" gradientTransform="matrix(1 0 0 -1 0 523.89)">
			<stop  offset="0" style="stop-color:#FFFFFF"/>
			<stop  offset="0.16" style="stop-color:#CDD9ED"/>
			<stop  offset="0.46" style="stop-color:#7094CD"/>
			<stop  offset="0.78" style="stop-color:#4B76B9"/>
			<stop  offset="1" style="stop-color:#3565AE"/>
		</linearGradient>
		<rect x="86.7" y="53.3" class="st5" width="251.9" height="13"/>
		
			<linearGradient id="SVGID_6_" gradientUnits="userSpaceOnUse" x1="212.835" y1="457.25" x2="212.835" y2="444.24" gradientTransform="matrix(1 0 0 -1 0 523.89)">
			<stop  offset="0" style="stop-color:#FFFFFF"/>
			<stop  offset="0.16" style="stop-color:#CDD9ED"/>
			<stop  offset="0.46" style="stop-color:#7094CD"/>
			<stop  offset="0.78" style="stop-color:#4B76B9"/>
			<stop  offset="1" style="stop-color:#3565AE"/>
		</linearGradient>
		<rect x="86.9" y="66.6" class="st6" width="251.9" height="13"/>
		<linearGradient id="SVGID_7_" gradientUnits="userSpaceOnUse" x1="212.385" y1="79.53" x2="212.385" y2="92.54">
			<stop  offset="0" style="stop-color:#FFFFFF"/>
			<stop  offset="0.16" style="stop-color:#CDD9ED"/>
			<stop  offset="0.46" style="stop-color:#7094CD"/>
			<stop  offset="0.78" style="stop-color:#4B76B9"/>
			<stop  offset="1" style="stop-color:#3565AE"/>
		</linearGradient>
		<rect x="86.5" y="79.5" class="st7" width="251.8" height="13"/>
		
			<linearGradient id="SVGID_8_" gradientUnits="userSpaceOnUse" x1="212.565" y1="431" x2="212.565" y2="417.99" gradientTransform="matrix(1 0 0 -1 0 523.89)">
			<stop  offset="0" style="stop-color:#FFFFFF"/>
			<stop  offset="0.16" style="stop-color:#CDD9ED"/>
			<stop  offset="0.46" style="stop-color:#7094CD"/>
			<stop  offset="0.78" style="stop-color:#4B76B9"/>
			<stop  offset="1" style="stop-color:#3565AE"/>
		</linearGradient>
		<rect x="86.6" y="92.9" class="st8" width="251.9" height="13"/>
		
			<linearGradient id="SVGID_9_" gradientUnits="userSpaceOnUse" x1="212.655" y1="418.31" x2="212.655" y2="405.3" gradientTransform="matrix(1 0 0 -1 0 523.89)">
			<stop  offset="0" style="stop-color:#FFFFFF"/>
			<stop  offset="0.16" style="stop-color:#CDD9ED"/>
			<stop  offset="0.46" style="stop-color:#7094CD"/>
			<stop  offset="0.78" style="stop-color:#4B76B9"/>
			<stop  offset="1" style="stop-color:#3565AE"/>
		</linearGradient>
		<rect x="86.7" y="105.6" class="st9" width="251.9" height="13"/>
		
			<linearGradient id="SVGID_10_" gradientUnits="userSpaceOnUse" x1="212.875" y1="404.95" x2="212.875" y2="391.94" gradientTransform="matrix(1 0 0 -1 0 523.89)">
			<stop  offset="0" style="stop-color:#FFFFFF"/>
			<stop  offset="0.16" style="stop-color:#CDD9ED"/>
			<stop  offset="0.46" style="stop-color:#7094CD"/>
			<stop  offset="0.78" style="stop-color:#4B76B9"/>
			<stop  offset="1" style="stop-color:#3565AE"/>
		</linearGradient>
		<rect x="86.9" y="118.9" class="st10" width="251.9" height="13"/>
		<linearGradient id="SVGID_11_" gradientUnits="userSpaceOnUse" x1="212.405" y1="131.83" x2="212.405" y2="144.84">
			<stop  offset="0" style="stop-color:#FFFFFF"/>
			<stop  offset="0.16" style="stop-color:#CDD9ED"/>
			<stop  offset="0.46" style="stop-color:#7094CD"/>
			<stop  offset="0.78" style="stop-color:#4B76B9"/>
			<stop  offset="1" style="stop-color:#3565AE"/>
		</linearGradient>
		<rect x="86.5" y="131.8" class="st11" width="251.9" height="13"/>
		
			<linearGradient id="SVGID_12_" gradientUnits="userSpaceOnUse" x1="212.605" y1="378.7" x2="212.605" y2="365.69" gradientTransform="matrix(1 0 0 -1 0 523.89)">
			<stop  offset="0" style="stop-color:#FFFFFF"/>
			<stop  offset="0.16" style="stop-color:#CDD9ED"/>
			<stop  offset="0.46" style="stop-color:#7094CD"/>
			<stop  offset="0.78" style="stop-color:#4B76B9"/>
			<stop  offset="1" style="stop-color:#3565AE"/>
		</linearGradient>
		<rect x="86.6" y="145.2" class="st12" width="251.9" height="13"/>
		
			<linearGradient id="SVGID_13_" gradientUnits="userSpaceOnUse" x1="212.575" y1="365.03" x2="212.575" y2="352.02" gradientTransform="matrix(1 0 0 -1 0 523.89)">
			<stop  offset="0" style="stop-color:#FFFFFF"/>
			<stop  offset="0.16" style="stop-color:#CDD9ED"/>
			<stop  offset="0.46" style="stop-color:#7094CD"/>
			<stop  offset="0.78" style="stop-color:#4B76B9"/>
			<stop  offset="1" style="stop-color:#3565AE"/>
		</linearGradient>
		<rect x="86.6" y="158.9" class="st13" width="251.9" height="13"/>
		
			<linearGradient id="SVGID_14_" gradientUnits="userSpaceOnUse" x1="212.795" y1="351.66" x2="212.795" y2="338.65" gradientTransform="matrix(1 0 0 -1 0 523.89)">
			<stop  offset="0" style="stop-color:#FFFFFF"/>
			<stop  offset="0.16" style="stop-color:#CDD9ED"/>
			<stop  offset="0.46" style="stop-color:#7094CD"/>
			<stop  offset="0.78" style="stop-color:#4B76B9"/>
			<stop  offset="1" style="stop-color:#3565AE"/>
		</linearGradient>
		<rect x="86.8" y="172.2" class="st14" width="251.9" height="13"/>
		<linearGradient id="SVGID_15_" gradientUnits="userSpaceOnUse" x1="212.37" y1="185.11" x2="212.37" y2="198.12">
			<stop  offset="0" style="stop-color:#FFFFFF"/>
			<stop  offset="0.16" style="stop-color:#CDD9ED"/>
			<stop  offset="0.46" style="stop-color:#7094CD"/>
			<stop  offset="0.78" style="stop-color:#4B76B9"/>
			<stop  offset="1" style="stop-color:#3565AE"/>
		</linearGradient>
		<rect x="86.5" y="185.1" class="st15" width="251.8" height="13"/>
		
			<linearGradient id="SVGID_16_" gradientUnits="userSpaceOnUse" x1="212.525" y1="325.42" x2="212.525" y2="312.41" gradientTransform="matrix(1 0 0 -1 0 523.89)">
			<stop  offset="0" style="stop-color:#FFFFFF"/>
			<stop  offset="0.16" style="stop-color:#CDD9ED"/>
			<stop  offset="0.46" style="stop-color:#7094CD"/>
			<stop  offset="0.78" style="stop-color:#4B76B9"/>
			<stop  offset="1" style="stop-color:#3565AE"/>
		</linearGradient>
		<rect x="86.6" y="198.5" class="st16" width="251.9" height="13"/>
		
			<linearGradient id="SVGID_17_" gradientUnits="userSpaceOnUse" x1="212.455" y1="312.64" x2="212.455" y2="299.63" gradientTransform="matrix(1 0 0 -1 0 523.89)">
			<stop  offset="0" style="stop-color:#FFFFFF"/>
			<stop  offset="0.16" style="stop-color:#CDD9ED"/>
			<stop  offset="0.46" style="stop-color:#7094CD"/>
			<stop  offset="0.78" style="stop-color:#4B76B9"/>
			<stop  offset="1" style="stop-color:#3565AE"/>
		</linearGradient>
		<rect x="86.5" y="211.2" class="st17" width="251.9" height="13"/>
		
			<linearGradient id="SVGID_18_" gradientUnits="userSpaceOnUse" x1="212.675" y1="299.28" x2="212.675" y2="286.27" gradientTransform="matrix(1 0 0 -1 0 523.89)">
			<stop  offset="0" style="stop-color:#FFFFFF"/>
			<stop  offset="0.16" style="stop-color:#CDD9ED"/>
			<stop  offset="0.46" style="stop-color:#7094CD"/>
			<stop  offset="0.78" style="stop-color:#4B76B9"/>
			<stop  offset="1" style="stop-color:#3565AE"/>
		</linearGradient>
		<rect x="86.7" y="224.6" class="st18" width="251.9" height="13"/>
		<linearGradient id="SVGID_19_" gradientUnits="userSpaceOnUse" x1="212.31" y1="237.49" x2="212.31" y2="250.5">
			<stop  offset="0" style="stop-color:#FFFFFF"/>
			<stop  offset="0.16" style="stop-color:#CDD9ED"/>
			<stop  offset="0.46" style="stop-color:#7094CD"/>
			<stop  offset="0.78" style="stop-color:#4B76B9"/>
			<stop  offset="1" style="stop-color:#3565AE"/>
		</linearGradient>
		<rect x="86.5" y="237.5" class="st19" width="251.7" height="13"/>
		<linearGradient id="SVGID_20_" gradientUnits="userSpaceOnUse" x1="212.415" y1="250.85" x2="212.415" y2="263.86">
			<stop  offset="0" style="stop-color:#FFFFFF"/>
			<stop  offset="0.16" style="stop-color:#CDD9ED"/>
			<stop  offset="0.46" style="stop-color:#7094CD"/>
			<stop  offset="0.78" style="stop-color:#4B76B9"/>
			<stop  offset="1" style="stop-color:#3565AE"/>
		</linearGradient>
		<rect x="86.5" y="250.8" class="st20" width="251.9" height="13"/>
		<linearGradient id="SVGID_21_" gradientUnits="userSpaceOnUse" x1="212.405" y1="264.53" x2="212.405" y2="277.54">
			<stop  offset="0" style="stop-color:#FFFFFF"/>
			<stop  offset="0.16" style="stop-color:#CDD9ED"/>
			<stop  offset="0.46" style="stop-color:#7094CD"/>
			<stop  offset="0.78" style="stop-color:#4B76B9"/>
			<stop  offset="1" style="stop-color:#3565AE"/>
		</linearGradient>
		<rect x="86.5" y="264.5" class="st21" width="251.9" height="13"/>
		
			<linearGradient id="SVGID_22_" gradientUnits="userSpaceOnUse" x1="212.595" y1="246" x2="212.595" y2="232.99" gradientTransform="matrix(1 0 0 -1 0 523.89)">
			<stop  offset="0" style="stop-color:#FFFFFF"/>
			<stop  offset="0.16" style="stop-color:#CDD9ED"/>
			<stop  offset="0.46" style="stop-color:#7094CD"/>
			<stop  offset="0.78" style="stop-color:#4B76B9"/>
			<stop  offset="1" style="stop-color:#3565AE"/>
		</linearGradient>
		<rect x="86.6" y="277.9" class="st22" width="251.9" height="13"/>
		<linearGradient id="SVGID_23_" gradientUnits="userSpaceOnUse" x1="212.27" y1="290.77" x2="212.27" y2="303.78">
			<stop  offset="0" style="stop-color:#FFFFFF"/>
			<stop  offset="0.16" style="stop-color:#CDD9ED"/>
			<stop  offset="0.46" style="stop-color:#7094CD"/>
			<stop  offset="0.78" style="stop-color:#4B76B9"/>
			<stop  offset="1" style="stop-color:#3565AE"/>
		</linearGradient>
		<rect x="86.5" y="290.8" class="st23" width="251.6" height="13"/>
		<linearGradient id="SVGID_24_" gradientUnits="userSpaceOnUse" x1="212.37" y1="304.14" x2="212.37" y2="317.15">
			<stop  offset="0" style="stop-color:#FFFFFF"/>
			<stop  offset="0.16" style="stop-color:#CDD9ED"/>
			<stop  offset="0.46" style="stop-color:#7094CD"/>
			<stop  offset="0.78" style="stop-color:#4B76B9"/>
			<stop  offset="1" style="stop-color:#3565AE"/>
		</linearGradient>
		<polygon class="st24" points="338.3,304.1 338.3,317.2 86.5,317.2 86.5,316.8 86.5,316.8 86.5,304.1 		"/>
		<linearGradient id="SVGID_25_" gradientUnits="userSpaceOnUse" x1="212.415" y1="316.83" x2="212.415" y2="329.84">
			<stop  offset="0" style="stop-color:#FFFFFF"/>
			<stop  offset="0.16" style="stop-color:#CDD9ED"/>
			<stop  offset="0.46" style="stop-color:#7094CD"/>
			<stop  offset="0.78" style="stop-color:#4B76B9"/>
			<stop  offset="1" style="stop-color:#3565AE"/>
		</linearGradient>
		<rect x="86.5" y="316.8" class="st25" width="251.9" height="13"/>
		
			<linearGradient id="SVGID_26_" gradientUnits="userSpaceOnUse" x1="212.635" y1="193.7" x2="212.635" y2="180.69" gradientTransform="matrix(1 0 0 -1 0 523.89)">
			<stop  offset="0" style="stop-color:#FFFFFF"/>
			<stop  offset="0.16" style="stop-color:#CDD9ED"/>
			<stop  offset="0.46" style="stop-color:#7094CD"/>
			<stop  offset="0.78" style="stop-color:#4B76B9"/>
			<stop  offset="1" style="stop-color:#3565AE"/>
		</linearGradient>
		<rect x="86.7" y="330.2" class="st26" width="251.9" height="13"/>
		<linearGradient id="SVGID_27_" gradientUnits="userSpaceOnUse" x1="212.29" y1="343.07" x2="212.29" y2="356.08">
			<stop  offset="0" style="stop-color:#FFFFFF"/>
			<stop  offset="0.16" style="stop-color:#CDD9ED"/>
			<stop  offset="0.46" style="stop-color:#7094CD"/>
			<stop  offset="0.78" style="stop-color:#4B76B9"/>
			<stop  offset="1" style="stop-color:#3565AE"/>
		</linearGradient>
		<rect x="86.5" y="343.1" class="st27" width="251.7" height="13"/>
		
			<linearGradient id="SVGID_28_" gradientUnits="userSpaceOnUse" x1="212.365" y1="167.45" x2="212.365" y2="154.44" gradientTransform="matrix(1 0 0 -1 0 523.89)">
			<stop  offset="0" style="stop-color:#FFFFFF"/>
			<stop  offset="0.16" style="stop-color:#CDD9ED"/>
			<stop  offset="0.46" style="stop-color:#7094CD"/>
			<stop  offset="0.78" style="stop-color:#4B76B9"/>
			<stop  offset="1" style="stop-color:#3565AE"/>
		</linearGradient>
		<rect x="86.4" y="356.4" class="st28" width="251.9" height="13"/>
		<linearGradient id="SVGID_29_" gradientUnits="userSpaceOnUse" x1="212.385" y1="370.11" x2="212.385" y2="383.12">
			<stop  offset="0" style="stop-color:#FFFFFF"/>
			<stop  offset="0.16" style="stop-color:#CDD9ED"/>
			<stop  offset="0.46" style="stop-color:#7094CD"/>
			<stop  offset="0.78" style="stop-color:#4B76B9"/>
			<stop  offset="1" style="stop-color:#3565AE"/>
		</linearGradient>
		<rect x="86.5" y="370.1" class="st29" width="251.8" height="13"/>
		
			<linearGradient id="SVGID_30_" gradientUnits="userSpaceOnUse" x1="212.555" y1="140.42" x2="212.555" y2="127.41" gradientTransform="matrix(1 0 0 -1 0 523.89)">
			<stop  offset="0" style="stop-color:#FFFFFF"/>
			<stop  offset="0.16" style="stop-color:#CDD9ED"/>
			<stop  offset="0.46" style="stop-color:#7094CD"/>
			<stop  offset="0.78" style="stop-color:#4B76B9"/>
			<stop  offset="1" style="stop-color:#3565AE"/>
		</linearGradient>
		<rect x="86.6" y="383.5" class="st30" width="251.9" height="13"/>
		<linearGradient id="SVGID_31_" gradientUnits="userSpaceOnUse" x1="212.25" y1="396.36" x2="212.25" y2="409.37">
			<stop  offset="0" style="stop-color:#FFFFFF"/>
			<stop  offset="0.16" style="stop-color:#CDD9ED"/>
			<stop  offset="0.46" style="stop-color:#7094CD"/>
			<stop  offset="0.78" style="stop-color:#4B76B9"/>
			<stop  offset="1" style="stop-color:#3565AE"/>
		</linearGradient>
		<rect x="86.5" y="396.4" class="st31" width="251.6" height="13"/>
		<linearGradient id="SVGID_32_" gradientUnits="userSpaceOnUse" x1="212.355" y1="409.72" x2="212.355" y2="422.73">
			<stop  offset="0" style="stop-color:#FFFFFF"/>
			<stop  offset="0.16" style="stop-color:#CDD9ED"/>
			<stop  offset="0.46" style="stop-color:#7094CD"/>
			<stop  offset="0.78" style="stop-color:#4B76B9"/>
			<stop  offset="1" style="stop-color:#3565AE"/>
		</linearGradient>
		<rect x="86.5" y="409.7" class="st32" width="251.8" height="13"/>
	</g>
</g>
<g id="Calque_4">
	<path class="st33" d="M171.1,336.7l-1.3,47.1l-83.3-13.2v-31.4c5.1-5,12.6-12.3,15.3-15.1l9.6-7.5l4.9-3.3c0,0,45.2-0.8,46-1
		S171.1,336.7,171.1,336.7z"/>
	<rect x="250.9" y="327.8" class="st34" width="88" height="58.9"/>
	<path class="st35" d="M224.4,366.6c-5.8-0.4-52.1-3.7-61.1-30.9c-2.3-6.9-1.4-13.8,0.4-27.7c0.7-5.6,1.5-8.2,3.6-9.3
		c5-2.6,11.1,7.1,19.3,5.4c4.4-1,6.6-5.3,10.9-10.1c6.1-6.8,4-11.6,7.2-13.1c9.8-4.7,35.1,37.6,46.4,31.7c2.5-1.3,5.7-5.7,7.2-9.9
		c1.7-4.7,0.5-7.1,2.9-11.7c0.8-1.5,2.7-5.3,6.4-6.9c4.6-2,9.6,0.4,13.2,1.9c14.8,6.4,31.9,9.5,39.8,10.4s14.1,0.7,16.9,5.2
		c1,1.5,1.2,3.1,1.2,8c-0.1,6.7-0.6,13.3-1.3,19.9c-1.1,13.3,1,16.9-1.5,18.6c-3.7,2.5-9.6-4.3-18.9-7.7c-8.4-3-17.4-2.4-86.9,26
		C228,366.8,226.2,366.8,224.4,366.6z"/>
	<path class="st36" d="M338.9,350.9v171.6H134.1v0l0,0l0.4-2.7l21.6-148.2l0.5-3.2l0.7-4.4l0.1-1.1l1.1-7.4l0-0.2l0.6-4.2h87.4
		c0.2-0.3,0.4-0.6,0.6-1l1.5-0.4c0.1,0,0.2,0,0.3,0c0.6-0.5,1.2-0.9,1.9-1.3c0.2-0.1,0.4-0.2,0.6-0.3c1.9-1,4-1.6,6.1-1.9
		c3.7-1.9,7.8-2.9,12-2.8c4.2,0.1,8.2,1.3,11.9,3.3c0.9,0.5,1.8,1,2.6,1.6c1.2,0.8,2.2,1.8,3.2,2.8H338.9z"/>
	<path class="st33" d="M225.1,355.1v164.6h-130c-0.7-0.1-1.4-0.3-2.2-0.4c-0.2-0.1-0.4-0.1-0.6-0.2c-3.1-1.1-5-2.9-5.8-4.4V355.1
		H225.1z"/>
	<rect x="86.5" y="355.3" class="st33" width="95.3" height="167.1"/>
	<path class="st37" d="M280,441.4c-3.8-2.8-8.5-4.2-13.2-3.8c-3.8,0.2-7.4,1.4-10.6,3.5l-0.8-0.2l-0.4-1.3c-3.6,0-1.9-2.5-2-4.2
		v-1.2l-0.7,1.6c-0.3-0.3-0.9-0.6-0.9-0.9c0.2-2.1,0.4-4.2,0.4-6.4c-0.3-3.5-0.9-6.9-1.4-10.4c0,0.5-0.1,1-0.2,1.5
		c-0.3-0.2-0.8-0.6-0.8-0.7c0.3-0.5,0.6-1,0.9-1.5l0.5-0.5l-9.1,0.5l0.2,0.9c-0.4-0.2-1.1-0.4-1.1-0.5c0.1-0.6,0.2-1.1,0.5-1.6
		c-0.5-0.9-1-1.7-1.5-2.5c-0.1,0.5-0.1,1.4-0.3,1.5c-3.1,0.8-0.1,4.6-1.7,4.7c-1.5,0.1-2.4-0.1-2.9-0.4c-2.1-1.3,1.4-5.2-0.2-6.9
		c-0.9,2.6-1.8,5.3-2.6,7.9l-1.4,10.6c0.6,0.1,1.3,0.2,1.9,0.3c0.1,0,0.3,0,0.4,0.1c-0.1,0.2-0.2,0.4-0.2,0.6c-0.1,0-0.2,0-0.3,0
		c-0.5,0.2-0.2,1.2-0.4,1.8c0,0,0,0,0,0.1c-0.1,0.4-0.4,0.6-1.3,0c-0.7,2.5-1.5,4.9-2.1,7.4c0,0.2,0.5,0.6,1.1,0.9
		c-0.9,3.3-1.7,6.6-2.3,10c-0.9,3.7-1.8,7.4-2.4,11.1c-0.5,2.8-0.9,5.6-1.1,8.4c-0.1,1-0.2,2-0.2,3.1c-0.8,2.3-1.5,4.7-2.1,7
		c-0.5,1.8-0.9,3.6-1.3,5.4c-0.5,2.4-1,4.8-1.3,7.3c-1.4,3.9-2.3,8-2.6,12.2c-0.1,1,0.5,1.7,1.2,2.1c0,0.1,0.1,0.2,0.2,0.3
		c0,0,0,0.1,0.1,0.1c0.1,0.2,0.3,0.5,0.5,0.7c1.3,1.2,3.4,1.7,5.3,1.8c0.2,0.1,0.5,0.3,0.7,0.4c0.2,0.2,0.5,0.5,0.7,0.6
		c0.4,0.2,0.8,0.3,1.2,0.3c0.2,0,0.5-0.1,0.7-0.1c3.4,0.5,6.9,0,10.3,0.1c3.9,0.1,7.9,0.4,11.8,0.2c3.9-0.1,7.7-1,11.2-2.7
		c3.2-1.8,6-4.3,7.9-7.5c2-3.1,3.3-6.5,4.1-10.1c0.6-1.4,1.1-2.8,1.4-4.3c1.3-6.3,1.6-13,1.8-19.4c0-0.6-0.1-1.1-0.4-1.4
		c0.2-1,0.4-1.9,0.6-2.9c0.4-0.9,0.8-1.8,1.3-2.7c1.3-2.3,3-4.4,4.3-6.7C284,450.9,284.5,444.9,280,441.4z"/>
	<path class="st34" d="M247.8,334.8c-0.1,0.7-0.2,1.3-0.2,2c-0.5,4.7-1.1,9.4-1.7,14.1c-0.3,2.6-0.7,5.2-1,7.8
		c-0.1,0.6-0.2,1.3-0.3,1.9c-1.6,11.4-3.4,23.1-5.4,34.9c-1.3,8-2.7,15.9-4.2,23.8c-0.8,4-1.5,8-2.3,12c0,0.2-0.1,0.5-0.1,0.7
		c-0.1,0.6-0.2,1.2-0.4,1.8c0,0,0,0,0,0.1c-2.2,11-4.5,22-7,33c-0.4,1.6-0.7,3.2-1.1,4.9c-0.8,3.4-1.6,6.7-2.4,10.1
		c-0.4,1.8-0.9,3.6-1.3,5.4c-1.8,7.4-3.7,14.8-5.7,22.1c-0.8,3-1.6,5.9-2.4,8.9c-0.2,0.6-0.3,1.1-0.5,1.7c-0.2,0.7-0.4,1.4-0.6,2.2
		c-2.7,0.2-5.3,0.4-7.8,0.6c0,0-0.1,0-0.1,0l-0.4,0h-29.5c-0.5,0-1,0-1.6,0h-0.2l0,0c0,0,0,0,0,0c0,0,0,0,0,0c0.3-0.4,1.5-1,3.6-1.7
		c0.2-0.3,0.5-0.7,0.7-1c0.1-0.1,0.2-0.2,0.2-0.4c0,0,0,0,0,0c1.7-2.5,3.2-5.1,4.6-7.7c0.2-0.3,0.3-0.6,0.5-0.9l0,0
		c0.1-0.3,0.3-0.6,0.4-0.8c6.4-12.7,8.8-25.2,10.5-41.7c1.6-15,2.4-22.4,2.2-35.4c0-3.1,0-6.5,0.1-10.3c0.1-1.5,0.1-3,0.2-4.6v0
		c0.1-1.3,0.2-2.7,0.3-4.1c0,0,0,0,0,0c0-0.7,0.1-1.4,0.2-2.1v0c0-0.7,0.1-1.3,0.2-2c0,0,0,0,0,0c0.7-8.5,1.9-18.5,3.7-30.1
		c0.8-5.1,1.7-10.5,2.8-16.3c0.5-2.6,1-5.3,1.6-8.1c0.3-1.4,0.6-2.8,0.9-4.2c1.6-8,3.6-16.6,5.8-25.8L247.8,334.8z"/>
	<g>
		<path class="st38" d="M230.5,331.5c-7.1-1.9-13.8-3.4-20-4.5c-2.9,12.1-5.6,24.7-8,38c-3.2,17.4-5.6,34-7.4,49.7
			c2.2,0.7,5.4,1.2,7.7-0.4c4-2.7,2.5-9.7,2.7-18.7c0.1-5.4,3.4-13.6,9.2-29.8c1-2.7,2.4-6.3,4.4-6.4c2.8-0.2,3.5,6.3,10.2,10.4
			c2.1,1.3,3,1.2,3.7,2.5c1.6,2.7-1,5.7-0.6,10.8c0.1,1.9,0.6,3.7,1.5,5.4c1.9-0.6,3.7-1.8,5-3.3c1.7-2.1,2.7-4.6,2.8-7.3
			c0.6-5.8,3.3-20.3,7.3-40.5C243.3,335.2,237.1,333.3,230.5,331.5z"/>
		<path class="st38" d="M181.8,480.9C181.5,481.1,181.7,481.1,181.8,480.9L181.8,480.9z"/>
	</g>
	<path class="st39" d="M200.8,380.5c-0.5,3.3-0.9,6.6-1.4,9.9l0,0.8l-0.1,1.2l-0.7,2.8l-0.1,0.6c-0.9,3.4-2.2,6.7-1,10.2
		c0,0.3-0.1,0.6-0.1,0.9c-0.8,0.5-1.2,1-1.6,1.7c-0.2,0.3-0.3,0.7-0.4,1.1c0,0,0,0,0,0c-0.1,0.6-0.2,1.3-0.2,2v0c0,0.3,0,0.7,0.1,1
		c0,0,0,0,0,0c0,0.2,0,0.5,0.1,0.7c-0.1,0.1-0.1,0.2-0.2,0.2v0c0,0-0.1,0.1-0.1,0.2c0,0,0,0,0,0c-0.9,1.4-0.7,2.8-0.3,4.1v0
		c0.4,1.4,1.1,2.7,1.1,4.2c-0.1,0-0.2,0.1-0.3,0.2c-0.4,0.1-0.7,0.1-1,0.2c-2.8,1-1.8,4.2-2.7,6.3l-1.3,1.4c0.1-0.7,0.1-1.4,0.1-2.1
		c0-0.2,0-0.5-0.1-0.7c0-0.1,0-0.2,0-0.3c0-0.1,0-0.2-0.1-0.3c-0.1-0.5-0.3-0.9-0.5-1.3c-3-3.3-5,1.6-7.7,1.1c0,0,0,0,0,0
		c0.6,0.9,1.1,1.8,1.5,2.8c0.1,0.3,0.1,0.5,0.2,0.8c0.1,0.3,0.1,0.5,0.1,0.8c0.1,0.7,0.1,1.3,0.1,2c0,0,0,0.1,0,0.1
		c0,0.2,0,0.3,0,0.5c0,0.2,0,0.3,0,0.5c0,0.3-0.1,0.6-0.2,1c-0.1,0.3-0.1,0.7-0.2,1c-0.5,1.9-1.3,3.8-2,5.8c-0.5,1.3-1,2.7-1.2,4.1
		c0,0.2-0.1,0.3-0.1,0.5c-0.1,0.4-0.1,0.7-0.2,1.1c0,0.3,0,0.5-0.1,0.8c0,0.3,0,0.5,0,0.8c0,0.5,0,1,0.1,1.5c0,0.1,0,0.2,0,0.2
		c0,0.1,0,0.2,0,0.3c0,0,0,0.1,0,0.1c-0.1,0.6-0.3,1.4-0.7,2.3c-0.5,1.2-1.2,2.6-2,4c-0.8,1.4-1.7,2.8-2.5,4
		c-0.1,0.2-0.3,0.4-0.4,0.7c-0.1,0.2-0.2,0.4-0.3,0.6c-0.1,0.2-0.2,0.4-0.2,0.5c-0.2,0.3-0.3,0.7-0.4,1c0,0.1,0,0.2-0.1,0.2
		c-0.4,1.7,0,3.3,0.6,4.8c0,0,0,0,0,0c0.5,1.1,1.1,2.1,1.6,3.1c1.2,2.2,3.5,3.5,6,3.3c0.1,0,0.2,0,0.3,0c0,0,0,0,0,0h0l1.7,0.8l0,0
		l4.2,5c-0.6,0.4-1.2,0.8-1.9,1c-1.2,0.2,0.3-3-2-1.7l3.3,3.7c0.1,0.4,0.1,0.8,0.2,1.2l-2.2,0.8l2.5,2.1l0.1,0.4l-2.9,5.3l-2.8,0
		c0.1,2.8,0.2,5.6-0.1,8.3c0,0.6,0,1.3,0,1.9c0,1.4-0.1,2.9-0.4,4.3c-0.1,0.7-0.3,1.3-0.4,2l0,0c-0.2,0.7-0.4,1.4-0.7,2.1
		c0,0.3,0,0.7-0.1,1v0c-0.1,0.4-0.2,0.9-0.4,1.3c-0.3,0.5-0.6,0.9-0.9,1.3c-0.8,1.1-1.9,2.1-3,2.9c0,0,0,0,0,0
		c-0.1,0-0.1,0.1-0.2,0.1c-0.1,0.1-0.2,0.2-0.4,0.2c-1.3,0.9-2.9,1.4-4.6,1.3c-0.7,0.3-1.5,0.5-2.3,0.6c0.1,0.3,0.1,0.5,0.2,0.8
		c0,0,0,0,0,0v0h-3.8c0,0,0,0,0,0c0,0-0.1,0-0.1,0c-0.9-0.3-1.8-0.6-2.7-0.9c-0.3,0.3-0.7,0.5-1.2,0.6l0.7,0.3l0.1,0l0,0h0l0,0
		l-0.6,0l-0.9,0l-8.7-0.3c-1.4,0-2.9,0.1-4.3,0.3c-0.1,0-0.1,0-0.2,0c0,0-0.1,0-0.2,0h-6.8c0,0,0,0,0,0c0,0,0,0,0,0
		c-0.1-0.2-0.2-0.5-0.2-0.7l-1.9-0.1c0,0,0,0,0.1,0c0.8-0.6,1.2-1.2,1.5-1.9c0.8-1.9,0.2-4.1,0.4-6.2c1-7.1-1.2-15.8,4.8-20.2
		c2.4-6.7,5.9-13.1,9.4-19.3c0-0.2-0.1-0.4-0.2-0.5c-3.6-3.1-5.5-6.2-3.8-10.8l2.2-1.7l-2.2-1.7c3.4-2.7-2.3-3.2-1.2-5.4l0.4-1.3
		l0.5-0.4l1.1-1l-1.2-0.1h-1.5l-1.2-0.4v-0.8l0.3-0.5l2.3,0.4c0.1,0,0.2-0.1,0.2-0.1c1.9-0.8,2.4-2.5,2.3-4.5v-0.3l1.3-5.4l0.1-0.4
		l-0.1-1.6l0.4-1.1c0.1,0,0.2-0.1,0.3-0.1c0.1,0,0.2-0.1,0.3-0.1c0,0,0.1,0,0.1,0l0.4-2.8c0,0,0,0,0-0.1l0.5-2.9c0,0,0-0.1,0-0.1
		l0.1-0.9c0,0,0,0,0-0.1h0l0.1-0.7c0.1-0.5,0.3-0.9,0.6-1.2c0.3-2.7,0.5-5.4,0.8-8.2c0.2-2,0.4-4.1,1.4-5.9c0.3-2.3,1.4-4.9,1-7.1v0
		c0,0,0-0.1,0-0.1l0.5-6.6v-0.8l1-6l0.6-0.2l0.2-0.3l0.3-1.6l0.3-0.4l0.5-0.2l0.7-0.3l0.8,0.2l0.1-0.4l-0.9-0.1
		c0.9-6.5,1.6-13,2.7-19.4c0.2-0.9,0.6-1.7,1.2-2.5c0.6-0.8,1.2-1.6,1.8-2.4c-3-2-0.7-5.4-2.2-7.8c0.2-0.8,0.2-1.5,0-2
		c0-0.1,0-0.2-0.1-0.2c-0.5-1-1.4-1.8-2.3-2.6v0c-0.3-0.3-0.6-0.6-0.9-1c-0.2-0.2-0.5-0.4-0.7-0.6c-0.4-0.3-0.8-0.5-1.2-0.7
		l-0.7-0.5l-0.3-0.5c-0.2-0.7-0.4-1.3-0.5-2h0.6l1.3-0.7l-1-0.6l0.1-1.2h1.1l-1.1-0.9l0.7-0.8l1.2-1c0-0.1-0.2-0.1-0.3-0.1
		c0,0,0,0-0.1,0l-0.2-0.1V341l1-0.9l-1.6,0.2l-0.3-0.6l0.3-0.8l1.7-0.7l0.7-0.3l0.2,1.6c0,0,0,0,0,0l0.1,0.9l0.5,3l0.8-0.7l0.8,1.5
		L166,348c0.9-0.6,1.7-1.3,2.5-2c0.1-0.1-0.7-1.1-1-1.7l0.3-0.2l1.3-0.7c1.4-0.4,3.5-1.6,4-1.1c2.5,2.5,4.7,5.3,7.5,7.7
		c1.7,1.5,4.3-2.1,4.6,0.8c0,0.2,0,0.4,0,0.6c0,1.3,0.2,2.5,0.5,3.6c0.3,1.1,0.7,2.1,1.2,3.1c1.3,2.4,3.2,4.6,5.3,6.8
		c1.3,1.4,4.2,0.4,4.5,3.8c0.2,3.6-0.8,8,2.5,10.7c0.2,0.2,0.5,0.4,0.7,0.5C200.2,380.2,200.5,380.3,200.8,380.5z"/>
	<path class="st40" d="M330.1,521.9l-22.3,0.5l-1.3,0h22c0.2,0,0.4,0,0.6,0c0.4,0,0.7,0,1.1-0.1L330.1,521.9z M171.7,522.4
		c-0.2,0-0.4,0-0.6,0c-0.6,0-1.1,0-1.7,0c-0.1,0-0.2,0-0.3,0H162l-0.2,0l-0.9,0l-22.7-0.8c0,0,0,0,0,0c-0.6-0.6-1.2-1.2-1.8-1.9
		c-0.1-0.1-0.3-0.3-0.4-0.4c1.1-0.5,1.9-1.8,1.3-3.1c0.1-0.2,0.3-0.5,0.3-0.7c0.6-1.5,1-3.1,1.3-4.7c0.1-0.1,0.3-0.2,0.4-0.3
		c0.9-0.9,1-2.3,0.2-3.2c0.4-3.3,0.5-6.8,0.6-10.2l0.2-1.9c0.5-4.6,1.3-9.2,2.4-13.7c1.1-4,2-8.1,2.8-12.2c0.2-0.2,0.3-0.5,0.4-0.7
		c0.9-5.9,2.2-11.7,3.9-17.5c0.1-0.5,0.3-0.9,0.4-1.4c0.2-0.6,0.4-1.2,0.6-1.7c0.7-1.8,1.3-3.6,1.8-5.4c0.5-1,0.9-2,1.3-3.1
		c0.4-1.1,0.7-2.2,1-3.3c0.2-0.9,0.4-1.9,0.5-2.8c0,0,0,0,0-0.1l0.5-2.9c0,0,0-0.1,0-0.1c0.7-4.8,1.2-9.7,1.4-14.6
		c0.7-2.7,1.4-5.4,2.3-8.1c0.1-0.4,0.3-0.8,0.4-1.3v0c1.4-4.4,2.5-8.8,3.2-13.4c0.1-1,0.2-1.9,0.2-2.9c0.1-1.6,0.2-3.2,0.2-4.8
		c0.8-4.8,1.1-9.6,1.1-14.4c0.1-0.2,0.1-0.3,0.2-0.5c1.2-4.9,1.1-10,0.6-15c0-0.1,0-0.2,0-0.2c-0.1-0.7-0.1-1.3-0.2-2
		c0-0.2,0-0.4-0.1-0.7v0c0-0.5-0.1-1-0.1-1.6c-0.3-3.6-0.5-7.3,0-10.8v0c0-0.2,0-0.3,0.1-0.5c0,0,0,0,0,0c0.2-1,0.4-2.1,0.7-3.1
		c0.6-2.1-1.6-3.5-3.3-3c-0.5,0.2-1,0.5-1.3,1.1c-2.5,4.4-2.8,9.2-2.9,14.1c0,0.2,0,0.4,0,0.6c0,0.8,0,1.6,0,2.4
		c-0.3,0.1-0.5,0.3-0.7,0.5c-0.2,0.2-0.4,0.6-0.4,1c0,0.2,0,0.4-0.1,0.7c0,0,0,0,0,0.1c-0.1,0.4-0.1,0.8-0.1,1.2c0,0.1,0,0.2,0,0.2
		c-0.1,0.7-0.1,1.4-0.1,2c0,0.3,0,0.5,0,0.8c-0.1,1.5-0.1,3.1-0.2,4.6c0,0.4,0,0.8,0,1.3c0,1.4,0,2.8,0,4.2c0,1,0,2,0,3
		c-0.2,0.1-0.3,0.1-0.5,0.2c-0.6,0.3-1.1,0.8-1.4,1.4c0,0,0,0,0,0.1c-0.9,1.5-1,3.5-1.1,5.2c-0.1,0.8-0.1,1.7-0.2,2.5
		c-3.9,17.7-7.3,35.5-10.5,53.4c-0.4,2-0.7,4-1.1,6c-0.6,3.2-1.1,6.4-1.7,9.6c0,0.1,0,0.2-0.1,0.2h0c-0.2,0.7,0,1.4,0.3,1.9
		l-2.3,15.7l-0.4,2.9l-0.1,1l-1.6,10.9c0,0,0,0,0,0l-0.2,1.4h0c0,0.2-0.1,0.5-0.1,0.7c0,0.2,0,0.4,0,0.6c0,0.4-0.1,0.9-0.1,1.3
		c0,0.2,0,0.3-0.1,0.5c-0.1,0.2-0.2,0.4-0.2,0.6l0,0.2l-0.3,1.6l0,0.2l-0.8,4.2v0l-1,5.1l-1,5.3c-0.4,2-0.8,4.1-0.9,6.1v0
		c-0.1,1-0.1,2,0,2.9v0.1c0.1,1.5,0.5,2.9,1.2,4.2l-0.8,0.8l0.7,0.3l-0.7,0.4c0,0.2,0.1,0.5,0.1,0.7c0.1,0.9,0.3,1.8,0.4,2.7
		c0,0,0,0,0,0h2v0h37.8C171.8,522.5,171.7,522.5,171.7,522.4z M255.8,522.4c-1.5,0-3,0-4.4-0.1c-0.9,0-3.5,0.2-3.3-2.2l-9.1-0.4
		l-1.2,1.2l-9.4,0.8l-3.2,0.7h-21.7c0,0,0,0,0,0c-0.2,0-0.4-0.1-0.6-0.1l1-0.6c-2-0.1-3.3-0.7-3.7-2c-0.2-0.7-0.1-1.6,0.4-2.7
		c0.3-0.7,1.8-0.9,2.7-1.2c0,0,0.2,0.5,0.4,0.8l-1.6,0.6l4,1.5l-0.9,1.1l-0.7,0.8c-0.2,0.4-0.4,0.8-0.6,1.2c2.9,0,5.1-0.7,6.8-2
		c0.6-0.5,1.2-1,1.6-1.7c1.3-1.7,2-3.9,2.5-6.5V511l1.2-1.8l1.9-0.2l2.6-0.3l-2.7,0.2l-3.1,0.2l-3.6,0.3l0,2.5c-1.1,0-2.2,0-3.3-0.3
		c-0.4-0.2-0.4-1.4-0.5-2.2l-8.6-0.3l-0.1,1.6l-1.2,0.4V509c0,0-15.3,0.7-15.3,1c-0.1,0.5-0.2,0.9-0.4,1.4c-0.2,0.5-0.4,1-0.7,1.5
		c-0.2,0.3-0.3,0.6-0.5,1v0c-0.4,0.9-0.9,1.8-1.3,2.6c-0.6,1.1-1.2,2.2-1.9,3.3c-0.5,0.7-1,1.4-1.6,2c-0.4,0.4-0.9,0.6-1.6,0.7
		c-0.1,0-0.2,0-0.3,0c-0.1,0-0.3,0-0.4,0h84.6C257.3,522.4,256.6,522.4,255.8,522.4z M208,513.4l2.6,1.7c-0.6,0.7-1.3,1.3-2.1,1.8
		c-0.2,0.1-1.3-0.8-1.3-1.3C207.3,514.8,207.6,514.1,208,513.4z"/>
	<path class="st36" d="M186.2,462.1l-2.4,14.4l-1.6-0.8c-3-3.5-10.5-5-5.3-12.1c0.8-0.9,1.4-1.8,1.9-2.9c1.2-3.8,0.1-9,6.1-10.1
		c0.7-0.1,2-1.2,1.9-1.7c-0.5-2.9,0.6-5.9,2.9-7.8l-0.1,4l-0.5,0.5c-0.9,5.1-1.9,10.1-2.8,15.2L186.2,462.1z"/>
	<path class="st41" d="M192,428.8c0.5,3.7-2.5,7.4,0.5,11.5c1.3,1.8-2.2-0.5-2.8,0.9c-2.3,1.9-3.4,4.8-2.9,7.8
		c0.1,0.5-1.1,1.6-1.9,1.7c-6,1-4.8,6.2-6.1,10.1c-0.5,1.1-1.1,2-1.9,2.9c-5.2,7.1,2.3,8.6,5.3,12.1c-2.6,0.4-5.2-0.9-6.4-3.2
		c-1.9-3.4-3.9-6.5-0.9-11c2.3-3.3,5.5-9,5.3-10.9c-0.9-7.7,5.8-13.7,3.6-21.1c-0.4-1-0.9-2-1.6-2.9c2.7,0.5,4.7-4.4,7.7-1.2
		c0.5,0.8,0.7,1.7,0.7,2.7c0,0.7,0,1.4-0.1,2.1L192,428.8z"/>
	<path class="st37" d="M301.1,454.8c-8.4,0.5-14.7,18.5-15.3,32.1c-0.1,2.1-1,26.4,11.6,32.6c4.6,2.2,6.5-0.1,21.9,0.6
		c13.1,0.6,15,2.5,17,0.6c7.8-7.2-13.4-40-19.9-50C306.9,456.1,303.6,454.7,301.1,454.8z"/>
	<path class="st37" d="M337.5,418.6c0-0.1-0.1-0.2-0.1-0.3c0,0,0.1-0.1,0.1-0.1v-2.5l0-29l0-9.5l-0.8,0.4c-0.7,1.9-3.9,2.2-3.1,4.9
		l1.4,0.6c-0.7,0.5-1.5,1-2.2,1.4c-0.4,0.7-0.7,1.5-1,2.2c-2.2,6.8,2.1,14.2-0.6,21.1c-0.4,1.3-1.6,2.2-3,2.2
		c-2.6,0.3-5.2,0.3-7.8,0.5l-1.2,1.7l0,0.7h-0.4l-2.1,2.2l-1.1,0.8l0.3,2.5l0.5,0.4l0.6,0.3l-0.5,0.5c-0.2,0.2-0.3,0.3-0.5,0.5
		c-0.7,1.1-1.1,2,0.8,2c2.2,2.9-3.2,8.7,3.7,9.9v0c0,0,0,0,0,0c-1.7-9.1,5.2-11.9,11.3-15.2c0.6-0.3,1.2-0.6,1.8-0.9v-1.2
		c0.2-0.9,0.3-1.8,0.5-2.7c0.1-0.3,0.1-0.6,0.2-0.9c0,0,0,0,0,0c0,0,1.2,0.1,1.2,0.2c0.5,1.8,0.8,3.6,0.9,5.4c0,2.2-1.5,4.5,0.4,6.5
		l0.9-2.8L337.5,418.6z"/>
	<path class="st42" d="M331.8,447.8c-0.4,0.5-0.8,1.1-1.2,1.6l-12.8-1l-0.4-0.4c-1.7-5.1,1.5-9.1,2.9-13.5c0-1,0-1.9,0-2.8
		c-1.7-9.1,5.2-11.9,11.3-15.2c0.6-0.3,1.2-0.6,1.8-0.9v-1.1c0.2-1.2,0.4-2.4,0.7-3.6c0,0,1.2,0.1,1.2,0.2c0.5,1.8,0.8,3.6,0.9,5.4
		c0,2.2-1.5,4.5,0.4,6.6c1.5,4.4-2.9,2.4-4.1,3.8c-0.9,0.2-2.9-0.9-2,1.6c-2.3-0.5-3.9,0-5,2.4c-1.3,2.8,1.9,2.6,2.3,4
		c1,3.3,1.6,6.7,2.4,10l0,0l6.3-4.9l0.3,2.8l-3.7,4l-0.8,0.3c-0.1,0-0.2,0.1-0.2,0.3L331.8,447.8z"/>
	<path class="st42" d="M102.4,370.9l-1.8-0.8c0,0,0,0,0,0c0.5-0.4,1-0.8,1.4-1.2c0.4-0.4,0.8-0.9,1.2-1.3c0,0,0,0,0,0
		c-2.5-0.6-5-1-7.6-1.3c-2.6-0.1-4.2,0.6-5.2,2c-0.1,0.1-0.1,0.2-0.2,0.3c0,0,0,0,0,0c-0.1,0.2-0.2,0.4-0.3,0.6
		c-0.1,0.1-0.1,0.2-0.1,0.4c-0.1,0.2-0.1,0.3-0.2,0.5c-0.1,0.3-0.1,0.5-0.2,0.8c0,0.1-0.1,0.2-0.1,0.4c0,0.2,0,0.4-0.1,0.5
		c0,0.2,0,0.5-0.1,0.8c0,0.1,0,0.2,0,0.4c0,0.4,0,0.8,0,1.2c0,0.1,0,0.1,0,0.2c0,0.1-0.1,0.2-0.1,0.2c-0.1,0.1-0.1,0.2-0.2,0.4v0
		c-0.1,0.1-0.2,0.2-0.2,0.3c-0.2,0.3-0.5,0.6-0.7,0.9c-0.4-0.7-1.1-1.3-1.1-2c0-0.7,0-1.4,0-2.1c0-0.1,0-0.1,0-0.2v0
		c0-1.7,0-3.5,0-5.2c0-1.7,0-3.5,0-5.2v-5.8l-0.3-0.1v21.6c4.5,1.3,7.2,2.8,0.4,5.7c0.3,0.7,0.5,1.8,1.1,2.1c1.4,0.6,4,0.9,2.8,2.9
		c-1,1.7,1.8,6.4-3.5,5.1l-0.4,3.2l0,0.1c4.8-1.8,10.4-2.6,9.9-9.7c3.3-0.8,3-2.8,2.1-5.5c-0.3-1.1,0.5-2.5,0.8-3.8l2,1.1
		C102.3,375.9,104.5,373.7,102.4,370.9z M94.2,375.5l3.8,3.4l-1.7,1.5c-0.9-1.4-1.8-2.8-2.6-4.2C93.7,376,94.1,375.7,94.2,375.5z
		 M96.6,386.5l-2.9,1c0.2-0.6,0.2-1.5,0.7-1.8C95.3,385.1,96.4,385,96.6,386.5L96.6,386.5C96.6,386.5,96.6,386.5,96.6,386.5
		L96.6,386.5z"/>
	<path class="st42" d="M141.9,442c0-0.7,0-1.4-0.1-2c-0.8-7.2-6.8-11-11.5-15.7l-0.8-0.4l-0.8-0.8l-13.5-6.7
		c-5.3-1.1-10.6-2.3-15.9-3.2c-1.8-0.3-2.7,0.5-2.9,1.5c0,0.1,0,0.1,0,0.2c0,0.1,0,0.2,0,0.4c0,0.1,0,0.2,0,0.3c0,0.1,0,0.2,0,0.3
		c0,0.1,0,0.2,0.1,0.3c0.1,0.1,0.1,0.2,0.2,0.4c0,0.1,0.1,0.1,0.1,0.2c0,0.1,0.1,0.1,0.1,0.2c2.4,2.2,6.5,2.2,7.9,6.1
		c0.3,0.7,2.4,0.7,3.6,1.1c0,0,0,0,0,0c-1.3,1.2-2.4,3.2-3.9,3.6c-0.8,0.2-1.1,0-1.2-0.3c0-0.1,0-0.1-0.1-0.2
		c-0.1-0.5,0.1-1.2,0.1-1.7c0-0.2-0.1-0.3-0.2-0.4c-2.6-0.9-5.2-1.6-7.8-2c-2.8-0.5-4.7,1.3-6.4,3.2l1.1,1.8l0.2,0.9
		c1.7,0,2.9,0.4,1.6,2.4l-1.7,4.1v0.8c1.3,1.7,3.5,2.9,4.1,5c0,0.1,0.1,0.2,0.1,0.4c0.2,0.8,0,1.8-0.5,3c-0.1,0.1-0.1,0.3-0.1,0.5v0
		c0.2,1.1,2,3.1,3.1,4.5c2.1,2.9,2.7-0.4,3.9-1c0,0,0,0,0.1,0c0,0.6,0,1.1,0.1,1.5c0,0,0,0,0,0.1c0,0.1,0.1,0.2,0.1,0.3
		c0.5,1.5,1.9,2.4,3.6,3.1c1.2,0.4,2.8,1,3.2,1.9c1.6,3.8,7.4,3.9,8,3.5c4.1-2.5,8.4,0.5,12.4-1.3c0.5-0.2,0.8,0,0.9,0.4
		c0,0,0,0,0,0.1c0.2,0.5,0.1,1.3-0.2,2.1c-1.1,3-4.5,5.5-4.5,8.7c0,0.1,0,0.3,0,0.4c0,0,0,0,0,0c0,0.1,0,0.2,0,0.3
		c0.1,0.9,0.5,1.9,1.4,3c0.1,0.1-0.8,1.2-1.2,1.2c-8.6,0.4-17.1,0.6-25.7,0.9c-0.8,0.1-1.5,0.4-2.3,0.8l26.1,0.1l7.5-0.2
		c0-0.1,0-0.1,0-0.2c0-0.4,0-0.8,0-1.2c0-0.1,0-0.3,0-0.4c0-0.1,0-0.3,0-0.4c-0.2-1.4-0.6-2.7-0.9-4.1c0,0,0,0,0.1,0
		c0.2,0.1,0.6,0.2,0.6,0.2c-0.1,3.2,5.5,2.3,5.5,5.4c0,0,0,0.1,0,0.2c0,0.4-0.1,0.8-0.3,1.4c-0.2,0.3-0.3,0.7-0.4,1.1
		c0,0.1,0,0.1,0,0.2c-0.1,0.9,0.3,1.9,1.1,2.5l0-0.1c0,0,0,0,0,0l0.2-1.5l0.5-2.1l0.4-1.9l0.2-1.6c0.1-0.6,0.2-1.1,0.3-1.7
		c0-0.2,0.1-0.5,0.1-0.7v-1.1c0-0.4,0.1-0.8,0.1-1.2c0.1-0.3,0.2-0.6,0.3-0.9c0.2-0.5,0.3-0.9,0.4-1.4l0.1-0.4l-0.1-0.4l0.1-0.7
		l0-0.1c0.2-1.9,0.5-3.8,0.8-5.7l0.1-0.4l0.8-1.8c0-0.4,0-0.8,0-1.2c0-2.1,0.4-4.2,1.2-6.1l0.4-1.3v-0.1l-0.3-1.1
		c0.1-0.1,0.1-0.2,0.2-0.3c0-0.1,0.1-0.1,0.1-0.2l0.1-1.9c0.1-0.2,0.2-0.5,0.3-0.8l0.1-0.9L141.9,442z M121.5,454.9
		c0.4,0,1,0.3,2,0.8c-1,0.5-1.4,1-2,1s-1-0.6-1.4-0.9C120.5,455.4,121,454.9,121.5,454.9z M100.8,448.6l0.4-0.5l0.1,0.1L100.8,448.6
		z"/>
	<g>
		<polygon class="st37" points="133.2,498.6 133.2,498.7 133.2,498.7 		"/>
		<path class="st37" d="M131.2,482.1L131.2,482.1z"/>
		<path class="st37" d="M136.1,484.5l-0.1,1.2l-0.3,0.6l-0.3,0.5v1l-0.3,1.4l0,0.2l-0.9,3.9l0,0.3v0l0,0.2l-0.9,4.7l-0.1,0.2
			l-1.8,3.2h0l-0.1,8.2v0.2c0,1,0,1.9,0,2.9v0.1c0,1,0,2,0,3v0.7l-1.6-0.1l-0.1-0.1c2.1-5.9-1.3-6-5.8-6c-5.8,0.1-11.6-0.4-17.5-0.7
			l-1.8,0c-0.9,0.1-1.8,0.1-2.5,0.1l-1.2,0c0.7,2.3,3.6,3.1,4.9,4.3c6.8,6.2,15.5,4.9,23.9,2.3v1.3c-1,0.5-2.1,0.8-3.2,1
			c-9.9,0.1-19.8,0.1-29.7,0.1l-4.3,0l-4.2,0c-0.9-0.9-1.4-1.9-1.7-3v-21c0,0.4,0.1,0.8,0.1,1.1c0.1-0.5,0.1-1.1,0.2-1.6
			c1.1-6.4,2.2-12.7,3.3-19.1c0.4,0,0.8,0,0.8,0c-1.9-6,0.6-12.6-2.7-18.4c-4.3-7.4,0.7-14.1,1.9-21.1c0,0,0,0,0,0.1
			c1.4,1.7,3.6,2.9,4.1,5.1c0,0.1,0.1,0.2,0.1,0.4c0.1,0.8,0,1.7-0.5,2.8c-0.1,0.2-0.1,0.4,0,0.6v0c0.3,1.2,2,3,3,4.4
			c2.1,2.9,2.7-0.5,4-1c0,0.1,0,0.1,0,0.2c0,0.6,0.1,1.1,0.2,1.5c0,0,0,0,0,0.1c0,0.1,0.1,0.2,0.1,0.3c0.6,1.4,1.9,2.3,3.6,2.9
			c1.2,0.4,2.8,1,3.2,1.9c1.7,3.8,7.5,3.8,8,3.5c4.1-2.5,8.4,0.5,12.4-1.3c0.6-0.2,0.9,0,1,0.6c0,0,0,0,0,0.1c0.1,0.5,0,1.2-0.3,2
			c-1.2,3-4.6,5.5-4.4,8.9c0,0.1,0,0.3,0,0.4c0,0,0,0,0,0c0,0.1,0,0.2,0,0.3c0.1,0.9,0.6,1.8,1.3,2.9c0,0,2.2,0.8,3.8,2.9l0.7,0h0
			c0-0.4,0-0.8,0-1.2c0-0.1,0-0.3,0-0.4c0-0.2,0-0.4,0-0.6c-0.2-1.3-0.5-2.6-0.8-3.9c0-0.1,0-0.1,0-0.2c0.2,0.1,0.7,0.2,0.7,0.2
			c-0.1,3.3,5.7,2.3,5.5,5.5c0,0,0,0.1,0,0.2c0,0.3-0.2,0.7-0.3,1.2c-0.2,0.4-0.3,0.8-0.4,1.3c0,0.1,0,0.1,0,0.2
			c0,0.9,0.4,1.8,1.1,2.3v0.1c0,0,0,0,0,0c0,0.7,0,1.4,0,2.1c0,0,0,0,0,0C136,483,136,483.8,136.1,484.5z"/>
		<path class="st37" d="M131.2,482.1L131.2,482.1z"/>
	</g>
	<path class="st43" d="M158.3,343.2l-1.3,1.1l-0.3,0.2l2.1-2.8l-0.4-2.6l-9.5,1.7l-0.6,0.1l-0.5,0.1l-11.4,6.2
		c-1.8,2.7-4.2,5-6.1,7.7c-0.1,0.1-0.1,0.2-0.2,0.2c-1.3,1.9-2.4,3.9-2.9,6.4c0,0,0,0.1,0,0.1l2.3,1.3l6.7,4.8l0.3,0.3h0l9.8,8.7
		l7.9-8.2l1-1.7c0.5-1-1-3.1,1.5-3.1h0.1l0.5-0.2l1-0.4v-0.7h-1.6c-1.7-1.3-0.1-2.7,0-4c0-0.1,0.1-0.2,0.1-0.2c0-0.1,0-0.2,0.1-0.4
		c0.1-0.9,0.3-1.9,0.4-2.8c0-0.1,0-0.2,0-0.2c0.1-1,0.3-1.9,0.4-2.9c0.1-0.4,0.1-0.9,0.2-1.3c0.2-0.5,0.3-1.1,0.5-1.6c0,0,0,0,0-0.1
		l0-0.6L158.3,343.2z"/>
	<path class="st37" d="M96.6,329.2C96.6,329.2,96.6,329.2,96.6,329.2L96.6,329.2L96.6,329.2z"/>
	<path class="st37" d="M127.9,355.3c-1.2,1.7-1.8,3.7-0.8,6.3l0,0l2.4,1.3l6.6,4.8c0.1,0.1,0.2,0.3,0.3,0.4h0c1.3,2,2.7,4,3.9,6.1
		c2.2,3.6,2.8,9.4,1.8,10.2c-2.8,2.2-5.4,4.7-7.7,7.5c-3.3,4.4-3,12.7-12.1,10.3l-1.3-0.3c0.2,0.5,0.4,0.9,0.7,1.4
		c3.7,5.6-3.6,4.7-4.5,7.6c-1.4-0.6-2.8-1.1-4.2-1.8c-0.9-0.5-2.2-2.1-2.5-1.9c-1.3,0.9-2.5,2-3.4,3.3c-0.1,0.2,0.8,1.5,1.5,1.9
		c2.1,1.5,4.3,2.7,6.4,4c-5.3-1.1-10.6-2.3-15.9-3.2c-1.9-0.3-2.7,0.6-2.9,1.6c0,0.1,0,0.1,0,0.2c0,0.1,0,0.2,0,0.4
		c0,0.1,0,0.2,0,0.3c0,0.1,0,0.2,0,0.3c0,0.1,0,0.2,0.1,0.3c0.1,0.1,0.1,0.2,0.2,0.4c0,0.1,0.1,0.1,0.1,0.2c0,0,0.1,0.1,0.1,0.1
		c2.4,2.2,6.5,2.2,7.9,6.1c0.3,0.7,2.4,0.7,3.7,1.1c0,0,0,0,0,0c-1.3,1.2-2.4,3.1-3.9,3.6c-0.7,0.2-1.1,0-1.2-0.3
		c0-0.1,0-0.1-0.1-0.2c-0.1-0.5,0.1-1.2,0.1-1.7c0-0.2-0.1-0.4-0.2-0.4c-2.6-0.9-5.2-1.6-7.8-2c-2.8-0.5-4.7,1.3-6.4,3.2
		c-2.2,0-1.8-1.9-2.4-3.1v-24.5l0.3-2.4c0,0,0,0,0.1,0c4.7-1.7,10.4-2.6,9.8-9.6v0c0,0,0,0,0,0v0c2-0.5,2.7-1.5,2.7-2.8
		c0-0.8-0.2-1.7-0.6-2.7c-0.4-1.1,0.5-2.5,0.8-3.8l2,1.1c0,0,0,0,0,0.1c1.7,4.5,2.2,10.6,8.9,9.8c4.7-0.5,6,2.9,8.2,5.2
		c2.9,3,3,3.4,4.6,0.5c3.7-6.9,1.3-14.3-2-19.7c-4-6.5-11.8-5.8-18.8-3.2l-1.8-0.8l0,0c0.5-0.4,1-0.8,1.5-1.2
		c0.4-0.4,0.8-0.8,1.1-1.2c0,0,0,0,0,0c-2.5-0.6-5.1-1-7.7-1.3c-2.8-0.1-4.4,0.8-5.3,2.3c0,0,0,0,0,0c-0.1,0.2-0.2,0.4-0.3,0.6
		c-0.1,0.1-0.1,0.2-0.1,0.4c-0.1,0.2-0.1,0.3-0.2,0.5c-0.1,0.3-0.1,0.5-0.2,0.8c0,0.1-0.1,0.2-0.1,0.4c0,0.2,0,0.4-0.1,0.5
		c0,0.2,0,0.5-0.1,0.8c0,0.1,0,0.2,0,0.4c0,0.4,0,0.8,0,1.2c0,0,0,0,0,0.1c0,0.1,0,0.1,0,0.2c0,0.1-0.1,0.2-0.1,0.2
		c-0.1,0.1-0.1,0.2-0.2,0.4c0,0,0,0,0,0c-0.3,0.4-0.6,0.8-0.9,1.1c-0.4-0.7-1.1-1.3-1.1-2c0-0.7,0-1.3,0-2c0-0.1,0-0.1,0-0.2v0
		c0-1.7,0-3.5,0-5.2c0-1.7,0-3.5,0-5.2c0-2,0-3.9,0-5.9c0-0.1,0-0.2,0.1-0.3c0,0,0-0.1,0-0.1l0.1-0.1l0.2-0.2
		c0.1-0.1,0.2-0.1,0.3-0.2c7-1.8,14.3-1.8,21.3,0c0.8,0.2,1.5,0.3,2,0.4c0.6,0.1,1,0.1,1.4,0c0.9-0.2,0.9-1,0.4-2.4
		c-2.7-6.7-8.4-12-13.9-14.9c-6-3.2-3.4-5.3-2-8.5l0.9-0.8l6.5-6.6c0.1,0,0.1,0,0.2,0h0c0.7-0.1,0.7,0.3,0.7,0.9c0,0.2,0,0.5,0,0.8
		c0,0.7,0.2,1.4,1.7,0.9c2.7-0.8,5-2,8.7-1.6c7,0.8,13.5,1.4,20.5,3.4c3.1,0.9,4,1.7,3.9,2.5v0c0,0.1,0,0.1,0,0.2
		c-0.3,1.2-2.5,2.3-2.8,3.3c-0.7,2.3-2.8,1.2-4.3,0.7c-1.7-0.5-2.8-0.3-3.4,1.4c-0.3,0.9-0.8,1.7-1.2,2.6c0,0,0,0,0,0
		c3.5,1.1,6.9,2.4,10.4,3.2c0.6,0.1,1.4-1.9,2.4-2.4c2-0.9,2.4,1.3,3.4,2.3c0,0,0,0-0.1,0.1c-1.2,1-2.4,2-3.7,2.9
		c-1.5,1.2-3,2.3-4.4,3.4c-1.2,1.1-2.8,2.1-3.7,3.4c-1.2,1.8-3,3.3-4.2,5.1C128.1,355.2,128,355.2,127.9,355.3z"/>
	<path class="st42" d="M163.3,310.9c-0.1-0.1-0.2-0.1-0.2-0.2c-9.2-3.8-18.8-6-28.7-3.6c-7.2,1.8-14.1,4.5-21.2,6.8l-9,8h0L104,322
		c0.8-0.2,0.9,0.2,0.9,0.7c0,0.2,0,0.5,0,0.8c0,0.8,0.1,1.5,1.7,1.1c2.7-0.8,5-2,8.7-1.6c7,0.8,13.5,1.4,20.5,3.4
		c2.9,0.8,3.9,1.6,3.9,2.4v0c0,0.1,0,0.1,0,0.2c-0.2,1.2-2.5,2.4-2.8,3.5c-0.7,2.3-2.8,1.2-4.3,0.7c-1.7-0.5-2.8-0.3-3.4,1.4
		c-0.3,0.9-0.7,1.7-1.1,2.5c0,0,0,0.1,0,0.1c3.4,1.1,6.9,2.4,10.4,3.2c0.6,0.1,1.4-1.9,2.4-2.4c2-0.9,2.4,1.2,3.4,2.2
		c0,0,0,0,0.1,0.1c-1.2,1-2.5,2-3.7,3c-1.4,1.2-3,2.3-4.4,3.4l0.2,0.7l11.4-6.2l0.1-0.7l0.5-1.9l1.1,0.8c1.4-1.2,7.4,1.4,3.4-4.3
		c-0.7-1-0.4-3.8,0.4-4.4c2.7-1.8,5.2,0.2,7.8,1.2l0.7-0.8c0.1-0.9,0.3-1.7,0.4-2.5v0c0.4-2.7,0.9-5.4,1.3-8.2l0.5-4.6
		C163.8,314.1,165,312.3,163.3,310.9z M115.7,314.1l0.7,2.2l2.8,0.3c-0.1,0.2-0.3,0.5-0.3,0.5c-0.8-0.2-1.7-0.5-2.5-0.7l-1.6-1.2
		L115.7,314.1z M146.9,333l-1.5-1.6l5-4.4c0.2,0.3,0.6,0.7,0.6,0.8C149.6,329.5,148.3,331.3,146.9,333z"/>
	<path class="st43" d="M330.1,345.7l7.3,0.1l0.1,2.3c-0.7-0.5-1.3-1.3-2-1.3c-3.5-0.1-6.9,0-10.4,0.1l-3.3-0.1l-1.5-0.1h-0.6h-0.5
		l-5.6-0.2l-1.5-0.1l-10.6-1.6l-9.2-1.2l-2-0.1l-1.2-0.3l-7-0.5l-0.8-0.1c-0.1-0.1-0.3-0.1-0.4-0.1l-7.4-1.8l-1-0.3l-5.6-1.2
		l-12.8-3.1l-2.8-0.3l-3.4-1l-21.7-6.2l0,0c0.1,0,0.3,0,0.4-0.1c0.2-0.1,0.5-0.2,0.7-0.3l-11.3-3.6h-2.2l-3.6-1l-7.4-2.1l-1-1.5
		l-8.3-2l-1.5-0.2l0.9-1.4l-1.8,0.5l0,0l0-1.2l0.6-0.4l-0.6-0.4l-2.4-1.6l-1.7-0.8l-0.1-0.1l0.1,0.1l1.1,0.9l0.5,1.1l-3.1,0.3
		c-0.9-2.4-3-3.1-5.3-3.6c-0.3-0.6,1.9-2.2-0.8-2c-1-2.3-2,0.5-3,0l-0.1-2.6l-3.3-2.8l-3.4-3.4l-1.6-2.3l-0.7-0.9l0.3-0.8
		c2.1-0.3,0.7-1.8,0.9-2.7c1.3,1.6,2.5,3.2,3.8,4.9l6.5,6.2l1.3,1.2l1.3,1.3l2.1,1.2l0,0l2.5,1.3l13.6,7.2l0.1,0l0.4,0.2l0.8,0.1
		l12.3,5l5,1.8l5.3,1.6l32.2,9.4l8.6,2l0.4,0.1h0.8l1.9,0.1c0.1,0.1,0.2,0.1,0.3,0.2l0.1,0.2h0.2l1,0.3l4.1,0.8l0.2,0.1l0.4,0.1
		l12.8,2.4l0.7,0.1l3.5,0.6l25,2.8l1.2,0l3.3,0.3l3.4,0.3l4,0.2L330.1,345.7z"/>
	<path class="st44" d="M271.8,283.4L271.8,283.4L271.8,283.4l-3.9-0.8c-0.5,0-1.1-0.1-1.6-0.1h0c-5.4-0.5-10.8-1-16.2-1.5
		c0,0,0,0-0.1,0c0,0,0,0-0.1,0c-2.2-0.2-4.4-0.4-6.6-0.6c-8.2-0.8-16.5-1.5-24.7-2.1c-0.5,0-1-0.1-1.5-0.1
		c-4.6-0.1-9.3,0.4-13.9,0.5l1,0.5l-2.5-0.3l-4.1,0.8l-10.5,3l13.2-1l4.4-0.7h0l0.6-0.1l-0.8,1l4.8,2.4l2,3.2l0.8,0.8l2.2,1.5
		l0.7,0.2c0.2,0.4,0.3,0.8,0.5,1.1c1.6,0.6,4.2-0.1,4.1,2.9l2.6,2.8l0.5,0.5l-0.6,0.4l-0.4,0.4c-0.4,1.2,2.8,1.4,0.9,2.7
		c-0.7,0.5-2.2,0-3.4-0.1c-1.7-1-3.5-2.1-5.2-3.2l-0.9-0.8l-3-0.3c-0.6,5.4-6.2,4-8.9,6.5l-0.9,0.4c0,0.7,0,1.5,0,2.2
		c-0.1,1.6-0.3,3.3-0.5,4.9c-0.1-0.1-0.5-0.2-0.5-0.2c0.3-2.4,0.6-4.8,0.9-7.1l0.2-0.8c1.5-2.7-0.2-4.4-2.1-5.7
		c-0.3-0.2-2.2,2-2.9,1.8c-0.4-0.1-0.7-0.2-1-0.3h0c-2.4-0.4-3.7,1.2-5.1,2.9l-2.1,3l0,0c0.9,0.4-3.6,2.9,0.8,2.1
		c0.5-0.1,1.3,1.1,2,1.6c-0.8,0.2-1.7,0.3-2.5,0.3c-2.3-0.4-0.2,1.3-0.9,1.7l13.6,7.2l1.2-1.8v2.2l12.3,5l1.2-1.2l-3.8-2.3l4.5-1.1
		l-0.3-0.7c-2.4,0.2-4.9,0.2-7.3,0.6c-3.8,0.7-6.7,0.8-3.8-4.3v-0.9c-0.1-0.3-0.3-0.6-0.4-1c-0.1-0.7-0.2-1.5-0.3-2.2l-1.3-3.4
		c-0.1-0.6-0.2-1.2-0.4-1.9c0.2,0,0.3,0,0.5,0c0.1,0.5,0.3,1,0.4,1.5c2.5-0.8,2.8,1.6,3.4,2.8c3,6.1,7.9,5.3,12.5,3.1
		c2.8-1.4-1.4-1.3-1.2-2.5l-3-0.9c0.4-0.3,1-1,1.2-0.9c2.5,1.3,4.4-3.5,7-0.7l0.6-2.5c0-0.1-0.1-0.2-0.1-0.4l-1.2,0.1l-1.3,0.5
		l1.3-1l1.3,0.4l0.7,0.4c1.2,4.8,3.7,8.3,8.7,9.5l3.3,0.4l2.1,1.3l2.7,0.8l1.3,1.7l3.3,0.2l-2.5,1.1l11.8,7.3
		c-0.3-1.1-0.5-2.1-0.8-3.1c-2.1-3.5-3.4-8.1-9.1-7.1l-2.8-2.4l2.9-0.1c0.5-0.2,0.9-0.5,1.4-0.7h0c0.1,0,0.1-0.1,0.2-0.1
		c0,0,0.1,0.1,0.2,0.2c0,0,0.1,0.1,0.1,0.1l-1.9,0.5l0.8,1.2c2.6-1.4,4.4,0,6.2,1.6c0.3-0.8,0.5-1.6,0.8-2.4c0.1-1,0.4-1.8,1.4-1.8
		c0.2,0,0.4,0,0.6,0.1c-0.6-0.3-1.1-0.6-1.5-0.9c-1.6-1.2-1.2-2.5,1.5-3.7l-4-0.3l-1.3-0.6l-11.9-8.2l-9.1-6.8l-13.3-9l-4.5-2.5
		c1.6-0.3,3.3-0.4,4.9-0.4c10.9,0.7,21.9,1.3,32.8,2.1c0.6,0.2,1.2,0.5,1.7,0.8l17.7,1.6h0l0.2,0l0.6-0.1l1.5-0.3l2.2-0.3
		c0,0,0,0,0,0l0.1,0L271.8,283.4z M193.7,309.4L193.7,309.4c-0.3-0.5-0.6-0.9-0.6-1.1s0.6-0.6,0.7-0.5c0.3,0.2,0.5,0.5,0.6,0.8
		C194.5,308.8,194.1,309,193.7,309.4z M194.8,305.9c-0.3-0.3-0.9-0.8-0.9-1c0.4-1.1,0.9-2.1,1.4-3.2l1.5,2L194.8,305.9z
		 M202.3,313.3c0.1,0.2,0.3,0.4,0.3,0.6c-0.1,0.2-0.2,0.5-0.5,0.6c-0.1,0-0.3-0.2-0.6-0.4L202.3,313.3z M202,310.4
		c0,0.3,0,0.6-0.2,0.9c-0.4-0.5-0.8-1-1.1-1.5c-0.1-0.2,0.1-0.7,0.4-1.8c0,0,0,0,0,0l0,0c0,0,0,0,0,0
		C201.4,308.8,201.7,309.6,202,310.4z M231.7,309.6c-0.1-0.1-0.2-0.2-0.3-0.4l0.4-0.3c0.1,0.1,0.2,0.3,0.2,0.5
		C232,309.5,231.7,309.6,231.7,309.6z M236.7,312.2c-0.5-0.3-1-0.6-1.5-1c0.1-0.2,0.2-0.4,0.3-0.5l1.9,1.2
		C237,312,236.7,312.3,236.7,312.2z M225,290.7l2,1.7c-0.3,0.2-0.7,0.5-0.9,0.5c-0.6-0.4-1.1-0.8-1.6-1.3
		C224.7,291.2,224.8,290.9,225,290.7z"/>
	<path class="st44" d="M330.5,309.3l1.7,0.1l5.4-0.2c0.7-3.5-0.7-5.1-4.2-6.1c-4.7-1.3-9.2-3.3-13.8-5c-1.8-0.2-3.4-2.2-5.3-0.4
		c0.1,0.6,0.2,1,0.4,1.6c2,0.8,4.1,1.2,6.1,1.9c2,0.7,3.9,1.7,5.3,3.5l0.8,1l3.7,1.6c-1.5-0.3-3-0.7-4.5-1.1c-2-0.8-4.3-0.4-6,0.9
		c-0.8,0.2-1.6,0.2-2.4,0.2c-0.6-0.2-1.1-0.5-1.6-0.9l1.7-0.4l-3.6-1.6c1.6,0.2,3.2,0.4,4.8,0.5c0.3,0,2.6,0.8,0.5-0.9
		c-0.5-0.3-1.1-0.5-1.7-0.6c-1.6-0.6-3.2-1.2-4.9-1.8c-3.7-0.1-7.1-0.5-9.7-3.6l-4-1.9l-3.8,0.2l-4.7,3.7l-1.6,1.2
		c-1.9,3-5.3,1.6-7.9,2.4l1.4,1c-0.2,0.1-0.6,0.3-0.7,0.3c-0.4-0.4-0.7-0.8-1-1.2l-2-0.4c-0.9-0.3-2.5,0.4-2.1-1.6l-1.8,0.8
		c-2.4,3.6,2.2,5.4,2.1,8.4l1.3-0.8c0.3-1,0.6-2.1,0.9-3.1h1.7l0.5,0.4l2.8,1.8l4.1-0.9l2.1-0.8l2.1-0.9l0.8,0.1l2.1,0.1l-2.9-3.2
		c-1.3,0.6-2.6,1.2-3.9,1.8c-0.1,0-0.2-0.2-0.3-0.3l2.1-2.1l0.4-0.4l1.8-0.8l-0.1,1.7l4.1-0.4l-1.5,1.2c0.5,0.3,1.1,0.6,1.6,0.8
		c0.3,0.1,0.8-0.3,1-0.2c1,0.5,1.9,1,2.9,1.5l-1.2,1.7c1.6,1.8,3.2,3.6,4.7,5.4c0.1,0.1-0.3,0.8-0.3,0.8c-1.9-0.8-3.8-1.7-5.7-2.5
		l-2.5,0.3c-0.9,0.5-1.7,0.8-1.5-0.8h-3.5l0.2,0.4l1.3,0.5l-1.2,0.1l-2.2-1.1l-1.2,1.7h-0.8l2.1,0.4l4.5,1.1l4.1,0
		c0,1.1,0.1,2.3,0.1,3.4c0.6,1.2,4.6-1.4,2.8,2.5c2.6,0.3,6.5-1,5.4,4.1c-0.2,0.4-0.4,0.8-0.5,1.2l-0.3,2v0c0,0.1,0,0.2,0,0.4
		l0.8,1.3c2.5,0.2,5.3,2.8,7.4-0.9c0.1-0.1-1.1,3.7,1.7,4.2l0.9,0.8l0.3,0.5l1.2-0.2c-0.2-0.9-0.4-1.8-0.6-2.6l2.4,2.4l2.8,2.7
		c4.3,1.8,12.2,0.3,8.6,9.4l6.7,0.1l0.5,0h0c0-6,0-12.1,0-18.1c0-0.4,0-0.8,0-1.2v0c0,0,0,0,0,0c0-4.9,0-9.8,0-14.7l-5.7-1.4
		l-5.3-0.9l1.9-0.4C329.2,308.2,329.9,308,330.5,309.3z M321.2,308.6l1.3-1.3l0.4,1.2l-1.7,0.2l-0.5,0L321.2,308.6z M308.3,302.4
		c1,0.2,1.9,0.5,2.9,0.8l-1.1,0.3l-2.4-0.9C307.9,302.5,308.1,302.4,308.3,302.4z M315.6,330.5c-0.1,0-0.5-0.5-0.5-0.5
		c0.2-0.3,0.5-0.5,0.8-0.8l0,0c0.2,0.3,0.5,0.6,0.4,0.7C316.1,330.3,315.9,330.5,315.6,330.5z M321.2,331.8c-0.7,0-1.4-0.2-2-0.7
		c0.5-2.7-1.7-2.3-3.1-2.7h-0.6l-1.2-0.7l-0.1,0c-0.2-1.6-0.3-3.2-0.5-4.9l-1.5-1.2l-0.9,1.3l-0.9-0.1l-0.1-0.1l-1.1-1.2l-2.9-0.5
		l-1.7-2l1.4-1.7l-1.4-0.6c0.9-1.6,2-3.1,3.1-4.5c0.3-0.3,1.5,0.2,2.3,0.4c-0.7,0.5-1.6,0.8-2,1.5c-0.4,0.9-0.7,1.9-0.8,2.8l3.6,1
		c2,1.9,3.8,4.5,7.2,2.3l-3.1-0.6c0.2-0.2,0.4-0.5,0.6-0.5c1.1,0.3,2.1,0.6,3.2,1l1.8,2.8c2.5,0.6,2.7,2.8,3.4,4.6
		c0.1,0.3,0.2,0.5,0.4,0.8l1.7,1.3C324.3,330.6,322.8,331.2,321.2,331.8z M325.4,325.3c0-0.1,0.6-0.5,0.9-0.8
		c0.5,0.5,0.9,1.1,1.3,1.7c0.1,0.2-0.4,0.7-0.8,1.4l0,0C326.2,326.9,325.8,326.2,325.4,325.3z M335.9,327.8
		c-0.4,0.4-0.7,0.7-1.2,0.8c-0.4,0-0.9-0.5-1.3-0.8c-0.1-0.1-0.2-0.1-0.4-0.1c-0.8-0.1-1.3,0-1.7,0.1c-2,0.9,0.2,4.8-2.3,5.4
		l0.1,1.2c-0.2,0.6-0.4,1.2-0.5,1.9l-2.8-0.8c0.5-1.4-2.9-1.9-0.9-3.6c0.7-0.6,1.3-2,2.4-0.5l0.8,0.2c0.6-1.3,1.3-2.5,2.1-3.7
		c0.3-0.5,0.6-0.9,0.9-1.4c2-2.4,3.3,1.5,5.3,0.8C336.3,327.4,336.1,327.6,335.9,327.8z M333.5,315.4l2.9,1.7
		c-0.2,0.1-0.5,0.4-0.6,0.4c-0.8-0.3-1.6-0.7-2.3-1.1l-5-0.4c0.3,1.6,3.8,2.5,1.5,4.5c-2.4,2-4.4,1.4-4.9-2c0-0.1-0.5-0.4-0.6-0.3
		c-0.3,0.1-0.5,0.3-0.7,0.6c-0.2,0.8-0.3,1.6-0.4,2.3c-0.2-0.3-0.7-0.8-0.6-0.9c0.7-1.3-1.9-3.1,0.7-4v0l2.2,0.7l0.3-2.3l-0.4-0.4
		c-4.6,0.7-6.7-4.7-11-4.7c0.1-0.2,0.3-0.5,0.3-0.5c3.6,0.9,7.1,1.9,10.7,2.8C328.7,311.8,331.5,313.1,333.5,315.4z M323.6,316.2
		l0.4-0.5l0.1,0.1L323.6,316.2z"/>
	<g>
		<path class="st44" d="M262.3,306.8c1.7-0.6,2-1.8,1.3-3.4c0-1.7,0-3.5-0.1-5.2l-3.8,1.6l-1.4,2.8l0.2,0.6l0.7-0.2l0.3-1.2l1.5-0.7
			l-0.2,3.1l-2,0.5v0.6l0.7,0.6l1.7,1.3l0,0c-0.1,0.2-0.3,0.5-0.4,0.7l0.1,0.9c0.5-0.1,1.2-0.1,1.7-0.2c0.3,0,0.6-0.1,0.9-0.3
			c0.1,0,0.1-0.1,0.2-0.2c0,0,0.1-0.1,0.1-0.1c0.2-0.3,0.4-0.8,0.4-1.5H262.3z M261.7,305l-0.6-0.7l0.9,0.4L261.7,305z"/>
		<path class="st44" d="M279.2,319.7c0.5-1.6,1-3.1,1.6-4.7l-1.2-0.7l-0.5-0.1l-0.8,0.1c0.3,3.6-1.9,5.7-4.7,7.3
			c-0.4,0.3-0.8,0.6-1.1,1c-0.3-0.8-0.5-1.6-0.6-2.4c0-0.2,0.7-0.4,1.1-0.6l4.1-2.1c-0.9-0.6-2.1-1.1-2.6-1.9
			c-1.4-2.3,2.4-0.1,1.8-1.9l-0.1-0.1l-1.5-0.1c-4.6,1.5-2.6-3.3-4.5-4.5l-0.9-0.7c-0.1-0.1-0.1-0.3-0.2-0.4
			c-1.3-1.6-2.8-2.3-4.7-0.9c0,0.7-0.1,1.2-0.4,1.5c0,0-0.1,0.1-0.1,0.1c-0.1,0.1-0.1,0.1-0.2,0.2c-0.2,0.2-0.5,0.2-0.9,0.3
			c-0.6,0.1-1.2,0.1-1.8,0.2l-3.8-0.5l-1.7,3.7l-0.2,1.2c1.8-1.7,3.4-4.9,6.4-3c2.3,1.5-1,3.4-0.8,5.2l3.6,0.3l0.3-1.2l0.6,0.6
			c0.4,0.6,0.7,1.1,1,1.7c0,0-0.3,0.2-0.4,0.3l-0.5-1.5l-0.9,0.1l0.4,2l-1.6,0.5c-1.8,0.8-0.2,1.6,0,2.4l1.3,0.8l-0.9,0.9l2.1,0.3
			l0.4-1.1l0.2-0.6l-1-0.6l1.3-1.9c1.7-1.1,3-0.4,4,1l-4.1,0.8l0.1,0.5l1.7,1.2l1.3,1.6h-1.1l-1.7,0.6l-2.2,2.5l-0.3,1l0.5,1.2
			l0.5,0.3l-0.5,0.2c1,2.6,2-0.8,3,0l-0.1-1.7l-0.1-1.5l1.9,1.5l1.4,1.1c-0.3,0.2-0.6,0.3-1,0.5c-0.6,0.2-1.2,0.4-1.8,0.6l-0.1,0.8
			c1.9,0.3,4-2.2,5.8,0.4c0.5,2.8-0.1,5.2-2.5,7l2.5-0.8c3.3-3.4,1-6.4-0.2-9.5c-0.4-0.9-0.7-1.8-0.7-2.7l-1.8-1.2l1.9,0.2l0.5-0.5
			l0.1,0.1l-0.5,0.5v0.7c5.8-6,4.3-0.9,4,2.6c0,0.1,0,0.2,0,0.3c0,1,0,1.9,0,2.9l4.2-0.1l-2.9,1l2.5,1.6l2.4-1.3
			c-0.9-2.5,1.3-3,2.6-4.1l0,0C281.2,327.4,279.2,324.4,279.2,319.7z M274.2,316.3c0.4,0,0.9,0.2,1.3,0.3c-0.6,0.2-0.8,0.4-1,0.4
			c-0.2,0-0.5-0.1-0.7-0.2C273.9,316.6,274.1,316.3,274.2,316.3z M265.3,311c-0.4-0.8-0.8-1.1-0.7-1.3c0.2-0.5,0.5-1,0.8-1.5
			c0.2,0.3,0.6,0.7,0.6,1C265.8,309.9,265.6,310.5,265.3,311z"/>
	</g>
	<path class="st38" d="M187.6,316.9c-0.1,0-0.2-0.1-0.3-0.1c-0.1,0-0.3-0.1-0.4-0.1c-0.2,0-0.4-0.1-0.5-0.1c-0.7-0.1-1.5,0-2.4,0.1
		c-0.2,0-0.3,0-0.4,0c-0.4,0-0.7,0-1,0c-2.5-0.3-2.8-2.6-3.6-4.6l0,0c-1.1-1.3-0.3-2.1,0.7-2.8c0,0,0,0,0,0
		c-0.2-0.5-0.4-0.7-0.6-0.8c0,0,0,0,0,0h0c-0.8-0.3-1.5,1.2-2.3,0.9c0,0,0,0,0,0c-0.4,0-0.8,0-1.2,0.1c-0.2,0-0.4,0-0.5,0.1
		c-0.2,0-0.3,0.1-0.5,0.1c-0.1,0-0.2,0.1-0.3,0.1c-0.1,0-0.2,0.1-0.3,0.1c-1.5,0.7-2.3,2.2-2.2,4.4c0.2,5.7-0.9,9.9-7.8,8.3h0
		c-0.1,0-0.3-0.1-0.4-0.1l0,0.3v0l-0.4,2.9l0.1-0.1l-0.1,0.1l-0.3,1l1.8,1.1c0.6-0.3,1.2-1.6,1.9,0l1-0.9l0,0c0-0.1,0-0.2,0.1-0.2v0
		l0.1-1.3v0c0.1,0,0.1,0,0.2-0.1c0.1-0.1,0.3-0.1,0.4-0.2c0.1-0.1,0.2-0.2,0.4-0.3c0.1-0.1,0.1-0.1,0.2-0.2c0.5-0.5,0.9-1,1.4-1.2
		c0.1,0,0.1,0,0.2,0c0.1,0,0.2,0,0.3,0c0.6,0,1.4,0.8,2.4,2.8c0.6,1.1,1,1.5,1.3,1.4c0,0,0.1,0,0.1,0c0.9-0.4,1.1-4.2,2.8-5
		c0.1,0,0.1,0,0.2-0.1c0,0,0.1,0,0.2,0c0.4-0.1,0.9,0,1.5,0.4c0.3,0.2,0.7,0.3,1.1,0.4c0.1,0,0.3,0,0.4,0c0.6,0,1.2,0,1.7,0.1
		c2.3,2,3.5-0.9,5.2-1.3h0c0,0,0,0,0,0C189.1,319.3,189,317.6,187.6,316.9z M186.1,321.1c-0.4-0.4-1.2-0.9-1.2-1.2
		c0.3-0.7,0.7-1.4,1.2-2l1.4,1.6L186.1,321.1z"/>
	<path class="st34" d="M200.5,328.7c-0.4,0.7-0.7,1.4-0.9,2.2c-0.5-0.5-1.5-1-1.4-1.3c0.2-1,0.6-2.6,1.2-2.7
		c3.1-0.6,2.4-3.5,3.4-5.3c-0.4-0.5-0.7-1-1-1.5c-3.4,0.7-1.9,6.8-6.6,6h-0.3c-0.5,0.1-1,0.1-1.5,0c-0.2-0.1-0.3-0.9-0.1-1.3
		c0.6-1.3,1.3-2.5,2-3.7c-0.6-1-1.1-2-1.7-3l-1.5-0.2l0,0l-0.8-0.8l-5.7-2.2c0,0,0,0,0,0c-0.2-0.5-0.4-0.8-0.7-1.2
		c-0.1-0.1-0.2-0.2-0.3-0.3c-0.1-0.1-0.2-0.2-0.3-0.3c-0.1-0.1-0.1-0.1-0.2-0.2c-0.1-0.1-0.1-0.1-0.2-0.2c0,0-0.1,0-0.1-0.1
		c-0.1-0.1-0.3-0.2-0.4-0.3c-0.9-0.5-2-0.9-3.1-1.1l-1.4,0.8l0,0c0.8,2,1.2,4.4,3.7,4.6c0.3,0,0.6,0,1,0c0.1,0,0.3,0,0.4,0
		c0.9-0.2,1.7-0.2,2.4-0.1c0.2,0,0.4,0,0.5,0.1c0.1,0,0.3,0.1,0.4,0.1c0.1,0,0.2,0.1,0.3,0.1c1.4,0.7,1.4,2.4-0.2,5.1h0
		c1.2,0.4,2.7-2.1,3.6,0.3c0.8,2.4,2.2,5.2,1.6,7.4c-0.5,1.8-2.6-0.7-4-1.1h-0.4c-1.1,0-2.3,0.3-2-1.5l-1-0.8l-6,1.2
		c-1.2,2.7,2.8,2.3,2.7,4.4v0.1l3.5,2.5l0,0l3.1-0.5l2.8-0.8c1.9-1,3.3,0,4.5,1.3c0,0,0,0,0.1,0.1l4.2-1.3c0.6-1.5,1.1-2.9,1.7-4.3
		C201.5,328.7,200.7,328.5,200.5,328.7z M181.9,329c0.4-0.2,0.8-0.7,1.2-0.7c0.3,0,0.7,0.4,1.1,0.7l-1.2,0.5L181.9,329z
		 M186.7,331.5l-1.7-1.2l1.3-0.7c0.4,0.3,1,0.4,1.1,0.8C187.4,330.7,187,331.1,186.7,331.5z"/>
	<path class="st37" d="M202.3,342.9l-0.8,0.4c-1.3-0.1-2.9,0.1-2.1-2.1l2.5-4.5l-1.5-2.5c0-0.4-0.1-0.8-0.1-1.2v0l-4.2,1.3l-0.1,0
		l-4.4-0.9l-1.3,0.5c0,1.5,0.4,3.4-1.7,3.5c-0.7,0-1.5-1.4-2.3-2.2l-0.7-0.8l0,0l-3.5-2.5l-3.2-2.4c-1.6,1.1,0,4.9-3.7,4.1
		c1.2,2.6,2.5,5.2,3.8,7.8l4.9,4.6l1.7-0.4c-1-1.5-2-3-3-4.5c0-0.1,0-0.3,0-0.4c-0.8-0.5-1.5-1-2.2-1.7c-0.3-0.4,0.1-1.2,0.2-1.9
		l1.9,0.8c4.9,0.9,9.7,3.4,14.9,1.5c-1.4,2.3,4.9,4.1,0.4,6.5c-0.6,0.3-1.6,0-2.4,0l6.6,2.4C203.8,346.6,205.4,344.9,202.3,342.9z
		 M177.9,335.3c-0.1-0.1-0.4-0.3-0.4-0.4c0-0.1,0.1-0.3,0.3-0.5c0,0,0,0,0,0h0c0,0,0,0,0,0c0.2,0.1,0.5,0.3,0.5,0.4
		C178.2,335,178.1,335.1,177.9,335.3z"/>
	<path class="st34" d="M167.5,325.3c1.8-0.6,2.6-4.9,5.4,0.6c2.7,5.4,1.6-6.1,6-3.3c0.9,0.5,2.2,0.4,3.3,0.6l-2.8,2.8l-1.3-1.7
		l-0.8,0.1v2c-1,1.5,1.8,8.6-4.2,3l-0.7,1.5l-0.4,1.7l-1.3-0.5c0-1,0-2,0-3c2.7-6.2-2-1.7-3.2-2.2l-0.1-0.1c0-0.1,0-0.2,0.1-0.2
		l1.4-0.5L167.5,325.3z"/>
	<path class="st45" d="M176.6,309.2c0-0.9-0.1-1.7-0.1-2.6l0,0l-3.3-2.8h0l-2.5-2.6c-0.3-1.4-0.5-2.4-0.6-2.5c-0.4-0.2-2.5-3-2.5-3
		l-0.4,2.7l-0.3-0.2l-0.8,0.2v0.8c-0.4,0.6,0,1,0.7,1.2l-1.3,7.8c-0.2,0.6-0.4,1.2-0.6,1.7v0l0.3,0.3l-0.1,0.5l-0.2,0l0.2,0.3
		l-0.7,4.5l-0.3,0l0,1.6l-0.6,4l-0.1,0.1c0,0.3,0,0.5-0.1,0.8l-0.1,0.7l0.6-0.3c6.9,1.5,8-2.6,7.8-8.4
		C171.3,310.8,173.3,309.2,176.6,309.2z"/>
	<path class="st46" d="M339.4,302.2c0-2.1-0.5-2.3-0.5-2.3L332,298l-0.6-0.2l-4.3-1.1l-27.3-7.7l-5.8-1.4l-6.6-1.4l-12.1-2.2h0
		l-1-0.2l-2-0.3h-0.1l-0.1,0c0,0,0,0,0,0c-0.2,0-0.4-0.1-0.5-0.1c0,0,0,0,0,0h0c0,0,0,0,0,0c-1.8-0.3-3.5-0.6-5.1-0.9
		c0.5,0,1.1,0.1,1.6,0.1c-5.9-1-11.8-1.9-17.8-2.7c-0.4,0-0.7-0.1-0.9-0.1c-10.8-1.4-21.7-2.5-32.5-2.5c-13.2,0-26.3,1.5-39.5,5.5
		l-6.6,4.3c0,0,0,0,0,0c0,0.1-0.1,0.2-0.2,0.2l-0.3,0.3l-1.7,5.6c0.1,0.2,0.2,0.3,0.3,0.5c1.3,1.6,2.5,3.2,3.8,4.8l-0.2-1l-1.4-3.4
		l-0.7-2.6c0,0,0,0,0,0c1.5-5,5.6-6.8,10-8.4c0,0,0,0,0,0c0-0.1,0.1-0.1,0.2,0l0.5-0.2l16.2-3.3l4.1-0.8l1.5-0.2
		c4.8-0.1,9.5-0.7,14.2-0.5c0.5,0,1,0,1.5,0.1c8.2,0.6,16.5,1.3,24.7,2.1c2.2,0.2,4.4,0.4,6.6,0.6c0,0,0,0,0.1,0c0,0,0,0,0.1,0
		c1.2,0.2,9.5,1.5,17.9,3c0.1,0,0.2,0,0.4,0.1c4.7,0.8,9.4,1.6,12.8,2.2h0c0.2,0,0.4,0.1,0.5,0.1l0.1,0l0.7,0.2h0.5
		c1,0.2,1.8,0.4,2.4,0.5l7.1,1.6c2.2,0.6,5.1,1.3,8.3,2.2c3.2,0.9,6.8,1.9,10.4,2.9l-0.7,0.2l7.1,2.1l0,0l6.6,2
		c2.4,0.7,4.9,1.4,7.3,2.1c2,0.6,4,1,5.9,1.5h0c0.1,0,0.2,0,0.2,0.1c0-0.1,0-0.1,0-0.2c0.5,0.2,1,0.3,1.3,0.5
		C339.1,302,339.3,302.1,339.4,302.2z M170.1,292.3l-0.2-0.1c0.1-0.2,0.2-0.3,0.2-0.5L170.1,292.3z"/>
</g>
<g id="Calque_3">
	<path class="st47" d="M229.6,67.4c-0.1,0.8,0.1,1.3,1,1.4s1.4,0.8,2.5,0.7c1.1-0.1,1.8,0.6,1.8,1.8c0,1.6,0.1,3.1,0.2,4.7
		c0.6,10.8,0.5,21.6,0.2,32.5c-0.1,3-0.2,3-3.2,3.7c-1.5,0.3-2.3,1-2.1,2.7c0.1,1.1,0.1,2.2,0,3.3c-0.2,1.6,0.4,2.1,2,2.1
		c15.9-0.1,31.7-0.4,47.5-0.1c1.3,0,1.8-0.4,2.1-1.6c0.8-3.8,1.7-7.6,2.4-11.3c0.7-3.5,1.3-3.1-2.6-4.5c-4.2-1.5-4.2-1.6-6.2,2.4
		c-0.5,1.2-1.6,2-2.8,2.1c-5.3,1.1-10.8,1.5-16.2,1.2c-1.2,0-1.8-0.4-1.8-1.7c0-3.9-0.1-7.7-0.1-11.6c0-1.1,0.4-1.5,1.5-1.5
		c2.7,0.1,5.4,0,8.1,0.3c0.8,0.1,1.4,0.4,1.6,1.2c0.5,2.5,2.2,3.1,4.5,2.8c1-0.1,2.1-0.1,3.1,0c0.9,0,1.3-0.4,1.2-1.3
		c-0.2-1.4-0.3-2.9-0.4-4.3c-0.5-4.1-0.1-8.2,0-12.3c0-1.3-0.4-1.8-1.8-1.8c-1.8,0.1-3.5,0.1-5.3,0c-1.2-0.1-1.8,0.1-1.4,1.5
		s-0.3,2.3-1.9,2.3c-2.6,0-5.2,0.2-7.8,0.2c-0.7,0-1.4,0.2-1.7-0.7c-0.4-2.6-0.1-5.2-0.1-7.9c0-0.4,0.2-0.7,0.6-0.8
		c3.4-0.3,6.9-0.1,10.3-0.1c3.8,0,7.2,0.8,9.1,4.6c0,0.1,0.1,0.2,0.2,0.3c0.4,0.6,1.3,0.8,1.9,0.3c1.4-0.7,2.9-1.2,4.4-1.8
		c0.1,0,0.1,0,0.2-0.1c0.7-0.3,1-1.1,0.7-1.8c-0.8-3.9-2-7.7-2.9-11.6c-0.3-1.5-0.9-2-2.5-2c-13.5,0.1-27,0.1-40.5,0.1
		c-1.9,0-4.4-0.8-5.5,0.4s-0.2,3.7-0.3,5.6C229.6,67.2,229.6,67.3,229.6,67.4z"/>
	<path class="st47" d="M172.8,106.8c1.9,4.2,5.3,7.3,9,9.9c8.2,5.7,17.3,6.1,26.8,4.4c8.3-1.5,14.7-6.1,20.6-11.7
		c0.8-0.7,0.5-1.2,0.1-1.9c-1.6-2.2-3.3-4.3-5.2-6.2c-0.8-0.9-1.4-0.9-2.4-0.2c-2.5,1.8-4.9,4.2-7.8,5.2c-5.3,1.9-10.8,2.8-16.1-0.6
		c-4.9-2.8-8.2-7.8-8.9-13.4c-1.3-9.5,3.2-18.2,14.1-19.3c3.7-0.5,7.5,0.4,10.7,2.5c0.5,0.3,0.9,0.8,1,1.4c0.3,1.4,0,3.3,1.1,4
		s2.8,0.4,4.2,0.5h0.7c2.6,0.1,2.6,0.1,2.7-2.5c0.3-4.3,1.1-8.6,2.5-12.7c0.6-1.7,0.2-2.1-1.2-2.7c-6-2.2-12.2-3.5-17.7-3.3
		c-6.9-0.1-12.7,0.7-18.1,3c-7.3,3.1-13.1,7.9-16.8,15.1c-2.8,5.5-3.8,11.9-2.6,18C170.2,99.9,171.3,103.4,172.8,106.8z"/>
	<path class="st47" d="M140.7,120.2c7.2-0.5,14.4-0.6,21.5-0.2c1.8,0.1,4.1,1,5.2-0.2c1-1.3,0.2-3.6,0.3-5.5c0.1-1-0.5-1.9-1.5-2.1
		c-3.4-1.1-3.4-1.2-3.5-4.6c0-0.4,0-0.7,0-1.1c-0.6-10.8-0.4-21.6-0.3-32.4c0-4.1,0.1-4.1,3.8-5.3c0.9-0.1,1.5-0.9,1.3-1.8
		c-0.1-1.6-0.1-3.1,0.1-4.7c0.2-1.4-0.4-1.5-1.5-1.5c-3.4,0.2-6.8,0.3-10.1,0.4c-5.2,0.1-10.4,0-15.6-0.6c-1.2-0.1-1.8,0.2-1.7,1.5
		c0.1,1.1,0,2.3,0,3.4c0,2.9,0.1,3.2,3.1,3.7c0,0,0.1,0,0.1,0c1,0.1,1.8,1,1.7,2c0.1,7.6,0.5,15.2-0.1,22.8c0,5-0.1,9.9-0.1,14.9
		c0.1,2.2-0.9,3-2.9,3.1c-1.5,0.1-2.1,0.9-2,2.4c0.1,1.3,0.1,2.5,0,3.8C138.6,119.9,139.2,120.3,140.7,120.2z M164.6,115.2
		C164.6,115.2,164.6,115.2,164.6,115.2C164.6,115.2,164.6,115.2,164.6,115.2z"/>
	<path class="st47" d="M293,175.7c-2.7-0.3-3.3-2.4-4.1-4.4c-0.2-0.6-0.4-1.3-0.6-1.9c-3.2-7.4-5.9-14.9-8.5-22.4
		c-2.4-6.7-4.7-13.5-6.7-20.4c-0.2-0.6-0.3-1.7-1-1.9c-2.9-0.7-5.6-2.5-8.7-1.4c-2.9,1.2-6,2-9.1,2.4c-1.3,0.1-2.3,1-2.6,2.2
		c-0.9,3.9-2.4,7.6-3.5,11.4c-3.5,11.3-7.9,22.2-12.4,33.1c-0.6,1.9-2.4,3.1-4.3,3c0-0.7-0.1-1.5,0-2s0.3-1,0.4-1.6
		c0.9-5.6,2.3-4.5-3.7-6.5c-2.7-0.9-2.7-0.8-4.2,1.7c-0.6,1-1,2.2-2.3,2.7c-1.6,0.5-3.2,0.9-4.9,1.3c-4.3,0.9-8.8,0.6-13.2,0.5
		c-0.9,0-1.1-0.4-1.1-1.2c0-4-0.1-8.1-0.1-12.1c0-0.8,0.3-1.2,1.2-1.2c2.8,0,5.6-0.1,8.3,0.2c0.8,0.1,1.6,0.3,1.8,1.2
		c0.6,2.7,2.5,3,4.8,2.8c1-0.1,1.9-0.1,2.9,0c1,0,1.3-0.5,1.1-1.3c-0.8-5.5-0.9-11.1-0.5-16.6c0.1-1.3-0.5-1.7-1.7-1.7
		c-1.6,0-3.3,0.1-4.9,0c-1.3-0.1-1.9,0.5-1.8,1.8c0.2,1.3-0.4,2-1.8,2c-2.7,0-5.3,0.1-8,0.2c-1.4,0.1-1.8-0.5-1.7-1.8s0-2.5,0-3.8
		c0-3.9,0-3.9,3.7-3.9c4.3,0,8.6-0.1,12.8,1c0.6,0.2,1.6,0.3,1.6,1c0,1.5,1.4,2,1.9,3.1c0.4,0.8,1,0.9,1.8,0.5
		c1.5-0.7,3-1.3,4.5-1.9c0.1,0,0.2-0.1,0.3-0.1c0.8-0.3,1.1-1.2,0.7-2c-1.1-4-2.2-8-3.2-12.1c-0.3-1.2-0.9-1.3-1.9-1.3
		c-5,0.1-10,0.1-15.1,0.1c-11.6,0-23.1-0.2-34.7,0c-11,0.2-22,0.5-33,0.3c-5.1-0.1-10.3-0.3-15.4-0.4c-0.7,0-1.6-0.3-1.7,0.8
		c-0.6,5-2.4,9.7-3.6,14.6c-0.1,0.1-0.1,0.2-0.1,0.4c-0.1,0.7,0.4,1.5,1.1,1.6c1.7,0.6,3.4,1.2,5.1,1.9c0.8,0.3,1.4,0.2,1.8-0.6
		c0.7-1.5,1.9-2.7,2.3-4.3c0.2-0.7,0.8-1.3,1.5-1.3c1.9-0.4,3.8-0.6,5.7-0.7c2.9-0.2,2.9-0.2,3.1,2.6c0.6,8.6,0.5,17.2,0.4,25.7
		c0,2.9-0.4,5.8-0.5,8.7c0,1-0.6,1.4-1.5,1.7c-4.2,1.2-4.2,1.2-4.1,5.6c0,0.3,0,0.6,0,0.9c-0.2,1.5,0.3,2.1,2,2
		c8.6-0.5,17.3-0.5,25.9,0c3.1,0.1,3,0.7,3-2.9c0-4.5,0-4.5-4.3-5.5c-0.9-0.1-1.6-0.9-1.5-1.8c-0.8-11.9-0.7-23.9-0.7-35.9
		c0-1.1,0.4-1.5,1.5-1.4c2.2,0.1,4.5,0.4,6.7,0.8c1.2,0.1,2.1,0.8,2.5,2c0.6,1.3,1.3,2.5,2.2,3.5c0.7,1.1,2.7,1,3.7,0l0,0
		c0.9-0.4,1.8-0.9,2.8-1.2s1.4-0.9,1.1-2c-0.6-1.8-1.1-3.6-1.6-5.4c-0.1-0.5-0.3-1.1,0.4-1.3c1.7-0.2,3.2,1,3.5,2.6
		c0.3,3.2,0.3,6.3,0.5,9.5c0.5,9.5,0.5,19.1-0.1,28.6c0,1-0.7,2-1.7,2.2c-3.5,1.1-3.5,1.1-3.5,4.8c0,0.5,0,1.1,0,1.6
		c-0.2,1.6,0.5,1.9,2,1.9c5.9-0.1,11.7-0.3,17.6-0.3c11.7-0.1,23.3-0.2,35,0.2c6.3,0.2,12.6-0.3,18.8,0.2c1.2,0.1,1.8-0.2,1.8-1.6
		c-0.1-1.3-0.1-2.7,0-4c0.1-1.5-0.4-2.4-2.1-2.5c-1-0.1-1.9-0.4-1.4-1.9c1-3.1,1.8-6.2,2.7-9.4c0.2-0.8,0.5-1.3,1.4-1.3
		c3.8,0,7.6,0,11.4,0c0.8,0,1.3,0.2,1.5,1c0.4,2.9,1.7,5.4,2.6,8.2c0.9,2.7,1.2,2.7-1.9,3.5c-0.1,0-0.2,0-0.3,0
		c-0.9,0.2-1.4,1.1-1.2,2c0.1,1.4,0.1,2.8,0,4.2c-0.1,1.6,0.5,1.9,2,1.9c7.6-0.1,15.3-0.1,23-0.1c4.8,0,4.6,0,4.8-4.7
		C295.7,177.1,294.9,175.9,293,175.7z M260.5,151.9c-0.5,0-1,0-1.4,0h0c-3.5,0-3,0.2-2.1-2.9c0.3-1.2,0.8-2.4,1.2-3.6
		c0.1-0.5,0.5-0.9,1-0.9c0.5,0,0.7,0.5,0.8,0.9c0.5,1.6,1.1,3.1,1.9,4.6C262.4,151.4,262.1,152.1,260.5,151.9z"/>
</g>
</svg>
