<?xml version="1.0" encoding="utf-8"?>
<!-- Generator: Adobe Illustrator 25.2.3, SVG Export Plug-In . SVG Version: 6.00 Build 0)  -->
<svg version="1.1" id="Calque_de_dessin" xmlns="http://www.w3.org/2000/svg" xmlns:xlink="http://www.w3.org/1999/xlink" x="0px"
	 y="0px" viewBox="0 0 1024 768" style="enable-background:new 0 0 1024 768;" xml:space="preserve">
<style type="text/css">
	.st0{fill:#F5F5F5;}
	.st1{fill:#D6D6D6;}
	.st2{fill:#17682F;}
	.st3{fill:#008F3C;}
	.st4{fill:#B6091C;}
	.st5{fill:#FFFFFF;}
</style>
<path class="st0" d="M650.7,379c0.1,1.3-0.1,2.6-0.5,3.8l0,0c0.4-0.5,0.7-1,1-1.6c0-0.2,0.1-0.3,0.1-0.5s0-0.5,0-0.8
	c-0.1-0.8-0.4-1.7-0.7-2.5l-0.1-0.4C650.6,377.8,650.7,378.4,650.7,379L650.7,379z"/>
<path class="st0" d="M498.1,413.6c0,0.4-0.2,0.8-0.5,1.1l0.8,0.2c0.3,0,0.7,0.1,1,0.2c0.8,0.2,1.5,0.4,2.2,0.6l0.7,0.2
	c1.6,0.4,3.2,0.7,4.8,0.8h0.2c0.4,0.1,0.8,0.1,1.2,0.2c0.8,0.1,1.6,0.2,2.4,0.3l1.1,0.1c2,0.3,4.3,0.6,6.8,0.8c1,0.1,2,0.2,3,0.3
	c1.5,0.2,3,0.3,4.5,0.3h0.7c1.2,0,2.3,0,3.5-0.1l2.5,0h0.9h2.2h0.8c0.7,0,1.4,0,2.1,0.1c2.9,0.3,5.8,0.3,8.6,0.3
	c1.2,0,2.4,0,3.7,0.1l5.5,0.2c1.8,0.1,3.7,0.1,5.5,0.2h0.7h1.8c0.5,0,1-0.1,1.5-0.1l0.8-0.1c0.7-0.1,1.5-0.1,2.2-0.1h0.5
	c0.9,0,1.8-0.2,2.8-0.3c0.4,0,0.9-0.1,1.3-0.1c0.7,0,1.5-0.1,2.2-0.2c1.3-0.2,2.8-0.3,4.7-0.3c2.2-0.1,4.4-0.4,6.6-0.9
	c0.4-0.1,0.8-0.1,1.2-0.2l1-0.1l0.9-0.2l0.8-0.2l-0.8,0.1h-0.2c2.8-0.4,5.5-0.9,8.2-1.6c0.1-0.1,0.1-0.1,0.2-0.2
	c0.1-0.1,0.2-0.1,0.3-0.1h-5c-2.2,0-4.4,0-6.6,0l-4.3,0h-0.3h-1.5H579c-4.5,0.6-9,0.9-13.2,1c-1.6,0-3.2,0-4.8,0c-2.3,0-4.7,0-7-0.1
	c-1.3,0-2.7-0.1-4-0.2c-0.8-0.1-1.7-0.1-2.5-0.2c-1.9-0.1-3.8-0.2-5.8-0.3L540,415c-0.9-0.1-1.8-0.1-2.7-0.1c-1.4,0-2.8,0.1-4.2,0.2
	c-2.7,0.3-5,0.5-7,0.6c-2.5,0.1-5,0.2-7.6,0.2h-0.2c-2.3,0-4.7-0.2-7.1-0.4c-2.4-0.2-4.8-0.6-7.2-1.1l-1.6-0.4
	c-1.2-0.3-2.4-0.5-3.7-0.7l-0.6-0.1C498.1,413.4,498.2,413.5,498.1,413.6L498.1,413.6z"/>
<path class="st0" d="M234.1,413.8l0.2,0.3c0.4,0,0.7-0.1,1.1-0.1h0.2c0.7-0.1,1.3-0.2,1.9-0.4C236.4,413.7,235.3,413.8,234.1,413.8
	L234.1,413.8z"/>
<path class="st0" d="M612.2,414.7h-1c0.5,0,0.9,0,1.4,0c0.9,0,1.8,0,2.6,0.1h0.5l0.6-0.3h-1c-1.1,0-2.1,0-3,0.1L612.2,414.7z"/>
<path class="st0" d="M753.8,417.6l-1,0.1l-2,0.1c-0.7,0-1.4,0-2.1,0.1l-2,0.1l-2.4,0.1h-0.8c1.6,0.2,3.2,0.4,4.8,0.5l2.6,0.3
	l1.7,0.2l2.2,0.2l2,0.2l2.2,0.2c2.1,0.2,4.3,0.4,6.4,0.5c3.1,0.1,5.9,0.2,8.6,0.4c1.2,0.1,2.5,0.1,3.7,0.1h0.8
	c1.1,0,2.2,0.1,3.3,0.1h0.9c0.5,0,0.9,0,1.4,0h1.8h1.1h0.9h3.4h0.7c1.8,0,3.5,0,5.1,0.1c1.1,0.1,2.2,0.1,3.4,0.1l3,0.1
	c1.7,0.1,3.4,0.2,5.1,0.3h0.8c1.7,0.1,3.4,0.3,5.1,0.5l0.6,0.1c1.3,0.2,2.8,0.4,4.4,0.5c1,0.1,1.9,0.1,2.8,0.2l1.8,0.1l1.7,0.1
	c1,0,1.9,0.1,2.9,0.2l1.4,0.1c0.9,0.1,1.8,0.1,2.7,0.2l1.6,0.2h0.1l2,0.3c1.4,0.2,2.8,0.4,4.2,0.5l0,0c1.1,0.1,2,0.1,2.9,0.1
	c0.4,0,0.9,0,1.3,0c0.6,0,1.3-0.1,2.1-0.2c-0.1-2-0.1-4-0.1-6c-5.3,0-10.4,0.2-14.8,0.4l-1.3,0c-1.9,0.1-3.8,0.1-5.7,0.1h-1.1
	c-0.8,0-1.6,0-2.5,0c-1.7,0-3.5,0-5.2-0.1c-1.1-0.1-2.2-0.2-3.4-0.3c-1.5-0.1-3.1-0.3-4.6-0.3c-2.6-0.1-5.3-0.1-7.9-0.1h-1.5
	c-1.1,0-2.2,0-3.3,0l-2.3-0.1l-2.3-0.1c-2.8-0.1-5.7-0.1-8.8-0.2h-1h-1.7c-0.4,0-0.8,0-1.2,0c-1,0-2.1,0.1-3.2,0.1H774h-0.6
	c-0.8,0-1.6,0.1-2.3,0.1h-0.9l-1.5-0.1l-2.6-0.1c-2.8-0.2-5.8-0.3-8.7-0.3H757C755.9,417.4,754.8,417.5,753.8,417.6L753.8,417.6z"/>
<path class="st0" d="M848.8,447.7c-0.1,0.7-0.2,1.3-0.3,2c0,0.3-0.1,0.6-0.1,1c-0.1,0.6-0.1,1.3-0.1,1.9c0,0.4,0,0.8,0,1.2l-0.1,1
	c0,0.6-0.1,1.2-0.1,1.9c0,0.3,0,0.6-0.1,1c-0.1,0.6-0.1,1.2-0.1,1.8c0,0.5,0.1,1,0.1,1.6c0.1,1.3,0.1,2.5,0.1,3.8c0,0.3,0,0.5,0,0.8
	c0.4,0.1,0.8,0.2,1.2,0.2h0.4c0-0.9,0-1.7-0.1-2.5l-0.1-3.3c-0.1-4.2-0.2-8.5-0.5-12.8C848.9,447.4,848.9,447.6,848.8,447.7
	L848.8,447.7z"/>
<path class="st0" d="M846,348.5l-1.8,0.1h-1l-0.1,1.1c-0.1,1.4-0.2,2.8-0.3,4.1c0,0.9-0.1,1.8-0.2,2.7c-0.1,1.9-0.2,4-0.3,6.4
	c-0.1,4.1-0.2,8.6-0.2,13.6v6.6v6.7v2.2c0,1.6,0,3.2,0,4.8c0,1.9-0.2,3.9-0.3,5.8v0.3c-0.2,2.3-0.3,4.5-0.4,7.1
	c-0.1,1.5-0.1,3-0.2,4.5c1.8,0,3.7,0,5.6,0c0-2.1,0-4.1,0-6.2c0-5.2,0-10.5,0-15.7v-0.6c0-4.1,0.1-8.4,0.2-12.6v-0.2
	c0.1-4.2,0.2-8.6,0.6-12.9c0.1-1.2,0.2-2.5,0.4-3.7c0-0.9,0-1.7,0-2.6v-1.8c0-1.1,0-2.1,0.1-3.2c0-1.8,0.1-3.7,0.1-5.5
	c0-0.4,0-0.8,0-1.2c-0.8,0-1.5,0.1-2.3,0.1L846,348.5z"/>
<path class="st0" d="M239.2,399.4v0.5c0,0.6,0,1.2,0.1,1.8l0.3-0.2V401c0-0.3-0.1-0.7-0.1-1.1l-0.1-0.6L239.2,399.4L239.2,399.4z"/>
<path class="st0" d="M234.1,413.8l0.2,0.3c0.4,0,0.7-0.1,1.1-0.1h0.2c0.7-0.1,1.3-0.2,1.9-0.4C236.4,413.7,235.3,413.8,234.1,413.8
	L234.1,413.8z"/>
<path class="st0" d="M846.4,290.9c-1.6,0.6-3.2,1.3-4.9,2s-3.2,1.1-4.8,1.7c-2.8,1-5.6,1.8-8.4,2.7s-5.9,1.8-8.8,2.7
	c-1.4,0.5-2.9,0.9-4.4,1.2c-1.6,0.3-3.3,0.7-4.9,1l-1.5,0.2c-3.2,0.2-6.3,0.7-9.4,1.2c-1.9,0.5-3,2.5-2.5,4.3
	c0.2,0.6,0.5,1.1,0.9,1.5c0.7,0.7,1.6,1,2.5,1c3.7-0.5,7.3-0.9,11-1.5c1.7-0.3,3.3-0.8,5-1.1c1.5-0.4,2.9-0.8,4.4-1.4
	c1.5-0.5,3-0.9,4.5-1.4s2.8-1,4.3-1.5c2.7-1,5.5-1.9,8.3-2.9c3.5-1.2,7-2.6,10.4-4c0.7-0.2,1.3-0.7,1.8-1.4c0.4-0.7,0.5-1.5,0.3-2.3
	c-0.2-0.7-0.7-1.4-1.3-1.8c-0.5-0.3-1-0.4-1.5-0.4C846.9,290.7,846.7,290.8,846.4,290.9L846.4,290.9z"/>
<path class="st1" d="M847.6,366.3c-0.4,4.3-0.5,8.6-0.6,12.9v0.2c-0.1,4.2-0.2,8.5-0.2,12.6v0.6c0,5.2,0,10.6,0,15.7
	c0,2.1,0,4.1,0,6.2h0.8v-0.1c0-1.1,0.1-2.2,0.2-3.3c0-0.5,0.1-1,0.1-1.5c0-0.8,0.1-1.5,0.1-2.3l0.1-2c0-0.9,0-1.9,0-2.8
	c0-0.5,0-0.9,0-1.4c0-1.1,0-2.2,0-3.3c0-1.7,0.1-3.4,0-5.2v-1c0-1.2,0-2.3-0.1-3.5c0-0.6,0-1.1-0.1-1.7c0-0.8-0.1-1.7-0.1-2.5
	c0-1.1,0-2.2,0.1-3.3c0-1.7,0.1-3.4,0-5.1c-0.1-2.6-0.2-5.6-0.1-8.6c0-1.5,0.1-3,0.1-4.5C847.8,363.9,847.6,365.1,847.6,366.3
	L847.6,366.3z"/>
<path class="st0" d="M854.7,284.3l-0.9,0.5l-0.3,0.1c-0.8,0.2-1.6,0.7-2.2,1.4c-0.2,0.1-0.4,0.3-0.7,0.4c-0.8,0.5-1.6,1-2.3,1.6
	c-0.1,0.1-0.2,0.1-0.3,0.2c-0.6,0.3-1.3,0.5-1.9,0.9c-1.5,0.6-3.1,1.1-4.6,1.8c-1.3,0.5-2.7,1.1-4,1.7l-2.4,1.1
	c-0.7,0.3-1.4,0.6-2.2,0.9c-1.9,0.7-3.8,1.3-5.7,2.1c-2.6,0.9-5.2,1.9-7.7,3.1c-2,1.1-2.6,3.7-1.5,5.6c0.4,0.6,0.9,1.1,1.5,1.5
	c1,0.5,2.1,0.7,3.2,0.4c2.8-0.6,5.6-1.3,8.3-2.1c1.2-0.3,2.3-0.7,3.4-1.1c1.4-0.5,2.7-1.1,4-1.6c0.9-0.4,1.8-0.8,2.8-1.2
	s1.6-0.8,2.5-1.1c2-0.8,3.9-1.9,5.9-2.9c0.8-0.4,1.7-0.9,2.5-1.4c1-0.6,1.9-1.4,2.8-2.1c0.8-0.6,1.4-1.4,2-2.2
	c0.2-0.3,0.4-0.6,0.6-0.9c0.3-0.4,0.5-0.8,0.6-1.3c1.3-0.9,1.6-2.6,0.9-4c-0.4-0.7-1.1-1.2-1.8-1.4c-0.2-0.1-0.5-0.1-0.8-0.1
	C855.7,283.9,855.2,284.1,854.7,284.3L854.7,284.3z"/>
<path class="st0" d="M847.7,295.2c-1,0.6-1.6,1.6-1.6,2.7c-0.1,1.1-0.2,2.3-0.3,3.4s-0.2,2.4-0.2,3.6l-0.1,2.4
	c-0.2,1.5-0.3,2.9-0.5,4.4c-0.2,2.1-0.2,4.3-0.4,6.5s-0.4,4.2-0.6,6.3s-0.3,4.3-0.3,6.4s0.1,4.3,0.1,6.4c0,1.6,0,3.1-0.1,4.7
	l1.1-0.1l0.8-0.1h0.3c0.7,0,1.3-0.1,2-0.1c0.2,0,0.3,0,0.5,0l0.2-0.9l0.1-0.4c0.2-0.6,0.5-1.1,1.1-1.4c0.4-0.2,0.8-0.3,1.2-0.3
	c0.2,0,0.4,0,0.6,0.1c0.5,0.1,0.9,0.4,1.2,0.9c0-0.5,0-0.9,0-1.4c-0.1-1.6-0.2-3.3-0.3-4.9s-0.2-3.3-0.1-5c0-3.2,0.4-6.4,0.5-9.6
	c0-2.4,0-4.8,0-7.1c0.1-0.7,0.2-1.4,0.3-2c0.1-1.1,0.2-2.2,0.2-3.3s0.2-2,0.2-3c0-1.2,0-2.5,0.1-3.8c0-1-0.4-1.9-1.2-2.6
	c-0.3-1-1.1-1.9-2.2-2.1h-0.1c-0.3-0.1-0.6-0.1-0.9-0.1C848.7,294.8,848.2,295,847.7,295.2L847.7,295.2z"/>
<path class="st0" d="M846,348.5l-1.8,0.1h-1l-0.1,1.1c-0.1,1.4-0.2,2.8-0.3,4.1c0,0.9-0.1,1.8-0.2,2.7c-0.1,1.9-0.2,4-0.3,6.4
	c-0.1,4.1-0.2,8.6-0.2,13.6v6.6v6.7v2.2c0,1.6,0,3.2,0,4.8c0,1.9-0.2,3.9-0.3,5.8v0.3c-0.2,2.3-0.3,4.5-0.4,7.1
	c-0.1,1.5-0.1,3-0.2,4.5c1.9,0,3.8,0,5.7,0h0.7v-0.1c0-1.1,0.1-2.2,0.2-3.3c0-0.5,0.1-1,0.1-1.5c0-0.8,0.1-1.5,0.1-2.3l0.1-2
	c0-0.9,0-1.9,0-2.8c0-0.5,0-0.9,0-1.4c0-1.1,0-2.2,0-3.3c0-1.7,0.1-3.4,0-5.2v-1c0-1.2,0-2.3-0.1-3.5c0-0.6,0-1.1-0.1-1.7
	c0-0.8-0.1-1.7-0.1-2.5c0-1.1,0-2.2,0.1-3.3c0-1.7,0.1-3.4,0-5.1c-0.1-2.6-0.2-5.6-0.1-8.6c0.1-2.4,0.1-4.7,0.2-7.1v-1.8
	c0-1.1,0-2.1,0.1-3.2c0-1.8,0.1-3.7,0.1-5.5c0-0.4,0-0.8,0-1.2c-0.8,0-1.5,0.1-2.3,0.1L846,348.5z"/>
<path class="st0" d="M841,418.5c-0.1,2-0.2,4-0.3,6c1.1,0.1,2,0.1,2.9,0.1c0.4,0,0.9,0,1.3,0c0.8,0,1.7-0.1,2.8-0.3
	c0.3,0,0.6-0.1,0.9-0.2c0,0.5,0,1,0.1,1.4v0.6c0,1.1,0.2,2.2,0.3,3.3c0.1,0.7,0.1,1.4,0.2,2.1c0.1,1,0.2,2,0.4,3.2
	c0,2.6,0,5.2-0.1,7.8c0,0.6-0.1,1.2-0.2,1.8s-0.1,1-0.2,1.5l-0.1,0.8c-0.1,0.4-0.1,0.7-0.2,1.1c-0.1,0.7-0.2,1.3-0.3,2
	c0,0.3-0.1,0.6-0.1,1c-0.1,0.6-0.1,1.3-0.1,1.9c0,0.4,0,0.8,0,1.2l-0.1,1c0,0.6-0.1,1.2-0.1,1.9c0,0.3,0,0.6-0.1,1
	c-0.1,0.5-0.1,1-0.1,1.4c1.3-0.6,2.3-1.8,2.7-3.2c0.5-2.5,0.7-5,0.6-7.5c0-1,0.1-1.9,0.1-2.9c-0.1-1.2-0.2-2.4-0.4-3.5
	c-0.2-3.9-0.2-7.8,0-11.7c0-2.2,0-4.4,0.1-6.6c0-0.4,0-0.7,0-1.1c-0.2,0-0.4,0.1-0.6,0.1c-0.9,0-1.7-0.4-2.3-1
	c-0.5-0.6-0.8-1.3-0.8-2.1c0-0.4,0-0.7,0.1-1.1c-2.2,0-4.4,0.1-6.5,0.1L841,418.5z"/>
<path class="st2" d="M224,374v-0.1c0.1-0.5,0.3-1.1,0.4-1.7l0.1-1.2v-0.4c0.1-1,0.2-1.9,0.3-2.9c0.1-0.9,0.3-1.8,0.5-2.6
	c0.1-0.2,0.1-0.5,0.2-0.8c0.1-0.5,0.3-1,0.4-1.5c0.1-0.3,0.2-0.7,0.4-1l0.1-0.1v-0.1c0.1-0.3,0.2-0.6,0.4-1c0.3-0.9,0.7-1.8,1.2-2.7
	l0.5-0.9l0.5-0.9c0-0.1,0-0.2,0-0.3c0-1.1,0.6-2.1,1.6-2.5c0.1-0.2,0.3-0.3,0.4-0.4c0,0,0,0,0,0c0.1-0.1,0.3-0.2,0.4-0.3
	c0,0,0.1,0,0.1-0.1c0.1-0.1,0.2-0.1,0.4-0.1c0.1,0,0.1,0,0.2-0.1c0,0,0,0,0,0c0.2,0,0.4-0.1,0.6-0.1c0.2-0.7,0.5-1.3,0.8-2
	c0.5-1.2,1-2.1,1.4-3c0.3-0.5,0.6-1.1,0.9-1.6c0.3-0.5,0.8-1.3,1.1-1.9c0.3-0.7,0.5-1.1,0.8-1.7c0.3-0.6,0.6-1.3,0.9-2
	c0.6-1.1,1.3-2.2,2-3.2c0.8-1,1.7-2,2.7-2.8l0.7-0.6l0.8-0.6c0.5-0.4,1-0.9,1.4-1.4l0.3-0.3c0.3-0.3,0.6-0.7,0.7-1.2
	c1.2-0.4,2-1.4,2-2.7c0-1.5-1.3-2.8-2.8-2.8l-2.6-0.1l-2.8-0.1h-0.6c-0.8,0-1.7,0-2.5,0.1l0,0c-0.8,0-1.5,0.1-2.3,0.1H233h-0.9
	c-0.7,0-1.3,0.1-2,0.1h-1.6c-1.3,0-2.5,0-3.8,0.1s-2.3,0.1-3.5,0.2l-2,0.2c-1.9,0.1-3.8,0.1-5.7,0.1h-2.3H209h-2.5h-3.6
	c-0.8,0-1.6,0-2.5,0.1c-0.7,0-1.4,0.2-2.1,0.5l-1.4,0.1h-1.3h-0.8c-0.3-0.1-0.6-0.1-0.8-0.1h-0.3c-2.2,0.1-4.4,0.4-6,0.5
	c-1.3,0.1-2.5,0.3-3.8,0.5c-0.4,0-0.7,0.1-1.1,0.2c-0.2,0-0.3-0.1-0.5-0.1c-0.3,0-0.6,0-0.9,0.1l-0.1,0l-1.5,0.2l0.8-0.1
	c-1.5,0.2-3,0.5-4.5,0.9c-0.7,0.2-1.3,0.4-2,0.5c-1.2,0.4-2.3,1.1-3.2,2c-0.4,0.3-0.7,0.6-1.1,0.9c-0.4,0.4-0.7,0.8-1,1.2
	c-0.4,0.4-0.8,0.8-1.2,1.2c-0.5,0.5-0.9,0.9-1.3,1.5c-1.1,1.2-2.2,2.5-3.1,3.8c-0.3,0.5-0.5,1-0.7,1.5c-0.4,0.9-0.8,1.8-1.2,2.7
	c-0.4,0.9-0.8,2.1-1.2,3.2l0.4-0.9c-1.1,2.6-2,5.3-2.7,8c-0.3,1.1-0.5,2.2-0.8,3.3c-0.2,0.6-0.3,1.3-0.5,2c-0.1,0.4-0.2,0.7-0.3,1.1
	s-0.1,1-0.2,1.5c-0.1,0.8-0.3,1.7-0.4,2.5c0,0.3,0,0.7,0,1c0,0.1,0,0.2,0,0.3c-0.3,1.5-0.5,3-0.6,4.5c0,0.8,0,1.7,0,2.5
	c-0.1,0.9-0.2,1.8-0.3,2.7c0,0.8,0,1.7,0.1,2.6c0.1,2,0.2,3.9,0.5,5.8l-0.1-0.4c0.1,0.8,0.2,1.6,0.3,2.5l-0.1-1.1
	c0.1,0.9,0.2,1.8,0.4,2.7c0.3,2.3,0.7,4.5,1.1,6.8c0,0.1,0,0.1,0,0.2c-0.1,0.8,0,1.7,0.2,2.5c0.5,2.5,1.3,4.9,2,7.4
	c0.4,1.3,0.6,2.6,1,3.9c0.3,1,0.6,1.9,1,2.9c1,2.5,2.1,5,3.4,7.3c1,2.1,2.3,4,3.7,5.9c0.5,0.6,1,1.1,1.6,1.6c0.5,0.5,1,1.2,1.5,1.7
	c1.6,1.4,3.4,2.5,5.3,3.4c1.3,0.7,2.7,1.2,4.1,1.5c1,0.2,2.1,0.5,3.1,0.7c0.3,0.1,0.6,0.1,0.9,0.2c0,0,0.1,0,0.1,0
	c0.6,0.2,1.3,0.4,1.9,0.5l0.8,0.2c2.4,0.5,4.8,0.8,7.2,0.9h0.1l2.7,0.2c1.5,0.1,2.9,0.2,4.3,0.3l1.7,0.2c1.7,0.1,3.5,0.3,5.3,0.3
	h3.6c3.7,0,7.6-0.1,11.5-0.2l3.9-0.1l3.9-0.1h0.6c1.3,0,2.7-0.1,4-0.1c1.2,0,2.2,0,3.1,0.1l0.1,0c0.9,0.1,1.7,0.2,2.6,0.3l0.8,0.1
	l1,0.1c0.6,0.1,1.2,0.1,1.9,0c0.5-0.1,1-0.4,1.4-0.8c-0.2-0.1-0.4-0.2-0.7-0.3c-0.2-0.1-0.3-0.2-0.5-0.3l-0.3-0.1h0.1
	c-0.4-0.2-0.7-0.4-1.1-0.6c-0.5-0.3-1-0.7-1.4-1.2l-0.5-0.4c-0.4-0.4-0.8-0.8-1.2-1.2c-0.3-0.4-0.6-0.7-0.8-1.1l-0.3-0.4l-0.6-0.8
	l-0.3-0.4c-0.5-0.6-1-1.3-1.4-1.9c-0.1-0.1-0.1-0.2-0.2-0.4c-0.4-0.4-0.7-0.8-1-1.2l-0.5-0.5l-0.4-0.5c-0.4-0.4-0.7-0.9-1.1-1.3
	l-0.5-0.6c-0.6-0.7-1.1-1.4-1.6-2.2c-0.4-0.7-0.8-1.4-1.1-2.1c-0.2-0.4-0.4-0.7-0.6-1.1c-0.2-0.4-0.3-0.7-0.5-1
	c-0.1-0.1-0.1-0.3-0.2-0.4c0.2,0,0.5,0,0.7-0.1c0.2,0,0.3-0.1,0.5-0.2c0.8,0,1.6,0,2.3-0.1h0.1l0,0l1-0.1c0-0.1-0.1-0.2-0.1-0.3
	c-0.1,0-0.2,0-0.3,0l0-0.1h-1.1h-0.1c-1.2,0-2.3-0.8-2.6-2l-0.1-0.1c-0.7-0.5-1.4-1.1-1.8-1.9l-0.3-0.4l-0.1-0.1l-0.2-0.3
	c-0.4-0.7-0.7-1.4-1-2.1l0-0.1c-0.5-1.1-0.9-2.2-1.2-3.3c0,0-0.1,0-0.1,0c0,0,0,0,0-0.1c-0.1-0.5-0.2-1-0.3-1.5
	c-0.1-0.5-0.1-0.9-0.2-1.4v-0.4c0,0,0,0,0,0v0c-0.1-0.5-0.2-0.9-0.3-1.4c-0.1-0.5-0.3-1.2-0.4-1.8c-0.1-1-0.2-1.8-0.3-2.7
	c0-0.4,0-0.8-0.1-1.2c0,0,0,0,0,0c0,0,0-0.1,0-0.1c-0.1-0.4-0.1-0.7-0.2-1v-0.2c0,0,0,0,0-0.1v0c-0.1-0.4-0.2-0.8-0.2-1.2v-0.2
	c0-0.1,0-0.1,0-0.2c0-0.1,0-0.2-0.1-0.3c-0.1-0.9-0.2-1.7-0.4-2.6l-0.1-1v-0.1V386c-0.2-1-0.3-2.1-0.3-3.1c0-1.1,0-2.3,0-3.4
	c0-1.4,0.1-2.9,0.4-4.2C223.8,374.8,223.9,374.4,224,374z"/>
<path class="st2" d="M220.1,363.6c-1.2,0.3-1.9,1.6-1.6,2.8c0.1,0.3,0.2,0.7,0.3,1c0.3,1.2,1.6,1.9,2.8,1.6c1.2-0.3,1.9-1.6,1.6-2.8
	l-0.3-1c-0.3-1-1.2-1.7-2.2-1.7C220.5,363.5,220.3,363.6,220.1,363.6L220.1,363.6z"/>
<path class="st2" d="M223.7,346.9c-1,0.6-1.9,1.4-2.5,2.4c-0.5,0.7-1,1.5-1.3,2.3c-0.6,1.2-1.1,2.5-1.5,3.8
	c-0.3,1.5-0.6,3.1-0.8,4.6c-0.2,1.4-0.2,2.9-0.2,4.3c0,1.7-0.1,3.3-0.2,5s0,3.2,0.1,4.8c0.2,3.8,0.7,7.5,1.5,11.2
	c0.6,2.5,1,5.1,1.5,7.7s0.8,5,1.6,7.4c0.4,1.4,1,2.8,1.7,4.1c0.4,0.6,0.7,1.3,1,1.9c0.6,1.6,1.2,3.2,1.9,4.7
	c0.4,0.8,0.8,1.5,1.2,2.3s0.8,1.2,1.1,1.9c0.4,1.2,0.7,2.4,1,3.5c0.5,1.7,2.3,2.7,4,2.3c0.2,0,0.3-0.1,0.5-0.2
	c-0.4-0.5-0.8-1.1-1.2-1.7c-0.4-0.7-0.8-1.4-1.1-2.1c-0.2-0.4-0.4-0.7-0.6-1.1s-0.4-0.7-0.5-1c-0.1-0.2-0.1-0.3-0.2-0.5
	c0.3,0,0.5,0,0.8-0.1c0.2,0,0.3-0.1,0.5-0.2c0.8,0,1.6,0,2.3-0.1c0.3,0,0.6,0,0.9-0.1c0-0.1,0-0.1-0.1-0.2v-0.1c-0.4,0-0.9,0-1.4,0
	h-0.1c-1.2,0-2.3-0.8-2.6-2l-0.1-0.1c-0.7-0.5-1.4-1.1-1.8-1.9l-0.3-0.4l-0.1-0.1l-0.2-0.3c-0.4-0.7-0.7-1.4-1-2.1l-0.1-0.1
	c-0.5-1.1-0.9-2.3-1.2-3.4c-0.2-1-0.4-1.9-0.4-2.9v-0.4c-0.1-0.5-0.2-0.9-0.3-1.4s-0.3-1.2-0.4-1.8c-0.1-1-0.2-1.9-0.3-2.8
	c0-0.4,0-0.8-0.1-1.2s-0.1-0.7-0.2-1v-0.2c-0.1-0.4-0.2-0.8-0.2-1.3v-0.2c0-0.1,0-0.3-0.1-0.4c-0.1-0.9-0.2-1.8-0.4-2.7l-0.1-1V386
	v0c-0.2-1-0.3-2.1-0.3-3.1c0-1.1,0-2.3-0.1-3.4c0-1.4,0.1-2.9,0.4-4.2c0.1-0.4,0.2-0.8,0.3-1.2v-0.1c0.1-0.5,0.3-1.1,0.4-1.6
	l0.1-1.2v-0.4c0.1-1,0.2-1.9,0.3-2.9c0.1-0.9,0.3-1.8,0.5-2.6c0.1-0.2,0.1-0.5,0.2-0.8c0.1-0.5,0.3-1,0.4-1.5c0.1-0.3,0.2-0.7,0.4-1
	l0.1-0.1v-0.1c0.1-0.3,0.2-0.6,0.4-1c0.3-0.9,0.7-1.8,1.2-2.6l0.5-0.9l0.5-0.9c0-0.1,0-0.2,0-0.3c0-1.1,0.6-2.1,1.6-2.5
	c0.5-0.6,1.2-0.9,1.9-1c0.3-3.2-2.1-6-5.3-6.2c-0.2,0-0.3,0-0.5,0h-0.3c-1,0.1-1.9,0.4-2.7,0.8L223.7,346.9z M228.9,415.6l0.1,0.2
	C229,415.8,228.9,415.7,228.9,415.6z"/>
<path class="st0" d="M239.2,399.4v0.5c0,0.6,0,1.2,0.1,1.8l0.3-0.2V401c0-0.3-0.1-0.7-0.1-1.1l-0.1-0.6L239.2,399.4L239.2,399.4z"/>
<path class="st0" d="M232.4,414.3c0.6,0,1.2,0,1.9-0.1l1.1-0.1h0.2c0.7-0.1,1.3-0.2,1.9-0.4c-1.2,0.1-2.5,0.2-3.8,0.2h-0.1
	c-0.5,0-1-0.2-1.5-0.4C232.2,413.7,232.3,414,232.4,414.3L232.4,414.3z"/>
<path class="st0" d="M253.2,324.6c-1.3,0.2-2.5,0.6-3.6,1.2c-0.5,0.2-0.9,0.4-1.4,0.6c-0.6,0.4-1.3,0.8-1.8,1.3
	c-0.3,0.3-0.6,0.6-0.9,0.9s-0.7,0.6-1.1,0.9c-0.7,0.7-1.3,1.5-2,2.2c-0.7,0.6-1.3,1.4-1.9,2.1c-0.4,0.4-0.8,0.8-1.1,1.2
	c-0.6,0.7-1.1,1.4-1.7,2.2c-0.7,1.1-1.5,2.2-2.1,3.4s-1.3,2.5-2,3.7c-0.7,1.2-1.3,2.5-1.8,3.9c-0.1,0.1-0.1,0.3-0.2,0.4
	c-0.6,1.4-1.2,2.7-1.7,4.2c-0.1,0.4-0.2,0.8-0.4,1.3c0.3-0.3,0.6-0.6,0.9-0.7c0.5-0.6,1.3-1,2.1-1c0.5,0,1,0.1,1.4,0.4l0.3,0.2
	c0.4,0,0.7,0,1.1,0.1c1,0.1,2,0.1,3,0.2h0.6c0-0.1,0.1-0.2,0.1-0.3c0.4-1.2,0.7-2.5,1.2-3.7c0.8-1.6,1.5-3.2,2.4-4.8
	c0.5-0.9,1-1.7,1.5-2.5c0.4-0.7,0.8-1.3,1.3-1.9l0.8-1l-0.2,0.2c0.9-1.1,1.9-2.2,2.9-3.2c0.2,0,0.4,0,0.5,0c0.6,0,1.3-0.2,1.8-0.5
	c0.2-0.1,0.5-0.3,0.7-0.5c0.2,0.1,0.5,0.1,0.7,0.1c0.4,0,0.8-0.1,1.1-0.3l0,0c0.5-0.3,1-0.8,1.4-1.3l0.5-0.5l1-0.9l0.4-0.3
	c0.7-0.2,1.4-0.3,2.1-0.5c0.8-0.2,1.5-0.8,1.7-1.6c0.5-0.1,0.9-0.3,1.4-0.5c0.7-0.3,1.1-1,1.1-1.8c0-0.6-0.3-1.1-0.7-1.5
	c-0.4-0.3-0.8-0.5-1.2-0.7c-0.5-0.1-1-0.2-1.5-0.2c-0.7,0-1.5,0.1-2.2,0.2c-0.8-0.5-1.6-0.8-2.6-0.9h-0.3
	C254.3,324.4,253.7,324.4,253.2,324.6L253.2,324.6z M250.2,325.6l-0.2,0.1L250.2,325.6z M231.4,349.3l-0.1,0.3L231.4,349.3z"/>
<path class="st0" d="M229.6,411.7c0.4,1,0.8,2,1.2,3v-0.1c0.3,0,0.5,0,0.8-0.1c0.2,0,0.3-0.1,0.5-0.2c0.8,0,1.6,0,2.3-0.1l1.1-0.1
	h0.2c0.7-0.1,1.3-0.2,1.9-0.4c-1.2,0.1-2.5,0.2-3.8,0.2h-0.1c-1.2,0-2.3-0.8-2.6-2l-0.1-0.1c-0.7-0.5-1.4-1.1-1.8-1.9l-0.2-0.2
	C229.1,410.4,229.3,411,229.6,411.7L229.6,411.7z"/>
<path class="st3" d="M446.5,386.1l0.4,0.2c1.2,0.7,2.5,1.4,3.8,2c1.6,0.6,3.2,1.1,4.8,1.5l1.1,0.2l-0.7-0.2l-0.2-0.1l-0.2-0.1
	l-1.8-0.7c-1.3-0.6-2.7-1.1-4-1.7l-1.5-0.6c-1.1-0.5-2.3-1.1-3.7-1.9l-0.8-0.4l-0.1-0.1l-0.1,0c-0.3-0.2-0.6-0.4-1-0.6
	C443.7,384.5,444.9,385.2,446.5,386.1L446.5,386.1z"/>
<path class="st3" d="M235.6,408.2c-0.4,0-0.9,0-1.3,0.1c-1.1,0.1-2.1,0.1-3.2,0.1c-1.6-0.1-3,1.1-3.1,2.8c-0.1,1.6,1.1,3,2.8,3.1
	c0.1,0,0.2,0,0.3,0h0.9l0,0c0.8,0,1.6,0,2.3-0.1l1.1-0.1h0.2c0.7-0.1,1.3-0.2,1.9-0.4l0,0c0.2-0.1,0.4-0.2,0.6-0.3
	c0.8-0.5,1.3-1.4,1.3-2.3c0-1.2-0.8-2.3-2-2.6C236.8,408.4,236.2,408.3,235.6,408.2L235.6,408.2z"/>
<path class="st3" d="M230.3,389.5c-0.7,0-1.4,0.2-2.1,0.6c-0.9,0.5-1.6,1.3-2.2,2.1c-0.3,0.3-0.5,0.7-0.8,1.1c-0.5,0.9-0.7,2-0.7,3
	c0.1,0.9,0.2,1.7,0.4,2.5c0,0.6-0.1,1.2,0,1.8c0,0.7,0.1,1.4,0.2,2.1c0.1,0.3,0.2,0.6,0.3,0.9s0.1,0.5,0.1,0.7l0.1,0.2
	c0,0.4,0.1,0.8,0.1,1.1c0.1,0.6,0.1,1.2,0.3,1.7c0.1,0.4,0.3,0.8,0.4,1.1c0.1,0.3,0.1,0.7,0.2,1.1c0.2,0.8,0.4,1.6,0.6,2.5
	c0.4,1.5,1.8,2.5,3.4,2.5l0,0c0.3,0,0.5,0,0.8-0.1c0.2,0,0.3-0.1,0.5-0.2l0,0c1.5-0.7,2.2-2.4,1.8-4c-0.2-0.8-0.4-1.6-0.6-2.4
	c0-0.8,0-1.6,0.1-2.4c0-0.4,0.1-0.8,0.1-1.2c0-0.6-0.1-1.3-0.2-1.9c0-0.3-0.1-0.7-0.2-1l-0.1-0.1c0.6,0.4,1.2,0.8,1.8,1.1
	c0.8,0.5,1.6,0.9,2.4,1.3c0.6,0.3,1.2,0.5,1.8,0.7c0.9,0.3,1.8,0.5,2.8,0.5c1.5,0.1,2.9-0.2,4.2-1c0.8-0.5,1.4-1.2,1.9-2
	c0.4-0.7,0.6-1.5,0.5-2.3c0,0,0,0,0-0.1c0.3-0.8,0.3-1.6,0.1-2.4c-0.3-1.2-1.2-2.1-2.4-2.4c-0.6-0.2-1.2-0.2-1.8,0l-0.3,0.1
	c-1.1-0.2-2.2-0.3-3.3-0.2c-0.5,0-1,0.1-1.5,0.2c-1-0.5-2-1-2.9-1.6c-0.4-0.4-0.7-0.7-1.1-1.1l-0.7-0.9c-0.4-0.4-0.8-0.8-1.3-1.1
	c-0.4-0.3-0.9-0.5-1.4-0.6c-0.4-0.1-0.7-0.1-1.1-0.1L230.3,389.5z"/>
<path class="st3" d="M232,351c-0.7,0.2-1.3,0.6-1.8,1.1c-0.3,0.3-0.5,0.6-0.7,0.9c-0.2,0.4-0.4,0.8-0.5,1.2l0,0l0,0
	c-0.2,0.4-0.4,0.8-0.5,1.2c-0.1,0.2-0.1,0.3-0.2,0.5c-0.2,0.6-0.2,1.2,0,1.8c0.2,0.7,0.6,1.3,1.2,1.8c0.2,0.2,0.3,0.4,0.6,0.6
	c0.2,0.2,0.5,0.4,0.7,0.5c0.5,0.2,1,0.4,1.6,0.4c0.6,0.1,1.1,0,1.6-0.1c0.4-0.1,0.7-0.2,1.1-0.4s0.9-0.4,1.3-0.5
	c0.5-0.2,1.1-0.3,1.6-0.4c1.5-0.1,3-0.2,4.6-0.1c0.2,0.6,0.5,1,1,1.3l0.1,0.1c-0.3,0.3-0.5,0.6-0.6,1c-0.2,0.8,0.1,1.6,0.8,2
	c0.2,0.1,0.4,0.2,0.6,0.3c0.4,0.1,0.9,0.1,1.4,0l1.1-0.2c0.5-0.1,1.1-0.2,1.6-0.3l0.6-0.1c1.6-0.1,3.3-0.2,4.9-0.2
	c0.9,0.1,1.7-0.6,1.7-1.5s-0.6-1.7-1.5-1.7c-0.1,0-0.2,0-0.3,0h-0.2c0.3-0.1,0.5-0.2,0.7-0.4c1,0.1,2,0.3,3,0.4
	c0.8,0.1,1.6,0.1,2.4,0.2c1.8,0.2,3.6,0.3,5.4,0.5c0.8,0.1,1.6,0.3,2.5,0.4l2.3,0.3c0.8,0.1,1.6,0.2,2.4,0.2c1,0,2,0,3.1,0
	c1.9,0,3.5-1.5,3.5-3.4c0-0.6-0.2-1.2-0.5-1.8c-0.4-0.8-1.2-1.4-2.1-1.6c-2.5-0.4-5-0.7-7.5-1.1c-1-0.2-1.9-0.4-2.9-0.5
	c-1.4-0.2-2.7-0.4-4.1-0.4c-1,0-2-0.1-3-0.1c-1,0-2,0-2.9-0.1c-0.6-0.1-1.3-0.2-1.9-0.2s-1.4-0.1-2.1-0.1s-1.3-0.1-2-0.1s-1.4,0-2,0
	c-1.4-0.1-2.7-0.2-4-0.3c-0.7,0-1.4-0.1-2-0.2s-1.4-0.1-2-0.2l-1.5-0.2l0.5,0.1c-0.9-0.1-1.7-0.3-2.6-0.4c-0.4,0-0.8-0.1-1.2-0.1
	c-0.6-0.1-1.1-0.2-1.7-0.2C233.1,350.8,232.5,350.8,232,351z"/>
<path class="st3" d="M232.9,358.5c-0.5,2.1-1.1,4.2-1.4,6.3c-0.1,0.6-0.1,1.2,0.2,1.7c0.3,0.5,0.8,0.8,1.3,1
	c0.6,0.2,1.2,0.1,1.7-0.2c0.5-0.3,0.9-0.8,1-1.3c0.4-2.1,0.8-4.2,1.3-6.3c0.3-1.2-0.4-2.4-1.5-2.7c-0.2-0.1-0.4-0.1-0.6-0.1
	C234,356.8,233.1,357.5,232.9,358.5L232.9,358.5z"/>
<path class="st3" d="M231.4,353.6c-0.6,0.4-1.1,0.9-1.7,1.3c-0.9,0.8-1.6,2-1.8,3.2c-0.4,1.3,0.4,2.7,1.7,3c0.4,0.1,0.9,0.1,1.3,0
	c0.6-0.2,1.2-0.6,1.5-1.1c0.2-0.4,0.4-0.8,0.6-1.2l0.6-0.6l0.3-0.2c0.6-0.4,1-0.9,1.2-1.6c0.4-1.4-0.4-2.8-1.8-3.2
	c-0.2-0.1-0.5-0.1-0.7-0.1C232.3,353.2,231.8,353.3,231.4,353.6L231.4,353.6z"/>
<path class="st3" d="M229.8,352.4c-1.2,1-2.3,2.2-3.1,3.5c-0.6,1.1-1.1,2.3-1.5,3.6c-0.2,0.7-0.3,1.4-0.5,2.1s-0.4,1.4-0.6,2.1
	s-0.3,1.3-0.5,2c-0.2,0.7-0.3,1.4-0.4,2.1c-0.1,0.8-0.4,1.6-0.6,2.5c-0.2,1.1-0.3,2.2-0.4,3.4c-0.1,0.7-0.2,1.4-0.3,2.2
	c0,0.5-0.1,1.1-0.1,1.6c-0.4,1.5-0.6,3.1-0.6,4.6c0.1,1.4,0.2,2.7,0.4,4.1V386c0.1,0.7,0.1,1.3,0.1,2s0.1,1.6,0.2,2.4
	c0.1,1,0.1,1.9,0.2,2.9c0.2,1.2,0.4,2.5,0.5,3.7c-0.1-0.4-0.1-0.7-0.1-1.1c0.2,1.9,0.6,3.7,1,5.6c0.2,0.7,0.3,1.5,0.5,2.2
	s0.3,1.4,0.6,2.1s0.4,1.1,0.5,1.7s0.2,1,0.4,1.5c0.2,0.8,0.5,1.5,0.8,2.2c0.3,0.6,0.7,1.1,1.2,1.5l0,0c0.3,0.5,0.7,0.8,1.1,1.1
	c1.5,0.9,3.4,0.4,4.2-1.1c0.4-0.7,0.5-1.6,0.3-2.4c-0.1-0.3-0.2-0.5-0.3-0.8c0-0.2-0.1-0.4-0.1-0.6c-0.2-2-0.9-4-1.2-6
	c0-0.3-0.1-0.7-0.1-1c-0.1-0.9-0.2-1.9-0.4-2.8s-0.1-1.6-0.2-2.4c-0.1-1-0.2-1.9-0.3-2.9l-0.2-1.5c0,0.2,0,0.4,0.1,0.6
	c-0.1-0.6-0.1-1.2-0.2-1.8c-0.1-0.8-0.2-1.6-0.3-2.4s-0.1-1.4-0.2-2.1s-0.1-1.5-0.2-2.2c0-1.6-0.2-3.2-0.2-4.9s-0.1-3,0-4.5
	c0-0.8,0.1-1.6,0.1-2.4s0-1.4,0.1-2.1c0.1-0.5,0.1-1.1,0.2-1.6s0.1-1.2,0.1-1.9l-0.1,0.7c0.1-0.7,0.2-1.4,0.3-2.1l0.1-0.4
	c0.2-1.3,0.5-2.5,0.9-3.7c0.2-1,0.5-1.9,0.9-2.9l0,0c0.1-0.3,0.3-0.6,0.5-0.9c0.4-0.4,0.9-0.8,1.3-1.2c1.1-1.2,1.1-3,0-4.2
	c-0.5-0.5-1.2-0.8-2-0.8C231.2,351.6,230.4,351.9,229.8,352.4L229.8,352.4z M231.5,401l0.1,0.4L231.5,401z"/>
<g>
	<path class="st3" d="M496.4,412.8c-0.5-0.1-1-0.1-1.5-0.2c-2.2-0.3-4.4-0.7-6.5-1c-1.2-0.2-2.4-0.4-3.6-0.6c-3.4-0.6-6.7-1.2-9.8-2
		c-2.9-0.7-5.8-1.4-8.8-2c-3.1-0.8-6.1-1.8-8.9-3.1c-0.5-0.2-1.1-0.4-1.7-0.6c-1.5-0.5-2.9-1.1-4.3-1.8l-0.7-0.4
		c-1.2-0.2-2.4-0.5-3.5-0.9c-2.4-0.8-4.7-1.8-6.9-3c-2.3-1.2-4.4-2.6-6.3-4.2c-0.7-0.6-1.3-1.2-1.9-1.9c-0.8-1-1.6-2-2.2-3.1
		c-1.2-2.3-1.8-4.9-1.7-7.5c0.1-1.5,0.2-2.7,0.4-3.9c0.1-0.6,0.3-1.2,0.5-1.8c0.1-0.2,0.1-0.5,0.2-0.7c0.4-1.3,1-2.5,1.6-3.7
		c0.6-1.1,1.4-2.1,2.2-3c1.1-1.2,2.2-2.3,3.5-3.2l-0.1,0.1l0.9-0.7c1.2-0.9,2.4-1.9,3.7-2.8c1.1-0.7,2.2-1.4,3.3-2l0.2-0.1
		c1.3-0.7,2.6-1.5,3.9-2.3c1.3-0.8,2.7-1.7,4.1-2.5c3.7-1.8,7.7-3.2,11.8-4l0.9-0.2l0.3-0.1c1.5-0.4,3.1-0.8,4.7-1.1
		c-0.4-0.4-0.9-0.6-1.4-0.6c-0.3,0-0.7-0.1-1-0.1h-0.1c-0.5,0-1,0-1.5,0c-0.8,0-1.6,0-2.4,0L463,348c-1.7,0-3.6,0.1-5.8,0.2
		c-1,0.1-2,0.1-3,0.2c-1,0.1-1.9,0.2-2.8,0.2c-2.1,0.1-4.3,0.5-6.2,0.8H445h-0.2h-0.3h-0.7c-1.2,0-2.8,0-4.4,0.1l-1.5,0.1h-0.1
		l-2,0.2l-1,0.1l-2.8,0.2l-0.5,0c-2.2,0.2-4.6,0.4-6.9,0.5c-4.1,0.2-8.2,0.2-12.2,0.2h-2.3l-18.8,0.1l-11.3,0.1l-4.9,0.1h-2.5H371
		h-2.2c-1,0-2,0.1-3,0.2H365c-2.5,0.2-5.1,0.2-7.3,0.3c-1.3,0-2.5,0-3.8,0h-3.6c-2.8,0.1-5.3,0.2-7.6,0.4l-1.7,0.1l-0.8,0.1
		l-0.8,0.1l-0.8,0.1c-3.2,0-7,0-10.8-0.2c-1.7-0.1-3.3-0.2-5-0.3c-0.9-0.1-1.9-0.1-2.8-0.2c-1.6-0.1-3.1-0.1-4.5-0.1h-7.6h-10.1H297
		c-9.4,0-19.1,0.1-28.6,0.3c-2.8,0.1-5.2,0.2-7.4,0.3c-2.1,0.1-4.4,0.4-7,0.6h-0.3c-1.2,0.1-2.4,0.2-3.6,0.3h-0.4l-0.5,0l-0.6,0
		h-0.2c-0.7,0.1-1.5,0.1-2.2,0.1c-1.1,0-2.3,0.1-3.6,0.1c-0.5,0-1.1,0-1.6,0c-0.5-0.4-1.1-0.6-1.7-0.6l-1-0.1c-1,0-2-0.1-3-0.2
		c-0.4,0-0.7,0-1.1-0.1l-0.3-0.2c-0.4-0.2-0.9-0.4-1.4-0.4c-0.8,0-1.6,0.4-2.1,1c-1,0.5-1.6,1.4-1.6,2.5c0,0.1,0,0.2,0,0.3l-0.5,0.9
		l-0.5,0.9c-0.5,0.8-0.9,1.7-1.2,2.6c-0.1,0.3-0.2,0.6-0.4,1v0.1l-0.1,0.2c-0.1,0.3-0.3,0.7-0.4,1c-0.2,0.5-0.3,1-0.4,1.5
		c-0.1,0.3-0.1,0.5-0.2,0.8c-0.2,0.9-0.4,1.7-0.5,2.6c-0.1,1-0.2,1.9-0.3,2.9v0.4l-0.1,1.2c-0.1,0.5-0.2,1.1-0.4,1.6v0.2
		c-0.1,0.4-0.2,0.8-0.3,1.2c-0.3,1.4-0.4,2.8-0.4,4.2c0,1.1,0,2.3,0,3.4c0,1,0.1,2.1,0.3,3.1v0.1v0.2l0.1,1c0.1,0.9,0.2,1.8,0.4,2.7
		c0,0.1,0.1,0.3,0.1,0.4v0.2c0.1,0.4,0.1,0.9,0.2,1.3v0.2c0.1,0.4,0.2,0.7,0.2,1s0.1,0.8,0.1,1.2c0,0.9,0.1,1.8,0.3,2.8
		c0.1,0.6,0.3,1.2,0.4,1.8c0.1,0.6,0.2,0.9,0.3,1.4v0.4c0.1,1,0.2,2,0.4,2.9c0.3,1.2,0.7,2.3,1.2,3.4l0.1,0.1c0.3,0.7,0.6,1.4,1,2.1
		l0.2,0.3l0.1,0.1l0.3,0.4c0.4,0.8,1.1,1.4,1.8,1.9l0.1,0.1c0.3,1.2,1.4,2,2.6,2h0.1c1.3,0,2.6-0.1,3.8-0.2h0.2h0.2
		c0.9-0.1,1.8-0.2,2.7-0.2h1.2h1.2h1.5c1.4,0,2.7,0,4,0c2.6-0.1,5.4-0.2,8.2-0.5c2.8-0.3,5.6-0.5,8.1-0.5c3.3,0,5.9-0.1,8.4-0.2
		c0.7,0,1.4-0.1,2.1-0.1h0.4h0.3h0.3h0.9c1,0,2-0.1,3.3-0.1h1.2c5.4,0,11,0,16.5,0.5l1.6,0.1h0.4h0.4h0.4c0.4,0,0.7,0.1,1.1,0.1
		l0.9,0c1.1,0.1,2.2,0.1,3.3,0.2c1.1,0.1,2.4,0.2,3.5,0.3c1.6,0.2,3.2,0.3,4.8,0.5l3.2,0.2l1,0.1c1.6,0.1,3.1,0.2,4.7,0.3l2.6,0.2
		l5.5,0.5c0.9,0.1,1.8,0.1,2.7,0.1l1.6,0.1l1.7,0.1h0.3c0.7,0,1.3,0.1,2,0.1c1.8,0.1,3.5,0.1,5.3,0.1h1.7h1.6
		c2.8,0.1,5.6,0.2,8.5,0.4c1.8,0.1,3.6,0.1,5,0.1h6.1c4.7,0,9.3,0,14.1-0.1c1.5,0,3-0.1,4.5-0.2c1.2-0.1,2.5-0.1,3.7-0.2
		c1.8-0.1,3.7-0.1,5.5-0.1h2.8l7.7-0.1h1.1l8-0.1h0.4c5.2-0.1,10.6-0.1,16-0.5c1.4-0.1,2.8-0.2,4.2-0.2c0.9,0,1.8,0,2.7-0.1h1.3
		c2.8,0,5.6-0.1,8.3-0.2l4.8-0.1h1.2c3.5-0.1,7.2-0.2,10.8-0.3h2.4c2,0,3.7,0,5.2,0.1c1,0,2,0.1,3,0.2l1,0.1c1,0.1,2,0.1,3,0.1h0.5
		l0.7,0h0.5c0.5,0,1.1,0,1.6,0c0.6,0,1.4-0.1,2.1-0.1s1.2-0.1,2-0.1h0.2c1.4,0,2.7,0.1,4.1,0.1s2.7,0.2,4.3,0.4c0.3,0,0.5,0,0.8,0
		c0.5,0,1,0.1,1.5,0.1l0.1-0.1c0.3-0.3,0.5-0.7,0.5-1.1c0-0.1,0-0.3,0-0.4L496.4,412.8z M239.5,401.5l-0.3,0.2c0-0.6,0-1.2,0-1.8h0
		v-0.6l0.2,0.6c0,0.4,0.1,0.7,0.1,1.1V401.5z"/>
	<path class="st3" d="M854.8,385.4c-0.1-1.1-0.1-2.1-0.2-3.2c-0.1-1.8-0.2-3.6-0.4-5.4c-0.1-1.1-0.2-2.2-0.3-3.3
		c-0.2-1.6-0.4-3.3-0.5-5c-0.1-2.1-0.2-4.2-0.2-6.3c0-0.9,0-1.8,0-2.7c0-1.6-0.1-3.2-0.1-4.9l-0.1-3.9c0-1.4-0.1-2.7-0.1-4.1v-0.5
		c0-0.4,0-0.7,0-1c0-0.1,0-0.1,0-0.2c0-0.1,0-0.2,0-0.3c0-0.7,0-1.3,0.1-1.8l0.1-0.5l0.2-0.9c0.1-0.6,0.1-1.3-0.2-1.8
		c-0.3-0.5-0.8-0.9-1.4-1.1c-0.2-0.1-0.4-0.1-0.6-0.1c-0.4,0-0.8,0.1-1.2,0.3l-0.1,0.1c-0.5,0.3-0.9,0.8-1.1,1.4l-0.1,0.4l-0.2,0.9
		c-0.2,0-0.3,0-0.5,0c-0.7,0-1.3,0-2,0.1h-0.3l-0.8,0.1c-1,0.1-1.9,0.1-2.9,0.1c-3.2,0-5.9,0-8.6-0.1l-1.7-0.1
		c-0.7,0-1.5-0.1-2.2-0.1c-0.9,0-1.8,0-2.8,0h-2c-2.6,0-5.2,0-7.9-0.1c-1.4,0-2.8-0.1-4.1-0.2c-1.5-0.1-3-0.1-4.6-0.2
		s-2.9-0.1-4.3-0.2c-0.7,0-1.3-0.1-2-0.2s-1.4-0.1-2.1-0.1l-1.1-0.1c-1-0.1-2.1-0.1-3.2-0.2H794l-3-0.1c-2.2-0.1-4.5-0.2-6.7-0.4
		l-2-0.1c-2.8-0.2-5.5-0.3-8.3-0.4l-2.1-0.1l-2.2-0.1c-0.7,0-1.4,0-2.1,0h-2.2c-2.7,0-5.5,0.1-8.2,0.4l-0.8,0.1
		c-1.1,0.1-2.3,0.3-3.5,0.4s-2.1,0.1-3.1,0.1H749h-2.8c-4.7,0-9.5,0.1-14.2,0.4c-0.9,0.1-1.8,0.1-2.8,0.1h-1.1l-4.2,0.1
		c-1,0-2.1,0.1-3.2,0.2c-1.7,0.1-3.5,0.2-5.2,0.2h-2.3c-2.1,0-4.3,0-6.5,0.1c-1.4,0-2.9,0.1-4.2,0.2s-2.6,0.2-3.9,0.2l-2.9,0.1
		l-1.5,0.1c-0.6,0-1.2,0-1.9,0h-2.1h-1.8c-1.8,0-3.5,0-5.3,0h-1.3c-2.9,0-5.8,0.1-8.7,0.1c-3.1,0-5.6,0.1-8.3,0.2
		c-1.2,0.1-2.5,0.1-3.9,0.1h-0.3h-2.7h-1.5c-2.9,0-5.8-0.2-8.3-0.3c-1.4-0.1-2.8-0.1-3.8-0.1h-4.4c-1.5,0-3-0.1-4.5-0.1l-1.6-0.1
		c-0.9,0-1.8-0.1-2.7-0.1c-2.7,0-5.4-0.1-8.4-0.2h-1.4h-1.7h-1.1h-2h-2h-2c-4.9,0-10,0.1-14.9,0.3c-2.4,0.1-5.5,0.3-8.7,0.5
		c-1.1,0.1-2.2,0.2-3.4,0.3c-1.6,0.2-3.2,0.4-4.9,0.4h-0.8c1.1,0.2,2.3,0.3,3.4,0.5l2.3,0.4c2.1,0.3,4.2,0.5,6.3,0.6
		c2.7,0.3,5.6,0.5,8.4,0.9l2,0.3l1.7,0.3l1.1,0.2c0.8,0.1,1.7,0.2,2.5,0.4c1,0.2,2.1,0.5,3.1,0.7l0.6,0.2l1.2,0.3
		c0.8,0.2,1.6,0.4,2.4,0.6c2.4,0.7,4.7,1.7,6.9,2.5l0.5,0.2c2.4,1,4.9,2,7.2,3.2c0.7,0.4,1.5,0.7,2.3,1.1c1.3,0.5,2.5,1.2,3.7,1.9
		l0.8,0.6c0.5,0.3,1,0.7,1.6,1s1.2,1,1.8,1.5l0.3,0.2c0.6,0.4,1.2,0.8,1.8,1.1c0.8,0.4,1.5,0.9,2.3,1.5l0.6,0.4
		c0.5,0.3,0.9,0.7,1.3,1.1c0.6,0.5,1,1.1,1.4,1.8c0.3,0.5,0.5,1,0.7,1.6l0.1,0.3l0.3,0.7c0.2,0.1,0.4,0.3,0.6,0.5
		c0.6,0.6,1,1.4,1,2.3v0.4c0,0.6,0.1,1.2,0.2,1.9s0.2,1,0.3,1.6s0.2,0.9,0.3,1.4l0.1,0.4c0.3,0.8,0.5,1.6,0.7,2.5c0,0.2,0,0.5,0,0.8
		s-0.1,0.3-0.1,0.5c-0.3,0.6-0.6,1.1-1,1.6c-0.3,1.1-0.7,2.1-1.3,3.1c-0.4,0.7-0.9,1.4-1.4,2c-0.2,0.4-0.3,0.8-0.5,1.2l-0.1,0.2
		c-0.3,0.7-0.7,1.4-1.1,2.1c-0.6,0.9-1.3,1.7-2.1,2.5c-1.2,1.3-2.5,2.5-4,3.5c-1.1,0.6-2.2,1.2-3.3,1.7c-0.5,0.2-0.9,0.4-1.3,0.6
		c-1.5,0.7-3.1,1.4-4.8,2.2c-4.2,1.9-8.7,3.3-13.2,4.2c-2,0.4-4.1,0.7-6.2,1.2c-1.9,0.5-3.8,1.1-5.7,1.8c-1.6,0.5-3.6,1.2-5.7,1.8
		l-1,0.3c-0.7,0.2-1.4,0.4-2.1,0.5l-1.5,0.3c-0.7,0.1-1.4,0.3-2.2,0.4l-1.6,0.3c-1.4,0.3-2.8,0.6-4.2,0.9c-2.1,0.5-4.2,0.9-6.3,1.1
		l-0.7,0.1c-0.2,0-0.5,0-0.7,0.1h2.3h1.5h0.2l4.3,0c2.2,0,4.4,0,6.6,0h5c0.5-0.2,0.9-0.2,1.4-0.2h0.4h0.1l0.4-0.1
		c0.8-0.1,1.7-0.1,2.5-0.1h2.3c0.9,0,1.8,0.1,2.8,0.1c0.6,0,1.2,0.1,1.7,0.1h0.7h1c0.9,0,1.9-0.1,3-0.1h1.1h2.6h2
		c2.6,0,5.4,0.1,8.2,0.2c2.2,0.1,4.4,0.2,6.6,0.4h0.2l1.9,0.1c0.6,0,1.3,0.1,1.9,0.2l2.1,0.2c1.3,0.1,2.6,0.1,3.8,0.1h0.5
		c2.7,0,5.5-0.1,8.3-0.2c1.2-0.1,2.5-0.1,4.1-0.1c1.3,0,2.7,0,4,0h0.5c2.8,0,5.8,0.1,8.7,0.2c1.5,0.1,3,0.1,4.5,0.2
		c0.6,0,1.1,0.1,1.7,0.1h0.4c0.7,0,1.4,0,2.1,0.1l1.1,0.1c1,0.1,2,0.1,3.1,0.1h0.7c1.2,0,2.4,0.1,3.5,0.2l2.1,0.2l0.4,0l1.8,0.2
		c1.4,0.1,2.8,0.2,4,0.2c4.8,0.2,9.9,0.2,14.3,0.3h3.3c3,0,5.8,0.1,8.5,0.2c1.6,0,3.3,0,4.9,0h1.2h2.5c2.8,0,5.7,0.1,8.5,0.2h1.9
		h1.5h0.1h0.8l2.4-0.1l2-0.1c0.7,0,1.4-0.1,2.1-0.1l2-0.1l1-0.1c1.1,0,2.2-0.1,3.2-0.1h0.2c3,0,5.9,0.2,8.7,0.3l2.6,0.1l1.5,0.1h0.9
		c0.8,0,1.6,0,2.3-0.1h0.6h1.2c1,0,2.1-0.1,3.2-0.1c0.4,0,0.8,0,1.2,0h1.7h1c3.1,0,6,0.1,8.8,0.2l2.3,0.1l2.3,0.1c1.1,0,2.2,0,3.3,0
		h1.5c2.6,0,5.3,0,7.9,0.1c1.5,0,3.1,0.2,4.6,0.3c1.1,0.1,2.2,0.2,3.4,0.3c1.7,0.1,3.5,0.1,5.2,0.1c0.8,0,1.6,0,2.5,0h1.3
		c1.9,0,3.9-0.1,5.7-0.1l1.3,0c4.6-0.2,10-0.4,15.5-0.4c0,0.4,0,0.7-0.1,1.1c0,0.8,0.2,1.5,0.8,2.1c0.6,0.6,1.5,1,2.3,1
		c0.8,0,1.6-0.3,2.2-0.9l0.3-0.4l0.2-0.2c0.3-0.5,0.4-1,0.4-1.6c0.1-0.9,0.1-1.9,0.1-2.8c0-0.5,0-0.9,0-1.4c0-1.4,0.2-2.8,0.3-4
		c0.2-2.5,0.4-5.3,0.5-8.4c0-1.1,0.1-2.3,0.2-3.4c0.1-1.7,0.2-3.5,0.2-5.3C855.1,390.8,855,388,854.8,385.4z M848.2,349.6
		c0,1.8-0.1,3.7-0.1,5.5c0,1.1-0.1,2.1-0.1,3.2v1.8c0,2.4-0.1,4.7-0.2,7.1c-0.1,3,0,6,0.1,8.6c0.1,1.7,0,3.5,0,5.1
		c0,1.1-0.1,2.2-0.1,3.3c0,0.8,0,1.7,0.1,2.5c0,0.6,0.1,1.2,0.1,1.7c0,1.2,0,2.3,0.1,3.5v1c0,1.7,0,3.5,0,5.2c0,1.1,0,2.2,0,3.3
		c0,0.5,0,0.9,0,1.4c0,0.9,0,1.9,0,2.8l-0.1,2c0,0.8-0.1,1.5-0.1,2.3c0,0.5-0.1,1-0.1,1.5c-0.1,1.1-0.1,2.2-0.2,3.3v0.1H847
		c-1.9,0-3.8,0-5.7,0l-0.1-0.1c0.1-1.5,0.2-3,0.2-4.5c0.1-2.5,0.2-4.8,0.4-7.1v-0.3c0.2-2,0.3-3.9,0.3-5.8c0-1.6,0-3.2,0-4.8v-2.2
		v-6.7v-6.6c0-5.1,0-9.5,0.2-13.6c0.1-2.4,0.2-4.5,0.3-6.4c0.1-0.9,0.1-1.8,0.2-2.7c0.1-1.3,0.2-2.7,0.3-4.1l0.1-1.1h1l1.8-0.1
		c0.8,0,1.5,0,2.3-0.1C848.2,348.8,848.2,349.2,848.2,349.6z"/>
</g>
<path class="st3" d="M841.2,354.8c0.1,5.8,0.5,11.6,0.9,17.4c0,0.6,0.3,1.2,0.7,1.6c0.9,0.9,2.4,0.9,3.3,0c0.4-0.4,0.7-1,0.7-1.6
	c0-2.9-0.1-5.8-0.2-8.6s-0.3-5.9-0.4-8.8c0-1.3-1.1-2.4-2.4-2.4S841.2,353.4,841.2,354.8L841.2,354.8z"/>
<path class="st3" d="M844.1,347.2c-1.5,0.8-2.5,2.3-2.8,3.9c-0.3,1.2-0.6,2.5-0.8,3.7c-0.2,1.2-0.3,2.4-0.5,3.6
	c-0.4,2.9-1,5.8-1.3,8.7c0,0.4,0,0.8,0.1,1.1c0,0.2-0.1,0.4-0.1,0.5c-0.6,3.3-1.4,6.6-2,9.9c-0.4,2.2-0.8,4.4-1.2,6.6
	c-0.3,1.8-0.5,3.5-0.8,5.3c-0.6,3.6-0.9,7.3-1.1,11c0,0.8,0.1,1.6,0.3,2.3c0.3,1,0.9,1.9,1.8,2.4c0.9,0.6,2.1,0.7,3.1,0.4l0.5-0.2
	l0.1,0.1c-0.8,0.9-1.2,2-1.2,3.1c0,0.8,0.1,1.7,0.4,2.4c0.2,0.5,0.4,1,0.7,1.5c0.3,0.4,0.7,0.9,1,1.3s0.8,0.7,1.2,1
	c0.8,0.4,1.7,0.7,2.7,0.7c1.1,0,2.1-0.3,3-0.9c0.3-0.2,0.7-0.4,0.9-0.7c1.6-0.6,2.8-2.1,3-3.8c0.2-1.8,0.3-3.6,0.3-5.3
	c0-3.3-0.3-6.6-0.6-9.9c-0.7-6.9-1.2-13.8-1.4-20.7c0-0.5-0.1-0.9-0.3-1.3l0,0c0-0.3,0-0.6,0.1-0.9c0.1-1.1-0.1-2.2-0.6-3.1
	c-0.1-0.2-0.2-0.4-0.4-0.5c0.3-1.4,0.5-2.7,0.7-4.1c0.1-0.8,0.2-1.6,0.3-2.4c0.7-1.9,1.1-3.8,1.3-5.8c0.1-1,0.2-2.1,0.2-3.2
	c0-0.5,0-0.9,0-1.4c0-0.5,0-1.1-0.1-1.6c-0.1-0.5-0.3-1-0.6-1.5c-0.2-0.3-0.3-0.5-0.5-0.7c0-0.1-0.1-0.2-0.2-0.4
	c-0.7-1.2-1.9-1.9-3.2-1.9C845.4,346.8,844.7,346.9,844.1,347.2L844.1,347.2z"/>
<path class="st3" d="M845.1,345.3c-2.7,0.2-5.3,0.5-8,0.8c-2.4,0.3-4.8,0.7-7.2,1c-1.3,0.3-2.1,1.7-1.8,3c0.3,1.1,1.3,1.9,2.5,1.9
	c2.2-0.2,4.4-0.5,6.6-0.7c2.7-0.3,5.3-0.5,8-0.8c0.7,0,1.3-0.3,1.8-0.8c0.5-0.5,0.8-1.2,0.8-1.9c0-1.4-1.1-2.5-2.5-2.6L845.1,345.3z
	"/>
<path class="st3" d="M848.8,340.6c-1.4,0.2-2.9,0.4-4.3,0.6s-2.6,0.5-3.9,0.8c-0.7,0.2-1.1,0.9-0.9,1.6c0.1,0.3,0.3,0.6,0.6,0.8
	c0.3,0.2,0.7,0.2,1,0.1c1.8-0.3,3.6-0.6,5.5-0.8l2-0.3c0.4,0,0.7-0.1,1-0.4c0.5-0.5,0.5-1.4,0-1.9c0,0,0,0,0,0
	c-0.2-0.2-0.5-0.4-0.9-0.4H848.8z"/>
<path class="st3" d="M849.2,338.3c-1,0.1-2.1,0.3-3.1,0.5c-0.7,0.1-1.3,0.1-2,0.1c-0.9,0.1-1.8,0.2-2.8,0.4
	c-1.2,0.2-2.4,0.2-3.6,0.2c-1.6,0-3.2-0.1-4.9-0.1c-0.7,0-1.4,0-2.1,0.1s-1.6,0-2.4,0c-1.5,0-3,0.1-4.5,0.2
	c-1.6,0.2-3.2,0.1-4.8,0.2c-1.5,0.1-2.9,0.2-4.4,0.2c-2.6,0-5.3-0.1-7.9-0.2h-2c-0.7,0-1.3,0.1-2,0.1l0,0l-0.4,0.1
	c-1.4,0.2-2.8,0.3-4.1,0.4c-1.7,0.1-3.4,0.4-5,0.8c-0.8,0.2-1.7,0.3-2.5,0.4c-1,0.2-2,0.4-3,0.6c-2,0.4-4,0.9-6,1.6
	c-0.5,0.1-0.9,0.4-1.2,0.7c-0.5,0.5-0.8,1.2-0.8,2c0,1.5,1.2,2.8,2.8,2.8c2.6-0.2,5.2-0.4,7.9-0.8c0.6-0.1,1.3-0.1,1.9-0.2
	s1.3,0,2,0c1.1-0.1,2.1-0.2,3.2-0.3c1.2-0.1,2.4-0.1,3.7,0c1.3,0,2.5-0.1,3.8-0.1c2.6,0,5.3-0.1,7.9-0.2c1.4,0,2.7-0.1,4.1-0.2
	c0.7-0.1,1.5-0.1,2.2-0.2s1.7-0.1,2.5-0.1c1.4-0.1,2.8-0.3,4.2-0.5l2.1-0.3c0.7-0.1,1.3-0.1,2-0.2c0.9-0.1,1.7-0.2,2.6-0.4
	c1.4-0.2,2.8-0.2,4.2-0.3s3-0.4,4.4-0.6c0.7-0.1,1.4-0.1,2.1-0.2c0.7-0.1,1.3-0.3,2-0.5c1.2-0.3,2.5-0.6,3.8-0.8h0.3
	c0.7,0,1.3-0.3,1.8-0.8c1-1,1-2.6,0-3.6C850.5,338.7,849.9,338.4,849.2,338.3L849.2,338.3z"/>
<path class="st3" d="M760,411c-0.4,1.5,0.5,3.1,2,3.5c1.6,0.5,3.2,0.8,4.8,1.1c1.5,0.3,2.9,0.5,4.4,0.7s3.2,0.5,4.8,0.7
	c1.4,0.2,2.8,0.3,4.1,0.4c1.9,0.3,3.7,0.5,5.6,0.8h-0.3l0.9,0.1l0,0l2,0.2l2.3,0.3c1.6,0.2,3.2,0.5,4.9,0.6c1.5,0.1,2.9,0.2,4.3,0.4
	c2.9,0.4,5.8,0.5,8.8,0.6c1.5,0,2.9,0,4.3,0s2.8,0.2,4.2,0.1c2.7,0,5.3,0,8,0.1c2.1,0.1,4.2,0.2,6.3,0.3c2,0.1,4.1,0.1,6.1,0
	l5.6-0.1c1.1,0,2.2-0.1,3.2-0.1s2.1,0.1,3.2,0.2c1.2,0,2.2-1,2.2-2.2s-1-2.2-2.2-2.2c-2.7-0.2-5.3-0.4-8-0.5
	c-1.3-0.1-2.6-0.1-3.9-0.1s-2.4,0-3.6-0.2l-1.6-0.2c-1.2-0.2-2.5-0.4-3.7-0.5s-2.8-0.2-4.1-0.3c-2.4-0.2-4.8-0.3-7.2-0.3
	c-1.2,0-2.4-0.2-3.6-0.3s-2.6-0.1-3.9-0.2s-2.8,0-4.2-0.1c-1.1-0.1-2.3-0.2-3.4-0.4s-2.5-0.4-3.7-0.5c-1.1-0.1-2.2-0.2-3.3-0.3
	c-1.5-0.2-2.9-0.5-4.3-0.7c-1.9-0.3-3.8-0.5-5.8-0.7l-1.8-0.2h-0.1l-0.3,0l0,0c-1.6-0.2-3.3-0.4-4.9-0.5c-1.4-0.1-2.8-0.2-4.2-0.4
	L772,410c-1.6-0.2-3.1-0.4-4.7-0.6s-3-0.4-4.6-0.4h-0.1C761.4,409,760.3,409.8,760,411z M834.2,415.8h0.2H834.2z M787.4,418.5h0.3
	H787.4z"/>
<path class="st3" d="M846.7,416.1c0,1.1,0,2.2,0,3.3c0.1,1,0.9,1.7,1.9,1.7c0.9-0.1,1.6-0.8,1.7-1.7c0-1.1,0-2.2,0-3.3
	c0.1-1-0.7-1.9-1.7-1.9c-1-0.1-1.9,0.7-1.9,1.7C846.7,415.9,846.7,416,846.7,416.1L846.7,416.1z"/>
<path class="st3" d="M715.8,409c-1.1,0-2.1,0.7-2.4,1.8c-0.2,0.6-0.1,1.3,0.2,1.9c0.3,0.6,0.8,1,1.5,1.1c2.2,0.3,4.5,0.5,6.7,0.8
	c1.4,0.2,2.8,0.4,4.2,0.7s2.8,0.7,4.3,0.9c3.2,0.6,6.4,1,9.6,1.5l3.3,0.4h0.1c1.6,0.2,3.3,0.4,4.9,0.5l2.6,0.3l1.7,0.2l2.2,0.2
	l2,0.2l2.2,0.2c2.1,0.2,4.3,0.4,6.4,0.5c3.1,0.1,5.9,0.2,8.6,0.4c1.2,0.1,2.5,0.1,3.7,0.1h0.8c1.1,0,2.2,0.1,3.3,0.1h0.9
	c0.5,0,0.9,0,1.4,0h1.8h1.1h0.9h3.4h0.7c1.8,0,3.5,0,5.1,0.1c1.1,0.1,2.2,0.1,3.4,0.1l3,0.1c1.7,0.1,3.4,0.2,5.1,0.3h0.8
	c1.7,0.1,3.4,0.3,5.1,0.5l0.6,0.1c1.3,0.2,2.8,0.4,4.4,0.5c1,0.1,1.9,0.1,2.8,0.2l1.8,0.1l1.7,0.1c1,0,1.9,0.1,2.9,0.2l1.4,0.1
	c0.9,0.1,1.8,0.1,2.7,0.2l1.6,0.2h0.1l2,0.3c1.4,0.2,2.8,0.4,4.1,0.5l0,0c1.1,0.1,2,0.1,2.9,0.1c0.4,0,0.9,0,1.3,0
	c0.8,0,1.7-0.1,2.8-0.3c0.3,0,0.6-0.1,0.9-0.1c0.6-0.1,1.2-0.4,1.8-0.7c0.7-0.5,1.3-1.2,1.5-2c0.1-0.5,0.1-1,0.1-1.5
	c0-0.7,0-1.5,0.1-2.2c0-1.2-1-2.2-2.2-2.2c-1.2,0-2.2,1-2.2,2.2c0,0.4,0,0.7,0,1.1l-2-0.1c-1.2,0-2.4-0.1-3.6-0.2s-2.3-0.2-3.4-0.3
	c-0.9-0.1-1.7-0.2-2.6-0.3s-1.7-0.3-2.5-0.4c-1.1-0.2-2.1-0.3-3.2-0.4c-0.9-0.1-1.8-0.3-2.7-0.4s-1.8-0.2-2.7-0.3
	c-1.6-0.2-3.3-0.3-4.9-0.5c-1.4-0.2-2.9-0.4-4.3-0.6s-2.8-0.3-4.2-0.5s-2.8-0.2-4.2-0.2c-1.6,0-3.2-0.1-4.8-0.2s-2.9-0.1-4.4-0.2
	s-3.1-0.2-4.7-0.3c-2.9-0.2-5.8-0.2-8.7-0.3s-5.6-0.3-8.4-0.3c-1.5,0-2.9-0.1-4.4-0.2s-2.8,0-4.2,0s-2.8,0-4.2,0s-2.9-0.2-4.3-0.3
	s-2.9-0.3-4.3-0.4s-2.9-0.3-4.3-0.4c-3.6-0.4-7.2-0.8-10.9-1.1c-1.9-0.2-3.8-0.3-5.7-0.4c-1.7-0.1-3.4-0.3-5.1-0.5
	c-1-0.2-2.1-0.3-3.1-0.5s-2.3-0.2-3.4-0.4s-2.4-0.1-3.6-0.1C717.7,409,716.7,409,715.8,409L715.8,409z M848.6,418.7L848.6,418.7
	L848.6,418.7z"/>
<path class="st1" d="M893.1,297.4c0-2.6-0.2-5.1-0.6-7.7c-0.1-1.3-0.1-2.5,0-3.8c0.1-1.9-1.3-3.5-3.2-3.6c-0.1,0-0.2,0-0.3,0
	c-0.1,0-0.2-0.1-0.3-0.1c-2-0.6-4-1-6-1.3c-1.9-0.2-3.8-0.3-5.7-0.2c-1.8,0.1-3.5,0.2-5.2,0.2c-2,0-4-0.1-6-0.2
	c-1.5-0.1-3-0.1-4.5-0.1h-2.3c-0.9,0-1.9,0-2.8,0.1l0.1,0l-1.4,0.2c-0.5,0.1-1,0.3-1.5,0.5c-0.6,0.3-1.2,0.7-1.6,1.1
	c-0.4,0.4-0.7,0.8-1,1.2c-0.5,0.8-0.8,1.8-0.9,2.8c0,0.4-0.1,0.7-0.1,1.1c-0.1,0.4-0.2,0.9-0.2,1.3c-0.1,1-0.3,2.1-0.3,3.1
	c0,1,0.1,2,0.3,3c0.1,0.4,0.2,0.8,0.3,1.2c0,0.2,0,0.3,0,0.5c0,0.7,0.1,1.4,0.2,2.1c0.1,0.7,0.2,1.4,0.4,2c-0.2,4.1-0.4,8.2-0.4,12
	c-0.1,3.4-0.1,6.8-0.2,10.2c0,2.1-0.1,4.3-0.1,6.4c0,0.2,0,0.5,0,0.7c0,0.2,0,0.4,0,0.5c0,2.7-0.1,5.4-0.2,8
	c-0.2,1.2-0.3,2.3-0.4,3.5c-0.1,1.5-0.2,3-0.2,4.4c-0.1,3.1-0.2,6.2-0.3,9.3c-0.1,1.8-0.1,3.6-0.2,5.5c-0.1,1.8,0.1,3.9,0.1,5.8
	c0,1.9,0.2,3.7,0.3,5.5c0.1,1.8,0.3,3.4,0.3,5.1c0,1.9-0.2,3.7-0.4,5.5c-0.1,1.6-0.2,3.1-0.3,4.7c-0.2,3.3-0.3,6.7-0.1,10
	c0.2,3.4,0.2,6.8-0.1,10.2c0,0.7-0.2,1.4-0.2,2c-0.1,0.7-0.1,1.3-0.1,2c0,1.3,0.2,2.6,0.3,3.9l0.1,2.3c0,0.9,0,1.7,0.1,2.6
	c0,0,0,0.1,0,0.1c0,0,0,0-0.1-0.1c-0.5-0.6-0.8-1.3-0.8-2.1c0-0.4,0-0.7,0.1-1.1h-0.7c0,2,0,4,0.1,6l0.7-0.1c0.3,0,0.6-0.1,0.9-0.1
	c0,0,0,0.1,0,0.1c0,0.5,0,1,0.1,1.4v0.6c0,1.1,0.2,2.2,0.3,3.3c0.1,0.7,0.1,1.4,0.2,2.1c0.1,1,0.2,2,0.4,3.2v0.1c0,0.1,0,0.2,0,0.3
	c0,2.4,0,4.8-0.1,7.3c0,0.6-0.1,1.2-0.2,1.8c-0.1,0.6-0.1,1-0.2,1.5l-0.1,0.8c0,0.2-0.1,0.3-0.1,0.5c0,0.1,0,0.2,0,0.3
	c0,0.1,0,0.3-0.1,0.4c-0.1,0.7-0.2,1.3-0.3,2c0,0.3-0.1,0.7-0.1,1c-0.1,0.6-0.1,1.3-0.1,1.9c0,0.4,0,0.8,0,1.2l-0.1,1
	c0,0.6-0.1,1.2-0.1,1.9c0,0.2,0,0.4,0,0.5c0,0,0,0,0,0.1c0,0,0,0.1,0,0.2c0,0,0,0-0.1,0c0,0.1,0,0.2,0,0.2l0,0c0,0,0,0,0,0
	c-0.1,0.6-0.1,1.2-0.1,1.8c0,0.5,0.1,1,0.1,1.6c0.1,1.3,0.1,2.5,0.1,3.8c0,0.5,0,1,0.1,1.5v0.5c0,0.1,0,0.2,0,0.3
	c0,0.2,0,0.5,0.1,0.7c0,0.1,0,0.2,0.1,0.4c0,0.1,0,0.2,0.1,0.2c0.1,0.3,0.1,0.5,0.2,0.8c0,0.1,0.1,0.2,0.2,0.3c0,0,0,0,0,0h-0.1
	c0.1,0.6,0.3,1.2,0.6,1.8c0.7,1.2,1.8,2,3,2.5c0.4,0.2,0.8,0.4,1.2,0.6c0.2,0,0.4,0.1,0.6,0.1c0.4,0.1,0.9,0.3,1.3,0.4
	c1.1,0.5,2.3,0.8,3.5,1.1c2,0.3,4,0.5,6.1,0.7c1.7,0.1,3.5,0.3,5.2,0.4c1.7,0,3.5,0,5.2-0.2c1.5-0.1,3-0.2,4.5-0.2c0.5,0,1,0,1.5,0
	c0.7,0,1.4-0.2,2.1-0.5c0.4-0.2,0.7-0.5,1-0.7c0.6-0.6,1-1.4,1.2-2.2c0.2-1,0.6-2,0.8-3.1c0.1-0.6,0.1-1.1,0.2-1.7
	c0.1-0.2,0.2-0.3,0.2-0.5c0.3-1.1,0.5-2.2,0.6-3.3c0.2-1.5,0.2-3,0.3-4.5c0-0.6,0.1-1.2,0.1-1.8c0.2-4,0.4-8.1,0.5-12.7
	c0-2.5,0-5-0.1-7.4c0-1.8-0.1-3.8-0.1-5.6c0-2.2,0-4.4,0.1-6.5s0.2-4.3,0.4-6.4v-0.2c0.3-4.2,0.4-8.5,0.5-12.7v-0.2
	c0-1.1,0-2.1,0-3.2c0.1-3.3,0.1-6.8,0.4-10.1c0.4-4.7,0.6-9,0.7-13c0-2,0-4,0.1-6c0-2.5,0-5,0.1-7.5c0-1.4,0.1-2.8,0.2-4.1
	c0-0.8,0.1-1.5,0.1-2.3c0.1-1.9,0.2-4,0.2-6.6c0.1-3.8,0.1-7.9,0-12.5c0-2.6,0.1-5.2,0.2-7.7c0.1-1.8,0.2-3.7,0.2-5.5v-0.8
	c0.1-3,0.1-6,0-9.1c0.1-0.3,0.1-0.6,0.2-0.9c0.3-1.2,0.5-2.4,0.7-3.6c0.2-1.6,0.3-3.1,0.5-4.7c0.1-1.3,0.3-2.5,0.3-3.8s0-2.8,0-4.1
	S893.1,298.7,893.1,297.4z"/>
<path class="st4" d="M446.4,381.3c-1.2,1.2-1.8,2.7-1.8,4.4c0,1.6,0.7,3.2,1.8,4.4l1.2,1.4c1,1,2.1,1.9,3.3,2.6
	c1.5,0.9,3.1,1.6,4.8,2.3c0.8,0.4,1.7,0.7,2.6,0.9c1.6,0.3,3.3,0.5,4.9,0.6c3.2,0,5.7-2.6,5.7-5.7c0-1-0.3-2-0.8-2.9
	c-0.8-1.3-2-2.2-3.4-2.6c-1.6-0.6-3.3-1.2-5-1.9c-1.1-0.5-2.1-1-3.1-1.6c-0.5-0.6-1-1.1-1.5-1.7c-1.1-1.2-2.6-1.8-4.2-1.8
	C449.1,379.5,447.5,380.2,446.4,381.3L446.4,381.3z"/>
<path class="st4" d="M561.6,338.9c-2.5,0.2-5.1,0.6-7.6,0.7c-2,0.1-3.9,0.1-5.9,0c-2.6-0.1-5.1-0.5-7.7-0.6c-2.6-0.1-5.2,0-7.8,0.2
	c-2.2,0.1-4.4,0.5-6.7,0.6c-1.6,0.1-3.1,0.2-4.7,0.2c-1.6,0-3.2,0.1-4.8,0.2c-3.5,0.2-6.9,0.6-10.3,0.9c-1.5,0.2-3.1,0.2-4.6,0.2
	c-1.6,0-3.1,0.2-4.7,0.3s-3.1,0.1-4.7,0.2s-3,0.4-4.5,0.7c-1.7,0.2-3.4,0.4-5.1,0.8c-1.4,0.3-2.9,0.6-4.4,0.8
	c-1.2,0.2-2.5,0.5-3.7,0.7c-1.2,0.2-2.4,0.6-3.5,1c-2.5,0.9-4.8,2.1-7,3.6c-0.9,0.7-1.9,1.3-2.8,1.8c-1,0.6-2.1,1-3.2,1.5
	c-1.4,0.5-2.8,1.1-4.2,1.7c-1.8,0.9-3.5,1.9-5,3.2c-1.4,1.2-2.8,2.5-3.9,4c-1.6,1.9-3.2,4.1-3.8,6.6c-0.9,3.1,1,6.4,4.1,7.3
	c2.6,0.7,5.3-0.4,6.7-2.7c0.3-0.5,0.7-1,1-1.5c1.3-1.5,2.7-2.9,4.2-4.2c2.6-1.7,5.4-3.1,8.2-4.4c1.3-0.6,2.5-1.3,3.8-2
	c0.9-0.5,1.8-1.1,2.8-1.5s1.7-0.7,2.6-1c1.4-0.5,2.9-0.9,4.4-1.1c1.6-0.3,3.2-0.6,4.8-1c1.9-0.4,3.8-0.8,5.8-1h-0.1
	c1.5-0.2,3-0.5,4.5-0.7c1-0.1,2-0.2,3.1-0.2c1.3-0.1,2.5-0.3,3.8-0.4s2.6-0.1,3.9-0.2s2.6-0.3,3.9-0.5c1.1-0.1,2.2-0.2,3.3-0.3
	c1.4-0.1,2.8-0.3,4.2-0.5c2.3-0.2,4.5-0.3,6.8-0.3c4.8,0,9.6-0.5,14.3-0.8c2.6-0.1,5.1-0.1,7.7,0c1.2,0,2.3,0.1,3.5,0.1l3.2-0.2
	c2.2-0.1,4.5-0.4,6.7-0.6c2.3-0.2,4.6-0.3,6.9-0.3c2.6,0,5.1,0.1,7.7,0.3c1.3,0.1,2.6,0.2,3.9,0.3c1.1,0.1,2.2,0.1,3.3,0.3
	c1.3,0.2,2.6,0.4,3.8,0.5c1.1,0.1,2.2,0.2,3.4,0.3l3.3,0.5c1.7,0.3,3.3,0.7,5,1s3.6,0.7,5.4,1.1c3.2,0.7,6.4,1.6,9.4,2.8
	c2.1,0.9,4.1,2.1,6.1,3.1s4,2.2,6.1,3.3s3.9,2.5,6,3.6c1.8,1,3.7,1.8,5.6,2.6c0.6,0.3,1.2,0.7,1.8,1.1s1,0.6,1.5,0.9
	c0.8,0.5,1.6,1,2.4,1.6l0.2,0.2l0.1,0.1c0.3,0.9,0.5,1.9,0.7,2.9c0.4,2.3,3.1,3.5,5.2,3c1.1-0.3,2-1,2.5-2c0.6-1,0.7-2.2,0.4-3.3
	c-0.2-1.6-0.7-3.3-1.4-4.8c-0.6-1.3-1.5-2.4-2.6-3.3c-1.2-1-2.4-2.1-3.6-3.1c-0.6-0.5-1.3-1.1-1.9-1.5c-0.4-0.2-0.8-0.4-1.3-0.6
	c-0.8-0.4-1.5-0.8-2.3-1.2c-0.8-0.4-1.6-0.8-2.3-1.3s-1.8-1.1-2.6-1.7c-1.7-1.1-3.4-2.2-5.2-3.1c-1.7-0.9-3.5-1.7-5.2-2.6
	s-3.7-1.9-5.6-2.8c-2.2-1-4.5-1.8-6.8-2.5c-1.6-0.5-3.2-1-4.8-1.4c-1.9-0.5-3.9-0.9-5.8-1.3s-4-0.8-6.1-1.1c-1.3-0.2-2.7-0.5-4-0.6
	c-0.9-0.1-1.8-0.2-2.7-0.3l-2.7-0.5c-1.7-0.3-3.5-0.5-5.2-0.6c-1.3-0.1-2.6-0.3-3.9-0.5s-2.7-0.2-4.1-0.2s-2.6-0.1-3.9-0.1
	c-1.1,0-2.2,0-3.3,0.1L561.6,338.9z M609.2,356.6l0.8,0.3L609.2,356.6z"/>
<path class="st4" d="M563.8,336.7c-3.2,0.1-6.4,0.2-9.7,0.2c-1.5,0-3,0-4.5,0c-2,0.1-4,0.2-6,0.5c-1.5,0.2-3,0.6-4.4,0.9
	s-2.8,0.5-4.2,0.7l-1.4,0.2c-1.2,0.1-2.4,0.2-3.6,0.3c-1.7,0.2-3.3,0.4-4.9,0.7l-2.5,0.2c-1.3,0.1-2.5,0.3-3.8,0.3
	c-2.8,0-5.5,0.2-8.2,0.7c-1,0.2-2,0.5-2.9,0.7s-2.1,0.4-3.1,0.6c-1.7,0.3-3.4,0.6-5.1,0.9c-0.8,0.1-1.6,0.1-2.5,0.2
	c-1.4,0.2-2.9,0.5-4.3,0.7c-0.9,0.1-1.8,0.3-2.7,0.5c-1,0.2-1.9,0.6-2.8,0.9c-1.1,0.3-2,1-2.6,2c-0.6,1-0.8,2.2-0.4,3.4
	c0.6,2.2,3.1,3.9,5.4,3.1c1.2-0.5,2.5-0.8,3.8-1.1c3.2-0.3,6.5-0.6,9.8-0.8c0.8-0.1,1.7-0.2,2.5-0.2s1.8-0.1,2.7-0.2
	c1.9-0.2,3.9-0.5,5.8-0.5c2.2-0.1,4.4,0,6.5-0.2s4.3-0.2,6.4-0.4s4-0.2,6-0.2c0.9,0,1.8-0.1,2.7-0.2c1.3-0.1,2.6-0.3,3.8-0.5
	c1-0.1,2-0.3,3-0.4l2.7-0.5c3.7-0.3,7.5-0.4,11.3-0.3c2,0,4,0,6,0.1c2.2,0.1,4.5,0.3,6.7,0.6l1.7,0.2c1.7,0.3,3.5,0.5,5.2,0.8
	c6.2,0.9,12.3,2.3,18.2,4.2c3,1,6,1.8,9,3c2.6,1,5.3,1.9,8,2.9c0.5,0.2,0.9,0.4,1.3,0.7c0.8,0.5,1.6,1,2.5,1.4l1.6,0.7
	c1.2,0.3,2.4,0.3,3.5,0c3.5-1,5.6-4.6,4.6-8.1c0,0,0,0,0,0c-0.5-1.7-1.5-3.1-3-4c-2.4-1.5-5-2.6-7.7-3.4c-2.3-0.7-4.6-1.5-6.8-2.4
	c-1.1-0.5-2.3-0.9-3.4-1.3s-2.6-0.7-3.9-1.1c-2.6-0.8-5.1-1.8-7.8-2.5c-1.3-0.3-2.7-0.7-4.1-1s-2.6-0.5-3.9-0.8s-2.7-0.5-4-0.7
	c-1.8-0.3-3.7-0.4-5.5-0.6s-3.5-0.4-5.3-0.6c-1.5-0.1-2.9-0.2-4.4-0.2h-0.9L563.8,336.7z"/>
<path class="st4" d="M431.1,380.2c0,1.7,0.2,3.4,0.6,5c0.5,1.6,1.4,3.1,2.5,4.3c1,1.2,2.3,2.1,3.3,3.3c0.7,1.1,1.6,2.1,2.5,2.9
	c1.2,1,2.4,1.8,3.8,2.5c2.1,1,4.1,2.4,6.3,3.5c1.5,0.8,3.2,1.4,4.8,1.8c0.9,0.2,1.8,0.5,2.6,0.6s1.8,0.3,2.7,0.5
	c1.8,0.4,3.6,0.8,5.4,1.3s3.6,0.8,5.4,1.4s3.5,1.1,5.2,1.6s3.6,0.9,5.4,1.4c0.8,0.2,1.6,0.4,2.4,0.6s1.4,0.5,2.1,0.7s1.4,0.5,2,0.7
	s1.4,0.4,2.1,0.5c1.4,0.4,2.6,1,4,1.3c0.7,0.1,1.4,0.2,2,0.4c0.4,0.1,0.8,0.2,1.2,0.3l0,0l0.8,0.2c0.3,0,0.7,0.1,1,0.2
	c0.8,0.2,1.5,0.4,2.2,0.6l0.7,0.2c1.6,0.4,3.2,0.7,4.8,0.8h0.2c0.4,0.1,0.8,0.1,1.2,0.2c0.8,0.1,1.6,0.2,2.4,0.3l1.1,0.1
	c2,0.3,4.3,0.6,6.8,0.8c1,0.1,2,0.2,3,0.3c1.5,0.2,3,0.3,4.5,0.3h0.7c1.2,0,2.3,0,3.5-0.1l2.5,0h0.9h2.2h0.8c0.7,0,1.4,0,2.1,0.1
	c2.9,0.3,5.8,0.3,8.6,0.3c1.2,0,2.4,0,3.7,0.1l5.5,0.2c1.8,0.1,3.7,0.1,5.5,0.2h0.7h1.8c0.5,0,1-0.1,1.5-0.1l0.8-0.1
	c0.7-0.1,1.5-0.1,2.2-0.1h0.5c0.9,0,1.8-0.2,2.8-0.3c0.4,0,0.9-0.1,1.3-0.1c0.7,0,1.5-0.1,2.2-0.2c1.3-0.2,2.8-0.3,4.7-0.3
	c2.2-0.1,4.4-0.4,6.6-0.9c0.4-0.1,0.8-0.1,1.2-0.2l1-0.1l0.9-0.2l0.8-0.2l-0.8,0.1h-0.2c2.8-0.4,5.5-0.9,8.2-1.6
	c0.1-0.1,0.1-0.1,0.2-0.2c0.5-0.3,1-0.4,1.6-0.4c0.8-0.3,1.6-0.6,2.5-0.9c1.5-0.5,2.9-1.1,4.3-1.8c1.1-0.6,2.1-1.2,3.2-1.8
	c1.3-0.7,2.6-1.3,3.9-2c1.5-0.8,3-1.7,4.5-2.6c2.7-1.6,3.6-5,2-7.7c-0.5-0.8-1.2-1.5-2-2c-1.3-0.8-2.9-1-4.3-0.6
	c-2.6,0.9-5.2,1.9-7.8,2.9c-2.2,0.8-4.2,1.9-6.4,2.8c-3.5,1.4-7.1,2.3-10.8,2.9c-1.2,0.2-2.5,0.4-3.7,0.6l1.4-0.2
	c-1.2,0.2-2.4,0.4-3.6,0.5s-2.6,0.2-3.9,0.3c-1.7,0.1-3.3,0.3-5,0.6c-0.5,0-1.1,0.1-1.6,0.1c-0.9,0.1-1.9,0.3-2.8,0.4
	c-0.7,0-1.4,0.1-2.1,0.1c-1.4,0.1-2.7,0.3-4.1,0.5l1.7-0.2c-1.7,0.2-3.4,0.2-5.1,0.2c-1.9,0-3.9,0.1-5.8,0.2
	c-4.3,0.3-8.6,0.3-12.9-0.1c-1.2-0.2-2.5-0.4-3.7-0.4c-1.3,0-2.6,0-3.9,0c-2.9,0-5.7-0.2-8.6-0.4c-1.7-0.1-3.3-0.2-5-0.3
	c-1.4-0.1-2.8,0-4.2-0.1s-2.6-0.2-3.9-0.3c-0.9-0.1-1.8-0.1-2.7-0.1c-0.8-0.1-1.7-0.2-2.5-0.2c-0.6,0-1.1,0-1.7-0.1
	c-1.1-0.2-2.2-0.5-3.2-0.8c-1.5-0.4-2.9-0.8-4.4-1s-2.8-0.7-4.2-1.1s-3-0.6-4.4-1c-3.5-0.8-7-1.4-10.4-2.1c-0.9-0.2-1.9-0.3-2.8-0.6
	s-1.8-0.5-2.7-0.7c-1.8-0.4-3.7-0.8-5.5-1.2c-2.7-0.7-5.4-1.3-8.1-1.8c-1.3-0.3-2.6-0.6-4-0.8c-0.7-0.1-1.4-0.3-2.1-0.5
	c-0.7-0.3-1.3-0.6-2-0.9c-1-0.5-2-1.1-3-1.5c-1-0.5-2-1.1-2.9-1.8c-0.6-0.5-1.1-1.1-1.6-1.6c-0.7-0.7-1.5-1.4-2.4-2l-0.9-0.7
	c-0.5-0.4-1-0.8-1.4-1.3l-0.1-0.1c-0.1-0.3-0.2-0.6-0.2-1c-0.1-0.7-0.1-1.5-0.1-2.2c0-2.2-1.8-3.9-3.9-3.9c-2.2,0-3.9,1.8-3.9,3.9
	L431.1,380.2z"/>
<path class="st0" d="M850.7,289.6c-0.3-0.1-0.6-0.1-0.9-0.1c-0.6,0-1.3,0.2-1.8,0.5l0-0.2c-0.5,0.3-1,0.8-1.3,1.3
	c-0.9,0.4-1.8,0.7-2.5,0.9l-1.5,0.5l-2.2,0.7l-2.1,0.8c-1.8,0.6-3.6,1.3-5.4,1.8c-1.3,0.4-2.5,0.7-3.8,1c-1,0.2-2,0.3-3,0.5
	l-0.9,0.1l-3.7,0.6l-4.1,0.6l-1.1,0.1c-2.5,0.3-5.2,0.7-7.8,0.9c-3.4,0.3-7,0.4-10.1,0.5c-1.1,0-2.1,0.1-3.2,0.1
	c-2.2,0.1-4.4,0.1-6.6,0.3l-3.9,0.3l-6.2,0.4c-1.2,0.1-2.4,0.2-3.5,0.4c-0.5,0.1-1,0.1-1.5,0.2l-1.6,0.2l-3.2,0.4
	c-1.5,0.2-3,0.3-4.4,0.5l-0.5,0l-2,0.2c-0.9,0.1-1.8,0.1-2.6,0.2l-3.4,0.3l-1.7,0.2l-2.3,0.3c-0.8,0.1-1.7,0.2-2.5,0.3
	c-1.4,0.1-2.8,0.3-4.2,0.5c-1.7,0.2-3.4,0.4-5.1,0.5c-0.8,0.1-1.6,0.1-2.5,0.2l-2.7,0.2l-1.8,0.2c-1,0.1-2,0.2-3,0.2l-2.2,0.2
	c-0.8,0.1-1.7,0.2-2.5,0.2c-1.4,0.1-2.9,0.2-4.3,0.2h-0.9c-1.6,0.1-3.2,0.2-4.8,0.3s-3.1,0.2-4.6,0.3c-3,0.2-6.9,0.4-10.9,1
	l-1.8,0.3h0.2l-0.6,0.1l-3.1,0.4c-3,0.4-6.1,0.5-8.8,0.7c-3.3,0.2-6.4,0.4-9.4,0.8c-1.9,0.2-3.8,0.5-5.6,0.8
	c-1.2,0.2-2.4,0.4-3.6,0.6c-0.2,0-0.4-0.1-0.6-0.1c-2.9-0.2-5.2-0.3-7.3-0.3s-4.2,0-6.4,0.1c-2.5,0-4.5,0.1-6.5,0.2
	c-1.4,0.1-2.9,0.2-4.3,0.3l-1.7,0.1c-2.6,0.2-5.2,0.4-7.8,0.5l-5,0.3c-1.8,0.1-3.7,0.2-5.5,0.3c-2.4,0.1-4.9,0.3-7.3,0.5l-1.9,0.2
	c-1.7,0.1-3.3,0.3-5,0.4c-1.2,0.1-2.3,0.2-3.5,0.4c-1.3,0.2-2.7,0.3-4,0.5l-4,0.3l-3.3,0.3c-2.7,0.2-5.3,0.6-7.8,1
	c-3.7,0.4-7.7,0.8-12.2,1c-2.7,0.1-5.4,0.4-8,0.6c-1.6,0.1-3.3,0.3-4.9,0.4c-2,0.1-4.2,0.4-6.3,0.6c-1.7,0.2-3.5,0.3-5.1,0.4
	l-1.7,0.1c-3.2,0.2-6.5,0.3-9.7,0.3h-3.4c-4.6,0.1-8.8,0.1-13,0.2c-2.1,0-4.2,0.2-6.3,0.3s-4.3,0.2-6.4,0.3h-2.6h-13.9h-9.8
	c-2.6,0-5.3,0.1-8.1,0.2c-0.5,0-1.1-0.1-1.6-0.1c-2.3-0.1-4.7-0.3-7-0.4c-2.3-0.1-4.7,0-7.1,0c-8.8,0-17.6,0.2-26.5,0
	c-4.5-0.1-8.9-0.3-13.4-0.5c-2.3-0.1-4.6-0.2-7-0.2h-1.3c-1.7,0-3.4,0.1-5.1,0.1l0.2,0c-9,0.1-17.9,0.2-26.9,0.3
	c-9.2,0.1-18.4,0.1-27.6,0.6c-2.2,0.1-4.3,0-6.5,0c-2.4,0-4.8-0.1-7.3-0.1c-4.5,0-9,0.1-13.5,0.1c-2.1,0-4.2,0-6.3-0.1
	c-2.3-0.1-4.5-0.3-6.8-0.4c-2.1-0.1-4.1,0-6.2-0.1c-2.2,0-4.5-0.1-6.8-0.1c-1,0-2-0.1-3-0.1c-1-0.1-2.1,0-3.1,0.1
	c-0.9,0.1-1.9,0.2-2.8,0.3c-0.9,0.1-2.1,0-3.2,0c-4.5,0-9.1,0-13.6,0.1c-2.4,0-4.7,0.3-7,0.8c-1.4,0-2.8,0.1-4.2,0.2
	c-2,0.1-4,0.4-6,1c-1.2,0.4-2.4,0.9-3.4,1.6c-0.6,0.4-1.2,0.9-1.8,1.4c0.1,0.3,0.2,0.7,0.2,1.1c0,0.6-0.2,1.2-0.6,1.7
	c-0.3,0.4-0.8,0.8-1.4,1c0,0,0,0,0,0.1c0,0,0,0,0,0c-0.1,0.4-0.4,0.8-0.7,1.2l-0.2,0.3c-0.4,0.5-0.9,1-1.4,1.4l-0.8,0.6l-0.7,0.6
	c-1,0.9-1.9,1.8-2.7,2.9c-0.7,1-1.4,2.1-2,3.2c-0.3,0.6-0.6,1.3-0.9,2c-0.3,0.7-0.5,1.1-0.8,1.7c-0.3,0.6-0.7,1.3-1.1,1.9
	s-0.6,1.1-0.9,1.6c-0.4,0.9-0.9,1.8-1.4,3c-0.3,0.7-0.5,1.4-0.8,2c0.5,0,0.9,0.1,1.4,0.4l0.3,0.2c0.4,0,0.7,0,1.1,0.1
	c1,0.1,2,0.1,3,0.2l1,0.1c0.6,0,1.2,0.3,1.7,0.6c0.5,0,1,0,1.6,0c1.3,0,2.5,0,3.6-0.1c0.8,0,1.5-0.1,2.2-0.1h0.2l0.6,0l0.6,0h0.4
	c1.2-0.1,2.4-0.2,3.6-0.3h0.3c2.6-0.3,4.8-0.5,7-0.6c2.2-0.2,4.5-0.2,7.3-0.3c9.5-0.3,19.3-0.3,28.7-0.3h0.8h10.1h7.6
	c1.4,0,2.9,0,4.5,0.1c0.9,0,1.8,0.1,2.8,0.2c1.7,0.1,3.3,0.2,5,0.3c3.7,0.1,7.5,0.2,10.8,0.2l0.8-0.1l0.8-0.1l0.8-0.1l1.7-0.1
	c2.4-0.2,4.8-0.3,7.6-0.4h3.6c1.3,0,2.5,0,3.8,0c2.2,0,4.8-0.1,7.3-0.3h0.7c1-0.1,2-0.1,3-0.2h2.2h1.6h2.5l4.9-0.1l11.3-0.1
	c6.3,0,12.5-0.1,18.8-0.1h2.3c4,0,8.1,0,12.2-0.2c2.3-0.1,4.6-0.3,6.9-0.5l0.5,0l2.8-0.2l1-0.1l2-0.2h0.2l1.5-0.1
	c1.6-0.1,3.2-0.1,4.4-0.1h0.7h0.3h0.2h0.1c1.9-0.3,4.1-0.6,6.2-0.8c0.9,0,1.8-0.1,2.8-0.2c1-0.1,2-0.2,3-0.2
	c2.3-0.1,4.1-0.2,5.8-0.2h0.7c0.8,0,1.6,0,2.4,0c0.5,0,1,0,1.5,0h0.1c0.3,0,0.7,0,1,0.1c0.5,0,1,0.2,1.4,0.6
	c0.4-0.1,0.9-0.2,1.3-0.2c1.7-0.3,3.5-0.5,5.2-0.7l1.1-0.1c1.5-0.2,3-0.4,4.5-0.6l2.3-0.3c2.2-0.3,4.4-0.7,6.6-0.9l1.4-0.1
	c2.2-0.2,4.5-0.4,6.7-0.7c3-0.4,6.1-0.9,9.2-1.2c3.1-0.3,5.8-0.6,8.2-0.9c0,0,0,0,0,0c1,0,2.1,0,3.1,0c1.5-0.1,2.9-0.1,4.4-0.2
	c1.5,0,3.2-0.1,4.8-0.1c0.6,0,1.3,0,1.9,0c0.9,0,1.9,0,2.8,0c3.1-0.2,6.1-0.3,9.2-0.5c3.1-0.2,5.9-0.4,8.8-0.6
	c1.4-0.1,2.8-0.1,4.3-0.2c1.6-0.1,3.2-0.3,4.8-0.4c0.2,0,0.4,0,0.6-0.1c0.2,0,0.4,0,0.6,0.1c0.9,0.1,1.8,0.2,2.7,0.3
	c3.9,0.4,7.4,0.9,10.7,1.4h0.2c1.2,0.2,2.4,0.4,3.7,0.5l0.5,0.1h0.7c1.6,0,3.3-0.2,4.9-0.4c1.1-0.1,2.2-0.2,3.4-0.3
	c3.1-0.2,6.3-0.4,8.7-0.5c5-0.2,10-0.3,14.9-0.3h2h2h2h1.1h1.7h1.4c3,0.1,5.7,0.2,8.4,0.2c0.9,0,1.8,0,2.7,0.1c0.5,0,1.1,0,1.6,0.1
	c1.5,0,3,0.1,4.5,0.1h4.4c1,0,2.4,0,3.8,0.1c2.5,0.1,5.4,0.2,8.3,0.3h1.5h2.7h0.3c1.4,0,2.7-0.1,3.9-0.1c2.7-0.1,5.2-0.2,8.3-0.2
	c2.9,0,5.8-0.1,8.7-0.1h1.2c1.8,0,3.5,0,5.3,0h1.8h2.1c0.6,0,1.2,0,1.9,0l1.5-0.1l2.9-0.1c1.3,0,2.7-0.1,4-0.2
	c1.3-0.1,2.8-0.2,4.2-0.2c2.2-0.1,4.3-0.1,6.5-0.1h2.3c1.7,0,3.5-0.1,5.2-0.2c1-0.1,2.1-0.1,3.2-0.2l4.2-0.1h1.1
	c0.9,0,1.8,0,2.8-0.1c4.7-0.3,9.5-0.4,14.2-0.4h2.8h0.9c1,0,2.1,0,3.1-0.1c1-0.1,2.3-0.2,3.5-0.4l0.8-0.1c2.7-0.3,5.5-0.4,8.2-0.4
	h2.2c0.7,0,1.4,0,2.1,0l2.2,0.1l2.2,0.1c2.8,0.1,5.5,0.2,8.3,0.4l2,0.1c2.2,0.2,4.5,0.3,6.7,0.4l3,0.1h1.3c1.1,0,2.2,0.1,3.2,0.2
	l1.1,0.1c0.7,0,1.4,0.1,2.1,0.1s1.3,0.1,2,0.2c1.4,0.1,2.9,0.1,4.3,0.2s3,0.1,4.6,0.2c1.4,0.1,2.8,0.1,4.1,0.2
	c2.6,0.1,5.3,0.1,7.9,0.1h2c0.9,0,1.8,0,2.8,0c0.7,0,1.5,0.1,2.2,0.1l1.7,0.1c2.7,0.1,5.4,0.1,8.6,0.1c1,0,2-0.1,2.9-0.1l0.8-0.1
	h0.4c0.7,0,1.3-0.1,2-0.1c0.2,0,0.3,0,0.5,0l0.2-0.9l0.1-0.4c0.1-0.5,0.4-0.9,0.7-1.2c0.1-5.4,0.2-10.8,0.3-16
	c0-3.4,0.1-6.8,0.2-10.2c0.1-4.1,0.2-8.4,0.5-12.7c0.2-2.4,0.3-4.6,0.5-6.8c0.1-1.4,0.2-2.7,0.2-4L850.7,289.6z"/>
<path class="st3" d="M466.5,347.2c-0.3,0-0.6,0.1-0.8,0.1h-0.1l-0.9,0.1c-0.3,0-0.6,0.1-0.9,0.1s-0.8,0-1.2,0.1s-0.7,0-1,0
	s-0.7,0.1-1,0.1s-0.8,0.1-1.2,0.1l-0.9,0.1l0,0L458,348c-0.3,0.1-0.5,0.2-0.8,0.4c-0.1,0.1-0.2,0.3-0.3,0.5c-0.2,0-0.4,0.1-0.6,0.1
	l-0.5,0.1l0.4-0.1c-0.6,0.1-1.1,0.2-1.7,0.3c-0.4,0-0.8,0-1.2,0.1c-0.3,0-0.7,0.1-1,0.1c-0.3,0.1-0.6,0.2-0.9,0.4
	c0.1,0,0.2-0.1,0.3-0.1c-0.4,0.1-0.8,0.3-1.1,0.5s-0.5,0.3-0.8,0.5c-0.6,0.3-1.1,0.6-1.8,0.9c-0.9,0.4-1.8,0.7-2.7,1
	c-0.5,0.2-1,0.4-1.5,0.7c-0.5,0.3-1.1,0.6-1.6,1c-0.4,0.3-0.7,0.8-0.5,1.3l-1.3,0.8c-0.6,0.3-1.2,0.7-1.8,1c-1.5,0.9-2.8,1.9-4,3.1
	c-0.5,0.5-0.5,1.2-0.2,1.7c0.4,0.7,1.3,0.9,1.9,0.5c0.6-0.4,1.2-0.8,1.8-1.2s1.1-0.6,1.6-0.9c1-0.5,2-1,3-1.5l2.9-1.5
	c0.6-0.3,1.3-0.7,1.9-1s1.1-0.4,1.6-0.5l1.5-0.5c0.5-0.2,1-0.3,1.5-0.5s1.2-0.4,1.9-0.6c1.3-0.3,2.5-0.6,3.8-1.1
	c1.4-0.6,2.7-1,4.1-1.4c1.6-0.4,3.1-0.8,4.7-1.2c0.2,0,0.3-0.1,0.5-0.1c0.7-0.2,1.2-0.8,1.2-1.6l0,0c0-0.4-0.2-0.9-0.5-1.2
	c-0.3-0.3-0.7-0.5-1.2-0.5h0L466.5,347.2L466.5,347.2z M464.5,350.9L464.5,350.9z M448.1,352.2L448.1,352.2L448.1,352.2L448.1,352.2
	L448.1,352.2L448.1,352.2z M448,352.2L448,352.2z"/>
<path class="st3" d="M438.4,400.1c0,1,0.8,1.8,1.8,1.9c0.4,0,0.7,0,1.1,0c1.9,0.4,3.6,1.1,5.5,1.6c0.7,0.2,1.5-0.1,1.9-0.8
	c0.5-0.8,0.2-1.9-0.6-2.3c-1.2-0.6-2.5-1.1-3.7-1.5c-0.5-0.2-1.1-0.3-1.6-0.5c-0.8-0.2-1.7-0.3-2.5-0.3h-0.1
	C439.2,398.4,438.4,399.2,438.4,400.1L438.4,400.1z"/>
<path class="st3" d="M438.1,398.8c-0.2,0.8,0.3,1.7,1.1,1.9c0.8,0.3,1.7,0.5,2.5,0.9l0.8,0.3l1.1,0.5c0.4,0.2,0.8,0.4,1.2,0.5
	s1,0.5,1.5,0.7l-0.3-0.1l0.9,0.4l0.2,0.1l-0.1-0.1l0.9,0.4l0,0h0l1,0.5h-0.1l-0.4-0.1l0.5,0.2l0.1,0h-0.1h0.1l0.5,0.2l-0.4-0.2h0.1
	l0.1,0h-0.1c0.6,0.2,1.2,0.5,1.8,0.7s1,0.4,1.5,0.6s1.1,0.4,1.7,0.6c2,0.9,4.1,1.6,6.2,2.2s4.2,1.4,6.3,2c0.9,0.2,1.8,0.5,2.6,0.7
	c1.2,0.2,2.4,0.6,3.6,0.9c1.1,0.3,2.2-0.2,2.7-1.1c0.3-0.6,0.4-1.2,0.2-1.9c-0.2-0.6-0.6-1.1-1.1-1.5c-1.1-0.5-2.2-0.9-3.3-1.1
	c-0.6-0.1-1.2-0.2-1.8-0.4c-1.2-0.3-2.3-0.6-3.5-1c-0.5-0.2-0.9-0.4-1.3-0.7c-0.6-0.3-1.3-0.6-1.9-0.8l0.4,0.2
	c-1.2-0.5-2.5-1-3.8-1.4c-1-0.4-2-0.7-3-1c-1.1-0.3-2.2-0.6-3.3-0.9c-1-0.2-1.9-0.5-2.8-0.8c-0.6-0.2-1.3-0.4-1.9-0.6
	c-0.7-0.2-1.4-0.4-2.1-0.5l-1.2-0.2l0,0h0.3l-0.4-0.1c-0.7-0.1-1.5-0.3-2.2-0.4l-1.2-0.2c-0.6-0.1-1.1-0.2-1.6-0.4
	c-0.1,0-0.3-0.1-0.4-0.1C438.9,397.7,438.3,398.1,438.1,398.8L438.1,398.8z M441.8,401.6l0.2,0.1L441.8,401.6z M447.3,404l0.2,0.1
	L447.3,404z M463,404.2l-0.2-0.1L463,404.2z M442.8,402.1l-0.3-0.1h-0.1L442.8,402.1L442.8,402.1z M445.7,398.9h-0.2H445.7z"/>
<path class="st3" d="M435.7,396.8c-1.2,0-2.3,0.8-2.6,2c-0.1,0.5-0.1,1,0,1.4c0.2,0.7,0.6,1.2,1.2,1.6c0.6,0.3,1.3,0.6,2,0.8
	c0.4,0.1,0.8,0.2,1.2,0.3c0.7,0.1,1.3,0.3,2,0.4s1.1,0.3,1.7,0.5s1.2,0.3,1.9,0.5s1.1,0.3,1.7,0.4s1,0.4,1.5,0.5
	c0.7,0.2,1.4,0.4,2.1,0.6s1.5,0.5,2.2,0.7c1.2,0.4,2.5,0.8,3.8,1.1s2.7,0.9,4.1,1.3c1.6,0.5,3.2,1,4.8,1.4c1.3,0.3,2.5,0.7,3.8,1
	c0.7,0.1,1.4,0.2,2,0.4l1.6,0.3c0.6,0.1,1.3,0.2,1.9,0.3c1,0.2,2,0.4,3,0.6c2.2,0.4,4.4,0.9,6.7,1.2h-0.3c0.6,0.1,1.1,0.2,1.7,0.3
	l1-0.1c0.6,0,1.2-0.1,2-0.1h0.2c1.4,0,2.7,0.1,4.1,0.1s2.7,0.2,4.3,0.4c0.3,0,0.5,0,0.8,0l0.8,0.1c0-0.1,0-0.1,0.1-0.2
	c0.2-0.9-0.3-1.7-1.1-2c-0.3-0.1-0.7-0.2-1-0.3c-0.9-0.4-1.8-0.9-2.7-1.3s-2-0.7-3-1c-0.6-0.2-1.2-0.4-1.8-0.6
	c-0.6-0.2-1.3-0.4-1.9-0.6c-0.6-0.2-1.3-0.2-2-0.4c-0.7-0.1-1.3-0.3-2-0.5l-1.9-0.5c-0.6-0.1-1.2-0.2-1.9-0.4
	c-1.2-0.3-2.3-0.9-3.5-1.2c-1.4-0.4-2.8-0.7-4.2-1s-2.6-0.6-3.8-0.9c-1.5-0.4-3.1-0.6-4.6-1c-0.8-0.2-1.6-0.5-2.4-0.7l-2-0.5
	c-0.6-0.2-1.3-0.3-1.9-0.5s-1.2-0.4-1.8-0.5c-0.8-0.2-1.5-0.4-2.3-0.6c-0.6-0.1-1.1-0.2-1.7-0.3c-0.4,0-0.8,0-1.2,0h-0.4
	c-0.7-0.2-1.5-0.4-2.2-0.6c-0.9-0.3-1.8-0.5-2.7-0.8s-1.8-0.5-2.7-0.8c-0.5-0.1-1-0.3-1.5-0.4c-0.8-0.2-1.6-0.3-2.4-0.4
	C436.2,396.8,436,396.8,435.7,396.8L435.7,396.8z"/>
<path class="st3" d="M594.4,339.7c-0.8,0.2-1.4,0.8-1.6,1.6c-0.2,0.8,0,1.6,0.6,2.2c0.2,0.2,0.4,0.4,0.7,0.5
	c0.3,0.1,0.6,0.2,0.9,0.3c0.3,0.1,0.6,0.1,0.8,0.2c0.8,0.2,1.6,0.3,2.4,0.4l1.3,0.2l1.2,0.2h-0.1c0.4,0.1,0.8,0.2,1.2,0.3
	c0.2,0,0.4,0.1,0.6,0.2s0.5,0.1,0.7,0.2l-0.7-0.3c0.4,0.2,0.8,0.4,1.3,0.5l-0.4-0.2c1.9,0.8,3.9,1.2,5.8,1.9l0.3,0.1l0,0l0.2,0.1
	l0.5,0.2l-0.3-0.1c0.6,0.2,1.1,0.4,1.7,0.6s1.3,0.5,2,0.7c1.9,0.6,3.8,1.2,5.8,1.8s3.8,0.9,5.6,1.5s3.6,1.4,5.4,2
	c0.4,0.1,0.8,0.3,1.2,0.5l2.4,1h-0.1l1.6,0.7c1,0.4,1.9,0.9,2.8,1.3s2,1,3,1.5s2,1.2,2.9,1.7c0.5,0.3,1,0.5,1.4,0.7
	c0.4,0.3,0.8,0.5,1.2,0.6l0,0c0.3,0.1,0.7,0.1,1,0c1-0.3,1.5-1.3,1.2-2.2c0-0.1-0.1-0.3-0.2-0.4c-0.3-0.4-0.6-0.7-1-1
	c-0.6-0.5-1.2-0.9-1.8-1.3c-1-0.6-1.9-1.4-2.8-2c-0.5-0.3-1-0.7-1.5-1c-0.5-0.3-1-0.6-1.5-0.8c-0.5-0.3-1.1-0.6-1.6-0.9
	c-0.5-0.3-1.1-0.5-1.7-0.8c-0.9-0.4-1.7-0.8-2.6-1.2c-0.4-0.2-0.8-0.4-1.2-0.6c-0.6-0.3-1.2-0.5-1.7-0.7c-1.8-0.7-3.6-1.3-5.4-2
	s-3.7-1.1-5.5-1.8c-1-0.3-1.9-0.8-2.8-1.1s-1.9-0.7-2.8-1c-0.6-0.2-1.2-0.5-1.8-0.6c-0.4-0.1-0.9-0.3-1.3-0.5
	c-0.5-0.3-1.1-0.5-1.7-0.6c-0.5-0.1-0.9-0.3-1.3-0.4c-0.3-0.1-0.5-0.2-0.8-0.2s-0.5-0.1-0.8-0.2c-0.6-0.1-1.1-0.3-1.7-0.4
	c-0.4-0.1-0.8-0.2-1.1-0.4c-0.2-0.1-0.4-0.1-0.6-0.1s-0.3-0.1-0.5-0.1c-0.6-0.1-1.1-0.2-1.7-0.3L600,340c-0.5-0.1-1-0.1-1.4-0.2
	s-1.1,0-1.6-0.1l-1.1-0.1h-0.4C595.1,339.6,594.8,339.6,594.4,339.7L594.4,339.7z M611.8,342.9L611.8,342.9L611.8,342.9L611.8,342.9
	z"/>
<path class="st3" d="M634.3,352.8c-0.6,0.6-0.6,1.6,0,2.2c0.7,0.7,1.4,1.5,2,2.3c0.5,0.6,1.1,1.2,1.6,1.8s0.9,1,1.4,1.5
	c0.5,0.5,1,0.9,1.5,1.4c0.6,0.5,1.2,1.2,1.8,1.8s1.1,1,1.7,1.5s0.9,0.8,1.3,1.3c0.2,0.2,0.5,0.5,0.7,0.7s0.4,0.5,0.7,0.8l0.8,1
	l0.3,0.4c0.3,0.5,0.7,0.9,1,1.4s0.9,1.1,1.3,1.7c1,1.3,1.9,2.7,2.6,4.2l-0.1-0.2c0,0.1,0.1,0.2,0.1,0.2c0.4,0.9,0.6,1.9,0.9,2.9
	c0.3,0.9,0.5,1.9,0.7,2.8c0,0.6,0,1.2,0.1,1.8c0,1,0.1,2.1,0.2,3.1c0,0.6,0.3,1.2,0.7,1.6c0.9,0.9,2.3,0.9,3.2,0c0,0,0,0,0,0
	c0.4-0.4,0.6-1,0.7-1.6c0.1-1.1,0.2-2.2,0.2-3.3c0-0.8,0-1.6,0-2.5c-0.2-1.7-0.5-3.4-1-5c-0.4-1.7-1-3.3-1.8-4.8
	c-0.3-0.5-0.5-1.1-0.9-1.6c-0.5-0.7-1-1.4-1.5-2l0.5,0.6c-0.6-0.8-1.3-1.6-2-2.4s-1.1-1.2-1.7-1.9c-0.3-0.3-0.5-0.6-0.8-0.9
	s-0.5-0.5-0.8-0.7c-0.5-0.4-0.9-0.8-1.4-1.2l0.1,0c-0.5-0.4-1.1-0.9-1.6-1.2c-0.5-0.3-0.9-0.5-1.4-0.8s-0.7-0.6-1.1-0.8
	s-0.7-0.4-1.1-0.7c-0.7-0.4-1.4-0.9-2.1-1.3c-0.3-0.2-0.6-0.5-0.9-0.7l-1-0.7c-0.3-0.2-0.6-0.5-0.9-0.8c-0.6-0.5-1.1-1.1-1.7-1.7
	c-0.3-0.3-0.7-0.4-1.1-0.4C635,352.4,634.6,352.5,634.3,352.8L634.3,352.8z M647.2,368.2l-0.1-0.2L647.2,368.2z M647.1,368
	L647.1,368l-0.3-0.4L647.1,368L647.1,368z"/>
<path class="st3" d="M656.9,380.4c0,0.6,0,1.1-0.1,1.7c-0.1,0.4-0.2,0.8-0.4,1.2c-0.2,0.5-0.5,0.9-0.8,1.3c-0.3,0.4-0.5,0.9-0.8,1.4
	s-0.6,0.9-0.9,1.3c-0.3,0.5-0.5,0.9-0.7,1.4c-0.1,0.3-0.3,0.5-0.5,0.7c-0.2,0.2-0.3,0.5-0.5,0.7c-0.6,0.7-1.2,1.3-1.8,1.9
	c-0.4,0.4-0.8,0.9-1.2,1.3c-0.3,0.3-0.6,0.7-0.9,1c-0.1,0.1-0.2,0.2-0.2,0.4c-0.1,0.2-0.3,0.3-0.5,0.4c-0.4,0.3-0.8,0.6-1.2,0.9
	s-1,0.8-1.6,1.1c-0.3,0.2-0.5,0.4-0.8,0.6c-0.3,0.2-0.6,0.4-0.9,0.5c-0.6,0.3-1.2,0.6-1.7,0.8l-2.5,1c-0.9,0.3-1.8,0.6-2.7,0.9
	c-1.1,0.3-2.1,0.7-3.1,1.2c-0.7,0.3-1.3,0.7-2,1c-0.5,0.2-1,0.3-1.4,0.5c-0.9,0.3-1.7,0.6-2.6,0.9c-1.1,0.5-2.2,1.1-3.3,1.6
	c-1.4,0.6-2.8,1.1-4.3,1.7c-0.4,0.1-0.8,0.3-1.2,0.4s-1,0.4-1.4,0.5c-0.6,0.2-1.3,0.5-1.9,0.8l-1.1,0.5c-0.9,0.3-1.8,0.5-2.8,0.7
	c-0.9,0.2-1.9,0.5-2.8,0.9l-0.3,0.1l0,0l0,0l-0.6,0.3l0.4-0.2l-1,0.5c-0.7,0.2-1.4,0.4-2.2,0.6c-1,0.2-1.9,0.6-2.8,1.1
	c-0.2,0.1-0.4,0.3-0.6,0.5c0.8-0.1,1.5-0.1,2.3-0.1h2.2c0.9,0,1.8,0.1,2.8,0.1c0.6,0,1.2,0.1,1.7,0.1s1.4,0,2.1,0.1
	c0.9,0,1.8,0,2.6,0.1h0.5c0.2-0.1,0.4-0.2,0.6-0.3l0,0l1.8-0.8c0.7-0.3,1.3-0.5,2-0.8c0.9-0.3,1.7-0.7,2.5-1.1
	c1.5-0.6,3-1.1,4.5-1.8H627l1.6-0.7c1.4-0.6,2.9-0.9,4.3-1.4s2.7-1.2,4-1.8c1.5-0.6,3.1-1.2,4.6-1.8l-0.6,0.2l1.4-0.6l2-0.8
	l-0.6,0.3c0.7-0.3,1.5-0.6,2.2-1c0.7-0.4,1.3-0.8,1.9-1.3c0.8-0.8,1.6-1.5,2.5-2.1l0,0l0.1-0.1l-0.2,0.2c1.1-0.9,2.2-1.8,3.2-2.8
	c1.1-1.1,2.1-2.2,3-3.4c0.3-0.5,0.6-1,0.8-1.5c0.2-0.4,0.4-0.9,0.5-1.3s0.2-0.6,0.3-0.9c0.2-0.5,0.4-1.1,0.6-1.6
	c0.2-0.7,0.3-1.3,0.3-2c0.2-0.8,0.3-1.7,0.4-2.5c0-0.4,0.1-0.9,0.1-1.3s0-1.1,0-1.6c-0.1-0.6-0.6-1.1-1.3-1.1
	C657.4,379.3,657,379.7,656.9,380.4L656.9,380.4z M642.8,404l-0.2,0.1L642.8,404z"/>
<path class="st0" d="M280.5,411.9L280.5,411.9c-1.4,0-2.4,0-3.3,0.1h-0.9h-0.3h-0.3h-0.4c-0.7,0.1-1.4,0.1-2.1,0.1
	c-2.5,0.1-5.1,0.1-8.4,0.2c-2.5,0-5.2,0.2-8.1,0.5s-5.5,0.4-8.2,0.5c-1.4,0-2.7,0-4,0h-1.5h-1.2h-1.2c-0.9,0-1.8,0.1-2.7,0.2h-0.2
	h-0.2c-0.6,0.2-1.3,0.4-1.9,0.4h-0.2l-1.1,0.1c-0.8,0-1.6,0.1-2.3,0.1c-0.2,0.1-0.3,0.1-0.5,0.2c-0.3,0.1-0.5,0.1-0.8,0.1
	c0.1,0.2,0.1,0.4,0.2,0.5c0.2,0.3,0.3,0.7,0.5,1s0.4,0.7,0.5,1.1c0.3,0.7,0.7,1.4,1.1,2.1c0.5,0.8,1,1.5,1.6,2.2l0.5,0.6
	c0.4,0.4,0.7,0.9,1.1,1.3l0.4,0.5l0.4,0.5c0.3,0.4,0.7,0.8,1,1.2l0.2,0.4c0.4,0.7,0.9,1.3,1.4,1.9l0.3,0.4l0.6,0.8l0,0l0.3,0.4
	c0.3,0.4,0.6,0.8,0.8,1.1c0.4,0.4,0.8,0.8,1.2,1.2l0.5,0.4c0.4,0.4,0.9,0.8,1.4,1.2c0.3,0.2,0.7,0.4,1.1,0.6h-0.1l0.3,0.1
	c0.1,0.1,0.3,0.2,0.4,0.3c0.3,0.1,0.6,0.2,0.8,0.3l0.5,0.2l-0.2-0.1c0.4,0.2,0.8,0.3,1.1,0.4c0.3,0.1,0.6,0.2,0.9,0.2l0.5,0.2
	c0.5,0.1,0.9,0.3,1.4,0.5l1.1,0.4c1.7,0.6,3.4,0.9,5.1,1.1l0,0h0.2l0.6,0.2c0.5,0.1,1,0.3,1.4,0.4c0.7,0.1,1.4,0.2,2.1,0.3h0.3
	l0.5,0.1c0.8,0.1,1.5,0.2,2.3,0.3s1.3,0.1,1.9,0.1h0.8c0.9,0,1.8,0,2.7-0.1s1.9,0,2.8,0h1.2c0.5,0,0.9,0,1.4,0c1.2,0,2.3,0,3.5-0.1
	l1.7,0c1.7-0.1,3.3-0.3,5-0.5h0.2l0.9-0.1l0.7-0.1c0.3,0,0.6-0.1,0.9-0.1l0.7-0.1c3.5,0.1,6.5,0.1,9.5,0.1h1.4
	c1.5,0,2.9-0.1,4.4-0.2c0.8-0.1,1.7-0.1,2.5-0.2c1.5-0.1,3.1-0.1,4.9-0.1h1.8c5.6,0.1,11.3,0.3,16.8,0.4c3.9,0.1,7.8,0.2,11.7,0.3
	c4.6,0.1,9.5,0.2,15.4,0.2h9.1c1.9,0,4.1,0,6.3-0.2l4.2-0.3c2.1,0.2,4.1,0.4,6.2,0.5c4.7,0.4,9.6,0.6,15.2,0.6h0.8
	c1.6,0,3.2-0.1,4.6-0.1l2-0.1c2.4-0.1,4.8-0.1,7.2-0.2c4.9-0.1,9.9-0.1,14.2-0.1h3.5c1.2,0,2.5,0,3.7,0c2.3,0.1,4.5,0.2,6.7,0.4
	l2.1,0.2c1.7,0.1,3.4,0.3,5.1,0.5c2.1,0.2,4.2,0.4,6.7,0.5c1.9,0.1,3.8,0.2,5.8,0.3h0.7c2.7,0.2,5.5,0.3,8.2,0.4s5.5,0.1,8.1,0.2
	c2.1,0,4.2,0,6.2,0.1c1.4,0,2.9,0.1,4.3,0.2c0.9,0,1.7,0.1,2.6,0.1c1.8,0.1,3.6,0.1,5.4,0.1h0.4h1.3c1.3,0,2.6,0.1,3.9,0.2h0.3
	l2.2,0.1c2.2,0.1,4.5,0.2,6.8,0.4c5.2,0.3,10.3,0.4,14.3,0.5c4.9,0.1,9.4,0.3,13.8,0.6s8.8,0.5,14.3,0.6c2.2,0,4.3,0.2,6.6,0.3h0.5
	h0.5c2,0.1,4,0.2,6.1,0.4c4.1,0.3,8.5,0.5,14.2,0.5h2.3c1.7,0,3.3,0,4.9,0.1c1.2,0,2.3,0.1,3.5,0.1l3.3,0.1
	c4.7,0.2,9.5,0.2,13.8,0.2h0.4c4.3,0,8.6,0.4,12.8,0.7l1.3,0.1l2,0.1h0.7c1.4,0.1,2.8,0.2,4.2,0.3c2.3,0.2,4.6,0.4,7.2,0.5
	c1.6,0.1,3.1,0.1,4.7,0.2l1.9,0.1c1.2,0,2.5,0.1,3.7,0.2h0.4c0.9,0.1,1.8,0.1,2.6,0.2c2.7,0.1,5.5,0.2,7.9,0.3c1.5,0,3,0.1,4.5,0.1
	s2.7,0.1,4,0.2l1.9,0.1c1,0,1.9,0.1,2.9,0.1s2.2,0.1,3.3,0.1l2.2,0.1c1.3,0.1,2.7,0.2,4,0.2l1.2,0.1c1.5,0.1,3.2,0.1,4.8,0.3
	c4.4,0.4,8.7,0.5,12.8,0.5h0.1c0.1,0,0.2,0,0.3,0c1.2,0.1,2.3,0.2,3.4,0.3s2,0.2,3,0.3l2.2,0.2c4,0.3,8.1,0.3,11.8,0.3
	c2,0,3.7,0.1,5.3,0.2l2,0.1c1,0,2,0.1,3,0.2h0.3h0.2c0.5,0.1,1,0.2,1.6,0.3l0.4,0.1c0.7,0.1,1.5,0.3,2.4,0.4
	c2.5,0.4,4.8,0.7,7.1,0.9c2,0.1,4.1,0.4,6.1,0.6h0.2h-0.2c1.9,0.3,3.8,0.5,5.7,0.7l1,0.1c1.7,0.2,3.4,0.4,5.2,0.5l2.2,0.1
	c1.4,0,2.9,0.1,4.4,0.2l2.8,0.3c1,0.2,2,0.4,3,0.6c1.2,0.2,2.5,0.4,3.7,0.6l0.7,0.1c1,0.2,2,0.3,3,0.5c2.5,0.4,4.9,0.9,7.4,1.2
	c3.1,0.4,5.4,0.8,7.5,1.1c0.6,0.1,1.2,0.2,1.8,0.3l0.3,0l1.6,0.3c1.4,0.2,2.8,0.5,4.2,0.6l1.9,0.3l1.9,0.3l1.3,0.2
	c1,0.1,2.1,0.3,3.1,0.4c1.3,0.1,2.5,0.3,3.8,0.4l0.9,0.1l0.9,0.1c1.9,0.2,3.9,0.4,5.8,0.6c1.7,0.2,3.3,0.4,5,0.6l1.1,0.1l5.2,0.6
	h0.2h-0.1l1.9,0.6c3.1,1,6.2,2.1,9.4,2.9c0.6,0.1,1.2,0.3,1.9,0.5c-0.4-0.9-0.6-1.8-0.6-2.8v-0.5c-0.1-0.5-0.1-1-0.1-1.5
	c0-1.3,0-2.5-0.1-3.8c0-0.5-0.1-1.1-0.1-1.6c0-0.6,0-1.2,0.1-1.8c0-0.3,0.1-0.6,0.1-1c0-0.6,0.1-1.2,0.1-1.9l0.1-1
	c0-0.4,0-0.8,0-1.2c0-0.6,0-1.3,0.1-1.9c0-0.3,0.1-0.6,0.1-1c0.1-0.7,0.2-1.3,0.3-2c0.1-0.4,0.1-0.7,0.2-1.1l0.1-0.8
	c0-0.5,0.1-1,0.2-1.5s0.1-1.2,0.2-1.8c0-2.6,0-5.2,0.1-7.8c-0.2-1.3-0.3-2.3-0.4-3.2c0-0.7-0.1-1.4-0.2-2.1
	c-0.1-1.1-0.2-2.2-0.3-3.3v-0.6c0-0.5,0-1-0.1-1.4c-0.3,0.1-0.6,0.1-0.9,0.2c-1.1,0.2-2,0.2-2.8,0.3c-0.4,0-0.8,0-1.3,0
	c-0.9,0-1.8,0-2.9-0.1l0,0c-1.4-0.1-2.7-0.3-4.2-0.5l-2-0.3h-0.1l-1.6-0.2c-0.9-0.1-1.8-0.2-2.7-0.2l-1.4-0.1
	c-1-0.1-1.9-0.1-2.9-0.2l-1.7-0.1l-1.8-0.1c-0.9,0-1.9-0.1-2.8-0.2c-1.5-0.1-3.1-0.3-4.4-0.5l-0.6-0.1c-1.7-0.2-3.4-0.4-5.1-0.5
	h-0.8c-1.7-0.1-3.4-0.2-5.1-0.3l-3-0.1c-1.1,0-2.3-0.1-3.4-0.1c-1.6-0.1-3.3-0.1-5.1-0.1h-0.6c-1.1,0-2.3,0-3.4,0h-0.9H786h-1.8
	c-0.5,0-0.9,0-1.4,0l-0.9,0c-1.1,0-2.2-0.1-3.3-0.1h-0.8c-1.2,0-2.4-0.1-3.7-0.1c-2.6-0.2-5.4-0.3-8.6-0.4c-2.2-0.1-4.3-0.3-6.4-0.5
	c-0.7-0.1-1.5-0.1-2.2-0.2s-1.4-0.1-2-0.2l-2.2-0.2l-1.7-0.2l-2.6-0.3c-1.6-0.1-3.3-0.3-4.9-0.5H742h-1.9c-2.8-0.1-5.7-0.1-8.5-0.2
	c-0.8,0-1.7,0-2.5,0H728c-1.6,0-3.2,0-4.9,0c-2.6-0.1-5.5-0.1-8.5-0.2h-3.3c-4.5,0-9.5-0.1-14.3-0.3c-1.3-0.1-2.7-0.1-4-0.2
	l-1.8-0.2l-0.4,0l-2.1-0.2c-1.1-0.1-2.2-0.1-3.5-0.2h-0.7c-1,0-2-0.1-3.1-0.1l-1.1-0.1l-2.1-0.1h-0.4l-1.7-0.1
	c-1.5-0.1-3-0.2-4.5-0.2c-2.9-0.1-5.9-0.2-8.7-0.2h-0.5c-1.3,0-2.7,0-4,0c-1.5,0-2.9,0-4.1,0.1c-2.8,0.1-5.6,0.2-8.3,0.2h-0.5
	c-1.1,0-2.4,0-3.8-0.1c-0.7,0-1.4-0.1-2.1-0.2s-1.3-0.1-1.9-0.2L636,415h-0.2c-2.2-0.2-4.4-0.3-6.6-0.4c-2.8-0.1-5.6-0.1-8.2-0.2h-2
	h-2.6l-0.6,0.3h-0.5c-0.9,0-1.8-0.1-2.6-0.1c-0.7,0-1.4,0-2.1,0l-1.7-0.1c-0.9-0.1-1.8-0.1-2.8-0.1h-2.3c-0.8,0-1.7,0-2.5,0.1
	l-0.4,0.1h-0.1h-0.4c-0.6,0-1.1,0.1-1.7,0.4c-0.1,0-0.2,0.1-0.2,0.2c-2.7,0.7-5.4,1.3-8.2,1.6h0.2l0.8-0.1l-0.8,0.2l-0.9,0.2l-1,0.1
	c-0.4,0.1-0.8,0.1-1.2,0.2c-2.2,0.5-4.4,0.8-6.6,0.9c-1.8,0-3.3,0.1-4.7,0.3c-0.7,0.1-1.5,0.1-2.2,0.2c-0.5,0-0.9,0-1.3,0.1
	c-1,0.1-1.9,0.3-2.8,0.3h-0.5c-0.7,0-1.5,0.1-2.2,0.1l-0.8,0.1c-0.5,0.1-1,0.1-1.5,0.1h-1.8h-0.7c-1.8,0-3.7-0.1-5.5-0.2
	s-3.7-0.1-5.5-0.2c-1.2,0-2.4,0-3.7-0.1c-2.8,0-5.7-0.1-8.6-0.3c-0.7-0.1-1.4-0.1-2.1-0.1h-0.8H534h-1l-2.5,0
	c-1.2,0-2.3,0.1-3.5,0.1h-0.6c-1.5,0-3.1-0.2-4.5-0.3c-1-0.1-2-0.2-3-0.3c-2.5-0.2-4.8-0.5-6.8-0.8l-1,0c-0.8-0.1-1.6-0.2-2.4-0.3
	c-0.4-0.1-0.8-0.1-1.2-0.2h-0.2c-1.6-0.1-3.2-0.4-4.8-0.8l-0.7-0.2c-0.8-0.2-1.5-0.4-2.2-0.6c-0.3-0.1-0.7-0.2-1-0.2l-0.8-0.2
	l-0.1,0.1l0,0c-0.5-0.1-1-0.1-1.5-0.1h-0.8c-1.6-0.2-3-0.4-4.3-0.4s-2.8-0.1-4.1-0.1h-0.2c-0.7,0-1.4,0-2,0.1s-1.4,0.1-2.1,0.2H481
	h-0.5h-0.7h-0.5c-1,0-2-0.1-3-0.1l-1-0.1c-1-0.1-2-0.1-3-0.2c-1.4-0.1-3.1-0.1-5.2-0.1h-2.4c-3.6,0-7.3,0.2-10.8,0.3h-1.2l-4.8,0.1
	c-2.8,0.1-5.6,0.1-8.4,0.2h-1.3c-0.9,0-1.8,0-2.7,0c-1.4,0.1-2.8,0.1-4.2,0.2c-5.4,0.3-10.8,0.4-16,0.5h-0.4l-8,0.1H406l-7.7,0.1
	h-2.8c-1.8,0-3.7,0-5.5,0.1c-1.2,0-2.5,0.1-3.7,0.2c-1.5,0.1-3,0.1-4.5,0.2c-4.8,0.1-9.4,0.1-14.1,0.1h-6.1c-1.4,0-3.2,0-5-0.1
	c-2.8-0.2-5.7-0.3-8.5-0.4l-1.6,0h-0.5h-0.7H345c-1.7,0-3.5-0.1-5.3-0.1c-0.6,0-1.3-0.1-2-0.1h-0.3l-1.7-0.1l-1.6-0.1l-2.7-0.1
	l-5.5-0.5l-2.6-0.2c-1.6-0.1-3.1-0.2-4.7-0.3l-1-0.1l-3.2-0.2c-1.6-0.1-3.2-0.3-4.8-0.5c-1.2-0.1-2.4-0.2-3.5-0.3s-2.2-0.2-3.3-0.2
	l-0.9,0l-1.1-0.1h-0.4h-0.4h-0.4l-1.6-0.1c-5.5-0.4-11-0.4-16.5-0.5L280.5,411.9L280.5,411.9z"/>
<path class="st0" d="M605.7,335.2c-1.1,0-2.3,0.1-3.4,0.1s-2.4,0.1-3.6,0.2c-0.6,0-1.1,0.1-1.7,0.2c-1,0-2-0.1-2.9-0.2
	c-0.2,0-0.4-0.1-0.6-0.1h-0.3c-0.2,0-0.4,0-0.5,0.1c-0.3,0.1-0.6,0.3-0.9,0.5l0,0c-0.3,0.3-0.5,0.7-0.6,1.1
	c-0.1,0.2-0.3,0.3-0.4,0.5c-0.9,1.5-0.3,3.4,1.2,4.3c0.2,0.1,0.4,0.2,0.7,0.3c0.7,0.2,1.5,0.2,2.3,0.1l1.9-0.1c1.4-0.1,2.8,0,4.2,0
	s2.8,0,4.2-0.1c0.6,0,1.2-0.1,1.8-0.2c1.1-0.1,2.1-0.2,3.2-0.4c0.5-0.1,1.1-0.4,1.5-0.8c1.3-1.3,1.3-3.3,0-4.6l-0.7-0.5
	c-0.5-0.3-1.1-0.4-1.7-0.4c-0.3,0-0.6-0.1-0.9,0C607.6,335,606.6,335.2,605.7,335.2L605.7,335.2z"/>
<path class="st0" d="M572,334.1c-1.6,0.1-3.2,0.3-4.9,0.5l-0.6,0.1c-0.9-0.1-1.8-0.2-2.7-0.2c-0.6,0-1.1,0-1.7,0c-0.3,0-0.5,0-0.8,0
	c-0.4,0-0.8,0.1-1.2,0.2c-0.6,0.2-1.1,0.5-1.5,0.9l-0.5,0.7c-0.9,1.6-0.4,3.6,1.2,4.5c0,0,0,0,0,0c0.5,0.3,1.1,0.5,1.7,0.5
	c0.2,0,0.5,0,0.7,0c0.8,0.1,1.7,0.1,2.5,0.1c1.2,0.1,2.5,0.1,3.7,0h0.5c1.3,0.1,2.7,0.2,4,0.3c1.2,0,2.4,0.2,3.5,0.3
	c2,0.1,4,0.1,6,0.1c1.8,0,3.6-0.1,5.4-0.1c1,0,2,0,3-0.1c0.6,0,1.2-0.1,1.7-0.1h0.5c0.9,0.1,1.8,0.2,2.7,0.2c2.1,0,3.8-1.7,3.8-3.7
	c0-1.7-1.1-3.2-2.8-3.6c-1.2-0.3-2.3-0.4-3.5-0.5c-0.5,0-1.1,0-1.6,0c-1.2,0-2.3-0.1-3.5-0.1c-1.8,0-3.5-0.1-5.3-0.1h-1.3
	c-0.6,0-1.2,0-1.8,0h-2.8l-2.1,0H574C573.3,334,572.6,334,572,334.1L572,334.1z M560.6,341.1l0.5,0.1l0,0L560.6,341.1L560.6,341.1z
	 M561.2,341.2L561.2,341.2z"/>
<path class="st0" d="M492,415.6c-0.7,0.1-1.4,0.2-2.1,0.3c-0.5,0.1-1,0.3-1.5,0.4s-1,0.1-1.5,0.1c-0.8,0-1.5,0.7-1.5,1.5
	c0,0.8,0.7,1.5,1.5,1.5c1.5-0.1,3-0.1,4.5,0c0.6,0.1,1.3,0.1,1.9,0.1l1.1,0.1c0.6,0,1.2,0,1.8-0.1c1.1-0.3,1.8-1.5,1.5-2.6
	c-0.1-0.4-0.3-0.7-0.5-0.9c-0.4-0.4-0.9-0.6-1.5-0.6c-0.3,0-0.6,0-0.9,0C493.9,415.4,492.9,415.5,492,415.6L492,415.6z"/>
<path class="st0" d="M501.2,414.6c-0.9,0-1.8,0-2.7,0c-1.5,0-3,0.2-4.5,0.7c-0.8,0.2-1.5,0.5-2.2,0.7c-0.4,0.1-0.8,0.2-1.2,0.4
	c-0.3,0.1-0.7,0.2-1,0.2l-1.9,0.3c-0.4,0.1-0.8,0.4-1,0.7c-0.4,0.8-0.2,1.7,0.6,2.2c0.4,0.2,0.8,0.3,1.2,0.2h0.1h-0.2h0.2l0,0h0.2
	h-0.1l3.1-0.4h-0.2c0.5-0.1,1-0.1,1.6-0.1s1-0.1,1.5-0.1c0.9-0.1,1.7-0.1,2.5-0.1c1.1,0,2.3,0,3.4,0c0.9,0,1.7,0,2.6,0.1
	c0.7,0.1,1.4,0.1,2.1,0.1c0.6,0,1.2,0,1.9,0.1l1.3,0.2c0.5,0.1,1.1,0.1,1.6,0.1s1.2,0.1,1.8,0.2s1.2,0.1,1.8,0.1l-0.4,0
	c1.1,0.1,2.2,0.2,3.3,0.4c1.1,0.1,2.1,0.1,3.2,0.1c0.9,0,1.9,0,2.8,0s2,0.2,3.1,0.2s2.2,0.1,3.2,0.1l3.2,0.1c1,0,1.9,0.1,2.9,0.1
	s1.9,0,2.9,0c0.6,0,1.2,0,1.8,0.1c1.6,0.3,3.3,0.5,4.9,0.6c1.4,0.1,2.8,0.1,4.1,0.1s2.9,0,4.4-0.1c0.6,0,1.3,0,1.9,0
	c0.8,0,1.7,0.1,2.5,0c1.4,0,2.5-1.1,2.5-2.5c0-1.1-0.7-2.1-1.8-2.4c-1.2-0.2-2.3-0.4-3.5-0.5c-0.8-0.1-1.7-0.1-2.5-0.1
	c-1.8,0-3.6-0.1-5.4-0.1c-0.9,0-1.8,0-2.7,0s-1.9-0.1-2.8-0.2s-2-0.2-3-0.2s-2,0-2.9,0c-2,0-4,0.1-6.1,0.2c-1.1,0-2.2,0-3.3,0
	s-2-0.1-3-0.1c-0.5,0-1.1,0-1.6,0s-0.9,0-1.3,0c-1,0-2.1-0.1-3.1-0.2s-2-0.1-3.1-0.2s-2,0-3-0.1c-0.5,0-1-0.1-1.5-0.1
	s-0.8,0-1.2-0.1L507,415l0.6,0.1c-0.8-0.1-1.6-0.3-2.4-0.4s-1.3-0.2-2-0.2h-0.3C502.4,414.5,501.8,414.6,501.2,414.6L501.2,414.6z
	 M489.6,416.6h-0.4H489.6z M488.6,419.9L488.6,419.9z"/>
<path class="st0" d="M596,414c-0.6,0-1.1,0-1.7,0.1c-2.2,0.2-4.4,0.5-6.6,0.6c-1.7,0.1-3.5,0.4-5.2,0.6l0.8-0.1
	c-2.3,0.3-4.5,0.2-6.8,0.4s-4.5,0.5-6.7,0.6l-3.3,0.2c-1.1,0.1-2.1,0.2-3.2,0.2c-2.2,0.1-4.4,0.1-6.6,0.2c-3,0.2-6,0.5-9,0.7
	c-1.9,0.1-3.8,0.4-5.6,0.9c-1.8,0.5-3.6,1.1-5.3,1.9c-0.4,0.2-0.7,0.5-0.9,0.9c-0.3,0.6-0.4,1.2-0.2,1.9c0.2,0.6,0.6,1.1,1.1,1.4
	c0.6,0.3,1.2,0.4,1.8,0.2l1.5-0.2l-0.7,0.1c1.6-0.2,3.2-0.5,4.8-0.7c1.3-0.1,2.6-0.2,3.9-0.2c1.3,0,2.6,0,3.9-0.1c0.6,0,1.2,0,1.7,0
	s1.3,0,1.9,0c1.1-0.1,2.3,0,3.4,0c2.2,0.1,4.4,0,6.6-0.2c1.1-0.1,2.3-0.2,3.4-0.3s2.1-0.2,3.1-0.3c1.6-0.2,3.1-0.4,4.7-0.5
	c1.9-0.2,3.7-0.3,5.6-0.5l-0.9,0.1c0.8-0.1,1.6-0.2,2.4-0.3s1.4-0.2,2.1-0.4c1.1-0.2,2.2-0.4,3.3-0.5c0.9-0.1,1.8-0.2,2.7-0.3
	l-0.8,0.1c3.3-0.4,6.7-0.6,10-0.7c2,0,3.9-0.1,5.8-0.1c0.9,0,1.8-0.1,2.7-0.1c1,0,1.9,0,2.9,0.1c0.9,0.1,1.9,0.3,2.8,0.4
	c0.9,0,1.6-0.7,1.7-1.6c0-0.4-0.2-0.9-0.5-1.2c-0.3-0.3-0.7-0.5-1.2-0.5l-0.7-0.1c-1.1-0.2-2.2-0.5-3.2-0.8s-2.2-0.5-3.3-0.7
	c-1.3-0.3-2.6-0.5-3.8-0.7s-2.5-0.3-3.8-0.4c-1-0.1-2.1-0.1-3.1-0.1C597,413.9,596.4,414,596,414L596,414z"/>
<path class="st4" d="M478.3,404.4c-0.5,0.2-0.8,0.6-1,1.1c-0.2,0.5-0.2,1,0.1,1.5c0.2,0.5,0.6,0.8,1.1,1l0.3,0.1
	c0.2,0.1,0.4,0.3,0.6,0.4c0.4,0.2,0.9,0.4,1.3,0.5c0.8,0.3,1.6,0.5,2.4,0.7l-0.3-0.1l1,0.2l-0.3-0.1l0.4,0.1h0.2h-0.1l0.6,0.1
	c0.2,0.1,0.4,0.1,0.6,0.2c0.2,0.1,0.4,0.1,0.7,0.2c0.4,0.2,0.9,0.3,1.3,0.5s0.9,0.3,1.3,0.5c0.4,0.1,0.8,0.3,1.2,0.5l0.1,0.1h-0.1
	c0.4,0.2,0.9,0.5,1.3,0.6c0.3,0.1,0.7,0.3,1.1,0.3l-0.4-0.1c0.9,0.2,1.6,0.6,2.4,0.9c0.6,0.2,1.2,0.4,1.8,0.5c0.2,0,0.3,0,0.5,0
	c0.2,0,0.4,0.1,0.5,0.1l0.5,0.1c0.9,0.2,1.8,0,2.5-0.6l0,0c0.5-0.4,0.9-1,0.9-1.7c0.1-1-0.4-1.9-1.2-2.5c-0.3-0.2-0.6-0.4-1-0.5
	c-0.3-0.1-0.7-0.2-1-0.2c-0.4-0.1-0.9-0.3-1.3-0.4l0.7,0.2l-0.8-0.2l0.3,0.1c-0.6-0.1-1.2-0.3-1.8-0.5s-1.1-0.3-1.7-0.4
	c-0.6-0.1-1.1-0.3-1.7-0.5c-0.7-0.3-1.4-0.5-2.2-0.6l0.2,0l-0.2-0.1l-0.4-0.1l0.3,0.1l-0.4-0.1c-0.6-0.1-1.1-0.3-1.7-0.5l-1-0.3
	c-0.5-0.1-1-0.2-1.5-0.3l-1.1-0.3l0.6,0.1l-1.5-0.3c-0.5-0.2-1-0.3-1.5-0.4c-0.2,0-0.4,0-0.6,0c-0.2,0-0.5,0-0.7,0
	c-0.2-0.1-0.4-0.1-0.7-0.1C478.8,404.2,478.5,404.3,478.3,404.4L478.3,404.4z M478.4,407.7l0.2,0.2l0,0L478.4,407.7L478.4,407.7z"/>
<path class="st4" d="M488.3,408.6c-0.5,0.7-0.3,1.7,0.4,2.1c0.4,0.3,0.9,0.5,1.3,0.8c0.5,0.4,1.1,0.7,1.7,1l-0.5-0.2
	c0.2,0.1,0.4,0.2,0.6,0.3l0.2,0.2c0.2,0.1,0.4,0.2,0.5,0.3c0.2,0.1,0.4,0.3,0.6,0.4c0.6,0.3,1.2,0.6,1.9,0.6l1,0.2
	c0.2,0.1,0.4,0.1,0.5,0.1l0,0h0.1c1,0.4,2.2,0.1,2.9-0.8c0.5-0.8,0.5-1.9-0.2-2.6c-0.3-0.3-0.7-0.6-1.1-0.8c-0.1,0-0.3-0.1-0.4-0.1
	l-0.1-0.1l0.1,0l0,0l0.2,0.1l0.2,0.1c-0.3-0.2-0.6-0.3-1-0.4l0.2,0c-0.4-0.1-0.8-0.2-1.2-0.3h0.2c-0.4-0.1-0.7-0.2-1-0.3l-0.6-0.2
	c-0.4-0.1-0.7-0.2-1.1-0.3c-0.8-0.2-1.5-0.1-2.3-0.3c-0.2,0-0.4-0.1-0.6-0.2l-0.4-0.3c-0.3-0.2-0.6-0.3-0.9-0.3
	C489.1,407.8,488.7,408.1,488.3,408.6L488.3,408.6z"/>
<path class="st4" d="M494.1,345.7c-0.3,0.2-0.4,0.5-0.4,0.9c-0.1,0.7,0.4,1.3,1.1,1.4c0,0,0,0,0,0c0.4,0,0.7-0.1,1-0.3
	c0.5-0.5,0.6-1.3,0.1-1.8c-0.2-0.3-0.5-0.4-0.9-0.4C494.7,345.4,494.4,345.5,494.1,345.7L494.1,345.7z"/>
<path class="st4" d="M490.7,344.7h-0.9c-0.9,0-1.7,0-2.6,0.1c-0.6,0.1-1.3,0.3-1.9,0.4s-1.2,0.2-1.9,0.2l0,0c-1.2,0-2.5,0-3.7,0.2
	c-1,0.1-1.9,0.2-2.8,0.4s-1.8,0.1-2.6,0.2c-1.1,0.2-2.2,0.5-3.3,0.9l-1.7,0.5l0.4-0.1c-0.7,0.2-1.3,0.5-2,0.7
	c-0.6,0.3-1.1,0.5-1.7,0.8s-1.4,0.7-2,1.1s-1.5,0.8-2.2,1.2s-1.6,0.9-2.5,1.4s-1.8,0.9-2.7,1.4c-2.1,1.1-4,2.5-5.6,4.2
	c-0.5,0.4-0.9,0.9-1.2,1.5c-0.5,0.8-0.5,1.9,0.1,2.6c0.4,0.4,0.9,0.7,1.4,0.7c0.6,0,1.1-0.1,1.6-0.5c1.4-0.9,2.6-2,4-3
	c1.2-0.7,2.5-1.4,3.8-2c0.7-0.3,1.4-0.6,2-1s1.2-0.7,1.8-1s1.1-0.5,1.6-0.8c0.5-0.3,1-0.5,1.6-0.7c0.9-0.4,1.7-0.7,2.6-1
	c0.6-0.2,1.2-0.4,1.8-0.6s1.2-0.4,1.8-0.6c1-0.3,2.1-0.5,3.1-0.7c1.2-0.2,2.4-0.5,3.6-0.7c0.7-0.1,1.3-0.2,2-0.3s1.4-0.1,2-0.2
	c1.1-0.2,2.3-0.5,3.4-0.9c0.8-0.2,1.6-0.3,2.4-0.5s1.4-0.3,2.1-0.3h0.5c0.6,0,1.1,0,1.7,0.1c0.9,0.1,1.7-0.5,1.8-1.3
	c0.1-0.9-0.5-1.7-1.3-1.8c-0.1,0-0.1,0-0.2,0c-0.9-0.1-1.7-0.1-2.5-0.3c-0.4,0-0.8-0.1-1.2-0.1L490.7,344.7z M490.5,344.7
	L490.5,344.7z"/>
<path class="st0" d="M461.1,342.6c-0.4,0-0.8,0.1-1.2,0.2c-0.2,0.1-0.4,0.1-0.6,0.1c-0.4,0.1-0.9,0.1-1.3,0.2
	c-1,0.2-1.9,0.4-2.8,0.5c-0.7,0-1.4,0.1-2.1,0.1c-0.9,0-1.6,0.7-1.7,1.6c0,0.9,0.7,1.6,1.6,1.7c0.8,0,1.6,0,2.4,0s1.4,0,2.1,0
	c0.3,0,0.6,0,0.9,0.1c0.3,0,0.6,0,0.9,0.1c0.8,0.1,1.5,0.1,2.3-0.1c1.2-0.3,2-1.5,1.8-2.7c-0.1-0.4-0.3-0.8-0.6-1.1
	C462.4,342.9,461.8,342.6,461.1,342.6L461.1,342.6z"/>
<path class="st0" d="M504.5,338.2c-1.5,0-2.9,0-4.4,0.2l0.7-0.1l-1.3,0.1l-0.9,0.1l-0.8,0.1c-1.7,0.1-3.4,0-5.1,0.2h-0.5h0.1
	l-0.9,0.1c-0.8,0-1.6,0.1-2.4,0.2c-0.5,0-1.1,0.1-1.6,0.2l-0.6,0.1h0.2c-0.6,0-1.3,0.1-1.9,0.2h-0.4l0.7-0.1l-1.5,0.1l-0.7,0.1
	l-1.1,0.1l0.7-0.1c-1.1,0.1-2.3,0.3-3.4,0.5H479l-1.1,0.1l0.5,0c-1.2,0.1-2.4,0.3-3.6,0.5s-2.5,0.3-3.8,0.5
	c-1.1,0.2-2.1,0.3-3.2,0.5c-0.9,0.2-1.9,0.4-2.8,0.5l0.7-0.1c-0.7,0.1-1.4,0.1-2,0.2s-1.2,0.1-1.9,0.2s-1.1,0.1-1.6,0.2h0.5l-1,0.1
	h0.1l-0.6,0.1c-0.5,0-1,0.1-1.5,0.2s-0.9,0.2-1.3,0.3c-0.9,0.3-1.8,0.5-2.7,0.6c-0.4,0-0.8,0-1.1,0h-0.2c-0.5-0.1-0.9-0.1-1.4,0.1
	c-0.4,0.2-0.7,0.6-0.9,1.1c-0.2,0.5-0.1,1,0.1,1.4c0.2,0.4,0.6,0.8,1.1,0.9c0.9,0.2,1.9,0.3,2.8,0.4c0.6,0.1,1.2,0.1,1.8,0.1
	c0.5,0,1.1,0,1.6,0c0.5,0,1,0,1.4,0.1c0.6,0.1,1.2,0.2,1.8,0.2c0.7,0,1.4-0.1,2.1-0.2c0.8-0.1,1.6-0.3,2.4-0.4c0.5,0,1,0,1.5,0.1
	c0.6,0,1.1,0,1.7,0c0.8-0.1,1.6-0.2,2.5-0.4c0.7-0.1,1.4-0.3,2.1-0.4l-0.8,0.1l1.5-0.1c1.3,0,2.6-0.2,3.9-0.4
	c1.1-0.2,2.1-0.4,3.2-0.6s1.9-0.4,2.9-0.6c1-0.3,2.1-0.5,3.1-0.6h-0.4l1.1-0.1c1-0.1,2.1-0.2,3.1-0.3s1.8-0.1,2.8-0.2l0.6-0.1
	l-0.7,0.1l0.8-0.1l1.6-0.1c0.6,0,1.2-0.1,1.9-0.1c0.8,0,1.5-0.1,2.3-0.2h0.2l1.9-0.2h-0.3c0.8-0.1,1.5-0.1,2.3-0.2
	c0.5,0,1-0.1,1.5-0.2h0.2c1.5-0.1,3.1-0.1,4.6-0.3c1.2-0.3,1.9-1.4,1.7-2.6c-0.2-1-1.1-1.7-2.1-1.7c-1-0.1-2-0.2-3-0.2
	c-0.6,0-1.2,0-1.8,0L504.5,338.2z M498.3,338.6L498.3,338.6z M497.5,338.6h-0.2H497.5z M492,338.9l-1.1,0.1l0.7-0.1l0,0L492,338.9
	L492,338.9z M486.6,339.4h-0.3H486.6z M502,343.4h-0.2H502z M494.5,344h-0.3H494.5z M493.8,344.1L493.8,344.1z M490.8,344.3h-0.3
	H490.8z M499.1,338.5h0.4H499.1z M499.5,338.5L499.5,338.5z M499.5,338.5h0.2H499.5z"/>
<path class="st0" d="M552.2,336.3c-0.4,0-0.8,0-1.3,0h-1.1c-0.7,0-1.3,0-2,0h-1.2c-1.8,0-3.7,0.1-5.5,0.3c-0.9,0.1-1.8,0.1-2.7,0.2
	c-0.5,0.1-1,0.2-1.6,0.2c-0.7,0-1.5,0.1-2.2,0.2l0.8-0.1l-1.2,0.1l0.5,0l-2,0.2l-0.5,0h-0.1c-0.5,0-1,0.1-1.5,0.1l-1.4,0.1l0.5,0
	c-1,0.1-1.9,0.2-2.9,0.4c-0.7,0.1-1.4,0.3-2.1,0.4c-0.8,0-1.7,0-2.5-0.1c-0.9,0-1.7,0.7-1.7,1.6c0,0.9,0.7,1.7,1.6,1.7
	c0.6,0,1.3,0.1,1.9,0.2c1,0.2,1.9,0.7,2.9,0.9c0.7,0.2,1.3,0.2,2,0.3s1.1,0.2,1.7,0.2c0.3,0,0.6,0,0.8,0c0.2,0,0.4,0,0.7,0
	c0.5,0,1,0.1,1.4,0.1h0.8c0.7,0,1.4,0,2.1,0.1c0.5,0.1,1,0.2,1.6,0.2c0.5,0,1,0,1.6,0c1.1,0,2.2,0,3.3,0s2.2-0.1,3.3,0
	s2.4,0.2,3.7,0.2c0.9,0,1.9-0.1,2.8-0.4c0.4-0.1,0.8-0.2,1.3-0.3c0.8,0,1.5,0,2.3,0c1,0.1,1.9,0.1,2.8,0.1s2.1,0,3.2-0.1
	s2.2-0.1,3.3-0.2l-0.5,0l0.7-0.1c0.6,0,1.3,0,1.9,0s1.5,0,2.3,0s1.3-0.1,2-0.1c0.6,0,1.2-0.1,1.8-0.2l0.9-0.2l2.2-0.1
	c0.9-0.1,1.8,0,2.8,0.1h-0.1l0.5,0.1c0.6,0.1,1.3,0.3,1.9,0.3c0.5,0.1,1,0.1,1.5,0.1c1.1,0,2.2,0,3.3-0.2H586l0.7-0.1l2.9-0.2h-0.4
	c0.9-0.1,1.8-0.1,2.7-0.2c1.3,0,2.5,0,3.8-0.1s2.2-0.5,3.3-0.7c1.5-0.3,3-0.5,4.5-0.9c0.9-0.2,1.5-1,1.6-1.9c0.1-1.1-0.8-2-1.9-2.1
	c0,0-0.1,0-0.1,0c-1.5,0.1-3,0.2-4.6,0.4c-0.8,0.1-1.6,0.2-2.4,0.3c-0.9,0-1.7,0-2.6-0.2c-0.7-0.1-1.3-0.1-2-0.1
	c-1.4,0-2.8,0-4.1,0.1c-1.2,0.1-2.4,0.1-3.6,0.1c-1.5,0-3-0.1-4.4-0.4c-0.9-0.1-1.8-0.1-2.7-0.1c-0.6,0-1.3,0-1.9,0
	s-1.5-0.1-2.2-0.2s-1.3,0-2,0c-1.5,0-2.9-0.1-4.3-0.2c-0.6-0.1-1.3,0-1.9-0.1s-1.3-0.1-1.9-0.1c-0.9,0-1.8,0-2.7,0s-1.8,0-2.7,0
	c-0.5,0-1,0-1.5,0c-1.2,0-2.4,0.1-3.5,0.2L552.2,336.3z M535.1,337.1h-0.3H535.1z M589.9,342.6L589.9,342.6z"/>
<path class="st0" d="M498.1,338.1c-0.8,0.1-1.6,0.3-2.4,0.4s-1.6,0.3-2.4,0.5c-0.6,0.2-0.9,0.8-0.8,1.4c0.2,0.6,0.7,0.9,1.3,0.8
	c0.6-0.2,1.3-0.3,1.9-0.4l1.6-0.2c0.3,0,0.7,0,1-0.1c0.6-0.1,1-0.6,1-1.1c0-0.3-0.1-0.6-0.3-0.9c-0.2-0.2-0.5-0.4-0.8-0.4
	L498.1,338.1z"/>
<path class="st0" d="M529.7,337.7c-0.5,0-1.1,0-1.6,0c-0.8,0-1.5,0.1-2.3,0c-1.7-0.1-3.4,0.1-5.1,0.1c-0.5,0-1.1,0-1.6,0
	c-0.6,0-1.2,0-1.9,0.1c-0.8,0-1.5,0.1-2.3,0.1c-1,0-2,0-3,0c-0.6,0-1.2,0.1-1.8,0.1s-1.1,0-1.7,0s-1.1,0-1.7,0s-1,0-1.5,0.1
	l-1.2,0.1h-0.4h-0.6c-0.4,0-0.8,0-1.1,0c-0.5,0-1,0-1.5,0c-1.2,0.1-2.5,0.2-3.7,0.4c-0.6,0.1-1.2,0.2-1.8,0.4
	c-0.5,0.1-1.1,0.2-1.7,0.3c-1.1,0.1-2.1,0.1-3.2,0c-0.8,0-1.5,0.6-1.6,1.4s0.6,1.5,1.4,1.6l0,0c0.9,0,1.9,0.1,2.8,0.1
	s1.7,0.2,2.5,0.2s1.4,0.1,2.1,0.2c0.3,0,0.7,0.1,1,0.1c0.5,0.4,1.1,0.6,1.7,0.6c0.2,0,0.3,0,0.5,0c0.4,0,0.9,0,1.3,0s1,0,1.5,0
	c0.7,0,1.3,0,2-0.1l-0.7,0.1c0.9-0.1,1.7-0.1,2.6-0.2l-0.7,0.1c0.6,0,1.1-0.1,1.7-0.1s1.1,0,1.7,0c1.1-0.1,2.2-0.1,3.3-0.1
	c0.9,0,1.8,0,2.7,0.1c0.4,0,0.8,0,1.3,0c0.4,0,0.9,0,1.3,0c1,0,2,0.1,3,0.1h1.7c0.5-0.1,1.1-0.1,1.6,0l-0.3-0.1
	c0.5,0.1,1,0.1,1.5,0.2c0.5,0,0.9,0,1.4-0.1c0.7,0,1.3-0.1,2-0.1l-0.6,0.1l1.1-0.1c1-0.1,1.9-0.2,2.9-0.4c1.1-0.3,2-1.2,2-2.4
	c0-1.4-1.1-2.6-2.5-2.7c-0.9-0.1-1.7-0.1-2.5-0.1L529.7,337.7z M493.1,339.3H493H493.1z"/>
<path class="st0" d="M578,337.7c-1.3,0-2.5,0-3.8,0.1h0.2l-0.6,0.1c-1,0.1-2,0.2-3,0.2s-2.3,0-3.4,0s-2,0-2.9,0
	c-1.2,0.1-2.5,0.1-3.7,0.2l0.7-0.1c-0.6,0-1.3,0.1-1.9,0.1h-0.9c-0.3,0-0.6,0-1,0.1l-3.5,0.2c-1.2,0.1-2.5,0.1-3.8,0.2
	s-2.6,0-3.9,0.1h0.3c-0.5,0-1,0.1-1.5,0.1h0.5c-0.8,0.1-1.5,0.2-2.2,0.3c-1.1,0.1-2.2,0.1-3.3,0c-0.7,0-1.4-0.1-2.2-0.1
	s-1.6,0-2.4,0.1h-0.6c-0.3-0.1-0.6-0.1-0.9-0.1c-0.4,0-0.9,0-1.3,0c-0.8,0-1.6,0.1-2.3,0.2c-0.4,0-0.8,0.1-1.3,0.1
	c-0.4,0-0.8,0-1.1,0.1c-0.9,0.2-1.5,1.1-1.3,2c0,0.1,0.1,0.3,0.1,0.4c0.5,0.7,1.2,1.1,2,1.2c0.7,0.2,1.4,0.3,2.2,0.4
	c1,0.1,2.1,0.2,3.1,0.3c1.1,0.1,2.2,0.1,3.3,0l-0.6,0c0.7-0.1,1.3-0.1,2,0c0.8,0,1.5,0.1,2.2,0.2c0.8,0.2,1.7,0.3,2.5,0.4
	c0.6,0,1.2,0,1.9-0.1c1.5-0.1,2.9,0,4.4,0c1.7,0,3.4-0.1,5-0.3c0.7,0,1.4-0.1,2.1-0.1h1.3c0.5,0,1,0,1.4,0c1.1,0,2.3-0.1,3.4-0.2
	c0.8-0.1,1.5-0.2,2.3-0.3c0.7,0,1.5,0,2.2,0.1c0.9,0.1,1.8,0.2,2.7,0.2c1.1,0,2.2-0.2,3.3-0.3c0.7-0.1,1.3-0.2,2-0.3
	c0.9-0.1,1.7-0.1,2.6-0.1c0.6,0,1.1,0,1.7,0c0.5,0,1-0.1,1.4-0.1c0.6-0.1,1.2-0.4,1.8-0.8c1.1-0.6,1.6-2,1-3.1
	c-0.4-0.7-1.1-1.2-2-1.2c-0.8,0-1.6,0-2.4,0c-0.6,0-1.3,0-1.9,0L578,337.7z M544.3,339.2l-0.5,0L544.3,339.2z M565.4,343.5h-0.2
	H565.4z M540.8,343.9l0.6,0.1l0,0L540.8,343.9L540.8,343.9z M541.5,344l0.4,0.1L541.5,344z"/>
<path class="st4" d="M432.2,381.7c-0.4,1-0.6,2.1-0.8,3.1c0,0.9,0.1,1.7,0.4,2.5v0.1v-0.1l0.1,0.2c0,0,0,0.1,0,0.1v-0.1l0.1,0.2
	c0.1,0.3,0.3,0.7,0.5,1c0.2,0.4,0.5,0.8,0.8,1.2c0.5,0.7,0.8,1.4,1.3,2.1c0.3,0.5,0.6,0.9,1,1.3c0.4,0.6,0.8,1.3,1.2,1.9
	c0.6,0.7,1.3,1.3,2.1,1.9c1.5,1.1,3,2,4.7,2.8c3.5,1.6,7.1,2.8,10.8,3.8c1.2,0.4,2.5,0.7,3.7,1s2.7,0.8,4.1,1.1s2.5,0.6,3.8,1
	c1.3,0.4,2.6,0.7,3.9,0.9c3,0.7,5.9,2.1,8.9,2.9c1.5,0.4,3,0.8,4.5,1.2c0.6,0.2,1.2,0.4,1.8,0.6c1,0.3,2.1,0.5,3.1,0.7l-1.1-0.2
	c0.9,0.2,1.8,0.4,2.6,0.5c0.7,0.1,1.4,0.3,2.1,0.4l0,0c0.5,0.2,1.1,0.3,1.6,0.4c0.3,0.1,0.7,0.1,1,0.1c0.5,0,1,0,1.5,0.1
	c0.5,0,1,0,1.5,0c0.7,0,1.5-0.1,2.2-0.3c0.7-0.2,1.4-0.4,2-0.7c1.5-0.8,2.4-2.5,2-4.2c-0.2-1-0.8-1.8-1.6-2.4
	c-0.9-0.6-1.9-0.8-2.9-0.6l-0.6,0.1c-1.1,0-2.1-0.2-3.2-0.3l-1.1-0.1c-0.5-0.1-1-0.2-1.5-0.3h-0.2l-0.3-0.1
	c-0.4-0.1-0.8-0.2-1.1-0.3s-0.8-0.2-1.2-0.3c-1-0.2-2-0.4-3-0.6l1.1,0.2c-1.1-0.2-2.3-0.6-3.5-0.8l1.1,0.2c-2.4-0.5-4.8-1.1-7.1-1.9
	c-1.2-0.4-2.3-0.7-3.5-1.1c-1.5-0.5-3-0.8-4.5-1.1l-2.4-0.5l1,0.2c-0.8-0.2-1.6-0.4-2.4-0.6c-1-0.3-2.1-0.5-3.1-0.7l-1.3-0.3
	c-1-0.2-2.1-0.5-3.1-0.7l1,0.2L458,397c-1.5-0.3-3-0.7-4.5-1l0.9,0.2c-2.1-0.5-4.3-1.1-6.3-1.9c-1.7-0.6-3.4-1.2-5.1-2
	c-0.7-0.4-1.4-0.8-2-1.3c-0.3-0.3-0.5-0.6-0.8-0.9c-0.4-0.5-0.8-0.9-1.2-1.3c-0.9-0.9-1.7-1.9-2.4-3c-0.2-0.4-0.4-0.8-0.6-1.1
	c0-0.1,0-0.2-0.1-0.3s0-0.2,0-0.3c0.1-0.3,0.2-0.7,0.3-1c0.3-1.1-0.2-2.2-1.2-2.7c-0.2-0.1-0.5-0.1-0.7-0.1
	C433.4,380.2,432.5,380.8,432.2,381.7z M432,387.8l-0.1-0.1v-0.1L432,387.8L432,387.8z M431.9,387.3L431.9,387.3L431.9,387.3
	L431.9,387.3L431.9,387.3z"/>
<path class="st4" d="M616.3,354.6c-0.9,0.2-1.4,1-1.2,1.9c0.1,0.4,0.3,0.8,0.7,1c0.9,0.5,1.8,1,2.7,1.5l0.8,0.5
	c0.3,0.3,0.6,0.5,0.9,0.7l0.8,0.4c1.1,0.6,2.4,0.3,3.1-0.8c0.5-0.8,0.4-1.9-0.3-2.6c-0.4-0.4-0.8-0.7-1.3-0.8l-0.4-0.1
	c-0.3-0.1-0.5-0.1-0.8-0.1h-0.7l-1-0.3c-0.7-0.2-1.3-0.5-1.9-0.8l-0.1,0c-0.3-0.2-0.6-0.3-0.9-0.3L616.3,354.6L616.3,354.6z
	 M617.3,354.8l0.2,0.1L617.3,354.8z"/>
<g>
	<path class="st4" d="M654.2,381.3c-0.1-1-0.2-2-0.5-3c-0.2-0.6-0.4-1.3-0.7-1.9c-0.2-0.6-0.4-1.2-0.6-1.8c-0.2-0.8-0.6-1.5-1-2.1
		c-0.4-0.5-0.7-1-1.1-1.5c-0.4-0.6-0.8-1.1-1.3-1.6c-0.4-0.3-0.8-0.5-1.1-0.8l-0.1-0.2l-0.1-0.3c-0.2-0.5-0.5-1.1-0.7-1.6
		c-0.4-0.7-0.9-1.2-1.4-1.8c-0.4-0.4-0.9-0.8-1.3-1.1l-0.6-0.4c-0.7-0.5-1.5-1-2.3-1.5c-0.6-0.4-1.2-0.7-1.8-1.1l-0.3-0.2
		c-0.6-0.5-1.2-1-1.8-1.5c-0.6-0.5-1-0.7-1.6-1l-0.8-0.6c-0.6-0.4-1.2-0.7-1.8-1c-0.5-0.4-0.9-0.9-1.5-1.3c-0.7-0.5-1.5-0.9-2.2-1.3
		c-0.8-0.5-1.7-0.9-2.7-1.3c-0.7-0.2-1.3-0.6-1.9-0.8l-2.5-0.8c-1-0.3-2-0.7-3-0.9c-0.8-0.2-1.7-0.4-2.5-0.7
		c-0.8-0.3-1.6-0.6-2.5-0.8c-0.7-0.2-1.4-0.4-2.1-0.6c-0.8-0.3-1.6-0.7-2.5-1c-1.4-0.5-2.5-1-3.9-1.4c-0.8-0.2-1.5-0.4-2.3-0.6
		s-1.4-0.4-2.1-0.6c-1.5-0.5-3.1-0.9-4.7-1.2c-1-0.2-2-0.4-2.9-0.5c-1-0.1-1.9-0.1-2.9-0.1s-1.8-0.2-2.7-0.2l-0.1,0.1
		c-0.9,0-1.8,0.1-2.8,0.2H585h-0.1l-1.4,0.1l-1,0.1c-1,0-2.1-0.1-3.1-0.2c-0.5,0-1.1,0-1.6,0s-1.1,0-1.6,0.1c-0.3,0-0.7,0-1,0
		c-0.1,0-0.2,0-0.4,0c-3.1-0.5-6.4-0.9-10.1-1.3l-2.7-0.3c-2.7-0.3-5.4-0.6-8.1-0.8c-0.8,0-1.7-0.1-2.6-0.1l0,0
		c-0.8,0-1.5,0-2.3,0.1l-1.7,0.1c-1.2,0-2.4,0.1-3.6,0.2l-2.9,0.2c-0.9,0-1.8,0.1-2.7,0.2c-1.7,0.1-3.4,0.4-5,0.6h-0.3
		c-1.7,0.2-3.4,0.3-5.1,0.5l-2.1,0.2c-2.7,0.2-5.6,0.6-9,1h0.1c-2.5,0.3-5.1,0.6-8.3,0.9c-2.3,0.2-4.5,0.5-6.8,0.8
		c-0.9-0.4-1.8-0.7-2.8-0.7c-1.7-0.2-3.4-0.3-5.1-0.3c-1.4,0-2.8,0-4.2,0.1l0,0c-2.7,0.1-5.4,0.5-8.1,0.9l-0.4,0.1
		c-1.1,0.1-2.1,0.2-3.2,0.3c-1.2,0.1-2.5,0.3-3.7,0.4c-1.9,0.3-3.9,0.6-5.8,0.9c-1.7,0.3-3.3,0.6-5,1c-1.6,0.4-3.2,0.9-4.7,1.6
		c-0.8,0.4-1.5,1-2.2,1.6c-0.3,0.3-0.6,0.6-0.9,0.9c-0.7,0.5-1.5,1.1-2.1,1.7c-0.1,0.1-0.3,0.3-0.4,0.4c-0.2,0.1-0.3,0.1-0.5,0.2
		c-1.4,0.8-2.8,1.6-4.1,2.5c-1.3,0.8-2.5,1.6-3.9,2.3l-0.2,0.1c-1.1,0.6-2.3,1.2-3.3,2c-1.2,0.9-2.5,1.8-3.7,2.8l-0.9,0.7l0.1-0.1
		c-1.3,1-2.5,2-3.5,3.2c-0.8,0.9-1.6,1.9-2.2,3c-0.6,1.2-1.2,2.4-1.6,3.7c-0.1,0.2-0.2,0.5-0.2,0.7c-0.2,0.6-0.4,1.2-0.5,1.8
		c-0.2,1.2-0.3,2.4-0.4,3.9c-0.2,2.6,0.4,5.2,1.6,7.5c0.6,1.1,1.4,2.1,2.2,3.1c0.6,0.7,1.2,1.3,1.9,1.9c1.9,1.6,4.1,3,6.3,4.2
		c2.2,1.2,4.5,2.2,6.8,3c1.2,0.4,2.4,0.6,3.5,0.9l0.7,0.4c1.4,0.7,2.8,1.4,4.3,1.8c0.5,0.2,1.1,0.4,1.7,0.6c2.9,1.3,5.9,2.3,8.9,3.1
		c2.9,0.7,5.9,1.3,8.8,2c3.2,0.8,6.4,1.5,9.8,2c1.2,0.2,2.4,0.4,3.6,0.6c2.1,0.4,4.4,0.7,6.5,1l0.4,0.1c0.1,0.2,0.1,0.4,0.2,0.6
		c0.4,0.9,1.2,1.6,2.2,1.9c0.5,0.1,0.9,0.2,1.4,0.2l1.1,0.2c0.8,0.1,1.6,0.2,2.5,0.2c0.7,0,1.5-0.1,2.2-0.1c0.7,0,1.6,0.1,2.4,0.2
		l2.2,0.2c0.8,0.1,1.5,0.1,2.3,0.1c0.9,0,1.7,0.1,2.5,0.2c0.3,0.1,0.7,0.1,1,0.1c0.5,0,1.1-0.1,1.6-0.2c2.7,0.1,5.3,0.3,8,0.6
		c0.3,0,0.7,0,1,0s0.7,0,1,0c0.8,0,1.5,0.1,2.3,0.1c0.5,0,0.9,0,1.4,0c0.4,0,0.8,0,1.2,0c0.8,0,1.7,0.1,2.5,0.2
		c0.5,0,0.9,0.1,1.4,0.1c0.6,0,1.3,0,1.9-0.1c1.1,0,2.2,0,3.3,0.1c0.7,0.1,1.3,0.1,2,0.1c0.8,0,1.5-0.1,2.3-0.2c1,0,2,0.1,3,0.1
		c1.1,0.1,2.3,0.2,3.5,0.2c1.3,0,2.5,0,3.8,0.1c0.6,0,1.2,0,1.7,0.1c0.7,0,1.4,0,2.1-0.1c1,0,2.1,0,3.1,0c0.7,0,1.4,0.1,2.1,0.1
		c0.7,0,1.5-0.1,2.2-0.1l2.6-0.2c0.5,0,0.9-0.1,1.4-0.1c0.6,0,1.2,0,1.9,0c0.9,0,1.9,0,2.8-0.1c0.8,0,1.6,0,2.4,0.1
		c1.1,0,2.3,0,3.4-0.2c0.7,0,1.3,0,2,0c1,0,1.9,0,2.9-0.1c0.9,0,1.8-0.1,2.7-0.2c0.7-0.1,1.3-0.2,2-0.2h-0.5
		c0.8-0.1,1.7-0.2,2.5-0.2c0.8-0.1,1.5-0.2,2.3-0.3c1.4-0.1,2.8-0.4,4.2-0.7c1-0.3,1.9-0.6,2.9-1c0.5-0.3,1-0.5,1.6-0.8
		c0.8-0.1,1.6-0.3,2.4-0.5c2.3-0.5,4.6-1.1,6.9-1.6c1.9-0.4,3.7-1,5.5-1.7c2.1-0.9,4.3-1.8,6.4-2.8l1.6-0.7c2.2-0.8,4.3-1.7,6.5-2.6
		c1.5-0.7,2.9-1.4,4.3-2.2c1.5-0.9,3.1-1.8,4.6-2.6c1.5-0.9,3-2,4.3-3.2c1-0.7,2.1-1.3,3.1-2c1.4-0.9,2.6-2.1,3.5-3.6
		c0.5-1,0.9-2,1.2-3c0.4-1.1,0.5-2.2,0.5-3.3C654.4,382.7,654.3,382,654.2,381.3z M456.5,390l-1.1-0.2c-1.6-0.4-3.3-0.9-4.8-1.5
		c-1.3-0.6-2.5-1.3-3.8-2l-0.4-0.2c-1.5-0.8-2.7-1.5-3.9-2.4c0.3,0.2,0.7,0.4,1,0.6l0.1,0.1l0.1,0l0.8,0.4c1.4,0.8,2.6,1.4,3.7,1.9
		l1.5,0.6c1.3,0.5,2.7,1.1,4,1.7c0.6,0.2,1.2,0.5,1.8,0.7l0.2,0.1l0.2,0.1L456.5,390L456.5,390z"/>
	<path class="st4" d="M472.9,345.8c0.4-0.1,0.9-0.1,1.3-0.2c0.1,0,0.3,0,0.4-0.1L472.9,345.8z"/>
</g>
<path class="st5" d="M535.3,391c-2.7,7.7-8.5,2.1-13.5,3.9c-0.3-7-0.6-13.3-0.9-19.6h-2.7c-0.3,6.1-0.7,12.2-1,18.9h-12.6v-27.9
	c8-0.6,15.3-1.7,22.5-1.7c4.8,0,7.1,2.3,6.2,8.5c-0.8,5.8,1.4,12.1,2.3,18.1L535.3,391z"/>
<path class="st5" d="M535.5,391.2c-0.6-3.1-1.5-6.3-1.7-9.5c-0.6-13.8,6.6-19.6,20.3-17.1c10.7,1.9,8.3,11.4,10,17.8
	c1.5,5.8-1.9,10.9-8.5,12.6c-7.4,1.8-14.3,1.1-20.3-4.1L535.5,391.2z M548.3,386.6h2v-13h-2V386.6z"/>
<path class="st5" d="M501.3,383.2c0.1,9.3-3.1,11.7-13.1,11.6c-11-0.1-15.7-5.2-15-16.1c0.7-10.6,7.2-15.8,18.7-14.8
	c9.5,0.8,11.1,3.5,9.3,16.8l-14.6,0.8l-1.1,2.3c1.9,0.8,3.8,2.3,5.6,2.1C494.5,385.6,497.7,384.3,501.3,383.2z"/>
<path class="st5" d="M640,374.6l-15.3-2.1l-0.7,1.2c2.5,0.9,4.9,2.3,7.4,2.7c5.1,0.9,8.6,3,8.8,8.6s-3,9-8.1,10.5
	c-10,3.1-18.7-0.3-21.2-9.6l15.2,1.8l0.8-0.8c-2.5-1.1-4.8-2.7-7.4-3.3c-5.4-1.3-8.6-4.2-8.3-10s4.2-8.2,9.4-9.2
	C630.7,362.5,637,365.2,640,374.6z"/>
<path class="st5" d="M594.7,366.9c-2,8.4-3.3,17.4-6.7,25.5c-1,2.3-8.4,2.2-12.9,2.4c-2,0.1-5.4-1.6-6-3.2
	c-2.7-8.1-4.7-16.4-6.9-24.5c11.9-4,13.2-3.2,17.1,11.6C580.2,368.9,581.9,361.8,594.7,366.9z"/>
<path class="st5" d="M473.7,368c-2.6,9.5-5.6,10.4-14,3.1v13.5c3.5-1,6.8-2.4,10.1-2.8c0.7-0.1,2.1,3.4,2.6,5.3
	c0.3,1.1-0.3,3.4-0.9,3.5c-5,1.2-10.3,3.4-15.2,2.7c-3.6-0.5-8.1-4.2-9.8-7.6c-3.3-6.8-0.5-16.6,4.1-19.9
	C456.3,362,467.6,363,473.7,368z"/>
<path class="st5" d="M607.9,394.6h-12.2v-28.8h12.2V394.6z"/>
<path class="st5" d="M610.5,358.2c-4.2,2.1-6.7,4.5-8.8,4.1s-3.7-3.4-5.5-5.2c2.2-1.5,4.4-3.9,6.8-4.1
	C604.7,352.8,606.8,355.5,610.5,358.2z"/>
</svg>
