<?xml version="1.0" encoding="utf-8"?>
<!-- Generator: Adobe Illustrator 25.2.3, SVG Export Plug-In . SVG Version: 6.00 Build 0)  -->
<svg version="1.1" id="Calque_de_dessin" xmlns="http://www.w3.org/2000/svg" xmlns:xlink="http://www.w3.org/1999/xlink" x="0px"
	 y="0px" viewBox="0 0 105 105" style="enable-background:new 0 0 105 105;" xml:space="preserve">
<style type="text/css">
	.st0{fill:#F5F5F5;}
	.st1{fill:#D6D6D6;}
	.st2{fill:#17682F;}
	.st3{fill:#008F3C;}
	.st4{fill:#B6091C;}
	.st5{fill:#FFFFFF;}
</style>
<path class="st0" d="M69.9,53.1c0,0.2,0,0.4-0.1,0.5l0,0c0.1-0.1,0.1-0.1,0.1-0.2c0,0,0,0,0-0.1s0-0.1,0-0.1c0-0.1-0.1-0.2-0.1-0.3
	l0-0.1C69.9,53,69.9,53,69.9,53.1L69.9,53.1z"/>
<path class="st0" d="M49.2,57.8c0,0.1,0,0.1-0.1,0.1l0.1,0c0,0,0.1,0,0.1,0c0.1,0,0.2,0.1,0.3,0.1l0.1,0c0.2,0.1,0.4,0.1,0.7,0.1h0
	c0.1,0,0.1,0,0.2,0c0.1,0,0.2,0,0.3,0l0.1,0c0.3,0,0.6,0.1,0.9,0.1c0.1,0,0.3,0,0.4,0c0.2,0,0.4,0,0.6,0h0.1c0.2,0,0.3,0,0.5,0h0.3
	h0.1h0.3h0.1c0.1,0,0.2,0,0.3,0c0.4,0,0.8,0,1.2,0c0.2,0,0.3,0,0.5,0l0.7,0c0.2,0,0.5,0,0.7,0H58h0.2c0.1,0,0.1,0,0.2,0l0.1,0
	c0.1,0,0.2,0,0.3,0h0.1c0.1,0,0.2,0,0.4,0c0.1,0,0.1,0,0.2,0c0.1,0,0.2,0,0.3,0c0.2,0,0.4,0,0.6,0c0.3,0,0.6-0.1,0.9-0.1
	c0.1,0,0.1,0,0.2,0l0.1,0l0.1,0l0.1,0l-0.1,0h0c0.4-0.1,0.7-0.1,1.1-0.2c0,0,0,0,0,0c0,0,0,0,0,0h-0.7c-0.3,0-0.6,0-0.9,0h-0.6h0
	h-0.2h-0.3c-0.6,0.1-1.2,0.1-1.8,0.1c-0.2,0-0.4,0-0.7,0c-0.3,0-0.6,0-1,0c-0.2,0-0.4,0-0.5,0c-0.1,0-0.2,0-0.3,0
	c-0.3,0-0.5,0-0.8,0l-0.2,0c-0.1,0-0.2,0-0.4,0c-0.2,0-0.4,0-0.6,0c-0.4,0-0.7,0.1-1,0.1c-0.3,0-0.7,0-1,0h0c-0.3,0-0.6,0-1-0.1
	c-0.3,0-0.7-0.1-1-0.1l-0.2-0.1C49.6,57.9,49.4,57.8,49.2,57.8L49.2,57.8C49.2,57.8,49.2,57.8,49.2,57.8L49.2,57.8z"/>
<path class="st0" d="M13.3,57.9L13.3,57.9c0.1,0,0.1,0,0.2,0h0c0.1,0,0.2,0,0.3-0.1C13.6,57.9,13.4,57.9,13.3,57.9L13.3,57.9z"/>
<path class="st0" d="M64.7,58h-0.1C64.6,58,64.7,58,64.7,58c0.2,0,0.3,0,0.4,0h0.1l0.1,0h-0.1C65,58,64.8,58,64.7,58L64.7,58z"/>
<path class="st0" d="M84,58.4l-0.1,0l-0.3,0c-0.1,0-0.2,0-0.3,0l-0.3,0l-0.3,0h-0.1c0.2,0,0.4,0.1,0.7,0.1l0.4,0l0.2,0l0.3,0l0.3,0
	l0.3,0c0.3,0,0.6,0.1,0.9,0.1c0.4,0,0.8,0,1.2,0.1c0.2,0,0.3,0,0.5,0h0.1c0.1,0,0.3,0,0.4,0h0.1c0.1,0,0.1,0,0.2,0h0.2h0.1h0.1h0.5
	h0.1c0.2,0,0.5,0,0.7,0c0.1,0,0.3,0,0.5,0l0.4,0c0.2,0,0.5,0,0.7,0h0.1c0.2,0,0.5,0,0.7,0.1l0.1,0c0.2,0,0.4,0.1,0.6,0.1
	c0.1,0,0.3,0,0.4,0l0.2,0l0.2,0c0.1,0,0.3,0,0.4,0l0.2,0c0.1,0,0.2,0,0.4,0l0.2,0h0l0.3,0c0.2,0,0.4,0.1,0.6,0.1l0,0
	c0.1,0,0.3,0,0.4,0c0.1,0,0.1,0,0.2,0c0.1,0,0.2,0,0.3,0c0-0.3,0-0.5,0-0.8c-0.7,0-1.4,0-2,0.1h-0.2c-0.3,0-0.5,0-0.8,0h-0.1
	c-0.1,0-0.2,0-0.3,0c-0.2,0-0.5,0-0.7,0c-0.1,0-0.3,0-0.5,0c-0.2,0-0.4,0-0.6,0c-0.4,0-0.7,0-1.1,0h-0.2c-0.1,0-0.3,0-0.4,0l-0.3,0
	l-0.3,0c-0.4,0-0.8,0-1.2,0h-0.1h-0.2c-0.1,0-0.1,0-0.2,0c-0.1,0-0.3,0-0.4,0h-0.1h-0.1c-0.1,0-0.2,0-0.3,0h-0.1l-0.2,0l-0.4,0
	c-0.4,0-0.8,0-1.2,0h-0.1C84.3,58.4,84.1,58.4,84,58.4L84,58.4z"/>
<path class="st0" d="M96.9,62.5c0,0.1,0,0.2,0,0.3c0,0,0,0.1,0,0.1c0,0.1,0,0.2,0,0.3c0,0.1,0,0.1,0,0.2l0,0.1c0,0.1,0,0.2,0,0.3
	c0,0,0,0.1,0,0.1c0,0.1,0,0.2,0,0.2c0,0.1,0,0.1,0,0.2c0,0.2,0,0.3,0,0.5c0,0,0,0.1,0,0.1c0.1,0,0.1,0,0.2,0H97c0-0.1,0-0.2,0-0.3
	l0-0.4C97,63.6,97,63,96.9,62.5C96.9,62.4,96.9,62.5,96.9,62.5L96.9,62.5z"/>
<path class="st0" d="M96.5,49l-0.2,0h-0.1l0,0.1c0,0.2,0,0.4,0,0.6c0,0.1,0,0.2,0,0.4c0,0.3,0,0.5,0,0.9c0,0.6,0,1.2,0,1.8v0.9v0.9
	v0.3c0,0.2,0,0.4,0,0.7c0,0.3,0,0.5,0,0.8v0c0,0.3,0,0.6-0.1,1c0,0.2,0,0.4,0,0.6c0.2,0,0.5,0,0.8,0c0-0.3,0-0.6,0-0.8
	c0-0.7,0-1.4,0-2.1v-0.1c0-0.6,0-1.1,0-1.7v0c0-0.6,0-1.2,0.1-1.8c0-0.2,0-0.3,0.1-0.5c0-0.1,0-0.2,0-0.4v-0.2c0-0.1,0-0.3,0-0.4
	c0-0.2,0-0.5,0-0.7c0-0.1,0-0.1,0-0.2C96.7,49,96.6,49,96.5,49L96.5,49z"/>
<path class="st0" d="M14,55.9L14,55.9c0,0.1,0,0.2,0,0.3l0,0v-0.1C14,56.1,14,56,14,55.9L14,55.9L14,55.9L14,55.9z"/>
<path class="st0" d="M13.3,57.9L13.3,57.9c0.1,0,0.1,0,0.2,0h0c0.1,0,0.2,0,0.3-0.1C13.6,57.9,13.4,57.9,13.3,57.9L13.3,57.9z"/>
<path class="st0" d="M96.6,41.1c-0.2,0.1-0.4,0.2-0.7,0.3c-0.2,0.1-0.4,0.1-0.7,0.2c-0.4,0.1-0.8,0.2-1.1,0.4
	c-0.4,0.1-0.8,0.2-1.2,0.4c-0.2,0.1-0.4,0.1-0.6,0.2c-0.2,0-0.4,0.1-0.7,0.1l-0.2,0c-0.4,0-0.9,0.1-1.3,0.2
	c-0.3,0.1-0.4,0.3-0.3,0.6c0,0.1,0.1,0.1,0.1,0.2c0.1,0.1,0.2,0.1,0.3,0.1c0.5-0.1,1-0.1,1.5-0.2c0.2,0,0.4-0.1,0.7-0.1
	c0.2-0.1,0.4-0.1,0.6-0.2c0.2-0.1,0.4-0.1,0.6-0.2c0.2-0.1,0.4-0.1,0.6-0.2c0.4-0.1,0.7-0.3,1.1-0.4c0.5-0.2,1-0.4,1.4-0.5
	c0.1,0,0.2-0.1,0.2-0.2c0.1-0.1,0.1-0.2,0-0.3c0-0.1-0.1-0.2-0.2-0.2c-0.1,0-0.1-0.1-0.2-0.1C96.6,41.1,96.6,41.1,96.6,41.1
	L96.6,41.1z"/>
<path class="st1" d="M96.7,51.4c-0.1,0.6-0.1,1.2-0.1,1.8v0c0,0.6,0,1.2,0,1.7V55c0,0.7,0,1.4,0,2.1c0,0.3,0,0.6,0,0.8h0.1v0
	c0-0.1,0-0.3,0-0.4c0-0.1,0-0.1,0-0.2c0-0.1,0-0.2,0-0.3l0-0.3c0-0.1,0-0.3,0-0.4c0-0.1,0-0.1,0-0.2c0-0.1,0-0.3,0-0.4
	c0-0.2,0-0.5,0-0.7v-0.1c0-0.2,0-0.3,0-0.5c0-0.1,0-0.1,0-0.2c0-0.1,0-0.2,0-0.3c0-0.1,0-0.3,0-0.4c0-0.2,0-0.5,0-0.7
	C96.8,52.3,96.7,51.9,96.7,51.4c0-0.1,0-0.3,0-0.5C96.8,51.1,96.7,51.2,96.7,51.4L96.7,51.4z"/>
<path class="st0" d="M97.7,40.2l-0.1,0.1l0,0c-0.1,0-0.2,0.1-0.3,0.2c0,0-0.1,0-0.1,0.1c-0.1,0.1-0.2,0.1-0.3,0.2c0,0,0,0,0,0
	c-0.1,0-0.2,0.1-0.3,0.1c-0.2,0.1-0.4,0.1-0.6,0.2c-0.2,0.1-0.4,0.1-0.5,0.2L95,41.6c-0.1,0-0.2,0.1-0.3,0.1
	c-0.3,0.1-0.5,0.2-0.8,0.3c-0.4,0.1-0.7,0.3-1,0.4c-0.3,0.1-0.4,0.5-0.2,0.8c0.1,0.1,0.1,0.1,0.2,0.2c0.1,0.1,0.3,0.1,0.4,0.1
	c0.4-0.1,0.8-0.2,1.1-0.3c0.2,0,0.3-0.1,0.5-0.1c0.2-0.1,0.4-0.1,0.5-0.2c0.1-0.1,0.2-0.1,0.4-0.2s0.2-0.1,0.3-0.1
	c0.3-0.1,0.5-0.3,0.8-0.4c0.1-0.1,0.2-0.1,0.3-0.2c0.1-0.1,0.3-0.2,0.4-0.3c0.1-0.1,0.2-0.2,0.3-0.3c0,0,0.1-0.1,0.1-0.1
	c0-0.1,0.1-0.1,0.1-0.2c0.2-0.1,0.2-0.4,0.1-0.5c-0.1-0.1-0.1-0.2-0.2-0.2c0,0-0.1,0-0.1,0C97.8,40.2,97.8,40.2,97.7,40.2L97.7,40.2
	z"/>
<path class="st0" d="M96.7,41.7c-0.1,0.1-0.2,0.2-0.2,0.4c0,0.1,0,0.3,0,0.5c0,0.1,0,0.3,0,0.5l0,0.3c0,0.2,0,0.4-0.1,0.6
	c0,0.3,0,0.6-0.1,0.9c0,0.3-0.1,0.6-0.1,0.9c0,0.3,0,0.6,0,0.9c0,0.3,0,0.6,0,0.9c0,0.2,0,0.4,0,0.6l0.1,0l0.1,0h0
	c0.1,0,0.2,0,0.3,0c0,0,0,0,0.1,0l0-0.1l0-0.1c0-0.1,0.1-0.1,0.1-0.2c0.1,0,0.1,0,0.2,0c0,0,0.1,0,0.1,0c0.1,0,0.1,0.1,0.2,0.1
	c0-0.1,0-0.1,0-0.2c0-0.2,0-0.4,0-0.7c0-0.2,0-0.4,0-0.7c0-0.4,0.1-0.9,0.1-1.3c0-0.3,0-0.7,0-1c0-0.1,0-0.2,0-0.3
	c0-0.1,0-0.3,0-0.4s0-0.3,0-0.4c0-0.2,0-0.3,0-0.5c0-0.1-0.1-0.3-0.2-0.4c0-0.1-0.1-0.3-0.3-0.3h0c0,0-0.1,0-0.1,0
	C96.9,41.7,96.8,41.7,96.7,41.7L96.7,41.7z"/>
<path class="st0" d="M96.5,49l-0.2,0h-0.1l0,0.1c0,0.2,0,0.4,0,0.6c0,0.1,0,0.2,0,0.4c0,0.3,0,0.5,0,0.9c0,0.6,0,1.2,0,1.8v0.9v0.9
	v0.3c0,0.2,0,0.4,0,0.7c0,0.3,0,0.5,0,0.8v0c0,0.3,0,0.6-0.1,1c0,0.2,0,0.4,0,0.6c0.3,0,0.5,0,0.8,0h0.1v0c0-0.1,0-0.3,0-0.4
	c0-0.1,0-0.1,0-0.2c0-0.1,0-0.2,0-0.3l0-0.3c0-0.1,0-0.3,0-0.4c0-0.1,0-0.1,0-0.2c0-0.1,0-0.3,0-0.4c0-0.2,0-0.5,0-0.7v-0.1
	c0-0.2,0-0.3,0-0.5c0-0.1,0-0.1,0-0.2c0-0.1,0-0.2,0-0.3c0-0.1,0-0.3,0-0.4c0-0.2,0-0.5,0-0.7c0-0.4,0-0.8,0-1.2c0-0.3,0-0.6,0-1
	v-0.2c0-0.1,0-0.3,0-0.4c0-0.2,0-0.5,0-0.7c0-0.1,0-0.1,0-0.2C96.7,48.9,96.6,48.9,96.5,49L96.5,49z"/>
<path class="st0" d="M95.8,58.5c0,0.3,0,0.5,0,0.8c0.1,0,0.3,0,0.4,0c0.1,0,0.1,0,0.2,0c0.1,0,0.2,0,0.4,0c0,0,0.1,0,0.1,0
	c0,0.1,0,0.1,0,0.2v0.1c0,0.1,0,0.3,0,0.4c0,0.1,0,0.2,0,0.3c0,0.1,0,0.3,0.1,0.4c0,0.4,0,0.7,0,1.1c0,0.1,0,0.2,0,0.2s0,0.1,0,0.2
	l0,0.1c0,0.1,0,0.1,0,0.1c0,0.1,0,0.2,0,0.3c0,0,0,0.1,0,0.1c0,0.1,0,0.2,0,0.3c0,0.1,0,0.1,0,0.2l0,0.1c0,0.1,0,0.2,0,0.3
	c0,0,0,0.1,0,0.1c0,0.1,0,0.1,0,0.2c0.2-0.1,0.3-0.2,0.4-0.4c0.1-0.3,0.1-0.7,0.1-1c0-0.1,0-0.3,0-0.4c0-0.2,0-0.3-0.1-0.5
	c0-0.5,0-1.1,0-1.6c0-0.3,0-0.6,0-0.9c0-0.1,0-0.1,0-0.1c0,0-0.1,0-0.1,0c-0.1,0-0.2-0.1-0.3-0.1c-0.1-0.1-0.1-0.2-0.1-0.3
	c0-0.1,0-0.1,0-0.1C96.4,58.5,96.1,58.5,95.8,58.5L95.8,58.5z"/>
<path class="st2" d="M11.9,52.5L11.9,52.5c0-0.1,0-0.2,0.1-0.2l0-0.2V52c0-0.1,0-0.3,0-0.4c0-0.1,0-0.2,0.1-0.4c0,0,0-0.1,0-0.1
	c0-0.1,0-0.1,0.1-0.2c0,0,0-0.1,0.1-0.1l0,0v0c0,0,0-0.1,0.1-0.1c0-0.1,0.1-0.2,0.2-0.4l0.1-0.1l0.1-0.1c0,0,0,0,0,0
	c0-0.1,0.1-0.3,0.2-0.3c0,0,0,0,0.1-0.1l0,0c0,0,0,0,0.1,0c0,0,0,0,0,0c0,0,0,0,0.1,0c0,0,0,0,0,0l0,0c0,0,0.1,0,0.1,0
	c0-0.1,0.1-0.2,0.1-0.3c0.1-0.2,0.1-0.3,0.2-0.4c0-0.1,0.1-0.1,0.1-0.2c0-0.1,0.1-0.2,0.1-0.3c0-0.1,0.1-0.1,0.1-0.2
	s0.1-0.2,0.1-0.3c0.1-0.1,0.2-0.3,0.3-0.4c0.1-0.1,0.2-0.3,0.4-0.4l0.1-0.1l0.1-0.1c0.1-0.1,0.1-0.1,0.2-0.2l0,0
	c0,0,0.1-0.1,0.1-0.2c0.2-0.1,0.3-0.2,0.3-0.4c0-0.2-0.2-0.4-0.4-0.4l-0.4,0l-0.4,0h-0.1c-0.1,0-0.2,0-0.3,0l0,0c-0.1,0-0.2,0-0.3,0
	h-0.4H13c-0.1,0-0.2,0-0.3,0h-0.2c-0.2,0-0.3,0-0.5,0c-0.2,0-0.3,0-0.5,0l-0.3,0c-0.3,0-0.5,0-0.8,0h-0.3H9.9H9.5H9
	c-0.1,0-0.2,0-0.3,0c-0.1,0-0.2,0-0.3,0.1l-0.2,0H8H7.9c0,0-0.1,0-0.1,0h0c-0.3,0-0.6,0.1-0.8,0.1c-0.2,0-0.3,0-0.5,0.1
	c-0.1,0-0.1,0-0.1,0c0,0,0,0-0.1,0c0,0-0.1,0-0.1,0h0l-0.2,0l0.1,0c-0.2,0-0.4,0.1-0.6,0.1c-0.1,0-0.2,0.1-0.3,0.1
	c-0.2,0.1-0.3,0.1-0.4,0.3c-0.1,0-0.1,0.1-0.1,0.1c-0.1,0.1-0.1,0.1-0.1,0.2c-0.1,0.1-0.1,0.1-0.2,0.2c-0.1,0.1-0.1,0.1-0.2,0.2
	c-0.1,0.2-0.3,0.3-0.4,0.5c0,0.1-0.1,0.1-0.1,0.2c-0.1,0.1-0.1,0.2-0.2,0.4s-0.1,0.3-0.2,0.4l0.1-0.1c-0.1,0.4-0.3,0.7-0.4,1.1
	c0,0.1-0.1,0.3-0.1,0.4c0,0.1,0,0.2-0.1,0.3c0,0.1,0,0.1,0,0.1c0,0.1,0,0.1,0,0.2c0,0.1,0,0.2-0.1,0.3c0,0,0,0.1,0,0.1c0,0,0,0,0,0
	c0,0.2-0.1,0.4-0.1,0.6c0,0.1,0,0.2,0,0.3c0,0.1,0,0.2,0,0.4c0,0.1,0,0.2,0,0.4c0,0.3,0,0.5,0.1,0.8l0-0.1c0,0.1,0,0.2,0,0.3l0-0.1
	c0,0.1,0,0.2,0.1,0.4c0,0.3,0.1,0.6,0.1,0.9c0,0,0,0,0,0c0,0.1,0,0.2,0,0.3c0.1,0.3,0.2,0.7,0.3,1c0.1,0.2,0.1,0.4,0.1,0.5
	c0,0.1,0.1,0.3,0.1,0.4c0.1,0.3,0.3,0.7,0.5,1c0.1,0.3,0.3,0.5,0.5,0.8c0.1,0.1,0.1,0.1,0.2,0.2c0.1,0.1,0.1,0.2,0.2,0.2
	C5,59.9,5.2,60,5.5,60.2c0.2,0.1,0.4,0.2,0.6,0.2c0.1,0,0.3,0.1,0.4,0.1c0,0,0.1,0,0.1,0h0c0.1,0,0.2,0.1,0.3,0.1l0.1,0
	c0.3,0.1,0.7,0.1,1,0.1h0l0.4,0c0.2,0,0.4,0,0.6,0l0.2,0c0.2,0,0.5,0,0.7,0h0.5c0.5,0,1,0,1.6,0l0.5,0l0.5,0H13c0.2,0,0.4,0,0.5,0
	c0.2,0,0.3,0,0.4,0h0c0.1,0,0.2,0,0.4,0l0.1,0l0.1,0c0.1,0,0.2,0,0.3,0c0.1,0,0.1-0.1,0.2-0.1c0,0-0.1,0-0.1,0c0,0,0,0-0.1,0l0,0h0
	c-0.1,0-0.1-0.1-0.1-0.1c-0.1,0-0.1-0.1-0.2-0.2l-0.1-0.1c-0.1-0.1-0.1-0.1-0.2-0.2c0-0.1-0.1-0.1-0.1-0.1l0-0.1l-0.1-0.1l0-0.1
	c-0.1-0.1-0.1-0.2-0.2-0.3c0,0,0,0,0-0.1c-0.1-0.1-0.1-0.1-0.1-0.2l-0.1-0.1l-0.1-0.1c-0.1-0.1-0.1-0.1-0.1-0.2l-0.1-0.1
	c-0.1-0.1-0.1-0.2-0.2-0.3c-0.1-0.1-0.1-0.2-0.1-0.3c0-0.1-0.1-0.1-0.1-0.1c0-0.1,0-0.1-0.1-0.1c0,0,0,0,0-0.1c0,0,0.1,0,0.1,0
	c0,0,0,0,0.1,0c0.1,0,0.2,0,0.3,0h0l0,0l0.1,0c0,0,0,0,0,0c0,0,0,0,0,0v0h-0.1h0c-0.2,0-0.3-0.1-0.4-0.3l0,0
	c-0.1-0.1-0.2-0.1-0.2-0.3l0-0.1l0,0l0,0c-0.1-0.1-0.1-0.2-0.1-0.3v0c-0.1-0.1-0.1-0.3-0.2-0.4h0c0,0,0,0,0,0c0-0.1,0-0.1,0-0.2
	s0-0.1,0-0.2V56l0,0l0,0c0-0.1,0-0.1,0-0.2c0-0.1,0-0.2-0.1-0.2c0-0.1,0-0.2,0-0.4c0-0.1,0-0.1,0-0.2l0,0v0c0-0.1,0-0.1,0-0.1v0
	c0,0,0,0,0,0l0,0c0-0.1,0-0.1,0-0.2v0c0,0,0,0,0,0s0,0,0,0c0-0.1,0-0.2-0.1-0.4l0-0.1v0v0c0-0.1,0-0.3,0-0.4c0-0.1,0-0.3,0-0.5
	c0-0.2,0-0.4,0.1-0.6C11.9,52.6,11.9,52.5,11.9,52.5z"/>
<path class="st2" d="M11.4,51c-0.2,0-0.3,0.2-0.2,0.4c0,0,0,0.1,0,0.1c0,0.2,0.2,0.3,0.4,0.2c0.2,0,0.3-0.2,0.2-0.4l0-0.1
	C11.7,51.1,11.6,51,11.4,51C11.4,51,11.4,51,11.4,51L11.4,51z"/>
<path class="st2" d="M11.9,48.8c-0.1,0.1-0.3,0.2-0.3,0.3c-0.1,0.1-0.1,0.2-0.2,0.3c-0.1,0.2-0.1,0.3-0.2,0.5c0,0.2-0.1,0.4-0.1,0.6
	c0,0.2,0,0.4,0,0.6c0,0.2,0,0.4,0,0.7s0,0.4,0,0.7c0,0.5,0.1,1,0.2,1.5c0.1,0.3,0.1,0.7,0.2,1c0.1,0.4,0.1,0.7,0.2,1
	c0.1,0.2,0.1,0.4,0.2,0.6c0.1,0.1,0.1,0.2,0.1,0.3c0.1,0.2,0.2,0.4,0.3,0.6c0.1,0.1,0.1,0.2,0.2,0.3s0.1,0.2,0.1,0.3
	c0.1,0.2,0.1,0.3,0.1,0.5c0.1,0.2,0.3,0.4,0.5,0.3c0,0,0,0,0.1,0c-0.1-0.1-0.1-0.1-0.2-0.2c-0.1-0.1-0.1-0.2-0.1-0.3
	c0-0.1-0.1-0.1-0.1-0.1c0-0.1-0.1-0.1-0.1-0.1c0,0,0,0,0-0.1c0,0,0.1,0,0.1,0c0,0,0,0,0.1,0c0.1,0,0.2,0,0.3,0c0,0,0.1,0,0.1,0
	c0,0,0,0,0,0v0c-0.1,0-0.1,0-0.2,0h0c-0.2,0-0.3-0.1-0.4-0.3l0,0c-0.1-0.1-0.2-0.1-0.2-0.3l0-0.1l0,0l0,0c-0.1-0.1-0.1-0.2-0.1-0.3
	l0,0c-0.1-0.1-0.1-0.3-0.2-0.5c0-0.1-0.1-0.3-0.1-0.4V56c0-0.1,0-0.1,0-0.2c0-0.1,0-0.2-0.1-0.2c0-0.1,0-0.3,0-0.4
	c0-0.1,0-0.1,0-0.2s0-0.1,0-0.1v0c0-0.1,0-0.1,0-0.2v0c0,0,0,0,0-0.1c0-0.1,0-0.2-0.1-0.4l0-0.1v0l0,0c0-0.1,0-0.3,0-0.4
	c0-0.1,0-0.3,0-0.5c0-0.2,0-0.4,0.1-0.6c0-0.1,0-0.1,0-0.2v0c0-0.1,0-0.1,0.1-0.2l0-0.2V52c0-0.1,0-0.3,0-0.4c0-0.1,0-0.2,0.1-0.4
	c0,0,0-0.1,0-0.1c0-0.1,0-0.1,0.1-0.2c0,0,0-0.1,0.1-0.1l0,0v0c0,0,0-0.1,0.1-0.1c0-0.1,0.1-0.2,0.2-0.4l0.1-0.1l0.1-0.1
	c0,0,0,0,0,0c0-0.1,0.1-0.3,0.2-0.3c0.1-0.1,0.2-0.1,0.3-0.1c0-0.4-0.3-0.8-0.7-0.8c0,0,0,0-0.1,0h0C12.1,48.7,12,48.8,11.9,48.8
	L11.9,48.8z M12.6,58.1L12.6,58.1C12.6,58.1,12.6,58.1,12.6,58.1z"/>
<path class="st0" d="M14,55.9L14,55.9c0,0.1,0,0.2,0,0.3l0,0v-0.1C14,56.1,14,56,14,55.9L14,55.9L14,55.9L14,55.9z"/>
<path class="st0" d="M13,57.9c0.1,0,0.2,0,0.3,0l0.1,0h0c0.1,0,0.2,0,0.3-0.1c-0.2,0-0.3,0-0.5,0h0c-0.1,0-0.1,0-0.2-0.1
	C13,57.9,13,57.9,13,57.9L13,57.9z"/>
<path class="st0" d="M15.9,45.7c-0.2,0-0.3,0.1-0.5,0.2c-0.1,0-0.1,0.1-0.2,0.1C15.1,46,15,46.1,15,46.2c0,0-0.1,0.1-0.1,0.1
	s-0.1,0.1-0.1,0.1c-0.1,0.1-0.2,0.2-0.3,0.3c-0.1,0.1-0.2,0.2-0.3,0.3C14.1,47,14,47.1,14,47.1c-0.1,0.1-0.1,0.2-0.2,0.3
	c-0.1,0.1-0.2,0.3-0.3,0.5c-0.1,0.2-0.2,0.3-0.3,0.5c-0.1,0.2-0.2,0.3-0.2,0.5c0,0,0,0,0,0.1c-0.1,0.2-0.2,0.4-0.2,0.6
	c0,0.1,0,0.1-0.1,0.2c0,0,0.1-0.1,0.1-0.1c0.1-0.1,0.2-0.1,0.3-0.1c0.1,0,0.1,0,0.2,0.1l0,0c0.1,0,0.1,0,0.1,0c0.1,0,0.3,0,0.4,0
	h0.1c0,0,0,0,0,0c0.1-0.2,0.1-0.3,0.2-0.5c0.1-0.2,0.2-0.4,0.3-0.7c0.1-0.1,0.1-0.2,0.2-0.3c0.1-0.1,0.1-0.2,0.2-0.3l0.1-0.1l0,0
	c0.1-0.1,0.3-0.3,0.4-0.4c0,0,0.1,0,0.1,0c0.1,0,0.2,0,0.2-0.1c0,0,0.1,0,0.1-0.1c0,0,0.1,0,0.1,0c0.1,0,0.1,0,0.1,0l0,0
	c0.1,0,0.1-0.1,0.2-0.2l0.1-0.1l0.1-0.1l0.1,0c0.1,0,0.2,0,0.3-0.1c0.1,0,0.2-0.1,0.2-0.2c0.1,0,0.1,0,0.2-0.1
	c0.1,0,0.1-0.1,0.1-0.2c0-0.1,0-0.1-0.1-0.2c-0.1,0-0.1-0.1-0.2-0.1c-0.1,0-0.1,0-0.2,0c-0.1,0-0.2,0-0.3,0
	c-0.1-0.1-0.2-0.1-0.4-0.1h0C16,45.7,15.9,45.7,15.9,45.7L15.9,45.7z M15.5,45.9L15.5,45.9L15.5,45.9z M12.9,49.1L12.9,49.1
	L12.9,49.1z"/>
<path class="st0" d="M12.7,57.6c0.1,0.1,0.1,0.3,0.2,0.4v0c0,0,0.1,0,0.1,0c0,0,0,0,0.1,0c0.1,0,0.2,0,0.3,0l0.1,0h0
	c0.1,0,0.2,0,0.3-0.1c-0.2,0-0.3,0-0.5,0h0c-0.2,0-0.3-0.1-0.4-0.3l0,0c-0.1-0.1-0.2-0.1-0.2-0.3l0,0C12.6,57.4,12.6,57.5,12.7,57.6
	L12.7,57.6z"/>
<path class="st3" d="M42.2,54.1L42.2,54.1c0.2,0.1,0.4,0.2,0.6,0.3c0.2,0.1,0.4,0.1,0.7,0.2l0.1,0l-0.1,0l0,0l0,0l-0.2-0.1
	c-0.2-0.1-0.4-0.1-0.5-0.2l-0.2-0.1c-0.1-0.1-0.3-0.1-0.5-0.3l-0.1-0.1l0,0h0c0,0-0.1-0.1-0.1-0.1C41.8,53.9,42,54,42.2,54.1
	L42.2,54.1z"/>
<path class="st3" d="M13.5,57.1c-0.1,0-0.1,0-0.2,0c-0.1,0-0.3,0-0.4,0c-0.2,0-0.4,0.1-0.4,0.4c0,0.2,0.1,0.4,0.4,0.4c0,0,0,0,0,0
	H13l0,0c0.1,0,0.2,0,0.3,0l0.1,0h0c0.1,0,0.2,0,0.3-0.1l0,0c0,0,0.1,0,0.1,0c0.1-0.1,0.2-0.2,0.2-0.3c0-0.2-0.1-0.3-0.3-0.4
	C13.6,57.1,13.6,57.1,13.5,57.1L13.5,57.1z"/>
<path class="st3" d="M12.8,54.6c-0.1,0-0.2,0-0.3,0.1c-0.1,0.1-0.2,0.2-0.3,0.3c0,0-0.1,0.1-0.1,0.1C12,55.2,12,55.3,12,55.5
	c0,0.1,0,0.2,0.1,0.3c0,0.1,0,0.2,0,0.2c0,0.1,0,0.2,0,0.3c0,0,0,0.1,0,0.1s0,0.1,0,0.1l0,0c0,0.1,0,0.1,0,0.1c0,0.1,0,0.2,0,0.2
	c0,0.1,0,0.1,0.1,0.1c0,0,0,0.1,0,0.1c0,0.1,0.1,0.2,0.1,0.3c0.1,0.2,0.2,0.3,0.5,0.3l0,0c0,0,0.1,0,0.1,0c0,0,0,0,0.1,0l0,0
	c0.2-0.1,0.3-0.3,0.2-0.5c0-0.1-0.1-0.2-0.1-0.3c0-0.1,0-0.2,0-0.3c0-0.1,0-0.1,0-0.2c0-0.1,0-0.2,0-0.3c0,0,0-0.1,0-0.1l0,0
	c0.1,0.1,0.2,0.1,0.2,0.1c0.1,0.1,0.2,0.1,0.3,0.2c0.1,0,0.2,0.1,0.2,0.1c0.1,0,0.2,0.1,0.4,0.1c0.2,0,0.4,0,0.6-0.1
	c0.1-0.1,0.2-0.2,0.3-0.3c0.1-0.1,0.1-0.2,0.1-0.3c0,0,0,0,0,0c0-0.1,0-0.2,0-0.3c0-0.2-0.2-0.3-0.3-0.3c-0.1,0-0.2,0-0.2,0l0,0
	c-0.1,0-0.3,0-0.4,0c-0.1,0-0.1,0-0.2,0c-0.1-0.1-0.3-0.1-0.4-0.2c-0.1-0.1-0.1-0.1-0.1-0.1l-0.1-0.1c-0.1-0.1-0.1-0.1-0.2-0.1
	c-0.1,0-0.1-0.1-0.2-0.1C12.9,54.5,12.8,54.5,12.8,54.6L12.8,54.6z"/>
<path class="st3" d="M13,49.3c-0.1,0-0.2,0.1-0.2,0.1c0,0-0.1,0.1-0.1,0.1c0,0.1-0.1,0.1-0.1,0.2l0,0l0,0c0,0.1-0.1,0.1-0.1,0.2
	c0,0,0,0,0,0.1c0,0.1,0,0.2,0,0.2c0,0.1,0.1,0.2,0.2,0.2c0,0,0,0.1,0.1,0.1c0,0,0.1,0.1,0.1,0.1c0.1,0,0.1,0.1,0.2,0.1
	c0.1,0,0.1,0,0.2,0c0.1,0,0.1,0,0.1-0.1c0.1,0,0.1-0.1,0.2-0.1c0.1,0,0.1,0,0.2-0.1c0.2,0,0.4,0,0.6,0c0,0.1,0.1,0.1,0.1,0.2l0,0
	c0,0-0.1,0.1-0.1,0.1c0,0.1,0,0.2,0.1,0.3c0,0,0.1,0,0.1,0c0.1,0,0.1,0,0.2,0l0.1,0c0.1,0,0.1,0,0.2,0l0.1,0c0.2,0,0.4,0,0.7,0
	c0.1,0,0.2-0.1,0.2-0.2s-0.1-0.2-0.2-0.2c0,0,0,0,0,0h0c0,0,0.1,0,0.1-0.1c0.1,0,0.3,0,0.4,0.1c0.1,0,0.2,0,0.3,0
	c0.2,0,0.5,0,0.7,0.1c0.1,0,0.2,0,0.3,0.1l0.3,0c0.1,0,0.2,0,0.3,0c0.1,0,0.3,0,0.4,0c0.3,0,0.5-0.2,0.5-0.5c0-0.1,0-0.2-0.1-0.2
	c-0.1-0.1-0.2-0.2-0.3-0.2c-0.3-0.1-0.7-0.1-1-0.1c-0.1,0-0.3-0.1-0.4-0.1c-0.2,0-0.4-0.1-0.6-0.1c-0.1,0-0.3,0-0.4,0
	c-0.1,0-0.3,0-0.4,0c-0.1,0-0.2,0-0.3,0s-0.2,0-0.3,0c-0.1,0-0.2,0-0.3,0c-0.1,0-0.2,0-0.3,0c-0.2,0-0.4,0-0.5,0c-0.1,0-0.2,0-0.3,0
	s-0.2,0-0.3,0l-0.2,0l0.1,0c-0.1,0-0.2,0-0.4-0.1c-0.1,0-0.1,0-0.2,0c-0.1,0-0.1,0-0.2,0C13.1,49.3,13.1,49.3,13,49.3z"/>
<path class="st3" d="M13.1,50.3c-0.1,0.3-0.1,0.6-0.2,0.9c0,0.1,0,0.2,0,0.2c0,0.1,0.1,0.1,0.2,0.1c0.1,0,0.2,0,0.2,0
	c0.1,0,0.1-0.1,0.1-0.2c0.1-0.3,0.1-0.6,0.2-0.9c0-0.2-0.1-0.3-0.2-0.4c0,0-0.1,0-0.1,0C13.3,50.1,13.1,50.2,13.1,50.3L13.1,50.3z"
	/>
<path class="st3" d="M12.9,49.7c-0.1,0.1-0.1,0.1-0.2,0.2c-0.1,0.1-0.2,0.3-0.2,0.4c-0.1,0.2,0.1,0.4,0.2,0.4c0.1,0,0.1,0,0.2,0
	c0.1,0,0.2-0.1,0.2-0.1c0-0.1,0.1-0.1,0.1-0.2l0.1-0.1l0,0c0.1-0.1,0.1-0.1,0.2-0.2c0.1-0.2-0.1-0.4-0.2-0.4c0,0-0.1,0-0.1,0
	C13,49.6,13,49.6,12.9,49.7L12.9,49.7z"/>
<path class="st3" d="M12.7,49.5c-0.2,0.1-0.3,0.3-0.4,0.5c-0.1,0.1-0.1,0.3-0.2,0.5c0,0.1,0,0.2-0.1,0.3c0,0.1-0.1,0.2-0.1,0.3
	s0,0.2-0.1,0.3c0,0.1,0,0.2-0.1,0.3c0,0.1-0.1,0.2-0.1,0.3c0,0.1,0,0.3-0.1,0.5c0,0.1,0,0.2,0,0.3c0,0.1,0,0.1,0,0.2
	c-0.1,0.2-0.1,0.4-0.1,0.6c0,0.2,0,0.4,0.1,0.6v0c0,0.1,0,0.2,0,0.3s0,0.2,0,0.3c0,0.1,0,0.3,0,0.4c0,0.2,0.1,0.3,0.1,0.5
	c0-0.1,0-0.1,0-0.1c0,0.3,0.1,0.5,0.1,0.8c0,0.1,0,0.2,0.1,0.3s0,0.2,0.1,0.3s0.1,0.1,0.1,0.2c0,0.1,0,0.1,0.1,0.2
	c0,0.1,0.1,0.2,0.1,0.3c0,0.1,0.1,0.1,0.2,0.2l0,0c0,0.1,0.1,0.1,0.1,0.1c0.2,0.1,0.5,0.1,0.6-0.1c0.1-0.1,0.1-0.2,0-0.3
	c0,0,0-0.1,0-0.1c0,0,0-0.1,0-0.1c0-0.3-0.1-0.5-0.2-0.8c0,0,0-0.1,0-0.1c0-0.1,0-0.3-0.1-0.4c0-0.1,0-0.2,0-0.3c0-0.1,0-0.3,0-0.4
	l0-0.2c0,0,0,0.1,0,0.1c0-0.1,0-0.2,0-0.2c0-0.1,0-0.2,0-0.3s0-0.2,0-0.3s0-0.2,0-0.3c0-0.2,0-0.4,0-0.7s0-0.4,0-0.6
	c0-0.1,0-0.2,0-0.3s0-0.2,0-0.3c0-0.1,0-0.1,0-0.2s0-0.2,0-0.3l0,0.1c0-0.1,0-0.2,0-0.3l0-0.1c0-0.2,0.1-0.3,0.1-0.5
	c0-0.1,0.1-0.3,0.1-0.4l0,0c0,0,0-0.1,0.1-0.1c0.1-0.1,0.1-0.1,0.2-0.2c0.1-0.2,0.1-0.4,0-0.6c-0.1-0.1-0.2-0.1-0.3-0.1
	C12.9,49.4,12.8,49.4,12.7,49.5L12.7,49.5z M12.9,56.1L12.9,56.1L12.9,56.1z"/>
<g>
	<path class="st3" d="M49,57.7c-0.1,0-0.1,0-0.2,0c-0.3,0-0.6-0.1-0.9-0.1c-0.2,0-0.3-0.1-0.5-0.1c-0.5-0.1-0.9-0.2-1.3-0.3
		c-0.4-0.1-0.8-0.2-1.2-0.3c-0.4-0.1-0.8-0.2-1.2-0.4c-0.1,0-0.1-0.1-0.2-0.1c-0.2-0.1-0.4-0.1-0.6-0.2l-0.1-0.1
		c-0.2,0-0.3-0.1-0.5-0.1c-0.3-0.1-0.6-0.2-0.9-0.4c-0.3-0.2-0.6-0.4-0.9-0.6c-0.1-0.1-0.2-0.2-0.3-0.3c-0.1-0.1-0.2-0.3-0.3-0.4
		c-0.2-0.3-0.2-0.7-0.2-1c0-0.2,0-0.4,0.1-0.5c0-0.1,0-0.2,0.1-0.2c0,0,0-0.1,0-0.1c0.1-0.2,0.1-0.3,0.2-0.5
		c0.1-0.1,0.2-0.3,0.3-0.4c0.1-0.2,0.3-0.3,0.5-0.4l0,0l0.1-0.1c0.2-0.1,0.3-0.3,0.5-0.4c0.1-0.1,0.3-0.2,0.4-0.3l0,0
		c0.2-0.1,0.4-0.2,0.5-0.3s0.4-0.2,0.6-0.3c0.5-0.2,1-0.4,1.6-0.5l0.1,0l0,0c0.2-0.1,0.4-0.1,0.6-0.1c-0.1-0.1-0.1-0.1-0.2-0.1
		c0,0-0.1,0-0.1,0h0c-0.1,0-0.1,0-0.2,0c-0.1,0-0.2,0-0.3,0l-0.1,0c-0.2,0-0.5,0-0.8,0c-0.1,0-0.3,0-0.4,0s-0.3,0-0.4,0
		c-0.3,0-0.6,0.1-0.8,0.1h0h0h0h-0.1c-0.2,0-0.4,0-0.6,0l-0.2,0h0l-0.3,0l-0.1,0l-0.4,0h-0.1c-0.3,0-0.6,0.1-0.9,0.1
		c-0.6,0-1.1,0-1.7,0h-0.3l-2.6,0l-1.5,0l-0.7,0h-0.3h-0.2h-0.3c-0.1,0-0.3,0-0.4,0h-0.1c-0.3,0-0.7,0-1,0c-0.2,0-0.3,0-0.5,0h-0.5
		c-0.4,0-0.7,0-1,0.1l-0.2,0l-0.1,0l-0.1,0l-0.1,0c-0.4,0-1,0-1.5,0c-0.2,0-0.4,0-0.7,0c-0.1,0-0.3,0-0.4,0c-0.2,0-0.4,0-0.6,0h-1
		h-1.4h-0.1c-1.3,0-2.6,0-3.9,0c-0.4,0-0.7,0-1,0c-0.3,0-0.6,0.1-1,0.1h0c-0.2,0-0.3,0-0.5,0h-0.1h-0.1h-0.1h0c-0.1,0-0.2,0-0.3,0
		c-0.1,0-0.3,0-0.5,0c-0.1,0-0.1,0-0.2,0c-0.1-0.1-0.1-0.1-0.2-0.1l-0.1,0c-0.1,0-0.3,0-0.4,0c-0.1,0-0.1,0-0.1,0l0,0
		c-0.1,0-0.1-0.1-0.2-0.1c-0.1,0-0.2,0.1-0.3,0.1c-0.1,0.1-0.2,0.2-0.2,0.3c0,0,0,0,0,0l-0.1,0.1l-0.1,0.1c-0.1,0.1-0.1,0.2-0.2,0.4
		c0,0,0,0.1-0.1,0.1v0l0,0c0,0,0,0.1-0.1,0.1c0,0.1,0,0.1-0.1,0.2c0,0,0,0.1,0,0.1c0,0.1-0.1,0.2-0.1,0.4c0,0.1,0,0.3,0,0.4V52
		l0,0.2c0,0.1,0,0.1-0.1,0.2v0c0,0.1,0,0.1,0,0.2c0,0.2-0.1,0.4-0.1,0.6c0,0.1,0,0.3,0,0.5c0,0.1,0,0.3,0,0.4v0v0l0,0.1
		c0,0.1,0,0.2,0.1,0.4c0,0,0,0,0,0.1v0c0,0.1,0,0.1,0,0.2v0c0,0.1,0,0.1,0,0.1s0,0.1,0,0.2c0,0.1,0,0.2,0,0.4c0,0.1,0,0.2,0.1,0.2
		c0,0.1,0,0.1,0,0.2V56c0,0.1,0,0.3,0.1,0.4c0,0.2,0.1,0.3,0.2,0.5l0,0c0,0.1,0.1,0.2,0.1,0.3l0,0l0,0l0,0.1
		c0.1,0.1,0.1,0.2,0.2,0.3l0,0c0,0.2,0.2,0.3,0.4,0.3h0c0.2,0,0.4,0,0.5,0h0h0c0.1,0,0.2,0,0.4,0h0.2h0.2h0.2c0.2,0,0.4,0,0.5,0
		c0.4,0,0.7,0,1.1-0.1c0.4,0,0.8-0.1,1.1-0.1c0.4,0,0.8,0,1.1,0c0.1,0,0.2,0,0.3,0h0.1h0h0h0.1c0.1,0,0.3,0,0.4,0h0.2
		c0.7,0,1.5,0,2.2,0.1l0.2,0h0.1h0.1h0.1c0.1,0,0.1,0,0.1,0h0.1c0.1,0,0.3,0,0.4,0c0.1,0,0.3,0,0.5,0c0.2,0,0.4,0,0.7,0.1l0.4,0
		l0.1,0c0.2,0,0.4,0,0.6,0l0.4,0l0.7,0.1c0.1,0,0.2,0,0.4,0l0.2,0l0.2,0h0c0.1,0,0.2,0,0.3,0c0.2,0,0.5,0,0.7,0h0.2h0.2
		c0.4,0,0.8,0,1.2,0.1c0.2,0,0.5,0,0.7,0h0.8c0.6,0,1.3,0,1.9,0c0.2,0,0.4,0,0.6,0c0.2,0,0.3,0,0.5,0c0.2,0,0.5,0,0.7,0h0.4l1,0h0.1
		l1.1,0H38c0.7,0,1.4,0,2.2-0.1c0.2,0,0.4,0,0.6,0c0.1,0,0.2,0,0.4,0h0.2c0.4,0,0.8,0,1.1,0l0.7,0h0.2c0.5,0,1,0,1.5,0H45
		c0.3,0,0.5,0,0.7,0c0.1,0,0.3,0,0.4,0l0.1,0c0.1,0,0.3,0,0.4,0h0.1h0.1h0.1c0.1,0,0.1,0,0.2,0c0.1,0,0.2,0,0.3,0s0.2,0,0.3,0h0
		c0.2,0,0.4,0,0.6,0c0.2,0,0.4,0,0.6,0.1c0,0,0.1,0,0.1,0c0.1,0,0.1,0,0.2,0l0,0c0,0,0.1-0.1,0.1-0.1c0,0,0,0,0-0.1L49,57.7z
		 M14,56.2L14,56.2c0-0.1,0-0.1,0-0.2l0,0v-0.1l0,0.1C14,56,14,56.1,14,56.2L14,56.2z"/>
	<path class="st3" d="M97.7,54c0-0.1,0-0.3,0-0.4c0-0.2,0-0.5-0.1-0.7c0-0.1,0-0.3,0-0.4c0-0.2-0.1-0.4-0.1-0.7c0-0.3,0-0.6,0-0.9
		c0-0.1,0-0.2,0-0.4c0-0.2,0-0.4,0-0.7l0-0.5c0-0.2,0-0.4,0-0.6v-0.1c0-0.1,0-0.1,0-0.1c0,0,0,0,0,0c0,0,0,0,0,0c0-0.1,0-0.2,0-0.2
		l0-0.1l0-0.1c0-0.1,0-0.2,0-0.2c0-0.1-0.1-0.1-0.2-0.1c0,0-0.1,0-0.1,0c-0.1,0-0.1,0-0.2,0l0,0c-0.1,0-0.1,0.1-0.1,0.2l0,0.1l0,0.1
		c0,0,0,0-0.1,0c-0.1,0-0.2,0-0.3,0h0l-0.1,0c-0.1,0-0.3,0-0.4,0c-0.4,0-0.8,0-1.2,0l-0.2,0c-0.1,0-0.2,0-0.3,0c-0.1,0-0.2,0-0.4,0
		h-0.3c-0.4,0-0.7,0-1.1,0c-0.2,0-0.4,0-0.6,0c-0.2,0-0.4,0-0.6,0c-0.2,0-0.4,0-0.6,0c-0.1,0-0.2,0-0.3,0c-0.1,0-0.2,0-0.3,0l-0.1,0
		c-0.1,0-0.3,0-0.4,0h-0.2l-0.4,0c-0.3,0-0.6,0-0.9-0.1l-0.3,0c-0.4,0-0.7,0-1.1-0.1l-0.3,0l-0.3,0c-0.1,0-0.2,0-0.3,0h-0.3
		c-0.4,0-0.7,0-1.1,0.1l-0.1,0c-0.1,0-0.3,0-0.5,0.1s-0.3,0-0.4,0h-0.1h-0.4c-0.6,0-1.3,0-1.9,0.1c-0.1,0-0.2,0-0.4,0h-0.1l-0.6,0
		c-0.1,0-0.3,0-0.4,0c-0.2,0-0.5,0-0.7,0h-0.3c-0.3,0-0.6,0-0.9,0c-0.2,0-0.4,0-0.6,0c-0.2,0-0.4,0-0.5,0l-0.4,0l-0.2,0
		c-0.1,0-0.2,0-0.3,0h-0.3h-0.2c-0.2,0-0.5,0-0.7,0h-0.2c-0.4,0-0.8,0-1.2,0c-0.4,0-0.8,0-1.1,0c-0.2,0-0.3,0-0.5,0h0h-0.4h-0.2
		c-0.4,0-0.8,0-1.1,0c-0.2,0-0.4,0-0.5,0h-0.6c-0.2,0-0.4,0-0.6,0l-0.2,0c-0.1,0-0.2,0-0.4,0c-0.4,0-0.7,0-1.1,0h-0.2h-0.2h-0.1
		h-0.3H65h-0.3c-0.7,0-1.4,0-2,0c-0.3,0-0.7,0-1.2,0.1c-0.1,0-0.3,0-0.5,0c-0.2,0-0.4,0.1-0.7,0.1h-0.1c0.1,0,0.3,0,0.5,0.1l0.3,0.1
		c0.3,0,0.6,0.1,0.9,0.1c0.4,0,0.8,0.1,1.1,0.1l0.3,0l0.2,0l0.1,0c0.1,0,0.2,0,0.3,0.1c0.1,0,0.3,0.1,0.4,0.1l0.1,0l0.2,0
		c0.1,0,0.2,0.1,0.3,0.1c0.3,0.1,0.6,0.2,0.9,0.3l0.1,0c0.3,0.1,0.7,0.3,1,0.4c0.1,0.1,0.2,0.1,0.3,0.1c0.2,0.1,0.3,0.2,0.5,0.3
		l0.1,0.1c0.1,0,0.1,0.1,0.2,0.1s0.2,0.1,0.2,0.2l0,0c0.1,0.1,0.2,0.1,0.2,0.1c0.1,0.1,0.2,0.1,0.3,0.2l0.1,0.1
		c0.1,0,0.1,0.1,0.2,0.1c0.1,0.1,0.1,0.1,0.2,0.2c0,0.1,0.1,0.1,0.1,0.2l0,0l0,0.1c0,0,0.1,0,0.1,0.1c0.1,0.1,0.1,0.2,0.1,0.3v0.1
		c0,0.1,0,0.2,0,0.3c0,0.1,0,0.1,0,0.2c0,0.1,0,0.1,0,0.2l0,0.1c0,0.1,0.1,0.2,0.1,0.3c0,0,0,0.1,0,0.1c0,0,0,0,0,0.1
		c0,0.1-0.1,0.1-0.1,0.2c0,0.1-0.1,0.3-0.2,0.4c-0.1,0.1-0.1,0.2-0.2,0.3c0,0.1,0,0.1-0.1,0.2l0,0c0,0.1-0.1,0.2-0.1,0.3
		c-0.1,0.1-0.2,0.2-0.3,0.3c-0.2,0.2-0.3,0.3-0.5,0.5c-0.1,0.1-0.3,0.2-0.4,0.2c-0.1,0-0.1,0.1-0.2,0.1c-0.2,0.1-0.4,0.2-0.7,0.3
		c-0.6,0.3-1.2,0.4-1.8,0.6c-0.3,0.1-0.6,0.1-0.8,0.2c-0.3,0.1-0.5,0.1-0.8,0.2c-0.2,0.1-0.5,0.2-0.8,0.2l-0.1,0
		c-0.1,0-0.2,0.1-0.3,0.1l-0.2,0c-0.1,0-0.2,0-0.3,0.1l-0.2,0c-0.2,0-0.4,0.1-0.6,0.1c-0.3,0.1-0.6,0.1-0.9,0.1l-0.1,0
		c0,0-0.1,0-0.1,0h0.3h0.2h0h0.6c0.3,0,0.6,0,0.9,0H63c0.1,0,0.1,0,0.2,0h0.1h0l0.1,0c0.1,0,0.2,0,0.3,0h0.3c0.1,0,0.2,0,0.4,0
		c0.1,0,0.2,0,0.2,0h0.1h0.1c0.1,0,0.3,0,0.4,0h0.1h0.4H66c0.4,0,0.7,0,1.1,0c0.3,0,0.6,0,0.9,0.1h0l0.3,0c0.1,0,0.2,0,0.3,0l0.3,0
		c0.2,0,0.4,0,0.5,0h0.1c0.4,0,0.7,0,1.1,0c0.2,0,0.3,0,0.6,0c0.2,0,0.4,0,0.5,0h0.1c0.4,0,0.8,0,1.2,0c0.2,0,0.4,0,0.6,0
		c0.1,0,0.1,0,0.2,0h0.1c0.1,0,0.2,0,0.3,0l0.1,0c0.1,0,0.3,0,0.4,0h0.1c0.2,0,0.3,0,0.5,0l0.3,0h0.1l0.2,0c0.2,0,0.4,0,0.5,0
		c0.7,0,1.3,0,1.9,0h0.4c0.4,0,0.8,0,1.2,0c0.2,0,0.4,0,0.7,0h0.2H81c0.4,0,0.8,0,1.2,0h0.3h0.2h0h0.1l0.3,0l0.3,0
		c0.1,0,0.2,0,0.3,0l0.3,0l0.1,0c0.1,0,0.3,0,0.4,0h0c0.4,0,0.8,0,1.2,0l0.4,0l0.2,0h0.1c0.1,0,0.2,0,0.3,0h0.1H87
		c0.1,0,0.3,0,0.4,0c0.1,0,0.1,0,0.2,0h0.2h0.1c0.4,0,0.8,0,1.2,0l0.3,0l0.3,0c0.1,0,0.3,0,0.4,0h0.2c0.4,0,0.7,0,1.1,0
		c0.2,0,0.4,0,0.6,0c0.1,0,0.3,0,0.5,0c0.2,0,0.5,0,0.7,0c0.1,0,0.2,0,0.3,0h0.2c0.3,0,0.5,0,0.8,0h0.2c0.6,0,1.4-0.1,2.1-0.1
		c0,0.1,0,0.1,0,0.1c0,0.1,0,0.2,0.1,0.3s0.2,0.1,0.3,0.1s0.2,0,0.3-0.1l0-0.1l0,0c0-0.1,0.1-0.1,0.1-0.2c0-0.1,0-0.3,0-0.4
		c0-0.1,0-0.1,0-0.2c0-0.2,0-0.4,0-0.5c0-0.3,0.1-0.7,0.1-1.1c0-0.1,0-0.3,0-0.5c0-0.2,0-0.5,0-0.7C97.8,54.7,97.7,54.4,97.7,54z
		 M96.8,49.1c0,0.2,0,0.5,0,0.7c0,0.1,0,0.3,0,0.4v0.2c0,0.3,0,0.6,0,1c0,0.4,0,0.8,0,1.2c0,0.2,0,0.5,0,0.7c0,0.1,0,0.3,0,0.4
		c0,0.1,0,0.2,0,0.3c0,0.1,0,0.2,0,0.2c0,0.2,0,0.3,0,0.5V55c0,0.2,0,0.5,0,0.7c0,0.1,0,0.3,0,0.4c0,0.1,0,0.1,0,0.2
		c0,0.1,0,0.3,0,0.4l0,0.3c0,0.1,0,0.2,0,0.3c0,0.1,0,0.1,0,0.2c0,0.1,0,0.3,0,0.4v0h-0.1c-0.3,0-0.5,0-0.8,0l0,0c0-0.2,0-0.4,0-0.6
		c0-0.3,0-0.7,0.1-1v0c0-0.3,0-0.5,0-0.8c0-0.2,0-0.4,0-0.7v-0.3v-0.9v-0.9c0-0.7,0-1.3,0-1.8c0-0.3,0-0.6,0-0.9c0-0.1,0-0.2,0-0.4
		c0-0.2,0-0.4,0-0.6l0-0.1h0.1l0.2,0c0.1,0,0.2,0,0.3,0C96.8,49,96.8,49.1,96.8,49.1z"/>
</g>
<path class="st3" d="M95.9,49.8c0,0.8,0.1,1.6,0.1,2.4c0,0.1,0,0.2,0.1,0.2c0.1,0.1,0.3,0.1,0.4,0c0.1-0.1,0.1-0.1,0.1-0.2
	c0-0.4,0-0.8,0-1.2c0-0.4,0-0.8-0.1-1.2c0-0.2-0.1-0.3-0.3-0.3S95.9,49.6,95.9,49.8L95.9,49.8z"/>
<path class="st3" d="M96.3,48.8c-0.2,0.1-0.3,0.3-0.4,0.5c0,0.2-0.1,0.3-0.1,0.5s0,0.3-0.1,0.5c-0.1,0.4-0.1,0.8-0.2,1.2
	c0,0.1,0,0.1,0,0.1c0,0,0,0.1,0,0.1c-0.1,0.4-0.2,0.9-0.3,1.3c-0.1,0.3-0.1,0.6-0.2,0.9c0,0.2-0.1,0.5-0.1,0.7
	c-0.1,0.5-0.1,1-0.1,1.5c0,0.1,0,0.2,0,0.3c0,0.1,0.1,0.3,0.2,0.3c0.1,0.1,0.3,0.1,0.4,0.1l0.1,0l0,0c-0.1,0.1-0.2,0.3-0.2,0.4
	c0,0.1,0,0.2,0.1,0.3c0,0.1,0.1,0.1,0.1,0.2c0,0.1,0.1,0.1,0.1,0.2c0,0.1,0.1,0.1,0.2,0.1c0.1,0.1,0.2,0.1,0.4,0.1
	c0.1,0,0.3,0,0.4-0.1c0,0,0.1-0.1,0.1-0.1c0.2-0.1,0.4-0.3,0.4-0.5c0-0.2,0-0.5,0-0.7c0-0.4,0-0.9-0.1-1.3c-0.1-0.9-0.2-1.9-0.2-2.8
	c0-0.1,0-0.1,0-0.2l0,0c0,0,0-0.1,0-0.1c0-0.1,0-0.3-0.1-0.4c0,0,0-0.1-0.1-0.1c0-0.2,0.1-0.4,0.1-0.6c0-0.1,0-0.2,0-0.3
	c0.1-0.3,0.1-0.5,0.2-0.8c0-0.1,0-0.3,0-0.4c0-0.1,0-0.1,0-0.2s0-0.1,0-0.2c0-0.1,0-0.1-0.1-0.2c0,0,0-0.1-0.1-0.1c0,0,0,0,0-0.1
	c-0.1-0.2-0.3-0.3-0.4-0.3C96.4,48.8,96.3,48.8,96.3,48.8L96.3,48.8z"/>
<path class="st3" d="M96.4,48.5c-0.4,0-0.7,0.1-1.1,0.1c-0.3,0-0.7,0.1-1,0.1c-0.2,0-0.3,0.2-0.2,0.4c0,0.1,0.2,0.3,0.3,0.3
	c0.3,0,0.6-0.1,0.9-0.1c0.4,0,0.7-0.1,1.1-0.1c0.1,0,0.2,0,0.2-0.1c0.1-0.1,0.1-0.2,0.1-0.3C96.8,48.7,96.6,48.5,96.4,48.5
	L96.4,48.5z"/>
<path class="st3" d="M96.9,47.9c-0.2,0-0.4,0.1-0.6,0.1s-0.4,0.1-0.5,0.1c-0.1,0-0.1,0.1-0.1,0.2c0,0,0,0.1,0.1,0.1c0,0,0.1,0,0.1,0
	c0.2,0,0.5-0.1,0.7-0.1l0.3,0c0.1,0,0.1,0,0.1-0.1c0.1-0.1,0.1-0.2,0-0.3l0,0C97,47.9,97,47.9,96.9,47.9L96.9,47.9L96.9,47.9z"/>
<path class="st3" d="M96.9,47.6c-0.1,0-0.3,0-0.4,0.1c-0.1,0-0.2,0-0.3,0c-0.1,0-0.2,0-0.4,0.1c-0.2,0-0.3,0-0.5,0
	c-0.2,0-0.4,0-0.7,0c-0.1,0-0.2,0-0.3,0c-0.1,0-0.2,0-0.3,0c-0.2,0-0.4,0-0.6,0c-0.2,0-0.4,0-0.7,0c-0.2,0-0.4,0-0.6,0
	c-0.4,0-0.7,0-1.1,0h-0.3c-0.1,0-0.2,0-0.3,0l0,0l-0.1,0c-0.2,0-0.4,0-0.6,0.1c-0.2,0-0.5,0.1-0.7,0.1c-0.1,0-0.2,0-0.3,0.1
	c-0.1,0-0.3,0.1-0.4,0.1c-0.3,0.1-0.5,0.1-0.8,0.2c-0.1,0-0.1,0.1-0.2,0.1c-0.1,0.1-0.1,0.2-0.1,0.3c0,0.2,0.2,0.4,0.4,0.4
	c0.4,0,0.7-0.1,1.1-0.1c0.1,0,0.2,0,0.3,0s0.2,0,0.3,0c0.1,0,0.3,0,0.4,0c0.2,0,0.3,0,0.5,0c0.2,0,0.3,0,0.5,0c0.4,0,0.7,0,1.1,0
	c0.2,0,0.4,0,0.6,0c0.1,0,0.2,0,0.3,0c0.1,0,0.2,0,0.3,0c0.2,0,0.4,0,0.6-0.1l0.3,0c0.1,0,0.2,0,0.3,0c0.1,0,0.2,0,0.4-0.1
	c0.2,0,0.4,0,0.6,0c0.2,0,0.4-0.1,0.6-0.1c0.1,0,0.2,0,0.3,0c0.1,0,0.2,0,0.3-0.1c0.2,0,0.3-0.1,0.5-0.1h0c0.1,0,0.2,0,0.2-0.1
	c0.1-0.1,0.1-0.4,0-0.5C97.1,47.6,97,47.6,96.9,47.6L96.9,47.6z"/>
<path class="st3" d="M84.8,57.5c-0.1,0.2,0.1,0.4,0.3,0.5c0.2,0.1,0.4,0.1,0.7,0.1c0.2,0,0.4,0.1,0.6,0.1c0.2,0,0.4,0.1,0.7,0.1
	c0.2,0,0.4,0,0.6,0.1c0.3,0,0.5,0.1,0.8,0.1h0l0.1,0l0,0l0.3,0l0.3,0c0.2,0,0.4,0.1,0.7,0.1c0.2,0,0.4,0,0.6,0.1
	c0.4,0.1,0.8,0.1,1.2,0.1c0.2,0,0.4,0,0.6,0s0.4,0,0.6,0c0.4,0,0.7,0,1.1,0c0.3,0,0.6,0,0.9,0c0.3,0,0.6,0,0.8,0l0.8,0
	c0.1,0,0.3,0,0.4,0s0.3,0,0.4,0c0.2,0,0.3-0.1,0.3-0.3s-0.1-0.3-0.3-0.3c-0.4,0-0.7-0.1-1.1-0.1c-0.2,0-0.4,0-0.5,0
	c-0.2,0-0.3,0-0.5,0l-0.2,0c-0.2,0-0.3-0.1-0.5-0.1c-0.2,0-0.4,0-0.6,0c-0.3,0-0.7,0-1,0c-0.2,0-0.3,0-0.5,0c-0.2,0-0.4,0-0.5,0
	s-0.4,0-0.6,0c-0.1,0-0.3,0-0.5-0.1c-0.1,0-0.3-0.1-0.5-0.1c-0.1,0-0.3,0-0.4,0c-0.2,0-0.4-0.1-0.6-0.1c-0.3,0-0.5-0.1-0.8-0.1
	l-0.2,0h0h0l0,0c-0.2,0-0.4-0.1-0.7-0.1c-0.2,0-0.4,0-0.6-0.1l-0.3,0c-0.2,0-0.4-0.1-0.6-0.1s-0.4-0.1-0.6-0.1h0
	C85,57.2,84.9,57.3,84.8,57.5z M94.9,58.1L94.9,58.1L94.9,58.1z M88.5,58.5L88.5,58.5L88.5,58.5z"/>
<path class="st3" d="M96.6,58.2c0,0.1,0,0.3,0,0.4c0,0.1,0.1,0.2,0.3,0.2c0.1,0,0.2-0.1,0.2-0.2c0-0.1,0-0.3,0-0.4
	c0-0.1-0.1-0.3-0.2-0.3C96.7,57.9,96.6,58,96.6,58.2C96.6,58.2,96.6,58.2,96.6,58.2L96.6,58.2z"/>
<path class="st3" d="M78.8,57.2c-0.1,0-0.3,0.1-0.3,0.2c0,0.1,0,0.2,0,0.3c0,0.1,0.1,0.1,0.2,0.1c0.3,0,0.6,0.1,0.9,0.1
	c0.2,0,0.4,0.1,0.6,0.1c0.2,0,0.4,0.1,0.6,0.1c0.4,0.1,0.9,0.1,1.3,0.2l0.4,0.1h0c0.2,0,0.4,0.1,0.7,0.1l0.4,0l0.2,0l0.3,0l0.3,0
	l0.3,0c0.3,0,0.6,0.1,0.9,0.1c0.4,0,0.8,0,1.2,0.1c0.2,0,0.3,0,0.5,0h0.1c0.1,0,0.3,0,0.4,0h0.1c0.1,0,0.1,0,0.2,0h0.2h0.1h0.1h0.5
	h0.1c0.2,0,0.5,0,0.7,0c0.1,0,0.3,0,0.5,0l0.4,0c0.2,0,0.5,0,0.7,0h0.1c0.2,0,0.5,0,0.7,0.1l0.1,0c0.2,0,0.4,0.1,0.6,0.1
	c0.1,0,0.3,0,0.4,0l0.2,0l0.2,0c0.1,0,0.3,0,0.4,0l0.2,0c0.1,0,0.2,0,0.4,0l0.2,0h0l0.3,0c0.2,0,0.4,0.1,0.6,0.1l0,0
	c0.1,0,0.3,0,0.4,0c0.1,0,0.1,0,0.2,0c0.1,0,0.2,0,0.4,0c0,0,0.1,0,0.1,0c0.1,0,0.2-0.1,0.2-0.1c0.1-0.1,0.2-0.2,0.2-0.3
	c0-0.1,0-0.1,0-0.2c0-0.1,0-0.2,0-0.3c0-0.2-0.1-0.3-0.3-0.3s-0.3,0.1-0.3,0.3c0,0.1,0,0.1,0,0.1l-0.3,0c-0.2,0-0.3,0-0.5,0
	s-0.3,0-0.5,0c-0.1,0-0.2,0-0.4,0c-0.1,0-0.2,0-0.3-0.1c-0.1,0-0.3,0-0.4-0.1c-0.1,0-0.2,0-0.4-0.1c-0.1,0-0.2,0-0.4,0
	c-0.2,0-0.4,0-0.7-0.1c-0.2,0-0.4-0.1-0.6-0.1S92,58,91.8,58c-0.2,0-0.4,0-0.6,0c-0.2,0-0.4,0-0.7,0s-0.4,0-0.6,0
	c-0.2,0-0.4,0-0.6,0c-0.4,0-0.8,0-1.2,0c-0.4,0-0.8,0-1.1,0c-0.2,0-0.4,0-0.6,0c-0.2,0-0.4,0-0.6,0s-0.4,0-0.6,0s-0.4,0-0.6,0
	s-0.4,0-0.6-0.1s-0.4,0-0.6-0.1c-0.5-0.1-1-0.1-1.5-0.1c-0.3,0-0.5,0-0.8-0.1c-0.2,0-0.5,0-0.7-0.1c-0.1,0-0.3,0-0.4-0.1
	s-0.3,0-0.5-0.1c-0.1,0-0.3,0-0.5,0C79.1,57.2,78.9,57.2,78.8,57.2L78.8,57.2z M96.9,58.5L96.9,58.5L96.9,58.5z"/>
<path class="st1" d="M102.9,42c0-0.4,0-0.7-0.1-1c0-0.2,0-0.3,0-0.5c0-0.3-0.2-0.5-0.4-0.5c0,0,0,0,0,0c0,0,0,0,0,0
	c-0.3-0.1-0.5-0.1-0.8-0.2c-0.3,0-0.5,0-0.8,0c-0.2,0-0.5,0-0.7,0c-0.3,0-0.5,0-0.8,0c-0.2,0-0.4,0-0.6,0h-0.3c-0.1,0-0.3,0-0.4,0h0
	l-0.2,0c-0.1,0-0.1,0-0.2,0.1c-0.1,0-0.2,0.1-0.2,0.1c-0.1,0.1-0.1,0.1-0.1,0.2c-0.1,0.1-0.1,0.2-0.1,0.4c0,0.1,0,0.1,0,0.1
	c0,0.1,0,0.1,0,0.2c0,0.1,0,0.3,0,0.4s0,0.3,0,0.4c0,0.1,0,0.1,0,0.2c0,0,0,0,0,0.1c0,0.1,0,0.2,0,0.3c0,0.1,0,0.2,0.1,0.3
	c0,0.6-0.1,1.1-0.1,1.6c0,0.5,0,0.9,0,1.4c0,0.3,0,0.6,0,0.9c0,0,0,0.1,0,0.1c0,0,0,0.1,0,0.1c0,0.4,0,0.7,0,1.1
	c0,0.2,0,0.3-0.1,0.5c0,0.2,0,0.4,0,0.6c0,0.4,0,0.8,0,1.3c0,0.2,0,0.5,0,0.7c0,0.2,0,0.5,0,0.8c0,0.3,0,0.5,0,0.7
	c0,0.2,0,0.5,0,0.7c0,0.3,0,0.5-0.1,0.7c0,0.2,0,0.4,0,0.6c0,0.4,0,0.9,0,1.4c0,0.5,0,0.9,0,1.4c0,0.1,0,0.2,0,0.3
	c0,0.1,0,0.2,0,0.3c0,0.2,0,0.4,0,0.5l0,0.3c0,0.1,0,0.2,0,0.4v0c0,0,0,0,0,0c-0.1-0.1-0.1-0.2-0.1-0.3c0-0.1,0-0.1,0-0.1h-0.1
	c0,0.3,0,0.5,0,0.8l0.1,0c0,0,0.1,0,0.1,0v0c0,0.1,0,0.1,0,0.2v0.1c0,0.1,0,0.3,0,0.4c0,0.1,0,0.2,0,0.3c0,0.1,0,0.3,0.1,0.4v0
	c0,0,0,0,0,0c0,0.3,0,0.7,0,1c0,0.1,0,0.2,0,0.2c0,0.1,0,0.1,0,0.2l0,0.1c0,0,0,0,0,0.1c0,0,0,0,0,0c0,0,0,0,0,0.1
	c0,0.1,0,0.2,0,0.3c0,0,0,0.1,0,0.1c0,0.1,0,0.2,0,0.3c0,0.1,0,0.1,0,0.2l0,0.1c0,0.1,0,0.2,0,0.3c0,0,0,0.1,0,0.1c0,0,0,0,0,0
	c0,0,0,0,0,0c0,0,0,0,0,0c0,0,0,0,0,0l0,0l0,0c0,0.1,0,0.2,0,0.2c0,0.1,0,0.1,0,0.2c0,0.2,0,0.3,0,0.5c0,0.1,0,0.1,0,0.2V65
	c0,0,0,0,0,0c0,0,0,0.1,0,0.1c0,0,0,0,0,0.1c0,0,0,0,0,0c0,0,0,0.1,0,0.1c0,0,0,0,0,0l0,0h0c0,0.1,0,0.2,0.1,0.2
	c0.1,0.2,0.2,0.3,0.4,0.3c0.1,0,0.1,0.1,0.2,0.1c0,0,0.1,0,0.1,0c0.1,0,0.1,0,0.2,0.1c0.1,0.1,0.3,0.1,0.5,0.1
	c0.3,0,0.5,0.1,0.8,0.1c0.2,0,0.5,0,0.7,0.1c0.2,0,0.5,0,0.7,0c0.2,0,0.4,0,0.6,0c0.1,0,0.1,0,0.2,0c0.1,0,0.2,0,0.3-0.1
	c0.1,0,0.1-0.1,0.1-0.1c0.1-0.1,0.1-0.2,0.2-0.3c0-0.1,0.1-0.3,0.1-0.4c0-0.1,0-0.1,0-0.2c0,0,0,0,0-0.1c0-0.1,0.1-0.3,0.1-0.4
	c0-0.2,0-0.4,0-0.6c0-0.1,0-0.2,0-0.2c0-0.5,0.1-1.1,0.1-1.7c0-0.3,0-0.7,0-1c0-0.2,0-0.5,0-0.8c0-0.3,0-0.6,0-0.9
	c0-0.3,0-0.6,0.1-0.9v0c0-0.6,0.1-1.2,0.1-1.7v0c0-0.1,0-0.3,0-0.4c0-0.4,0-0.9,0.1-1.4c0.1-0.6,0.1-1.2,0.1-1.8c0-0.3,0-0.5,0-0.8
	c0-0.3,0-0.7,0-1c0-0.2,0-0.4,0-0.6c0-0.1,0-0.2,0-0.3c0-0.3,0-0.5,0-0.9c0-0.5,0-1.1,0-1.7c0-0.4,0-0.7,0-1c0-0.2,0-0.5,0-0.7v-0.1
	c0-0.4,0-0.8,0-1.2c0,0,0-0.1,0-0.1c0-0.2,0.1-0.3,0.1-0.5c0-0.2,0-0.4,0.1-0.6c0-0.2,0-0.3,0-0.5s0-0.4,0-0.6
	C102.9,42.3,102.9,42.2,102.9,42z"/>
<path class="st4" d="M42.2,53.4c-0.2,0.2-0.2,0.4-0.2,0.6c0,0.2,0.1,0.4,0.2,0.6l0.2,0.2c0.1,0.1,0.3,0.3,0.4,0.4
	c0.2,0.1,0.4,0.2,0.7,0.3c0.1,0.1,0.2,0.1,0.4,0.1c0.2,0,0.4,0.1,0.7,0.1c0.4,0,0.8-0.4,0.8-0.8c0-0.1,0-0.3-0.1-0.4
	c-0.1-0.2-0.3-0.3-0.5-0.4c-0.2-0.1-0.4-0.2-0.7-0.3c-0.1-0.1-0.3-0.1-0.4-0.2c-0.1-0.1-0.1-0.1-0.2-0.2c-0.1-0.2-0.4-0.2-0.6-0.2
	C42.5,53.2,42.3,53.3,42.2,53.4L42.2,53.4z"/>
<path class="st4" d="M57.8,47.7c-0.3,0-0.7,0.1-1,0.1c-0.3,0-0.5,0-0.8,0c-0.4,0-0.7-0.1-1-0.1c-0.4,0-0.7,0-1.1,0
	c-0.3,0-0.6,0.1-0.9,0.1c-0.2,0-0.4,0-0.6,0c-0.2,0-0.4,0-0.7,0c-0.5,0-0.9,0.1-1.4,0.1c-0.2,0-0.4,0-0.6,0c-0.2,0-0.4,0-0.6,0
	s-0.4,0-0.6,0c-0.2,0-0.4,0.1-0.6,0.1c-0.2,0-0.5,0.1-0.7,0.1c-0.2,0-0.4,0.1-0.6,0.1c-0.2,0-0.3,0.1-0.5,0.1s-0.3,0.1-0.5,0.1
	c-0.3,0.1-0.7,0.3-1,0.5c-0.1,0.1-0.3,0.2-0.4,0.2c-0.1,0.1-0.3,0.1-0.4,0.2c-0.2,0.1-0.4,0.1-0.6,0.2c-0.2,0.1-0.5,0.3-0.7,0.4
	c-0.2,0.2-0.4,0.3-0.5,0.5c-0.2,0.3-0.4,0.6-0.5,0.9c-0.1,0.4,0.1,0.9,0.6,1c0.4,0.1,0.7-0.1,0.9-0.4c0-0.1,0.1-0.1,0.1-0.2
	c0.2-0.2,0.4-0.4,0.6-0.6c0.4-0.2,0.7-0.4,1.1-0.6c0.2-0.1,0.3-0.2,0.5-0.3c0.1-0.1,0.2-0.1,0.4-0.2c0.1-0.1,0.2-0.1,0.4-0.1
	c0.2-0.1,0.4-0.1,0.6-0.1c0.2,0,0.4-0.1,0.7-0.1c0.3-0.1,0.5-0.1,0.8-0.1h0c0.2,0,0.4-0.1,0.6-0.1c0.1,0,0.3,0,0.4,0
	c0.2,0,0.3,0,0.5-0.1c0.2,0,0.4,0,0.5,0s0.4,0,0.5-0.1c0.1,0,0.3,0,0.4,0c0.2,0,0.4,0,0.6-0.1c0.3,0,0.6,0,0.9,0
	c0.7,0,1.3-0.1,1.9-0.1c0.4,0,0.7,0,1,0c0.2,0,0.3,0,0.5,0l0.4,0c0.3,0,0.6-0.1,0.9-0.1c0.3,0,0.6,0,0.9,0c0.4,0,0.7,0,1,0
	c0.2,0,0.4,0,0.5,0c0.1,0,0.3,0,0.4,0c0.2,0,0.4,0.1,0.5,0.1c0.1,0,0.3,0,0.5,0l0.4,0.1c0.2,0,0.4,0.1,0.7,0.1
	c0.2,0,0.5,0.1,0.7,0.1c0.4,0.1,0.9,0.2,1.3,0.4c0.3,0.1,0.6,0.3,0.8,0.4s0.5,0.3,0.8,0.4c0.3,0.1,0.5,0.3,0.8,0.5
	c0.2,0.1,0.5,0.2,0.8,0.4c0.1,0,0.2,0.1,0.2,0.1s0.1,0.1,0.2,0.1c0.1,0.1,0.2,0.1,0.3,0.2l0,0l0,0c0,0.1,0.1,0.3,0.1,0.4
	c0.1,0.3,0.4,0.5,0.7,0.4c0.1,0,0.3-0.1,0.3-0.3c0.1-0.1,0.1-0.3,0.1-0.4c0-0.2-0.1-0.4-0.2-0.7c-0.1-0.2-0.2-0.3-0.4-0.4
	c-0.2-0.1-0.3-0.3-0.5-0.4c-0.1-0.1-0.2-0.1-0.3-0.2c-0.1,0-0.1-0.1-0.2-0.1c-0.1-0.1-0.2-0.1-0.3-0.2c-0.1-0.1-0.2-0.1-0.3-0.2
	c-0.1-0.1-0.2-0.1-0.4-0.2c-0.2-0.1-0.5-0.3-0.7-0.4c-0.2-0.1-0.5-0.2-0.7-0.4c-0.2-0.1-0.5-0.3-0.8-0.4c-0.3-0.1-0.6-0.2-0.9-0.3
	c-0.2-0.1-0.4-0.1-0.7-0.2c-0.3-0.1-0.5-0.1-0.8-0.2s-0.5-0.1-0.8-0.1c-0.2,0-0.4-0.1-0.5-0.1c-0.1,0-0.2,0-0.4,0l-0.4-0.1
	c-0.2,0-0.5-0.1-0.7-0.1c-0.2,0-0.4,0-0.5-0.1c-0.2,0-0.4,0-0.6,0s-0.4,0-0.5,0C58.1,47.7,58,47.7,57.8,47.7L57.8,47.7z M64.3,50.1
	l0.1,0L64.3,50.1z"/>
<path class="st4" d="M58.1,47.4c-0.4,0-0.9,0-1.3,0c-0.2,0-0.4,0-0.6,0c-0.3,0-0.5,0-0.8,0.1c-0.2,0-0.4,0.1-0.6,0.1
	s-0.4,0.1-0.6,0.1l-0.2,0c-0.2,0-0.3,0-0.5,0c-0.2,0-0.4,0.1-0.7,0.1l-0.3,0c-0.2,0-0.3,0-0.5,0c-0.4,0-0.7,0-1.1,0.1
	c-0.1,0-0.3,0.1-0.4,0.1c-0.1,0-0.3,0.1-0.4,0.1c-0.2,0-0.5,0.1-0.7,0.1c-0.1,0-0.2,0-0.3,0c-0.2,0-0.4,0.1-0.6,0.1
	c-0.1,0-0.2,0-0.4,0.1c-0.1,0-0.3,0.1-0.4,0.1c-0.1,0-0.3,0.1-0.4,0.3s-0.1,0.3-0.1,0.5c0.1,0.3,0.4,0.5,0.7,0.4
	c0.2-0.1,0.3-0.1,0.5-0.1c0.4,0,0.9-0.1,1.3-0.1c0.1,0,0.2,0,0.3,0s0.2,0,0.4,0c0.3,0,0.5-0.1,0.8-0.1c0.3,0,0.6,0,0.9,0
	c0.3,0,0.6,0,0.9-0.1c0.3,0,0.5,0,0.8,0c0.1,0,0.2,0,0.4,0c0.2,0,0.4,0,0.5-0.1c0.1,0,0.3,0,0.4-0.1l0.4-0.1c0.5,0,1-0.1,1.5,0
	c0.3,0,0.5,0,0.8,0c0.3,0,0.6,0,0.9,0.1l0.2,0c0.2,0,0.5,0.1,0.7,0.1c0.8,0.1,1.7,0.3,2.5,0.6c0.4,0.1,0.8,0.2,1.2,0.4
	c0.4,0.1,0.7,0.3,1.1,0.4c0.1,0,0.1,0.1,0.2,0.1c0.1,0.1,0.2,0.1,0.3,0.2l0.2,0.1c0.2,0,0.3,0,0.5,0c0.5-0.1,0.8-0.6,0.6-1.1l0,0
	c-0.1-0.2-0.2-0.4-0.4-0.5c-0.3-0.2-0.7-0.4-1-0.5c-0.3-0.1-0.6-0.2-0.9-0.3c-0.1-0.1-0.3-0.1-0.5-0.2c-0.1-0.1-0.4-0.1-0.5-0.1
	c-0.4-0.1-0.7-0.2-1.1-0.3c-0.2,0-0.4-0.1-0.6-0.1s-0.4-0.1-0.5-0.1c-0.2,0-0.4-0.1-0.5-0.1c-0.2,0-0.5-0.1-0.7-0.1
	s-0.5-0.1-0.7-0.1c-0.2,0-0.4,0-0.6,0L58.1,47.4L58.1,47.4z"/>
<path class="st4" d="M40.1,53.3c0,0.2,0,0.5,0.1,0.7c0.1,0.2,0.2,0.4,0.3,0.6c0.1,0.2,0.3,0.3,0.4,0.4c0.1,0.1,0.2,0.3,0.3,0.4
	c0.2,0.1,0.3,0.2,0.5,0.3c0.3,0.1,0.6,0.3,0.9,0.5c0.2,0.1,0.4,0.2,0.7,0.2c0.1,0,0.2,0.1,0.4,0.1c0.1,0,0.2,0,0.4,0.1
	c0.2,0.1,0.5,0.1,0.7,0.2c0.2,0.1,0.5,0.1,0.7,0.2c0.2,0.1,0.5,0.1,0.7,0.2s0.5,0.1,0.7,0.2c0.1,0,0.2,0.1,0.3,0.1s0.2,0.1,0.3,0.1
	c0.1,0,0.2,0.1,0.3,0.1s0.2,0.1,0.3,0.1c0.2,0.1,0.4,0.1,0.5,0.2c0.1,0,0.2,0,0.3,0.1c0.1,0,0.1,0,0.2,0l0,0l0.1,0c0,0,0.1,0,0.1,0
	c0.1,0,0.2,0.1,0.3,0.1l0.1,0c0.2,0.1,0.4,0.1,0.7,0.1h0c0.1,0,0.1,0,0.2,0c0.1,0,0.2,0,0.3,0l0.1,0c0.3,0,0.6,0.1,0.9,0.1
	c0.1,0,0.3,0,0.4,0c0.2,0,0.4,0,0.6,0h0.1c0.2,0,0.3,0,0.5,0h0.3H54h0.3h0.1c0.1,0,0.2,0,0.3,0c0.4,0,0.8,0,1.2,0c0.2,0,0.3,0,0.5,0
	l0.7,0c0.2,0,0.5,0,0.7,0H58h0.2c0.1,0,0.1,0,0.2,0l0.1,0c0.1,0,0.2,0,0.3,0h0.1c0.1,0,0.2,0,0.4,0c0.1,0,0.1,0,0.2,0
	c0.1,0,0.2,0,0.3,0c0.2,0,0.4,0,0.6,0c0.3,0,0.6-0.1,0.9-0.1c0.1,0,0.1,0,0.2,0l0.1,0l0.1,0l0.1,0l-0.1,0h0c0.4-0.1,0.7-0.1,1.1-0.2
	c0,0,0,0,0,0c0.1,0,0.1-0.1,0.2-0.1c0.1,0,0.2-0.1,0.3-0.1c0.2-0.1,0.4-0.1,0.6-0.2c0.1-0.1,0.3-0.2,0.4-0.2
	c0.2-0.1,0.4-0.2,0.5-0.3c0.2-0.1,0.4-0.2,0.6-0.4c0.4-0.2,0.5-0.7,0.3-1c-0.1-0.1-0.2-0.2-0.3-0.3c-0.2-0.1-0.4-0.1-0.6-0.1
	c-0.4,0.1-0.7,0.3-1.1,0.4c-0.3,0.1-0.6,0.3-0.9,0.4c-0.5,0.2-1,0.3-1.5,0.4c-0.2,0-0.3,0.1-0.5,0.1l0.2,0c-0.2,0-0.3,0.1-0.5,0.1
	s-0.4,0-0.5,0c-0.2,0-0.4,0-0.7,0.1c-0.1,0-0.1,0-0.2,0c-0.1,0-0.3,0-0.4,0.1c-0.1,0-0.2,0-0.3,0c-0.2,0-0.4,0-0.6,0.1l0.2,0
	c-0.2,0-0.5,0-0.7,0c-0.3,0-0.5,0-0.8,0c-0.6,0-1.2,0-1.8,0c-0.2,0-0.3-0.1-0.5-0.1c-0.2,0-0.4,0-0.5,0c-0.4,0-0.8,0-1.2-0.1
	c-0.2,0-0.4,0-0.7,0c-0.2,0-0.4,0-0.6,0c-0.2,0-0.4,0-0.5,0c-0.1,0-0.2,0-0.4,0c-0.1,0-0.2,0-0.3,0c-0.1,0-0.1,0-0.2,0
	c-0.1,0-0.3-0.1-0.4-0.1c-0.2-0.1-0.4-0.1-0.6-0.1s-0.4-0.1-0.6-0.1c-0.2-0.1-0.4-0.1-0.6-0.1c-0.5-0.1-1-0.2-1.4-0.3
	c-0.1,0-0.3,0-0.4-0.1s-0.2-0.1-0.4-0.1c-0.2-0.1-0.5-0.1-0.7-0.2c-0.4-0.1-0.7-0.2-1.1-0.2c-0.2,0-0.4-0.1-0.5-0.1
	c-0.1,0-0.2,0-0.3-0.1C43.1,55,43,55,42.9,55c-0.1-0.1-0.3-0.1-0.4-0.2c-0.1-0.1-0.3-0.1-0.4-0.2c-0.1-0.1-0.1-0.1-0.2-0.2
	c-0.1-0.1-0.2-0.2-0.3-0.3l-0.1-0.1c-0.1-0.1-0.1-0.1-0.2-0.2l0,0c0,0,0-0.1,0-0.1c0-0.1,0-0.2,0-0.3c0-0.3-0.2-0.5-0.5-0.5
	C40.3,52.8,40.1,53,40.1,53.3L40.1,53.3z"/>
<path class="st0" d="M97.2,41c0,0-0.1,0-0.1,0c-0.1,0-0.2,0-0.2,0.1v0c-0.1,0-0.1,0.1-0.2,0.2c-0.1,0.1-0.2,0.1-0.3,0.1l-0.2,0.1
	l-0.3,0.1l-0.3,0.1c-0.2,0.1-0.5,0.2-0.7,0.2c-0.2,0.1-0.3,0.1-0.5,0.1c-0.1,0-0.3,0-0.4,0.1l-0.1,0l-0.5,0.1l-0.6,0.1l-0.1,0
	c-0.3,0-0.7,0.1-1.1,0.1c-0.5,0-1,0.1-1.4,0.1c-0.1,0-0.3,0-0.4,0c-0.3,0-0.6,0-0.9,0l-0.5,0l-0.8,0.1c-0.2,0-0.3,0-0.5,0.1
	c-0.1,0-0.1,0-0.2,0l-0.2,0L86,42.7c-0.2,0-0.4,0-0.6,0.1h-0.1l-0.3,0c-0.1,0-0.2,0-0.4,0l-0.5,0l-0.2,0l-0.3,0c-0.1,0-0.2,0-0.3,0
	c-0.2,0-0.4,0-0.6,0.1c-0.2,0-0.5,0.1-0.7,0.1c-0.1,0-0.2,0-0.3,0l-0.4,0l-0.2,0c-0.1,0-0.3,0-0.4,0l-0.3,0c-0.1,0-0.2,0-0.3,0
	c-0.2,0-0.4,0-0.6,0h-0.1c-0.2,0-0.4,0-0.7,0s-0.4,0-0.6,0c-0.4,0-0.9,0.1-1.5,0.1l-0.2,0h0l-0.1,0l-0.4,0.1
	c-0.4,0.1-0.8,0.1-1.2,0.1c-0.4,0-0.9,0.1-1.3,0.1c-0.3,0-0.5,0.1-0.8,0.1c-0.2,0-0.3,0.1-0.5,0.1c0,0-0.1,0-0.1,0c-0.4,0-0.7,0-1,0
	c-0.3,0-0.6,0-0.9,0c-0.3,0-0.6,0-0.9,0c-0.2,0-0.4,0-0.6,0l-0.2,0c-0.4,0-0.7,0.1-1.1,0.1l-0.7,0c-0.2,0-0.5,0-0.7,0
	c-0.3,0-0.7,0-1,0.1l-0.3,0c-0.2,0-0.4,0-0.7,0.1c-0.2,0-0.3,0-0.5,0.1c-0.2,0-0.4,0-0.5,0.1l-0.5,0l-0.4,0c-0.4,0-0.7,0.1-1.1,0.1
	c-0.5,0.1-1,0.1-1.7,0.1c-0.4,0-0.7,0.1-1.1,0.1c-0.2,0-0.4,0-0.7,0.1c-0.3,0-0.6,0.1-0.9,0.1c-0.2,0-0.5,0-0.7,0.1l-0.2,0
	c-0.4,0-0.9,0-1.3,0h-0.5c-0.6,0-1.2,0-1.8,0c-0.3,0-0.6,0-0.9,0s-0.6,0-0.9,0h-0.4h-1.9H47c-0.4,0-0.7,0-1.1,0c-0.1,0-0.1,0-0.2,0
	c-0.3,0-0.6,0-1-0.1s-0.6,0-1,0c-1.2,0-2.4,0-3.6,0c-0.6,0-1.2,0-1.8-0.1c-0.3,0-0.6,0-1,0h-0.2c-0.2,0-0.5,0-0.7,0h0
	c-1.2,0-2.4,0-3.7,0c-1.3,0-2.5,0-3.8,0.1c-0.3,0-0.6,0-0.9,0c-0.3,0-0.7,0-1,0c-0.6,0-1.2,0-1.8,0c-0.3,0-0.6,0-0.9,0
	c-0.3,0-0.6,0-0.9-0.1c-0.3,0-0.6,0-0.8,0c-0.3,0-0.6,0-0.9,0c-0.1,0-0.3,0-0.4,0c-0.1,0-0.3,0-0.4,0c-0.1,0-0.3,0-0.4,0
	c-0.1,0-0.3,0-0.4,0c-0.6,0-1.2,0-1.8,0c-0.3,0-0.6,0-1,0.1c-0.2,0-0.4,0-0.6,0c-0.3,0-0.5,0.1-0.8,0.1c-0.2,0.1-0.3,0.1-0.5,0.2
	c-0.1,0.1-0.2,0.1-0.2,0.2c0,0,0,0.1,0,0.1c0,0.1,0,0.2-0.1,0.2c0,0.1-0.1,0.1-0.2,0.1c0,0,0,0,0,0l0,0c0,0.1-0.1,0.1-0.1,0.2l0,0
	c-0.1,0.1-0.1,0.1-0.2,0.2l-0.1,0.1L14.6,47c-0.1,0.1-0.3,0.2-0.4,0.4c-0.1,0.1-0.2,0.3-0.3,0.4c0,0.1-0.1,0.2-0.1,0.3
	c0,0.1-0.1,0.1-0.1,0.2s-0.1,0.2-0.1,0.3c-0.1,0.1-0.1,0.1-0.1,0.2c-0.1,0.1-0.1,0.2-0.2,0.4c0,0.1-0.1,0.2-0.1,0.3
	c0.1,0,0.1,0,0.2,0.1l0,0c0.1,0,0.1,0,0.1,0c0.1,0,0.3,0,0.4,0l0.1,0c0.1,0,0.2,0,0.2,0.1c0.1,0,0.1,0,0.2,0c0.2,0,0.3,0,0.5,0
	c0.1,0,0.2,0,0.3,0h0h0.1h0.1h0.1c0.2,0,0.3,0,0.5,0h0c0.4,0,0.7-0.1,1-0.1c0.3,0,0.6,0,1,0c1.3,0,2.6,0,3.9,0H22h1.4h1
	c0.2,0,0.4,0,0.6,0c0.1,0,0.2,0,0.4,0c0.2,0,0.4,0,0.7,0c0.5,0,1,0,1.5,0l0.1,0l0.1,0l0.1,0l0.2,0c0.3,0,0.7,0,1-0.1h0.5
	c0.2,0,0.3,0,0.5,0c0.3,0,0.7,0,1,0h0.1c0.1,0,0.3,0,0.4,0H32h0.2h0.3l0.7,0l1.5,0c0.9,0,1.7,0,2.6,0h0.3c0.5,0,1.1,0,1.7,0
	c0.3,0,0.6,0,0.9-0.1h0.1l0.4,0l0.1,0l0.3,0h0l0.2,0c0.2,0,0.4,0,0.6,0H42h0h0h0c0.3,0,0.6-0.1,0.8-0.1c0.1,0,0.2,0,0.4,0
	c0.1,0,0.3,0,0.4,0c0.3,0,0.6,0,0.8,0h0.1c0.1,0,0.2,0,0.3,0c0.1,0,0.1,0,0.2,0h0c0,0,0.1,0,0.1,0c0.1,0,0.1,0,0.2,0.1
	c0.1,0,0.1,0,0.2,0c0.2,0,0.5-0.1,0.7-0.1l0.1,0c0.2,0,0.4-0.1,0.6-0.1l0.3,0c0.3,0,0.6-0.1,0.9-0.1l0.2,0c0.3,0,0.6-0.1,0.9-0.1
	c0.4-0.1,0.8-0.1,1.3-0.2c0.4,0,0.8-0.1,1.1-0.1l0,0c0.1,0,0.3,0,0.4,0c0.2,0,0.4,0,0.6,0c0.2,0,0.4,0,0.7,0c0.1,0,0.2,0,0.3,0
	c0.1,0,0.3,0,0.4,0c0.4,0,0.8,0,1.3-0.1c0.4,0,0.8-0.1,1.2-0.1c0.2,0,0.4,0,0.6,0c0.2,0,0.4,0,0.7-0.1c0,0,0.1,0,0.1,0
	c0,0,0.1,0,0.1,0c0.1,0,0.2,0,0.4,0c0.5,0.1,1,0.1,1.5,0.2h0c0.2,0,0.3,0.1,0.5,0.1l0.1,0h0.1c0.2,0,0.4,0,0.7-0.1
	c0.1,0,0.3,0,0.5,0c0.4,0,0.9-0.1,1.2-0.1c0.7,0,1.4,0,2,0h0.3h0.3h0.3h0.1H66h0.2c0.4,0,0.8,0,1.1,0c0.1,0,0.2,0,0.4,0
	c0.1,0,0.1,0,0.2,0c0.2,0,0.4,0,0.6,0h0.6c0.1,0,0.3,0,0.5,0c0.3,0,0.7,0,1.1,0H71h0.4h0c0.2,0,0.4,0,0.5,0c0.4,0,0.7,0,1.1,0
	c0.4,0,0.8,0,1.2,0h0.2c0.2,0,0.5,0,0.7,0h0.2h0.3c0.1,0,0.2,0,0.3,0l0.2,0l0.4,0c0.2,0,0.4,0,0.5,0c0.2,0,0.4,0,0.6,0
	c0.3,0,0.6,0,0.9,0h0.3c0.2,0,0.5,0,0.7,0c0.1,0,0.3,0,0.4,0l0.6,0h0.1c0.1,0,0.2,0,0.4,0c0.6,0,1.3-0.1,1.9-0.1h0.4h0.1
	c0.1,0,0.3,0,0.4,0c0.1,0,0.3,0,0.5-0.1l0.1,0c0.4,0,0.7-0.1,1.1-0.1h0.3c0.1,0,0.2,0,0.3,0l0.3,0l0.3,0c0.4,0,0.7,0,1.1,0.1l0.3,0
	c0.3,0,0.6,0,0.9,0.1l0.4,0h0.2c0.1,0,0.3,0,0.4,0l0.1,0c0.1,0,0.2,0,0.3,0c0.1,0,0.2,0,0.3,0c0.2,0,0.4,0,0.6,0s0.4,0,0.6,0
	c0.2,0,0.4,0,0.6,0c0.4,0,0.7,0,1.1,0h0.3c0.1,0,0.2,0,0.4,0c0.1,0,0.2,0,0.3,0l0.2,0c0.4,0,0.7,0,1.2,0c0.1,0,0.3,0,0.4,0l0.1,0
	h0.1c0.1,0,0.2,0,0.3,0c0,0,0,0,0.1,0l0-0.1l0-0.1c0-0.1,0.1-0.1,0.1-0.2c0-0.7,0-1.5,0-2.2c0-0.5,0-0.9,0-1.4c0-0.6,0-1.1,0.1-1.7
	c0-0.3,0-0.6,0.1-0.9c0-0.2,0-0.4,0-0.5L97.2,41z"/>
<path class="st3" d="M44.9,48.8c0,0-0.1,0-0.1,0h0l-0.1,0c0,0-0.1,0-0.1,0s-0.1,0-0.2,0s-0.1,0-0.1,0s-0.1,0-0.1,0s-0.1,0-0.2,0
	l-0.1,0l0,0l-0.1,0c0,0-0.1,0-0.1,0.1c0,0,0,0,0,0.1c0,0-0.1,0-0.1,0l-0.1,0l0.1,0c-0.1,0-0.1,0-0.2,0c-0.1,0-0.1,0-0.2,0
	c0,0-0.1,0-0.1,0c0,0-0.1,0-0.1,0.1c0,0,0,0,0,0c-0.1,0-0.1,0-0.1,0.1c0,0-0.1,0-0.1,0.1c-0.1,0-0.1,0.1-0.2,0.1
	c-0.1,0.1-0.2,0.1-0.4,0.1c-0.1,0-0.1,0.1-0.2,0.1c-0.1,0-0.1,0.1-0.2,0.1c-0.1,0-0.1,0.1-0.1,0.2l-0.2,0.1c-0.1,0-0.2,0.1-0.2,0.1
	c-0.2,0.1-0.4,0.3-0.5,0.4c-0.1,0.1-0.1,0.2,0,0.2c0.1,0.1,0.2,0.1,0.3,0.1c0.1-0.1,0.2-0.1,0.2-0.2s0.1-0.1,0.2-0.1
	c0.1-0.1,0.3-0.1,0.4-0.2l0.4-0.2c0.1,0,0.2-0.1,0.3-0.1s0.1-0.1,0.2-0.1l0.2-0.1c0.1,0,0.1,0,0.2-0.1s0.2-0.1,0.3-0.1
	c0.2,0,0.3-0.1,0.5-0.1c0.2-0.1,0.4-0.1,0.6-0.2c0.2-0.1,0.4-0.1,0.6-0.2c0,0,0,0,0.1,0c0.1,0,0.2-0.1,0.2-0.2l0,0
	c0-0.1,0-0.1-0.1-0.2C45,48.9,45,48.8,44.9,48.8L44.9,48.8L44.9,48.8L44.9,48.8z M44.6,49.3L44.6,49.3z M42.4,49.5L42.4,49.5
	L42.4,49.5L42.4,49.5L42.4,49.5L42.4,49.5z M42.4,49.5L42.4,49.5z"/>
<path class="st3" d="M41.1,56c0,0.1,0.1,0.2,0.2,0.3c0.1,0,0.1,0,0.1,0c0.3,0.1,0.5,0.1,0.7,0.2c0.1,0,0.2,0,0.3-0.1
	c0.1-0.1,0-0.3-0.1-0.3c-0.2-0.1-0.3-0.1-0.5-0.2c-0.1,0-0.1,0-0.2-0.1c-0.1,0-0.2,0-0.3,0h0C41.2,55.8,41.1,55.9,41.1,56L41.1,56z"
	/>
<path class="st3" d="M41,55.8c0,0.1,0,0.2,0.1,0.3c0.1,0,0.2,0.1,0.3,0.1l0.1,0l0.1,0.1c0.1,0,0.1,0.1,0.2,0.1s0.1,0.1,0.2,0.1l0,0
	l0.1,0.1l0,0l0,0l0.1,0.1l0,0l0,0l0.1,0.1h0l-0.1,0l0.1,0h0h0h0l0.1,0l-0.1,0h0h0h0c0.1,0,0.2,0.1,0.2,0.1s0.1,0.1,0.2,0.1
	s0.1,0.1,0.2,0.1c0.3,0.1,0.6,0.2,0.8,0.3s0.6,0.2,0.9,0.3c0.1,0,0.2,0.1,0.4,0.1c0.2,0,0.3,0.1,0.5,0.1c0.1,0,0.3,0,0.4-0.1
	c0-0.1,0.1-0.2,0-0.3c0-0.1-0.1-0.1-0.1-0.2c-0.1-0.1-0.3-0.1-0.4-0.1c-0.1,0-0.2,0-0.2-0.1c-0.2,0-0.3-0.1-0.5-0.1
	c-0.1,0-0.1-0.1-0.2-0.1c-0.1,0-0.2-0.1-0.3-0.1l0.1,0c-0.2-0.1-0.3-0.1-0.5-0.2c-0.1-0.1-0.3-0.1-0.4-0.1c-0.1,0-0.3-0.1-0.4-0.1
	c-0.1,0-0.3-0.1-0.4-0.1c-0.1,0-0.2-0.1-0.3-0.1c-0.1,0-0.2-0.1-0.3-0.1l-0.2,0l0,0h0l-0.1,0c-0.1,0-0.2,0-0.3-0.1l-0.2,0
	c-0.1,0-0.1,0-0.2-0.1c0,0,0,0-0.1,0C41.1,55.7,41.1,55.7,41,55.8L41,55.8z M41.5,56.2L41.5,56.2L41.5,56.2z M42.3,56.5L42.3,56.5
	L42.3,56.5z M44.4,56.6L44.4,56.6L44.4,56.6z M41.7,56.3L41.7,56.3L41.7,56.3L41.7,56.3L41.7,56.3z M42.1,55.8L42.1,55.8L42.1,55.8z
	"/>
<path class="st3" d="M40.7,55.6c-0.2,0-0.3,0.1-0.4,0.3c0,0.1,0,0.1,0,0.2c0,0.1,0.1,0.2,0.2,0.2c0.1,0,0.2,0.1,0.3,0.1
	c0.1,0,0.1,0,0.2,0c0.1,0,0.2,0,0.3,0.1s0.1,0,0.2,0.1s0.2,0,0.3,0.1s0.1,0,0.2,0.1s0.1,0.1,0.2,0.1c0.1,0,0.2,0.1,0.3,0.1
	c0.1,0,0.2,0.1,0.3,0.1c0.2,0.1,0.3,0.1,0.5,0.1c0.2,0,0.4,0.1,0.6,0.2c0.2,0.1,0.4,0.1,0.7,0.2c0.2,0,0.3,0.1,0.5,0.1
	c0.1,0,0.2,0,0.3,0.1l0.2,0c0.1,0,0.2,0,0.3,0c0.1,0,0.3,0.1,0.4,0.1c0.3,0.1,0.6,0.1,0.9,0.2h0c0.1,0,0.1,0,0.2,0l0.1,0
	c0.1,0,0.2,0,0.3,0h0c0.2,0,0.4,0,0.6,0c0.2,0,0.4,0,0.6,0.1c0,0,0.1,0,0.1,0l0.1,0c0,0,0,0,0,0c0-0.1,0-0.2-0.1-0.3
	c0,0-0.1,0-0.1,0c-0.1-0.1-0.2-0.1-0.4-0.2c-0.1-0.1-0.3-0.1-0.4-0.1c-0.1,0-0.2-0.1-0.2-0.1c-0.1,0-0.2-0.1-0.3-0.1
	c-0.1,0-0.2,0-0.3-0.1c-0.1,0-0.2,0-0.3-0.1L46.7,57c-0.1,0-0.2,0-0.3-0.1c-0.2,0-0.3-0.1-0.5-0.2c-0.2-0.1-0.4-0.1-0.6-0.1
	c-0.2,0-0.4-0.1-0.5-0.1c-0.2-0.1-0.4-0.1-0.6-0.1c-0.1,0-0.2-0.1-0.3-0.1l-0.3-0.1c-0.1,0-0.2,0-0.3-0.1c-0.1,0-0.2-0.1-0.2-0.1
	c-0.1,0-0.2-0.1-0.3-0.1c-0.1,0-0.1,0-0.2,0c-0.1,0-0.1,0-0.2,0h-0.1c-0.1,0-0.2-0.1-0.3-0.1c-0.1,0-0.2-0.1-0.4-0.1
	c-0.1,0-0.2-0.1-0.4-0.1c-0.1,0-0.1,0-0.2-0.1C41,55.6,40.9,55.6,40.7,55.6C40.8,55.6,40.7,55.6,40.7,55.6L40.7,55.6z"/>
<path class="st3" d="M62.3,47.8c-0.1,0-0.2,0.1-0.2,0.2c0,0.1,0,0.2,0.1,0.3c0,0,0.1,0.1,0.1,0.1c0,0,0.1,0,0.1,0c0,0,0.1,0,0.1,0
	c0.1,0,0.2,0,0.3,0.1l0.2,0l0.2,0h0c0.1,0,0.1,0,0.2,0c0,0,0.1,0,0.1,0s0.1,0,0.1,0l-0.1,0c0.1,0,0.1,0.1,0.2,0.1l-0.1,0
	c0.3,0.1,0.5,0.2,0.8,0.3l0,0l0,0l0,0l0.1,0l0,0c0.1,0,0.1,0.1,0.2,0.1s0.2,0.1,0.3,0.1c0.3,0.1,0.5,0.2,0.8,0.2
	c0.3,0.1,0.5,0.1,0.8,0.2s0.5,0.2,0.7,0.3c0.1,0,0.1,0,0.2,0.1l0.3,0.1h0l0.2,0.1c0.1,0.1,0.3,0.1,0.4,0.2c0.1,0.1,0.3,0.1,0.4,0.2
	s0.3,0.2,0.4,0.2c0.1,0,0.1,0.1,0.2,0.1c0.1,0,0.1,0.1,0.2,0.1l0,0c0,0,0.1,0,0.1,0c0.1,0,0.2-0.2,0.2-0.3c0,0,0,0,0-0.1
	c0-0.1-0.1-0.1-0.1-0.1c-0.1-0.1-0.2-0.1-0.2-0.2c-0.1-0.1-0.3-0.2-0.4-0.3c-0.1,0-0.1-0.1-0.2-0.1c-0.1,0-0.1-0.1-0.2-0.1
	c-0.1,0-0.1-0.1-0.2-0.1c-0.1,0-0.1-0.1-0.2-0.1c-0.1-0.1-0.2-0.1-0.4-0.2c-0.1,0-0.1-0.1-0.2-0.1c-0.1,0-0.2-0.1-0.2-0.1
	c-0.2-0.1-0.5-0.2-0.7-0.3s-0.5-0.1-0.7-0.2c-0.1,0-0.3-0.1-0.4-0.1c-0.1,0-0.3-0.1-0.4-0.1c-0.1,0-0.2-0.1-0.2-0.1
	c-0.1,0-0.1,0-0.2-0.1c-0.1,0-0.1-0.1-0.2-0.1c-0.1,0-0.1,0-0.2-0.1c0,0-0.1,0-0.1,0c0,0-0.1,0-0.1,0c-0.1,0-0.1,0-0.2-0.1
	c-0.1,0-0.1,0-0.1-0.1c0,0-0.1,0-0.1,0s0,0-0.1,0c-0.1,0-0.1,0-0.2,0l-0.2,0c-0.1,0-0.1,0-0.2,0s-0.1,0-0.2,0l-0.1,0h-0.1
	C62.4,47.8,62.3,47.8,62.3,47.8L62.3,47.8z M64.7,48.2L64.7,48.2L64.7,48.2L64.7,48.2z"/>
<path class="st3" d="M67.7,49.6c-0.1,0.1-0.1,0.2,0,0.3c0.1,0.1,0.2,0.2,0.3,0.3c0.1,0.1,0.1,0.2,0.2,0.2c0.1,0.1,0.1,0.1,0.2,0.2
	c0.1,0.1,0.1,0.1,0.2,0.2c0.1,0.1,0.2,0.2,0.2,0.2s0.1,0.1,0.2,0.2s0.1,0.1,0.2,0.2c0,0,0.1,0.1,0.1,0.1s0.1,0.1,0.1,0.1l0.1,0.1
	l0,0.1c0,0.1,0.1,0.1,0.1,0.2c0,0.1,0.1,0.1,0.2,0.2c0.1,0.2,0.3,0.4,0.4,0.6l0,0c0,0,0,0,0,0c0.1,0.1,0.1,0.3,0.1,0.4
	c0,0.1,0.1,0.3,0.1,0.4c0,0.1,0,0.2,0,0.2c0,0.1,0,0.3,0,0.4c0,0.1,0,0.2,0.1,0.2c0.1,0.1,0.3,0.1,0.4,0l0,0
	c0.1-0.1,0.1-0.1,0.1-0.2c0-0.1,0-0.3,0-0.4c0-0.1,0-0.2,0-0.3c0-0.2-0.1-0.5-0.1-0.7c-0.1-0.2-0.1-0.4-0.2-0.7
	c0-0.1-0.1-0.1-0.1-0.2c-0.1-0.1-0.1-0.2-0.2-0.3l0.1,0.1c-0.1-0.1-0.2-0.2-0.3-0.3c-0.1-0.1-0.1-0.2-0.2-0.3c0,0-0.1-0.1-0.1-0.1
	c0,0-0.1-0.1-0.1-0.1c-0.1-0.1-0.1-0.1-0.2-0.2h0c-0.1-0.1-0.1-0.1-0.2-0.2c-0.1,0-0.1-0.1-0.2-0.1c-0.1,0-0.1-0.1-0.1-0.1
	s-0.1-0.1-0.1-0.1c-0.1-0.1-0.2-0.1-0.3-0.2c0,0-0.1-0.1-0.1-0.1l-0.1-0.1c0,0-0.1-0.1-0.1-0.1c-0.1-0.1-0.1-0.1-0.2-0.2
	c0,0-0.1-0.1-0.1-0.1C67.8,49.5,67.8,49.5,67.7,49.6L67.7,49.6z M69.5,51.7L69.5,51.7L69.5,51.7z M69.5,51.6L69.5,51.6L69.5,51.6
	L69.5,51.6L69.5,51.6z"/>
<path class="st3" d="M70.8,53.3c0,0.1,0,0.1,0,0.2c0,0.1,0,0.1-0.1,0.2c0,0.1-0.1,0.1-0.1,0.2c0,0.1-0.1,0.1-0.1,0.2
	c0,0.1-0.1,0.1-0.1,0.2c0,0.1-0.1,0.1-0.1,0.2c0,0,0,0.1-0.1,0.1s0,0.1-0.1,0.1c-0.1,0.1-0.2,0.2-0.2,0.3c-0.1,0.1-0.1,0.1-0.2,0.2
	c0,0-0.1,0.1-0.1,0.1c0,0,0,0,0,0.1c0,0,0,0-0.1,0.1c-0.1,0-0.1,0.1-0.2,0.1s-0.1,0.1-0.2,0.1c0,0-0.1,0.1-0.1,0.1
	c0,0-0.1,0.1-0.1,0.1c-0.1,0-0.2,0.1-0.2,0.1L68.3,56c-0.1,0-0.2,0.1-0.4,0.1c-0.1,0-0.3,0.1-0.4,0.2c-0.1,0-0.2,0.1-0.3,0.1
	c-0.1,0-0.1,0-0.2,0.1c-0.1,0-0.2,0.1-0.4,0.1c-0.1,0.1-0.3,0.1-0.4,0.2c-0.2,0.1-0.4,0.1-0.6,0.2c-0.1,0-0.1,0-0.2,0.1
	s-0.1,0.1-0.2,0.1c-0.1,0-0.2,0.1-0.3,0.1l-0.1,0.1c-0.1,0-0.2,0.1-0.4,0.1c-0.1,0-0.3,0.1-0.4,0.1l0,0l0,0l0,0l-0.1,0l0.1,0
	L64,57.7c-0.1,0-0.2,0.1-0.3,0.1c-0.1,0-0.3,0.1-0.4,0.1c0,0-0.1,0-0.1,0.1c0.1,0,0.2,0,0.3,0h0.3c0.1,0,0.2,0,0.4,0
	c0.1,0,0.2,0,0.2,0c0.1,0,0.2,0,0.3,0c0.1,0,0.2,0,0.4,0h0.1c0,0,0.1,0,0.1,0l0,0l0.2-0.1c0.1,0,0.2-0.1,0.3-0.1
	c0.1,0,0.2-0.1,0.3-0.1c0.2-0.1,0.4-0.1,0.6-0.2h0l0.2-0.1c0.2-0.1,0.4-0.1,0.6-0.2s0.4-0.2,0.5-0.2c0.2-0.1,0.4-0.2,0.6-0.2l-0.1,0
	l0.2-0.1l0.3-0.1l-0.1,0c0.1,0,0.2-0.1,0.3-0.1c0.1-0.1,0.2-0.1,0.3-0.2c0.1-0.1,0.2-0.2,0.3-0.3l0,0l0,0l0,0
	c0.1-0.1,0.3-0.2,0.4-0.4c0.1-0.1,0.3-0.3,0.4-0.5c0-0.1,0.1-0.1,0.1-0.2c0-0.1,0.1-0.1,0.1-0.2c0-0.1,0-0.1,0-0.1
	c0-0.1,0.1-0.1,0.1-0.2c0-0.1,0-0.2,0-0.3c0-0.1,0-0.2,0.1-0.3c0-0.1,0-0.1,0-0.2s0-0.1,0-0.2c0-0.1-0.1-0.1-0.2-0.1
	C70.9,53.2,70.8,53.2,70.8,53.3L70.8,53.3z M68.9,56.5L68.9,56.5L68.9,56.5z"/>
<path class="st0" d="M19.6,57.6L19.6,57.6c-0.2,0-0.3,0-0.4,0H19h0h0h-0.1c-0.1,0-0.2,0-0.3,0c-0.3,0-0.7,0-1.1,0
	c-0.3,0-0.7,0-1.1,0.1c-0.4,0-0.7,0.1-1.1,0.1c-0.2,0-0.4,0-0.5,0h-0.2h-0.2h-0.2c-0.1,0-0.2,0-0.4,0h0h0c-0.1,0-0.2,0.1-0.3,0.1h0
	l-0.1,0c-0.1,0-0.2,0-0.3,0c0,0,0,0-0.1,0c0,0-0.1,0-0.1,0c0,0,0,0.1,0,0.1c0,0,0,0.1,0.1,0.1s0.1,0.1,0.1,0.1
	c0,0.1,0.1,0.2,0.1,0.3c0.1,0.1,0.1,0.2,0.2,0.3l0.1,0.1c0.1,0.1,0.1,0.1,0.1,0.2l0.1,0.1l0.1,0.1c0,0.1,0.1,0.1,0.1,0.2l0,0.1
	c0.1,0.1,0.1,0.2,0.2,0.3l0,0.1l0.1,0.1l0,0l0,0.1c0,0.1,0.1,0.1,0.1,0.1c0.1,0.1,0.1,0.1,0.2,0.2l0.1,0.1c0.1,0.1,0.1,0.1,0.2,0.2
	c0,0,0.1,0.1,0.1,0.1h0l0,0c0,0,0,0,0.1,0c0,0,0.1,0,0.1,0l0.1,0l0,0c0.1,0,0.1,0,0.1,0.1s0.1,0,0.1,0l0.1,0c0.1,0,0.1,0,0.2,0.1
	l0.1,0.1c0.2,0.1,0.5,0.1,0.7,0.1l0,0h0l0.1,0c0.1,0,0.1,0,0.2,0.1c0.1,0,0.2,0,0.3,0h0l0.1,0c0.1,0,0.2,0,0.3,0s0.2,0,0.3,0h0.1
	c0.1,0,0.2,0,0.4,0c0.1,0,0.3,0,0.4,0h0.2c0.1,0,0.1,0,0.2,0c0.2,0,0.3,0,0.5,0h0.2c0.2,0,0.4,0,0.7-0.1h0l0.1,0l0.1,0
	c0,0,0.1,0,0.1,0l0.1,0c0.5,0,0.9,0,1.3,0h0.2c0.2,0,0.4,0,0.6,0c0.1,0,0.2,0,0.3,0c0.2,0,0.4,0,0.7,0h0.2c0.8,0,1.5,0,2.3,0.1
	c0.5,0,1.1,0,1.6,0c0.6,0,1.3,0,2.1,0h1.2c0.3,0,0.6,0,0.9,0l0.6,0c0.3,0,0.6,0.1,0.8,0.1c0.6,0.1,1.3,0.1,2.1,0.1h0.1
	c0.2,0,0.4,0,0.6,0l0.3,0c0.3,0,0.7,0,1,0c0.7,0,1.3,0,1.9,0h0.5c0.2,0,0.3,0,0.5,0c0.3,0,0.6,0,0.9,0.1l0.3,0c0.2,0,0.5,0,0.7,0.1
	c0.3,0,0.6,0.1,0.9,0.1c0.3,0,0.5,0,0.8,0h0.1c0.4,0,0.7,0,1.1,0.1c0.4,0,0.7,0,1.1,0c0.3,0,0.6,0,0.8,0c0.2,0,0.4,0,0.6,0
	c0.1,0,0.2,0,0.4,0c0.2,0,0.5,0,0.7,0h0.1h0.2c0.2,0,0.4,0,0.5,0h0l0.3,0c0.3,0,0.6,0,0.9,0.1c0.7,0,1.4,0.1,1.9,0.1
	c0.7,0,1.3,0,1.9,0.1c0.6,0,1.2,0.1,1.9,0.1c0.3,0,0.6,0,0.9,0h0.1h0.1c0.3,0,0.5,0,0.8,0.1c0.6,0,1.2,0.1,1.9,0.1h0.3
	c0.2,0,0.4,0,0.7,0c0.2,0,0.3,0,0.5,0l0.4,0c0.6,0,1.3,0,1.9,0h0.1c0.6,0,1.2,0.1,1.7,0.1l0.2,0l0.3,0h0.1c0.2,0,0.4,0,0.6,0
	c0.3,0,0.6,0.1,1,0.1c0.2,0,0.4,0,0.6,0l0.3,0c0.2,0,0.3,0,0.5,0h0.1c0.1,0,0.2,0,0.4,0c0.4,0,0.7,0,1.1,0c0.2,0,0.4,0,0.6,0
	c0.2,0,0.4,0,0.5,0l0.3,0c0.1,0,0.3,0,0.4,0s0.3,0,0.4,0l0.3,0c0.2,0,0.4,0,0.5,0l0.2,0c0.2,0,0.4,0,0.7,0c0.6,0.1,1.2,0.1,1.7,0.1
	h0c0,0,0,0,0,0c0.2,0,0.3,0,0.5,0c0.1,0,0.3,0,0.4,0l0.3,0c0.5,0,1.1,0,1.6,0c0.3,0,0.5,0,0.7,0l0.3,0c0.1,0,0.3,0,0.4,0h0h0
	c0.1,0,0.1,0,0.2,0l0.1,0c0.1,0,0.2,0,0.3,0.1c0.3,0.1,0.7,0.1,1,0.1c0.3,0,0.6,0.1,0.8,0.1h0h0c0.3,0,0.5,0.1,0.8,0.1l0.1,0
	c0.2,0,0.5,0.1,0.7,0.1l0.3,0c0.2,0,0.4,0,0.6,0l0.4,0c0.1,0,0.3,0.1,0.4,0.1c0.2,0,0.3,0.1,0.5,0.1l0.1,0c0.1,0,0.3,0,0.4,0.1
	c0.3,0.1,0.7,0.1,1,0.2c0.4,0.1,0.7,0.1,1,0.1c0.1,0,0.2,0,0.2,0h0l0.2,0c0.2,0,0.4,0.1,0.6,0.1l0.3,0l0.3,0l0.2,0
	c0.1,0,0.3,0,0.4,0.1c0.2,0,0.3,0,0.5,0.1l0.1,0l0.1,0c0.3,0,0.5,0.1,0.8,0.1c0.2,0,0.4,0.1,0.7,0.1l0.1,0l0.7,0.1h0h0l0.3,0.1
	c0.4,0.1,0.8,0.3,1.3,0.4c0.1,0,0.2,0,0.3,0.1c-0.1-0.1-0.1-0.2-0.1-0.4v-0.1c0-0.1,0-0.1,0-0.2c0-0.2,0-0.3,0-0.5
	c0-0.1,0-0.1,0-0.2c0-0.1,0-0.2,0-0.2c0,0,0-0.1,0-0.1c0-0.1,0-0.2,0-0.3l0-0.1c0-0.1,0-0.1,0-0.2c0-0.1,0-0.2,0-0.3
	c0,0,0-0.1,0-0.1c0-0.1,0-0.2,0-0.3c0-0.1,0-0.1,0-0.1l0-0.1c0-0.1,0-0.1,0-0.2c0-0.1,0-0.2,0-0.2c0-0.4,0-0.7,0-1.1
	c0-0.2,0-0.3-0.1-0.4c0-0.1,0-0.2,0-0.3c0-0.1,0-0.3,0-0.4v-0.1c0-0.1,0-0.1,0-0.2c0,0-0.1,0-0.1,0c-0.1,0-0.3,0-0.4,0
	c-0.1,0-0.1,0-0.2,0c-0.1,0-0.2,0-0.4,0l0,0c-0.2,0-0.4,0-0.6-0.1l-0.3,0h0l-0.2,0c-0.1,0-0.2,0-0.4,0l-0.2,0c-0.1,0-0.3,0-0.4,0
	l-0.2,0l-0.2,0c-0.1,0-0.3,0-0.4,0c-0.2,0-0.4,0-0.6-0.1l-0.1,0c-0.2,0-0.5-0.1-0.7-0.1h-0.1c-0.2,0-0.5,0-0.7,0l-0.4,0
	c-0.1,0-0.3,0-0.5,0c-0.2,0-0.4,0-0.7,0h-0.1c-0.1,0-0.3,0-0.5,0h-0.1h-0.2h-0.2c-0.1,0-0.1,0-0.2,0h-0.1c-0.1,0-0.3,0-0.4,0h-0.1
	c-0.2,0-0.3,0-0.5,0c-0.4,0-0.7,0-1.2-0.1c-0.3,0-0.6,0-0.9-0.1c-0.1,0-0.2,0-0.3,0c-0.1,0-0.2,0-0.3,0l-0.3,0l-0.2,0l-0.4,0
	c-0.2,0-0.4,0-0.7-0.1h-0.2h-0.3c-0.4,0-0.8,0-1.2,0c-0.1,0-0.2,0-0.3,0h-0.1c-0.2,0-0.4,0-0.7,0c-0.4,0-0.7,0-1.2,0h-0.4
	c-0.6,0-1.3,0-1.9,0c-0.2,0-0.4,0-0.5,0l-0.2,0h-0.1l-0.3,0c-0.1,0-0.3,0-0.5,0h-0.1c-0.1,0-0.3,0-0.4,0l-0.1,0l-0.3,0h-0.1l-0.2,0
	c-0.2,0-0.4,0-0.6,0c-0.4,0-0.8,0-1.2,0h-0.1c-0.2,0-0.4,0-0.5,0c-0.2,0-0.4,0-0.6,0c-0.4,0-0.8,0-1.1,0h-0.1c-0.1,0-0.3,0-0.5,0
	c-0.1,0-0.2,0-0.3,0c-0.1,0-0.2,0-0.3,0l-0.2,0h0c-0.3,0-0.6,0-0.9-0.1c-0.4,0-0.8,0-1.1,0h-0.3h-0.4l-0.1,0h-0.1
	c-0.1,0-0.2,0-0.4,0c-0.1,0-0.2,0-0.3,0l-0.2,0c-0.1,0-0.2,0-0.4,0h-0.3c-0.1,0-0.2,0-0.3,0l-0.1,0h0h-0.1C63,58,63,58,62.9,58
	c0,0,0,0,0,0c-0.4,0.1-0.7,0.2-1.1,0.2h0l0.1,0l-0.1,0l-0.1,0l-0.1,0c-0.1,0-0.1,0-0.2,0c-0.3,0.1-0.6,0.1-0.9,0.1
	c-0.2,0-0.4,0-0.6,0c-0.1,0-0.2,0-0.3,0c-0.1,0-0.1,0-0.2,0c-0.1,0-0.3,0-0.4,0h-0.1c-0.1,0-0.2,0-0.3,0l-0.1,0c-0.1,0-0.1,0-0.2,0
	H58h-0.1c-0.2,0-0.5,0-0.7,0s-0.5,0-0.7,0c-0.2,0-0.3,0-0.5,0c-0.4,0-0.8,0-1.2,0c-0.1,0-0.2,0-0.3,0h-0.1h-0.3h-0.1h-0.3
	c-0.2,0-0.3,0-0.5,0H53c-0.2,0-0.4,0-0.6,0c-0.1,0-0.3,0-0.4,0c-0.3,0-0.7-0.1-0.9-0.1H51c-0.1,0-0.2,0-0.3,0c-0.1,0-0.1,0-0.2,0h0
	c-0.2,0-0.4-0.1-0.7-0.1l-0.1,0c-0.1,0-0.2-0.1-0.3-0.1c0,0-0.1,0-0.1,0l-0.1,0l0,0l0,0c-0.1,0-0.1,0-0.2,0h-0.1
	c-0.2,0-0.4-0.1-0.6-0.1c-0.2,0-0.4,0-0.6,0h0c-0.1,0-0.2,0-0.3,0c-0.1,0-0.2,0-0.3,0h-0.2h-0.1h-0.1h-0.1c-0.1,0-0.3,0-0.4,0
	l-0.1,0c-0.1,0-0.3,0-0.4,0c-0.2,0-0.4,0-0.7,0h-0.3c-0.5,0-1,0-1.5,0H43l-0.7,0c-0.4,0-0.8,0-1.1,0H41c-0.1,0-0.2,0-0.4,0
	c-0.2,0-0.4,0-0.6,0c-0.7,0-1.5,0.1-2.2,0.1h-0.1l-1.1,0h-0.1l-1,0h-0.4c-0.2,0-0.5,0-0.7,0c-0.2,0-0.3,0-0.5,0c-0.2,0-0.4,0-0.6,0
	c-0.7,0-1.3,0-1.9,0h-0.8c-0.2,0-0.4,0-0.7,0c-0.4,0-0.8,0-1.2-0.1h-0.2h-0.1h-0.1h0c-0.2,0-0.5,0-0.7,0c-0.1,0-0.2,0-0.3,0h0
	l-0.2,0l-0.2,0l-0.4,0L25.8,58l-0.4,0c-0.2,0-0.4,0-0.6,0l-0.1,0l-0.4,0c-0.2,0-0.4,0-0.7-0.1c-0.2,0-0.3,0-0.5,0
	c-0.1,0-0.3,0-0.4,0h-0.1l-0.1,0h-0.1h-0.1h-0.1l-0.2,0c-0.7-0.1-1.5-0.1-2.2-0.1L19.6,57.6L19.6,57.6z"/>
<path class="st0" d="M63.8,47.2c-0.1,0-0.3,0-0.5,0c-0.1,0-0.3,0-0.5,0c-0.1,0-0.1,0-0.2,0c-0.1,0-0.3,0-0.4,0c0,0-0.1,0-0.1,0h0
	c0,0-0.1,0-0.1,0c0,0-0.1,0-0.1,0.1l0,0c0,0-0.1,0.1-0.1,0.1c0,0,0,0-0.1,0.1c-0.1,0.2,0,0.5,0.2,0.6c0,0,0.1,0,0.1,0
	c0.1,0,0.2,0,0.3,0l0.3,0c0.2,0,0.4,0,0.6,0c0.2,0,0.4,0,0.6,0c0.1,0,0.2,0,0.2,0c0.1,0,0.3,0,0.4-0.1c0.1,0,0.1-0.1,0.2-0.1
	c0.2-0.2,0.2-0.4,0-0.6l-0.1-0.1c-0.1,0-0.1-0.1-0.2-0.1c0,0-0.1,0-0.1,0C64.1,47.1,63.9,47.2,63.8,47.2L63.8,47.2z"/>
<path class="st0" d="M59.2,47c-0.2,0-0.4,0-0.7,0.1l-0.1,0c-0.1,0-0.2,0-0.4,0c-0.1,0-0.1,0-0.2,0c0,0-0.1,0-0.1,0
	c-0.1,0-0.1,0-0.2,0c-0.1,0-0.1,0.1-0.2,0.1l-0.1,0.1c-0.1,0.2-0.1,0.5,0.2,0.6l0,0c0.1,0,0.1,0.1,0.2,0.1c0,0,0.1,0,0.1,0
	c0.1,0,0.2,0,0.3,0c0.2,0,0.3,0,0.5,0h0.1c0.2,0,0.4,0,0.5,0c0.2,0,0.3,0,0.5,0c0.3,0,0.5,0,0.8,0c0.2,0,0.5,0,0.7,0
	c0.1,0,0.3,0,0.4,0c0.1,0,0.2,0,0.2,0H62c0.1,0,0.2,0,0.4,0c0.3,0,0.5-0.2,0.5-0.5c0-0.2-0.1-0.4-0.4-0.5c-0.2,0-0.3-0.1-0.5-0.1
	c-0.1,0-0.1,0-0.2,0c-0.2,0-0.3,0-0.5,0c-0.2,0-0.5,0-0.7,0h-0.2c-0.1,0-0.2,0-0.2,0h-0.4h-0.3h0C59.4,47,59.3,47,59.2,47L59.2,47z
	 M57.7,48L57.7,48L57.7,48L57.7,48L57.7,48z M57.8,48L57.8,48z"/>
<path class="st0" d="M48.4,58.1c-0.1,0-0.2,0-0.3,0c-0.1,0-0.1,0-0.2,0.1s-0.1,0-0.2,0c-0.1,0-0.2,0.1-0.2,0.2s0.1,0.2,0.2,0.2
	c0.2,0,0.4,0,0.6,0c0.1,0,0.2,0,0.3,0l0.1,0c0.1,0,0.2,0,0.2,0c0.1,0,0.2-0.2,0.2-0.4c0-0.1,0-0.1-0.1-0.1c-0.1-0.1-0.1-0.1-0.2-0.1
	c0,0-0.1,0-0.1,0C48.6,58.1,48.5,58.1,48.4,58.1L48.4,58.1z"/>
<path class="st0" d="M49.6,58c-0.1,0-0.2,0-0.4,0c-0.2,0-0.4,0-0.6,0.1c-0.1,0-0.2,0.1-0.3,0.1c-0.1,0-0.1,0-0.2,0.1
	c0,0-0.1,0-0.1,0l-0.3,0c-0.1,0-0.1,0.1-0.1,0.1c-0.1,0.1,0,0.2,0.1,0.3c0.1,0,0.1,0,0.2,0h0h0h0l0,0h0h0l0.4-0.1h0
	c0.1,0,0.1,0,0.2,0s0.1,0,0.2,0c0.1,0,0.2,0,0.3,0c0.1,0,0.3,0,0.5,0c0.1,0,0.2,0,0.4,0c0.1,0,0.2,0,0.3,0c0.1,0,0.2,0,0.3,0l0.2,0
	c0.1,0,0.1,0,0.2,0s0.2,0,0.2,0c0.1,0,0.2,0,0.2,0h-0.1c0.1,0,0.3,0,0.4,0.1c0.1,0,0.3,0,0.4,0c0.1,0,0.3,0,0.4,0s0.3,0,0.4,0
	s0.3,0,0.4,0l0.4,0c0.1,0,0.3,0,0.4,0s0.3,0,0.4,0c0.1,0,0.2,0,0.2,0c0.2,0,0.4,0.1,0.7,0.1c0.2,0,0.4,0,0.6,0s0.4,0,0.6,0
	c0.1,0,0.2,0,0.3,0c0.1,0,0.2,0,0.3,0c0.2,0,0.3-0.1,0.3-0.3c0-0.1-0.1-0.3-0.2-0.3c-0.2,0-0.3-0.1-0.5-0.1c-0.1,0-0.2,0-0.3,0
	c-0.2,0-0.5,0-0.7,0c-0.1,0-0.2,0-0.4,0s-0.3,0-0.4,0s-0.3,0-0.4,0s-0.3,0-0.4,0c-0.3,0-0.5,0-0.8,0c-0.1,0-0.3,0-0.4,0
	s-0.3,0-0.4,0c-0.1,0-0.1,0-0.2,0s-0.1,0-0.2,0c-0.1,0-0.3,0-0.4,0c-0.1,0-0.3,0-0.4,0s-0.3,0-0.4,0c-0.1,0-0.1,0-0.2,0
	c-0.1,0-0.1,0-0.2,0l-0.2,0l0.1,0c-0.1,0-0.2,0-0.3-0.1c-0.1,0-0.2,0-0.3,0h0C49.8,58,49.7,58,49.6,58L49.6,58z M48,58.2L48,58.2
	L48,58.2z M47.9,58.7L47.9,58.7z"/>
<path class="st0" d="M62.5,57.9c-0.1,0-0.1,0-0.2,0c-0.3,0-0.6,0.1-0.9,0.1c-0.2,0-0.5,0.1-0.7,0.1l0.1,0c-0.3,0-0.6,0-0.9,0.1
	c-0.3,0-0.6,0.1-0.9,0.1l-0.4,0c-0.1,0-0.3,0-0.4,0c-0.3,0-0.6,0-0.9,0c-0.4,0-0.8,0.1-1.2,0.1c-0.3,0-0.5,0.1-0.8,0.1
	s-0.5,0.1-0.7,0.3c-0.1,0-0.1,0.1-0.1,0.1c0,0.1-0.1,0.2,0,0.3c0,0.1,0.1,0.1,0.1,0.2c0.1,0,0.2,0.1,0.2,0l0.2,0l-0.1,0
	c0.2,0,0.4-0.1,0.7-0.1c0.2,0,0.4,0,0.5,0c0.2,0,0.4,0,0.5,0c0.1,0,0.2,0,0.2,0c0.1,0,0.2,0,0.3,0c0.1,0,0.3,0,0.5,0
	c0.3,0,0.6,0,0.9,0c0.1,0,0.3,0,0.5,0s0.3,0,0.4,0c0.2,0,0.4-0.1,0.6-0.1c0.3,0,0.5,0,0.8-0.1l-0.1,0c0.1,0,0.2,0,0.3,0
	s0.2,0,0.3-0.1c0.1,0,0.3-0.1,0.4-0.1c0.1,0,0.2,0,0.4,0l-0.1,0c0.4-0.1,0.9-0.1,1.4-0.1c0.3,0,0.5,0,0.8,0c0.1,0,0.2,0,0.4,0
	c0.1,0,0.3,0,0.4,0c0.1,0,0.3,0,0.4,0.1c0.1,0,0.2-0.1,0.2-0.2c0-0.1,0-0.1-0.1-0.2c0,0-0.1-0.1-0.2-0.1l-0.1,0
	c-0.1,0-0.3-0.1-0.4-0.1s-0.3-0.1-0.4-0.1C64,58,63.8,58,63.6,58c-0.2,0-0.3,0-0.5-0.1c-0.1,0-0.3,0-0.4,0
	C62.6,57.9,62.6,57.9,62.5,57.9L62.5,57.9z"/>
<path class="st4" d="M46.5,56.6c-0.1,0-0.1,0.1-0.1,0.1s0,0.1,0,0.2c0,0.1,0.1,0.1,0.1,0.1l0,0c0,0,0.1,0,0.1,0.1
	c0.1,0,0.1,0.1,0.2,0.1c0.1,0,0.2,0.1,0.3,0.1l0,0l0.1,0l0,0l0.1,0h0h0l0.1,0c0,0,0.1,0,0.1,0s0.1,0,0.1,0c0.1,0,0.1,0,0.2,0.1
	s0.1,0,0.2,0.1c0.1,0,0.1,0,0.2,0.1l0,0h0c0.1,0,0.1,0.1,0.2,0.1c0,0,0.1,0,0.1,0l-0.1,0c0.1,0,0.2,0.1,0.3,0.1
	c0.1,0,0.2,0.1,0.2,0.1c0,0,0,0,0.1,0s0.1,0,0.1,0l0.1,0c0.1,0,0.2,0,0.3-0.1l0,0c0.1-0.1,0.1-0.1,0.1-0.2c0-0.1-0.1-0.3-0.2-0.3
	c0,0-0.1-0.1-0.1-0.1c0,0-0.1,0-0.1,0c-0.1,0-0.1,0-0.2-0.1l0.1,0l-0.1,0l0,0c-0.1,0-0.2,0-0.2-0.1s-0.1,0-0.2-0.1s-0.1,0-0.2-0.1
	c-0.1,0-0.2-0.1-0.3-0.1h0l0,0l-0.1,0l0,0l-0.1,0c-0.1,0-0.1,0-0.2-0.1l-0.1,0c-0.1,0-0.1,0-0.2,0l-0.1,0l0.1,0l-0.2,0
	c-0.1,0-0.1,0-0.2-0.1c0,0-0.1,0-0.1,0s-0.1,0-0.1,0C46.6,56.6,46.6,56.6,46.5,56.6C46.6,56.6,46.5,56.6,46.5,56.6L46.5,56.6z
	 M46.5,57L46.5,57L46.5,57L46.5,57L46.5,57z"/>
<path class="st4" d="M47.9,57.2c-0.1,0.1,0,0.2,0.1,0.3c0.1,0,0.1,0.1,0.2,0.1c0.1,0.1,0.1,0.1,0.2,0.1l-0.1,0c0,0,0.1,0,0.1,0l0,0
	c0,0,0.1,0,0.1,0c0,0,0.1,0,0.1,0.1c0.1,0,0.2,0.1,0.3,0.1l0.1,0c0,0,0.1,0,0.1,0l0,0h0c0.1,0.1,0.3,0,0.4-0.1
	c0.1-0.1,0.1-0.3,0-0.4c0,0-0.1-0.1-0.1-0.1c0,0,0,0-0.1,0l0,0h0l0,0l0,0l0,0c0,0-0.1,0-0.1-0.1h0c-0.1,0-0.1,0-0.2,0h0
	c-0.1,0-0.1,0-0.1,0l-0.1,0c-0.1,0-0.1,0-0.1,0c-0.1,0-0.2,0-0.3,0c0,0-0.1,0-0.1,0l-0.1,0c0,0-0.1,0-0.1,0
	C48,57,47.9,57.1,47.9,57.2L47.9,57.2z"/>
<path class="st4" d="M48.6,48.6c0,0-0.1,0.1-0.1,0.1c0,0.1,0.1,0.2,0.1,0.2l0,0c0.1,0,0.1,0,0.1,0c0.1-0.1,0.1-0.2,0-0.2
	c0,0-0.1-0.1-0.1-0.1C48.7,48.6,48.7,48.6,48.6,48.6L48.6,48.6z"/>
<path class="st4" d="M48.2,48.5h-0.1c-0.1,0-0.2,0-0.4,0c-0.1,0-0.2,0-0.3,0.1s-0.2,0-0.3,0l0,0c-0.2,0-0.3,0-0.5,0
	c-0.1,0-0.3,0-0.4,0.1c-0.1,0-0.2,0-0.4,0c-0.1,0-0.3,0.1-0.4,0.1l-0.2,0.1l0.1,0c-0.1,0-0.2,0.1-0.3,0.1c-0.1,0-0.1,0.1-0.2,0.1
	s-0.2,0.1-0.3,0.1c-0.1,0.1-0.2,0.1-0.3,0.2c-0.1,0.1-0.2,0.1-0.3,0.2s-0.2,0.1-0.4,0.2c-0.3,0.1-0.5,0.3-0.8,0.6
	c-0.1,0.1-0.1,0.1-0.2,0.2c-0.1,0.1-0.1,0.3,0,0.4c0.1,0.1,0.1,0.1,0.2,0.1c0.1,0,0.1,0,0.2-0.1c0.2-0.1,0.4-0.3,0.5-0.4
	c0.2-0.1,0.3-0.2,0.5-0.3c0.1,0,0.2-0.1,0.3-0.1s0.2-0.1,0.2-0.1s0.1-0.1,0.2-0.1s0.1-0.1,0.2-0.1c0.1-0.1,0.2-0.1,0.4-0.1
	c0.1,0,0.2-0.1,0.2-0.1s0.2-0.1,0.2-0.1c0.1,0,0.3-0.1,0.4-0.1c0.2,0,0.3-0.1,0.5-0.1c0.1,0,0.2,0,0.3,0s0.2,0,0.3,0
	c0.1,0,0.3-0.1,0.5-0.1c0.1,0,0.2,0,0.3-0.1s0.2,0,0.3,0h0.1c0.1,0,0.1,0,0.2,0c0.1,0,0.2-0.1,0.2-0.2c0-0.1-0.1-0.2-0.2-0.2
	c0,0,0,0,0,0c-0.1,0-0.2,0-0.3,0C48.4,48.5,48.3,48.5,48.2,48.5L48.2,48.5z M48.2,48.5L48.2,48.5z"/>
<path class="st0" d="M44.2,48.2c-0.1,0-0.1,0-0.2,0c0,0-0.1,0-0.1,0c-0.1,0-0.1,0-0.2,0c-0.1,0-0.3,0.1-0.4,0.1c-0.1,0-0.2,0-0.3,0
	c-0.1,0-0.2,0.1-0.2,0.2c0,0.1,0.1,0.2,0.2,0.2c0.1,0,0.2,0,0.3,0s0.2,0,0.3,0c0,0,0.1,0,0.1,0c0,0,0.1,0,0.1,0c0.1,0,0.2,0,0.3,0
	c0.2,0,0.3-0.2,0.2-0.4c0-0.1,0-0.1-0.1-0.1C44.3,48.2,44.3,48.2,44.2,48.2L44.2,48.2z"/>
<path class="st0" d="M50.1,47.6c-0.2,0-0.4,0-0.6,0l0.1,0l-0.2,0l-0.1,0l-0.1,0c-0.2,0-0.5,0-0.7,0h-0.1h0l-0.1,0
	c-0.1,0-0.2,0-0.3,0c-0.1,0-0.1,0-0.2,0l-0.1,0h0c-0.1,0-0.2,0-0.3,0h-0.1l0.1,0l-0.2,0l-0.1,0l-0.1,0l0.1,0c-0.1,0-0.3,0-0.5,0.1
	h-0.1l-0.1,0h0.1c-0.2,0-0.3,0-0.5,0.1s-0.3,0-0.5,0.1c-0.1,0-0.3,0-0.4,0.1c-0.1,0-0.3,0.1-0.4,0.1l0.1,0c-0.1,0-0.2,0-0.3,0
	c-0.1,0-0.2,0-0.3,0s-0.1,0-0.2,0h0.1l-0.1,0h0l-0.1,0c-0.1,0-0.1,0-0.2,0s-0.1,0-0.2,0c-0.1,0-0.2,0.1-0.4,0.1c-0.1,0-0.1,0-0.1,0
	h0c-0.1,0-0.1,0-0.2,0c-0.1,0-0.1,0.1-0.1,0.1c0,0.1,0,0.1,0,0.2s0.1,0.1,0.1,0.1c0.1,0,0.3,0,0.4,0.1c0.1,0,0.2,0,0.2,0
	c0.1,0,0.1,0,0.2,0s0.1,0,0.2,0c0.1,0,0.2,0,0.2,0c0.1,0,0.2,0,0.3,0c0.1,0,0.2,0,0.3-0.1c0.1,0,0.1,0,0.2,0c0.1,0,0.1,0,0.2,0
	c0.1,0,0.2,0,0.3-0.1c0.1,0,0.2,0,0.3-0.1l-0.1,0l0.2,0c0.2,0,0.4,0,0.5-0.1c0.1,0,0.3-0.1,0.4-0.1s0.3-0.1,0.4-0.1
	c0.1,0,0.3-0.1,0.4-0.1h-0.1l0.1,0c0.1,0,0.3,0,0.4,0c0.1,0,0.2,0,0.4,0l0.1,0l-0.1,0l0.1,0l0.2,0c0.1,0,0.2,0,0.3,0
	c0.1,0,0.2,0,0.3,0h0l0.3,0h0c0.1,0,0.2,0,0.3,0c0.1,0,0.1,0,0.2,0h0c0.2,0,0.4,0,0.6,0c0.2,0,0.3-0.2,0.2-0.4
	c0-0.1-0.1-0.2-0.3-0.2c-0.1,0-0.3,0-0.4,0C50.3,47.6,50.2,47.6,50.1,47.6L50.1,47.6z M49.2,47.6L49.2,47.6z M49.1,47.6L49.1,47.6
	L49.1,47.6z M48.4,47.7l-0.1,0L48.4,47.7L48.4,47.7L48.4,47.7L48.4,47.7z M47.6,47.7L47.6,47.7L47.6,47.7z M49.7,48.3L49.7,48.3
	L49.7,48.3z M48.7,48.4L48.7,48.4L48.7,48.4z M48.6,48.4L48.6,48.4z M48.2,48.4L48.2,48.4L48.2,48.4z M49.3,47.6L49.3,47.6
	L49.3,47.6z M49.4,47.6L49.4,47.6z M49.4,47.6L49.4,47.6L49.4,47.6z"/>
<path class="st0" d="M56.5,47.3c-0.1,0-0.1,0-0.2,0h-0.1c-0.1,0-0.2,0-0.3,0h-0.2c-0.2,0-0.5,0-0.7,0c-0.1,0-0.2,0-0.4,0
	c-0.1,0-0.1,0-0.2,0c-0.1,0-0.2,0-0.3,0l0.1,0l-0.2,0h0.1l-0.3,0h-0.1h0c-0.1,0-0.1,0-0.2,0l-0.2,0h0.1c-0.1,0-0.3,0-0.4,0.1
	c-0.1,0-0.2,0-0.3,0.1c-0.1,0-0.2,0-0.3,0c-0.1,0-0.2,0.1-0.2,0.2s0.1,0.2,0.2,0.2c0.1,0,0.2,0,0.3,0c0.1,0,0.3,0.1,0.4,0.1
	c0.1,0,0.2,0,0.3,0s0.1,0,0.2,0c0,0,0.1,0,0.1,0s0.1,0,0.1,0c0.1,0,0.1,0,0.2,0h0.1c0.1,0,0.2,0,0.3,0c0.1,0,0.1,0,0.2,0
	c0.1,0,0.1,0,0.2,0c0.1,0,0.3,0,0.4,0s0.3,0,0.4,0s0.3,0,0.5,0c0.1,0,0.3,0,0.4-0.1c0.1,0,0.1,0,0.2,0c0.1,0,0.2,0,0.3,0
	c0.1,0,0.3,0,0.4,0s0.3,0,0.4,0c0.1,0,0.3,0,0.4,0h-0.1l0.1,0c0.1,0,0.2,0,0.3,0s0.2,0,0.3,0c0.1,0,0.2,0,0.3,0c0.1,0,0.2,0,0.2,0
	l0.1,0l0.3,0c0.1,0,0.2,0,0.4,0h0l0.1,0c0.1,0,0.2,0,0.3,0c0.1,0,0.1,0,0.2,0c0.1,0,0.3,0,0.4,0h-0.1l0.1,0l0.4,0h-0.1
	c0.1,0,0.2,0,0.4,0c0.2,0,0.3,0,0.5,0c0.2,0,0.3-0.1,0.4-0.1c0.2,0,0.4-0.1,0.6-0.1c0.1,0,0.2-0.1,0.2-0.3c0-0.1-0.1-0.3-0.3-0.3h0
	c-0.2,0-0.4,0-0.6,0.1c-0.1,0-0.2,0-0.3,0c-0.1,0-0.2,0-0.4,0c-0.1,0-0.2,0-0.3,0c-0.2,0-0.4,0-0.6,0c-0.2,0-0.3,0-0.5,0
	c-0.2,0-0.4,0-0.6-0.1c-0.1,0-0.2,0-0.4,0c-0.1,0-0.2,0-0.3,0c-0.1,0-0.2,0-0.3,0s-0.2,0-0.3,0c-0.2,0-0.4,0-0.6,0
	c-0.1,0-0.2,0-0.3,0s-0.2,0-0.3,0c-0.1,0-0.2,0-0.4,0s-0.2,0-0.4,0c-0.1,0-0.1,0-0.2,0C56.8,47.3,56.7,47.3,56.5,47.3L56.5,47.3z
	 M54.2,47.4L54.2,47.4L54.2,47.4z M61.7,48.2L61.7,48.2z"/>
<path class="st0" d="M49.2,47.6c-0.1,0-0.2,0-0.3,0.1s-0.2,0-0.3,0.1c-0.1,0-0.1,0.1-0.1,0.2c0,0.1,0.1,0.1,0.2,0.1
	c0.1,0,0.2,0,0.3-0.1l0.2,0c0,0,0.1,0,0.1,0c0.1,0,0.1-0.1,0.1-0.1c0,0,0-0.1,0-0.1C49.3,47.6,49.2,47.6,49.2,47.6L49.2,47.6z"/>
<path class="st0" d="M53.5,47.5c-0.1,0-0.1,0-0.2,0c-0.1,0-0.2,0-0.3,0c-0.2,0-0.5,0-0.7,0c-0.1,0-0.1,0-0.2,0c-0.1,0-0.2,0-0.3,0
	c-0.1,0-0.2,0-0.3,0c-0.1,0-0.3,0-0.4,0c-0.1,0-0.2,0-0.2,0s-0.1,0-0.2,0s-0.1,0-0.2,0s-0.1,0-0.2,0l-0.2,0h-0.1h-0.1
	c-0.1,0-0.1,0-0.1,0c-0.1,0-0.1,0-0.2,0c-0.2,0-0.3,0-0.5,0.1c-0.1,0-0.2,0-0.2,0.1c-0.1,0-0.1,0-0.2,0c-0.1,0-0.3,0-0.4,0
	c-0.1,0-0.2,0.1-0.2,0.2s0.1,0.2,0.2,0.2l0,0c0.1,0,0.3,0,0.4,0s0.2,0,0.3,0s0.2,0,0.3,0c0,0,0.1,0,0.1,0c0.1,0.1,0.1,0.1,0.2,0.1
	c0,0,0,0,0.1,0c0.1,0,0.1,0,0.2,0s0.1,0,0.2,0c0.1,0,0.2,0,0.3,0l-0.1,0c0.1,0,0.2,0,0.4,0l-0.1,0c0.1,0,0.1,0,0.2,0s0.1,0,0.2,0
	c0.1,0,0.3,0,0.4,0c0.1,0,0.2,0,0.4,0c0.1,0,0.1,0,0.2,0c0.1,0,0.1,0,0.2,0c0.1,0,0.3,0,0.4,0h0.2c0.1,0,0.1,0,0.2,0l0,0
	c0.1,0,0.1,0,0.2,0c0.1,0,0.1,0,0.2,0c0.1,0,0.2,0,0.3,0l-0.1,0l0.1,0c0.1,0,0.3,0,0.4-0.1c0.1,0,0.3-0.2,0.3-0.3
	c0-0.2-0.1-0.4-0.3-0.4C53.7,47.5,53.6,47.5,53.5,47.5L53.5,47.5z M48.5,47.7L48.5,47.7L48.5,47.7z"/>
<path class="st0" d="M60.1,47.5c-0.2,0-0.3,0-0.5,0h0l-0.1,0c-0.1,0-0.3,0-0.4,0s-0.3,0-0.5,0c-0.1,0-0.3,0-0.4,0
	c-0.2,0-0.3,0-0.5,0l0.1,0c-0.1,0-0.2,0-0.3,0h-0.1c0,0-0.1,0-0.1,0l-0.5,0c-0.2,0-0.3,0-0.5,0s-0.4,0-0.5,0h0c-0.1,0-0.1,0-0.2,0
	h0.1c-0.1,0-0.2,0-0.3,0c-0.1,0-0.3,0-0.4,0c-0.1,0-0.2,0-0.3,0s-0.2,0-0.3,0h-0.1c0,0-0.1,0-0.1,0c-0.1,0-0.1,0-0.2,0
	c-0.1,0-0.2,0-0.3,0c-0.1,0-0.1,0-0.2,0c-0.1,0-0.1,0-0.1,0c-0.1,0-0.2,0.1-0.2,0.3c0,0,0,0,0,0.1c0.1,0.1,0.2,0.1,0.3,0.2
	c0.1,0,0.2,0,0.3,0.1c0.1,0,0.3,0,0.4,0c0.1,0,0.3,0,0.4,0h-0.1c0.1,0,0.2,0,0.3,0c0.1,0,0.2,0,0.3,0c0.1,0,0.2,0,0.3,0.1
	c0.1,0,0.2,0,0.3,0c0.2,0,0.4,0,0.6,0c0.2,0,0.5,0,0.7,0c0.1,0,0.2,0,0.3,0h0.2c0.1,0,0.1,0,0.2,0c0.1,0,0.3,0,0.5,0
	c0.1,0,0.2,0,0.3,0c0.1,0,0.2,0,0.3,0c0.1,0,0.2,0,0.4,0c0.1,0,0.3,0,0.4,0c0.1,0,0.2,0,0.3,0c0.1,0,0.2,0,0.4,0c0.1,0,0.1,0,0.2,0
	c0.1,0,0.1,0,0.2,0c0.1,0,0.2-0.1,0.2-0.1c0.1-0.1,0.2-0.3,0.1-0.4c-0.1-0.1-0.1-0.2-0.3-0.2c-0.1,0-0.2,0-0.3,0
	C60.2,47.5,60.1,47.5,60.1,47.5L60.1,47.5z M55.5,47.7L55.5,47.7L55.5,47.7z M58.3,48.3L58.3,48.3L58.3,48.3z M55,48.4L55,48.4
	L55,48.4L55,48.4L55,48.4z M55.1,48.4L55.1,48.4L55.1,48.4z"/>
<path class="st4" d="M40.2,53.5c-0.1,0.1-0.1,0.3-0.1,0.4c0,0.1,0,0.2,0.1,0.3v0v0l0,0v0v0l0,0c0,0,0,0.1,0.1,0.1
	c0,0.1,0.1,0.1,0.1,0.2c0.1,0.1,0.1,0.2,0.2,0.3c0,0.1,0.1,0.1,0.1,0.2c0.1,0.1,0.1,0.2,0.2,0.3c0.1,0.1,0.2,0.2,0.3,0.3
	c0.2,0.1,0.4,0.3,0.6,0.4c0.5,0.2,1,0.4,1.5,0.5c0.2,0.1,0.3,0.1,0.5,0.1s0.4,0.1,0.6,0.1c0.2,0,0.3,0.1,0.5,0.1
	C45,57,45.2,57,45.4,57c0.4,0.1,0.8,0.3,1.2,0.4c0.2,0.1,0.4,0.1,0.6,0.2c0.1,0,0.2,0.1,0.2,0.1c0.1,0,0.3,0.1,0.4,0.1l-0.1,0
	c0.1,0,0.2,0.1,0.4,0.1c0.1,0,0.2,0,0.3,0.1l0,0c0.1,0,0.1,0,0.2,0.1c0,0,0.1,0,0.1,0c0.1,0,0.1,0,0.2,0c0.1,0,0.1,0,0.2,0
	c0.1,0,0.2,0,0.3,0c0.1,0,0.2-0.1,0.3-0.1c0.2-0.1,0.3-0.3,0.3-0.6c0-0.1-0.1-0.2-0.2-0.3c-0.1-0.1-0.3-0.1-0.4-0.1l-0.1,0
	c-0.1,0-0.3,0-0.4,0l-0.1,0c-0.1,0-0.1,0-0.2,0h0l0,0c-0.1,0-0.1,0-0.1,0c0,0-0.1,0-0.2,0c-0.1,0-0.3-0.1-0.4-0.1l0.1,0
	c-0.1,0-0.3-0.1-0.5-0.1l0.1,0c-0.3-0.1-0.7-0.1-1-0.3c-0.2-0.1-0.3-0.1-0.5-0.1C45.8,56,45.6,56,45.4,56l-0.3-0.1l0.1,0
	c-0.1,0-0.2-0.1-0.3-0.1c-0.1,0-0.3-0.1-0.4-0.1l-0.2,0c-0.1,0-0.3-0.1-0.4-0.1l0.1,0l-0.3-0.1c-0.2,0-0.4-0.1-0.6-0.1l0.1,0
	c-0.3-0.1-0.6-0.1-0.9-0.3c-0.2-0.1-0.5-0.2-0.7-0.3c-0.1-0.1-0.2-0.1-0.3-0.2c0,0-0.1-0.1-0.1-0.1c-0.1-0.1-0.1-0.1-0.2-0.2
	c-0.1-0.1-0.2-0.3-0.3-0.4c0-0.1-0.1-0.1-0.1-0.1c0,0,0,0,0,0s0,0,0,0c0,0,0-0.1,0-0.1c0-0.1,0-0.3-0.2-0.4c0,0-0.1,0-0.1,0
	C40.4,53.3,40.3,53.4,40.2,53.5z M40.2,54.3L40.2,54.3L40.2,54.3L40.2,54.3L40.2,54.3z M40.2,54.3L40.2,54.3L40.2,54.3L40.2,54.3
	L40.2,54.3z"/>
<path class="st4" d="M65.3,49.8c-0.1,0-0.2,0.1-0.2,0.3c0,0.1,0,0.1,0.1,0.1c0.1,0.1,0.2,0.1,0.4,0.2l0.1,0.1c0,0,0.1,0.1,0.1,0.1
	l0.1,0.1c0.1,0.1,0.3,0,0.4-0.1c0.1-0.1,0.1-0.3,0-0.4c-0.1-0.1-0.1-0.1-0.2-0.1l-0.1,0c0,0-0.1,0-0.1,0h-0.1l-0.1,0
	c-0.1,0-0.2-0.1-0.3-0.1h0C65.4,49.9,65.4,49.8,65.3,49.8L65.3,49.8L65.3,49.8z M65.4,49.8L65.4,49.8L65.4,49.8z"/>
<g>
	<path class="st4" d="M70.4,53.4c0-0.1,0-0.3-0.1-0.4c0-0.1-0.1-0.2-0.1-0.3c0-0.1-0.1-0.2-0.1-0.2c0-0.1-0.1-0.2-0.1-0.3
		c-0.1-0.1-0.1-0.1-0.1-0.2c-0.1-0.1-0.1-0.1-0.2-0.2c-0.1,0-0.1-0.1-0.1-0.1l0,0l0,0c0-0.1-0.1-0.1-0.1-0.2
		c-0.1-0.1-0.1-0.2-0.2-0.2c-0.1-0.1-0.1-0.1-0.2-0.1L69,51c-0.1-0.1-0.2-0.1-0.3-0.2c-0.1-0.1-0.2-0.1-0.2-0.1l0,0
		c-0.1-0.1-0.2-0.1-0.2-0.2c-0.1-0.1-0.1-0.1-0.2-0.1l-0.1-0.1c-0.1-0.1-0.2-0.1-0.2-0.1c-0.1-0.1-0.1-0.1-0.2-0.2
		c-0.1-0.1-0.2-0.1-0.3-0.2c-0.1-0.1-0.2-0.1-0.4-0.2c-0.1,0-0.2-0.1-0.3-0.1l-0.3-0.1c-0.1,0-0.3-0.1-0.4-0.1
		c-0.1,0-0.2-0.1-0.3-0.1C65.3,49,65.1,49,65,49c-0.1,0-0.2-0.1-0.3-0.1c-0.1,0-0.2-0.1-0.3-0.1c-0.2-0.1-0.3-0.1-0.5-0.2
		c-0.1,0-0.2-0.1-0.3-0.1s-0.2-0.1-0.3-0.1c-0.2-0.1-0.4-0.1-0.6-0.2c-0.1,0-0.3-0.1-0.4-0.1c-0.1,0-0.3,0-0.4,0s-0.2,0-0.4,0l0,0
		c-0.1,0-0.2,0-0.4,0H61h0l-0.2,0l-0.1,0c-0.1,0-0.3,0-0.4,0c-0.1,0-0.1,0-0.2,0s-0.1,0-0.2,0c0,0-0.1,0-0.1,0c0,0,0,0-0.1,0
		c-0.4-0.1-0.9-0.1-1.4-0.2l-0.4,0c-0.4,0-0.7-0.1-1.1-0.1c-0.1,0-0.2,0-0.4,0l0,0c-0.1,0-0.2,0-0.3,0l-0.2,0c-0.2,0-0.3,0-0.5,0
		l-0.4,0c-0.1,0-0.2,0-0.4,0C54.4,48,54.2,48,54,48h0c-0.2,0-0.5,0-0.7,0.1l-0.3,0c-0.4,0-0.8,0.1-1.2,0.1h0c-0.3,0-0.7,0.1-1.1,0.1
		c-0.3,0-0.6,0.1-0.9,0.1c-0.1-0.1-0.2-0.1-0.4-0.1c-0.2,0-0.5,0-0.7,0c-0.2,0-0.4,0-0.6,0l0,0c-0.4,0-0.7,0.1-1.1,0.1l-0.1,0
		c-0.1,0-0.3,0-0.4,0c-0.2,0-0.3,0-0.5,0.1c-0.3,0-0.5,0.1-0.8,0.1c-0.2,0-0.4,0.1-0.7,0.1c-0.2,0.1-0.4,0.1-0.6,0.2
		c-0.1,0.1-0.2,0.1-0.3,0.2c0,0-0.1,0.1-0.1,0.1c-0.1,0.1-0.2,0.1-0.3,0.2c0,0,0,0-0.1,0.1c0,0,0,0-0.1,0c-0.2,0.1-0.4,0.2-0.6,0.3
		c-0.2,0.1-0.3,0.2-0.5,0.3l0,0c-0.1,0.1-0.3,0.2-0.4,0.3c-0.2,0.1-0.3,0.2-0.5,0.4l-0.1,0.1l0,0c-0.2,0.1-0.3,0.3-0.5,0.4
		c-0.1,0.1-0.2,0.3-0.3,0.4c-0.1,0.2-0.2,0.3-0.2,0.5c0,0,0,0.1,0,0.1c0,0.1-0.1,0.2-0.1,0.2c0,0.2,0,0.3-0.1,0.5
		c0,0.4,0.1,0.7,0.2,1c0.1,0.1,0.2,0.3,0.3,0.4c0.1,0.1,0.2,0.2,0.3,0.3c0.3,0.2,0.6,0.4,0.9,0.6c0.3,0.2,0.6,0.3,0.9,0.4
		c0.2,0.1,0.3,0.1,0.5,0.1l0.1,0.1c0.2,0.1,0.4,0.2,0.6,0.2c0.1,0,0.1,0.1,0.2,0.1c0.4,0.2,0.8,0.3,1.2,0.4c0.4,0.1,0.8,0.2,1.2,0.3
		c0.4,0.1,0.9,0.2,1.3,0.3c0.2,0,0.3,0.1,0.5,0.1c0.3,0.1,0.6,0.1,0.9,0.1l0.1,0c0,0,0,0.1,0,0.1c0.1,0.1,0.2,0.2,0.3,0.3
		c0.1,0,0.1,0,0.2,0l0.1,0c0.1,0,0.2,0,0.3,0c0.1,0,0.2,0,0.3,0s0.2,0,0.3,0l0.3,0c0.1,0,0.2,0,0.3,0c0.1,0,0.2,0,0.3,0
		c0,0,0.1,0,0.1,0c0.1,0,0.1,0,0.2,0c0.4,0,0.7,0,1.1,0.1c0,0,0.1,0,0.1,0s0.1,0,0.1,0c0.1,0,0.2,0,0.3,0c0.1,0,0.1,0,0.2,0
		c0.1,0,0.1,0,0.2,0c0.1,0,0.2,0,0.3,0c0.1,0,0.1,0,0.2,0c0.1,0,0.2,0,0.3,0c0.1,0,0.3,0,0.4,0c0.1,0,0.2,0,0.3,0c0.1,0,0.2,0,0.3,0
		c0.1,0,0.3,0,0.4,0c0.1,0,0.3,0,0.5,0c0.2,0,0.3,0,0.5,0c0.1,0,0.2,0,0.2,0c0.1,0,0.2,0,0.3,0c0.1,0,0.3,0,0.4,0c0.1,0,0.2,0,0.3,0
		c0.1,0,0.2,0,0.3,0l0.4,0c0.1,0,0.1,0,0.2,0c0.1,0,0.2,0,0.3,0c0.1,0,0.3,0,0.4,0c0.1,0,0.2,0,0.3,0c0.1,0,0.3,0,0.5,0
		c0.1,0,0.2,0,0.3,0c0.1,0,0.3,0,0.4,0c0.1,0,0.2,0,0.4,0c0.1,0,0.2,0,0.3,0h-0.1c0.1,0,0.2,0,0.3,0c0.1,0,0.2,0,0.3,0
		c0.2,0,0.4-0.1,0.6-0.1c0.1,0,0.3-0.1,0.4-0.1c0.1,0,0.1-0.1,0.2-0.1c0.1,0,0.2,0,0.3-0.1c0.3-0.1,0.6-0.1,0.9-0.2
		c0.3-0.1,0.5-0.1,0.7-0.2c0.3-0.1,0.6-0.2,0.9-0.4l0.2-0.1c0.3-0.1,0.6-0.2,0.9-0.4c0.2-0.1,0.4-0.2,0.6-0.3
		c0.2-0.1,0.4-0.2,0.6-0.4c0.2-0.1,0.4-0.3,0.6-0.4c0.1-0.1,0.3-0.2,0.4-0.3c0.2-0.1,0.4-0.3,0.5-0.5c0.1-0.1,0.1-0.3,0.2-0.4
		c0.1-0.1,0.1-0.3,0.1-0.4C70.5,53.6,70.4,53.5,70.4,53.4z M43.5,54.6l-0.1,0c-0.2-0.1-0.4-0.1-0.7-0.2c-0.2-0.1-0.3-0.2-0.5-0.3
		l-0.1,0c-0.2-0.1-0.4-0.2-0.5-0.3c0,0,0.1,0.1,0.1,0.1l0,0h0l0.1,0.1c0.2,0.1,0.4,0.2,0.5,0.3l0.2,0.1c0.2,0.1,0.4,0.1,0.5,0.2
		c0.1,0,0.2,0.1,0.2,0.1l0,0L43.5,54.6L43.5,54.6L43.5,54.6z"/>
	<path class="st4" d="M45.8,48.6c0.1,0,0.1,0,0.2,0c0,0,0,0,0.1,0L45.8,48.6z"/>
</g>
<path class="st5" d="M54.2,54.8c-0.4,1-1.2,0.3-1.8,0.5c0-1-0.1-1.8-0.1-2.7h-0.4c0,0.8-0.1,1.7-0.1,2.6h-1.7v-3.8
	c1.1-0.1,2.1-0.2,3.1-0.2c0.7,0,1,0.3,0.8,1.2C53.9,53.1,54.2,54,54.2,54.8L54.2,54.8z"/>
<path class="st5" d="M54.3,54.8c-0.1-0.4-0.2-0.9-0.2-1.3c-0.1-1.9,0.9-2.7,2.8-2.3c1.5,0.3,1.1,1.6,1.4,2.4
	c0.2,0.8-0.3,1.5-1.2,1.7C56,55.6,55.1,55.5,54.3,54.8L54.3,54.8z M56,54.2h0.3v-1.8H56V54.2z"/>
<path class="st5" d="M49.6,53.7c0,1.3-0.4,1.6-1.8,1.6c-1.5,0-2.1-0.7-2-2.2c0.1-1.4,1-2.1,2.5-2c1.3,0.1,1.5,0.5,1.3,2.3l-2,0.1
	l-0.1,0.3c0.3,0.1,0.5,0.3,0.8,0.3C48.7,54,49.1,53.9,49.6,53.7z"/>
<path class="st5" d="M68.5,52.5l-2.1-0.3l-0.1,0.2c0.3,0.1,0.7,0.3,1,0.4c0.7,0.1,1.2,0.4,1.2,1.2c0,0.8-0.4,1.2-1.1,1.4
	c-1.4,0.4-2.5,0-2.9-1.3l2.1,0.2l0.1-0.1c-0.3-0.1-0.7-0.4-1-0.4c-0.7-0.2-1.2-0.6-1.1-1.4c0-0.8,0.6-1.1,1.3-1.3
	C67.2,50.9,68.1,51.3,68.5,52.5z"/>
<path class="st5" d="M62.3,51.5c-0.3,1.1-0.4,2.4-0.9,3.5c-0.1,0.3-1.1,0.3-1.8,0.3c-0.3,0-0.7-0.2-0.8-0.4
	c-0.4-1.1-0.6-2.2-0.9-3.3c1.6-0.5,1.8-0.4,2.3,1.6C60.4,51.8,60.6,50.8,62.3,51.5z"/>
<path class="st5" d="M45.9,51.6c-0.4,1.3-0.8,1.4-1.9,0.4v1.8c0.5-0.1,0.9-0.3,1.4-0.4c0.1,0,0.3,0.5,0.4,0.7c0,0.1,0,0.5-0.1,0.5
	c-0.7,0.2-1.4,0.5-2.1,0.4c-0.5-0.1-1.1-0.6-1.3-1c-0.4-0.9-0.1-2.3,0.6-2.7C43.5,50.8,45,51,45.9,51.6z"/>
<path class="st5" d="M64.1,55.3h-1.7v-3.9h1.7V55.3z"/>
<path class="st5" d="M64.5,50.3c-0.6,0.3-0.9,0.6-1.2,0.6c-0.3-0.1-0.5-0.5-0.7-0.7c0.3-0.2,0.6-0.5,0.9-0.6
	C63.7,49.6,64,49.9,64.5,50.3z"/>
</svg>
