<?xml version="1.0" encoding="utf-8"?>
<!-- Generator: Adobe Illustrator 25.2.3, SVG Export Plug-In . SVG Version: 6.00 Build 0)  -->
<svg version="1.1" id="Calque_1" xmlns="http://www.w3.org/2000/svg" xmlns:xlink="http://www.w3.org/1999/xlink" x="0px" y="0px"
	 viewBox="0 0 105 105" style="enable-background:new 0 0 105 105;" xml:space="preserve">
<style type="text/css">
	.st0{fill:#B4A9C8;}
	.st1{fill:#8E84B1;}
	.st2{fill:#C8BFDB;}
	.st3{fill:#ECE9F0;}
	.st4{fill:#AB603A;}
	.st5{fill:#D1BB8F;}
</style>
<path class="st0" d="M99.8,33c-0.4,0-0.8,0-1.2-0.1c-0.7,0-1.3-0.1-2-0.1c-1.3,0-2.7-0.1-4-0.1c0,0,0,0,0,0c-0.3,0-0.7,0-1,0
	c-1.3,0-2.5,0-3.8,0c-1.7,0-3.3,0-5,0c-1.6,0-3.3,0-4.9,0c-0.2,0-0.3,0-0.5,0c-0.1,0-0.2,0-0.4,0c-0.1,0-0.2,0-0.3-0.1
	c-0.1,0-0.2,0-0.2,0c-0.2,0-0.3-0.1-0.5-0.1c-0.1,0-0.2,0-0.2,0c-0.1,0-0.2,0-0.3-0.1c0,0-0.1,0-0.1,0c-0.5-0.1-1-0.1-1.5-0.1
	c-0.1,0-0.2,0-0.3,0c-0.1,0-0.2,0-0.2,0c0,0-0.1,0-0.1-0.1c0,0,0,0,0,0c-0.1,0-0.1-0.1-0.1-0.2c0,0,0-0.1-0.1-0.1l0,0
	c0-0.1-0.1-0.1-0.1-0.2l0,0c-2-0.3-4.1-0.1-6.1-0.1c-0.2,0.5-0.6,0.3-0.9,0.3c-8,0-16.1,0-24.1,0c-2.2,0-4.4-0.3-6.6,0
	c-1.1,0.1-2.1-0.4-3.2,0.1c-0.3,0.1-1-0.2-1.5-0.2c-0.7-0.1-1.1,0.2-1,0.9c0.4,0.1,0.8-0.1,1.1,0.2l1.7,0l0.2-0.1h0.7l5.5,0
	c0.2,0,0.4,0.1,0.5,0.2h0.6c0.2-0.3,0.5-0.3,0.7,0h0.4c0.1-0.1,0.1-0.1,0.2,0c0.4-0.1,0.9-0.2,1.3-0.1c0.3-0.4,0.4-0.1,0.6,0.1
	c3.7,0,7.4,0,11.2,0.1c2.3,0.1,4.7,0.1,7,0c0.9,0,1.8,0.1,2.7,0.1c3.7,0.1,7.5-0.2,11.2-0.1c2.6,0.1,5.1,0,7.7,0c2.7-0.1,5.3,0,8,0
	h0l10.1,0.2c0.2,0,0.5,0,0.6,0.2c0,0,0,0,0,0c0,0.1,0.1,0.1,0.1,0.2c0.1,0.4-0.2,0.5-0.5,0.5c-0.2,0-0.3,0.1-0.2,0.4
	c0.4,2.2,0.2,4.4,0.1,6.5c0,0.2-0.1,0.3-0.1,0.4c0.5,1.9-0.4,3.8,0.1,5.7c0.1,0.5-0.2,1.2-0.1,1.7c0.1,1.7,0.1,3.4,0.3,5.1
	c0.1,0.4,0,0.8,0,1.2v0c0.3,1.1,0.3,2.3,0,3.4l0,0c0,0,0,0.1,0,0.1c0.1,0.6,0,1.2-0.2,1.8c0,0.2,0.1,0.5-0.2,0.5
	c-0.1,0-0.2,0-0.3-0.1c0,0,0,0,0,0c-0.1-0.1-0.1-0.2-0.2-0.3c-0.2-0.3-0.3-0.6-0.3-1c0-0.3,0.1-0.6,0.1-1v0l0-0.5v0v-0.4l0,0
	c0-0.5,0.1-1.1-0.3-1.5c0,0.4-0.1,0.9,0,1.3c0.1,0.5-0.2,0.6-0.6,0.7c0.7,0,0.7,0.4,0.7,1c0,0.1,0,0.3,0.1,0.4
	c0,0.5-0.1,0.9-0.7,1.1c-0.2,0.5,0,1.2-0.7,1.6c0,0,0,0,0-0.1c0-0.2-0.1-0.4-0.2-0.6c0,0,0,0,0,0c-0.2-0.3-0.6-0.5-0.8-0.8l0,0
	c0,0-0.1-0.1-0.1-0.1c0,0,0,0,0,0c-0.2-0.2-0.7,0.4-0.7,0.5c0.1,0.6-0.6,0.7-0.5,1.2c0,0,0-0.1,0-0.1c-0.1-0.1-0.1-0.3-0.2-0.4l0,0
	c-0.2-0.2-0.4-0.2-0.8,0.1c-0.4,0.4-0.7,0.4-1,0.2c-0.1-0.1-0.2-0.3-0.2-0.5c-0.1-0.4-0.1-0.8-0.4-1.1c0,0,0,0,0,0
	c-0.1-0.1-0.2-0.2-0.3-0.2c-0.6-0.3-1,0.5-1.5,0.7c-0.2,0.1-0.1,0.2-0.1,0.4v0c0,0,0,0,0.1,0.1c0.1,0.1,0.3,0.2,0.4,0.2
	c0.1,0.1,0.1,0.2-0.1,0.4c-0.3,0.4-0.7,0.6-1,0.3c-1-0.7-0.8,0.1-0.9,0.6c0,0,0,0-0.1-0.1c-0.2-0.2,0-0.6-0.2-0.8l0,0
	c0,0,0,0-0.1-0.1c-0.4,0.1-0.2,0.5-0.5,0.6c0,0,0,0,0,0c0,0,0,0,0,0c0,0-0.1-0.1-0.1-0.1c0-0.1-0.1-0.1-0.1-0.1c0,0,0-0.1-0.1-0.1
	c-0.3-0.3-0.4-0.2-0.7,0.4c0,0,0,0,0-0.1c-0.3-0.6-0.2-0.6,1.4-1.2c-0.1,0-0.1,0-0.2,0c-1.1,0.1-2.3,0.3-3.4,0.4
	c-0.5,0-0.5,0.4-0.6,0.7c-0.1,0.3-0.2,0.7,0,0.9l0,0c0,0,0.1,0.1,0.1,0.1c0.2,0.2,0.6,0.5,0.8-0.1c0-0.2,0.2-0.3,0.3-0.3
	c0.1,0,0.1,0,0.1,0l0,0c0.1,0.1,0.1,0.1,0.1,0.2c0,0.5,0,1,0.3,1.4c0,0,0,0,0,0c0.1,0.1,0.2,0.2,0.4,0.3l0,0c0.1,0.1,0,0.4,0,0.7v0
	c0,0,0,0,0,0c0.6-0.1,0.2-0.8,0.5-1c0.1,0,0.1,0.1,0.1,0.1c0.1,0.2,0.1,0.5,0.1,0.7c0,0.1,0.1,0.1,0.2,0.1c0.5-0.1,0-0.8,0.5-1
	c0,0,0.1,0,0.1,0.1l0,0c0.2,0.2,0,0.6,0.1,0.8c0,0.1,0.1,0.1,0.2,0.1c0.5,0,0.2-0.6,0.3-0.9c0.1-0.5,0.4-0.2,0.6-0.2
	c0.2,0,0.5,0.1,0.6-0.1c0.1-0.1,0.1-0.2,0-0.3c-0.1-0.1-0.2-0.2-0.3-0.2c0-0.1-0.1-0.1-0.1-0.1c0,0,0,0,0,0
	c-0.1-0.2-0.1-0.3,0.1-0.4c0.2-0.1,0.3-0.5,0.6-0.3c0.1,0.1,0.1,0.1,0.2,0.2c0,0,0,0,0,0c0.1,0.1,0,0.3-0.1,0.4
	c-0.1,0.2-0.1,0.3,0,0.4c0.1,0.1,0.1,0.1,0.2,0.2c0.4,0.1,0.3-0.3,0.4-0.5c0.1-0.1,0.1-0.2,0.1-0.4c0-0.3-0.1-0.7,0.4-0.7
	c0.2,0,0.4,0.1,0.4,0.2c0.1,0.1,0.1,0.3,0.1,0.5c0,0.1,0,0.3,0.1,0.4c0,0.1,0.1,0.1,0.2,0.1c0.3,0,0.2-0.3,0.2-0.5
	c0-0.3,0.1-0.6,0.4-0.6c0.1,0,0.2,0,0.3,0.1l0,0c0.1,0.1,0.1,0.4,0.1,0.5c0.1,0.2,0.1,0.3,0.2,0.5c0,0,0,0,0,0
	c0.1,0.2,0.3,0.4,0.6,0.3c0.6-0.1,0.3-0.6,0.4-1c0.1-0.2-0.1-0.4,0.2-0.6c0,0,0,0,0,0c0.2,0.9,0.1,1.8,0.2,2.6c0,0.1,0,0.3,0,0.4
	l0,0c0,0.1,0.1,0.1,0.2,0.1c0.4,0,0.3-0.3,0.3-0.6c0-0.3-0.1-0.7,0.4-0.6c0.2,0,0.3,0.1,0.4,0.2c0.1,0.1,0.1,0.2,0,0.3
	c-0.2,0.4-0.2,0.6-0.1,0.7l0,0c0.1,0.2,0.6,0,0.9,0c0.1,0,0.2,0,0.3-0.1c0,0,0,0,0,0c-0.1-0.1-0.2-0.2-0.3-0.3l0,0c0,0,0,0,0-0.1
	c-0.1-0.3-0.4-0.6,0-0.8c0.2-0.1,0.4,0,0.5,0.1c0,0,0,0,0,0c0.1,0.1,0.1,0.3,0.2,0.4c0,0.1,0,0.1,0,0.2c0,0.1,0,0.2,0,0.3
	c0,0.1,0.1,0.1,0.2,0.1c0.3,0,0.3-0.2,0.3-0.5c-0.1-0.3-0.3-0.7,0.2-0.7c0.1,0,0.2,0,0.3,0.1l0,0c0.1,0.1,0,0.4,0.1,0.6
	c0.1,0.5,0,0.8-0.4,1.1c-0.1,0-0.2,0.1-0.2,0.1c0.3,1.5-0.9,0.9-1.4,0.9c-3.8,0.1-7.5,0-11.3,0c-0.4,0-0.9-0.2-1.1,0.2
	c-0.1,0.1-0.1,0.2,0,0.3c0.1,0.2,0.3,0.2,0.5,0.4c0,0.1,0.1,0.1,0.1,0.2c0.4,0,0.7,0.1,1,0.3c0.8-0.3,1.5-0.5,2.2,0.5
	c-0.8-0.2-1.6,0.1-2.3-0.5c-0.5,0.3-1,0.5-1.5,0.2c-0.5,0.2-1,0-1.4,0l-0.2,0.2c0,0.1,0,0.2-0.2,0.3c0,0-0.1-0.1-0.1-0.1
	c0-0.2,0.1-0.2,0.3-0.2l0.2-0.2l0,0c0.3-0.5,0.8-0.9,1.2-1.3c-0.1-0.1-0.2-0.2-0.3-0.3c0,0,0,0,0,0c0,0,0,0-0.1,0
	c-0.2-0.1-0.4-0.1-0.6-0.1c-10.1,0-20.2,0-30.4,0c-1.1,0-2.1,0.7-2.6,1.8c-0.3,0.8-1.4,1.2-2.2,0.8c0,0,0,0,0,0l0,0c0,0,0,0,0,0
	c-0.1,0-0.1-0.1-0.1-0.1l0,0c-0.1,0-0.1,0-0.2,0.2c-0.1,0.2-0.3,0.2-0.5,0.1c0,0,0,0,0,0c0,0,0,0,0,0c-0.1-0.1-0.1-0.2,0-0.3
	c0.2-0.1-0.1-0.6,0.4-0.4c0.2,0.1,0.4,0.1,0.5-0.2c0.1-0.3-0.1-0.4-0.3-0.5l0,0c0,0-0.1,0-0.1-0.1c-1.7-0.9-3.6-1.2-5.5-1.2
	c-12.8,0.1-25.7,0-38.5,0c-1.3,0-1.3,0.1-1.1,1.4c0.1,0.8,0.1,1.7,0,2.5c0,0.6,0.1,1,0.4,1.2c0,0,0,0,0.1,0c0.2,0.1,0.5,0.1,0.8,0
	c1-0.3,2,0.1,2.9,0.1c22.8,0,45.7,0,68.5,0H100c1.3,0,1.5-0.1,1.4-1.4c0-0.9,0.4-1.7,0.1-2.6c-0.1-0.2,0.1-0.2,0.3-0.3h0
	c0.1-0.3,0.1-0.7,0-1c0,0,0,0,0,0c-0.1-0.1-0.1-0.2,0-0.2c0,0,0,0,0,0v-1.6l0,0c-0.3-0.3-0.2-0.7-0.2-1.1c0-0.9,0-1.8,0-2.7
	c0-0.7,0-1.4,0.1-2.1c0-0.3,0-0.6,0-0.8c0-0.2,0-0.4,0-0.6c0-0.3,0-0.6,0-0.9c0-0.3,0-0.7,0-1c0-0.1,0-0.2,0-0.4c0-0.4,0-0.8,0-1.2
	c0-6.6,0-13.2,0-19.9c0-0.6,0-1.3,0.2-1.9v-0.4C101.3,33.1,100.5,33.1,99.8,33z M44.6,32.7c0,0-0.1-0.1-0.1-0.1c0.1,0,0.1-0.1,0.1,0
	s0.1,0.1,0.1,0.1C44.6,32.7,44.6,32.7,44.6,32.7z M49.2,32.8c-1.2,0-2.4,0.1-3.6-0.1c-0.2,0-0.4,0-0.4-0.2c0-0.1,0.1-0.2,0.3-0.2
	c1.9,0.2,3.9-0.1,5.8,0.1c0.1,0,0.1,0.1,0.3,0.2C50.6,32.9,49.9,32.8,49.2,32.8z M53.8,32.4L53.8,32.4L53.8,32.4L53.8,32.4
	c0.5,0.1,0.9,0,1.2,0.3C54.5,32.9,54.2,32.9,53.8,32.4z M55.6,32.8c-0.1,0-0.1-0.1-0.2-0.1c0.1-0.1,0.1-0.2,0.2-0.2
	c0.1,0,0.2,0,0.2,0.1C55.9,32.7,55.8,32.8,55.6,32.8z M89.4,64.8C89.4,64.8,89.4,64.8,89.4,64.8c-0.2,0-0.3-0.1-0.3-0.3
	c0-0.4-0.2-0.9,0.4-1.2l0,0l0,0l0,0c0.1,0.4,0.1,0.8,0.1,1.1C89.6,64.6,89.6,64.7,89.4,64.8z M93,62.7c-0.5,0-0.4-0.5-0.5-0.9
	c-0.1-0.3,0.2-0.4,0.5-0.4c0.3,0,0.6,0.1,0.5,0.5C93.4,62.2,93.4,62.7,93,62.7z M97.2,63L97.2,63L97.2,63L97.2,63
	c0.6,0.3,0.1,0.9,0.4,1.2c0.2,0.2,0,0.2-0.2,0.2c-0.5,0-0.5-0.3-0.5-0.7C96.9,63.5,96.8,63.1,97.2,63z M98.9,63.8L98.9,63.8
	c0.2,0.4,0,0.7-0.4,0.7c-0.5,0-0.2-0.5-0.2-0.8c0-0.3-0.2-0.8,0.3-0.8C99,63,98.9,63.5,98.9,63.8z M100.2,63.4c-0.4,0.3,0,0.7,0,1.2
	l0,0c-0.1,0-0.1-0.1-0.1-0.1c0,0-0.1-0.1-0.1-0.1s-0.1-0.1-0.1-0.1c0,0,0,0,0-0.1c0,0,0-0.1-0.1-0.1c0-0.1,0-0.1-0.1-0.2
	c0,0,0,0,0-0.1c0,0,0-0.1,0-0.1c0,0,0-0.1,0-0.1c0,0,0-0.1,0-0.1c0,0,0-0.1,0-0.1c0-0.1,0-0.2,0-0.4c0,0,0-0.1,0-0.1c0,0,0,0,0,0
	c0,0,0,0,0,0c0,0,0,0,0,0c0,0,0,0,0,0c0,0,0,0,0,0c0,0,0,0,0,0s0,0,0,0c0,0,0.1,0,0.1,0s0,0,0,0c0,0,0,0,0,0c0,0,0,0,0,0
	C100.2,63.1,100.3,63.3,100.2,63.4z M99,69.3c0.1,0,0.1,0,0.1-0.1c0,0,0,0,0,0c0,0,0,0,0,0l0,0c0,0,0.1,0,0.1-0.1l0,0c0,0,0,0,0,0
	l0,0c0,0,0,0,0-0.1c0.1-0.1,0.1-0.2,0.1-0.3c0,0,0,0,0-0.1c0,0,0-0.1,0.1-0.1c0,0,0,0,0,0c0,0,0,0,0,0l0,0c0,0,0,0,0,0l0,0
	c0,0,0,0,0,0s0,0,0,0c0,0,0,0,0,0c0,0,0,0,0.1,0c0,0,0.1,0,0.1,0c0,0,0.1,0,0.1,0.1c0,0,0,0,0,0c0.1,0,0.1,0,0.2,0.1c0,0,0,0,0.1,0
	c0,0,0,0,0,0c0,0,0.1,0,0.1,0l0,0c0.1,0.1,0.1,0.1,0.1,0.3c0,0.2-0.1,0.3-0.2,0.4c0,0,0,0-0.1,0c0,0-0.1,0-0.1,0c0,0,0,0-0.1,0
	s-0.1,0-0.1,0l0,0c0,0.1,0,0.2-0.1,0.2c0,0,0,0,0,0c0,0,0,0,0,0c0,0-0.1,0-0.1,0.1L99.8,70l-0.1,0l0.1-0.2v-0.4
	c-0.1,0.1-0.3,0.2-0.5,0.3c0,0,0,0,0,0s0,0-0.1,0c0,0,0,0-0.1,0c0,0-0.1,0-0.1,0c0,0,0,0,0,0c0,0,0,0,0,0s0,0,0,0c0,0-0.1,0-0.1-0.1
	c0,0-0.1-0.1-0.1-0.1C98.8,69.4,98.9,69.3,99,69.3z M94.9,68.9c0.2-0.1,0.4-0.1,0.5-0.2l0.1-0.1c0,0,0,0.1-0.1,0.1
	c0.6,0.7,1.4,0.2,2.1,0.4c0.1,0,0.3,0,0.5-0.1c-0.3,0.5-0.6,0.8-1.2,0.6c-0.6-0.2-1.3,0.4-1.9,0c-0.2-0.1-0.6,0.1-0.6-0.3
	C94.3,69,94.6,68.9,94.9,68.9z M91,68.1c0.1,0,0.2,0.1,0.2,0.1c-0.1,0.1-0.1,0.1-0.1,0.1c-0.1,0-0.2,0-0.2-0.1
	C90.8,68.1,90.8,68.1,91,68.1z M92.7,68.5c0.3,0.5,0.7,0.8,1.3,0.4c-0.8,0.8-0.9,0.8-3.4,0.7C91,68.6,92.1,69,92.7,68.5z M90.5,68.4
	c0,0.3-0.2,0.6-0.6,0.8C90,68.8,90,68.5,90.5,68.4z"/>
<path class="st1" d="M102,72.8L102,72.8l-0.1,0.2l-0.1-0.1l0,0C101.8,72.9,101.9,72.8,102,72.8c-0.3-1.4,0.3-2.8-0.2-4.1v0
	c-0.2,0.1-0.3,0.2-0.3,0.3c0.3,0.9-0.1,1.7-0.1,2.6c0,1.3-0.1,1.4-1.4,1.4H76.6c-22.8,0-45.7,0-68.5,0c-1,0-1.9-0.4-2.9-0.1
	c-0.3,0.1-0.6,0.1-0.8,0c0,0,0,0-0.1,0c-0.3-0.2-0.4-0.6-0.4-1.2c0.1-0.8,0.1-1.7,0-2.5c-0.2-1.3-0.2-1.4,1.1-1.4
	c12.8,0,25.6,0,38.5,0c2,0,3.8,0.4,5.5,1.2c0,0,0.1,0,0.1,0.1l0,0c0.2,0.1,0.3,0.2,0.3,0.5c-0.1,0.3-0.2,0.3-0.5,0.2
	c-0.5-0.2-0.2,0.4-0.4,0.4c-0.1,0.1-0.1,0.2,0,0.3c0,0,0,0,0,0c0.2,0.1,0.4,0.1,0.5-0.1c0.1-0.2,0.1-0.2,0.2-0.1l0,0
	c0.1,0,0.1,0.1,0.1,0.1l0,0l0,0c0.8,0.4,1.8,0,2.2-0.8c0.4-1,1.4-1.7,2.6-1.8h30.4c0.2,0,0.4,0,0.6,0.1c0,0,0,0,0.1,0c0,0,0,0,0,0
	c0.1,0.1,0.2,0.1,0.3,0.3c-0.5,0.4-0.9,0.8-1.2,1.3l0,0l0,0c0.5,0,1,0.2,1.4,0c0,0,0.1-0.1,0.1-0.1v0c0-0.3,0.2-0.5,0.5-0.5
	c0-0.1,0-0.1,0-0.1c-0.1-0.2-0.4-0.3-0.5-0.4c-0.1-0.1-0.1-0.2,0-0.3c0.2-0.5,0.7-0.2,1.1-0.2c3.8,0,7.5,0,11.3,0
	c0.5,0,1.7,0.6,1.4-0.9c0,0,0.2-0.1,0.2-0.1c0.4-0.2,0.6-0.6,0.4-1.1c-0.1-0.2,0-0.4,0-0.6l0,0c0-0.1-0.1-0.1-0.3-0.1
	c-0.5,0-0.3,0.4-0.2,0.7c0.1,0.2,0,0.5-0.3,0.5c-0.1,0-0.1,0-0.2,0c-0.1-0.1-0.1-0.2-0.1-0.4c0-0.1,0-0.1,0-0.2
	c0-0.1-0.1-0.3-0.2-0.4c0,0,0,0,0,0c-0.1-0.2-0.3-0.2-0.5-0.1c-0.4,0.2-0.1,0.5,0,0.8c0,0,0,0.1,0.1,0.1l0,0
	c0.1,0.1,0.2,0.2,0.3,0.3c0,0,0,0,0,0c-0.1,0-0.2,0.1-0.3,0.1c-0.3,0-0.7,0.2-0.8,0l0,0c-0.1-0.1-0.1-0.3,0.1-0.7
	c0.1-0.1,0.1-0.2,0-0.3c-0.1-0.1-0.3-0.2-0.4-0.3c-0.5-0.1-0.4,0.3-0.4,0.6c0,0.2,0.1,0.6-0.3,0.6c-0.1,0-0.2-0.1-0.2-0.1l0,0
	c-0.1-0.1,0-0.3,0-0.5c0-0.9,0.1-1.7-0.2-2.6c0,0,0,0,0,0c-0.3,0.2-0.2,0.4-0.2,0.6c-0.1,0.3,0.2,0.9-0.4,1c-0.3,0-0.5-0.1-0.6-0.3
	c0,0,0,0,0,0c-0.1-0.1-0.2-0.3-0.2-0.5c-0.1-0.1,0-0.4-0.1-0.5l0,0c0-0.1-0.1-0.1-0.3-0.1c-0.4,0-0.4,0.3-0.4,0.6
	c0,0.2,0.1,0.5-0.2,0.5c-0.1,0-0.2,0-0.2-0.1c-0.1-0.1-0.1-0.3-0.1-0.4c0-0.2,0-0.3-0.1-0.5c-0.1-0.1-0.2-0.2-0.5-0.2
	c-0.5,0-0.4,0.4-0.4,0.7c0,0.1,0,0.2-0.1,0.4c-0.1,0.2,0,0.6-0.4,0.5c-0.1,0-0.1-0.1-0.2-0.1c-0.1-0.1-0.2-0.3,0-0.5
	c0.1-0.1,0.1-0.3,0.1-0.4c0,0,0,0,0,0c0-0.1-0.1-0.2-0.2-0.2c-0.3-0.2-0.4,0.2-0.6,0.3c-0.2,0.1-0.2,0.3-0.1,0.5c0,0,0,0,0,0
	c0,0,0.1,0.1,0.1,0.1c0.1,0.1,0.2,0.2,0.3,0.3c0,0.1,0,0.1,0,0.2c-0.1,0.2-0.4,0.1-0.6,0.1c-0.2,0-0.6-0.3-0.6,0.2
	c-0.1,0.3,0.2,0.9-0.3,0.9c-0.1,0-0.2,0-0.2-0.1c-0.1-0.2,0-0.6-0.1-0.8l0,0c0,0,0,0,0,0c0,0-0.1,0-0.1-0.1c-0.5,0.2,0,1-0.5,1
	c-0.1,0-0.2,0-0.2-0.1c-0.1-0.1,0-0.5-0.1-0.7c0-0.1-0.1-0.1-0.2-0.1c-0.4,0.2,0.1,0.9-0.5,1c0,0,0,0,0,0c0.1,0.5,0.4,0.4,0.7,0.4
	c0.5,0,1.1,0,1.6,0c0.2,0,0.4,0,0.4,0.2c0,0.1-0.2,0.4-0.4,0.3c-0.5-0.2-1,0-1.5,0.2c-0.2,0.1-0.3,0-0.4-0.1c-0.3-0.5-0.6-0.5-1-0.2
	c-0.5,0.4-0.8-0.4-1.3-0.2c0.3-0.5,0.6-0.7,1-0.5c0.3,0.2,0.6,0,0.8-0.2c0-0.2,0.1-0.6,0-0.7c0,0,0,0,0,0c-0.2-0.1-0.3-0.2-0.4-0.3
	c0,0,0,0,0,0c-0.3-0.4-0.3-0.9-0.3-1.4c0-0.1,0-0.1-0.1-0.2l0,0c0,0-0.1-0.1-0.1-0.1c-0.2,0-0.3,0.1-0.3,0.3
	c-0.2,0.6-0.6,0.3-0.8,0.1c0,0-0.1,0-0.1-0.1l0,0c-0.2-0.3-0.1-0.7-0.1-1c0.1-0.3,0.1-0.7,0.6-0.7c1.2-0.1,2.4-0.3,3.6-0.4
	c-0.1,0-0.1,0-0.2,0.1c-1.5,0.6-1.5,0.6-1.2,1.2v0c0.3-0.6,0.4-0.7,0.7-0.3c0,0,0,0,0.1,0.1c0,0,0.1,0.1,0.1,0.1
	c0,0,0.1,0.1,0.1,0.1c0,0,0,0,0,0c0.2-0.1,0.1-0.6,0.5-0.6c0,0,0.1,0.1,0.1,0.1l0,0c0.1,0.2,0,0.5,0.2,0.8c0,0,0,0,0,0
	c0.1-0.5-0.1-1.3,0.9-0.6c0.3,0.2,0.8,0,1-0.3c0.1-0.2,0.2-0.3,0.1-0.4c-0.1-0.1-0.3-0.2-0.4-0.3l0,0c0,0,0,0,0,0
	c-0.1-0.1-0.2-0.4,0-0.4c0.6-0.1,0.9-0.9,1.5-0.7c0.1,0.1,0.2,0.1,0.3,0.2c0,0,0,0,0,0c0.2,0.3,0.3,0.7,0.3,1c0,0.3,0.1,0.4,0.2,0.6
	c0.2,0.2,0.5,0.1,0.9-0.2c0.4-0.3,0.6-0.3,0.8-0.1l0,0c0.1,0.1,0.1,0.2,0.2,0.4c0,0,0,0,0,0c0-0.5,0.7-0.6,0.5-1.1
	c0-0.1,0.5-0.7,0.7-0.5l0,0c0,0,0.1,0.1,0.1,0.1l0,0c0.2,0.3,0.6,0.5,0.8,0.8c0,0,0,0,0,0c0.1,0.2,0.2,0.4,0.2,0.6c0,0,0,0,0,0
	c0.7-0.4,0.5-1,0.7-1.6c0,0,0,0,0,0c-0.5,0.1-0.9-0.1-1.2-0.4c-0.1-0.1-0.2-0.2-0.4-0.3c0,0-0.1-0.1-0.1-0.1l0,0l0,0l0,0
	c-0.2-0.3-0.4-0.5-0.6-0.7c0,0-0.1-0.1-0.1-0.1l-0.2-0.1c0,0-0.1,0-0.1-0.1c0,0-0.1,0-0.1-0.1c0,0-0.1,0-0.1,0
	c-0.3-0.1-0.7-0.1-1.1,0c-0.2,0.1-0.5,0.1-0.6,0.1c0,0,0,0,0,0c-0.1-0.1-0.1-0.2-0.1-0.5c0-0.2-0.1-0.3-0.3-0.4c0,0,0,0,0,0
	c0,0,0,0,0,0c0,0,0,0-0.1,0c-0.1,0-0.1-0.1-0.2-0.1c-0.1,0-0.2,0-0.2,0c-0.6,0.2-1.5-0.3-1.6,0.9v0c0,0.5-0.2,0.8-0.8,0.8
	c-0.3,0-0.6,0-0.9,0.2C90,60.1,89.8,60,90,60.5c0.2,0.5,0.2,1-0.7,1.1c-3.5,0.4-7,0.4-10.5,0.4h-8.7c-0.4,0-0.8,0-1.1-0.4
	c0.1,1-0.2,1.5-1.3,1.7c-2.2,0.5-4.4,1.1-6.7,1.6c-2.6,0.6-5.2,1.2-7.9,1.7c-0.6,0.1-0.9,0.6-1.2,1c-0.8,1.2-1.2,1.3-2.5,0.9
	c-3-0.9-6-1.6-8.9-2.7c-0.2-0.1-0.4-0.1-0.6-0.1c-0.7-0.1-1-0.3-0.9-1.1c0.2-0.9,0.6-1.6,0.9-2.3c-0.3-0.4-0.8-0.2-1.2-0.2
	c-11.2,0-22.5,0-33.7,0c-1.2,0-1.2,0-1.2-1.2V34.8c0-0.3,0-0.6,0-0.8l-0.4,0c0,12.9,0,25.8,0,38.6c0,0.9,0.4,1.1,1.2,1.1
	c32,0,64,0,96,0c0.4,0,0.7-0.1,1.1-0.1c0.1-0.1,0.2-0.1,0.2-0.2L102,72.8L102,72.8z M97.7,66.7L97.7,66.7c0.2,0,0.4,0,0.7,0
	c0.2,0,0.4-0.1,0.5,0.2c0,0.2,0,0.3-0.1,0.4c-0.1,0.2-0.3,0.2-0.5,0.1c-0.4-0.3-0.9-0.5-1.3,0.1c-0.2,0.2-0.3,0.1-0.4-0.2
	c-0.1-0.2-0.3-0.5,0.1-0.6C97,66.6,97.3,66.6,97.7,66.7z M95.8,66.2L95.8,66.2c-0.2,0-0.3-0.1-0.3-0.2c0.1-0.2,0-0.6,0.3-0.7
	c0.2-0.1,0.3,0.1,0.3,0.3C96,65.8,96,66.1,95.8,66.2z M94.8,65.4c0.3,0.1,0.4,0.5,0.3,0.6c-0.2,0.5-0.7,0.2-1.1,0.2
	c-0.3,0-0.5-0.1-0.4-0.4c0.1-0.2,0-0.4,0.2-0.6c0.4,0.1,0.1,0.6,0.4,0.7l0,0C94.6,66,94.4,65.3,94.8,65.4z M94.6,66.6L94.6,66.6
	c-0.3,0.7-0.7,0.9-1.3,0.8c-0.2-0.1-0.3-0.3-0.3-0.4C93.5,66.4,94,66.8,94.6,66.6z M92,66.5c0-0.4-0.4-0.8,0-1.2
	c0.4,0.9,0.3,1.3-0.4,2.1c-0.2-0.4-0.3-0.8-0.3-1.3l0,0C91.6,66.2,91.6,66.6,92,66.5z M96.2,60.1c0-0.3,0.2-0.4,0.5-0.3
	c0.3,0.1,0.5,0.3,0.8,0.3c-0.1,0.4-0.3,0.4-0.6,0.2C96.7,60.2,96.4,60.1,96.2,60.1c-0.1,0.2-0.1,0.4-0.2,0.6c-0.2,1-0.6,1.1-1.3,0.5
	c-0.1-0.1,0-0.8,0.5-0.9C95.5,60.2,95.8,60.2,96.2,60.1z M94,60.7c0,0.1,0.1,0.1,0.1,0.1c0,0.1-0.1,0.1-0.1,0.1
	c0-0.1-0.1-0.1-0.1-0.1C93.9,60.8,94,60.7,94,60.7z M90.3,60.8L90.3,60.8c0.4,0.4,0.7,0.7,0.6,1.1c0,0.1-0.2,0.1-0.3,0.1
	C90,61.8,90.3,61.4,90.3,60.8z M85.3,65.1c0.1-0.2,0.2-0.3,0.4-0.2c0.2,0.1,0.4,0.3,0.3,0.5c-0.3,0.3,0,0.8-0.4,1.1l0,0l0,0l0,0
	C85.5,66,84.8,65.7,85.3,65.1z"/>
<path class="st1" d="M102,32.8c-0.7,0.3-1.4,0.2-2.2,0.2c-0.4,0-0.8,0-1.2-0.1c-0.7,0-1.3-0.1-2-0.1c-1.3,0-2.7-0.1-4-0.1
	c0,0,0,0,0,0c-0.3,0-0.7,0-1,0c-1.3,0-2.5,0-3.8,0c-1.7,0-3.3,0-5,0c-1.6,0-3.3,0-4.9,0c-0.2,0-0.3,0-0.5,0c-0.1,0-0.2,0-0.4,0
	c-0.1,0-0.2,0-0.3-0.1c-0.1,0-0.2,0-0.2,0c-0.2,0-0.3-0.1-0.5-0.1c-0.1,0-0.2,0-0.2,0c-0.1,0-0.2,0-0.3-0.1c0,0-0.1,0-0.1,0
	c-0.5-0.1-1-0.1-1.5-0.1c-0.1,0-0.2,0-0.3,0c-0.1,0-0.2,0-0.2,0c0,0-0.1,0-0.1-0.1c0,0,0,0,0,0c-0.1,0-0.1-0.1-0.1-0.2
	c0,0,0-0.1-0.1-0.1l0,0c0-0.1-0.1-0.1-0.1-0.2l0,0c8.4-0.2,16.8-0.1,25.2-0.1l0,0c1.1,0.2,2.3,0.2,3.4,0l0,0h0.5c0,0,0,0,0.1,0
	L102,32.8L102,32.8z"/>
<path class="st1" d="M102,33.2v30.3c0,0.1,0,0.2,0,0.3c0,0.2,0,0.4,0,0.5v1.1c-0.1,0.1-0.1,0.2-0.2,0.3l0,0
	c-0.3-0.3-0.2-0.7-0.2-1.1c0-0.9,0-1.8,0-2.7c0-0.7,0-1.4,0.1-2.1c0-0.3,0-0.6,0-0.8c0-0.2,0-0.4,0-0.6c0-0.3,0-0.6,0-0.9
	c0-0.3,0-0.7,0-1c0-0.1,0-0.2,0-0.4c0-0.4,0-0.8,0-1.2c0-6.6,0-13.2,0-19.9C101.8,34.5,101.7,33.8,102,33.2z"/>
<path class="st1" d="M66.7,31.8c-0.2,0.5-0.6,0.3-1,0.3c-8,0-16.1,0-24.1,0c-2.2,0-4.4-0.3-6.6,0c-1.1,0.1-2.1-0.3-3.2,0.1
	c-0.3,0.1-1-0.2-1.5-0.2c-0.7-0.1-1.1,0.2-1,0.9h-0.5c0-0.1-0.1-0.2-0.1-0.2c0.3-0.8,0.1-0.9-0.6-0.4c-0.1,0.1-0.4,0.1-0.5,0
	c-0.9-0.7-0.8,0.1-0.9,0.6L4.1,33c1-1,2.1-1.3,3.5-1.3c19.2,0.1,38.3,0.1,57.5,0C65.6,31.8,66.2,31.8,66.7,31.8z"/>
<path class="st2" d="M28.9,33h0.5c0.4,0.1,0.8-0.1,1.1,0.2c-0.3,0.3-0.7,0.2-1.1,0.2c-5.8,0-11.5,0-17.3,0c-1.5,0-2.9,0-4.4,0
	c-0.4,0-0.8-0.1-0.7,0.5l-3.4,0l-0.4,0c0-0.5,0.2-0.8,0.7-0.9l22.7,0L28.9,33z"/>
<path class="st0" d="M101.4,31.8c-1.1,0.2-2.3,0.2-3.4,0H101.4z"/>
<path class="st0" d="M101.9,31.8L101.9,31.8L101.9,31.8C102,31.8,102,31.8,101.9,31.8C101.9,31.8,101.9,31.8,101.9,31.8z"/>
<path class="st2" d="M100.8,58.7c0.6,1.5-2.6,1.3-1,0.7c0.1,0.7,0.1,1.3-0.7,1.5c-0.7,0.1-1.2-0.4-1.7-0.8l0,0
	c-0.6-0.9-1.4-1.3-2.5-1.1c-0.4,0.1-0.8,0.3-0.7-0.5c0-0.4-0.7-0.7-0.8-0.6c-0.6,0.2-1.5-0.3-1.6,0.9c-7.5,1.8-15.1,2.3-22.7,2.4
	L69,60.3c0.4-0.2,0.9-0.2,1.4-0.2c2.8,0.1,5.5-0.1,8.2-0.2c2.5-0.1,5-0.6,7.5-0.9c0.4-0.1,0.8,0,0.9-0.6c0,0,0,0,0-0.1l0,0.1
	c-2.8,0.1-5.6,0.5-8.4,0.7c-3.2,0.2-6.4,0.3-9.5,0.2c0.1-0.6-0.7-0.6-0.8-1.1c6.2,0.1,12.3-0.2,18.4-1.3c2.1-0.4,4.2-0.9,6.1-2
	c1.8-1,1.9-2.2,0.4-3.6c-0.4-0.4-0.9-0.5-1.4-0.8c-1.4-0.8-2.9-1.2-4.4-1c-0.9,0.1-1.8,0.1-2.7,0.1c-0.4,0-0.8-0.1-1.2-0.2
	c-2.6-0.3-5.2-0.2-7.8-0.2c0.4-1.3,1-2.7,0.9-4.2c-0.4,0.1-0.4,0.6-0.7,0.6c0-0.3,0.1-0.5,0.1-0.8c0.2-1.2,0.7-2.3,0.6-3.5
	c-0.1-1.2,1-3,2.3-3.3c0,0.5-0.4,0.7-0.7,1c-0.9,0.9-1.2,2.1-1,3.3c0.2-1,1.5-1.3,1.6-2.3c0-0.2,0.4-0.4,0.6-0.3
	c0.9,0.3,1.7,0.4,2.5-0.1c0.2-0.1,0.4,0,0.5-0.3c0-0.3-0.2-0.4-0.4-0.5c-0.4-0.2-0.6,0.1-0.9,0.3c-0.4,0.2-0.7,0.5-1.1,0
	c-0.4-0.5-0.2-0.8,0.1-1.2c0.6-0.7,1.4-1.2,2.2-1.4c1-0.3,2.1-0.6,3.1-0.9c0.2-0.1,0.5-0.1,0.4-0.4c-0.1-0.2-0.3-0.2-0.5-0.1
	c-0.4,0.1-0.7,0.3-1,0.3c-1.4,0.1-2.6,0.6-3.7,1.5c-0.5,0.4-0.9,0.9-1.6,1.1c0.2-0.7,0.7-1,1.2-1.4c1.4-1.1,3-2,4.8-2.4
	c1.6-0.4,3.4-0.5,5.1-0.4c0.4,0,0.7,0,0.6-0.5l10.1,0.2c0.3,0,0.6,0.1,0.7,0.5c0.1,0.4-0.2,0.5-0.5,0.5c-0.2,0-0.3,0.1-0.2,0.4
	c0.4,2.2,0.2,4.4,0.1,6.5c0,0.2-0.1,0.3-0.1,0.4c0.5,1.9-0.4,3.8,0.1,5.7c0.1,0.5-0.2,1.2-0.1,1.7c0.1,1.7,0.1,3.4,0.3,5.1
	c0.1,0.4,0,0.8,0,1.2c0.2-0.3,0.7,2.4,0,3.5L100.8,58.7z"/>
<path class="st3" d="M79,38c-1.3,0.3-2.4,2.1-2.3,3.3c0.1,1.2-0.4,2.3-0.6,3.5c0,0.3-0.1,0.5-0.1,0.8l0,0.5
	c-0.4,0.1-0.3,0.5-0.3,0.8c0,0.8-0.3,1.6-0.2,2.4c-0.2,0.2-0.1,0.4-0.2,0.6c-0.2,0.9-1.2,1.7-1.8,1.5c-1.3-0.4-1.7-0.2-2.3,1.1
	c-0.2,0.5-0.5,0.6-1,0.6c-1,0-2.1-0.2-3.1-0.2c-0.8,0-1.8,0.4-2.5-0.4c0.3-0.5,1.2-0.3,1.4-0.9l0.7,0c0.3-0.3,0.3-0.7,0.4-1
	s0-0.5-0.3-0.5c-1.3,0-2.6-0.2-3.8,0.3l-0.4,0c-0.3,0-0.7-0.1-0.9,0.2c-0.6,0.1-1.5,0.1-1.6,0.9c-0.1,0.6,0.5,0.9,1,1l0.2,0.2
	l0.4,0.2c1.1,0.5,2.2,0.6,3.4,0.7c1,0.1,2,0,3.1,0.1c1.6,0.2,3.2,0.6,4.8,0.4c1.3-0.1,2.7-0.2,4-0.4c1.5-0.3,3.1-0.5,4.5-1.2
	c0.4-0.2,0.9-0.5,0.8-1c-0.1-0.6-0.6-0.8-1.1-0.8l-0.4,0c-0.6-0.4-1.3-0.4-2-0.4l0,0c-0.1-0.1-0.2-0.2-0.4-0.2l-0.6,0
	c-0.1-0.2-0.2-0.2-0.4,0l-0.9-0.1c-0.4,0-0.8,0-0.8-0.6l0,0c2.6,0,5.2-0.1,7.8,0.2c0.4,0,0.8,0.1,1.2,0.2c0.9,0.1,1.8,0,2.7-0.1
	c1.5-0.2,3.1,0.2,4.4,1c0.5,0.2,1,0.4,1.4,0.8c1.5,1.4,1.3,2.6-0.4,3.6c-1.9,1.1-4,1.6-6.1,2c-6.1,1.1-12.2,1.4-18.4,1.3
	c-0.2-0.3-0.5-0.6-0.7-0.9c2.8,0.1,5.6,0.1,8.4-0.1c3.4-0.2,6.7-0.6,10-1.2c1.9-0.4,3.8-1,5.4-2.1c1-0.7,1.1-1.8,0.2-2.6
	c-0.5-0.4-1-0.7-1.6-0.9c-0.2-0.1-0.4-0.2-0.5,0c-0.1,0.2,0.1,0.3,0.2,0.4c0.4,0.4,0.5,1.7,0.2,1.9c-1.4,1.2-3.1,2-4.9,2.4
	c-1.5,0.3-3,0.7-4.6,0.7c-1.9,0.1-3.8,0.4-5.7,0.4c-2.6,0.1-5.2-0.1-7.8,0.1c-0.5-0.2-0.9-0.7-1.1-1.2c0.4,0.1,0.9,0.2,1.3,0.2
	c4-0.1,8,0.3,11.9-0.5c1.7-0.4,3.5-0.6,5.3-1c0.8-0.2,1.7-0.5,2.3-1c0.7-0.6,0.7-0.9-0.1-1.6c-0.3,0.8-0.8,1.3-1.5,1.6
	c-3.3,1.2-6.8,1.8-10.3,1.8c-3.3,0-6.7,0.1-10-0.3c-0.2-0.1-0.3-0.3-0.5-0.3v0c0-0.1-0.1-0.2-0.2-0.2c-0.3-0.4-0.7-0.4-1.1-0.4
	c-1,0.1-1.9,0.3-2.9,0.2c-1-0.1-1.9-0.6-2.8-1.1c-0.4-0.2-0.8-0.5-1-0.9c-0.4-0.5,0.3-0.8,0.4-1.3c-0.6,0.3-1.3,0.3-1.4,1
	c-0.1,0.7,0.1,1.3,0.8,1.6c0.8,0.5,1.7,0.8,2.6,0.9c-0.6,0.6-1.4,0.2-2.1,0.4c-0.7-0.3-1.4-0.6-2.1-0.8c-0.9-0.3-1.4-0.8-1.4-1.8
	c0-1,0.7-1.3,1.4-1.6c2-0.9,4.3-1,6.4-1.2c1.9-0.2,3.8-0.2,5.6-0.3c0.6,0,1.4,0.1,1.8-0.7c0.3-0.7,0.6-1.4,0.8-2.1
	c0.1-0.4,0.4-0.8-0.4-0.8c-0.5,0-0.7-0.5-0.7-1c0-0.2,0.1-0.5-0.3-0.6c-0.6-0.1-1.3-0.1-1.8,0.3c-0.2,0.2,0.3,0.7,0.6,1
	c0.1,0.1,0.2,0.2,0.2,0.3c0.1,0.3,0.5,0.6,0.2,0.8c-0.3,0.2-0.6-0.1-0.8-0.2c-1-0.8-1.2-0.8-2.2,0.2c-0.6,0.5-1,1.2-1.8,1.6
	c-0.1-0.6,0.4-0.9,0.5-1.4c0-0.2,0.4-0.4,0.1-0.7c-0.3-0.2-0.5,0-0.8,0c-0.9,0.3-1.8,0.5-2.7,0.8L59,46.6c1.5-0.9,3.1-1.9,4.6-2.8
	c0.5-0.3,0.9-0.8,1.6-0.2c0.1,0.1,0.4,0,0.5-0.1c0.6-0.5,1.1-1,1.6-1.5c0.7-0.1,1,0.6,1.5,1c0.4,0.4,0.8,1.1,1.2,1.1
	c0.6,0.1,0.5-0.9,1-1.2c0,0,0-0.1,0.1-0.1c1-1.4,1.9-2.7,2.9-4.1c0.7-1.3,1.2-2.7,2.1-3.9c0.1-0.2,0.5-0.3,0.4-0.6
	c-0.1-0.3-0.5-0.2-0.8-0.2c-9.5,0-19,0-28.5,0c-0.4,0-0.9,0-1.2,0.4l-0.2-0.1c0-0.4-0.3-0.4-0.6-0.4c-0.8-0.1-1.5,0.1-2.3,0.4
	c-3.5-0.3-7-0.1-10.6-0.2c-0.5-0.5-0.9-0.2-1.4,0.1c-0.9-0.1-1.7-0.3-2.6,0c-0.4-0.9-1-0.1-1.5-0.1c-0.1-0.2-0.3-0.2-0.4,0l-0.7,0
	c-0.2-0.2-0.5-0.2-0.7,0h-3c-0.7-0.3-1.5-0.3-2.2,0l-12.6,0c-0.1-0.6,0.4-0.5,0.7-0.5c1.5,0,2.9,0,4.4,0c5.8,0,11.5,0,17.3,0
	c0.4,0,0.7,0.1,1.1-0.2l1.7,0l0.2-0.1h0.7c0.7,0.5,1.4,0.3,2.1,0.3c1.3,0,2.6,0.2,3.8-0.2h0.6c0.2,0.2,0.5,0.2,0.7,0h0.4h0.1H41
	c0.4-0.1,0.9-0.2,1.3-0.1c0.2,0.1,0.4,0.1,0.6,0.1c3.7,0,7.4,0,11.2,0.1c2.3,0.1,4.7,0.1,7,0c0.9,0,1.8,0.1,2.7,0.1
	c3.7,0.1,7.5-0.2,11.2-0.1c2.6,0.1,5.1,0,7.7,0c2.7-0.1,5.4,0,8,0c0.1,0.5-0.3,0.5-0.6,0.5c-1.7,0-3.5,0-5.1,0.4
	c-1.7,0.5-3.4,1.3-4.8,2.4C79.7,37,79.2,37.4,79,38L79,38z"/>
<path class="st1" d="M51.5,32.7c-0.9,0.3-1.6,0.1-2.3,0.1c-1.2,0-2.4,0.1-3.6-0.1c-0.2,0-0.4,0-0.4-0.2c0-0.1,0.1-0.2,0.3-0.2
	c1.9,0.2,3.9-0.1,5.8,0.1C51.2,32.5,51.3,32.6,51.5,32.7z"/>
<path class="st2" d="M100.1,58.8c0.4,0.2,0.7-0.6,1,0c0.1,0.6,0,1.2-0.2,1.8c0,0.2,0.1,0.5-0.2,0.5c-0.2,0-0.3-0.2-0.5-0.4
	C99.9,60.1,100.1,59.5,100.1,58.8z"/>
<path class="st1" d="M95.4,68.7c0.6,0.7,1.4,0.2,2.1,0.4c0.1,0,0.3,0,0.5-0.1c-0.3,0.5-0.6,0.8-1.2,0.6c-0.6-0.2-1.3,0.4-1.9,0
	c-0.2-0.1-0.6,0.1-0.6-0.3c-0.1-0.3,0.2-0.5,0.5-0.5C95,68.8,95.2,68.7,95.4,68.7L95.4,68.7z"/>
<path class="st1" d="M90.7,69.6c0.3-1,1.4-0.6,2-1.1c0.3,0.5,0.7,0.8,1.3,0.4C93.3,69.7,93.1,69.7,90.7,69.6z"/>
<path class="st2" d="M39.2,33.2c-1.3,0.4-2.6,0.1-3.8,0.2c-0.7,0-1.5,0.2-2.1-0.3l5.5,0C38.8,33,39,33.1,39.2,33.2z"/>
<path class="st1" d="M99.9,69.4c-0.1,0.1-0.3,0.2-0.5,0.3c-0.2,0.1-0.4,0-0.5-0.2c-0.2-0.3,0.1-0.3,0.2-0.3c0.4-0.1,0.3-0.9,0.9-0.6
	c0.2,0.1,0.6,0.1,0.5,0.4c0,0.3-0.2,0.4-0.5,0.4l0,0c0-0.1-0.1-0.2-0.1-0.2C100,69.3,99.9,69.4,99.9,69.4L99.9,69.4z"/>
<path class="st1" d="M87.2,69.2c0.8-0.3,1.5-0.5,2.2,0.5C88.6,69.6,87.8,69.9,87.2,69.2L87.2,69.2z"/>
<path class="st1" d="M93,61.4c0.3,0,0.6,0.1,0.5,0.5c-0.1,0.3-0.1,0.8-0.5,0.8c-0.5,0-0.4-0.5-0.5-0.9C92.4,61.5,92.7,61.4,93,61.4z
	"/>
<path class="st1" d="M98.9,63.8c0.2,0.4,0,0.7-0.4,0.7c-0.5,0-0.2-0.5-0.2-0.8c0-0.3-0.2-0.8,0.3-0.8C99,63,98.9,63.5,98.9,63.8z"/>
<path class="st1" d="M97.2,63c0.6,0.3,0.1,0.9,0.4,1.2c0.2,0.2,0,0.2-0.2,0.2c-0.5,0-0.5-0.3-0.5-0.7C96.9,63.5,96.8,63.1,97.2,63z"
	/>
<path class="st1" d="M89.5,63.3c0.1,0.4,0.1,0.8,0.1,1.2c0,0.2,0,0.3-0.2,0.3c-0.1,0-0.3-0.1-0.3-0.2c0,0,0,0,0-0.1
	C89.1,64.1,88.9,63.6,89.5,63.3z"/>
<path class="st1" d="M86.3,68.9c0.4,0,0.7,0.1,1,0.3l-0.1,0.1c-0.5,0.3-1,0.5-1.5,0.2c0,0,0.1-0.1,0.1-0.1
	C86.1,69.4,86.2,69.2,86.3,68.9L86.3,68.9z"/>
<path class="st1" d="M100.2,64.5c-0.7-0.4-0.4-0.9-0.4-1.4c0-0.2,0.2-0.3,0.3-0.2s0.2,0.3,0.1,0.4C99.8,63.7,100.1,64,100.2,64.5z"
	/>
<path class="st1" d="M53.8,32.4c0.5,0.1,0.9,0,1.2,0.3C54.5,32.9,54.2,32.9,53.8,32.4z"/>
<path class="st1" d="M90,69.1c0-0.4,0.1-0.7,0.6-0.8C90.5,68.7,90.3,69,90,69.1z"/>
<path class="st2" d="M40.4,33.2c-0.2,0.2-0.5,0.2-0.7,0C40,33,40.2,33,40.4,33.2z"/>
<path class="st1" d="M55.4,32.7c0.1-0.1,0.1-0.2,0.2-0.2c0.1,0,0.2,0,0.2,0.1c0.1,0.1-0.1,0.2-0.2,0.2
	C55.6,32.8,55.5,32.7,55.4,32.7z"/>
<path class="st2" d="M42.9,33.2c-0.2,0-0.4,0.1-0.6-0.1C42.6,32.7,42.7,33,42.9,33.2z"/>
<path class="st1" d="M91.2,68.2c-0.1,0.1-0.1,0.1-0.1,0.1c-0.1,0-0.2,0-0.2-0.1c-0.1-0.1,0-0.2,0.1-0.1C91,68.1,91.1,68.2,91.2,68.2
	z"/>
<path class="st1" d="M84.1,69.6c0,0.1,0,0.2-0.2,0.3c0,0-0.1-0.1-0.1-0.1C83.8,69.6,83.9,69.6,84.1,69.6L84.1,69.6z"/>
<path class="st1" d="M44.7,32.7c-0.1,0-0.1,0.1-0.1,0c0,0-0.1-0.1-0.1-0.1c0.1,0,0.1-0.1,0.1,0C44.7,32.6,44.7,32.6,44.7,32.7z"/>
<path class="st2" d="M100.1,57.9c0.2,0.1,0.2,0.3,0,0.4L100.1,57.9z"/>
<path class="st1" d="M99.9,69.8v-0.4l0,0h0.1h0.1l0,0C100.1,69.6,100,69.7,99.9,69.8L99.9,69.8z"/>
<path class="st1" d="M99.9,69.8L99.8,70l-0.1,0L99.9,69.8L99.9,69.8z"/>
<path class="st1" d="M101.7,67.4c0,0.1,0,0.2,0,0.3C101.6,67.5,101.6,67.4,101.7,67.4z"/>
<path class="st1" d="M95.4,68.7l0.1-0.1C95.5,68.7,95.5,68.7,95.4,68.7L95.4,68.7z"/>
<path class="st2" d="M41,33.2L41,33.2h-0.2C40.9,33.1,40.9,33.1,41,33.2z"/>
<path class="st2" d="M32.5,33.1l-0.2,0.1L32.5,33.1z"/>
<path class="st1" d="M84,69.6l0.2-0.2l0,0L84,69.6L84,69.6z"/>
<path class="st0" d="M7.1,33.9l12.6,0c0.7,0.3,1.5,0.3,2.2,0h3c0.2,0.4,0.5,0.6,0.7,0l0.7,0c0.1,0.2,0.1,0.5,0.2,0.7
	c-1.2,2.2-1.2,4.7-1.5,7.1c-0.2,1.6-0.5,3.3-1.3,4.7C23.6,47,23.2,47,22.8,47c-0.5,0-0.4-0.5-0.4-0.8c0-0.7,0-1.5,0-2.2
	c0-0.9-0.2-1-1-0.6c-0.3,0.2-0.6,0.4-0.6,0.9c-0.1,0.9-0.2,1.8-0.4,2.6c-0.2,0.7-0.5,1.3-1.2,1.6c-0.5,0.2-0.7,0.1-0.6-0.4
	c0.1-0.9-0.2-1.9,0.3-2.8c0.1-0.2,0.2-0.6-0.1-0.8c-0.3-0.3-0.5,0.1-0.7,0.1c-0.6,0.1-0.6,0.6-0.8,0.9c-0.3,0.6-0.4,0.6-0.8,0.1
	c-0.1-0.1-0.1-0.1-0.2-0.1c-0.9-0.2-2.9,0.6-3.3,1.5c-0.5,1-1.3,2-1.2,3.2c0,0.2-0.1,0.4-0.2,0.5c-0.6,0.7-0.7,1.6-1.4,2.2
	c-0.2,0.2-0.3,0.4-0.1,0.7c0.1,0.2,0.3,0.4,0.5,0.3s0.5-0.2,0.5-0.5c0.1-1,0.8-1,1.4-0.7c1.2,0.6,2.2,0.1,3-0.7c0.6-0.5,1-1.2,2-0.6
	c0.2,0.1,0.5,0,0.7-0.1c0.5-0.3,1-0.6,1.4-1.1c0.4-0.5,0.9-0.7,1.5-0.6c1,0.2,1.8-0.2,2.4-1.1c0.4-0.7,0.7-1.1,1.5-0.5
	c0.2,0.2,0.5,0,0.8-0.1c0.7-0.3,1.3-0.8,1.7-1.4c0.3-0.4,0.6-0.4,1-0.3c1.4,0.5,2.5,0.1,3.2-1.3c0.3-0.6,0.8-0.8,1.4-0.5
	c0.3,0.2,0.6,0.3,1,0.2c1.1-0.2,2.1-0.5,2.9-1.4c0.4-0.5,0.8-0.9,1.4-1.3c0.2,0.4-0.1,1,0.4,1.2c0.4,0.2,1.7-0.5,1.7-1
	c0.2-1.9,0.7-3.8,0.6-5.8c0-0.2,0.1-0.5-0.2-0.7c-0.3-0.2-0.5,0.1-0.7,0.3c-0.9,0.6-0.6,1.6-0.9,2.4c-0.5,1.2-1,2.5-2,3.5
	c-0.6,0.6-1.4,1-2.3,0.9c-0.4-0.1-0.8-0.3-0.9-0.7c-0.1-0.4,0.4-0.3,0.7-0.5c0.9-0.4,1.8-0.5,2.4-1.4c0.6-0.9,0.3-2.3-0.6-2.7
	c-0.9-0.4-2.3,0.1-2.9,0.8c-0.8,0.9-0.9,2-1.1,3c-0.1,0.7-0.3,1.4-0.7,2c-0.2,0.3-0.4,0.6-0.8,0.5c-0.4-0.1-0.3-0.6-0.3-0.9
	c0-1.3,0.2-2.6,0.3-3.8c0.2-1.9,0.3-3.7,1.4-5.3c3.5,0.1,7-0.2,10.6,0.2c-0.5,0.6-1.2,1.1-0.8,2c0.1,0.2,0,0.5,0.3,0.5
	c0.2,0,0.4-0.1,0.5-0.2c0.3-0.4,0.7-0.7,1.1-0.9v1.4c0.9-0.6,1-0.9,0.2-1.5c0.4-0.6,1-0.7,1.5-1.1l0.2,0.1c0,0.5-1,0.4-0.7,0.9
	c0.4,0.6,0,1-0.2,1.4c-0.4,0.9-0.2,1.4,0.8,1.4c0.4,0,0.8,0,0.8,0.6c-0.3-0.2-0.6-0.6-1.1-0.3c-0.2,0.1-0.4,0.3-0.3,0.6
	c0.1,0.4,0.5,0.5,0.9,0.5c0,0.2,0,0.5-0.3,0.6C45.4,40,45,39.9,44.6,40c-0.7-0.1-1.2,0.1-1.4,0.9c-0.1,0.2-0.4,0.4-0.1,0.6
	c0.2,0.2,0.5,0.1,0.7-0.1c0.4-0.2,0.9-0.2,1.3,0.1c0.2,0.8-0.2,1.5-0.8,1.7c-0.7,0.2-1.2,0.6-1.8,0.9c-1,0.6-2.2,0.9-3.3,1.3
	c-1.7,0.7-3.3,1.4-5,2.1c-2.4,0.9-4.7,2-7,2.9c-2.4,1-4.4,2.5-6.4,4c-0.2,0.1-0.4,0.3-0.3,0.6c0.1,0.3,0.4,0.4,0.7,0.2c0,0,0,0,0,0
	c1.2-0.6,2.4-0.3,3.6-0.3c0.9,0,1.4-0.3,2-0.9c1.6-1.8,3.3-3.5,5.6-4.4c2.1-0.9,4.2-1.9,6.3-2.7c1.3-0.5,2.4-1.3,3.7-1.8
	c1.5-0.5,2.7-1.4,3.8-2.5c0.1,0.2,0.1,0.5,0.2,0.7c0.1,0.3,0.1,0.7,0.5,0.7c0.4,0,0.6-0.4,0.9-0.6c0.4-0.3,0.1-0.9,0.5-1.1
	c0.1,0.5,0.2,0.9,0.4,1.4c0.3,1-0.8,0.1-0.9,0.7c1.1,0.2,0.5,1.1,0.6,1.7c0.1,0.6-0.6,0.7-0.8,0.7c-0.5,0-0.9,0.4-1.5,0.3
	c-0.6,0-0.7,0.6-1,1c-0.1,0.2,0,0.4,0.2,0.5c0.2,0.2,0.7,0.2,0.5,0.6c-0.1,0.4-0.5,0.5-0.9,0.5c-0.2,0-0.4-0.1-0.6,0.2
	c0.8,0.5,0.3,0.8-0.2,0.9c-0.6,0.1-0.8,0.5-1.1,0.9c-0.4,0.5-0.5,1.1-1,1.4c-1.3,0.9-1.4,2.6-0.4,3.8c0.6,0.6,1.3,0.7,1.9,1
	c-0.7,0.7-1.3,1.4-2.1,2c-0.4,0.3-0.9,0.5-0.9,1.1c-0.2,0.4-0.2,1-0.7,1.3c-0.3-0.4-0.8-0.2-1.2-0.2c-11.2,0-22.5,0-33.7,0
	c-1.2,0-1.2,0-1.2-1.2c0-8.6,0-17.2,0-25.8c0-0.3,0-0.6,0-0.8L7.1,33.9z M7.7,49.5c0.3-4,1.2-7.1,3.6-9.6c0.7-0.7,1.5-1.3,2.5-1.6
	c1.1-0.3,1.9,0,2.8,0.7c0.9,0.6,0.5,1.3,0.5,2c0,0.6-0.7,0.6-1.1,0.8c-0.7,0.2-1.6-0.6-1.5-1.3c0.1-0.4,0.3-0.8-0.2-0.9
	c-0.5-0.1-1.1,0.2-1.2,0.6c-0.2,0.7-0.1,1.5-0.1,2.2c0,0.5,0.5,0.5,0.8,0.7c1.5,1.2,3.1,1,4.3-0.3c0.8-0.9,0.9-2,0.9-3.2
	c-0.1-1.2-1.1-2.5-2.4-2.7c-2-0.4-3.8,0.4-5.4,1.4c-1.3,0.8-2.5,2-3.2,3.5c-0.6,1.1-1,2.3-1.7,3.3c-0.6,1-0.4,2.1-0.6,3.1
	c-0.3,1.3-0.2,2.7,0.1,4.1c0.5,2.3,1.1,4.3,3,5.8c1.3,1.1,2.8,1.8,4.7,1.5c2.5-0.3,4.1-4,3-5.9c-0.2-0.3-0.3-0.8-0.7-0.8
	c-0.5,0.1-0.4,0.6-0.5,1c-0.3,1.4-1.1,2.2-2.6,2.3c-1.7,0.1-4.3-1.7-4.5-3.4C8.2,51.5,7.5,50.2,7.7,49.5L7.7,49.5z M20.9,40.1
	c0,0.5,0.6,1.2,1.1,1.2c0.4,0,1.2-0.8,1.1-1.4c-0.1-0.6-0.2-1.2-1-1.2C21.4,38.8,20.9,39.3,20.9,40.1z M47.9,44.6
	c-0.1,0.6-0.2,0.9,0.1,1.2C48.1,45.4,48.1,45.1,47.9,44.6L47.9,44.6z"/>
<path class="st4" d="M39.9,62.1c0.5-0.3,0.5-0.8,0.7-1.3c0.4-0.5,1.1,0.1,1.5-0.3c1.8,0.6,3.6,1.1,5.4,1.7c1.7,0.5,3.3-0.4,3.5-2.1
	c0-0.1,0-0.2,0-0.2c1-0.6,0.7-1.6,0.9-2.5c0.1-0.5,0.3-1,0.7-1.2c0.5-0.2,0.5,0.4,0.6,0.7c0.2,0.5,0.6,0.3,0.9,0.2
	C55,57,55.5,56.5,56,56c0.5-0.5,1.1-0.5,1.5,0.1c0.2,0.2,0.3,0.5,0.6,0.6c0.1-0.4-0.2-0.7-0.3-1c0-0.2,0-0.3,0.2-0.4
	c0.1-0.1,0.2,0,0.3,0.1c0.5,0.6,1.2,0.3,1.9,0.3c0.1,0,0.3-0.2,0.5,0c0.3,0.3-0.1,0.3-0.3,0.4c-0.2,0.1-0.3,0.3-0.4,0.5
	c-1.1,0-2.7,1.3-3.3,3c0.5-0.5,0.8-0.9,1.1-1.2c0.5-0.5,0.9-1.1,1.7-1.2c-0.1,0.4-0.1,0.7-0.3,1.1c-0.2,0.4-0.1,0.8,0.6,0.7
	c2-0.4,4-0.8,6-1.3c0.9-0.2,0.9-0.4,0.3-1.1c-0.6-0.7-1.4-1.3-1.7-2.2c0.2,0,0.4,0.2,0.5,0.3c0.3,0.4,0.6,0.7,1,0.9
	c0.2,0.5,0.6,0.9,1.1,1.2c0.1,0.4,0.4,0.6,0.6,0.8c0.2,0.3,0.5,0.6,0.7,0.9c0.1,0.5,0.9,0.5,0.8,1.1c-0.5,0.2-0.1,0.6-0.1,0.9l0,0.9
	v0.2c0.1,1-0.2,1.5-1.3,1.7c-2.2,0.5-4.4,1.1-6.7,1.6c-2.6,0.6-5.2,1.2-7.9,1.7c-0.6,0.1-0.9,0.6-1.2,1c-0.8,1.2-1.2,1.3-2.5,0.9
	c-3-0.9-6-1.6-8.9-2.7c-0.2-0.1-0.4-0.1-0.6-0.1c-0.7-0.1-1-0.3-0.9-1.1C39.2,63.6,39.6,62.9,39.9,62.1z M51.1,63.7
	c-0.1-0.4-0.1-0.9-0.4-1c-0.4-0.1-0.3,0.4-0.3,0.7c0,0.3-0.2,0.7,0.4,0.8C51,64.2,51.2,64,51.1,63.7L51.1,63.7z"/>
<path class="st0" d="M69,61.5v-0.2c7.7-0.1,15.3-0.6,22.9-2.4c0,0.5-0.2,0.8-0.8,0.8c-0.3,0-0.6,0-0.9,0.2c-0.2,0.2-0.4,0.1-0.2,0.6
	c0.2,0.5,0.2,1-0.7,1.1c-3.5,0.4-7,0.4-10.5,0.4c-2.9,0-5.8,0-8.7,0C69.7,61.8,69.3,61.9,69,61.5z"/>
<path class="st0" d="M87.8,66.3c0.1,0.5,0.4,0.4,0.7,0.4c0.5,0,1,0,1.6,0c0.2,0,0.4,0,0.4,0.2c0,0.1-0.2,0.4-0.4,0.3
	c-0.5-0.2-1,0-1.5,0.2c-0.2,0.1-0.3,0-0.4-0.1c-0.3-0.5-0.6-0.5-1-0.2c-0.5,0.4-0.8-0.4-1.3-0.2c0.3-0.5,0.6-0.7,1-0.5
	C87.3,66.7,87.5,66.5,87.8,66.3L87.8,66.3z"/>
<path class="st0" d="M96.2,60.1c-0.1,0.2-0.1,0.4-0.2,0.6c-0.2,1-0.6,1.1-1.3,0.5c-0.1-0.1,0-0.8,0.5-0.9
	C95.5,60.3,95.8,60.2,96.2,60.1L96.2,60.1z"/>
<path class="st0" d="M97.7,66.6c0.2,0,0.4,0,0.7,0c0.2,0,0.4-0.1,0.5,0.2c0,0.2,0,0.3-0.1,0.4c-0.1,0.2-0.3,0.2-0.5,0.1
	c-0.4-0.3-0.9-0.5-1.3,0.1c-0.1,0.2-0.3,0.1-0.4-0.2c-0.1-0.2-0.3-0.5,0.1-0.6C97,66.6,97.3,66.6,97.7,66.6L97.7,66.6z"/>
<path class="st0" d="M94.3,66c0.4,0,0.1-0.7,0.6-0.6c0.3,0.1,0.4,0.5,0.3,0.6c-0.2,0.5-0.7,0.2-1.1,0.2c-0.3,0-0.5-0.1-0.4-0.4
	c0.1-0.2,0-0.4,0.2-0.6C94.3,65.4,94,65.8,94.3,66z"/>
<path class="st0" d="M85.6,66.5c-0.1-0.5-0.8-0.8-0.3-1.5c0.1-0.2,0.2-0.3,0.4-0.2c0.2,0.1,0.4,0.3,0.3,0.5
	C85.7,65.7,86,66.2,85.6,66.5z"/>
<path class="st0" d="M91.3,66.1c0.2,0.1,0.3,0.5,0.7,0.4c0-0.4-0.4-0.8,0-1.2c0.4,0.9,0.3,1.3-0.4,2.1
	C91.5,66.9,91.3,66.6,91.3,66.1z"/>
<path class="st0" d="M94.6,66.6c-0.3,0.7-0.7,0.9-1.3,0.8c-0.2-0.1-0.3-0.3-0.3-0.4C93.5,66.4,94,66.8,94.6,66.6z"/>
<path class="st0" d="M90.3,60.8c0.4,0.4,0.6,0.7,0.6,1.1c0,0-0.2,0.1-0.3,0.1C90,61.8,90.3,61.4,90.3,60.8z"/>
<path class="st0" d="M95.8,66.2c-0.2,0-0.3-0.1-0.3-0.2c0.1-0.2,0-0.6,0.3-0.7c0.2-0.1,0.3,0.1,0.3,0.3C96,65.8,96,66.1,95.8,66.2z"
	/>
<path class="st0" d="M96.2,60.1c0-0.3,0.2-0.4,0.5-0.3c0.3,0.1,0.5,0.3,0.8,0.3l0,0c-0.1,0.4-0.3,0.4-0.6,0.2
	C96.7,60.2,96.5,60.1,96.2,60.1L96.2,60.1z"/>
<path class="st0" d="M86.3,68.9c0,0.3-0.2,0.5-0.5,0.5C85.8,69,86,68.9,86.3,68.9z"/>
<path class="st0" d="M94,60.7c0,0.1,0.1,0.1,0.1,0.1c0,0-0.1,0.1-0.1,0.1c0-0.1-0.1-0.1-0.1-0.1C93.9,60.8,94,60.7,94,60.7z"/>
<path class="st4" d="M102,72.8l-0.1,0.2l-0.1-0.1C101.8,72.9,101.9,72.8,102,72.8L102,72.8z"/>
<path class="st0" d="M28.9,33l-2.1,0c0.1-0.6-0.1-1.3,0.9-0.6c0.2,0.1,0.4,0.1,0.5,0c0.6-0.4,0.8-0.4,0.6,0.4
	C28.8,32.8,28.9,32.9,28.9,33z"/>
<path class="st3" d="M93.5,44.9c-0.6-0.2-1.1-0.4-1.7,0c-0.2,0.1-0.5,0.3-0.5,0.6c0,0.3,0.1,0.6-0.3,0.7c-0.4,0.1-0.5-0.3-0.6-0.5
	c-1-1.4-2.4-2-4.1-1.7c-0.7,0.1-1.3,0.4-1.9,0.7c-0.3,0.2-0.7,0.4-1,0.1s-0.2-0.7-0.1-1c0.2-0.6,0.5-1.2,0.5-1.9
	c-0.1-0.5-0.2-0.6-0.7-0.4c-0.7,0.4-1.4,0.6-2,1c-0.4,0.2-0.6,0.6-0.2,1.1c0.3,0.4,0.5,0.8,0.9,1.1c0.5,0.3,0.4,0.9,0.2,1.4
	c-0.2,0.5-0.6,0.1-0.7-0.1c-0.6-0.6-1.4-0.9-2.1-1.4c-0.6-0.4-1.1-0.5-1.6,0.1c-0.1,0.1-0.3,0.3-0.5,0.2c-0.2-0.1-0.1-0.4-0.1-0.6
	c0.4-0.8,1.2-1.3,1.6-2c0.1-0.1,0.2-0.1,0.3-0.1c0.9,0.6,1.3-0.2,1.8-0.6c1.5-1.2,3-2.4,4.3-3.8c0.6-0.7,1-0.7,1.6,0.2
	c0.4,0.5,0.8,0.9,1.5,0.8c0.5-0.1,0.6,0.3,0.8,0.6c0.4,0.6,0.6,1.6,1.7,1.1c0.3-0.1,0.5,0.4,0.8,0.6c0.7,0.6,1.1,1.5,1.9,2
	C93.5,43.8,93.5,44.4,93.5,44.9z"/>
<path class="st3" d="M69,60.3c0.1-0.3-0.4-0.7,0.1-0.9c3.2,0.1,6.4,0,9.5-0.2c2.8-0.2,5.6-0.6,8.4-0.7l0,0C86.9,59,86.5,59,86.1,59
	c-2.5,0.3-5,0.7-7.5,0.9c-2.7,0.1-5.5,0.4-8.2,0.2C69.9,60.1,69.4,60.2,69,60.3z"/>
<path class="st0" d="M79,38c0.7-0.1,1.1-0.7,1.6-1.1c1-0.9,2.3-1.4,3.7-1.5c0.4,0,0.7-0.2,1-0.3c0.2,0,0.4-0.1,0.5,0.1
	c0.1,0.3-0.2,0.3-0.4,0.4c-1,0.3-2.1,0.6-3.1,0.9c-0.9,0.3-1.7,0.7-2.2,1.4c-0.3,0.3-0.5,0.7-0.1,1.2c0.4,0.5,0.7,0.2,1.1,0
	c0.3-0.2,0.5-0.5,0.9-0.3c0.2,0.1,0.5,0.2,0.4,0.5c0,0.3-0.3,0.2-0.5,0.3c-0.8,0.5-1.7,0.4-2.5,0.1c-0.3-0.1-0.6,0-0.6,0.3
	c-0.1,1-1.3,1.3-1.6,2.3c-0.2-1.3,0.1-2.4,1-3.3C78.6,38.7,79,38.5,79,38L79,38z"/>
<path class="st0" d="M76,46.2l0-0.5c0.3,0,0.3-0.4,0.7-0.6c0.1,1.6-0.5,2.9-0.9,4.2l0,0h-0.4c-0.1-0.8,0.2-1.6,0.2-2.4
	C76.2,46.9,76,46.5,76,46.2z"/>
<path class="st3" d="M87,58.5L87,58.5C87.1,58.4,87,58.5,87,58.5L87,58.5z"/>
<path class="st2" d="M45.8,40.1c0.2-0.1,0.2-0.4,0.3-0.6c0.6,0,0.5-0.5,0.5-0.9c0.1-0.6-0.3-0.6-0.8-0.6c-1,0-1.3-0.5-0.8-1.4
	c0.2-0.4,0.6-0.8,0.2-1.4c-0.3-0.5,0.7-0.4,0.7-0.9c0.3-0.4,0.8-0.4,1.2-0.4c9.5,0,19,0,28.5,0c0.3,0,0.6-0.1,0.8,0.2
	c0.1,0.3-0.2,0.4-0.4,0.6c-0.9,1.2-1.4,2.6-2.1,3.9c-0.7-0.8-1.6-1.2-2.5-1.5c-0.6-0.2-1,0.8-1.4,1.3c-0.1,0.1-0.2,0.2-0.3,0.3
	c-0.6,0.4-0.7,0.7-0.1,1.2c0.3,0.2,0.4,0.5,0.1,0.8c-0.3,0.3-0.4,0.7-0.4,1.1c-0.1,0.4-0.3,0.7-0.7,0.2c-0.4-0.5-0.7-0.5-1.1,0
	c-0.5,0.5-1.1,1-1.6,1.5c-0.1,0.1-0.4,0.2-0.5,0.1c-0.6-0.6-1.1-0.1-1.6,0.2c-1.5,0.9-3,1.9-4.6,2.8l0.1,0.2
	c0.9-0.2,1.8-0.5,2.7-0.8c0.3-0.1,0.5-0.3,0.8,0c0.3,0.3-0.1,0.5-0.1,0.7c-0.1,0.5-0.6,0.7-0.5,1.4c0.8-0.4,1.2-1.1,1.8-1.6
	c1-1,1.2-1,2.2-0.2c0.2,0.2,0.6,0.5,0.8,0.2c0.3-0.3-0.1-0.5-0.2-0.8c-0.1-0.1-0.1-0.2-0.2-0.3c-0.2-0.3-0.8-0.8-0.6-1
	c0.4-0.4,1.1-0.4,1.8-0.3c0.3,0.1,0.3,0.4,0.3,0.6c0,0.5,0.2,1,0.7,1c0.8,0,0.6,0.4,0.4,0.8c-0.3,0.7-0.6,1.4-0.8,2.1
	c-0.3,0.8-1.2,0.7-1.8,0.7c-1.9,0.1-3.8,0.1-5.6,0.3c-2.2,0.2-4.4,0.3-6.4,1.2c-0.7,0.3-1.4,0.6-1.4,1.6c0,1,0.6,1.5,1.4,1.8
	c0.7,0.2,1.4,0.5,2.1,0.8c-0.2,0.3-0.6,0.3-0.9,0.3c-1.8-0.2-3.5-0.9-5.3-1.5c-0.7-1.1,0.1-2,0.7-2.8c-0.4-0.2-0.6,0.1-0.9,0
	c-0.4-0.3-0.9-0.2-1.3-0.1c-1.7,0.3-3.2,1.3-4.2,2.7c-0.2-0.9,0.4-1.2,1-1.6c0.2-0.1,0.6-0.2,0.4-0.5c-0.1-0.2-0.5-0.1-0.7,0
	c-0.6,0.3-1.2,0.6-1.7,1c-1.5,1.1-1.7,3.3,0.1,4.3c0.7,0.4,0.8,0.7,0,1.1c-0.7-0.3-1.4-0.4-1.9-1c-1.1-1.2-1-2.9,0.4-3.8
	c0.5-0.4,0.6-1,1-1.4c0.3-0.4,0.6-0.7,1.1-0.9c0.5-0.1,1-0.4,0.2-0.9c0.2-0.2,0.4-0.2,0.6-0.2c0.4,0,0.8,0,0.9-0.5
	c0.1-0.4-0.3-0.5-0.5-0.6c-0.2-0.1-0.4-0.3-0.2-0.5c0.3-0.4,0.4-1,1-1c0.6,0,0.9-0.3,1.5-0.3c0.3,0,0.9-0.2,0.8-0.7
	c-0.1-0.6,0.5-1.5-0.6-1.7c0.1-0.6,1.2,0.4,0.9-0.7c-0.1-0.5-0.3-0.9-0.4-1.4c-0.5,0.3-0.2,0.8-0.5,1.1c-0.3,0.2-0.5,0.6-0.9,0.6
	s-0.3-0.5-0.5-0.7c-0.1-0.2-0.2-0.5-0.2-0.7c0-0.1,0-0.2,0-0.4C46.5,41.4,46.3,40.7,45.8,40.1z"/>
<path class="st5" d="M32.3,34c-1.1,1.6-1.3,3.4-1.4,5.3c-0.1,1.3-0.3,2.5-0.3,3.8c0,0.3-0.1,0.7,0.3,0.9c0.4,0.1,0.6-0.2,0.8-0.5
	c0.4-0.6,0.6-1.3,0.7-2c0.2-1.1,0.3-2.1,1.1-3c0.7-0.8,2-1.2,2.9-0.8c0.9,0.4,1.2,1.8,0.6,2.7s-1.5,1-2.4,1.4
	c-0.3,0.1-0.7,0-0.7,0.5c0,0.4,0.5,0.6,0.9,0.7c0.9,0.1,1.7-0.3,2.3-0.9c1-1,1.5-2.2,2-3.5c0.3-0.8,0-1.8,0.9-2.4
	c0.2-0.1,0.4-0.4,0.7-0.3c0.3,0.1,0.2,0.4,0.2,0.7c0,2-0.5,3.9-0.6,5.8c0,0.4-1.3,1.2-1.7,1c-0.5-0.3-0.2-0.8-0.4-1.2
	c-0.6,0.3-1,0.8-1.4,1.3c-0.7,0.9-1.8,1.2-2.9,1.4c-0.3,0.1-0.7,0-1-0.2c-0.6-0.3-1.1-0.2-1.4,0.5c-0.7,1.4-1.8,1.8-3.2,1.3
	c-0.4-0.1-0.7-0.1-1,0.3c-0.4,0.6-1,1.1-1.7,1.4C25.5,48,25.2,48.2,25,48c-0.8-0.6-1.1-0.2-1.5,0.5c-0.5,0.9-1.3,1.3-2.4,1.1
	c-0.6-0.1-1.1,0.1-1.5,0.6c-0.4,0.5-0.8,0.8-1.4,1.1c-0.2,0.1-0.5,0.2-0.7,0.1c-0.9-0.6-1.4,0.1-2,0.6c-0.8,0.7-1.8,1.3-3,0.7
	c-0.6-0.3-1.3-0.2-1.4,0.7c0,0.3-0.3,0.4-0.5,0.5c-0.2,0.1-0.4-0.2-0.5-0.3c-0.1-0.2-0.1-0.5,0.1-0.7c0.7-0.6,0.9-1.5,1.4-2.2
	c0.1-0.1,0.2-0.3,0.2-0.5c-0.1-1.3,0.7-2.2,1.2-3.2c0.4-0.8,2.4-1.7,3.3-1.5c0.1,0,0.2,0.1,0.2,0.1c0.4,0.5,0.5,0.4,0.8-0.1
	c0.2-0.4,0.2-0.8,0.8-0.9c0.2-0.1,0.5-0.4,0.7-0.1c0.2,0.2,0.2,0.6,0.1,0.8c-0.5,0.9-0.2,1.9-0.3,2.8c-0.1,0.5,0.2,0.6,0.6,0.4
	c0.7-0.3,1-1,1.2-1.6c0.2-0.9,0.3-1.7,0.4-2.6c0-0.4,0.3-0.7,0.6-0.9c0.7-0.4,1-0.3,1,0.6c0,0.7,0,1.5,0,2.2c0,0.3-0.1,0.7,0.4,0.8
	c0.4,0,0.9,0,1.1-0.5c0.8-1.5,1.1-3.1,1.3-4.7c0.3-2.4,0.3-4.9,1.5-7.1c0.3-0.2,0.2-0.5,0.2-0.7c0.5,0,1.1-0.8,1.5,0.1
	c-1.2,1.9-1.6,4-1.5,6.3c0,0.6,0.1,1.4-0.1,1.9c-0.4,0.9-0.3,1.8-0.3,2.6c0,0.7,0.5,0.9,1,0.4c0.5-0.4,0.9-1,1.1-1.6
	c0.3-1.6,0.7-3.2,0.9-4.8c0.2-1.7,0.5-3.4,1.5-4.9C31.4,33.8,31.8,33.5,32.3,34z M16.8,47.9c0-0.6-0.1-1.1-0.7-1.3
	c-0.5-0.1-1.1-0.5-1.6,0.1c-0.6,0.8-1.3,1.7-1.1,2.8c0.1,0.7,1.1,1.4,1.7,1C16,50,16.6,49,16.8,47.9z M36.5,39
	c-0.2-0.3-0.4-0.6-0.9-0.6c-0.7,0.1-1.7,1.4-1.5,2c0,0.1,0.1,0.1,0.2,0.2C34.9,40.9,36.5,39.7,36.5,39z"/>
<path class="st5" d="M50.3,53.6c1.7,0.6,3.4,1.3,5.3,1.5c0.3,0,0.7,0,0.9-0.3c0.7-0.2,1.5,0.2,2.1-0.4c0.5-0.2,1.2,0.6,1.5-0.4
	c1,0.1,1.9-0.2,2.9-0.2c0.5,0,0.8,0,1.1,0.4c-0.2,0.3,0.1,0.2,0.2,0.2v0c0.3,1,1.2,1.5,1.7,2.2c0.5,0.7,0.5,0.9-0.3,1.1
	c-2,0.4-4,0.9-6,1.3c-0.7,0.1-0.8-0.2-0.6-0.7c0.2-0.4,0.2-0.7,0.3-1.1l0,0c0.3,0,0.5,0.5,0.8,0.3c0.8-0.5,1.8-0.6,2.3-1.6
	c0.1-0.2,0.2-0.4,0.1-0.6c-0.1-0.2-0.3-0.1-0.5-0.1c-0.2,0.1-0.6,0.1-0.5,0.4c0.2,0.4-0.1,0.4-0.3,0.4c-0.5,0.2-0.9,0.4-1.4,0.6l0,0
	c0.1-0.2,0.3-0.3,0.4-0.5c0.1-0.1,0.5-0.1,0.3-0.4c-0.2-0.2-0.4,0-0.5,0c-0.6,0-1.3,0.3-1.9-0.3c-0.1-0.1-0.2-0.2-0.3-0.1
	c-0.1,0.1-0.2,0.2-0.2,0.4c0.1,0.3,0.4,0.6,0.3,1c-0.3-0.1-0.5-0.4-0.6-0.6c-0.4-0.6-1-0.7-1.5-0.1c-0.5,0.6-1,1-1.7,1.3
	c-0.3,0.1-0.7,0.3-0.9-0.2c-0.1-0.3-0.1-0.9-0.6-0.7C52.3,56.5,52,57,52,57.5c-0.1,0.9,0.1,1.9-0.9,2.5c0,0,0,0.1,0,0.2
	c-0.2,1.7-1.8,2.6-3.5,2.1c-1.8-0.6-3.6-1.1-5.4-1.7c0.6-0.3,0.5-1,1-1.4c1.5-1.3,2.9-2.7,4.5-4C48.3,54.4,49,53.4,50.3,53.6z
	 M49.8,57.9c0,0.1,0,0.2,0,0.4c0.1,0.3-0.1,0.6,0.2,0.9c0.2-0.3,0.6,0.2,0.8-0.1c0.4-0.4-0.2-0.5-0.2-0.8c0-0.2,0-0.5,0-0.7
	c-0.1-0.4,0.2-0.9-0.1-1.3C50,56.8,50.2,57.5,49.8,57.9c-0.2-0.2-0.4-0.4-0.2-0.8c0.2-0.3,0.2-0.7-0.2-0.9c-0.6-0.2-0.8-0.7-1.2-1.2
	c0,0.5,0,1.1,0.3,1.4c0.1,0.2,0.6,0.3,0.5,0.7c-0.2,0.5-0.6-0.1-0.9,0.2l0.9,0.4c-0.6,0.1-1.2,0.2-0.9,0.9c0.2,0.4-0.1,0.2-0.2,0.1
	c-0.3-0.2-0.5,0-0.6,0.3c-0.2,0.4,0,0.6,0.2,0.8c0.2,0.2,0.6,0.2,0.6,0.6c-0.2,0.1-0.4,0.1-0.6-0.1c-0.2-0.1-0.5-0.1-0.7,0.1
	c1.2,0.6,2.3,0.4,3.5,0.1c0.3-0.1,0.4-0.4,0-0.5c-0.3-0.1-0.7-0.4-0.9,0.1c-0.1,0.3-0.5,0.3-0.7,0.1c-0.4-0.2,0-0.4,0.1-0.6
	c0.1-0.4,0.2-0.9,0.4-1.3C49.3,58.5,49.2,58,49.8,57.9L49.8,57.9z M46,58.3c-0.5,0-0.9,0.2-1.1,0.7c-0.1,0.5,0.2,0.7,0.5,1
	c0.1,0.1,0.3,0.1,0.4,0c0,0,0,0,0,0c0.1-0.1,0.1-0.2-0.1-0.3c-0.3-0.2-0.7-0.3-0.3-0.8c0.3-0.4,0.6-0.3,1-0.1c0.2,0.1,0.4,0.2,0.5,0
	c0.1-0.2-0.1-0.3-0.3-0.4C46.4,58.4,46.2,58.4,46,58.3L46,58.3z M51.6,56.6c0-0.3,0-0.7-0.3-0.6c-0.5,0.1-0.2,0.7-0.4,1
	c-0.1,0.2,0.1,0.4,0.3,0.3C51.7,57.2,51.6,56.9,51.6,56.6L51.6,56.6z"/>
<path class="st2" d="M75.5,49.4h0.4c-0.1,0.6,0.4,0.6,0.8,0.6c0.1,0.7-0.2,1-0.9,1.1c-0.6,0.1-1,0.3-1,0.9c-0.1,0.3-0.4,0.4-0.4,0.8
	c0.9-0.1,1.7-0.1,2.6-0.3c0.4-0.1,0.5-0.4,0.2-0.7c0.1-0.2,0.3-0.2,0.5-0.2c0.4,0.3,0.8-0.1,1.2,0l0,0c0.1,0.2-0.3,0.4,0,0.7
	c0.3-0.2,0.7-0.3,1-0.3c0.6-0.1,1.2-0.1,1.6-0.7c0.2-0.3-0.3-0.3-0.2-0.5c0.5,0.1,1,0.2,1.1,0.8c0.1,0.6-0.4,0.8-0.8,1
	c-1.4,0.7-3,1-4.5,1.2c-1.3,0.2-2.7,0.3-4,0.4c-1.6,0.2-3.2-0.3-4.8-0.4c-1-0.1-2,0-3.1-0.1c-1.2-0.1-2.3-0.2-3.4-0.7
	c0.5-0.1,1.3,0.4,1.5-0.6c0.6,0.1,0.8,0,0.5-0.7c-0.2-0.4-0.5-0.4-0.9-0.5c0.1-0.2,0.1-0.5,0.2-0.7c1.2-0.5,2.6-0.3,3.8-0.3
	c0.3,0,0.4,0.1,0.3,0.5s-0.1,0.7-0.4,1c0.1-0.7-0.2-1-0.9-0.9c-0.9-0.9-1.5-0.2-2.3,0.3c0.2,0.1,0.4,0.3,0.7,0.4
	c0.2,0.1,0.7,0.2,0.7-0.1c0-0.9,0.5-0.4,0.8-0.4c0,0.3,0,0.5,0.2,0.7c-0.2,0.6-1,0.4-1.4,0.9c0.7,0.9,1.7,0.5,2.5,0.4
	c1.1-0.1,2.1,0.2,3.1,0.2c0.6,0,0.8-0.1,1-0.6c0.5-1.4,0.9-1.5,2.3-1.1c0.6,0.2,1.6-0.6,1.8-1.5C75.3,49.8,75.3,49.5,75.5,49.4z"/>
<path class="st2" d="M67.6,57.5c-0.3-0.2-0.5-0.4-0.6-0.8c2.6-0.2,5.2,0,7.8-0.1c1.9-0.1,3.8-0.3,5.7-0.4c1.5-0.1,3.1-0.4,4.6-0.7
	c1.8-0.4,3.5-1.2,4.9-2.4c0.3-0.3,0.2-1.5-0.2-1.9c-0.1-0.1-0.4-0.2-0.2-0.4c0.1-0.2,0.3-0.1,0.5,0c0.6,0.2,1.1,0.5,1.6,0.9
	c0.9,0.8,0.8,1.9-0.2,2.6c-1.6,1.2-3.5,1.8-5.4,2.1c-3.3,0.6-6.6,1-10,1.2C73.2,57.6,70.4,57.5,67.6,57.5z"/>
<path class="st0" d="M30.9,34c-1,1.5-1.3,3.2-1.5,4.9c-0.2,1.6-0.6,3.2-0.9,4.8c-0.1,0.6-0.5,1.2-1.1,1.6c-0.5,0.4-1,0.2-1-0.4
	c0-0.9-0.1-1.7,0.3-2.6c0.2-0.6,0.1-1.3,0.1-1.9c-0.1-2.2,0.4-4.3,1.5-6.3C29.2,33.8,30.1,34,30.9,34z"/>
<path class="st0" d="M67.3,41.9c0.4-0.6,0.7-0.5,1.1,0c0.4,0.6,0.6,0.3,0.7-0.2c0.1-0.4,0.1-0.8,0.4-1.1c0.3-0.3,0.1-0.6-0.1-0.8
	c-0.6-0.5-0.4-0.9,0.1-1.2c0.1-0.1,0.2-0.2,0.3-0.3c0.5-0.5,0.8-1.5,1.4-1.3c0.9,0.3,1.9,0.7,2.5,1.5L71,42.7c0,0,0,0.1-0.1,0.1
	c-0.4,0.4-0.4,1.3-1,1.2c-0.4,0-0.8-0.7-1.2-1.1C68.3,42.5,68,41.9,67.3,41.9z M69.4,42.7c0.4,0.1,0.1,0.8,0.7,0.6
	c0.2-0.1,0.4-0.2,0.3-0.4C70.2,42.5,69.9,42.5,69.4,42.7z"/>
<path class="st2" d="M65.9,55.5c-0.4-0.2-0.8-0.5-1-0.9c3.3,0.5,6.7,0.3,10,0.3c3.5,0,7-0.6,10.3-1.8c0.7-0.2,1.2-0.8,1.5-1.6
	c0.7,0.7,0.8,1,0.1,1.6c-0.7,0.6-1.5,0.9-2.3,1c-1.7,0.4-3.5,0.6-5.3,1c-4,0.8-8,0.4-11.9,0.5C66.7,55.7,66.3,55.6,65.9,55.5z"/>
<path class="st2" d="M60.1,54.1c-0.3,1-1,0.1-1.5,0.4c-0.9-0.1-1.8-0.5-2.6-0.9c-0.6-0.4-0.9-0.9-0.8-1.6c0.1-0.7,0.8-0.8,1.4-1
	c-0.1,0.5-0.7,0.8-0.4,1.3c0.3,0.4,0.6,0.7,1,0.9C58.2,53.5,59,54,60.1,54.1z"/>
<path class="st0" d="M74.7,51.9c0.1-0.6,0.4-0.9,1-0.9c0.6-0.1,1-0.4,0.9-1.1l0.9,0.1c0.1,0.2,0.2,0.2,0.4,0l0.6,0
	c0.1,0.1,0.2,0.2,0.4,0.2l0,0c0.4,0.9,1.2,1,2,0.4l0.4,0c-0.1,0.2,0.4,0.3,0.2,0.5c-0.9-0.1-1.7,0.6-2.6,0.4l0,0
	c0.1-0.4-0.1-0.7-0.6-0.7c-0.6-0.1-0.5,0.4-0.6,0.7c-0.2,0-0.4,0-0.5,0.2C76.4,51.8,75.5,51.6,74.7,51.9z"/>
<path class="st5" d="M45.7,34.2c-0.5,0.4-1.2,0.5-1.5,1.1L44,35.4c-0.4,0.2-0.8,0.5-1.1,0.9c-0.1,0.2-0.3,0.3-0.5,0.2
	c-0.3,0-0.2-0.3-0.3-0.5c-0.4-0.9,0.3-1.4,0.8-2c0.7-0.3,1.5-0.4,2.3-0.4C45.4,33.8,45.7,33.8,45.7,34.2z"/>
<path class="st0" d="M63,50.5c-0.1,0.2-0.1,0.5-0.2,0.7c-0.3,0.1-0.7,0-0.9,0.3c0.5,0.2,1.1,0.3,1.3,0.8c-0.2,0.9-1,0.4-1.5,0.6
	l-0.4-0.2l-0.2-0.2c-0.5-0.1-1.1-0.4-1-1c0.1-0.8,0.9-0.8,1.6-0.9c0.3,0,0.7,0.1,0.9-0.2L63,50.5z"/>
<path class="st2" d="M80.9,50.7c-0.8,0.7-1.6,0.5-2-0.4C79.6,50.3,80.3,50.3,80.9,50.7z"/>
<path class="st2" d="M22,33.9c-0.7,0.3-1.5,0.3-2.2,0C20.5,33.7,21.3,33.7,22,33.9z"/>
<path class="st0" d="M66,51.6c-0.1-0.2-0.2-0.5-0.2-0.7c0-0.1,0-0.1,0-0.2c0.7-0.1,1,0.2,0.9,0.9L66,51.6z"/>
<path class="st2" d="M25.7,33.9c-0.2,0.6-0.5,0.4-0.7,0C25.2,33.7,25.5,33.7,25.7,33.9z"/>
<path class="st2" d="M76,46.2c0,0.3,0.1,0.7-0.3,0.8C75.7,46.7,75.6,46.3,76,46.2z"/>
<path class="st2" d="M26.9,33.9c-0.1,0.2,0.1,0.6-0.2,0.7c-0.1-0.2-0.1-0.5-0.2-0.7C26.6,33.8,26.7,33.8,26.9,33.9z"/>
<path class="st2" d="M62.6,50.5c-0.3,0.3-0.6,0.2-0.9,0.2C62,50.4,62.3,50.5,62.6,50.5z"/>
<path class="st2" d="M77.9,50.1c-0.1,0.2-0.3,0.2-0.4,0C77.7,49.9,77.8,49.9,77.9,50.1z"/>
<path class="st2" d="M78.8,50.3c-0.1,0-0.3,0-0.4-0.2C78.6,50.1,78.8,50.2,78.8,50.3z"/>
<path class="st4" d="M64.3,54.4c-0.1,0-0.4,0.1-0.2-0.2C64.2,54.2,64.3,54.2,64.3,54.4z"/>
<path class="st2" d="M61.1,52.6l0.2,0.2L61.1,52.6z"/>
<path class="st0" d="M100.1,69.4L100.1,69.4h-0.2c0-0.1,0.1-0.2,0.1-0.2C100,69.3,100,69.4,100.1,69.4z"/>
<path class="st5" d="M7.7,49.5c-0.2,0.7,0.4,2,0.6,3.4c0.2,1.7,2.8,3.5,4.5,3.4c1.4-0.1,2.3-0.9,2.6-2.3c0.1-0.4,0-0.9,0.5-1
	c0.4,0,0.5,0.5,0.7,0.8c1.2,1.9-0.5,5.6-3,5.9c-1.9,0.2-3.3-0.4-4.7-1.5c-1.8-1.5-2.5-3.5-3-5.8c-0.3-1.4-0.4-2.8-0.1-4.1
	c0.2-1,0-2.1,0.6-3.1C7,44,7.5,42.9,8,41.7c0.7-1.5,1.9-2.6,3.2-3.5c1.6-1,3.4-1.8,5.4-1.4c1.2,0.2,2.3,1.5,2.4,2.7
	c0.1,1.2-0.1,2.3-0.9,3.2c-1.2,1.4-2.8,1.6-4.3,0.3c-0.3-0.2-0.8-0.2-0.8-0.7c0-0.7-0.1-1.5,0.1-2.2c0.1-0.4,0.7-0.7,1.2-0.6
	c0.6,0.1,0.3,0.5,0.2,0.9c-0.1,0.7,0.7,1.5,1.5,1.3c0.4-0.1,1.1-0.2,1.1-0.8c0-0.6,0.4-1.3-0.5-2c-0.9-0.7-1.7-1-2.8-0.7
	c-1,0.3-1.8,0.8-2.5,1.6C8.9,42.4,8,45.4,7.7,49.5z"/>
<path class="st5" d="M46.2,42.1c0,0.1,0,0.2,0,0.4c-1.1,1.1-2.3,2-3.8,2.5c-1.3,0.4-2.4,1.2-3.7,1.8c-2.1,0.9-4.2,1.9-6.3,2.7
	c-2.3,0.9-4,2.6-5.6,4.4c-0.6,0.6-1.1,0.9-2,0.9c-1.2,0-2.5-0.3-3.6,0.3c-0.2,0.1-0.6,0.1-0.7-0.2c0,0,0,0,0,0
	c-0.2-0.3,0.1-0.4,0.3-0.6c2-1.5,4-3.1,6.4-4c2.3-0.9,4.6-2,7-2.9c1.7-0.6,3.4-1.4,5-2.1c1.1-0.4,2.2-0.7,3.3-1.3
	c0.6-0.3,1.1-0.7,1.8-0.9c0.6-0.2,1-0.9,0.8-1.7l0.1-0.1C45.8,41.3,46.1,41.6,46.2,42.1z"/>
<path class="st3" d="M50.3,53.6c-1.3-0.2-2,0.8-2.8,1.4c-1.5,1.3-2.9,2.7-4.5,4c-0.5,0.4-0.4,1.1-1,1.4c-0.4,0.4-1.1-0.2-1.5,0.3
	c0.1-0.6,0.6-0.8,0.9-1.1c0.8-0.6,1.4-1.3,2.1-2c0.8-0.3,0.7-0.7,0-1.1c-1.8-1-1.7-3.3-0.1-4.3c0.5-0.4,1.1-0.7,1.7-1
	c0.2-0.1,0.5-0.2,0.7,0c0.2,0.3-0.2,0.4-0.4,0.5c-0.6,0.4-1.2,0.7-1,1.6c0,0.8-0.2,1.6,0.6,2.2l0.2,0.2l0,0l0.2,0.2
	c1.1-0.5,1.8-1.5,2.7-2.1c0.1-0.1,0.1-0.3,0.1-0.4c-0.1-1.3,0.8-2,1.8-2.6c0.3,0.1,0.5-0.3,0.9,0C50.4,51.6,49.6,52.5,50.3,53.6z"/>
<path class="st5" d="M20.9,40.1c0-0.8,0.5-1.3,1.2-1.3c0.8,0,0.9,0.6,1,1.2c0.1,0.5-0.7,1.4-1.1,1.4C21.5,41.3,20.9,40.7,20.9,40.1z
	"/>
<path class="st5" d="M45.1,41.4c-0.4-0.2-0.9-0.3-1.3-0.1c-0.2,0.1-0.5,0.3-0.7,0.1c-0.3-0.3,0.1-0.4,0.1-0.6c0.2-0.7,0.7-1,1.4-0.9
	C44.5,40.5,45.3,40.8,45.1,41.4L45.1,41.4z"/>
<path class="st5" d="M45.1,41.3c0.1-0.6-0.7-0.8-0.5-1.4c0.4-0.1,0.8,0.1,1.2,0.2c0.5,0.6,0.7,1.3,0.4,2
	C46.1,41.6,45.8,41.3,45.1,41.3z"/>
<path class="st5" d="M46.6,38.6c0,0.4,0.1,0.8-0.5,0.9c-0.4,0-0.7-0.1-0.9-0.5c-0.1-0.3,0.1-0.5,0.3-0.6
	C46,38.1,46.3,38.4,46.6,38.6z"/>
<path class="st2" d="M44,35.4l0.2-0.1c0.8,0.6,0.8,0.9-0.2,1.5V35.4z"/>
<path class="st2" d="M47.9,44.6c0.3,0.6,0.3,0.9,0.1,1.2C47.6,45.4,47.7,45.2,47.9,44.6z"/>
<path class="st5" d="M59.5,57.2c-0.8,0.1-1.2,0.7-1.7,1.2c-0.3,0.3-0.6,0.7-1.1,1.2c0.6-1.6,2.2-3,3.3-3l0,0
	C59.9,56.8,59.4,56.8,59.5,57.2L59.5,57.2z"/>
<path class="st5" d="M51.1,63.7c0.1,0.3-0.1,0.5-0.4,0.5c-0.5-0.1-0.3-0.5-0.4-0.8c0-0.3-0.1-0.8,0.3-0.7C51,62.8,51,63.3,51.1,63.7
	z"/>
<path class="st0" d="M45.1,55.7c-0.7-0.6-0.6-1.4-0.6-2.2c1-1.4,2.6-2.3,4.2-2.7c0.4-0.1,0.9-0.2,1.3,0.1c-1,0.6-1.9,1.2-1.8,2.6
	c0,0.1,0,0.4-0.1,0.4c-1,0.7-1.6,1.7-2.7,2.1l-0.2-0.2l0,0L45.1,55.7z"/>
<path class="st0" d="M16.8,47.9c-0.2,1.1-0.8,2-1.7,2.6c-0.6,0.4-1.6-0.3-1.7-1c-0.2-1.2,0.5-2,1.1-2.8c0.5-0.6,1.1-0.3,1.6-0.1
	C16.7,46.8,16.8,47.3,16.8,47.9z"/>
<path class="st0" d="M36.5,39c0.1,0.7-1.5,1.9-2.2,1.6c-0.1,0-0.2-0.1-0.2-0.2c-0.2-0.7,0.8-2,1.5-2C36,38.4,36.3,38.6,36.5,39z"/>
<path class="st4" d="M49.8,57.9c-0.5,0-0.4,0.6-0.6,0.8c-0.2,0.4-0.3,0.9-0.4,1.3c-0.1,0.2-0.5,0.4-0.1,0.6c0.2,0.1,0.5,0.1,0.7-0.1
	c0.3-0.6,0.6-0.2,0.9-0.1c0.4,0.2,0.2,0.5,0,0.5c-1.1,0.2-2.3,0.5-3.5-0.1c0.2-0.2,0.5-0.3,0.7-0.1c0.2,0.1,0.4,0.1,0.6,0.1
	c0-0.4-0.4-0.4-0.6-0.6c-0.3-0.2-0.4-0.4-0.2-0.8c0.1-0.3,0.2-0.5,0.6-0.3c0,0,0.3,0.2,0.2-0.1c-0.3-0.7,0.2-0.8,0.9-0.9L48,57.5
	c0.3-0.3,0.7,0.2,0.9-0.2c0.2-0.4-0.3-0.5-0.5-0.7c-0.2-0.4-0.2-0.9-0.3-1.4c0.4,0.4,0.7,0.9,1.2,1.2c0.4,0.2,0.4,0.6,0.2,0.9
	C49.4,57.5,49.6,57.7,49.8,57.9L49.8,57.9z"/>
<path class="st4" d="M59.4,57.2c0-0.4,0.4-0.3,0.6-0.6c0.5-0.2,1-0.4,1.4-0.6c0.1-0.1,0.4-0.1,0.3-0.4c-0.1-0.3,0.2-0.4,0.5-0.4
	c0.2,0,0.4-0.1,0.5,0.1c0.1,0.2-0.1,0.4-0.1,0.6c-0.4,1-1.5,1.1-2.3,1.6C59.9,57.7,59.8,57.2,59.4,57.2z"/>
<path class="st4" d="M49.8,57.9c0.4-0.4,0.2-1.1,0.6-1.7c0.3,0.5,0,0.9,0.1,1.3c0.1,0.2,0,0.5,0,0.7c0,0.3,0.6,0.4,0.2,0.8
	c-0.2,0.2-0.6-0.3-0.8,0.1c-0.3-0.2-0.1-0.6-0.2-0.9C49.8,58.2,49.8,58,49.8,57.9L49.8,57.9z"/>
<path class="st4" d="M46,58.3c0.2,0,0.4,0.1,0.6,0.2c0.2,0.1,0.4,0.2,0.3,0.4c-0.1,0.2-0.3,0.1-0.5,0c-0.4-0.2-0.7-0.3-1,0.1
	c-0.3,0.4,0.1,0.6,0.3,0.8c0.1,0.1,0.2,0.2,0.1,0.3c-0.1,0.1-0.2,0.1-0.4,0.1c0,0,0,0,0,0c-0.3-0.3-0.7-0.5-0.5-1
	C45.1,58.6,45.5,58.4,46,58.3z"/>
<path class="st4" d="M51.6,56.6c0,0.3,0,0.6-0.4,0.7C51,57.4,50.9,57.2,51,57c0.2-0.3-0.1-0.9,0.4-1C51.6,55.9,51.6,56.3,51.6,56.6z
	"/>
<path class="st3" d="M74.7,51.9c0.8-0.3,1.6-0.1,2.4-0.2c0.2,0.3,0.2,0.6-0.2,0.7c-0.9,0.1-1.7,0.2-2.6,0.3
	C74.3,52.3,74.7,52.2,74.7,51.9z"/>
<path class="st3" d="M65.8,50.7c0,0.1,0,0.1,0,0.2c-0.3,0-0.9-0.5-0.8,0.4c0,0.3-0.5,0.2-0.7,0.1c-0.2-0.1-0.5-0.2-0.7-0.4
	C64.3,50.5,65,49.8,65.8,50.7z"/>
<path class="st3" d="M63.2,52.3c-0.3-0.5-0.8-0.7-1.3-0.8c0.3-0.3,0.6-0.3,0.9-0.3c0.4,0.1,0.6,0.1,0.9,0.5
	C64,52.3,63.7,52.4,63.2,52.3z"/>
<path class="st3" d="M78.8,51.6c0.9,0.2,1.7-0.5,2.6-0.4c-0.4,0.6-1,0.6-1.6,0.7c-0.4,0.1-0.7,0.2-1,0.3
	C78.6,52.1,78.9,51.8,78.8,51.6z"/>
<path class="st3" d="M77.6,51.6c0.1-0.3,0-0.8,0.6-0.7c0.5,0.1,0.7,0.3,0.6,0.7C78.4,51.5,78,51.9,77.6,51.6z"/>
<path class="st2" d="M69.4,42.7c0.4-0.2,0.8-0.1,0.9,0.2c0.1,0.2-0.1,0.4-0.3,0.4C69.5,43.5,69.8,42.8,69.4,42.7z"/>
<path class="st2" d="M45.3,55.9l0.2,0.2L45.3,55.9z"/>
<path class="st2" d="M45.1,55.7l0.2,0.2L45.1,55.7z"/>
</svg>
