<?xml version="1.0" encoding="utf-8"?>
<!-- Generator: Adobe Illustrator 25.2.3, SVG Export Plug-In . SVG Version: 6.00 Build 0)  -->
<svg version="1.1" id="Calque_1" xmlns="http://www.w3.org/2000/svg" xmlns:xlink="http://www.w3.org/1999/xlink" x="0px" y="0px"
	 viewBox="0 0 1080 1080" style="enable-background:new 0 0 1080 1080;" xml:space="preserve">
<style type="text/css">
	.st0{fill:#B4A9C8;}
	.st1{fill:#8E84B1;}
	.st2{fill:#C8BFDB;}
	.st3{fill:#ECE9F0;}
	.st4{fill:#AB603A;}
	.st5{fill:#D1BB8F;}
</style>
<path class="st0" d="M904.2,334.6c-2.9-0.2-5.9-0.3-8.8-0.4c-5.1-0.2-10.3-0.4-15.4-0.6c-10.2-0.3-20.4-0.5-30.6-0.5
	c-0.1,0-0.2,0-0.2,0c-2.6,0-5.1,0-7.7,0c-9.7,0-19.3,0-29,0.1c-12.8,0.1-25.5,0.2-38.2,0.3c-12.5,0.1-25.1,0.1-37.6,0
	c-1.3,0-2.6-0.1-3.9-0.2c-1-0.1-1.9-0.2-2.9-0.3c-0.8-0.1-1.7-0.2-2.5-0.4c-0.6-0.1-1.3-0.2-1.9-0.3c-1.3-0.2-2.5-0.4-3.8-0.7
	c-0.6-0.1-1.3-0.2-1.9-0.3c-0.8-0.1-1.7-0.3-2.5-0.4c-0.2,0-0.4-0.1-0.5-0.1c-3.7-0.5-7.4-0.9-11.2-0.7c-0.8,0-1.7,0.1-2.5,0.2
	c-0.7,0.1-1.3,0-1.8-0.2c-0.2-0.1-0.5-0.2-0.7-0.4c-0.1-0.1-0.2-0.2-0.3-0.2c-0.4-0.3-0.7-0.7-0.9-1.2c-0.2-0.3-0.3-0.6-0.5-0.9v0
	c-0.2-0.5-0.4-1-0.5-1.5c0,0,0,0,0,0c-15.5-2.2-31.2-1-46.7-0.6c-1.5,4-4.8,2.2-7.2,2.3c-61.3,0.1-122.6-0.2-183.8,0.3
	c-16.7,0.1-33.5-2-50,0.2c-8.1,1.1-16.1-2.7-24.3,1c-2.3,1-7.4-1.2-11.4-1.5c-5.4-0.4-8.1,1.3-7.4,7c2.8,0.8,6.2-1,8.7,1.7l12.9-0.2
	l1.5-1h5.4l41.9-0.3c1.4-0.2,2.8,0.4,3.8,1.5h4.3c1.9-2,3.8-2.1,5.7,0h2.9c0.4-0.8,0.9-0.8,1.3,0c3.3-0.6,6.6-1.7,10-0.9
	c2.1-3.4,3-0.7,4.3,0.8c28.3,0.2,56.7,0.2,85.1,0.8c17.9,0.4,35.8,0.8,53.8,0.1c6.7-0.2,13.7,0.4,20.5,0.5
	c28.6,0.5,57.2-1.3,85.8-0.8c19.6,0.4,39.2,0.1,58.7-0.3c20.4-0.4,40.8,0,61.2,0h0.1l77.2,1.2c1.9,0,3.7,0.3,4.6,1.7
	c0,0.1,0.1,0.1,0.1,0.2c0.3,0.4,0.4,0.9,0.5,1.6c0.4,3-1.6,3.5-3.9,3.6c-1.6,0.1-2.1,0.7-1.7,2.7c3,16.5,1.6,33.2,0.8,49.8
	c0,1.2-0.8,2.4-0.6,3.4c3.6,14.4-2.8,29,1,43.4c1,4-1.3,8.8-1,13.2c1,12.9,0.5,25.8,2.5,38.6c0.5,2.9,0,5.9,0,8.9v0.3
	c2.6,8.6,2.1,17.2,0.2,25.8c0,0,0,0,0,0c0,0.2-0.1,0.4-0.1,0.6c0.8,4.7-0.3,9.3-1.2,13.9c-0.3,1.5,0.6,3.7-1.7,4
	c-0.9,0.1-1.5-0.3-2-0.9c-0.1-0.1-0.1-0.2-0.2-0.2c-0.5-0.6-0.9-1.4-1.3-2c-1.8-2.4-2.2-4.9-2.1-7.5c0.1-2.4,0.5-4.9,0.5-7.3v-0.1
	l-0.2-3.7l0-0.3l0-2.7v0c-0.3-3.9,0.6-8.1-2.5-11.4c-0.1,3.2-0.5,6.5-0.1,9.6c0.5,3.7-1.4,4.8-4.3,5.6c5.2,0,5.7,3.3,5,7.3
	c0.2,1.1,0.3,2.2,0.4,3.2c0.2,3.8-0.8,7.1-5.7,8.5c-1.7,4,0.2,9.5-5.5,12.1c0-0.1,0-0.2,0-0.4c0-1.8-0.7-3.3-1.6-4.5
	c0-0.1-0.1-0.1-0.1-0.2c-1.7-2.2-4.4-3.7-6.2-6c0,0-0.1-0.1-0.1-0.1c-0.2-0.2-0.4-0.5-0.5-0.8c-0.1-0.1-0.1-0.2-0.2-0.2
	c-1.4-1.3-5.2,3.2-5,3.8c1.1,4.4-4.3,5.2-3.9,9.1c-0.1-0.2-0.1-0.4-0.2-0.6c-0.4-1.1-0.9-2-1.4-2.7c0,0,0,0,0,0
	c-1.4-1.7-3.2-1.6-6,0.8c-3.2,2.7-5.7,3.1-7.3,1.2c-0.7-0.9-1.2-2.2-1.4-4c-0.4-3-1.1-6.1-2.7-8.2c-0.1-0.1-0.2-0.2-0.2-0.3
	c-0.6-0.7-1.3-1.2-2.1-1.6c-4.7-2.1-7.4,4-11.7,5.1c-1.7,0.4-1.1,1.9-0.4,2.9c0,0,0,0.1,0,0.1c0.1,0.2,0.3,0.3,0.4,0.5
	c0.8,0.8,2.1,1.2,2.8,1.9c0.6,0.7,0.7,1.5-0.5,3.1c-2.2,2.7-5.4,4.5-8,2.6c-7.3-5.4-6,1-6.6,4.8c-0.1-0.2-0.3-0.3-0.4-0.5
	c-1.3-1.8,0-4.2-1.4-5.8c0,0,0,0,0,0c-0.1-0.1-0.3-0.3-0.4-0.4c-2.8,0.4-1.6,3.6-3.5,4.6c-0.1-0.1-0.1-0.2-0.2-0.3
	c-0.1-0.1-0.2-0.2-0.2-0.3c-0.3-0.3-0.5-0.6-0.8-0.9c-0.3-0.4-0.6-0.7-0.9-1c-0.2-0.2-0.3-0.4-0.5-0.5c-2.5-2.6-3-1.7-5.4,2.7
	c0-0.1-0.1-0.2-0.2-0.4c-2-4.4-1.6-4.6,10.9-9.1c-0.5,0-0.9,0.1-1.4,0.2c-8.7,1-17.4,2.1-26.2,2.9c-3.7,0.3-3.8,3.3-4.4,5.5
	c-0.5,2.3-1.3,5.1,0.2,7.1c0,0,0,0,0,0c0.2,0.3,0.5,0.5,0.8,0.8c1.7,1.2,4.7,3.5,6-1c0.2-1.2,1.3-2,2.5-2c0.4,0,0.6,0.1,0.8,0.2
	c0,0,0,0,0,0c0.5,0.4,0.6,1,0.6,1.7c0.1,3.8-0.2,7.6,2.1,10.5c0,0,0.1,0.1,0.1,0.2c0.8,0.9,1.8,1.8,3.2,2.5c0,0,0,0,0,0
	c0.7,0.5,0.3,3.2,0.3,5v0.1c0,0.1,0,0.2,0,0.3c4.9-0.7,1.2-6,4-7.9c0.5,0.2,0.9,0.5,1.1,0.9c1,1.4,0.5,3.9,1.1,5.2
	c0.3,0.6,0.8,1,1.9,0.8c3.6-0.5-0.3-6.4,3.5-8c0.2,0.1,0.4,0.2,0.6,0.4c0,0,0,0,0,0c1.2,1.7,0,4.9,0.8,6.3c0.3,0.5,0.8,0.8,1.6,0.8
	c3.7,0,1.7-4.5,2.1-7.1c0.6-3.8,2.9-1.9,4.8-1.7c1.6,0.1,3.6,0.6,4.6-1c0.5-0.9,0.5-1.5,0.1-2c-0.5-0.7-1.6-1.2-2.1-1.8
	c-0.3-0.4-0.6-0.7-0.9-1.1c0-0.1-0.1-0.1-0.1-0.2c-0.6-1.2-0.5-2.4,1.1-3.4c1.5-0.9,2.6-3.5,4.7-2.1c0.6,0.4,1.1,0.9,1.4,1.5
	c0,0.1,0,0.1,0.1,0.2c0.4,0.9,0.3,2-0.5,3.2c-0.9,1.2-0.7,2.5,0,3.4c0.4,0.6,1,1,1.7,1.2c3,1.1,2.1-2.2,3-3.5
	c0.4-0.9,0.6-1.8,0.6-2.7c0.3-2.3-0.4-5.2,3.2-5.3c1.7-0.1,2.8,0.5,3.4,1.5c0.6,1,0.8,2.3,0.9,3.8c0.1,0.9,0.2,2,0.6,2.8
	c0.3,0.6,0.9,0.9,1.8,0.9c2.4-0.2,1.6-2.5,1.7-4c0.2-2.2,0.4-4.6,3.1-4.8c1.1-0.1,1.7,0.2,2.1,0.6c0,0,0,0,0,0
	c0.7,1,0.4,2.7,0.8,3.9c0.5,1.2,0.9,2.4,1.5,3.5c0,0.1,0.1,0.2,0.1,0.2c1,1.6,2.4,2.8,4.8,2.5c4.9-0.5,2.5-4.7,3.2-7.3
	c0.4-1.5-0.5-3.3,1.6-4.8c0,0,0,0,0.1,0c1.9,6.8,1,13.4,1.3,20c0,1.1-0.2,2.5,0.1,3.4c0,0,0,0,0,0c0.2,0.6,0.8,1.1,1.8,1.1
	c2.7,0.1,2-2.5,2.2-4.3c0.2-2.2-0.7-5.4,3.3-4.6c1.3,0.2,2.6,0.9,3.3,1.9c0.5,0.7,0.6,1.5,0.1,2.5c-1.3,2.7-1.5,4.2-1.1,5
	c0,0,0,0,0,0c0.9,1.4,4.2,0.2,6.5,0c0.7-0.1,1.4-0.3,2.1-0.5c-0.1-0.1-0.1-0.1-0.2-0.2c-0.8-0.7-1.7-1.4-2.1-2.1c0,0,0,0,0,0
	c-0.1-0.2-0.2-0.3-0.2-0.5c-0.5-2-3.4-4.6,0-6.1c1.8-0.8,2.9-0.3,3.7,0.8c0,0,0,0.1,0.1,0.1c0.6,0.9,1,2.1,1.4,3.2
	c0.1,0.5,0.2,1,0.3,1.6c0.1,0.8,0,1.8,0.3,2.5c0.2,0.5,0.6,0.8,1.5,0.7c2-0.1,2.5-1.9,2.1-3.8c-0.5-2.2-2.3-5,1.8-5.2
	c1,0,1.6,0.2,2,0.5c0,0,0,0,0,0c1,1,0.2,3.1,0.6,4.6c1.1,4-0.1,6.4-3.4,8.3c-0.6,0.3-1.8,0.7-1.8,0.9c2.1,11.1-6.6,6.5-10.6,6.5
	c-28.7,0.4-57.3,0.2-86,0.3c-2.8,0-6.5-1.8-8.4,1.8c-0.4,0.8-0.4,1.5-0.2,2c0.5,1.3,2.6,1.9,3.5,3.1c0.3,0.4,0.6,0.9,0.5,1.5
	c2.7-0.2,5.3,0.7,7.3,2.6c5.8-2.4,11.5-3.5,16.8,4c-6.3-1.5-12.2,1.1-17.2-3.5c-3.5,2.6-7.3,3.7-11.5,1.4c-3.7,1.7-7.3-0.2-11-0.2
	l-1.4,1.4c-0.1,1-0.3,1.9-1.5,2c-0.3,0-0.8-0.5-0.8-0.8c0.1-1.2,1.1-1.3,2-1.5l1.4-1.4l0,0c2.6-3.7,5.8-7,9.4-9.9
	c-0.7-1-1.6-1.7-2.4-2.1c-0.1,0-0.2-0.1-0.2-0.1c-0.1-0.1-0.2-0.1-0.4-0.1c-1.5-0.5-3.1-0.4-4.7-0.4c-77.3,0-154.5,0-231.8,0
	c-8.6,0.1-16.3,5.4-19.5,13.5c-2.5,6.2-10.6,9.4-16.6,6.3c0,0-0.1,0-0.1-0.1c0,0,0,0,0,0c0,0-0.1,0-0.1-0.1
	c-0.4-0.3-0.8-0.9-1.1-1.1c0,0,0,0,0,0c-0.4-0.2-0.8-0.1-1.3,1.2c-0.7,1.7-2.2,1.6-3.6,0.8c0,0-0.1,0-0.1-0.1c0,0-0.1,0-0.1-0.1
	c-0.8-0.6-0.9-1.6,0.1-2.1c1.6-0.7-0.9-4.8,2.9-3.3c1.8,0.7,3.3,0.6,3.8-1.8c0.4-2-0.8-3-2.3-3.8c0,0,0,0,0,0
	c-0.2-0.1-0.5-0.3-0.8-0.4c-13.3-6.5-27.1-9.3-42-9.3c-97.9,0.4-195.8,0.2-293.6,0.2c-9.9,0-10,0.6-8.7,10.8
	c0.7,6.3,0.8,12.7,0.2,19c-0.3,4.4,0.6,7.4,2.8,8.8c0.1,0.1,0.3,0.2,0.5,0.2c1.5,0.8,3.6,0.8,6.3,0.1c7.7-2.2,15,0.7,22.5,0.7
	c174.2,0,348.4-0.1,522.5-0.1h178.5c10.1,0,11.1-0.8,10.8-10.9c-0.2-6.6,2.9-13,0.4-19.6c-0.5-1.2,1-1.9,2.1-2.3c0,0,0.1,0,0.1,0
	c0.7-2.6,0.7-5.3,0.2-7.9c0,0,0,0-0.1-0.1c-0.7-0.6-0.8-1.2,0-1.9c0,0,0,0,0.1,0v-12.2l0,0c-2.1-2.4-1.2-5.4-1.3-8.2
	c-0.3-6.9-0.3-13.8-0.2-20.6c0.1-5.4,0.3-10.8,0.5-16.2c0.1-2.1,0.2-4.2,0.2-6.2c0.1-1.5,0.1-2.9,0.2-4.3c0.1-2.4,0.2-4.7,0.3-7.1
	c0.1-2.5,0.2-5.1,0.2-7.6c0-0.9,0-1.9,0.1-2.8c0.1-3.1,0.1-6.2,0.1-9.3c-0.1-50.5,0-101,0.1-151.5c0-4.8-0.3-9.7,1.6-14.2v-3.2
	C915.4,335.5,909.8,334.9,904.2,334.6z M482.6,332.2c-0.3-0.2-0.4-0.6-0.6-1c0.4-0.1,0.8-0.4,1.1-0.3c0.3,0.1,0.4,0.6,0.6,1
	C483.2,332,482.9,332.3,482.6,332.2z M517.6,333.1c-9.2,0-18.4,0.8-27.6-0.4c-1.4-0.2-3,0.2-3-1.8c0-1,0.9-1.5,2-1.4
	c14.7,1.6,29.4-0.8,44.1,1c0.4,0,0.7,0.5,2.2,1.6C528.8,334,523.1,333.1,517.6,333.1z M552.9,329.8
	C552.9,329.8,552.9,329.8,552.9,329.8L552.9,329.8L552.9,329.8c3.9,0.5,6.5-0.2,9.5,2.5C558.8,333.4,556.3,333.7,552.9,329.8z
	 M567.1,332.9c-0.5,0-1-0.5-1.8-1c0.7-0.6,1-1.2,1.5-1.3s1.5,0.2,1.7,0.6C568.8,332.3,568.1,332.9,567.1,332.9z M824.7,576.8
	c-0.2,0-0.3,0-0.5,0c-1.1-0.1-1.8-1-1.7-2.1c0.1-3-1.4-6.5,3-9.2c0,0,0,0,0,0h0c0,0,0,0,0,0c0.4,3.4,0.7,6,0.9,8.7
	C826.5,575.5,826.2,576.7,824.7,576.8z M852,561c-4,0-3.2-4-3.8-6.5c-0.6-2.5,1.6-3,3.9-3c2,0.2,4.4,0.8,3.8,3.6
	C855.4,557.4,855.4,561,852,561z M884.3,563.1C884.3,563.1,884.3,563.1,884.3,563.1L884.3,563.1
	C884.3,563.1,884.3,563.1,884.3,563.1c4.3,2,0.6,6.6,3,9.2c1.4,1.6-0.2,1.8-1.4,1.9c-4,0.3-4-2.4-3.8-5.1
	C882.3,567,881,564.3,884.3,563.1z M897,569.5L897,569.5c1.2,3,0.2,5.7-3,5.5c-3.5-0.2-1.8-3.8-1.8-5.8c0-2.2-1.5-6.1,2.6-5.9
	C898.4,563.5,897.6,566.9,897,569.5z M907,566.1c-3,2.4-0.3,5.1-0.1,9h0c-0.4-0.2-0.7-0.5-1-0.7c-0.3-0.2-0.6-0.5-0.8-0.7
	c-0.2-0.2-0.4-0.5-0.6-0.7c-0.1-0.1-0.2-0.3-0.3-0.4c-0.2-0.2-0.3-0.5-0.4-0.7c-0.2-0.4-0.3-0.8-0.4-1.2c0-0.1-0.1-0.2-0.1-0.4
	c0-0.2,0-0.4-0.1-0.6c0-0.3,0-0.7,0-1c0-0.2,0-0.4,0-0.6c0-0.2,0-0.4,0.1-0.6c0.1-0.9,0.3-1.8,0.3-2.7c0-0.3,0-0.5,0.1-0.7
	c0-0.1,0-0.1,0.1-0.2c0,0,0-0.1,0.1-0.1c0,0,0-0.1,0.1-0.1c0.1-0.1,0.1-0.1,0.2-0.2c0.1-0.1,0.2-0.1,0.3-0.2c0.1,0,0.2-0.1,0.3-0.1
	c0.1,0,0.1,0,0.2,0c0.2,0,0.4,0,0.5,0c0.1,0,0.1,0,0.2,0c0.1,0,0.2,0,0.2,0.1c0.1,0,0.2,0,0.2,0.1C907.5,563.8,908,565.3,907,566.1z
	 M898.1,611.3c0.4-0.1,0.8-0.2,1.1-0.4c0.1,0,0.1,0,0.1-0.1c0.1,0,0.1-0.1,0.2-0.1c0,0,0,0,0,0c0.2-0.1,0.4-0.2,0.5-0.4c0,0,0,0,0,0
	c0.1-0.1,0.2-0.2,0.3-0.3c0,0,0,0,0,0c0.1-0.1,0.2-0.2,0.3-0.4c0.4-0.6,0.8-1.3,1.1-2c0.1-0.1,0.2-0.3,0.2-0.4
	c0.1-0.2,0.3-0.5,0.5-0.7c0.1-0.1,0.2-0.2,0.2-0.2c0.1,0,0.1-0.1,0.1-0.1c0,0,0.1-0.1,0.1-0.1c0,0,0.1-0.1,0.2-0.1
	c0,0,0.1-0.1,0.1-0.1c0.1,0,0.2-0.1,0.3-0.1c0.1,0,0.1,0,0.2-0.1c0.1,0,0.2,0,0.2,0c0.1,0,0.2,0,0.4,0c0.3,0,0.5,0,0.9,0.1
	c0.3,0.1,0.7,0.2,1,0.4c0.1,0,0.2,0.1,0.3,0.1c0.4,0.2,0.9,0.3,1.4,0.4c0.2,0,0.3,0.1,0.5,0.1c0.1,0,0.2,0.1,0.3,0.1
	c0.2,0.1,0.4,0.2,0.6,0.3c0,0,0,0,0,0c0.6,0.4,1,1,0.8,2.1c-0.2,1.3-0.8,2.2-1.8,2.7c-0.1,0.1-0.3,0.1-0.4,0.2
	c-0.2,0.1-0.4,0.1-0.6,0.2c-0.2,0-0.3,0.1-0.5,0.1c-0.2,0-0.4,0-0.6,0c0,0,0,0,0,0c0.1,0.6,0,1.3-0.4,1.8c-0.1,0.1-0.1,0.2-0.2,0.3
	c-0.1,0.1-0.2,0.2-0.2,0.3c-0.2,0.2-0.4,0.3-0.6,0.5l-0.5,1.7l-0.5-0.3l1-1.4v-2.8c-1.1,0.8-2.3,1.5-3.6,2.2c-0.1,0-0.2,0.1-0.3,0.1
	c-0.1,0-0.3,0.1-0.4,0.1c-0.1,0-0.3,0-0.4,0c-0.2,0-0.4,0-0.7-0.1c-0.1,0-0.1,0-0.2-0.1c-0.1,0-0.2-0.1-0.3-0.1
	c-0.1,0-0.2-0.1-0.3-0.2c-0.2-0.1-0.4-0.3-0.6-0.5c-0.2-0.2-0.4-0.4-0.5-0.6C896.5,612.1,897.2,611.6,898.1,611.3z M866.5,608
	c1.4-0.4,2.7-1,4-1.5l0.9-0.4c-0.2,0.3-0.3,0.6-0.4,0.9c4.6,5,10.9,1.9,16.2,3.1c1,0.2,2.2-0.2,3.6-0.4c-2.1,4-4.4,6-8.9,4.4
	c-4.8-1.7-9.7,2.9-14.7,0c-1.4-0.8-4.2,0.7-4.6-2C862.1,609.5,864.3,608.6,866.5,608z M836.6,602.2c0.6,0.2,1.2,0.5,1.8,0.9
	c-0.4,0.4-0.7,0.8-0.9,0.8c-0.6-0.1-1.5-0.2-1.7-0.6C835.2,602.6,835.8,602,836.6,602.2z M849.9,605.6c2.3,3.8,5.2,5.8,10.1,2.7
	c-5.8,6-6.9,6.2-25.6,5.4C836.8,605.8,845.4,609.5,849.9,605.6z M833.3,604.3c-0.3,2.6-1.9,4.8-4.3,5.9
	C829.2,607.5,829.6,605,833.3,604.3z"/>
<path class="st1" d="M920.7,638.2L920.7,638.2l-0.6,1.8l-0.7-0.5l-0.1-0.1c0.4-0.5,0.8-0.9,1.2-1.4c-2.1-10.4,2.5-21.1-1.7-31.4
	c0,0,0-0.1,0-0.1c-1.2,0.4-2.6,1.2-2.2,2.4c2.5,6.6-0.6,13-0.4,19.6c0.3,10.2-0.7,10.9-10.8,10.9H726.8
	c-174.2-0.1-348.4,0-522.5,0.1c-7.5,0-14.8-2.9-22.5-0.7c-2.6,0.8-4.7,0.7-6.2,0c-0.2-0.1-0.3-0.2-0.5-0.2c-2.3-1.4-3.2-4.4-3-8.9
	c0.6-6.3,0.5-12.7-0.2-19c-1.3-10.1-1.3-10.8,8.7-10.8c97.9,0,195.7,0.1,293.6-0.2c15-0.1,28.8,2.8,42,9.3c0.3,0.1,0.6,0.3,0.9,0.5
	c0,0,0,0,0,0c1.4,0.8,2.5,1.8,2.2,3.7c-0.4,2.2-1.9,2.4-3.8,1.8c-3.8-1.4-1.3,2.7-2.9,3.3c-1,0.4-0.9,1.5,0.1,2.1c0,0,0.1,0,0.1,0.1
	c1.4,0.7,2.8,0.9,3.6-0.8c0.6-1.4,1-1.5,1.5-1.1c0,0,0,0,0,0c0.4,0.3,0.7,0.9,1.1,1.1c0,0,0.1,0.1,0.1,0.1c0,0,0,0,0,0
	c5.9,3,14.1-0.1,16.6-6.3c3.2-8,10.9-13.3,19.5-13.5h231.8c1.6,0,3.3-0.1,4.8,0.5c0.1,0,0.2,0.1,0.4,0.1c0.1,0,0.2,0.1,0.2,0.1
	c0.8,0.4,1.6,1,2.3,2c-3.6,2.8-6.7,6.1-9.4,9.9l0.1,0.1l0.2,0.2c3.7,0,7.3,1.9,11,0.2c0.2-0.2,0.4-0.4,0.5-0.9v-0.1
	c0-2.6,1.4-3.8,4-3.8c0-0.4-0.1-0.8-0.3-1.1c-0.7-1.3-2.7-2-3.5-3.1c-0.5-0.6-0.6-1.3-0.1-2.4c1.8-3.5,5.5-1.8,8.4-1.8
	c28.7-0.1,57.3,0.1,86-0.3c4-0.1,12.7,4.6,10.6-6.5c0-0.2,1.2-0.5,1.8-0.9c3.3-1.9,4.5-4.3,3.4-8.3c-0.4-1.3,0.2-3.1-0.3-4.2
	c0,0,0,0,0,0c-0.3-0.6-0.9-0.9-2.3-0.9c-4.1,0.2-2.3,3-1.8,5.2c0.4,1.8-0.2,3.6-2.1,3.8c-0.6,0-0.9-0.1-1.2-0.3
	c-0.6-0.6-0.5-1.9-0.6-2.9c0-0.5,0-0.9-0.1-1.4c-0.3-1-0.7-2.1-1.3-3c0,0,0-0.1-0.1-0.1c-0.8-1.2-2-1.8-3.9-1
	c-3.3,1.5-0.5,4.1,0,6.1c0.1,0.3,0.2,0.5,0.4,0.8c0,0,0,0,0,0c0.5,0.7,1.5,1.4,2.2,2.1c0,0,0,0-0.1,0c-0.7,0.2-1.3,0.4-2,0.5
	c-2.2,0.2-5.3,1.3-6.4,0.2c0,0,0,0,0,0c-0.6-0.7-0.5-2.2,1-5.2c0.4-0.9,0.4-1.7,0-2.3c-0.6-1.1-2-1.8-3.4-2.1
	c-4-0.7-3.1,2.4-3.3,4.6c-0.2,1.8,0.4,4.5-2.2,4.3c-0.9,0-1.4-0.4-1.7-0.9c0,0,0,0,0,0c-0.5-1-0.2-2.5-0.2-3.6
	c-0.3-6.5,0.6-13-1.2-19.7c0-0.1-0.1-0.2-0.1-0.3c-2.2,1.5-1.3,3.4-1.7,4.9c-0.6,2.6,1.7,6.8-3.2,7.3c-2.3,0.2-3.7-0.8-4.7-2.3
	c0-0.1-0.1-0.2-0.1-0.2c-0.7-1.1-1.2-2.5-1.6-3.8c-0.4-1.1-0.1-2.7-0.7-3.7c0,0,0,0,0,0c-0.3-0.6-1-0.9-2.2-0.8
	c-2.7,0.2-2.9,2.6-3.1,4.8c-0.1,1.5,0.7,3.8-1.7,4c-0.8,0-1.3-0.2-1.7-0.6c-0.6-0.7-0.7-2-0.8-3c-0.1-1.3-0.3-2.6-0.8-3.5
	c-0.6-1.1-1.6-1.8-3.5-1.7c-3.6,0.1-2.8,3-3.2,5.3c0,0.9-0.2,1.9-0.6,2.7c-0.9,1.3,0,4.6-3,3.5c-0.6-0.2-1.1-0.5-1.5-1
	c-0.8-0.9-1.2-2.2-0.2-3.6c0.8-1.1,0.9-2.1,0.7-2.9c0-0.1,0-0.1-0.1-0.2c-0.3-0.7-0.9-1.3-1.5-1.8c-2.1-1.5-3.2,1.2-4.7,2.1
	c-1.7,1.1-1.7,2.4-0.9,3.7c0,0.1,0.1,0.1,0.1,0.2c0.2,0.3,0.4,0.6,0.7,0.9c0.7,0.7,1.9,1.2,2.3,2.1c0.2,0.4,0.2,1-0.2,1.7
	c-1,1.6-3,1.1-4.6,1c-1.9-0.2-4.2-2.1-4.8,1.7c-0.4,2.5,1.5,7.1-2.1,7.1c-0.7,0-1.2-0.2-1.5-0.6c-1-1.3,0.2-4.5-0.8-6.3c0,0,0,0,0,0
	c0-0.1-0.1-0.2-0.1-0.2c-0.2-0.2-0.4-0.3-0.6-0.4c-3.8,1.6,0.1,7.5-3.5,8c-0.9,0.1-1.5-0.1-1.8-0.6c-0.8-1.1-0.2-3.6-1.1-5.2
	c-0.3-0.5-0.7-0.9-1.3-1.1c-2.8,1.9,0.8,7.1-3.9,7.9c-0.1,0-0.1,0-0.1,0c0.5,3.5,3.2,2.8,5.5,2.8c4,0.1,8.1,0,12.1,0.1
	c1.2,0,3.3-0.3,2.7,1.9c-0.3,1-1.2,2.8-3,2.2c-4-1.2-7.7-0.3-11.3,1.3c-1.5,0.7-2.2,0.2-2.8-0.9c-2-3.8-4.3-3.5-7.4-1.2
	c-3.8,2.8-5.8-3.1-10-1.3c2.2-4.1,4.5-5.7,7.9-3.6c2.6,1.6,4.4,0.1,6.3-1.3c-0.1-1.6,0.4-4.2-0.1-5.1c-0.1-0.1-0.1-0.2-0.2-0.3
	c-1.3-0.7-2.2-1.4-2.9-2.2c0,0-0.1-0.1-0.1-0.2c-2.5-3-2.2-6.9-2.3-10.8c0-0.5-0.1-1.1-0.4-1.5c0,0,0,0,0,0c-0.2-0.3-0.6-0.5-1-0.5
	c-1.2,0-2.3,0.8-2.5,2c-1.3,4.5-4.3,2.3-6,1c-0.2-0.2-0.4-0.3-0.6-0.5c0,0,0,0,0,0c-1.8-2-0.9-5-0.4-7.4c0.5-2.3,0.7-5.2,4.4-5.5
	c9.2-0.9,18.4-2.1,27.5-3.1c-0.4,0.2-0.8,0.3-1.2,0.4c-11.7,4.2-11.6,4.4-9.5,9c0,0,0-0.1,0-0.1c2.5-4.4,3-5.2,5.6-2.3
	c0.2,0.2,0.3,0.3,0.5,0.5c0.3,0.3,0.6,0.6,0.9,1c0.2,0.3,0.5,0.6,0.8,0.9c0.1,0.1,0.2,0.2,0.2,0.3c1.9-1,0.7-4.3,3.5-4.6
	c0.3,0.2,0.5,0.4,0.6,0.7c0,0,0,0,0,0c1.1,1.6-0.2,4,1.4,5.8c0.1,0.1,0.1,0.1,0.2,0.2c0.7-3.8-0.7-10.2,6.6-4.8
	c2.6,1.9,5.8,0.1,8-2.6c1.1-1.4,1.2-2.2,0.8-2.9c-0.6-0.9-2.2-1.3-3-2.2l-0.2-0.2c0,0,0,0,0-0.1c-0.8-1-1.7-2.7,0.1-3.1
	c4.3-1.1,7-7.2,11.7-5.1c0.9,0.4,1.7,1.1,2.3,1.9c0.1,0.1,0.2,0.2,0.2,0.3c1.5,2.1,2.1,5.1,2.5,7.9c0.2,2,0.8,3.4,1.7,4.2
	c1.5,1.6,4,1.1,7.1-1.5c2.9-2.5,4.8-2.5,6.2-0.5c0,0,0,0,0,0c0.5,0.7,1,1.7,1.5,3c0-0.1,0-0.2,0-0.3c-0.1-3.6,5-4.5,3.9-8.7
	c-0.2-0.7,4-5.6,5.2-3.6c0,0,0,0,0,0c0.2,0.3,0.5,0.7,0.7,1c0,0,0.1,0.1,0.1,0.1c1.8,2.2,4.5,3.8,6.2,6c0,0,0.1,0.1,0.1,0.2
	c0.9,1.2,1.5,2.7,1.5,4.6c0.1,0,0.1-0.1,0.2-0.1c5.4-2.7,3.7-8,5.2-11.9c0,0,0-0.1,0.1-0.1c-3.8,0.7-6.6-0.8-9.2-2.8
	c-1-0.8-1.9-1.6-2.9-2.4c-0.2-0.2-0.4-0.4-0.6-0.6l0,0c0,0,0,0,0,0c0,0,0,0,0,0c-1.5-2.1-3.1-3.8-4.9-5.2c-0.3-0.2-0.5-0.4-0.8-0.6
	l-1.8-1c-0.3-0.2-0.6-0.3-1-0.4c-0.3-0.1-0.7-0.3-1-0.4c-0.3-0.1-0.7-0.2-1-0.3c-2.6-0.7-5.4-0.8-8.5-0.2c-1.9,0.4-3.5,1-4.5,0.4
	c-0.1,0-0.2-0.1-0.2-0.2c-0.6-0.5-0.9-1.7-0.8-3.9c0.1-1.4-1-2.6-2.3-3.4c-0.1-0.1-0.2-0.1-0.3-0.2c-0.1-0.1-0.2-0.1-0.3-0.2
	c-0.2-0.1-0.3-0.2-0.5-0.3c-0.5-0.2-1-0.4-1.5-0.6c-0.7-0.2-1.3-0.3-1.5-0.2c-4.3,1.6-11.8-2-12.2,6.6v0.1c0.1,4.1-1.9,5.9-6,5.8
	c-2.3-0.1-4.5,0-6.7,1.5c-1.9,1.2-3.3,0.9-1.7,4.2c1.7,3.7,1.8,7.7-5.1,8.5c-26.6,3.3-53.2,2.7-79.9,2.7h-66.7
	c-3.1,0-6.2,0.2-8.2-2.8c1,7.5-1.8,11.4-9.6,13c-17.1,3.6-33.9,8.4-50.9,12.2c-20,4.6-40,8.8-60.1,12.9c-4.8,1-7,4.4-9.3,7.7
	c-6.3,9.2-8.8,10.2-19.3,6.9c-22.6-7.1-45.8-12.5-68.2-20.7c-1.6-0.4-3.2-0.6-4.9-0.7c-5.3-0.6-7.7-2.1-6.5-8.7
	c1.2-6.6,4.4-12,6.8-17.9c-2.5-3.4-6.1-1.9-9.2-1.9c-85.8-0.1-171.6-0.1-257.4-0.2c-9.2,0-9.2,0-9.2-9.3V348c0-2.1,0.1-4.2,0.2-6.4
	l-2.9,0.1c0,98.3-0.1,196.6-0.3,294.8c0,6.8,2.9,8.7,9.5,8.7c244.3-0.1,488.6-0.2,732.9-0.2c2.8,0,5.7-0.4,8.5-0.6
	c0.6-0.6,1.2-1.1,1.8-1.5L920.7,638.2L920.7,638.2z M888,591.3v-0.1c1.7,0,3.4-0.1,5,0c1.3,0.1,3.1-0.7,3.5,1.2
	c0.1,1.2-0.2,2.3-0.8,3.3c-0.9,1.2-2.6,1.6-3.8,0.8c-3.4-2.2-6.5-4-9.7,0.5c-1.2,1.5-2.6,0.4-3-1.2c-0.4-1.6-2.2-3.9,1.1-4.4
	C882.8,591.2,885.4,591.2,888,591.3z M873.4,588.1L873.4,588.1c-1.5-0.1-2.4-0.9-2-1.8c0.9-1.8-0.3-4.5,2.2-5.5
	c1.2-0.5,2.3,0.8,2.2,2.1C875.5,584.9,875.1,587,873.4,588.1z M866.2,581.8c2.2,0.5,2.8,3.5,2.3,4.6c-1.6,3.7-5.4,1.4-8.1,1.9
	c-2.1,0.3-4-0.4-2.8-3.2c0.6-1.4-0.2-3.4,1.6-4.3c3.4,0.6,1,4.2,2.8,5.5h0C864.8,586,862.6,581,866.2,581.8z M864.6,590.6
	L864.6,590.6c-2.5,5.4-5.4,7.1-9.7,5.8c-1.4-0.4-2.6-2.5-2-3.3C855.9,589,860,592.4,864.6,590.6z M844.8,589.9
	c0-2.9-3.4-6.2,0.1-9.1c2.8,6.6,2.3,9.9-3,15.9c-1.2-3.3-2.6-6-2.3-9.6l0,0C841.5,588,841.7,591,844.8,589.9z M876.3,541.5
	c0.3-2.2,1.4-3.2,3.7-2.2c2,0.9,3.9,2.4,6.3,2.2c-0.5,2.8-2.2,3.3-4.3,1.8C880.2,542.1,878.5,541.2,876.3,541.5
	c-0.4,1.5-0.9,3.1-1.2,4.7c-1.4,7.4-4.3,8.5-10,3.5c-0.4-0.4,0.3-5.8,3.7-6.8C871.2,542.3,873.7,541.8,876.3,541.5z M860,545.5
	c0.3,0.4,0.6,0.8,0.6,1.1c0,0.4-0.4,0.7-0.6,1.1c-0.2-0.4-0.6-0.7-0.6-1.1C859.4,546.2,859.8,545.9,860,545.5z M831.3,546.7
	L831.3,546.7c3.3,3.1,5,5.2,4.4,8.2c-0.1,0.4-1.8,0.8-2.5,0.5C829.4,553.9,831.3,550.9,831.3,546.7z M793.6,579.3
	c1-1.2,1.9-2.1,3.4-1.3c1.5,0.8,3.4,2.1,2,3.7c-2.1,2.5-0.2,6-3.3,8.7c0,0,0,0,0,0h0c0,0,0,0,0,0
	C794.7,586.5,789.5,584.1,793.6,579.3z"/>
<path class="st1" d="M920.8,333.2c-5.3,2.4-11,1.7-16.5,1.4c-2.9-0.2-5.9-0.3-8.8-0.4c-5.1-0.2-10.3-0.4-15.4-0.6
	c-10.2-0.3-20.4-0.5-30.6-0.5c-0.1,0-0.2,0-0.2,0c-2.6,0-5.1,0-7.7,0c-9.7,0-19.3,0-29,0.1c-12.8,0.1-25.5,0.2-38.2,0.3
	c-12.5,0.1-25.1,0.1-37.6,0c-1.3,0-2.6-0.1-3.9-0.2c-1-0.1-1.9-0.2-2.9-0.3c-0.8-0.1-1.7-0.2-2.5-0.4c-0.6-0.1-1.3-0.2-1.9-0.3
	c-1.3-0.2-2.5-0.4-3.8-0.7c-0.6-0.1-1.3-0.2-1.9-0.3c-0.8-0.1-1.7-0.3-2.5-0.4c-0.2,0-0.4-0.1-0.5-0.1c-3.7-0.5-7.4-0.9-11.2-0.7
	c-0.8,0-1.7,0.1-2.5,0.2c-0.7,0.1-1.3,0-1.8-0.2c-0.2-0.1-0.5-0.2-0.7-0.4c-0.1-0.1-0.2-0.2-0.3-0.2c-0.4-0.3-0.7-0.7-0.9-1.2
	c-0.2-0.3-0.3-0.6-0.5-0.9v0c-0.2-0.5-0.4-1-0.6-1.5c0,0,0,0,0,0c64.1-1.8,128.2-0.6,192.3-0.8c0,0,0,0,0,0c8.5,1.7,17.2,1.7,25.7,0
	c0,0,0,0,0,0h4.1c0.1,0.1,0.2,0.2,0.4,0.3V333.2z"/>
<path class="st1" d="M920.8,336.2v230.9c-0.1,0.9-0.2,1.7-0.3,2.6c-0.2,1.3,0,2.7,0.3,4.1v8.4c-0.4,0.8-1,1.5-1.8,2.2l0,0
	c-2.1-2.4-1.2-5.4-1.3-8.2c-0.3-6.9-0.3-13.8-0.2-20.6c0.1-5.4,0.3-10.8,0.5-16.2c0.1-2.1,0.2-4.2,0.2-6.2c0.1-1.5,0.1-2.9,0.2-4.3
	c0.1-2.4,0.2-4.7,0.3-7.1c0.1-2.5,0.2-5.1,0.2-7.6c0-0.9,0-1.9,0.1-2.8c0.1-3.1,0.1-6.2,0.1-9.3c-0.1-50.5,0-101,0.1-151.5
	C919.1,345.8,918.8,340.8,920.8,336.2z"/>
<path class="st1" d="M651.5,325.2c-1.4,4-4.8,2.2-7.3,2.2c-61.3,0.1-122.5-0.2-183.8,0.3c-16.7,0.1-33.5-2-50,0.2
	c-8.1,1.1-16.1-2.6-24.3,1c-2.3,1-7.4-1.2-11.4-1.5c-5.4-0.4-8.1,1.3-7.4,7h-4c-0.3-0.6-1-1.4-0.9-1.9c2-5.9,0.4-6.5-4.2-3
	c-1.1,0.9-2.8,1-4,0.1c-7.2-5.2-6.4,0.6-6.8,4.8l-173.5,0.1c7.3-7.6,16-9.9,26.7-9.9c146.3,0.4,292.6,0.5,438.9,0.3
	C643.4,325,647.4,325.2,651.5,325.2z"/>
<path class="st2" d="M363.2,334.4h4c2.8,0.8,6.2-1,8.6,1.7c-2.4,2.2-5.4,1.2-8.1,1.2c-43.9,0.1-87.8,0.1-131.8,0.1
	c-11.1,0-22.2,0-33.3,0c-2.7,0-6.1-0.8-5.7,3.9l-25.6,0.2l-2.9,0.1c0.3-3.5,1.6-6.3,5.4-7.1l173.5-0.1L363.2,334.4z"/>
<path class="st0" d="M916.3,325c-8.5,1.7-17.2,1.7-25.7,0H916.3z"/>
<path class="st0" d="M920.4,325h0.3v0.3c-0.1,0-0.1-0.1-0.2-0.2C920.5,325.1,920.5,325,920.4,325z"/>
<path class="st2" d="M911.9,530.5c4.7,11.2-19.6,9.7-7.4,5.2c0.8,5.1,1,9.9-5.3,11.7c-5.6,1-9-2.7-12.8-5.8l0,0
	c-4.6-6.6-10.8-9.8-18.9-8.2c-3.3,0.7-6,2.1-5.5-3.7c0.2-3-5.3-5.2-6.3-4.8c-4.3,1.6-11.8-2-12.2,6.6c-57,14-115,17.4-173.4,18.5
	l-1.2-6.9c3.4-1.2,7.1-1.7,10.7-1.5c21,0.9,41.9-0.8,62.8-1.9c19.2-1,38.2-4.3,57.3-6.6c3-0.4,6.3-0.2,7.1-4.3
	c0.1-0.2,0.2-0.3,0.3-0.5l-0.3,0.5c-21.3,0.9-42.5,3.9-63.8,5.5c-24.2,1.8-48.5,2-72.8,1.5c0.5-4.5-5-4.8-6-8.2
	c47,0.4,93.8-1.4,140.1-10.1c16.3-3,32.3-6.9,46.9-15.1c13.4-7.5,14.5-17.1,3.3-27.5c-3.1-2.9-7-3.9-10.4-5.8
	c-10.4-5.9-22.3-9.2-33.7-7.7c-6.8,0.9-13.7,1.1-20.5,0.6c-3-0.2-6-1-9.1-1.3c-19.8-2.1-39.6-1.3-59.5-1.5
	c3.1-10.3,7.4-20.4,6.9-32.4c-2.9,1.1-2.9,4.4-5.4,4.2c0.2-2.1,0.5-4.1,0.8-6.2c1.3-9,5.2-17.6,4.3-26.8c-1-9.3,7.9-23,17.5-25.2
	c0,3.9-3.4,5.5-5.5,7.8c-6.8,7.2-9,15.7-7.5,25.4c1.8-7.5,11.1-9.8,12.1-17.8c0.2-1.9,2.7-2.9,4.6-2.3c6.5,2,12.8,3,19.3-0.7
	c1.2-0.7,3.4-0.1,3.6-2.2s-1.6-3.3-3.4-4c-2.9-1.2-4.9,0.8-7,2.3c-2.8,1.9-5.2,3.9-8.4,0.1c-3-3.5-1.3-6.1,0.7-8.8
	c4.3-5.6,10.4-8.8,16.9-10.9c7.8-2.6,15.7-4.8,23.5-7.2c1.6-0.5,3.6-0.8,2.9-3c-0.5-1.6-2.4-1.4-3.7-1c-2.7,0.7-5.3,2.3-8,2.5
	c-10.4,0.7-20.2,4.8-28,11.7c-3.6,3.1-6.8,7.2-12,8.2c1.2-5,5.4-7.7,8.9-10.5c10.8-8.6,23.2-14.9,36.5-18.6
	c12.5-3.3,26-3.5,39.2-3.4c2.8,0,5.4-0.1,4.8-4l77.2,1.2c2.5,0,4.8,0.5,5.3,3.5s-1.6,3.5-3.9,3.6c-1.6,0.1-2.1,0.7-1.7,2.7
	c3,16.5,1.6,33.2,0.8,49.8c0,1.2-0.8,2.4-0.6,3.4c3.6,14.4-2.8,29,1,43.5c1.1,4-1.3,8.8-1,13.2c1,12.9,0.6,25.8,2.5,38.6
	c0.5,3,0,6.1,0,9.2c1.9-2.4,5.5,18.1,0,26.4L911.9,530.5z"/>
<path class="st3" d="M745.5,372.8c-9.6,2.3-18.4,15.9-17.5,25.2c0.9,9.2-3,17.8-4.3,26.8c-0.3,2.1-0.5,4.1-0.8,6.2l-0.3,4
	c-3.4,0.9-2.6,3.5-2.5,5.9c-0.2,6.1-2.5,12.1-1.8,18.4c-1.5,1.2-1,3-1.4,4.5c-1.6,6.9-8.9,12.8-13.8,11.2
	c-10.1-3.3-13.3-1.9-17.2,8.5c-1.5,4-3.5,4.6-7.9,4.6c-8,0.1-15.7-1.8-23.8-1.4c-5.8,0.3-13.6,3.1-18.9-3.4c2.6-3.7,8.8-2.1,10.6-7
	l5.6-0.3c2.3-2,2.2-5,3.3-7.6s0.1-3.7-2.4-3.6c-9.8,0.3-19.8-1.6-29.3,2.5l-2.8,0.3c-2.5,0.2-5.1-0.7-7.2,1.3
	c-4.9,1-11.2,1-12.1,7.1c-0.7,4.3,3.6,6.5,7.7,7.5l1.6,1.2l3,1.3c8.2,3.8,17.1,4.9,26,5.6c7.8,0.6,15.5,0,23.3,0.8
	c12.2,1.3,24.2,4.6,36.6,3.4c10.3-1.1,20.8-1.3,30.9-3.1c11.8-2.1,23.8-3.8,34.6-9.4c3.2-1.6,6.6-3.7,6-7.9s-4.2-5.9-8.3-6.2
	l-2.7-0.2c-4.8-3-10.2-3-15.6-2.9l0,0c-0.6-1-1.8-1.4-2.9-1.2l-4.2-0.1c-0.9-1.4-1.9-1.4-2.9-0.1l-7-1.1c-2.9-0.2-6.2,0.1-5.8-4.5
	l0,0c19.8,0.2,39.7-0.6,59.5,1.5c3,0.3,6,1.1,9.1,1.3c6.8,0.5,13.7,0.3,20.5-0.6c11.4-1.5,23.3,1.8,33.7,7.7
	c3.5,1.9,7.3,2.9,10.4,5.8c11.1,10.4,10,20-3.3,27.5c-14.6,8.2-30.7,12.1-46.9,15.1c-46.3,8.6-93.2,10.5-140.2,10.1
	c-1.9-2.2-3.8-4.3-5.7-6.5c21.5,0.6,42.9,0.8,64.4-0.6c25.7-1.6,51.1-4.2,76.4-8.9c14.7-2.8,28.8-7.3,41.2-16.1
	c7.6-5.5,8.3-14.1,1.6-19.8c-3.6-3-7.8-5.2-12.3-6.5c-1.2-0.4-2.8-1.6-3.8,0s0.8,2.1,1.8,3.1c3,3.2,3.9,12.6,1.3,14.7
	c-10.9,8.9-23.7,15.2-37.4,18.4c-11.4,2.5-23.2,5-34.8,5.7c-14.6,0.8-29.1,2.8-43.6,3.3c-19.8,0.8-39.7-0.8-59.5,0.8
	c-3.9-1.9-6.9-5.1-8.4-9.1c3.3,0.4,6.5,1.3,9.8,1.2c30.3-1,60.8,2.6,91-3.7c13.3-2.8,26.9-4.4,40.2-7.5c6.4-1.5,12.8-3.5,17.9-8
	c5.5-4.9,5.4-6.8-0.4-12.2c-2.1,5.9-6,10.2-11.3,12.1c-25.2,9.2-51.9,13.9-78.7,14c-25.5,0.1-51,1-76.3-2.5c-1.3-0.7-2.2-2.3-4-2
	v0.2c0.1-1.1-0.8-1.2-1.5-1.6c-2.3-2.8-5.2-3.2-8.7-2.8c-7.4,0.7-14.7,2.5-22.2,1.9c-8-0.6-14.7-4.3-21.4-8.2
	c-3.1-1.6-5.9-3.9-8-6.6c-2.7-3.7,2.1-5.8,3-9.9c-4.9,2.2-9.8,2.6-10.7,8s1.1,9.7,6,12.4c6.2,3.5,12.6,6.3,19.8,7.1
	c-4.5,4.9-10.6,1.9-15.8,3.2c-5.5-2-10.9-4.2-16.4-6.1c-6.7-2.3-10.7-6.1-11-13.7s5.2-9.9,10.5-12.2c15.6-6.9,32.5-7.7,49-9.2
	c14.2-1.3,28.7-1.7,43.1-2.1c4.6-0.1,10.8,1,13.4-5.4c2.1-5.3,4.2-10.5,6.2-15.8c1.1-2.9,3.1-6-3-6c-3.7,0-5.1-3.7-5.4-7.3
	c-0.1-1.8,0.4-4.1-2.2-4.6c-4.8-0.9-10.2-0.7-13.5,2.3c-1.8,1.6,2.4,5.4,4.3,8c0.6,0.7,1.2,1.5,1.6,2.3c0.8,2,3.8,4.2,1.5,6.2
	c-2,1.7-4.5-0.5-6.2-1.9c-7.9-6.3-9.1-5.9-16.7,1.5c-4.2,4.1-7.6,9.2-13.5,12.4c-0.5-4.8,3.4-6.9,4-10.4c0.3-1.8,3.3-3.3,0.9-5.5
	c-2-1.9-3.9-0.2-5.9,0.3c-7,2-13.9,3.9-20.9,5.8L593,438c11.6-7.1,23.3-14.2,34.9-21.4c3.8-2.3,7.1-6,11.9-1.7
	c1.1,1,2.8,0.3,3.9-0.7c4.2-3.8,8.3-7.7,12.4-11.5c5.6-0.4,8,4.2,11.4,7.3c3.1,2.9,5.8,8.1,9.1,8.3c4.4,0.4,4-6.7,7.3-9.4
	c0.2-0.2,0.3-0.4,0.4-0.6c7.3-10.4,14.5-20.7,21.8-31.1c5.2-10,9-20.8,16.1-29.8c1.1-1.4,3.6-2.5,2.8-4.5c-1-2.4-3.8-1.3-5.8-1.3
	c-72.5-0.1-144.9-0.1-217.4-0.1c-3.3,0-6.7-0.2-9.1,2.7l-1.3-1.1c0.1-3.1-2-3-4.2-3.2c-5.9-0.5-11.8,0.4-17.2,2.8
	c-26.9-2.6-53.8-0.7-80.7-1.2c-3.7-3.8-7.1-1.4-10.5,0.5c-6.5-0.4-13.1-2-19.6,0.1c-3.4-7.1-7.6-1-11.5-0.7c-1-1.2-2-1.4-3,0
	l-5.7,0.1c-1.9-1.8-3.8-1.8-5.7-0.1h-22.7c-5.5-2-11.6-2-17.1,0l-96.5-0.1c-0.4-4.7,3-3.9,5.7-3.9c11.1,0,22.2,0,33.3,0
	c43.9,0,87.8,0,131.8-0.1c2.7,0,5.7,1,8.1-1.2l12.9-0.2l1.5-1h5.4c5,4,10.9,2.5,16.4,2.3c9.8-0.3,19.6,1.7,29.3-1.2h4.3
	c1.9,1.8,3.8,1.8,5.7,0h2.9h0.7h0.7c3.3-0.6,6.6-1.7,10-0.9c1.3,1.1,2.8,0.9,4.3,0.8c28.4,0.2,56.7,0.1,85.1,0.8
	c17.9,0.4,35.8,0.8,53.8,0.1c6.7-0.2,13.7,0.4,20.5,0.5c28.6,0.5,57.2-1.3,85.8-0.8c19.6,0.4,39.2,0.1,58.7-0.3
	c20.4-0.4,40.9,0,61.3,0c0.6,4-2,4.1-4.8,4c-13.2-0.1-26.7,0.1-39.2,3.4c-13.3,3.7-25.7,10-36.5,18.6
	C750.8,365.2,746.6,367.9,745.5,372.8L745.5,372.8z"/>
<path class="st1" d="M535.3,332c-6.6,2-12.2,1.1-17.7,1.1c-9.2,0-18.4,0.8-27.6-0.4c-1.4-0.2-3,0.2-3-1.8c0-1,0.9-1.5,2-1.4
	c14.7,1.6,29.4-0.8,44.1,1C533.5,330.5,533.8,331,535.3,332z"/>
<path class="st2" d="M906.6,531.4c2.7,1.5,5.4-4.5,8,0c0.8,4.7-0.3,9.3-1.2,13.8c-0.3,1.5,0.6,3.7-1.7,4c-1.9,0.2-2.5-1.8-3.5-3.1
	C904.7,541.6,906.7,536.4,906.6,531.4z"/>
<path class="st1" d="M870.9,607c4.6,5,10.8,1.9,16.2,3.1c1,0.2,2.2-0.2,3.6-0.5c-2.1,4-4.4,6-8.9,4.4c-4.8-1.7-9.7,2.9-14.7,0
	c-1.4-0.8-4.2,0.6-4.6-2s1.7-3.5,3.9-4.1c1.4-0.4,2.7-1,4-1.5L870.9,607z"/>
<path class="st1" d="M834.4,613.7c2.4-8,11-4.2,15.5-8.1c2.3,3.8,5.2,5.8,10.1,2.7C854.2,614.3,853.1,614.5,834.4,613.7z"/>
<path class="st2" d="M441.3,336.1c-9.6,2.9-19.5,0.9-29.3,1.2c-5.5,0.2-11.4,1.7-16.4-2.3l41.9-0.3
	C438.9,334.5,440.3,335.1,441.3,336.1z"/>
<path class="st1" d="M904.8,612.5c-1.1,0.8-2.3,1.5-3.6,2.2c-1.4,0.6-3,0-3.7-1.3c-1.5-2,0.8-2.2,1.8-2.6c2.7-1.1,2.2-6.9,7-4.7
	c1.5,0.7,4.2,0.4,3.9,3.2c-0.3,2.2-1.9,3.1-4,3.2l0,0c-0.2-0.6-0.5-1.2-0.7-1.8C905.3,611.3,905.1,611.9,904.8,612.5L904.8,612.5z"
	/>
<path class="st1" d="M808.3,610.9c5.8-2.4,11.5-3.5,16.8,4.1c-6.3-1.5-12.2,1.1-17.2-3.5L808.3,610.9z"/>
<path class="st1" d="M852,551.5c2,0.2,4.4,0.8,3.8,3.6c-0.5,2.3-0.5,5.9-3.9,5.9c-4,0-3.2-4-3.8-6.5S849.7,551.5,852,551.5z"/>
<path class="st1" d="M897,569.5c1.2,3,0.2,5.7-3,5.5c-3.5-0.2-1.8-3.7-1.8-5.8c0-2.2-1.5-6.1,2.6-5.9
	C898.4,563.5,897.5,566.9,897,569.5z"/>
<path class="st1" d="M884.3,563.1c4.3,2,0.6,6.6,3,9.2c1.4,1.6-0.2,1.8-1.4,1.9c-4,0.3-4-2.4-3.8-5.1
	C882.2,567,881,564.3,884.3,563.1z"/>
<path class="st1" d="M825.4,565.6c0.4,3.4,0.7,6,0.9,8.8c0.1,1.2-0.1,2.4-1.7,2.5c-1,0.2-2-0.5-2.2-1.6c0-0.2,0-0.3,0-0.5
	C822.6,571.8,821,568.2,825.4,565.6z"/>
<path class="st1" d="M801,608.2c2.7-0.2,5.3,0.7,7.3,2.6l-0.4,0.6c-3.5,2.6-7.3,3.7-11.5,1.4c0.2-0.2,0.4-0.4,0.6-0.6
	C799.7,612.3,800.7,610.7,801,608.2L801,608.2z"/>
<path class="st1" d="M906.9,575.1c-5.3-3.4-3.2-7.2-3.3-10.4c0-1.3,1.3-2,2.6-1.5s1.8,2.1,0.8,2.8
	C904,568.6,906.7,571.2,906.9,575.1z"/>
<path class="st1" d="M552.9,329.8c4,0.6,6.5-0.2,9.5,2.5C558.7,333.4,556.3,333.7,552.9,329.8z"/>
<path class="st1" d="M829,610.2c0.1-2.8,0.6-5.2,4.3-5.9C833.1,606.9,831.4,609.2,829,610.2z"/>
<path class="st2" d="M451.2,336.1c-1.9,1.8-3.8,1.8-5.7,0C447.4,334.1,449.3,334.1,451.2,336.1z"/>
<path class="st1" d="M565.2,331.9c0.7-0.6,1.1-1.2,1.5-1.3s1.5,0.2,1.7,0.6c0.4,1-0.4,1.7-1.3,1.6
	C566.5,332.9,566,332.4,565.2,331.9z"/>
<path class="st2" d="M469.7,336c-1.5,0.1-3,0.4-4.3-0.8C467.5,331.8,468.5,334.5,469.7,336z"/>
<path class="st1" d="M838.4,603.1c-0.4,0.4-0.7,0.8-0.9,0.8c-0.6-0.1-1.5-0.2-1.7-0.6c-0.5-0.7,0-1.3,0.9-1.1
	C837.3,602.4,837.9,602.7,838.4,603.1z"/>
<path class="st1" d="M784.1,614.1c-0.1,1-0.3,1.9-1.5,2c-0.3,0-0.8-0.5-0.8-0.8c0.1-1.2,1.1-1.3,2-1.5L784.1,614.1z"/>
<path class="st1" d="M483.6,331.9c-0.4,0.1-0.8,0.4-1,0.3s-0.4-0.7-0.6-1c0.4-0.1,0.8-0.4,1.1-0.3S483.4,331.5,483.6,331.9z"/>
<path class="st2" d="M906.4,524.6c1.3,1,1.2,2,0.1,3L906.4,524.6z"/>
<path class="st1" d="M904.8,615.3v-2.8l0,0h0.7h0.7l0,0C906.4,613.7,905.8,614.8,904.8,615.3L904.8,615.3z"/>
<path class="st1" d="M904.8,615.4l-0.5,1.7l-0.5-0.3L904.8,615.4L904.8,615.4z"/>
<path class="st1" d="M918.9,596.6c0,0.7,0,1.3,0,2C918.1,598,918,597.3,918.9,596.6z"/>
<path class="st1" d="M870.5,606.6l0.9-0.4c-0.2,0.3-0.3,0.6-0.4,0.9L870.5,606.6z"/>
<path class="st2" d="M455.4,336.1h-0.7h-0.7C454.5,335.3,455,335.3,455.4,336.1z"/>
<path class="st2" d="M390.3,335l-1.5,1L390.3,335z"/>
<path class="st1" d="M783.8,613.8l1.4-1.4l0.3,0.3l-1.4,1.4L783.8,613.8z"/>
<path class="st0" d="M196.9,341.4l96.5,0.1c5.4,2.5,11.7,2.5,17.1,0h22.7c1.9,3,3.7,4.9,5.7,0.1l5.7-0.1c0.4,1.8,0.8,3.7,1.2,5.5
	c-9.3,16.9-9.1,35.8-11.2,54.2c-1.5,12.5-3.8,24.9-9.8,36.2c-2,3.8-5.3,3.6-8.5,3.5c-4.1-0.2-3-3.6-3-5.9c-0.1-5.7,0.2-11.3,0.3-17
	c0.1-6.7-1.6-7.7-7.3-4.3c-2.4,1.4-4.2,3.2-4.4,6.6c-0.4,6.8-1.3,13.5-2.8,20.1c-1.2,5.1-3.5,10.1-9.2,12.4
	c-3.5,1.4-5.2,0.4-4.8-3.1c0.7-7.1-1.7-14.6,2.2-21.4c1-1.7,1.2-4.4-0.5-6c-2-2-3.7,0.6-5.6,0.9c-4.2,0.8-4.5,4.2-6,7
	c-2.1,4.2-2.8,4.5-6,0.8c-0.5-0.6-1.1-1-1.9-1c-6.7-1.5-21.8,4.8-24.9,11.2c-3.9,7.8-9.8,15-8.9,24.6c0.1,1.4-0.4,2.8-1.4,3.9
	c-4.2,5-5.4,12.1-10.7,16.5c-1.7,1.4-2.2,3.3-1.1,5c0.8,1.3,2.1,3.1,3.8,2.5s3.5-1.8,3.7-3.9c0.9-7.3,6.1-7.8,10.9-5.5
	c9.4,4.5,16.6,0.5,23-5.1c4.6-4,7.9-9.5,15.1-4.6c1.3,0.9,3.6,0.2,5.4-0.8c4-2,7.6-4.8,10.4-8.3c3.1-4.1,6.8-5.4,11.7-4.5
	c7.9,1.4,14.1-1.7,18-8.2c3-5,5.2-8.4,11.2-3.5c1.4,1.2,4,0,6.1-0.8c5.5-2.1,9.7-6,13.1-10.5c2.2-3,4.6-3.1,7.4-2.1
	c11,3.9,19.4,0.6,24.4-9.9c2.4-4.9,6.3-6.1,10.8-3.6c2.2,1.4,4.8,2,7.4,1.6c8.1-1.7,16.1-3.7,21.8-10.5c3.1-3.7,6.4-7.2,10.7-9.7
	c1.7,3.3-1,7.4,2.9,9.4c2.8,1.5,12.6-4,12.9-7.4c1.3-14.8,5-29.2,4.8-44.2c0-1.8,0.5-4-1.6-5c-2.5-1.2-3.8,0.9-5.6,2
	c-7.1,4.3-4.4,12.3-6.9,18.3c-3.9,9.5-7.6,19.1-15.1,26.4c-4.8,4.6-10.7,7.7-17.8,6.6c-3.1-0.5-6.2-2.1-6.6-5.4s3.1-2.6,5.2-3.5
	c6.5-2.8,13.8-4,18.2-10.8s2.3-17.7-4.5-20.4c-7.2-2.9-17.5,0.4-22.5,6.4c-5.8,6.8-7,15-8.3,23.2c-0.8,5.3-2,10.6-5.4,15
	c-1.5,2-3.1,4.6-6.3,3.6c-3.4-1-2.6-4.2-2.6-6.6c-0.1-9.8,1.4-19.5,2.2-29.2c1.2-14.5,2.3-28.3,11-40.4c26.9,0.5,53.8-1.5,80.7,1.2
	c-3.9,4.3-8.8,8.1-5.9,15.1c0.6,1.5,0.1,3.6,2.2,3.9c1.4,0.1,2.8-0.7,3.5-1.9c2.3-3,5.2-5.4,8.5-7.1v10.7c7-4.8,7.3-7.2,1.2-11.8
	c2.8-4.4,7.8-5.7,11.8-8.3l1.3,1.1c0.1,3.9-7.5,3.3-5.2,7c2.8,4.7,0.1,7.3-1.5,10.7c-3.4,6.9-1.2,10.5,6.4,10.8
	c3.2,0.1,6.4-0.1,5.8,4.7c-2.4-1.9-4.7-4.4-8.1-2.1c-1.6,1.1-3.1,2.5-2.4,4.6c1,3.2,3.6,4.1,6.7,4.1c-0.3,1.7-0.2,3.6-2.2,4.5
	c-2.9-0.9-5.8-2-9-1.4c-5.5-1-9.2,1-10.6,6.5c-0.4,1.6-3.4,2.7-1.1,4.8c1.8,1.6,3.8,0.4,5.3-0.4c3.2-1.6,7-1.5,10.1,0.4
	c1.4,6-1.7,11.3-6.4,12.8c-5,1.7-9,4.6-13.4,6.9c-8,4.2-16.8,6.6-25.2,9.8c-12.9,5-25.5,10.8-38.5,15.7
	c-18.1,6.8-35.5,15.1-53.4,22.2c-18.1,7.3-33.3,19.1-48.6,30.6c-1.5,1.1-3.4,2-2.2,4.5c1,2,3.4,2.8,5.4,1.8c0.1,0,0.1-0.1,0.2-0.1
	c9-4.4,18.5-2.4,27.8-2.3c6.6,0.1,10.8-2.3,15.1-7c12.3-13.5,25.4-26.8,42.5-33.7c16.1-6.5,31.8-14.2,47.9-20.7
	c9.7-3.9,18.5-10.1,28.3-13.4c11.5-4,20.9-10.5,29.2-18.9c0.5,1.8,1.1,3.6,1.9,5.3c1,2,0.6,5.3,3.6,5.5s4.6-2.8,6.8-4.5
	c2.9-2.2,0.4-6.5,4.1-8.6c0.7,3.6,1.7,7.1,2.8,10.5c2.5,7.8-6,0.5-7,5c8.3,1.6,4.1,8.2,4.7,13c0.5,4.2-4.2,5.4-6.2,5.4
	c-4.1,0-7.2,2.9-11.4,2.6c-4.6-0.3-5.3,4.7-7.5,7.5c-1.1,1.4,0.2,3,1.8,4c1.8,1.2,5.2,1.5,4.1,4.8s-4.1,3.5-7.1,3.5
	c-1.3,0-2.9-0.4-4.2,1.3c5.9,3.9,2,6-1.8,6.7c-4.3,0.8-6.2,3.5-8.7,6.5c-2.8,3.5-3.5,8.2-7.4,10.9c-10.2,7.1-11,20-2.9,29.3
	c4.2,4.8,9.6,5.7,14.8,7.8c-5.1,5.4-10,10.9-16,15.4c-2.8,2.1-6.5,3.9-7.1,8.1c-1.5,3.4-1.8,7.5-5.6,9.6c-2.5-3.4-6.1-1.9-9.2-1.9
	c-85.8-0.1-171.6-0.2-257.4-0.2c-9.2,0-9.2,0-9.2-9.3c0-65.7,0-131.4,0-197.1c0-2.1,0.1-4.2,0.2-6.4L196.9,341.4z M201.4,460.2
	c2.1-30.9,8.9-54.3,27.1-73.6c5.2-5.6,11.8-9.7,19.2-11.9c8.6-2.6,14.6,0.3,21.7,5.4c6.8,4.9,3.7,10,3.8,14.9c0,4.3-5.2,4.9-8.4,5.9
	c-5.6,1.8-12.3-4.3-11.1-9.6c0.6-2.9,2.3-6.1-1.9-6.7c-3.7-0.5-8.3,1.4-9.1,4.8c-1.2,5.4-0.5,11.2-0.4,16.9c0,3.8,4,3.6,6,5.2
	c11.4,9.3,23.6,7.9,32.9-2.6c6-6.7,7-15.3,6.5-24.1c-0.5-9.5-8.7-18.8-18.1-20.6c-15.4-3-29.3,2.7-41.2,10.4
	c-9.9,6.4-19.1,15.2-24.6,26.5c-4.2,8.5-7.9,17.4-12.9,25.5c-4.7,7.5-2.7,16-4.6,23.8c-2.4,9.7-1.4,20.5,0.9,31.4
	c3.6,17.5,8.5,33,22.6,44.4c10.3,8.4,21,13.4,35.8,11.7c18.9-2.2,31.4-30.9,22.6-45.1c-1.5-2.4-2.2-6.2-5.1-5.9
	c-3.8,0.4-3,4.8-3.5,7.5c-2,10.7-8.4,16.7-19.5,17.4c-13.1,0.8-32.9-12.9-34.2-25.7C204.8,475.7,200.1,465.7,201.4,460.2
	L201.4,460.2z M302,388.9c0,3.9,4.6,9.1,8.2,9.2c3.4,0.2,9.2-6.4,8.6-10.4c-0.7-4.2-1.3-9.2-7.4-9.1
	C305.5,378.8,302,382.7,302,388.9z M507.8,422.9c-1.1,4.3-1.8,6.5,0.4,9.4C509.9,429.3,509.8,427.1,507.8,422.9L507.8,422.9z"/>
<path class="st4" d="M447,556.4c3.8-2.1,4.1-6.2,5.6-9.6c3.1-3.8,8.1,0.7,11.4-2.6c13.8,4.3,27.5,8.7,41.3,13
	c13,4.1,25.5-3.2,27-15.8c0-0.5,0-1.2,0.3-1.3c7.3-4.5,5.6-12,6.6-18.7c0.5-3.7,2.2-7.8,5.7-8.9c3.8-1.2,3.7,3.1,4.7,5.5
	c1.6,3.6,4.7,2.5,7.2,1.5c5.2-2,9.2-5.5,12.8-9.6s8.3-3.6,11.5,1c1.2,1.7,2.2,3.9,4.8,4.4c0.8-3.4-1.7-5.2-2.1-7.7
	c-0.3-1.2,0.3-2.4,1.4-3c1-0.6,1.5,0,2.2,0.8c4,4.5,9.5,2.6,14.3,2.6c1.1,0,2.6-1.6,3.9,0c2,2.6-1,2.2-2,3.1
	c-1.2,1.1-2.1,2.4-3.2,3.7c-8.3-0.1-20.5,10.2-25,22.7c3.5-4,5.8-6.6,8.1-9.2c3.5-4.1,6.7-8.6,12.8-9.2c-0.6,2.8-0.7,5.6-2.1,8.4
	c-1.5,3.1-0.8,6.1,4.3,5c15.2-3.3,30.4-6.4,45.5-9.8c6.5-1.5,6.6-3.1,2.5-8.2c-4.4-5.6-10.9-9.6-13.2-16.9c1.8-0.3,2.7,1.3,4,2
	c2,2.9,4.6,5.2,7.8,6.8c1.6,4,4.6,7.2,8.4,9.1c0.7,2.7,2.7,4.3,4.8,5.9c1.9,2.2,3.8,4.3,5.7,6.5c1,3.5,6.5,3.7,6,8.2
	c-3.9,1.9-0.5,4.8-1,7.2l-0.1,7v1.6c1,7.4-1.8,11.3-9.6,13c-17.1,3.6-33.9,8.3-50.9,12.2c-20,4.6-40,8.8-60.1,12.9
	c-4.8,1-7,4.4-9.3,7.7c-6.3,9.2-8.8,10.2-19.3,6.9c-22.6-7.1-45.8-12.5-68.2-20.7c-1.6-0.4-3.3-0.6-4.9-0.7
	c-5.3-0.6-7.7-2.3-6.5-8.7S444.6,562.4,447,556.4z M532.3,568.6c-0.8-2.8-0.4-7.2-3.4-7.8s-2.4,3.2-2.2,5.3c0.2,2.3-1.2,5.7,2.8,6.1
	C531.6,572.5,532.9,571.1,532.3,568.6L532.3,568.6z"/>
<path class="st0" d="M669,551.7v-1.6c58.7-1.1,117.1-4.4,174.4-18.5c0.1,4.1-1.9,6-6,5.9c-2.3-0.1-4.5,0-6.7,1.5
	c-1.9,1.3-3.3,0.9-1.7,4.2c1.7,3.7,1.8,7.7-5.1,8.5c-26.6,3.3-53.2,2.7-79.9,2.7c-22.2,0-44.4,0-66.7,0
	C674.2,554.5,671.1,554.7,669,551.7z"/>
<path class="st0" d="M812.4,588.4c0.5,3.5,3.2,2.8,5.5,2.8c4,0,8,0,12.1,0.1c1.2,0,3.3-0.3,2.7,1.9c-0.3,1-1.2,2.8-3,2.2
	c-4-1.2-7.7-0.3-11.3,1.3c-1.5,0.7-2.2,0.2-2.8-0.9c-2-3.8-4.3-3.5-7.4-1.2c-3.8,2.8-5.8-3.1-10-1.3c2.2-4.1,4.5-5.7,7.9-3.6
	C808.6,591.3,810.4,589.8,812.4,588.4L812.4,588.4z"/>
<path class="st0" d="M876.4,541.6c-0.4,1.6-1,3.1-1.3,4.7c-1.4,7.4-4.2,8.5-10,3.5c-0.4-0.4,0.3-5.8,3.7-6.8
	C871.3,542.4,873.8,541.9,876.4,541.6L876.4,541.6z"/>
<path class="st0" d="M888,591.2c1.7,0,3.3-0.1,5,0c1.3,0.1,3.1-0.7,3.5,1.2c0.1,1.2-0.2,2.4-0.8,3.3c-0.9,1.2-2.6,1.6-3.8,0.8
	c-3.4-2.2-6.5-4-9.7,0.5c-1.1,1.5-2.6,0.4-3-1.2s-2.2-3.9,1.1-4.4C882.8,591.1,885.4,591.1,888,591.2L888,591.2z"/>
<path class="st0" d="M861.9,586.3c2.9-0.3,0.8-5.3,4.3-4.5c2.2,0.5,2.8,3.5,2.3,4.6c-1.7,3.7-5.4,1.4-8.2,1.8
	c-2.1,0.3-4-0.4-2.8-3.2c0.6-1.4-0.2-3.4,1.6-4.3C862.5,581.4,860.1,585,861.9,586.3z"/>
<path class="st0" d="M795.6,590.4c-0.9-3.9-6.1-6.3-2-11.1c1-1.2,1.7-2.2,3.4-1.3s3.3,2.1,2,3.7
	C796.9,584.2,798.8,587.8,795.6,590.4z"/>
<path class="st0" d="M839.6,587c1.8,1,2.1,4,5.2,2.9c0-2.9-3.4-6.2,0.1-9.2c2.8,6.6,2.3,9.8-3,15.9
	C840.8,593.4,839.3,590.7,839.6,587z"/>
<path class="st0" d="M864.6,590.6c-2.5,5.3-5.4,7.1-9.7,5.8c-1.4-0.4-2.6-2.5-2-3.3C856,589,860.1,592.4,864.6,590.6z"/>
<path class="st0" d="M831.3,546.7c3.2,3.1,4.9,5.2,4.4,8.2c-0.1,0.3-1.8,0.8-2.5,0.5C829.4,553.9,831.3,550.9,831.3,546.7z"/>
<path class="st0" d="M873.4,588.1c-1.6-0.1-2.4-0.8-2-1.8c0.9-1.8-0.3-4.6,2.2-5.5c1.2-0.5,2.3,0.8,2.2,2.1
	C875.5,584.9,875.1,587,873.4,588.1z"/>
<path class="st0" d="M876.4,541.6c0.3-2.2,1.4-3.2,3.7-2.2c2,0.9,3.9,2.4,6.3,2.2l0,0c-0.5,2.9-2.2,3.4-4.3,1.8
	C880.3,542.2,878.6,541.3,876.4,541.6L876.4,541.6z"/>
<path class="st0" d="M801,608.3c-0.2,2.4-1.3,4-4,3.9C797,609.5,798.5,608.3,801,608.3z"/>
<path class="st0" d="M860,545.5c0.2,0.4,0.6,0.8,0.6,1.1s-0.4,0.7-0.6,1.1c-0.2-0.4-0.6-0.7-0.6-1.1S859.8,545.9,860,545.5z"/>
<path class="st4" d="M920.8,638.2l-0.7,1.8l-0.8-0.6c0.4-0.5,0.8-0.9,1.2-1.4L920.8,638.2z"/>
<path class="st0" d="M363.2,334.4l-15.9,0.1c0.4-4.3-0.4-10.1,6.8-4.8c1.2,0.9,2.9,0.8,4-0.1c4.6-3.4,6.3-2.9,4.2,3
	C362.1,333,362.9,333.8,363.2,334.4z"/>
<path class="st3" d="M856.1,425.3c-4.3-1.3-8.7-2.7-13-0.1c-1.8,1.1-3.7,2.1-3.8,4.8c-0.1,2,0.7,4.5-2.5,5c-2.7,0.4-3.6-2-4.8-3.6
	c-8-10.5-18.3-14.9-31.5-13.3c-5.5,0.6-9.8,2.9-14.4,5.4c-2.5,1.4-5.5,3.1-8,1.1s-1.2-5.2-0.4-7.9c1.4-4.7,4.1-9,3.5-14.3
	c-0.5-3.6-1.5-4.6-5-2.8c-5.1,2.8-10.6,4.9-15.6,7.9c-3,1.8-4.8,4.5-1.6,8.1c2.4,2.7,3.5,6.4,7,8.6c3.7,2.4,3,7.1,1.9,10.4
	c-1.2,3.6-4.2,0.7-5.5-0.6c-4.7-4.5-10.4-7.2-15.9-10.5c-4.5-2.8-8.1-3.5-11.9,0.7c-0.9,1-2,2.6-3.5,1.7c-1.7-1-1.1-3-0.4-4.5
	c2.7-6.3,8.9-9.6,12.5-15.2c0.7-0.6,1.7-0.7,2.6-0.4c6.6,4.9,10.3-1.5,13.8-4.3c11.3-9.2,22.7-18.3,32.7-29.1c4.9-5.3,8-5,12.5,1.2
	c3,4.1,6,7.2,11.5,6.3c3.6-0.6,4.7,2,6.2,4.5c3,4.9,4.3,12.2,13.3,8.6c2.4-1,4.1,2.7,6.1,4.2c5.6,4.4,8.4,11.3,14.3,15.5
	C856.2,416.9,856.1,421.1,856.1,425.3z"/>
<path class="st3" d="M669.1,543.1c0.5-2.4-2.8-5.3,1-7.2c24.3,0.4,48.6,0.3,72.8-1.5c21.3-1.6,42.5-4.6,63.8-5.5l0,0
	c-0.8,4.1-4.1,3.9-7.1,4.3c-19.1,2.3-38.1,5.6-57.3,6.6c-20.9,1.1-41.8,2.8-62.8,1.9C676,541.5,672.4,542,669.1,543.1z"/>
<path class="st0" d="M745.5,372.8c5.2-1,8.4-5.2,12-8.2c7.8-6.8,17.6-10.9,28-11.7c2.7-0.2,5.3-1.8,8-2.5c1.3-0.3,3.2-0.5,3.7,1
	c0.7,2.2-1.3,2.5-2.9,3c-7.8,2.4-15.7,4.6-23.5,7.2c-6.5,2.2-12.6,5.3-16.9,10.9c-2,2.6-3.7,5.3-0.7,8.8c3.2,3.8,5.6,1.8,8.4-0.1
	c2.1-1.5,4.1-3.5,7-2.3c1.8,0.7,3.6,1.9,3.4,4s-2.4,1.5-3.6,2.2c-6.4,3.7-12.7,2.7-19.3,0.7c-2-0.6-4.4,0.3-4.6,2.3
	c-1,8-10.3,10.3-12.1,17.8c-1.5-9.6,0.7-18.1,7.5-25.4c2.2-2.3,5.5-3.9,5.5-7.8L745.5,372.8z"/>
<path class="st0" d="M722.7,435.1l0.3-4c2.5,0.2,2.5-3,5.4-4.2c0.5,12-3.8,22.1-6.9,32.4l0,0h-3c-0.7-6.2,1.5-12.2,1.8-18.4
	C723.7,440.2,722.7,437.4,722.7,435.1z"/>
<path class="st3" d="M806.7,528.9l0.3-0.5C806.9,528.5,806.8,528.7,806.7,528.9L806.7,528.9z"/>
<path class="st2" d="M491.9,388.7c1.9-0.9,1.9-2.8,2.2-4.5c4.6-0.3,3.8-3.8,3.9-6.7c0.7-4.8-2.5-4.6-5.8-4.7
	c-7.7-0.2-9.8-3.9-6.4-10.8c1.6-3.4,4.3-6,1.5-10.7c-2.3-3.7,5.3-3.1,5.2-7c2.5-2.9,5.8-2.7,9.1-2.7c72.5,0,144.9,0,217.3,0.1
	c2,0,4.7-1.1,5.8,1.3c0.9,2-1.7,3.1-2.8,4.5c-7.1,9-10.9,19.8-16.1,29.8c-5-6.2-12.5-9.4-19.4-11.8c-4.6-1.6-7.3,6.3-11,9.9
	c-0.8,0.9-1.6,1.7-2.5,2.5c-4.2,2.7-5.5,5.6-0.9,9.2c2,1.6,3.2,3.9,1,6.1c-2.4,2.4-2.7,5.2-3.4,8.3c-0.7,3.3-2.4,5.5-5.4,1.3
	c-2.7-3.8-5.7-4-8.4,0.1c-4.1,3.8-8.2,7.7-12.4,11.5c-1.1,1-2.7,1.8-3.9,0.7c-4.8-4.3-8.1-0.6-11.9,1.7
	c-11.6,7.2-23.2,14.2-34.9,21.4l0.7,1.7c7-1.9,14-3.8,20.9-5.8c2-0.6,3.9-2.2,5.9-0.3c2.4,2.2-0.6,3.7-0.9,5.5
	c-0.6,3.5-4.4,5.6-4,10.4c5.9-3.2,9.3-8.3,13.5-12.4c7.6-7.4,8.8-7.8,16.7-1.5c1.8,1.4,4.2,3.7,6.2,1.9c2.2-2-0.8-4.1-1.5-6.2
	c-0.4-0.8-0.9-1.6-1.6-2.3c-1.9-2.6-6.1-6.3-4.3-8c3.3-3,8.7-3.2,13.5-2.3c2.6,0.5,2,2.8,2.2,4.6c0.2,3.6,1.7,7.3,5.4,7.3
	c6.2,0,4.2,3,3,6c-2,5.3-4.2,10.5-6.2,15.8c-2.5,6.4-8.8,5.3-13.4,5.4c-14.4,0.4-28.9,0.8-43.1,2.1c-16.5,1.5-33.4,2.2-49,9.2
	c-5.3,2.4-10.8,4.5-10.5,12.2s4.3,11.5,11,13.7c5.5,1.9,11,4.1,16.4,6.1c-1.9,2.4-4.5,2.4-7.1,2.1c-14.1-1.4-26.9-7.1-40.2-11.5
	c-5.3-8.7,0.7-15,5.4-21.3c-2.9-1.8-4.6,0.7-6.7,0.3c-3.2-2.4-6.6-1.3-10.1-0.6c-13,2.5-24.5,9.8-32.4,20.4
	c-1.6-6.5,2.8-9.3,7.3-12.1c1.5-0.9,4.3-1.5,3-3.9c-1-1.8-3.5-0.9-5.1,0c-4.3,2.5-8.8,4.7-12.9,7.5c-11.6,8.1-13,25.4,1,33
	c5.3,2.8,6,5.7-0.2,8.3c-5.2-2.1-10.6-3-14.8-7.8c-8.1-9.2-7.3-22.2,2.9-29.3c3.9-2.7,4.6-7.4,7.4-10.9c2.4-3,4.4-5.7,8.7-6.5
	c3.9-0.7,7.7-2.8,1.8-6.7c1.4-1.7,2.9-1.3,4.2-1.3c3,0.1,6-0.3,7.1-3.5s-2.3-3.5-4.1-4.8c-1.6-1-2.9-2.6-1.8-4
	c2.2-2.8,2.9-7.8,7.5-7.5c4.2,0.3,7.2-2.6,11.4-2.6c2,0,6.7-1.2,6.2-5.4c-0.5-4.8,3.6-11.4-4.7-13c1-4.5,9.5,2.8,7-5
	c-1.1-3.5-2.1-7-2.8-10.5c-3.7,2.2-1.2,6.4-4.1,8.6c-2.2,1.7-3.6,4.7-6.8,4.5s-2.6-3.5-3.6-5.5c-0.8-1.7-1.4-3.5-1.9-5.3
	c-0.1-0.9-0.1-1.9-0.2-2.8C497,398.4,495.8,393.2,491.9,388.7z"/>
<path class="st5" d="M389.1,341.7c-8.7,12.1-9.8,26-11,40.4c-0.8,9.7-2.3,19.4-2.2,29.2c0,2.4-0.8,5.6,2.6,6.6
	c3.2,1,4.7-1.6,6.3-3.6c3.4-4.4,4.5-9.6,5.4-15c1.3-8.3,2.5-16.4,8.3-23.2c5-5.9,15.3-9.2,22.5-6.4c6.8,2.7,8.8,13.7,4.5,20.4
	s-11.6,8-18.2,10.8c-2,0.9-5.5,0.2-5.2,3.5s3.5,4.9,6.6,5.4c7.1,1.1,13-2,17.8-6.6c7.5-7.3,11.2-16.9,15.1-26.4
	c2.5-6-0.2-14,6.9-18.3c1.8-1.1,3.1-3.2,5.6-2c2.1,1.1,1.6,3.2,1.6,5c0.2,14.9-3.5,29.4-4.8,44.2c-0.3,3.4-10.1,8.8-12.9,7.4
	c-3.8-2-1.2-6.1-2.9-9.4c-4.3,2.5-7.6,6-10.7,9.7c-5.7,6.9-13.8,8.8-21.8,10.5c-2.6,0.4-5.2-0.2-7.4-1.6c-4.5-2.5-8.4-1.3-10.8,3.6
	c-5,10.4-13.4,13.7-24.4,9.9c-2.8-1-5.2-0.9-7.4,2.1c-3.4,4.6-7.5,8.4-13.1,10.5c-2.1,0.8-4.6,2-6.1,0.8c-5.9-4.9-8.2-1.4-11.2,3.5
	c-3.9,6.5-10.1,9.7-18,8.2c-4.8-0.9-8.6,0.4-11.7,4.5c-2.8,3.5-6.4,6.3-10.4,8.3c-1.8,1-4.1,1.7-5.4,0.8c-7.2-4.9-10.5,0.6-15.1,4.6
	c-6.4,5.6-13.6,9.6-23,5.1c-4.8-2.3-10-1.8-10.9,5.5c-0.3,2.1-2.1,3.3-3.7,3.9s-3-1.3-3.8-2.5c-1.1-1.8-0.6-3.6,1.1-5
	c5.3-4.4,6.5-11.4,10.7-16.5c1-1,1.5-2.4,1.4-3.9c-0.9-9.6,5.1-16.8,8.9-24.6c3.1-6.4,18.2-12.7,24.9-11.2c0.7,0.1,1.4,0.5,1.9,1
	c3.2,3.6,3.9,3.4,6-0.8c1.4-2.8,1.8-6.2,6-7c1.9-0.4,3.6-2.9,5.6-0.9c1.7,1.6,1.5,4.3,0.5,6c-4,6.9-1.5,14.3-2.2,21.4
	c-0.4,3.6,1.4,4.5,4.8,3.1c5.7-2.3,8-7.3,9.2-12.4c1.5-6.6,2.4-13.3,2.8-20.1c0.2-3.4,2-5.1,4.4-6.6c5.7-3.4,7.4-2.4,7.3,4.3
	c0,5.7-0.3,11.3-0.3,17c0,2.3-1.1,5.7,3,5.9c3.2,0.1,6.5,0.3,8.5-3.5c6-11.4,8.4-23.7,9.8-36.2c2.1-18.4,2-37.3,11.2-54.2
	c2.6-1.2,1.3-3.6,1.7-5.5c3.9-0.3,8.1-6.4,11.5,0.7c-9,14.7-12.4,30.7-11.7,47.8c0.2,4.9,1.1,10.5-0.7,14.7c-2.9,6.7-2,13.4-2,20
	c0,5,3.5,6.5,7.5,3.4c4.1-2.9,6.9-7.3,8.1-12.1c2.6-12.1,5.4-24.2,6.9-36.5c1.6-13.3,4-26.1,11.5-37.5
	C382,340.3,385.4,337.9,389.1,341.7z M270.7,448.3c0.2-4.4-0.5-8.7-5.1-9.9c-4-1-8.7-4-12.4,0.9c-4.7,6.4-9.6,12.7-8.3,21.6
	c0.8,5.4,8.5,10.6,12.8,7.6C264.6,463.8,269.3,456.5,270.7,448.3z M420.7,380c-1.5-2.5-3.4-4.5-7-4.3c-5.3,0.4-12.8,10.7-11.3,15.6
	c0.2,0.5,0.9,1,1.5,1.2C408.9,394.6,421.2,385.7,420.7,380z"/>
<path class="st5" d="M526.4,491.8c13.2,4.3,26.1,10.1,40.2,11.5c2.6,0.2,5.3,0.3,7.1-2.1c5.2-1.3,11.3,1.7,15.8-3.2
	c3.6-1.9,9.2,4.5,11.4-2.8c7.5,0.6,14.8-1.2,22.2-1.9c3.5-0.3,6.4,0,8.7,2.8c-1.3,2.2,0.4,1.6,1.5,1.6v-0.2
	c2.3,7.3,8.8,11.2,13.2,16.9c4.1,5.2,4,6.8-2.5,8.2c-15.1,3.4-30.4,6.5-45.5,9.8c-5,1.1-5.8-1.9-4.3-5c1.4-2.8,1.5-5.6,2.1-8.4
	l-0.1,0.1c2.4,0,3.8,3.7,6.1,2.3c6-3.6,13.9-4.9,17.2-12.3c0.7-1.5,1.5-3.3,1.1-4.6s-2.5-1-3.8-0.7c-1.7,0.4-4.4,1.1-3.5,3.2
	c1.3,2.9-1,2.7-2.1,3.2c-3.5,1.7-7.2,3-10.8,4.5l0,0c1.1-1.2,2-2.5,3.2-3.7c0.9-0.9,4-0.5,2-3.1c-1.3-1.6-2.8,0-3.9,0
	c-4.8,0-10.3,2-14.3-2.6c-0.7-0.8-1.2-1.5-2.2-0.8c-1.1,0.6-1.7,1.8-1.4,3c0.4,2.5,2.9,4.4,2.1,7.7c-2.6-0.5-3.6-2.7-4.8-4.4
	c-3.2-4.6-7.8-5.2-11.5-1s-7.6,7.7-12.8,9.6c-2.5,1-5.7,2.1-7.2-1.5c-1.1-2.5-0.9-6.8-4.7-5.5c-3.6,1.1-5.2,5.2-5.7,8.9
	c-1,6.7,0.8,14.3-6.6,18.7c-0.3,0.2-0.3,0.9-0.3,1.3c-1.6,12.7-14,19.9-27,15.8c-13.7-4.3-27.5-8.7-41.3-13
	c4.2-2.3,3.8-7.7,7.3-10.8c11.5-10,22.4-20.7,34-30.6C511.4,497.6,516.8,490.4,526.4,491.8z M522.3,524.6c-0.1,0.9-0.1,1.9,0,2.8
	c0.4,2.2-1.1,4.7,1.2,6.5c1.9-2.4,4.3,1.5,6.2-0.4c2.7-2.7-1.5-3.8-1.5-5.9c0-1.9,0.2-3.8-0.3-5.5c-1-3.1,1.5-6.5-1.1-10.1
	C523.8,516.2,525.5,521.4,522.3,524.6c-1.2-1.8-3.2-3.4-1.3-6.1c1.7-2.5,1.3-5.5-1.4-6.7c-4.2-1.9-6.2-5.7-9.2-9
	c0.2,3.9,0.1,8.1,2,11c1.1,1.8,4.8,2.3,3.5,5.6c-1.3,3.5-4.9-0.7-7,1.9l6.6,3.3c-4.9,0.6-8.8,1.6-6.5,6.8c1.2,2.7-1,1.3-1.3,1.1
	c-2.6-1.3-3.5-0.2-4.5,2.2c-1.2,2.9-0.2,4.3,1.8,6c1.7,1.3,4.5,1.6,4.6,4.6c-1.6,0.6-3.4,0.4-4.9-0.4c-1.8-1-4-0.5-5.3,1.1
	c9.2,4.8,17.9,2.7,26.6,1.1c2-0.4,3-2.8,0.2-3.9c-2.3-0.9-5.1-3.3-7.1,1c-0.9,2-3.5,2.1-5,1.1c-2.8-1.7,0.3-3,0.8-4.5
	c1.1-3.3,1.7-6.8,3.2-9.9C519.1,528.7,518.3,524.9,522.3,524.6L522.3,524.6z M493.8,527.7c-3.9,0.3-7.1,1.8-8.2,5.6
	c-1,3.6,1.9,5.5,4.1,7.6c0.7,0.8,2,0.9,2.8,0.1c0.1-0.1,0.2-0.2,0.2-0.3c0.9-0.9,0.4-1.4-0.6-2.1c-2-1.4-5-2.5-2.5-5.9
	c2.2-2.9,4.8-2.3,7.5-0.8c1.2,0.7,2.7,1.8,3.6,0c0.8-1.6-0.9-2.5-2.2-3C496.9,528.4,495.4,528,493.8,527.7L493.8,527.7z
	 M536.4,514.6c0-2.1-0.2-5.1-2.2-4.6c-3.5,1-1.4,5.2-2.8,7.7c-0.8,1.3,0.6,2.8,2.3,2.4C536.7,519.3,536.2,516.6,536.4,514.6
	L536.4,514.6z"/>
<path class="st2" d="M718.4,459.4h3c-0.4,4.5,2.9,4.2,5.8,4.5c1,5.3-1.7,7.8-6.6,8.2c-4.5,0.4-7.3,2.4-7.7,7
	c-0.5,2.1-3.2,2.8-3.2,5.9c6.7-0.7,13.2-1.1,19.8-2c3.1-0.4,3.5-2.7,1.9-5.2c0.9-1.4,2.3-1.4,3.7-1.4c3,2.4,6.1-0.8,9.2,0.1l0,0
	c0.4,1.7-2,3.4,0,5.2c2.5-1.2,5.1-2,7.8-2.6c4.2-0.9,9.3-0.9,12-5.4c1.2-2-2.1-2.3-1.5-4c4.1,0.4,7.7,1.9,8.3,6.2s-2.8,6.3-6,7.9
	c-10.8,5.6-22.8,7.3-34.6,9.4c-10.2,1.8-20.6,2-30.9,3.1c-12.4,1.3-24.4-2.1-36.6-3.4c-7.8-0.8-15.6-0.2-23.3-0.8
	c-8.9-0.7-17.8-1.8-26-5.6c4-0.9,9.8,2.8,11.4-4.3c4.2,0.4,6.2,0,3.6-5.1c-1.7-3.2-4-3.3-6.6-3.7c0.5-1.9,1-3.7,1.5-5.6
	c9.5-4.1,19.5-2.1,29.3-2.5c2.6-0.1,3.4,1.1,2.4,3.6s-1,5.6-3.3,7.6c1-5.5-1.3-7.8-6.8-6.9c-6.6-6.9-11.8-1.2-17.2,2
	c1.7,1.1,3.4,2.1,5.2,3c1.9,0.9,5.5,1.3,5.5-0.7c-0.1-6.9,3.9-2.7,6.3-2.9c-0.2,2,0.3,4,1.4,5.7c-1.8,4.8-8,3.2-10.6,7
	c5.3,6.5,13,3.7,18.9,3.4c8.1-0.5,15.9,1.5,23.8,1.4c4.4-0.1,6.4-0.6,7.9-4.6c3.9-10.4,7.1-11.8,17.2-8.5
	c4.8,1.6,12.1-4.2,13.8-11.2C717.3,462.4,716.8,460.6,718.4,459.4z"/>
<path class="st2" d="M658.4,521.1c-2.1-1.5-4.1-3.2-4.8-5.9c19.8-1.5,39.7,0,59.5-0.8c14.6-0.5,29.1-2.5,43.6-3.3
	c11.6-0.7,23.4-3.2,34.8-5.7c13.7-3.2,26.5-9.4,37.4-18.4c2.6-2.1,1.7-11.5-1.3-14.7c-0.9-1-2.8-1.5-1.8-3.1s2.6-0.4,3.8,0
	c4.5,1.3,8.7,3.5,12.3,6.5c6.7,5.8,6,14.4-1.6,19.8c-12.3,8.9-26.5,13.4-41.2,16.1c-25.2,4.7-50.7,7.3-76.4,8.9
	C701.3,521.9,679.9,521.7,658.4,521.1z"/>
<path class="st0" d="M378.6,342.2c-7.5,11.4-9.9,24.2-11.5,37.5c-1.5,12.2-4.2,24.4-6.9,36.5c-1.1,4.9-4,9.2-8.1,12.1
	c-4.1,3-7.5,1.5-7.5-3.4c0-6.7-0.9-13.3,2-20c1.8-4.2,0.9-9.8,0.7-14.7c-0.7-17,2.7-33,11.6-47.8
	C365.5,340.2,372.1,341.8,378.6,342.2z"/>
<path class="st0" d="M656,402.7c2.7-4.2,5.7-3.9,8.4-0.1c3,4.3,4.7,2,5.4-1.3c0.7-3,1-5.9,3.4-8.3c2.2-2.2,1-4.5-1-6.1
	c-4.6-3.6-3.4-6.5,0.9-9.2c0.9-0.7,1.8-1.6,2.5-2.5c3.7-3.5,6.4-11.5,11-9.9c6.8,2.4,14.3,5.6,19.4,11.8l-21.8,31.1
	c-0.1,0.2-0.3,0.4-0.4,0.6c-3.3,2.7-2.9,9.8-7.3,9.4c-3.2-0.3-6-5.5-9.1-8.3C664,406.9,661.6,402.3,656,402.7z M672.2,408.2
	c2.7,0.7,0.6,6.1,5.1,4.7c1.2-0.4,2.7-1.8,2-3.2C678.1,407.1,675.6,406.6,672.2,408.2z"/>
<path class="st2" d="M645.2,506.2c-3.1-1.5-5.8-3.9-7.8-6.8c25.3,3.6,50.9,2.6,76.3,2.5c26.8-0.1,53.5-4.8,78.7-14
	c5.2-1.9,9.2-6.2,11.3-12.1c5.7,5.4,5.8,7.3,0.4,12.2c-5.1,4.5-11.5,6.6-17.9,8c-13.3,3.1-26.9,4.8-40.2,7.5
	c-30.3,6.3-60.7,2.7-91,3.7C651.7,507.5,648.4,506.6,645.2,506.2z"/>
<path class="st2" d="M600.9,495.1c-2.2,7.4-7.8,0.9-11.4,2.8c-7.1-0.8-13.6-3.6-19.8-7.1c-4.9-2.7-7-7-6-12.4s5.8-5.8,10.7-8
	c-0.9,4.1-5.7,6.2-3,9.9c2.1,2.8,4.9,5.1,8,6.6C586.3,490.7,593,494.5,600.9,495.1z"/>
<path class="st0" d="M712.9,479c0.4-4.7,3.2-6.6,7.7-7c4.9-0.4,7.6-2.9,6.6-8.2l7,1.1c0.9,1.4,1.9,1.5,2.9,0.1l4.2,0.1
	c0.7,0.9,1.8,1.3,2.9,1.2l0,0c3,6.9,9.2,8,15.6,2.9l2.7,0.2c-0.6,1.8,2.7,2.1,1.5,4c-6.9-0.8-12.9,4.5-19.8,2.8l0,0
	c0.4-3.4-1.1-5.4-4.6-5.7c-4.4-0.4-3.7,3.3-4.6,5.7c-1.4,0-2.8,0-3.7,1.4C725.2,478.1,718.9,476.6,712.9,479z"/>
<path class="st5" d="M491.2,343.3c-4,2.7-9,3.9-11.8,8.3l-1.2,1.1c-3.3,1.7-6.2,4.1-8.5,7.1c-0.7,1.3-2.1,2-3.5,1.9
	c-2.2-0.3-1.6-2.4-2.2-3.9c-2.9-7,2-10.8,5.9-15.1c5.4-2.3,11.3-3.3,17.2-2.8C489.2,340.3,491.4,340.2,491.2,343.3z"/>
<path class="st0" d="M623.2,467.6c-0.5,1.9-1,3.7-1.5,5.6c-2.4,0.5-5.1,0.3-7.1,2.6c4,1.2,8.1,2.1,10.1,6.3
	c-1.6,7.1-7.4,3.4-11.4,4.3l-3-1.3l-1.6-1.2c-4.1-1-8.4-3.3-7.7-7.5c1-6.2,7.2-6.2,12.1-7.1c2.5-0.1,5.2,1,7.2-1.3L623.2,467.6z"/>
<path class="st2" d="M759.8,469.3c-6.4,5.1-12.5,3.9-15.6-2.9C749.6,466.3,755,466.3,759.8,469.3z"/>
<path class="st2" d="M310.5,341.6c-5.4,2.5-11.7,2.5-17.1,0C298.9,339.5,304.9,339.5,310.5,341.6z"/>
<path class="st0" d="M646.1,476.5c-1.1-1.7-1.6-3.7-1.4-5.7c0.1-0.5,0.1-1,0.2-1.4c5.5-0.9,7.8,1.4,6.8,6.9L646.1,476.5z"/>
<path class="st2" d="M338.9,341.6c-1.9,4.8-3.8,2.9-5.7-0.1C335.1,339.8,337,339.8,338.9,341.6z"/>
<path class="st2" d="M722.7,435.1c0,2.3,1.1,5.1-2.5,5.9C720,438.7,719.2,436,722.7,435.1z"/>
<path class="st2" d="M347.5,341.6c-0.4,1.9,0.9,4.3-1.7,5.5c-0.4-1.8-0.8-3.7-1.2-5.5C345.6,340.2,346.6,340.4,347.5,341.6z"/>
<path class="st2" d="M620.4,467.8c-2,2.4-4.8,1.2-7.2,1.3C615.3,467.1,618,468,620.4,467.8z"/>
<path class="st2" d="M737,465.1c-1,1.4-2,1.3-2.9-0.1C735.2,463.7,736.2,463.7,737,465.1z"/>
<path class="st2" d="M744.2,466.4c-1.1,0.2-2.2-0.3-2.9-1.2C742.4,465,743.6,465.4,744.2,466.4z"/>
<path class="st4" d="M633.3,497.6c-1.1,0-2.8,0.6-1.5-1.6C632.5,496.4,633.5,496.5,633.3,497.6z"/>
<path class="st2" d="M608.8,483.8l1.6,1.2L608.8,483.8z"/>
<path class="st0" d="M906.3,612.5h-0.7h-0.7c0.2-0.6,0.4-1.2,0.7-1.8C905.8,611.3,906,611.9,906.3,612.5z"/>
<path class="st5" d="M201.4,460.2c-1.4,5.5,3.4,15.5,4.4,25.9c1.3,12.9,21.1,26.5,34.2,25.7c11-0.7,17.5-6.6,19.5-17.4
	c0.5-2.7-0.3-7.1,3.5-7.5c2.9-0.3,3.6,3.5,5.1,5.9c8.9,14.3-3.7,43-22.6,45.1c-14.8,1.7-25.5-3.3-35.8-11.7
	c-14.1-11.4-18.9-26.9-22.6-44.4c-2.3-10.9-3.3-21.7-0.9-31.4c1.9-7.9,0-16.3,4.6-23.8c5-8,8.7-17,12.9-25.5
	c5.6-11.3,14.8-20.1,24.6-26.5c11.9-7.7,25.8-13.4,41.2-10.4c9.4,1.8,17.5,11.1,18.1,20.6c0.5,8.8-0.5,17.4-6.5,24.1
	c-9.3,10.5-21.5,11.9-32.9,2.6c-2-1.7-6-1.5-6-5.2c0-5.7-0.8-11.5,0.4-16.9c0.8-3.4,5.4-5.3,9.1-4.8c4.2,0.6,2.5,3.8,1.9,6.7
	c-1.1,5.3,5.5,11.3,11.1,9.6c3.1-1,8.4-1.6,8.4-5.9c0-4.9,3-10-3.8-14.9c-7.2-5.1-13.1-8-21.7-5.4c-7.4,2.1-14,6.2-19.2,11.9
	C210.3,406,203.5,429.3,201.4,460.2z"/>
<path class="st5" d="M495.1,404.1c0.1,0.9,0.1,1.8,0.2,2.8c-8.4,8.4-17.7,15-29.2,18.9c-9.8,3.4-18.6,9.5-28.3,13.4
	c-16.1,6.5-31.8,14.2-47.9,20.7c-17.2,7-30.2,20.2-42.5,33.7c-4.2,4.7-8.4,7.1-15.1,7c-9.2-0.1-18.8-2.1-27.8,2.3
	c-1.9,1.1-4.4,0.4-5.4-1.5c0-0.1-0.1-0.1-0.1-0.2c-1.2-2.5,0.7-3.4,2.2-4.5c15.4-11.5,30.5-23.4,48.6-30.6
	c17.9-7.2,35.3-15.5,53.4-22.2c13-4.9,25.6-10.7,38.5-15.7c8.4-3.2,17.1-5.6,25.2-9.8c4.4-2.3,8.4-5.3,13.4-6.9
	c4.6-1.5,7.8-6.8,6.4-12.8l0.4-0.4C491.8,397.4,494,400.1,495.1,404.1z"/>
<path class="st3" d="M526.4,491.8c-9.7-1.4-15,5.9-21.1,11c-11.6,9.9-22.5,20.6-34,30.6c-3.5,3.1-3.1,8.5-7.3,10.8
	c-3.2,3.3-8.2-1.2-11.4,2.6c0.6-4.2,4.3-6,7.1-8.1c6-4.5,10.9-10,16-15.4c6.1-2.6,5.5-5.4,0.2-8.3c-14-7.6-12.6-24.9-1-33
	c4-2.8,8.5-5,12.9-7.5c1.7-1,4.1-1.9,5.1,0c1.3,2.3-1.5,2.9-3,3.9c-4.5,2.8-8.9,5.7-7.3,12.1c-0.1,6-1.5,12.4,4.2,17l1.3,1.3
	l0.1,0.1l1.2,1.2c8.3-3.6,13.4-11.3,20.7-16.3c0.7-0.5,0.8-2.2,0.7-3.3c-0.5-10.3,6.4-15.4,14.1-19.9c2.1,0.4,3.8-2,6.7-0.3
	C527.1,476.7,521.1,483,526.4,491.8z"/>
<path class="st5" d="M302,388.9c0-6.2,3.5-10.1,9.4-10.2c6.1-0.1,6.7,4.9,7.4,9.1c0.7,4-5.1,10.5-8.6,10.4
	C306.6,398,302,392.9,302,388.9z"/>
<path class="st5" d="M486.6,398.6c-3.1-1.9-6.9-2-10.1-0.4c-1.5,0.7-3.5,2-5.3,0.4c-2.4-2.1,0.7-3.2,1.1-4.8
	c1.4-5.5,5.1-7.5,10.6-6.5c-1.1,4.6,5,6.4,4.1,10.9L486.6,398.6z"/>
<path class="st5" d="M487,398.1c0.9-4.5-5.2-6.3-4.1-10.9c3.2-0.6,6.1,0.6,9,1.4c3.9,4.6,5.1,9.7,3.2,15.5
	C494,400.1,491.8,397.4,487,398.1z"/>
<path class="st5" d="M498,377.5c-0.1,2.9,0.7,6.4-3.9,6.7c-3.1,0-5.7-0.9-6.7-4.1c-0.7-2.2,0.8-3.5,2.4-4.6
	C493.3,373.2,495.5,375.7,498,377.5z"/>
<path class="st2" d="M478.1,352.7l1.2-1.1c6,4.7,5.8,7-1.2,11.8V352.7z"/>
<path class="st2" d="M507.8,422.9c2,4.3,2.1,6.5,0.4,9.4C506,429.4,506.7,427.2,507.8,422.9z"/>
<path class="st5" d="M596.3,518.9c-6,0.6-9.2,5.2-12.8,9.2c-2.3,2.6-4.6,5.2-8.1,9.2c4.6-12.4,16.7-22.8,25-22.7l0,0
	c-1.1,1.8-4.2,1.6-4.3,4.3L596.3,518.9z"/>
<path class="st5" d="M532.2,568.6c0.7,2.5-0.6,3.9-2.8,3.7c-3.9-0.4-2.5-3.9-2.8-6.1c-0.2-2.1-0.9-5.9,2.2-5.3
	S531.5,565.8,532.2,568.6z"/>
<path class="st0" d="M486.9,507.5c-5.7-4.6-4.4-11-4.2-17c7.9-10.6,19.5-17.9,32.4-20.4c3.4-0.7,6.8-1.8,10.1,0.6
	c-7.7,4.5-14.6,9.5-14.1,19.9c0.1,1.1,0,2.9-0.7,3.3c-7.3,5-12.4,12.7-20.7,16.3l-1.2-1.2l-0.1-0.1L486.9,507.5z"/>
<path class="st0" d="M270.7,448.3c-1.4,8.2-6.1,15.5-13,20.2c-4.4,3-12-2.3-12.8-7.6c-1.3-8.9,3.6-15.2,8.3-21.6
	c3.7-4.9,8.4-2,12.4-0.9C270.2,439.6,270.9,443.9,270.7,448.3z"/>
<path class="st0" d="M420.7,380c0.5,5.7-11.8,14.6-16.8,12.5c-0.6-0.2-1.3-0.7-1.5-1.2c-1.6-5,6-15.3,11.3-15.6
	C417.3,375.4,419.2,377.5,420.7,380z"/>
<path class="st4" d="M522.3,524.6c-4,0.3-3.2,4.2-4.3,6.4c-1.5,3.1-2,6.7-3.2,9.9c-0.5,1.5-3.5,2.8-0.8,4.5c1.5,0.9,4.1,0.9,5-1.1
	c2-4.3,4.8-1.9,7.1-1c2.9,1.2,1.9,3.5-0.2,3.9c-8.6,1.6-17.4,3.7-26.6-1.1c1.3-1.6,3.5-2,5.3-1.1c1.5,0.8,3.3,0.9,4.9,0.4
	c-0.1-3-2.9-3.3-4.6-4.6c-2.1-1.6-3.1-3.1-1.8-6c1.1-2.5,1.9-3.6,4.5-2.2c0.3,0.1,2.5,1.5,1.3-1.1c-2.4-5.2,1.6-6.2,6.5-6.8
	l-6.6-3.3c2.1-2.6,5.7,1.5,7-1.9c1.3-3.3-2.4-3.8-3.5-5.6c-1.9-3-1.8-7.1-2-11c3,3.3,5,7,9.2,9c2.7,1.2,3.1,4.3,1.4,6.7
	C519.2,521.2,521.1,522.8,522.3,524.6L522.3,524.6z"/>
<path class="st4" d="M596.2,519c0.1-2.7,3.2-2.5,4.3-4.3c3.6-1.5,7.3-2.9,10.8-4.5c1.1-0.5,3.3-0.4,2.1-3.2
	c-0.9-2.1,1.8-2.8,3.5-3.2c1.3-0.3,3.4-0.7,3.8,0.7s-0.5,3.1-1.1,4.6c-3.3,7.4-11.1,8.7-17.2,12.3C600,522.7,598.6,519,596.2,519z"
	/>
<path class="st4" d="M522.3,524.7c3.3-3.3,1.5-8.5,4.6-12.7c2.6,3.6,0.1,7,1.1,10.1c0.5,1.7,0.3,3.7,0.3,5.5c0,2.1,4.2,3.2,1.5,5.9
	c-1.9,1.9-4.2-2-6.2,0.4c-2.3-1.8-0.8-4.3-1.2-6.5C522.3,526.5,522.3,525.5,522.3,524.7L522.3,524.7z"/>
<path class="st4" d="M493.8,527.7c1.6,0.3,3.1,0.7,4.7,1.2c1.3,0.5,2.9,1.4,2.2,3c-0.9,1.8-2.4,0.7-3.6,0c-2.7-1.6-5.3-2.1-7.5,0.8
	c-2.5,3.3,0.5,4.5,2.5,5.9c0.9,0.7,1.4,1.2,0.6,2.1c-0.7,0.9-1.9,1-2.8,0.4c-0.1-0.1-0.2-0.2-0.3-0.2c-2.2-2.1-5.1-4-4.1-7.6
	C486.7,529.4,489.9,528,493.8,527.7z"/>
<path class="st4" d="M536.4,514.6c-0.2,2,0.3,4.7-2.7,5.5c-1.7,0.5-3-1-2.3-2.4c1.4-2.5-0.7-6.7,2.8-7.7
	C536.2,509.5,536.3,512.5,536.4,514.6z"/>
<path class="st3" d="M712.9,479c6-2.5,12.3-1,18.5-1.3c1.6,2.6,1.2,4.8-1.9,5.2c-6.5,0.9-13.1,1.4-19.8,2
	C709.6,481.8,712.4,481.1,712.9,479z"/>
<path class="st3" d="M644.8,469.4c0,0.5-0.1,0.9-0.2,1.4c-2.4,0.2-6.5-4-6.3,2.9c0,2-3.5,1.6-5.5,0.7c-1.8-0.9-3.6-1.9-5.2-3
	C633,468.1,638.2,462.5,644.8,469.4z"/>
<path class="st3" d="M624.8,482c-2-4.1-6.1-5-10.1-6.3c2-2.3,4.7-2.1,7.1-2.6c2.7,0.4,4.9,0.5,6.6,3.7C631,482,629,482.4,624.8,482z
	"/>
<path class="st3" d="M744.2,476.4c7,1.7,13-3.6,19.8-2.8c-2.7,4.5-7.8,4.5-12,5.4c-2.7,0.6-5.3,1.4-7.8,2.6
	C742.2,479.8,744.6,478.1,744.2,476.4z"/>
<path class="st3" d="M735,476.3c0.9-2.4,0.2-6.1,4.6-5.7c3.5,0.4,5,2.3,4.6,5.7C741.1,475.6,738,478.7,735,476.3z"/>
<path class="st2" d="M672.2,408.2c3.4-1.5,5.9-1.1,7.2,1.5c0.7,1.4-0.8,2.9-2,3.2C672.8,414.3,674.9,408.9,672.2,408.2z"/>
<path class="st2" d="M488.4,509l1.2,1.2L488.4,509z"/>
<path class="st2" d="M486.9,507.5l1.3,1.3L486.9,507.5z"/>
</svg>
