<svg xmlns="http://www.w3.org/2000/svg" xmlns:xlink="http://www.w3.org/1999/xlink" viewBox="0 0 1838.1 584.22"><defs><style>.cls-1{fill:#d0d3d5;}.cls-2{fill:#cea04b;}.cls-3{fill:url(#Dégradé_sans_nom_6);}.cls-4{fill:#9eb95f;}.cls-5{fill:#cbd4d7;}.cls-6{fill:#fdfbfb;}.cls-7{fill:#e7411c;}.cls-8{fill:#fff;}.cls-9{fill:#bcb583;}.cls-10{fill:#b7682c;}.cls-11{fill:url(#Dégradé_sans_nom_34);}.cls-12{fill:url(#Dégradé_sans_nom_34-2);}</style><radialGradient id="Dégradé_sans_nom_6" cx="286.4" cy="339.31" r="257.54" gradientUnits="userSpaceOnUse"><stop offset="0" stop-color="#e36f0e"/><stop offset="1" stop-color="#cd4917"/></radialGradient><radialGradient id="Dégradé_sans_nom_34" cx="-68.06" cy="425.79" r="5.18" gradientTransform="translate(425.86 -388.36) scale(1.9 1.87)" gradientUnits="userSpaceOnUse"><stop offset="0.08" stop-color="#668a3f"/><stop offset="1" stop-color="#185935"/></radialGradient><radialGradient id="Dégradé_sans_nom_34-2" cx="356.5" cy="443.42" r="59.63" gradientTransform="matrix(1, 0, 0, 1, 0, 0)" xlink:href="#Dégradé_sans_nom_34"/></defs><g id="Calque_1" data-name="Calque 1"><path class="cls-1" d="M-603.61,458.85l-.06-.1a.7.7,0,0,0-.16.13s0,.07.06.1Z" transform="translate(603.83 -47.2)"/></g><g id="Calque_2" data-name="Calque 2"><path class="cls-1" d="M1228.42,556.85h3.81c1.79,0,2-.44,2-2.1v-5.62Q1231.47,553.08,1228.42,556.85Z" transform="translate(603.83 -47.2)"/><path class="cls-2" d="M-26.29,636.4" transform="translate(603.83 -47.2)"/><path class="cls-3" d="M497.15,631.42H84.72c0-10.28.19-24.25.75-40.79.75-21.78,1.92-40,5.29-80.83,6.79-82.31,10.31-123.73,16.62-136.72,2.29-4.72,7.89-15.41,8.31-30.21.48-17.15-6.37-26.92-11.33-40.79-3-8.26-3-29.54-3-71.76,0-46.13,0-69.19,1.51-73.27,1.81-4.88,7.08-17.52,1.51-28-2.26-4.22-5-5.65-9.07-9.07C78.91,106.3,73,87.47,71.88,83.78A71,71,0,0,1,70,50.22c58.5,3.75,105.48,3.38,138.23,2.26,39.71-1.35,84.92-4.68,147.3.76,12.49,1.09,15.19,1.62,25.68,2.27A449,449,0,0,0,499.79,47.2c6,17.6,4.47,30,1.89,38.09-4.83,15.2-16.27,24.56-15.86,43.05a46.9,46.9,0,0,0,1.51,10.58c10.55,45.05-12.09,170.93-10.45,189,.28,3.09.63,6.6.63,6.6s.7,7.15,1.51,14.35c2,17.41,19.66,121.35,21.9,196.39A593.68,593.68,0,0,1,497.15,631.42Z" transform="translate(603.83 -47.2)"/><path class="cls-4" d="M103.09,428.08a669.82,669.82,0,0,1,81-13.43c149-15.42,300,20,304.55,1.75.24-1-.29-.77-2-13.34-1.51-10.86-1.28-12.15-2.66-21.39-1.19-8-1.79-11.93-2.56-15.8s-.69-6.95-1.57-12.39c-.43-2.68-.86-4.68-1.71-8.68-1.94-9.18-2.53-10-3.41-10.39-2.1-1-4.47.73-9.16-1l-.54-.2c-14.65-5.61-31,3.3-35.27,5.45-22.55,11.4-40.12,2.57-123.69,2.52-108.81-.06-114.67,14.89-169,20.14-4,.39-15.19,1.39-24.39,9.23a35.29,35.29,0,0,0-7.84,9.65c-9.78,16.82-5.86,37.5-4.36,44.05" transform="translate(603.83 -47.2)"/><path class="cls-5" d="M477.49,319.17c.16-2,.17-2.26,1.08-10.8.29-2.77.66-6.46,1.11-11.76,1.13-13.35,1.7-20,1.72-20.79a22.21,22.21,0,0,1,.25-3.09c.62-4.06,1.9-4.88,1.53-5.92-1.17-3.32-15.7,1.07-18.09-3.38-1-1.92.61-5.62,1.17-9.7.17-1.25.36-2.5.58-3.75.38-2.17-.11-3.39-2.1-4.31-5-2.29-7.47-2.49-7.47-2.49-13.55-1.54-12.94-1.86-14-1.56-3.1.92-9.64,4.09-13,5.48-.33.13-1.14.45-1.61.1s-.37-1.14-.24-1.74c.51-2.3,1.06-4.6,1.59-6.9.89-3.82.62-4.21-2.7-6.39-4.57-3-9.16-2.19-13.91-.58-3.89,1.31-7.28,3.54-10.88,5.39-.58.29-1.24,1-1.92.43s-.26-1.3-.09-2c.79-3,1.17-6.24,2.48-9,2-4.17,2.78-8.72,4.84-12.82a7.93,7.93,0,0,0,.48-1.37c1-3.47,1-3.4-2.55-4.26-10.07-2.43-20.25-2.49-30.48-1.46-1.59.16-3,.37-2.72,2.5.13,1.14-1.3,1.54-1.35,2.74-5.41-6.21-12.09-7.5-19.77-5.48a3.72,3.72,0,0,0-.48.27,2.31,2.31,0,0,0-.76,1,1.18,1.18,0,0,1-.5.49,1.62,1.62,0,0,1-.76.45c-2.06.51-3.34,2.08-4.57,3.5-4.35,5.06-6.79,10.69-4.35,17.44,0,.13,0,.28.09.41,1.19,2.94,1.19,2.88-2.17,3.09a20.76,20.76,0,0,0-7.58,1.65,10.41,10.41,0,0,1-6,.78,49,49,0,0,0-18.24,1.16,15.26,15.26,0,0,1-4.8.48c-3.38-.25-6.48,1.15-9.77,1.36-1.1.07-.78.88-.88,1.55s.21,1.75-.61,2c-.63.21-1.13-.64-1.64-1.1a18.08,18.08,0,0,0-16-4.42c-4.67.84-9.39,1-14.07,1.6-9.8,1.28-19.74,1-29.5,2.58a52.76,52.76,0,0,0-13,4.13c-5.2,2.27-9.51,5.71-13.65,9.44-1,.92-1.68,3.1-2.85,2.74-1.44-.44-1.71-2.69-2.18-4.11-.75-2.28-1.25-4.68-2.07-7a56.9,56.9,0,0,0-6.06-12.45c-1.68-2.54-2.8-5.49-4.87-7.74-6.26-6.82-13-13.06-21.06-17.91a105.59,105.59,0,0,0-31.72-12.45c-4.46-1-8.91-2-13.46-2.54-1.29-.16-1.87,0-1.72,1.43a53.66,53.66,0,0,0,2.61,11.5c.94,2.82,1.43,5.79,2.09,8.7,1.07,4.73,2.14,9.46,3.15,14.21.71,3.32,1.09,6.73,2,10,1.6,5.46,2.22,11.11,3.45,16.64a101.13,101.13,0,0,1,2.7,15.8c.26,4.27,1.65,8.23,2.69,12.31,1.65,6.46,4.16,12.69,5.12,19.32.15,1.05,1.11,1.75,1.19,2.86s.12,2.13-1.18,2.29c-2.28.28-4.26,1.39-6.41,2-.85.25-1.71.47-2.58.68-4.94,1.21-6.32,1.74-9.5,2.56-8.32,2.14-10.27,1.79-11.12,3.54-.7,1.45,0,2.92.91,5.2a75.15,75.15,0,0,1,3.77,18.72,43,43,0,0,1-.91,12.36c-1.63,8.8-4.19,10.89-8.19,22.88-3.24,9.72-3.77,15-3.38,15.08.6.18,3.68-11.91,8.78-12.41a7.62,7.62,0,0,0,4.52-1.43,4.07,4.07,0,0,0,1-1.47c.53-1.2,2.31-1.72,3.91-1.5.48.07,1,.13,1.45.22.73.13,1.9-.36,2.07.48.22,1.1-1,.48-1.56.74-.85.4-.69,1.14-.61,1.81a.9.9,0,0,0,1.31.67c1.92-.8,4.06.13,6-.91.82-.44,1.68.87,2.74.61-5.71,2.18-11.83,2.4-17.59,4.14-.64.19-1.23.3-1.54.91a.53.53,0,0,0,.12.53c.61.38,1.18,0,1.8-.1,2.13-.5,4.08-2,6.49-1.11.27.1.74-.33,1.13-.48.55-.19,1.18-.14.89.58-.72,1.78.62,2.28,1.78,2.83-.32,1-1.47.23-1.8,1.32,1.44-.78,2.84-.17,4.23-.48-1.15,1.12-3,.52-4.21,1.75,1.07,1,2.31-.61,3.33.6-1.7.59-3.4,1.17-3.55,3.35-.08,1.22.62,1.55,2,1.52-1.67,1.92-3.87,2.27-5.37,3.61,1.74,1.47,6.13.89,9.41-1.24.57.29-.29,1,.38,1.26,1.28-2.18,3.8-1.8,5.74-2.61,1.5-.62,3.29-.56,4.82-1.12,2.23-.82,4.6-1.06,6.83-1.82a1.74,1.74,0,0,1,1.83.21c-.25.71-1,1-1.45,1.4-.76.63-1.11,3.23-.44,3.86,1.05,1,4.58-.2,5.13-1.73,1.1-3.12,1.65-3.5,4.67-3.26.33.66-1.33,1.23-.54,1.24,1.6,0-.82,2.43,1.25,1.64.87-.33,1.88-.16,1.82-1.72a2.09,2.09,0,0,1,2.24-2.16c3.65.18,6.64-1.89,10-2.8.73-.2,1.4-.69,2.24-.46-.59,1.15-1.92,1.81-2.1,3.2l0,0c.07,0,.17.06.2,0,1.71-1.76,3.61-1.43,5.86-1.05s4.16-1.4,6.25-2.19c.25-.09.37-.4.05-.83-.95,0-2.08,1.41-3.15-.16a13.61,13.61,0,0,1,3.72-1.49c.53-.15,1.23-.34,1-1.09s-.82-.27-1.28-.18-1.22.47-1.82-.31c2.48-2,5.52-2.38,8.41-3.07,1.15-.28,2-.41,2-1.84s.54-1.25,1.28-.31c.26.34.7.92,1.2.54,1.43-1.1,3.22-2.06,4-3.52a3.38,3.38,0,0,1,2.58-1.67c.52-.15,1.49,0,1.42-.59-.25-1.88,1.35-1.71,2.22-1.83,1.43-.19,1.8-1.46,2.76-2.1,1.76-1.18,3.93-1.25,5.72-2.4l-1-.52a11,11,0,0,1,2.82-.8c1.61,0,3-.71,4.47-1.07,3.07-.74,6.12-1.92,9.37-.95,1,.3,1.22,0,1.12-1-.25-2.3.84-3.23,3.19-2.91,1.48.21,2.59-1,3.8-1.5,3.59-1.56,7.35-.87,11-1.48a.63.63,0,0,1,.79.73c-.22,2.19,1.51,2,2.79,2.1,1.55.15,3.25.26,3.49-2s2.15-1.21,3.31-1.56c.87-.27,3.16.94,1.21-1.52-.49-.62-.21-1.16.67-1.57,2.08-1,4.32,0,6.45-.72a1.93,1.93,0,0,1,2.06,1.88c0,.72.21,1.84.8,1.71,1.08-.24,1.95.43,2.92.25.4-.07.5-.52.43-.85a24.58,24.58,0,0,1,.67-9.48c1.82-4.68,17.25.86,22.83-5.41,2-2.23,1.79-5.6,1.31-12.27-1.2-17-7.93-29.73-5-31.41l.06,0a2,2,0,0,1-.13-1.19,469,469,0,0,0,2-52.34c0-1.09.06-1.86,1.44-2,5.88-.63,11.75-1.36,17.62-2,2.5-.26,2.3-.21,1.84,2.25-.7,3.69-1.07,7.44-1.58,11.16-.05.35-.11.72.39.79s.52-.37.69-.65c1.29-2,2.45-4.11,3.87-6,4.1-5.51,9.36-9.12,16.51-9.55,1.27-.08,1.59.2,1.29,1.49-1.52,6.5-3,13-4.43,19.55-.09.41.08,1.27-.42,1.61-1.06.75-2.91-2.07-6.08-2.88-4.7-1.21-10.3,2.54-13.14,6.35,0,0-.23.31-.43.62-3.73,5.61-2.74,22.91-1.93,32.28-1,.32-1.7.61-1.67.72l0,0a.91.91,0,0,0,.3.22,2,2,0,0,0,.9.06c2.37-.17,4.44.86,6.5,1.86.87.42,1.82.75,1.75,2-.05.72.49.88,1.18.69,2.13-.59,2.51-.07,2.65,1.93.07,1.1,1.16,2.14,1.8,3.21,2.34,3.92,4.16,7.86,2.68,12.69-.81,2.66-1.38,5.3-3.49,7.34a71,71,0,0,1-8.86,7.17c-1.84,1.27-3.34,3-5.22,4.15-3.95,2.37-6,6.79-10.53,8.64-2.8,1.15-4.7,4-7.45,5.65-.71.41-.82,1.68-.78,2.69,0,.79.3.86,1.05.76a23.86,23.86,0,0,1,8.08.16c1.54.31,3.26-.26,4.85-.43.27-.78-1.81-.51-.55-1.63.63-.55,1-1.47,1.94-.34.82,1,2.41,0,3.48,1.39-2.16.15-3.29,2.78-5.83,1.7-.44-.18-1.27-.26-1.28.59s.7.57,1.15.55c2.38-.11,4.76-.26,7.15-.39a1.38,1.38,0,0,1,1.15-.62,5,5,0,0,1,7.87-1.94,2.88,2.88,0,0,0,1,.25c3.66-.92,7.18-.8,10.42,1.37,1.48,1,2.83.31,4.11-.36a3.81,3.81,0,0,1,2.87-.53,2,2,0,0,0,2.29-.49c.62-.79,1.18-.51,1.82-.22l0,0,1,.64c2.15-1.35,3.54-3.52,5.6-5,2.7-1.93,3.93-3.12,5.51-3.58a21,21,0,0,1,6.42-.5h0s1.41.79,1.64.9c2.38,1.23,7-2.63,8.44-1.33a2.31,2.31,0,0,1,.45,1.78s-.45-1.78-.45-1.78h0c6.28,2.68,8.45,1.78,8.45,1.78,3.72-1.56,1.12-8.65,4.94-10.9,2.55-1.49,8.41-1.67,17.16,3.95a4.28,4.28,0,0,0,1.16.44c11.33,4.43,17.74,15.78,22.62,16.89,11.69,2.67,54.36-44.37,34.61-82.14-11.31-21.63-40.06-34.46-59.58-26.95-36.28,14-27.18,93-13.36,102.08.5.34.89.56.89.56,10,5.74,25.95.15,27.51,2.34a6.26,6.26,0,0,0,1.05,1.23c.45.4,1,.73,1.47,1.09l5.61,2.87a18,18,0,0,0,2.79-.53c2.77-.41,5.26,1.16,8,.85a5.82,5.82,0,0,0,2.06-.34,3.33,3.33,0,0,1,3.95.76c.59.53.92.17,1.38-.2,1.23-1,2.39-1.29,3.05.62.26.75.85.77,1.53.77a7.16,7.16,0,0,1,2.63.49c5.36,2.16,29.39,7.42,31.63,2.86.41-.82,0-1.68-.53-2.91-1-2.37-1.31-7.74-2-18.37C477.46,330.47,477.06,324.3,477.49,319.17ZM169.88,386.89a5.93,5.93,0,0,0-1.83.54,5.4,5.4,0,0,1-3.11,1.15c-3.91,0-7.37,2.05-11.22,2.24-.54,0-1.3.83-1.6-.08s.56-1,1.22-1,1.3-.19.74-1.14c-.25-.42.31-.73.54-.53.74.64,1.38,1.41,2.43.54.92,1.92,1.35-.24,2-.23l0,0c2-1.14,4.24-2.15,6.41-1.87,1.93.24,3.37-.68,5-1a18.22,18.22,0,0,1,5.21-.08C173.93,386.46,171.8,386.34,169.88,386.89Zm211.47-65.6a1.43,1.43,0,0,1-2.17-.36c-.75-1.44-1.35-.71-1.63.17a16.23,16.23,0,0,0-.49,3.28.85.85,0,0,0,.69.93,1,1,0,0,0,.76-.17c.38-.34.29-.74-.09-1.05-.57-.46-.56-1.13-.05-1.39.83-.42,1.78,0,2.66.14.53.06.52.52.5,1-.09,2.24-1.43,3.57-3.56,3.51s-3.17-1.45-3.09-3.88a8.48,8.48,0,0,1,1-3.79c1.07-1.75,4.1-2,5.26-.35C381.56,319.88,382.16,320.76,381.35,321.29Zm2.72,5.77c-.15.87-.57,1.12-1.46.94s-.9-.65-.76-1.36c.42-2.1.84-4.21,1.17-6.33.14-1,.63-1.08,1.45-1s.85.74.73,1.38C384.82,322.83,384.42,324.94,384.07,327.06Zm6.76,2.41a1.29,1.29,0,0,1-1.45-1c-.23-.87-.42-1.76-.66-2.63-.09-.34-.27-.66-.7-.66s-.54.4-.61.72a16.38,16.38,0,0,0-.3,1.86c-.07.72-.44.95-1.14.85s-1.07-.33-.92-1.07l1.38-7c.12-.61.52-.74,1.09-.67.72.09,1.39.16,1.7,1a7.09,7.09,0,0,0,1.17,2.8c.2-.86.37-1.46.47-2.06s.43-1.12,1.28-.94.94.6.77,1.36c-.49,2.1-.91,4.21-1.34,6.33C391.48,328.88,391.5,329.44,390.83,329.47Zm7.6,1.63c-.65,0-1.4,0-1.63-.92-.44-1.91-1.4-1.88-2.49-.49-.55.71-1.12.46-1.67.22-.79-.34-.39-.91-.14-1.39,1-2,2.07-3.94,3-5.94.45-.92,1.18-.84,1.94-.76.93.09,1.31.61,1.3,1.54,0,1.18.11,2.36.19,3.86,0,.65,0,1.62,0,2.59C398.94,330.29,399.34,331.06,398.43,331.1Zm6.74.48c-.11.88-.65.95-1.38.88l-3.48-.8c-.71-.16-.82-.53-.63-1.22.59-2.13,1.15-4.28,1.63-6.44.33-1.45,1.27-.91,2.11-.73,1.17.24.77,1.13.43,1.59a9.68,9.68,0,0,0-1,2.69c-.59,1.6-.85,3,1.61,3C405.05,330.6,405.25,331,405.17,331.58ZM408,289.09a57.55,57.55,0,0,1,2.81-11.56c2.28-5.81,4.32-11.82,8.23-16.8,9.83-12.49,23-16.86,39-13.05.48.11.95.3,1.43.36,1.49.16,1.75.9,1.47,2.29-3.09,15.68-6,31.4-9.27,47a61,61,0,0,1-2.77,8.9c-2.45,6.58-2.79,13.45-3.35,20.32-.35,4.23.61,4.28-4.28,2.83-4.05-1.2-8.06-2.53-12.12-3.7-1.1-.32-1.24-.7-1-1.75a12.58,12.58,0,0,0,.59-4.72c-2.16,1.29-3.66,3-5.91,3.66a9.91,9.91,0,0,1-7.2-.53c-4.82-2.3-7-6.45-8.07-11.3C406,303.73,406.79,296.4,408,289.09Zm4.43,43.4c.71-.43,1.2-.91,2-.21.3.28.45.57.24.9a2.56,2.56,0,0,1-2,1.38h-.43a2.89,2.89,0,0,1-3.32-2.95c-.18-3,1.73-5.83,4.05-6,1.56-.08,2.8.47,3.1,2.16.09.48.25,1.2-.58,1.32-.59.09-1.26.31-1.53-.6-.5-1.7-1.12-1-1.57,0s-1.26,1.82-1.26,3C411.14,332.58,411.76,332.91,412.46,332.49Zm7.51,4.3c-.54-.15-1.17-.13-1-1a5.28,5.28,0,0,1,.68-1.71c.44-.52.81-.79,0-1.19-.62-.29-1.26-.49-1.63.27a7.29,7.29,0,0,0-.55,1.79c-.16.9-.7.89-1.4.69s-1-.5-.76-1.21c.76-2.24,1.47-4.5,2.3-6.72.47-1.28,1.5-.45,2.14-.23.88.29.18.71-.06,1.19s-1.3,1.46-.08,2.1,1.7-.2,1.93-1.27c.18-.81.42-1.43,1.55-1.1s.71,1,.51,1.64c-.64,2-1.36,3.95-2,5.95C421.28,336.91,420.79,337,420,336.79Zm3.61,1.09c-.74-.17-1.5-.29-1.06-1.45.79-2.07,1.49-4.17,2.21-6.26.25-.72.61-1,1.41-.68s.85.56.61,1.24c-.78,2.15-1.52,4.31-2.25,6.47C424.35,337.65,424.15,337.94,423.58,337.88Zm6.26-1.4c-1.28-.66-1.59.35-1.83,1.34s-.87,1.28-1.88.93-.64-1-.44-1.66a38.08,38.08,0,0,1,2.7-6c.45-.93,3.33-.28,4.17.91s0,2.36-.32,3.49S430.94,336.61,429.84,336.48Zm9.31-1.1a1,1,0,0,1-1.63-.06c-.36-.46-.79-1-1.34-.36s.05,1,.42,1.43c.94,1,2,2,1.32,3.63a2.64,2.64,0,0,1-2.69,1.75,3.7,3.7,0,0,1-2.85-1.37c-.28-.38-.88-.92-.22-1.43s1.18-.64,1.6.15,1,1.12,1.65.53-.11-1.1-.43-1.58a8.73,8.73,0,0,0-.67-.81,2.45,2.45,0,0,1,.2-3.83c1-.92,3.29-.6,4.22.52C439.05,334.34,439.67,334.82,439.15,335.38Zm1.94,9.41c-1.92-.73-1.21-2.24-.73-3.25a34.78,34.78,0,0,0,1.93-5.7c.36-1.26,1-1.56,2.16-1.13,3.68,1.36,7.37,2.7,11.05,4.07.6.22,1.2.51,1,1.72-.8,2.53-1.2,5.58-2.37,8.42a.75.75,0,0,1-1.14.48C449,347.86,445.05,346.31,441.09,344.79Z" transform="translate(603.83 -47.2)"/><rect class="cls-6" x="443.76" y="338.08" width="9.05" height="7.66" transform="translate(654.88 694.8) rotate(-82.54)"/><path d="M147,339.25c.28-7.77.5-13.45.05-19.1a96.77,96.77,0,0,0-4-20.91,177.79,177.79,0,0,1-7.23-36c-.57-6.17-2.63-12.1-3.86-18.17-1.86-9.24-3.21-18.58-5.56-27.7q-2.57-9.94-4.85-19.95c-.32-1.41-.18-1.73,1.34-1.45a98.84,98.84,0,0,1,14.8,3.79c9.66,3.42,18.77,7.8,26.77,14.43,3.54,2.94,6.65,6.27,9.93,9.43,2.47,2.39,3.93,5.63,5.81,8.51,3.23,5,5.09,10.49,6.78,16.08,2.71,9,4.4,18.19,2.71,27.58-1.2,6.71-3.23,13.31-7.68,18.61-2.93,3.48-6,6.93-10.26,9.22-2.45,1.32-4.62,3.14-7.42,3.82-1.11.27-.71,1.15-.66,1.91.43,5.94,2.29,11.64,2.83,17.56a80.59,80.59,0,0,0,2.92,15c.4,1.34.1,1.93-1.1,2.65-5,3-10.37,5.19-15.49,7.89-1.52.8-3.18,1.31-4.74,2-1.32.59-1.87.54-1.75-1.21C146.64,347.9,146.83,342.52,147,339.25ZM167.61,259C168,249,162.65,240,154,237.5c-1.8-.52-1.61-.18-1.27,1.18.58,2.33,1.08,4.68,1.53,7,1.28,6.73,1.7,13.58,3,20.32.71,3.6.9,7.3,1.26,11,.14,1.35.5,1.69,1.62.69a22.67,22.67,0,0,0,5.55-8.15A27,27,0,0,0,167.61,259Z" transform="translate(603.83 -47.2)"/><path d="M385.64,255.35a30.48,30.48,0,0,1,5.67-6.63A67.82,67.82,0,0,1,414,233.45a11,11,0,0,1,4.54-.95c2.21.1,2.6.51,1.88,2.6-2.07,6-2.84,12.24-4.44,18.32-.61,2.32-1.08,4.68-1.53,7.05-.2,1-.58,1.21-1.59.89-2.82-.91-5.63-1.86-8.72-1.33a5.87,5.87,0,0,0-4.72,3.75,13.32,13.32,0,0,0-.74,6.06c.46,9,1.8,17.88,3.1,26.78,1.06,7.21,3.31,14.13,4.73,21.25.47,2.39.56,2.33-1.71,1.86-5.27-1.09-10.53-2.21-15.83-3.15a2,2,0,0,1-2-1.95c-1.36-7.1-2.08-14.29-3.16-21.43-.48-3.11-.91-6.23-1.46-10a16.75,16.75,0,0,0-2.91,6.31c-1.51,5.61-1.51,11.42-2,17.16-.13,1.62-.24,3.25-.38,4.87-.23,2.63-.23,2.55-2.95,2.14-4.55-.68-9.11-1.32-13.69-1.82-1.4-.15-1.74-.49-1.58-1.92,1.43-12.38,2.7-24.8,5-37,2.62-13.89,4.32-27.94,7.41-41.73,1.62-7.22,2.86-14.53,4.62-21.72.23-.94.51-1.5,1.6-1.57a85.85,85.85,0,0,1,19.29.56c1.36.23.94.94.67,1.65a94.48,94.48,0,0,0-3.51,9.44c-1.87,7-3.42,14-5.2,21-1.07,4.23-2.15,8.45-3.06,12.72A3.35,3.35,0,0,0,385.64,255.35Z" transform="translate(603.83 -47.2)"/><path d="M262,246c.78-1.05,1.51-2.16,2.37-3.15,5.95-6.86,14.81-5.84,19.36,2,1.64,2.83,2.17,5.9,3,8.92a74.72,74.72,0,0,1,2.33,15.6c.46,8.07-.21,16-3,23.65a36.24,36.24,0,0,1-8,13.32c-4.44,4.45-9.85,7.36-16.37,7.41-1.59,0-2,.59-2.24,2a92.21,92.21,0,0,0-.26,22.88c.18,1.69-.23,2.17-1.9,2.32A104.63,104.63,0,0,0,241,344c-1.17.29-1.66.25-1.41-1.23,3.76-21.89,3.65-44,3.59-66.09,0-11.05-.41-22.09-.71-33.14,0-1.53.32-2.08,1.91-2.19,5.16-.35,10.31-.81,15.45-1.35,1.67-.18,2.16.34,1.94,1.93-.17,1.31-.16,2.64-.23,4Zm8.57,24.09c0-.57,0-1.13,0-1.7a33.5,33.5,0,0,0-1.26-9.86,3.51,3.51,0,0,0-2.76-2.62c-1.41-.16-1.91,1.22-2.36,2.35a9.62,9.62,0,0,0-.65,2c-1.68,11.37-3.72,22.72-2.24,34.3.13,1-.16,2.21,1.29,2.5s1.93-.74,2.44-1.65a44,44,0,0,0,4.49-12.65A61.12,61.12,0,0,0,270.58,270.08Z" transform="translate(603.83 -47.2)"/><path d="M217.9,317.51a30.07,30.07,0,0,1-7.66,8.55c-4.24,3.08-8.28,2.87-12.35-.4a15.73,15.73,0,0,1-5.18-8.75c-4.36-16.74-3.8-33.33,3.11-49.28a40.72,40.72,0,0,1,15.85-18.76A46,46,0,0,1,234.15,242c1.58-.07,1.86.46,1.87,1.89.06,17.07,0,34.14.38,51.21.16,7.41.5,14.83.66,22.25,0,1.3-.32,1.82-1.62,2.13-5.23,1.25-10.46,2.5-15.62,4a2.07,2.07,0,0,1-1.66,0C216.81,322.69,217.48,319.23,217.9,317.51Zm.27-39.3c0-1,0-2,0-3a42.83,42.83,0,0,0-.45-8.47,2.18,2.18,0,0,0-1.21-1.88c-.9-.33-1.49.39-1.94,1a16.92,16.92,0,0,0-2.79,4.82,71.15,71.15,0,0,0-3.06,26.21,20.59,20.59,0,0,0,1.44,7.26c.49,1.09,1.15,2.12,2.52,1.79a3.17,3.17,0,0,0,2.52-2.49C217.19,295.16,217.6,286.68,218.17,278.21Z" transform="translate(603.83 -47.2)"/><path d="M429,319.44c-2.17,1.31-3.67,3.09-5.93,3.72a9.84,9.84,0,0,1-7.23-.53c-4.84-2.35-7-6.57-8.1-11.51-1.69-7.48-.85-14.94.39-22.38A60.35,60.35,0,0,1,410.92,277c2.29-5.91,4.33-12,8.26-17.1,9.86-12.7,23.08-17.15,39.18-13.27a14.43,14.43,0,0,0,1.44.36c1.49.17,1.75.92,1.47,2.33-3.1,16-6,31.95-9.31,47.88a62.46,62.46,0,0,1-2.77,9.05c-2.47,6.7-2.81,13.69-3.37,20.68-.34,4.3.61,4.36-4.3,2.88-4.06-1.23-8.08-2.58-12.16-3.77-1.1-.32-1.24-.71-1-1.78A12.8,12.8,0,0,0,429,319.44Zm-3-20.87c.05.63.1,1.55.2,2.46a8,8,0,0,0,.27,1.46c.63,2,2.24,2.38,3.66.78a10.53,10.53,0,0,0,1.3-1.93,85,85,0,0,0,5.09-12.49c2-5.65,3.32-11.54,4.81-17.36a33,33,0,0,0,1.24-9,2,2,0,0,0-1.16-2.09,2,2,0,0,0-2.09.72,20.29,20.29,0,0,0-1.7,1.89A32.09,32.09,0,0,0,432,273.11C429.3,281.33,426.23,289.47,425.94,298.57Z" transform="translate(603.83 -47.2)"/><path d="M356.52,236c2.2,0,4.4,0,6.59,0,.5,0,1.28-.28.88,1-3.19,10.08-4.92,20.5-7.26,30.78A274.79,274.79,0,0,0,351,309.29c-.09,1.3-.56,1.5-1.68,1.43-6.79-.4-13.59-.76-20.38-1.12-.89,0-1.56,0-1.08-1.28,1.72-4.59,2.47-9.44,3.64-14.18,4.49-18.12,6.8-36.56,8.33-55.12.09-1.2.56-1.49,1.65-1.64C346.48,236.7,351.49,236.26,356.52,236Z" transform="translate(603.83 -47.2)"/><path d="M312.48,287c0,2.48,0,5,0,7.43,0,.42.22.92-.16,1.2s-1,0-1.34-.32a4.8,4.8,0,0,0-4.21-.89,1.65,1.65,0,0,1-1.22-.11c-1.88-1.73-3.22-.07-4.59.76-.84.5-1.6,1-2.5.44a3.1,3.1,0,0,0-3.56.18c-1.1.64-1.79.61-1.63-1.08a483.26,483.26,0,0,0,2-53.26c0-1.11.06-1.89,1.45-2,5.9-.63,11.79-1.38,17.69-2,2.5-.26,2.3-.21,1.83,2.3-.7,3.75-1.07,7.57-1.58,11.35,0,.36-.11.74.4.8s.51-.37.69-.65c1.29-2.05,2.46-4.19,3.89-6.13,4.1-5.6,9.38-9.28,16.57-9.72,1.27-.08,1.59.21,1.29,1.52-1.53,6.62-3,13.26-4.45,19.89-.12.55-.26,1.1-.42,1.64-.54,1.89-1.34,2.54-3.57,1.83-6.79-2.15-11.28.46-14.26,7a24.75,24.75,0,0,0-1.57,5.95A59.32,59.32,0,0,0,312.48,287Z" transform="translate(603.83 -47.2)"/><path d="M342.35,223.85c0-8.63,7.33-15.85,14.48-15.66,8.67.24,12.9,5.11,11.09,13.54a18.22,18.22,0,0,1-5.75,9.85c-4.82,4.39-16,3.54-18.59-2.21A13.33,13.33,0,0,1,342.35,223.85Z" transform="translate(603.83 -47.2)"/><path class="cls-7" d="M456.71,341.05c-.8,2.58-1.2,5.68-2.38,8.57a.75.75,0,0,1-1.14.49c-4-1.57-7.93-3.15-11.9-4.69-1.93-.75-1.22-2.28-.74-3.31a34.65,34.65,0,0,0,1.94-5.8c.36-1.28,1-1.59,2.17-1.15,3.69,1.39,7.39,2.75,11.09,4.14C456.35,339.53,457,339.82,456.71,341.05Zm-6.48,3.27c.95.26,1.68.38,2-.71s-.25-1.38-1.14-1.57-1-.84-.91-1.63-.25-1-.88-1.22-1-.05-1.21.52c-.26.75-.64,1-1.42.62s-1.06-.06-1.26.65-.19,1.16.48,1.4c1,.35,1.35.91,1,1.94-.28.73.29,1,.84,1.19s1,.23,1.2-.4S449.63,344.12,450.23,344.32Z" transform="translate(603.83 -47.2)"/><path d="M390.4,324c.2-.88.37-1.48.47-2.1s.43-1.14,1.28-1,1,.62.77,1.39c-.49,2.13-.91,4.29-1.34,6.44-.09.49-.07,1.06-.74,1.09a1.3,1.3,0,0,1-1.46-1c-.23-.89-.42-1.8-.66-2.68-.09-.35-.28-.68-.7-.68s-.54.41-.61.74a14.89,14.89,0,0,0-.31,1.89c-.07.73-.44,1-1.14.87s-1.07-.34-.93-1.1q.71-3.54,1.39-7.08c.12-.62.52-.76,1.09-.69.72.09,1.4.16,1.71,1A7.15,7.15,0,0,0,390.4,324Z" transform="translate(603.83 -47.2)"/><path d="M419.05,336.27a5.21,5.21,0,0,1,.67-1.74c.45-.52.82-.81,0-1.21-.62-.29-1.26-.5-1.63.27a6.79,6.79,0,0,0-.55,1.83c-.17.91-.71.9-1.41.69s-1-.5-.77-1.22c.77-2.28,1.48-4.58,2.31-6.84.48-1.3,1.51-.46,2.16-.24.88.3.17.73-.06,1.22s-1.31,1.48-.09,2.13,1.71-.21,1.94-1.29c.18-.82.43-1.46,1.56-1.12s.71,1,.51,1.67c-.65,2-1.37,4-2,6.06-.28.92-.77,1-1.59.8C419.54,337.12,418.91,337.14,419.05,336.27Z" transform="translate(603.83 -47.2)"/><path d="M367.13,322.5a2,2,0,0,0-.77,2c0,1-.48,1.29-1.47,1.19s-1.39-.6-1.09-1.53a28.85,28.85,0,0,0,1.24-6.58c0-.36.11-.85.49-.84,1.6.08,3.35-.1,4.6,1.12a2.52,2.52,0,0,1,.13,3.34c-1,1.21-.77,2.29-.49,3.54.11.52.73,1.36-.41,1.44-.79.06-1.76.1-1.79-1.21A16.4,16.4,0,0,0,367.13,322.5Z" transform="translate(603.83 -47.2)"/><path d="M374.83,323.7a8.74,8.74,0,0,1,1-3.86c1.07-1.79,4.11-2,5.28-.36.43.6,1,1.49.23,2a1.44,1.44,0,0,1-2.19-.37c-.75-1.47-1.35-.73-1.63.17a16.93,16.93,0,0,0-.49,3.34.84.84,0,0,0,.69.94,1,1,0,0,0,.76-.17c.38-.34.3-.75-.09-1.07-.57-.46-.56-1.15-.05-1.41.83-.43,1.78,0,2.67.14.53.07.52.53.5,1-.09,2.28-1.43,3.63-3.57,3.58S374.75,326.17,374.83,323.7Z" transform="translate(603.83 -47.2)"/><path d="M399,327.54c0,.66,0,1.65,0,2.64,0,.48.38,1.27-.53,1.3-.66,0-1.41,0-1.64-.93-.44-1.94-1.41-1.91-2.5-.5-.55.72-1.12.47-1.68.23-.79-.35-.38-.93-.14-1.42,1-2,2.08-4,3.06-6,.44-.93,1.17-.86,1.94-.78.93.1,1.31.63,1.31,1.58C398.81,324.81,398.93,326,399,327.54Z" transform="translate(603.83 -47.2)"/><path d="M363.37,319.6a8.6,8.6,0,0,1-.86,4.16,2.62,2.62,0,0,1-2.63,1.4,2.68,2.68,0,0,1-2.62-1.77,7.46,7.46,0,0,1,.55-6.11,2.68,2.68,0,0,1,2.9-1.3,2.6,2.6,0,0,1,2.36,1.83A9.25,9.25,0,0,1,363.37,319.6Zm-2.11.32c-.29-.67.33-1.89-.92-2-1-.07-1,1.05-1.08,1.75-.1,1.16-.86,3.09.59,3.26S360.76,321,361.26,319.92Z" transform="translate(603.83 -47.2)"/><path d="M412.34,335a2.91,2.91,0,0,1-3.33-3c-.19-3,1.74-5.93,4.06-6.05,1.56-.09,2.81.47,3.12,2.19.08.49.24,1.22-.59,1.35-.6.09-1.27.31-1.54-.62-.5-1.73-1.12-1-1.57,0s-1.27,1.84-1.27,3.06c0,1.05.62,1.38,1.33.95s1.2-.93,2-.21c.3.28.44.58.24.92a2.58,2.58,0,0,1-2,1.4Z" transform="translate(603.83 -47.2)"/><path d="M435.4,342.34a3.71,3.71,0,0,1-2.86-1.39c-.28-.39-.88-.93-.22-1.46s1.19-.64,1.61.16,1,1.14,1.66.54-.11-1.12-.44-1.61a7.71,7.71,0,0,0-.67-.82,2.52,2.52,0,0,1,.2-3.9c1-.94,3.3-.61,4.24.53.32.39.94.89.41,1.45a1,1,0,0,1-1.63,0c-.36-.48-.79-1-1.34-.37s0,1,.42,1.45c.94,1.05,2,2,1.32,3.7A2.65,2.65,0,0,1,435.4,342.34Z" transform="translate(603.83 -47.2)"/><path d="M430,337c-1.3-.67-1.6.36-1.85,1.36s-.87,1.31-1.88.95-.64-1-.44-1.69a38.77,38.77,0,0,1,2.71-6.11c.45-1,3.34-.29,4.18.92s0,2.41-.32,3.55S431.1,337.09,430,337Zm1.31-3.15c-.08-.47-.3-.86-.79-.8-.77.09-.88.8-1,1.39a.6.6,0,0,0,.73.74C431,335,431.21,334.44,431.31,333.81Z" transform="translate(603.83 -47.2)"/><path d="M403.85,332.87l-3.49-.81c-.72-.16-.83-.54-.64-1.24q.9-3.26,1.64-6.55c.33-1.49,1.27-.93,2.12-.75,1.17.24.77,1.15.43,1.62a9.61,9.61,0,0,0-1,2.73c-.6,1.63-.86,3.05,1.61,3.09.61,0,.81.41.73,1C405.12,332.87,404.57,333,403.85,332.87Z" transform="translate(603.83 -47.2)"/><path d="M374.47,319.19c-.28,2.11-.61,4.2-.83,6.3-.1,1-.53,1.27-1.51,1.18s-1.23-.56-1.17-1.52c.15-2.32,1-4.5,1.41-6.76.15-.74.59-.78,1.25-.7C374.69,317.82,374.64,318.45,374.47,319.19Z" transform="translate(603.83 -47.2)"/><path d="M423.71,338.38c-.74-.17-1.51-.29-1.06-1.47.78-2.11,1.49-4.24,2.22-6.37.24-.73.61-1,1.41-.69s.86.57.61,1.26c-.78,2.19-1.52,4.38-2.25,6.58C424.48,338.15,424.28,338.44,423.71,338.38Z" transform="translate(603.83 -47.2)"/><path d="M385.18,320.92c-.38,2.15-.77,4.3-1.13,6.45-.15.89-.58,1.15-1.47,1s-.9-.66-.75-1.38c.42-2.14.84-4.28,1.16-6.44.15-1,.64-1.1,1.46-1S385.3,320.27,385.18,320.92Z" transform="translate(603.83 -47.2)"/><path class="cls-8" d="M305.1,178.53c-11.63,0-23.26,0-34.89,0-1.52,0-2.36-.27-2.31-2.08.11-3.66-.93-7.26-.77-10.95a3.52,3.52,0,0,1,1.08-2.77c4.34-4.14,8.51-8.45,12.87-12.58,5.63-5.34,11.27-10.69,17.13-15.78,2.44-2.12,5-4.19,7.43-6.29.35-.3,1-.48.75-1.1-.19-.47-.74-.32-1.14-.32-5.24,0-10.5-.14-15.73.21-4.39.29-8.91,2.53-8.88,7.85,0,1-.63,1.31-1.52,1.32-3,0-6,0-8.94.06-1.16,0-1.47-.59-1.54-1.55-.12-1.77-.29-3.53-.36-5.3a38.73,38.73,0,0,0-1.21-7.27c-.45-2,.59-2.08,2-2.12,11.26-.3,22.53-.66,33.79-.94,10.42-.26,20.84-.4,31.26-.71,2.05-.06,2.49.65,3.05,2.6,1.52,5.31-.78,8.56-4.72,11.6-5.76,4.45-10.8,9.71-16.13,14.65s-10.5,9.85-15.73,14.8c-1.48,1.39-3.15,2.6-4.51,4.14-.28.32-.67.64-.45,1.08s.75.26,1.16.25c6.94-.06,13.89-.18,20.84-.19s10.57-3.27,11.07-10.11c.1-1.28.45-1.7,1.73-1.67,3.19.06,6.38,0,9.57,0,1.31,0,1.7.51,1.73,1.76q.24,9.76.59,19.54c0,1.13-.25,1.66-1.52,1.65-8.72,0-17.44.07-26.16.1H305.1Z" transform="translate(603.83 -47.2)"/><path class="cls-8" d="M380.3,187.11c-1.93-.68-2.89-2.82-5.23-3-1.63-.15-2-3.28-.82-4.59,1.88-2,3.42-4.35,6.14-5.62,1.76-.82,1.16-2,0-3.54-2.12-2.76-4.06-.77-6-.18a10.43,10.43,0,0,1-7.56-.57c-.84-.37-.93-2.55,0-3.15a4.19,4.19,0,0,0,1.71-3c.37-1.57,2-2.29,3.08-3.4a10.39,10.39,0,0,1,2.57-2.15c1.19-.63,2.44-4.31,2-5.19a4.63,4.63,0,0,0-5.23-2.58c-1.4.21-2.34.26-2.87-1.72-.47-1.76-1.76-3.37-2.43-5.2a3.59,3.59,0,0,1-.06-3.05c.88-1.55.61-3.17.56-4.76a3.07,3.07,0,0,0-2.33-2.74,4.2,4.2,0,0,1-2.73-2.18c-.42-1-1.32-.68-2.05-.67a4.12,4.12,0,0,1-3.32-1c-1.36-1.36-2.44-3-4.53-3.63-1.78-.58-3.29-2-5.31-3.33,0,1.93-.13,3.6,0,5.24a3.76,3.76,0,0,1-1.6,3.65c-5.62,4.42-10.63,9.51-15.79,14.43a47.59,47.59,0,0,0-4.66,4.55c.74.68,1.55.4,2.28.4a95.22,95.22,0,0,0,10.42-.12c3.31-.34,5.68,1,7.91,3.08,1.25,1.15,2.43,2.38,3.71,3.49a2.93,2.93,0,0,1,1.1,2.4c.15,8.64.3,17.29.52,25.93,0,1.64-.45,2.23-2.16,2.23q-38.29,0-76.59,0a3.78,3.78,0,0,1-2.84-1.11c-2.26-2.11-4.62-4.14-7-6.14a3.86,3.86,0,0,1-1.46-3.12,115,115,0,0,0-.46-12.74c-.44-3.48,1-5.76,3.47-7.56a73.44,73.44,0,0,0,6.07-5.61,24.19,24.19,0,0,1,3.65-3.2c1.19-.74,1-1.62-.07-2.3-3.83-2.43-6.67-6.11-10.64-8.36-.59-.33-1.2-.77-1.12-1.64.3-3.26-1.18-6.33-1-9.58-.39,4.45-.49,4.3-4.69,5.68a13.34,13.34,0,0,0-7.61,6c-.39.68.08,1,.37,1.49,1.87,2.94,1.05,6.12.69,9.23-.07.55-.41,1.15-.55,1.77a1.88,1.88,0,0,1-2.9,1.22,6.28,6.28,0,0,0-2.26-1.11c-1.67-.21-4.76,1.3-5.57,2.77a1.31,1.31,0,0,0,0,1.4,17.12,17.12,0,0,0,6.06,6.16c2.5,1.49,3.82,4.07,5.36,6.38.81,1.21-1,3.46-2.84,3.67a14.81,14.81,0,0,1-8.37-1.47c-1.47-.72-2.93-1.83-4.61-.17s-1.84,2.2.27,3.91a19.11,19.11,0,0,0,3.39,2.48,10.71,10.71,0,0,1,5.19,6.2c.29.85,2.11,1.45.6,2.82a8.68,8.68,0,0,1-2.45,2c-3,1.37-3.44,4.44-.74,6.5,1.7,1.3,2.82,3.59,5.52,3.54a2.48,2.48,0,0,1,1.75,1.66c.22,2.82,3.1,3.22,4.31,5.09.39.59,1.79.77.37,1.81-.54.39.26.72.57.77,5.19.81,9.94,3.47,15.41,3.34,3-.07,6.15.23,8.82,2.08a3.7,3.7,0,0,0,2.27.31q14.58.09,29.15.14a9.19,9.19,0,0,1,3.81,1c3.14,1.38,6.48,1,9.74.29a7.57,7.57,0,0,1,1.4-.39c5.62-.09,11.17-1.28,16.83-.95,3.45.2,6.67-1.31,10-2a9.16,9.16,0,0,1,2.63-.52c2.48.29,4.74-1.1,7.19-1l0,0,.12-.05h0c.24-.11.49-.2.74-.29a3.75,3.75,0,0,1,1-.31l.08,0h0l.13,0,.14,0a4.36,4.36,0,0,1,.73-.32,1.86,1.86,0,0,1,.2-.1.33.33,0,0,1,.24,0v-.1a38.88,38.88,0,0,1,3.76-1.17,7.51,7.51,0,0,0,4.95-3.53c.81-1.26,1.67-2.59,3.56-2.54,1.08,0,1.47-.69.57-1.46-1.47-1.26-.47-1.78.51-2.55.82-.66,2.91-.54,1.85-2.6-.05-.1.29-.58.48-.6,2.22-.27,1.85-2.49,2.82-3.68A.84.84,0,0,0,380.3,187.11ZM270.55,206.38c-1.41.06-2.83,0-4.25,0v.05c-1.34,0-2.69,0-4,0-1.82-.06-2.13-.62-1.29-2.25,1.62-3.14,4.16-5.69,5.68-8.89.32-.68,1.23-1.3.84-2s-1.3-.17-2-.15c-1.46,0-3.23-.51-3.71,1.75-.07.33-.65.53-1,0-.74-1,.05-3.34,1.31-3.4,2.75-.14,5.52-.17,8.28-.07,1.58.06,1.31,1.14.77,2.13-1.74,3.16-3.45,6.34-5.25,9.46-.75,1.29-.78,1.9,1,1.76s3.47.5,4-2c.19-.81,1.16-.83,1.64,0A2.66,2.66,0,0,1,270.55,206.38Zm21.2-13.89c-1.79,3.92-1.73,8.26-2.81,12.35-.27,1-.59,1.62-1.79,1.65s-1.71-.55-2-1.67c-.6-2.44-1.32-4.85-2-7.28l-.51.11c-.53,2.4-1.1,4.8-1.6,7.21-.21,1-.66,1.63-1.82,1.63s-1.57-.55-1.92-1.56c-1.43-4.05-1.93-8.4-3.83-12.3-.3-.62.07-1,.64-1a20.9,20.9,0,0,1,3,0c.6,0,.75.42.58,1.06-.85,3.1,1.27,5.66,1.6,8.56a.5.5,0,0,0,.64.41.87.87,0,0,0,.49-.59c.1-2.88,2.22-5.56.82-8.59-.25-.53.2-.77.66-.79.91-.05,1.84-.07,2.75,0,.59,0,.89.33.72,1-.85,3.41,1.57,6,2.22,9.16.74-3,2.26-5.87,1.41-9.07-.12-.45-.3-.86.2-1.06a3.2,3.2,0,0,1,2.28,0A.6.6,0,0,1,291.75,192.49Zm13.15,11.24c-.3.92.2,2.46-1.34,2.51-3.21.12-6.42,0-9.64,0-.38,0-.75-.14-.8-.53a.82.82,0,0,1,.33-.68c1.11-.45,1.07-1.37,1-2.31-.08-2.62-.16-5.23-.23-7.85,0-.8-.06-1.56-.95-2-.4-.18-.72-.51-.49-1s.66-.46,1.09-.46h4.25v0c1.28,0,2.56.07,3.83,0a1.68,1.68,0,0,1,2.07,1.78c0,.65.57,1.51-.38,1.86s-1.16-.48-1.47-1.13c-.7-1.45-2.08-.87-3.2-1-.51,0-1.21.11-1.23.87,0,1.26-.52,2.75.39,3.67a1.48,1.48,0,0,0,2.52-.67c.13-.42.26-.87.8-.79s.6.54.62,1c0,.78.09,1.56.05,2.33,0,.59.32,1.44-.53,1.64s-.72-.66-.94-1.14c-.43-1-1.32-.67-2-.65-.93,0-.77.85-.8,1.46a4.15,4.15,0,0,0,0,1.27c.25.91-.66,2.45.94,2.62,1.44.15,3.3,1.13,4.19-1.16a1.27,1.27,0,0,1,1.48-.92C305.15,202.66,305.06,203.26,304.9,203.73Zm7.3,1.92c-.12.41-.51.46-.85.47-1.49,0-3,0-4.46,0-.49,0-1-.48-.67-.73,2.52-1.78.6-4.35,1.17-5.78,0-2.14,0-3.63,0-5.11,0-.63,0-1.32-.69-1.65-.45-.2-1-.3-.75-1,.19-.47.7-.43,1.11-.44,1.35,0,2.69,0,4,0,.42,0,.91,0,1.07.48s-.22.8-.67.85c-1.25.14-1.16,1-1.14,1.9.08,2.9.18,5.8.27,8.7,0,.75.09,1.42,1,1.58C312,205,312.34,205.2,312.2,205.65ZM323.7,195c-1,.39-.93-.74-1.24-1.3-.94-1.65-2.44-.69-3.66-.67s-1.05,1.19-.91,2c.21,1.11-.86,3,1.53,3,.64,0,1.31,0,1.49-.86.11-.49.25-1.08.92-.88s.57.76.58,1.26c0,.7,0,1.41,0,2.12s.25,1.45-.54,1.66-.7-.65-.89-1.14c-.41-1-1.32-.59-2-.62-.88,0-1.09.59-1,1.28.27,1.57-.88,3.59,1.62,4.49.65.23-.08.78-.58.81a17,17,0,0,1-2.76,0c-1-.11-3.54.73-1.36-1.84.22-.26.12-.83.11-1.25q-.08-4.35-.2-8.71a1.68,1.68,0,0,0-.4-1.38c-.35-.29-1.08-.33-.88-1s.91-.54,1.46-.55c1.2,0,2.41,0,3.61,0h0c1.07,0,2.13.06,3.19,0,1.3-.09,2.05.36,2.09,1.73C323.89,193.79,324.54,194.7,323.7,195Zm13.17,10.47c-.19.79-.89.8-1.55.8h-4.46v.05h-4.68a1.05,1.05,0,0,1-1-.6c-.25-.56.2-.73.62-.84,1-.25.81-1,.82-1.73,0-2.83,0-5.66,0-8.5a2,2,0,0,0-.7-1.89c-1.06-.79-.7-1.33.44-1.35,2.83-.06,5.67-.06,8.5,0,1,0,2.09,2.17,1.69,3.15a.63.63,0,0,1-.63.45,1.08,1.08,0,0,1-1.12-.78c-.69-2.2-2.57-1.68-3.9-1.28s-.57,2.09-.74,3.2c-.1.67-.12,1.49.93,1.57s1.89.18,2.06-1.16a.59.59,0,0,1,.78-.5.77.77,0,0,1,.53.83,22.84,22.84,0,0,1,0,2.34c0,.6.26,1.47-.43,1.72-.94.34-.77-.71-1.09-1.17-.49-.73-1.26-.5-1.94-.43s-.82.66-.83,1.25a2.28,2.28,0,0,0,0,.64c.33,1.06-.83,2.87.7,3.13s3.93,1.33,4.82-1.47a.6.6,0,0,1,1.13-.16A3.75,3.75,0,0,1,336.87,205.51Zm10.76.85c-.71,0-1.42,0-2.13,0h-1.91v-.07c-1.42,0-2.83,0-4.25,0-.41,0-.89.06-1.09-.44s.2-.77.58-1c.85-.43.89-1.18.87-2-.06-2.84-.1-5.67-.17-8.5,0-.55,0-1.15-.54-1.52-.39-.26-1-.39-.67-1.07.23-.44.72-.4,1.13-.4,1.35,0,2.69,0,4,.06a.85.85,0,0,1,.86.5.58.58,0,0,1-.5.78c-1.21.23-1.07,1.17-1.06,2,0,2.76.1,5.52.08,8.28,0,1.19.46,1.7,1.63,1.64,1.66-.09,3.65.61,4.14-2,.12-.65.86-.76,1.25,0A2.85,2.85,0,0,1,347.63,206.36Z" transform="translate(603.83 -47.2)"/><path class="cls-1" d="M279.83,392.31" transform="translate(603.83 -47.2)"/><path class="cls-2" d="M286,392.72c17.62-5.26,13.11-19.32,47.75-43.46,14.72-10.26,16.6-11.08,19.23-11.79C369.49,333,389,340.18,400.72,353c12.41,13.58,12.68,29.83,13,50.57.39,23-6.33,35.52-8.37,39.09a58.48,58.48,0,0,1-6.83,9.61c-18.7,20.67-54.91,2.21-108.26,11.48-29.68,5.16-37.22,14.13-54.29,8.07-15.59-5.53-36.24-22.63-32-42.19,3.49-15.94,22.53-28.9,45-26.33h0C274.84,397.26,286,392.72,286,392.72Z" transform="translate(603.83 -47.2)"/><path class="cls-9" d="M244.65,403.5c-.39-1.22,19-5.94,44.3-21.64a235.65,235.65,0,0,0,20.61-14.42c23-18.14,23.7-26.12,36.75-31.26,17-6.7,33.52-.2,35.71.69,20,8.16,27.7,27.52,30.31,34.13,13.51,34.17-3.79,69.42-6.33,69-3-.51,14.82-50.27-9.21-75.3-.68-.71-17.55-17.66-38.81-15.8a41,41,0,0,0-11.33,2.75c-12.16,4.81-16.82,13.25-24,20.6-7.77,7.92-17.09,11.81-35.72,19.58C265.12,400.9,245.05,404.72,244.65,403.5Z" transform="translate(603.83 -47.2)"/><path class="cls-9" d="M327.53,406.44c0,.52.16,1.32,1.78,3.43,1.46,1.88,11.54,14.43,24.8,12.4,16.42-2.52,24.59-25.37,19.62-31.65C366.79,381.87,327.17,396.5,327.53,406.44Z" transform="translate(603.83 -47.2)"/><path class="cls-2" d="M271.29,354.41c2.85-3.26,3.26-7.16,3.54-9.59,1.89-16.25-.94-21,.84-28.4,2.41-10.09,12-19.51,23.38-21.93,1.13-.23,16-3.14,25.21,7.31,7.54,8.54,7.86,22.07,2.19,29.23-3.16,4-6.73,4.14-12.42,6.57-15.35,6.57-26.17,21.21-29.59,31.79a36.88,36.88,0,0,0-1,4.19c-3,16.38,5,28.44,7.95,36.73,7.09,19.79-5.15,44.6-16.44,57.72-2.38,2.77-27.08,30.51-61,22.65-25.91-6-43.8-29.64-45.67-53.7-1.56-20.14,8-41.29,23.38-52.25,9.86-7,29.59-12.85,69.05-24.47C264,359.28,268.06,358.1,271.29,354.41Z" transform="translate(603.83 -47.2)"/><path class="cls-10" d="M291.38,351.49c4.85-4.26,9.69-7,9.9-6.78s-1.47,1.41-3.9,3.9c-5.36,5.47-8,8.2-8.16,11a34.41,34.41,0,0,1-1,7.43h0a31.2,31.2,0,0,0-1,4.19c-3,16.38,5,28.44,7.95,36.73,7.2,20.11-6.25,45.58-16.44,57.72-17.09,20.38-51.22,35.11-78.5,21.57-27.89-13.85-34.95-50.45-31.56-52.48,4.12-2.46,22.7,46.76,56.58,49,22.46,1.47,46.76-18,56.63-38.73,2.54-5.33,6.21-13,6.28-23.37.1-15.21-7.65-24.95-5.18-37.64a36.11,36.11,0,0,0,.73-10.59c-.34-4-1.18-5.49-2.19-9.87-2.1-9.06-1.77-16.7-1.1-16.8s1.08,8.63,4.75,9.5C286.67,356.59,287.57,354.83,291.38,351.49Z" transform="translate(603.83 -47.2)"/><path class="cls-9" d="M275.3,323.72a106.54,106.54,0,0,1,4.75,24.85c.39,6.19-.09,9.25,1.47,15a41.88,41.88,0,0,1,1.91,10c.17,3.35.28,5.52-.82,7.14-2.74,4-11.39,2.16-15.71,1.82-23.13-1.82-35.49,31.68-49.68,27.4-8.84-2.66-14.16-18.69-11.7-28.49a11.52,11.52,0,0,1,1.47-3.66c3.67-5.77,11-4.82,23-7.3,11.13-2.31,8.23-3.84,24.11-8a54,54,0,0,0,14.25-6.21,15.58,15.58,0,0,0,6.21-6.21,14,14,0,0,0,1.47-6.21" transform="translate(603.83 -47.2)"/><path class="cls-11" d="M285.81,403.92c-.38,1.39.59,2.45,6,9.07,2.91,3.56,3.16,3.91,4,4.42,4.53,2.83,10.94,1.21,11.06,0s-5.22-.55-9.51-4.64c-4.94-4.71-3.82-11.11-7.08-11.73A4.32,4.32,0,0,0,285.81,403.92Z" transform="translate(603.83 -47.2)"/><path class="cls-12" d="M431.63,460.12c1.37,1.22.58,4.56-.44,6.64-2.14,4.34-7.86,8.39-13.5,7.74-8.12-.93-9.23-10.8-19-12.83-2.57-.53-4.81-.13-9.29.66C380.26,464,375.09,467,357.72,475c-8.61,3.95-10.08,4.47-12.39,4.86-8.92,1.52-16.3-1.28-20.35-2.87-14.92-5.86-19.88-15.84-34.52-29a33.58,33.58,0,0,1-5.09-5.75,25,25,0,0,1-3.76-7.53c-.81-2.85-1.62-5.7-.23-8,1.08-1.75,2.25-1.17,4-3.32,1.91-2.37,1-3.75,2.87-5.53,1-1,1.66-.91,4.65-2.22a60.57,60.57,0,0,0,5.53-2.87c5.28-3.08,5.27-4.83,8-5.76,3.89-1.33,7.94.89,10,2,5.63,3.09,6.68,7.1,13.88,17.82,3.89,5.8,5.94,8.85,9.35,12.49,5.52,5.9,10.63,11.37,17.48,11.95,5.16.44,6.11-2.33,17.48-7.08s16.87-7.05,22.57-5.53c9.47,2.51,17.94,14.14,18.59,15,2.09,2.93,4,6.43,7.74,7.08S430.06,458.73,431.63,460.12Z" transform="translate(603.83 -47.2)"/><path class="cls-5" d="M479.1,367" transform="translate(603.83 -47.2)"/></g></svg>