<?xml version="1.0" encoding="utf-8"?>
<!-- Generator: Adobe Illustrator 25.1.0, SVG Export Plug-In . SVG Version: 6.00 Build 0)  -->
<svg version="1.1" id="Calque_1" xmlns="http://www.w3.org/2000/svg" xmlns:xlink="http://www.w3.org/1999/xlink" x="0px" y="0px"
	 viewBox="0 0 297.6 297.6" style="enable-background:new 0 0 297.6 297.6;" xml:space="preserve">
<style type="text/css">
	.st0{fill:#D0D3D5;}
	.st1{fill:#CEA04B;}
	.st2{fill:url(#SVGID_1_);}
	.st3{fill:#9EB95F;}
	.st4{fill:#CBD4D7;}
	.st5{fill:#FDFBFB;}
	.st6{fill:#E7411C;}
	.st7{fill:#FFFFFF;}
	.st8{fill:#BCB583;}
	.st9{fill:#B7682C;}
	.st10{fill:url(#SVGID_2_);}
	.st11{fill:url(#SVGID_3_);}
</style>
<g id="Calque_1_1_">
	<path class="st0" d="M-770,268.4l-0.1-0.1c-0.1,0-0.1,0.1-0.2,0.1c0,0,0,0.1,0.1,0.1L-770,268.4z"/>
</g>
<g id="Calque_2_1_">
	<path class="st0" d="M574.2,249.8h1.7c0.8,0,0.9-0.2,0.9-1v-2.6C576,247.5,575.1,248.7,574.2,249.8z"/>
	<path class="st1" d="M2.9,286"/>
	
		<radialGradient id="SVGID_1_" cx="-458.5891" cy="98.4816" r="117.2823" gradientTransform="matrix(1 0 0 -1 603.83 249.2178)" gradientUnits="userSpaceOnUse">
		<stop  offset="0" style="stop-color:#E36F0E"/>
		<stop  offset="1" style="stop-color:#CD4917"/>
	</radialGradient>
	<path class="st2" d="M241.2,283.8H53.4c0-4.7,0.1-11,0.3-18.6c0.3-9.9,0.9-18.2,2.4-36.8c3.1-37.5,4.7-56.3,7.6-62.3
		c1-2.1,3.6-7,3.8-13.8c0.2-7.8-2.9-12.3-5.2-18.6C61,130,61,120.3,61,101.1c0-21,0-31.5,0.7-33.4c0.8-2.2,3.2-8,0.7-12.8
		c-1-1.9-2.3-2.6-4.1-4.1c-7.5-6.2-10.2-14.8-10.7-16.5c-1.5-5-1.8-10.2-0.9-15.3c26.6,1.7,48,1.5,62.9,1
		c18.1-0.6,38.7-2.1,67.1,0.3c5.7,0.5,6.9,0.7,11.7,1c18.1,1.1,36.2-0.1,54-3.8c2.7,8,2,13.7,0.9,17.3c-2.2,6.9-7.4,11.2-7.2,19.6
		c0,1.6,0.3,3.2,0.7,4.8c4.8,20.5-5.5,77.8-4.8,86.1c0.1,1.4,0.3,3,0.3,3s0.3,3.3,0.7,6.5c0.9,7.9,9,55.3,10,89.4
		C243.3,257.6,242.7,270.7,241.2,283.8z"/>
	<path class="st3" d="M61.8,191.2c12.2-2.8,24.5-4.8,36.9-6.1c67.9-7,136.6,9.1,138.7,0.8c0.1-0.5-0.1-0.4-0.9-6.1
		c-0.7-4.9-0.6-5.5-1.2-9.7c-0.5-3.6-0.8-5.4-1.2-7.2s-0.3-3.2-0.7-5.6c-0.2-1.2-0.4-2.1-0.8-4c-0.9-4.2-1.2-4.6-1.6-4.7
		c-1-0.5-2,0.3-4.2-0.5l-0.2-0.1c-6.7-2.6-14.1,1.5-16.1,2.5c-10.3,5.2-18.3,1.2-56.3,1.1c-49.5,0-52.2,6.8-77,9.2
		c-1.8,0.2-6.9,0.6-11.1,4.2c-1.4,1.2-2.6,2.7-3.6,4.4c-4.5,7.7-2.7,17.1-2,20.1"/>
	<path class="st4" d="M232.3,141.6c0.1-0.9,0.1-1,0.5-4.9c0.1-1.3,0.3-2.9,0.5-5.4c0.5-6.1,0.8-9.1,0.8-9.5c0-0.5,0-0.9,0.1-1.4
		c0.3-1.8,0.9-2.2,0.7-2.7c-0.5-1.5-7.1,0.5-8.2-1.5c-0.5-0.9,0.3-2.6,0.5-4.4c0.1-0.6,0.2-1.1,0.3-1.7c0.2-1-0.1-1.5-1-2
		c-2.3-1-3.4-1.1-3.4-1.1c-6.2-0.7-5.9-0.8-6.4-0.7c-1.4,0.4-4.4,1.9-5.9,2.5c-0.2,0.1-0.5,0.2-0.7,0c-0.2-0.2-0.2-0.5-0.1-0.8
		c0.2-1,0.5-2.1,0.7-3.1c0.4-1.7,0.3-1.9-1.2-2.9c-2.1-1.4-4.2-1-6.3-0.3c-1.8,0.6-3.3,1.6-5,2.5c-0.3,0.1-0.6,0.5-0.9,0.2
		s-0.1-0.6,0-0.9c0.4-1.4,0.5-2.8,1.1-4.1c0.9-1.9,1.3-4,2.2-5.8c0.1-0.2,0.2-0.4,0.2-0.6c0.5-1.6,0.5-1.5-1.2-1.9
		c-4.6-1.1-9.2-1.1-13.9-0.7c-0.7,0.1-1.4,0.2-1.2,1.1c0.1,0.5-0.6,0.7-0.6,1.2c-2.5-2.8-5.5-3.4-9-2.5c-0.1,0-0.1,0.1-0.2,0.1
		c-0.2,0.1-0.3,0.3-0.3,0.5c-0.1,0.1-0.1,0.2-0.2,0.2c-0.1,0.1-0.2,0.2-0.3,0.2c-0.9,0.2-1.5,0.9-2.1,1.6c-2,2.3-3.1,4.9-2,7.9
		c0,0.1,0,0.1,0,0.2c0.5,1.3,0.5,1.3-1,1.4c-1.2,0-2.4,0.3-3.5,0.8c-0.9,0.4-1.8,0.5-2.7,0.4c-2.8-0.3-5.6-0.2-8.3,0.5
		c-0.7,0.2-1.5,0.3-2.2,0.2c-1.5-0.1-3,0.5-4.4,0.6c-0.5,0-0.4,0.4-0.4,0.7c0,0.3,0.1,0.8-0.3,0.9c-0.3,0.1-0.5-0.3-0.7-0.5
		c-2-1.8-4.7-2.6-7.3-2c-2.1,0.4-4.3,0.5-6.4,0.7c-4.5,0.6-9,0.5-13.4,1.2c-2,0.4-4,1-5.9,1.9c-2.4,1-4.3,2.6-6.2,4.3
		c-0.5,0.4-0.8,1.4-1.3,1.2c-0.7-0.2-0.8-1.2-1-1.9c-0.3-1-0.6-2.1-0.9-3.2c-0.7-2-1.6-3.9-2.8-5.7c-0.8-1.2-1.3-2.5-2.2-3.5
		c-2.9-3.1-5.9-5.9-9.6-8.2c-4.5-2.7-9.4-4.6-14.4-5.7c-2-0.5-4.1-0.9-6.1-1.2c-0.6-0.1-0.9,0-0.8,0.7c0.2,1.8,0.6,3.5,1.2,5.2
		c0.4,1.3,0.7,2.6,1,4c0.5,2.2,1,4.3,1.4,6.5c0.3,1.5,0.5,3.1,0.9,4.6c0.7,2.5,1,5.1,1.6,7.6c0.6,2.4,1,4.8,1.2,7.2
		c0.1,1.9,0.8,3.7,1.2,5.6c0.8,2.9,1.9,5.8,2.3,8.8c0.1,0.5,0.5,0.8,0.5,1.3c0,0.5,0.1,1-0.5,1c-1,0.1-1.9,0.6-2.9,0.9
		c-0.4,0.1-0.8,0.2-1.2,0.3c-2.2,0.6-2.9,0.8-4.3,1.2c-3.8,1-4.7,0.8-5.1,1.6c-0.3,0.7,0,1.3,0.4,2.4c0.9,2.8,1.5,5.6,1.7,8.5
		c0.1,1.9,0,3.8-0.4,5.6c-0.7,4-1.9,5-3.7,10.4c-1.5,4.4-1.7,6.8-1.5,6.9c0.3,0.1,1.7-5.4,4-5.7c0.7,0,1.5-0.2,2.1-0.7
		c0.2-0.2,0.4-0.4,0.5-0.7c0.2-0.5,1.1-0.8,1.8-0.7c0.2,0,0.5,0.1,0.7,0.1c0.3,0.1,0.9-0.2,0.9,0.2c0.1,0.5-0.5,0.2-0.7,0.3
		c-0.4,0.2-0.3,0.5-0.3,0.8c0,0.2,0.2,0.4,0.5,0.3c0,0,0.1,0,0.1,0c0.9-0.4,1.8,0.1,2.7-0.4c0.4-0.2,0.8,0.4,1.2,0.3
		c-2.6,1-5.4,1.1-8,1.9c-0.3,0.1-0.6,0.1-0.7,0.4c0,0.1,0,0.2,0.1,0.2c0.3,0.2,0.5,0,0.8,0c1-0.2,1.9-0.9,3-0.5
		c0.1,0,0.3-0.2,0.5-0.2c0.3-0.1,0.5-0.1,0.4,0.3c-0.3,0.8,0.3,1,0.8,1.3c-0.1,0.5-0.7,0.1-0.8,0.6c0.7-0.4,1.3-0.1,1.9-0.2
		c-0.5,0.5-1.4,0.2-1.9,0.8c0.5,0.5,1.1-0.3,1.5,0.3c-0.8,0.3-1.5,0.5-1.6,1.5c0,0.6,0.3,0.7,0.9,0.7c-0.8,0.9-1.8,1-2.4,1.6
		c0.8,0.7,2.8,0.4,4.3-0.6c0.3,0.1-0.1,0.5,0.2,0.6c0.6-1,1.7-0.8,2.6-1.2c0.7-0.3,1.5-0.3,2.2-0.5c1-0.4,2.1-0.5,3.1-0.8
		c0.3-0.1,0.6-0.1,0.8,0.1c-0.1,0.3-0.5,0.5-0.7,0.6c-0.3,0.3-0.5,1.5-0.2,1.8c0.5,0.5,2.1-0.1,2.3-0.8c0.5-1.4,0.8-1.6,2.1-1.5
		c0.2,0.3-0.6,0.6-0.2,0.6c0.7,0-0.4,1.1,0.6,0.7c0.4-0.2,0.9-0.1,0.8-0.8c0-0.5,0.4-1,0.9-1c0,0,0.1,0,0.1,0c1.7,0.1,3-0.9,4.6-1.3
		c0.3-0.1,0.6-0.3,1-0.2c-0.3,0.5-0.9,0.8-1,1.5l0,0c0,0,0.1,0,0.1,0c0.8-0.8,1.6-0.7,2.7-0.5c1,0.2,1.9-0.6,2.8-1
		c0.1,0,0.2-0.2,0-0.4c-0.4,0-0.9,0.6-1.4-0.1c0.5-0.3,1.1-0.5,1.7-0.7c0.2-0.1,0.6-0.2,0.5-0.5c-0.1-0.3-0.4-0.1-0.6-0.1
		c-0.2,0-0.6,0.2-0.8-0.1c1.1-0.9,2.5-1.1,3.8-1.4c0.5-0.1,0.9-0.2,0.9-0.8s0.2-0.6,0.6-0.1c0.1,0.2,0.3,0.4,0.5,0.2
		c0.7-0.5,1.5-0.9,1.8-1.6c0.2-0.4,0.7-0.7,1.2-0.8c0.2-0.1,0.7,0,0.6-0.3c-0.1-0.9,0.6-0.8,1-0.8c0.7-0.1,0.8-0.7,1.3-1
		c0.8-0.5,1.8-0.6,2.6-1.1l-0.5-0.2c0.4-0.2,0.8-0.3,1.3-0.4c0.7,0,1.4-0.3,2-0.5c1.4-0.3,2.8-0.9,4.3-0.4c0.5,0.1,0.6,0,0.5-0.5
		c-0.1-1,0.4-1.5,1.5-1.3c0.7,0.1,1.2-0.5,1.7-0.7c1.6-0.7,3.3-0.4,5-0.7c0.2,0,0.3,0,0.4,0.2c0,0,0,0.1,0,0.1c-0.1,1,0.7,0.9,1.3,1
		c0.7,0.1,1.5,0.1,1.6-0.9c0.1-1,1-0.6,1.5-0.7c0.4-0.1,1.4,0.4,0.6-0.7c-0.2-0.3-0.1-0.5,0.3-0.7c0.9-0.5,2,0,2.9-0.3
		c0.5,0,0.9,0.3,0.9,0.8c0,0,0,0,0,0c0,0.3,0.1,0.8,0.4,0.8c0.5-0.1,0.9,0.2,1.3,0.1c0.2,0,0.2-0.2,0.2-0.4
		c-0.2-1.4-0.1-2.9,0.3-4.3c0.8-2.1,7.9,0.4,10.4-2.5c0.9-1,0.8-2.6,0.6-5.6c-0.5-7.7-3.6-13.5-2.3-14.3h0c-0.1-0.2-0.1-0.4-0.1-0.5
		c0.7-7.9,1.1-15.9,0.9-23.8c0-0.5,0-0.8,0.7-0.9c2.7-0.3,5.4-0.6,8-0.9c1.1-0.1,1-0.1,0.8,1c-0.3,1.7-0.5,3.4-0.7,5.1
		c0,0.2-0.1,0.3,0.2,0.4c0.2,0,0.2-0.2,0.3-0.3c0.6-0.9,1.1-1.9,1.8-2.7c1.9-2.5,4.3-4.2,7.5-4.3c0.6,0,0.7,0.1,0.6,0.7
		c-0.7,3-1.4,5.9-2,8.9c0,0.2,0,0.6-0.2,0.7c-0.5,0.3-1.3-0.9-2.8-1.3c-2.1-0.6-4.7,1.2-6,2.9c0,0-0.1,0.1-0.2,0.3
		c-1.7,2.6-1.2,10.4-0.9,14.7c-0.5,0.1-0.8,0.3-0.8,0.3l0,0c0,0,0.1,0.1,0.1,0.1c0.1,0,0.3,0,0.4,0c1.1-0.1,2,0.4,3,0.8
		c0.4,0.2,0.8,0.3,0.8,0.9c0,0.3,0.2,0.4,0.5,0.3c1-0.3,1.1,0,1.2,0.9c0,0.5,0.5,1,0.8,1.5c1.1,1.8,1.9,3.6,1.2,5.8
		c-0.4,1.2-0.6,2.4-1.6,3.3c-1.3,1.2-2.6,2.3-4,3.3c-0.8,0.6-1.5,1.4-2.4,1.9c-1.8,1.1-2.7,3.1-4.8,3.9c-1.3,0.5-2.1,1.8-3.4,2.6
		c-0.3,0.2-0.4,0.8-0.4,1.2c0,0.4,0.1,0.4,0.5,0.3c1.2-0.2,2.5-0.2,3.7,0.1c0.7,0.1,1.5-0.1,2.2-0.2c0.1-0.4-0.8-0.2-0.3-0.7
		c0.3-0.3,0.5-0.7,0.9-0.2c0.4,0.5,1.1,0,1.6,0.6c-1,0.1-1.5,1.3-2.7,0.8c-0.2-0.1-0.6-0.1-0.6,0.3s0.3,0.3,0.5,0.3
		c1.1-0.1,2.2-0.1,3.3-0.2c0.1-0.2,0.3-0.3,0.5-0.3c0.5-1.2,1.8-1.7,3-1.3c0.2,0.1,0.4,0.2,0.6,0.4c0.1,0.1,0.3,0.1,0.5,0.1
		c1.7-0.4,3.3-0.4,4.7,0.6c0.7,0.5,1.3,0.1,1.9-0.2c0.4-0.3,0.9-0.3,1.3-0.2c0.4,0.2,0.8,0.1,1-0.2c0.3-0.4,0.5-0.2,0.8-0.1l0,0
		l0.5,0.3c1-0.6,1.6-1.6,2.6-2.3c1.2-0.9,1.8-1.4,2.5-1.6c1-0.2,1.9-0.3,2.9-0.2l0,0c0,0,0.6,0.4,0.7,0.4c1.1,0.6,3.2-1.2,3.8-0.6
		c0.2,0.2,0.3,0.5,0.2,0.8l-0.2-0.8l0,0c2.9,1.2,3.8,0.8,3.8,0.8c1.7-0.7,0.5-3.9,2.2-5c1.2-0.7,3.8-0.8,7.8,1.8
		c0.2,0.1,0.3,0.2,0.5,0.2c5.2,2,8.1,7.2,10.3,7.7c5.3,1.2,24.8-20.2,15.8-37.4c-5.2-9.8-18.2-15.7-27.1-12.3
		c-16.5,6.4-12.4,42.3-6.1,46.5c0.2,0.2,0.4,0.3,0.4,0.3c4.6,2.6,11.8,0.1,12.5,1.1c0.1,0.2,0.3,0.4,0.5,0.6
		c0.2,0.2,0.5,0.3,0.7,0.5l2.6,1.3c0.4,0,0.9-0.1,1.3-0.2c1.3-0.2,2.4,0.5,3.6,0.4c0.3,0,0.6,0,0.9-0.2c0.6-0.3,1.3-0.2,1.8,0.3
		c0.3,0.2,0.4,0.1,0.6-0.1c0.6-0.5,1.1-0.6,1.4,0.3c0.1,0.3,0.4,0.4,0.7,0.4c0.4,0,0.8,0.1,1.2,0.2c2.4,1,13.4,3.4,14.4,1.3
		c0.2-0.4,0-0.8-0.2-1.3c-0.5-1.1-0.6-3.5-0.9-8.4C232.3,146.7,232.1,143.9,232.3,141.6z M92.2,172.4c-0.3,0-0.6,0.1-0.8,0.2
		c-0.4,0.3-0.9,0.5-1.4,0.5c-1.8,0-3.4,0.9-5.1,1c-0.2,0-0.6,0.4-0.7,0c-0.1-0.4,0.3-0.5,0.6-0.5c0.3,0,0.6-0.1,0.3-0.5
		c-0.1-0.2,0.1-0.3,0.2-0.2c0.3,0.3,0.6,0.6,1.1,0.2c0.4,0.9,0.6-0.1,0.9-0.1l0,0c0.9-0.5,1.9-1,2.9-0.9c0.9,0.1,1.5-0.3,2.3-0.5
		c0.8-0.1,1.6-0.1,2.4,0C94,172.2,93.1,172.2,92.2,172.4z M188.5,142.5c-0.3,0.2-0.7,0.2-0.9-0.1c0,0,0-0.1-0.1-0.1
		c-0.3-0.7-0.6-0.3-0.7,0.1c-0.1,0.5-0.2,1-0.2,1.5c0,0.2,0.1,0.4,0.3,0.4c0.1,0,0.2,0,0.3-0.1c0.2-0.2,0.1-0.3,0-0.5
		c-0.3-0.2-0.3-0.5,0-0.6c0.4-0.2,0.8,0,1.2,0.1c0.2,0,0.2,0.2,0.2,0.5c0,1-0.7,1.6-1.6,1.6c-1,0-1.4-0.7-1.4-1.8
		c0-0.6,0.2-1.2,0.5-1.7c0.5-0.8,1.9-0.9,2.4-0.2C188.6,141.9,188.9,142.3,188.5,142.5z M189.7,145.2c-0.1,0.4-0.3,0.5-0.7,0.4
		c-0.4-0.1-0.4-0.3-0.3-0.6c0.2-1,0.4-1.9,0.5-2.9c0.1-0.5,0.3-0.5,0.7-0.5s0.4,0.3,0.3,0.6C190.1,143.2,189.9,144.2,189.7,145.2z
		 M192.8,146.3c-0.3,0-0.6-0.2-0.7-0.5c-0.1-0.4-0.2-0.8-0.3-1.2c0-0.2-0.1-0.3-0.3-0.3c-0.2,0-0.2,0.2-0.3,0.3
		c-0.1,0.3-0.1,0.6-0.1,0.8c0,0.3-0.2,0.4-0.5,0.4c-0.3,0-0.5-0.2-0.4-0.5l0.6-3.2c0.1-0.3,0.2-0.3,0.5-0.3c0.3,0,0.6,0.1,0.8,0.5
		c0.1,0.5,0.3,0.9,0.5,1.3c0.1-0.4,0.2-0.7,0.2-0.9c0-0.3,0.2-0.5,0.6-0.4c0.4,0.1,0.4,0.3,0.4,0.6c-0.2,1-0.4,1.9-0.6,2.9
		C193.1,146,193.1,146.2,192.8,146.3L192.8,146.3z M196.3,147c-0.3,0-0.6,0-0.7-0.4c-0.2-0.9-0.6-0.9-1.1-0.2
		c-0.3,0.3-0.5,0.2-0.8,0.1c-0.4-0.2-0.2-0.4-0.1-0.6c0.5-0.9,0.9-1.8,1.4-2.7c0.2-0.4,0.5-0.4,0.9-0.3c0.4,0,0.6,0.3,0.6,0.7
		c0,0.5,0.1,1.1,0.1,1.8c0,0.3,0,0.7,0,1.2C196.5,146.6,196.7,147,196.3,147L196.3,147z M199.3,147.2c-0.1,0.4-0.3,0.4-0.6,0.4
		l-1.6-0.4c-0.3-0.1-0.4-0.2-0.3-0.6c0.3-1,0.5-1.9,0.7-2.9c0.2-0.7,0.6-0.4,1-0.3c0.5,0.1,0.4,0.5,0.2,0.7
		c-0.2,0.4-0.4,0.8-0.5,1.2c-0.3,0.7-0.4,1.4,0.7,1.4C199.3,146.8,199.4,147,199.3,147.2L199.3,147.2z M200.6,127.9
		c0.2-1.8,0.7-3.6,1.3-5.3c1-2.6,2-5.4,3.7-7.7c4.5-5.7,10.5-7.7,17.8-5.9c0.2,0.1,0.4,0.1,0.7,0.2c0.7,0.1,0.8,0.4,0.7,1
		c-1.4,7.1-2.7,14.3-4.2,21.4c-0.3,1.4-0.7,2.7-1.3,4.1c-1.1,3-1.3,6.1-1.5,9.3c-0.2,1.9,0.3,1.9-1.9,1.3c-1.8-0.5-3.7-1.2-5.5-1.7
		c-0.5-0.1-0.6-0.3-0.5-0.8c0.2-0.7,0.3-1.4,0.3-2.1c-1,0.6-1.7,1.4-2.7,1.7c-1.1,0.3-2.3,0.2-3.3-0.2c-2.2-1-3.2-2.9-3.7-5.1
		C199.7,134.5,200.1,131.2,200.6,127.9z M202.6,147.6c0.3-0.2,0.5-0.4,0.9-0.1c0.1,0.1,0.2,0.3,0.1,0.4c-0.2,0.3-0.5,0.6-0.9,0.6
		h-0.2c-0.7,0.1-1.4-0.4-1.5-1.1c0-0.1,0-0.2,0-0.2c-0.1-1.4,0.8-2.7,1.8-2.7c0.7,0,1.3,0.2,1.4,1c0,0.2,0.1,0.5-0.3,0.6
		c-0.3,0-0.6,0.1-0.7-0.3c-0.2-0.8-0.5-0.5-0.7,0c-0.2,0.5-0.6,0.8-0.6,1.4C202.1,147.7,202.3,147.8,202.6,147.6L202.6,147.6z
		 M206.1,149.6c-0.2-0.1-0.5-0.1-0.5-0.5c0.1-0.3,0.2-0.5,0.3-0.8c0.2-0.2,0.4-0.4,0-0.5c-0.3-0.1-0.6-0.2-0.7,0.1
		c-0.1,0.3-0.2,0.5-0.3,0.8c-0.1,0.4-0.3,0.4-0.6,0.3c-0.3-0.1-0.5-0.2-0.3-0.6c0.3-1,0.7-2,1-3.1c0.2-0.6,0.7-0.2,1-0.1
		c0.4,0.1,0.1,0.3,0,0.5c-0.1,0.2-0.6,0.7,0,1s0.8-0.1,0.9-0.6c0.1-0.4,0.2-0.7,0.7-0.5c0.5,0.2,0.3,0.5,0.2,0.7
		c-0.3,0.9-0.6,1.8-0.9,2.7C206.7,149.6,206.4,149.7,206.1,149.6L206.1,149.6z M207.7,150.1c-0.3-0.1-0.7-0.1-0.5-0.7
		c0.4-0.9,0.7-1.9,1-2.9c0.1-0.3,0.3-0.5,0.6-0.3c0.4,0.1,0.4,0.3,0.3,0.6c-0.4,1-0.7,2-1,2.9C208.1,150,208,150.1,207.7,150.1
		L207.7,150.1z M210.6,149.4c-0.6-0.3-0.7,0.2-0.8,0.6s-0.4,0.6-0.9,0.4c-0.5-0.2-0.3-0.5-0.2-0.8c0.3-0.9,0.7-1.9,1.2-2.7
		c0.2-0.4,1.5-0.1,1.9,0.4c0.4,0.5,0,1.1-0.1,1.6S211.1,149.5,210.6,149.4L210.6,149.4z M214.8,148.9c-0.2,0.2-0.4,0.2-0.6,0.1
		c0,0-0.1-0.1-0.1-0.1c-0.2-0.2-0.4-0.5-0.6-0.2c-0.3,0.3,0,0.5,0.2,0.7c0.4,0.5,0.9,0.9,0.6,1.7c-0.2,0.5-0.7,0.8-1.2,0.8
		c-0.5,0-1-0.2-1.3-0.6c-0.1-0.2-0.4-0.4-0.1-0.7c0.3-0.2,0.5-0.3,0.7,0.1s0.5,0.5,0.8,0.2c0.3-0.3-0.1-0.5-0.2-0.7
		c-0.1-0.1-0.2-0.3-0.3-0.4c-0.5-0.4-0.5-1.1-0.1-1.6c0.1-0.1,0.1-0.1,0.2-0.2c0.5-0.4,1.5-0.3,1.9,0.2
		C214.8,148.5,215,148.7,214.8,148.9L214.8,148.9z M215.7,153.2c-0.9-0.3-0.6-1-0.3-1.5c0.4-0.8,0.7-1.7,0.9-2.6
		c0.2-0.6,0.5-0.7,1-0.5c1.7,0.6,3.4,1.2,5,1.9c0.3,0.1,0.5,0.2,0.5,0.8c-0.4,1.2-0.5,2.5-1.1,3.8c0,0.2-0.2,0.3-0.4,0.3
		c0,0-0.1,0-0.1,0C219.3,154.6,217.5,153.9,215.7,153.2L215.7,153.2z"/>
	
		<rect x="216.9" y="150.2" transform="matrix(0.1298 -0.9915 0.9915 0.1298 39.9006 349.298)" class="st5" width="4.1" height="3.5"/>
	<path d="M81.8,150.7c0.1-3.5,0.2-6.1,0-8.7c-0.3-3.2-0.9-6.4-1.8-9.5c-1.7-5.3-2.8-10.8-3.3-16.4c-0.3-2.8-1.2-5.5-1.8-8.3
		c-0.8-4.2-1.5-8.5-2.5-12.6c-0.8-3-1.5-6-2.2-9.1c-0.1-0.6-0.1-0.8,0.6-0.7c2.3,0.4,4.5,1,6.7,1.7c4.4,1.6,8.5,3.6,12.2,6.6
		c1.6,1.3,3,2.9,4.5,4.3c1.1,1.1,1.8,2.6,2.6,3.9c1.5,2.3,2.3,4.8,3.1,7.3c1.2,4.1,2,8.3,1.2,12.6c-0.5,3.1-1.5,6.1-3.5,8.5
		c-1.3,1.6-2.7,3.2-4.7,4.2c-1.1,0.6-2.1,1.4-3.4,1.7c-0.5,0.1-0.3,0.5-0.3,0.9c0.2,2.7,1,5.3,1.3,8c0.2,2.3,0.7,4.6,1.3,6.8
		c0.2,0.6,0,0.9-0.5,1.2c-2.3,1.4-4.7,2.4-7.1,3.6c-0.7,0.4-1.4,0.6-2.2,0.9c-0.6,0.3-0.9,0.2-0.8-0.6
		C81.6,154.6,81.7,152.2,81.8,150.7z M91.2,114.2c0.2-4.6-2.3-8.7-6.2-9.8c-0.8-0.2-0.7-0.1-0.6,0.5c0.3,1.1,0.5,2.1,0.7,3.2
		c0.6,3.1,0.8,6.2,1.4,9.3c0.3,1.6,0.4,3.3,0.6,5c0.1,0.6,0.2,0.8,0.7,0.3c1.1-1,2-2.3,2.5-3.7C90.9,117.4,91.2,115.8,91.2,114.2z"
		/>
	<path d="M190.4,112.5c0.7-1.1,1.6-2.1,2.6-3c2.9-3,6.5-5.4,10.3-7c0.7-0.3,1.4-0.4,2.1-0.4c1,0,1.2,0.2,0.9,1.2
		c-0.9,2.7-1.3,5.6-2,8.3c-0.3,1.1-0.5,2.1-0.7,3.2c-0.1,0.5-0.3,0.6-0.7,0.4c-1.3-0.4-2.6-0.8-4-0.6c-1,0.1-1.8,0.8-2.1,1.7
		c-0.3,0.9-0.4,1.8-0.3,2.8c0.2,4.1,0.8,8.1,1.4,12.2c0.5,3.3,1.5,6.4,2.2,9.7c0.2,1.1,0.3,1.1-0.8,0.8c-2.4-0.5-4.8-1-7.2-1.4
		c-0.5,0-0.9-0.4-0.9-0.9c-0.6-3.2-0.9-6.5-1.4-9.8c-0.2-1.4-0.4-2.8-0.7-4.6c-0.6,0.9-1.1,1.8-1.3,2.9c-0.7,2.6-0.7,5.2-0.9,7.8
		c-0.1,0.7-0.1,1.5-0.2,2.2c-0.1,1.2-0.1,1.2-1.3,1c-2.1-0.3-4.1-0.6-6.2-0.8c-0.6-0.1-0.8-0.2-0.7-0.9c0.7-5.6,1.2-11.3,2.3-16.8
		c1.2-6.3,2-12.7,3.4-19c0.7-3.3,1.3-6.6,2.1-9.9c0.1-0.4,0.2-0.7,0.7-0.7c2.9-0.2,5.9-0.2,8.8,0.3c0.6,0.1,0.4,0.4,0.3,0.8
		c-0.6,1.4-1.1,2.8-1.6,4.3c-0.9,3.2-1.6,6.4-2.4,9.6c-0.5,1.9-1,3.8-1.4,5.8C190.3,111.9,190.3,112.2,190.4,112.5z"/>
	<path d="M134.1,108.2c0.4-0.5,0.7-1,1.1-1.4c2.7-3.1,6.7-2.7,8.8,0.9c0.7,1.3,1,2.7,1.4,4.1c0.6,2.3,1,4.7,1.1,7.1
		c0.2,3.7-0.1,7.3-1.4,10.8c-0.8,2.3-2,4.3-3.6,6.1c-2,2-4.5,3.4-7.5,3.4c-0.7,0-0.9,0.3-1,0.9c-0.5,3.5-0.5,7-0.1,10.4
		c0.1,0.8-0.1,1-0.9,1.1c-2.5,0.3-5,0.7-7.4,1.4c-0.5,0.1-0.8,0.1-0.6-0.6c1.7-10,1.7-20,1.6-30.1c0-5-0.2-10.1-0.3-15.1
		c0-0.7,0.1-0.9,0.9-1c2.3-0.2,4.7-0.4,7-0.6c0.8-0.1,1,0.2,0.9,0.9c-0.1,0.6-0.1,1.2-0.1,1.8L134.1,108.2z M138,119.2
		c0-0.3,0-0.5,0-0.8c0-1.5-0.2-3-0.6-4.5c-0.1-0.6-0.6-1.1-1.3-1.2c-0.6-0.1-0.9,0.6-1.1,1.1c-0.1,0.3-0.2,0.6-0.3,0.9
		c-0.8,5.2-1.7,10.3-1,15.6c0.1,0.5-0.1,1,0.6,1.1c0.7,0.1,0.9-0.3,1.1-0.8c1-1.8,1.7-3.7,2-5.8C137.9,123.1,138.1,121.1,138,119.2
		L138,119.2z"/>
	<path d="M114.1,140.8c-0.9,1.5-2.1,2.8-3.5,3.9c-1.9,1.4-3.8,1.3-5.6-0.2c-1.2-1-2-2.4-2.4-4c-2-7.6-1.7-15.2,1.4-22.4
		c1.5-3.5,4-6.5,7.2-8.5c3.1-1.9,6.6-3,10.2-3.1c0.7,0,0.8,0.2,0.9,0.9c0,7.8,0,15.5,0.2,23.3c0.1,3.4,0.2,6.8,0.3,10.1
		c0,0.6-0.1,0.8-0.7,1c-2.4,0.6-4.8,1.1-7.1,1.8c-0.2,0.1-0.5,0.1-0.8,0C113.6,143.2,113.9,141.6,114.1,140.8z M114.2,122.9
		c0-0.5,0-0.9,0-1.4c0.1-1.3,0-2.6-0.2-3.9c0-0.4-0.2-0.7-0.6-0.9c-0.4-0.2-0.7,0.2-0.9,0.5c-0.5,0.7-1,1.4-1.3,2.2
		c-1.2,3.9-1.7,7.9-1.4,11.9c0,1.1,0.2,2.3,0.7,3.3c0.2,0.5,0.5,1,1.1,0.8c0.6-0.1,1-0.6,1.1-1.1
		C113.7,130.6,113.9,126.8,114.2,122.9L114.2,122.9z"/>
	<path d="M210.2,141.7c-1,0.6-1.7,1.4-2.7,1.7c-1.1,0.3-2.3,0.3-3.3-0.2c-2.2-1.1-3.2-3-3.7-5.2c-0.8-3.4-0.4-6.8,0.2-10.2
		c0.2-1.8,0.7-3.6,1.3-5.3c1-2.7,2-5.5,3.8-7.8c4.5-5.8,10.5-7.8,17.8-6c0.2,0.1,0.4,0.1,0.7,0.2c0.7,0.1,0.8,0.4,0.7,1.1
		c-1.4,7.3-2.7,14.5-4.2,21.8c-0.3,1.4-0.7,2.8-1.3,4.1c-1.1,3.1-1.3,6.2-1.5,9.4c-0.2,2,0.3,2-2,1.3c-1.8-0.6-3.7-1.2-5.5-1.7
		c-0.5-0.1-0.6-0.3-0.5-0.8C210.1,143.2,210.2,142.4,210.2,141.7z M208.8,132.2c0,0.3,0,0.7,0.1,1.1c0,0.2,0.1,0.4,0.1,0.7
		c0.3,0.9,1,1.1,1.7,0.4c0.2-0.3,0.4-0.6,0.6-0.9c0.9-1.8,1.7-3.7,2.3-5.7c0.9-2.6,1.5-5.3,2.2-7.9c0.4-1.3,0.6-2.7,0.6-4.1
		c0.1-0.4-0.2-0.8-0.5-1c-0.4-0.1-0.7,0-1,0.3c-0.3,0.3-0.5,0.6-0.8,0.9c-1.1,1.4-2,2.9-2.6,4.6C210.3,124.3,208.9,128,208.8,132.2
		L208.8,132.2z"/>
	<path d="M177.2,103.7c1,0,2,0,3,0c0.2,0,0.6-0.1,0.4,0.5c-1.5,4.6-2.2,9.3-3.3,14c-1.3,6.2-2.2,12.5-2.6,18.9
		c0,0.6-0.3,0.7-0.8,0.7c-3.1-0.2-6.2-0.3-9.3-0.5c-0.4,0-0.7,0-0.5-0.6c0.8-2.1,1.1-4.3,1.7-6.5c2-8.3,3.1-16.6,3.8-25.1
		c0-0.5,0.3-0.7,0.8-0.7C172.6,104,174.9,103.8,177.2,103.7z"/>
	<path d="M157.1,126.9c0,1.1,0,2.3,0,3.4c0,0.2,0.1,0.4-0.1,0.5c-0.2,0.1-0.5,0-0.6-0.1c-0.5-0.4-1.2-0.6-1.9-0.4
		c-0.2,0.1-0.4,0-0.6-0.1c-0.9-0.8-1.5,0-2.1,0.3c-0.4,0.2-0.7,0.5-1.1,0.2c-0.5-0.3-1.2-0.3-1.6,0.1c-0.5,0.3-0.8,0.3-0.7-0.5
		c0.7-8.1,1.1-16.2,0.9-24.3c0-0.5,0-0.9,0.7-0.9c2.7-0.3,5.4-0.6,8.1-0.9c1.1-0.1,1-0.1,0.8,1c-0.3,1.7-0.5,3.4-0.7,5.2
		c0,0.2-0.1,0.3,0.2,0.4c0.2,0,0.2-0.2,0.3-0.3c0.6-0.9,1.1-1.9,1.8-2.8c1.9-2.6,4.3-4.2,7.5-4.4c0.6,0,0.7,0.1,0.6,0.7
		c-0.7,3-1.4,6-2,9.1c-0.1,0.3-0.1,0.5-0.2,0.7c-0.2,0.9-0.6,1.2-1.6,0.8c-3.1-1-5.1,0.2-6.5,3.2c-0.4,0.9-0.6,1.8-0.7,2.7
		C157.1,122.7,157,124.8,157.1,126.9z"/>
	<path d="M170.7,98.2c0-3.9,3.3-7.2,6.6-7.1c3.9,0.1,5.9,2.3,5.1,6.2c-0.4,1.7-1.3,3.3-2.6,4.5c-2.2,2-7.3,1.6-8.5-1
		C170.9,99.9,170.7,99,170.7,98.2z"/>
	<path class="st6" d="M222.8,151.5c-0.4,1.2-0.5,2.6-1.1,3.9c0,0.2-0.2,0.3-0.4,0.3c0,0-0.1,0-0.1,0c-1.8-0.7-3.6-1.4-5.4-2.1
		c-0.9-0.3-0.6-1-0.3-1.5c0.4-0.9,0.7-1.7,0.9-2.6c0.2-0.6,0.5-0.7,1-0.5c1.7,0.6,3.4,1.3,5.1,1.9
		C222.6,150.8,222.9,151,222.8,151.5z M219.9,153c0.4,0.1,0.8,0.2,0.9-0.3s-0.1-0.6-0.5-0.7c-0.4-0.1-0.5-0.4-0.4-0.7
		c0-0.4-0.1-0.5-0.4-0.6c-0.3-0.1-0.5,0-0.6,0.2c-0.1,0.3-0.3,0.5-0.6,0.3c-0.4-0.2-0.5,0-0.6,0.3c-0.1,0.3-0.1,0.5,0.2,0.6
		c0.5,0.2,0.6,0.4,0.5,0.9c-0.1,0.3,0.1,0.5,0.4,0.5c0.3,0.1,0.5,0.1,0.5-0.2C219.4,153.1,219.6,152.9,219.9,153L219.9,153z"/>
	<path d="M192.6,143.8c0.1-0.4,0.2-0.7,0.2-1c0-0.3,0.2-0.5,0.6-0.5c0.4,0.1,0.5,0.3,0.4,0.6c-0.2,1-0.4,2-0.6,2.9
		c0,0.2,0,0.5-0.3,0.5c-0.3,0-0.6-0.2-0.7-0.5c-0.1-0.4-0.2-0.8-0.3-1.2c0-0.2-0.1-0.3-0.3-0.3c-0.2,0-0.2,0.2-0.3,0.3
		c-0.1,0.3-0.1,0.6-0.1,0.9c0,0.3-0.2,0.5-0.5,0.4s-0.5-0.2-0.4-0.5c0.2-1.1,0.4-2.1,0.6-3.2c0.1-0.3,0.2-0.3,0.5-0.3
		c0.3,0,0.6,0.1,0.8,0.5C192.1,142.9,192.3,143.4,192.6,143.8z"/>
	<path d="M205.7,149.4c0.1-0.3,0.2-0.5,0.3-0.8c0.2-0.2,0.4-0.4,0-0.6c-0.3-0.1-0.6-0.2-0.7,0.1c-0.1,0.3-0.2,0.5-0.3,0.8
		c-0.1,0.4-0.3,0.4-0.6,0.3s-0.5-0.2-0.4-0.6c0.4-1,0.7-2.1,1.1-3.1c0.2-0.6,0.7-0.2,1-0.1c0.4,0.1,0.1,0.3,0,0.6
		c-0.1,0.2-0.6,0.7,0,1s0.8-0.1,0.9-0.6c0.1-0.4,0.2-0.7,0.7-0.5c0.5,0.2,0.3,0.5,0.2,0.8c-0.3,0.9-0.6,1.8-0.9,2.8
		c-0.1,0.4-0.4,0.5-0.7,0.4C205.9,149.7,205.6,149.7,205.7,149.4z"/>
	<path d="M182,143.1c-0.3,0.2-0.4,0.6-0.4,0.9c0,0.5-0.2,0.6-0.7,0.5c-0.5,0-0.6-0.3-0.5-0.7c0.3-1,0.5-2,0.6-3
		c0-0.2,0.1-0.4,0.2-0.4c0.7,0,1.5,0,2.1,0.5c0.4,0.4,0.4,1.1,0.1,1.5c-0.5,0.6-0.4,1-0.2,1.6c0.1,0.2,0.3,0.6-0.2,0.7
		c-0.4,0-0.8,0-0.8-0.6C182.2,143.8,182.1,143.5,182,143.1z"/>
	<path d="M185.5,143.6c0-0.6,0.2-1.2,0.5-1.8c0.5-0.8,1.9-0.9,2.4-0.2c0.2,0.3,0.5,0.7,0.1,0.9c-0.3,0.2-0.7,0.2-0.9-0.1
		c0,0-0.1-0.1-0.1-0.1c-0.3-0.7-0.6-0.3-0.7,0.1c-0.1,0.5-0.2,1-0.2,1.5c0,0.2,0.1,0.4,0.3,0.4c0.1,0,0.2,0,0.3-0.1
		c0.2-0.2,0.1-0.3,0-0.5c-0.3-0.2-0.3-0.5,0-0.6c0.4-0.2,0.8,0,1.2,0.1c0.2,0,0.2,0.2,0.2,0.5c0,1-0.7,1.7-1.6,1.6
		C186,145.4,185.5,144.8,185.5,143.6z"/>
	<path d="M196.5,145.4c0,0.3,0,0.8,0,1.2c0,0.2,0.2,0.6-0.2,0.6c-0.3,0-0.6,0-0.7-0.4c-0.2-0.9-0.6-0.9-1.1-0.2
		c-0.3,0.3-0.5,0.2-0.8,0.1c-0.4-0.2-0.2-0.4-0.1-0.6c0.5-0.9,0.9-1.8,1.4-2.7c0.2-0.4,0.5-0.4,0.9-0.4c0.4,0,0.6,0.3,0.6,0.7
		C196.4,144.1,196.5,144.7,196.5,145.4z"/>
	<path d="M180.3,141.8c0,0.7-0.1,1.3-0.4,1.9c-0.2,0.4-0.7,0.7-1.2,0.6c-0.5,0-1-0.3-1.2-0.8c-0.3-0.9-0.2-1.9,0.3-2.8
		c0.3-0.5,0.8-0.7,1.3-0.6c0.5,0,0.9,0.4,1.1,0.8C180.2,141.2,180.3,141.5,180.3,141.8z M179.3,141.9c-0.1-0.3,0.2-0.9-0.4-0.9
		c-0.5,0-0.5,0.5-0.5,0.8c0,0.5-0.4,1.4,0.3,1.5C179.4,143.4,179.1,142.4,179.3,141.9z"/>
	<path d="M202.6,148.8c-0.7,0.1-1.4-0.4-1.5-1.1c0-0.1,0-0.2,0-0.2c-0.1-1.4,0.8-2.7,1.8-2.8c0.7,0,1.3,0.2,1.4,1
		c0,0.2,0.1,0.6-0.3,0.6c-0.3,0-0.6,0.1-0.7-0.3c-0.2-0.8-0.5-0.5-0.7,0c-0.2,0.5-0.6,0.8-0.6,1.4c0,0.5,0.3,0.6,0.6,0.4
		c0.3-0.2,0.5-0.4,0.9-0.1c0.1,0.1,0.2,0.3,0.1,0.4c-0.2,0.4-0.5,0.6-0.9,0.6L202.6,148.8z"/>
	<path d="M213.1,152.1c-0.5,0-1-0.2-1.3-0.6c-0.1-0.2-0.4-0.4-0.1-0.7c0.3-0.2,0.5-0.3,0.7,0.1s0.5,0.5,0.8,0.2
		c0.3-0.3-0.1-0.5-0.2-0.7c-0.1-0.1-0.2-0.3-0.3-0.4c-0.5-0.4-0.5-1.2-0.1-1.6c0.1-0.1,0.1-0.1,0.2-0.2c0.5-0.4,1.5-0.3,1.9,0.2
		c0.1,0.2,0.4,0.4,0.2,0.7c-0.1,0.2-0.4,0.3-0.6,0.1c0,0-0.1-0.1-0.1-0.1c-0.2-0.2-0.4-0.5-0.6-0.2c-0.3,0.3,0,0.5,0.2,0.7
		c0.4,0.5,0.9,0.9,0.6,1.7C214.1,151.8,213.6,152.2,213.1,152.1z"/>
	<path d="M210.6,149.7c-0.6-0.3-0.7,0.2-0.8,0.6c-0.1,0.5-0.4,0.6-0.9,0.4c-0.5-0.2-0.3-0.5-0.2-0.8c0.3-1,0.7-1.9,1.2-2.8
		c0.2-0.5,1.5-0.1,1.9,0.4c0.4,0.6,0,1.1-0.1,1.6S211.1,149.7,210.6,149.7z M211.2,148.2c0-0.2-0.1-0.4-0.4-0.4
		c-0.4,0-0.4,0.4-0.5,0.6c0,0.1,0,0.3,0.2,0.3c0,0,0.1,0,0.1,0C211.1,148.8,211.2,148.5,211.2,148.2L211.2,148.2z"/>
	<path d="M198.7,147.8l-1.6-0.4c-0.3-0.1-0.4-0.2-0.3-0.6c0.3-1,0.5-2,0.7-3c0.2-0.7,0.6-0.4,1-0.3c0.5,0.1,0.4,0.5,0.2,0.7
		c-0.2,0.4-0.4,0.8-0.5,1.2c-0.3,0.7-0.4,1.4,0.7,1.4c0.3,0,0.4,0.2,0.3,0.5C199.3,147.8,199.1,147.9,198.7,147.8z"/>
	<path d="M185.4,141.6c-0.1,1-0.3,1.9-0.4,2.9c0,0.5-0.2,0.6-0.7,0.5c-0.4,0-0.6-0.3-0.5-0.7c0.1-1.1,0.5-2,0.6-3.1
		c0.1-0.3,0.3-0.4,0.6-0.3C185.5,141,185.4,141.2,185.4,141.6z"/>
	<path d="M207.8,150.3c-0.3-0.1-0.7-0.1-0.5-0.7c0.4-1,0.7-1.9,1-2.9c0.1-0.3,0.3-0.5,0.6-0.3c0.4,0.1,0.4,0.3,0.3,0.6
		c-0.4,1-0.7,2-1,3C208.1,150.2,208,150.3,207.8,150.3z"/>
	<path d="M190.2,142.4c-0.2,1-0.4,2-0.5,2.9c-0.1,0.4-0.3,0.5-0.7,0.5c-0.4-0.1-0.4-0.3-0.3-0.6c0.2-1,0.4-1.9,0.5-2.9
		c0.1-0.5,0.3-0.5,0.7-0.5C190.3,141.8,190.3,142.1,190.2,142.4z"/>
	<path class="st7" d="M153.8,77.5c-5.3,0-10.6,0-15.9,0c-0.7,0-1.1-0.1-1.1-0.9c0.1-1.7-0.4-3.3-0.4-5c0-0.5,0.1-0.9,0.5-1.3
		c2-1.9,3.9-3.8,5.9-5.7c2.6-2.4,5.1-4.9,7.8-7.2c1.1-1,2.3-1.9,3.4-2.9c0.2-0.1,0.5-0.2,0.3-0.5c-0.1-0.2-0.3-0.1-0.5-0.1
		c-2.4,0-4.8-0.1-7.2,0.1c-2,0.1-4.1,1.2-4,3.6c0,0.5-0.3,0.6-0.7,0.6c-1.4,0-2.7,0-4.1,0c-0.5,0-0.7-0.3-0.7-0.7
		c-0.1-0.8-0.1-1.6-0.2-2.4c-0.1-1.1-0.3-2.2-0.6-3.3c-0.2-0.9,0.3-0.9,0.9-1c5.1-0.1,10.3-0.3,15.4-0.4c4.7-0.1,9.5-0.2,14.2-0.3
		c0.9,0,1.1,0.3,1.4,1.2c0.7,2.4-0.4,3.9-2.1,5.3c-2.6,2-4.9,4.4-7.3,6.7c-2.4,2.2-4.8,4.5-7.2,6.7c-0.7,0.6-1.4,1.2-2.1,1.9
		c-0.1,0.1-0.3,0.3-0.2,0.5c0.1,0.2,0.3,0.1,0.5,0.1c3.2,0,6.3-0.1,9.5-0.1c3.2,0,4.8-1.5,5-4.6c0-0.6,0.2-0.8,0.8-0.8
		c1.5,0,2.9,0,4.4,0c0.6,0,0.8,0.2,0.8,0.8c0.1,3,0.2,5.9,0.3,8.9c0,0.5-0.1,0.8-0.7,0.8c-4,0-7.9,0-11.9,0L153.8,77.5L153.8,77.5z"
		/>
	<path class="st7" d="M188,81.4c-0.9-0.3-1.3-1.3-2.4-1.4c-0.7-0.1-0.9-1.5-0.4-2.1c0.9-0.9,1.6-2,2.8-2.6c0.8-0.4,0.5-0.9,0-1.6
		c-1-1.3-1.8-0.4-2.7-0.1c-1.1,0.3-2.4,0.3-3.4-0.3c-0.4-0.2-0.4-1.2,0-1.4c0.4-0.3,0.7-0.8,0.8-1.4c0.2-0.7,0.9-1,1.4-1.5
		c0.3-0.4,0.7-0.7,1.2-1c0.5-0.3,1.1-2,0.9-2.4c-0.4-0.9-1.4-1.4-2.4-1.2c-0.6,0.1-1.1,0.1-1.3-0.8c-0.2-0.8-0.8-1.5-1.1-2.4
		c-0.2-0.4-0.2-0.9,0-1.4c0.4-0.7,0.3-1.4,0.3-2.2c0-0.6-0.5-1.1-1.1-1.2c-0.5-0.1-1-0.5-1.2-1c-0.2-0.5-0.6-0.3-0.9-0.3
		c-0.5,0.1-1.1-0.1-1.5-0.5c-0.6-0.6-1.1-1.4-2.1-1.7c-0.8-0.3-1.5-0.9-2.4-1.5c0,0.9-0.1,1.6,0,2.4c0.1,0.6-0.2,1.3-0.7,1.7
		c-2.6,2-4.8,4.3-7.2,6.6c-0.8,0.6-1.5,1.3-2.1,2.1c0.3,0.3,0.7,0.2,1,0.2c1.6,0.1,3.2,0.1,4.7-0.1c1.5-0.2,2.6,0.5,3.6,1.4
		c0.6,0.5,1.1,1.1,1.7,1.6c0.3,0.3,0.5,0.7,0.5,1.1c0.1,3.9,0.1,7.9,0.2,11.8c0,0.7-0.2,1-1,1c-11.6,0-23.2,0-34.9,0
		c-0.5,0-1-0.2-1.3-0.5c-1-1-2.1-1.9-3.2-2.8c-0.4-0.3-0.7-0.9-0.7-1.4c0-1.9,0-3.9-0.2-5.8c-0.2-1.6,0.5-2.6,1.6-3.4
		c1-0.8,1.9-1.7,2.8-2.6c0.5-0.5,1.1-1,1.7-1.5c0.5-0.3,0.5-0.7,0-1c-1.7-1.1-3-2.8-4.8-3.8c-0.3-0.2-0.5-0.4-0.5-0.7
		c0.1-1.5-0.5-2.9-0.5-4.4c-0.2,2-0.2,2-2.1,2.6c-1.5,0.4-2.7,1.4-3.5,2.7c-0.2,0.3,0,0.5,0.2,0.7c0.9,1.3,0.5,2.8,0.3,4.2
		c0,0.3-0.2,0.5-0.3,0.8c-0.1,0.5-0.5,0.8-1,0.7c-0.1,0-0.2-0.1-0.3-0.1c-0.3-0.2-0.7-0.4-1-0.5c-0.8-0.1-2.2,0.6-2.5,1.3
		c-0.1,0.2-0.1,0.4,0,0.6c0.7,1.2,1.6,2.1,2.8,2.8c1.1,0.7,1.7,1.9,2.4,2.9c0.4,0.6-0.5,1.6-1.3,1.7c-1.3,0.2-2.6-0.1-3.8-0.7
		c-0.7-0.3-1.3-0.8-2.1-0.1c-0.8,0.8-0.8,1,0.1,1.8c0.5,0.4,1,0.8,1.5,1.1c1.1,0.6,2,1.6,2.4,2.8c0.1,0.4,1,0.7,0.3,1.3
		c-0.3,0.4-0.7,0.7-1.1,0.9c-1.4,0.6-1.6,2-0.3,3c0.8,0.6,1.3,1.6,2.5,1.6c0.4,0.1,0.7,0.4,0.8,0.8c0.1,1.3,1.4,1.5,2,2.3
		c0.2,0.3,0.8,0.4,0.2,0.8c-0.2,0.2,0.1,0.3,0.3,0.4c2.4,0.4,4.5,1.6,7,1.5c1.4,0,2.8,0.1,4,0.9c0.3,0.2,0.7,0.2,1,0.1
		c4.4,0,8.9,0,13.3,0.1c0.6,0,1.2,0.2,1.7,0.5c1.4,0.6,3,0.5,4.4,0.1c0.2-0.1,0.4-0.1,0.6-0.2c2.6,0,5.1-0.6,7.7-0.4
		c1.6,0.1,3-0.6,4.6-0.9c0.4-0.1,0.8-0.2,1.2-0.2c1.1,0.1,2.2-0.5,3.3-0.5l0,0l0.1,0l0,0c0.1-0.1,0.2-0.1,0.3-0.1
		c0.1-0.1,0.3-0.1,0.5-0.1h0l0,0h0.1h0.1c0.1-0.1,0.2-0.1,0.3-0.1c0,0,0.1,0,0.1,0c0,0,0.1,0,0.1,0v0c0.6-0.2,1.1-0.4,1.7-0.5
		c0.9-0.2,1.8-0.8,2.3-1.6c0.4-0.6,0.8-1.2,1.6-1.2c0.5,0,0.7-0.3,0.3-0.7c-0.7-0.6-0.2-0.8,0.2-1.2c0.4-0.3,1.3-0.2,0.8-1.2
		c0,0,0.1-0.3,0.2-0.3c1-0.1,0.8-1.1,1.3-1.7c0.2-0.1,0.2-0.4,0.1-0.5C188.2,81.5,188.1,81.4,188,81.4z M138,90.2
		c-0.6,0-1.3,0-1.9,0v0c-0.6,0-1.2,0-1.8,0c-0.8,0-1-0.3-0.6-1c0.7-1.4,1.9-2.6,2.6-4c0.1-0.3,0.6-0.6,0.4-0.9
		c-0.2-0.3-0.6-0.1-0.9-0.1c-0.7,0-1.5-0.2-1.7,0.8c0,0.2-0.3,0.2-0.5,0c-0.3-0.5,0-1.5,0.6-1.5c1.3-0.1,2.5-0.1,3.8,0
		c0.7,0,0.6,0.5,0.4,1c-0.8,1.4-1.6,2.9-2.4,4.3c-0.3,0.6-0.4,0.9,0.5,0.8s1.6,0.2,1.8-0.9c0.1-0.4,0.5-0.4,0.7,0
		c0.2,0.6-0.1,1.3-0.7,1.6C138.2,90.2,138.1,90.2,138,90.2z M147.7,83.9c-0.8,1.8-0.8,3.8-1.3,5.6c-0.1,0.5-0.3,0.7-0.8,0.8
		c-0.5,0-0.8-0.3-0.9-0.8c-0.3-1.1-0.6-2.2-0.9-3.3l-0.2,0.1c-0.2,1.1-0.5,2.2-0.7,3.3c-0.1,0.5-0.3,0.7-0.8,0.7
		c-0.5,0-0.7-0.3-0.9-0.7c-0.7-1.8-0.9-3.8-1.7-5.6c-0.1-0.3,0-0.5,0.3-0.5c0.5,0,0.9,0,1.4,0c0.3,0,0.3,0.2,0.3,0.5
		c-0.4,1.4,0.6,2.6,0.7,3.9c0,0.1,0.1,0.2,0.3,0.2c0,0,0,0,0,0c0.1-0.1,0.2-0.1,0.2-0.3c0-1.3,1-2.5,0.4-3.9
		c-0.1-0.2,0.1-0.4,0.3-0.4c0.4,0,0.8,0,1.3,0c0.3,0,0.4,0.2,0.3,0.5c-0.4,1.6,0.7,2.7,1,4.2c0.3-1.4,1-2.7,0.6-4.1
		c-0.1-0.2-0.1-0.4,0.1-0.5c0.3-0.1,0.7-0.1,1,0C147.7,83.6,147.7,83.7,147.7,83.9z M153.7,89c-0.1,0.4,0.1,1.1-0.6,1.1
		c-1.5,0.1-2.9,0-4.4,0c-0.2,0-0.3-0.1-0.4-0.2c0-0.1,0.1-0.2,0.2-0.3c0.5-0.2,0.5-0.6,0.5-1.1c0-1.2-0.1-2.4-0.1-3.6
		c0-0.4,0-0.7-0.4-0.9c-0.2-0.1-0.3-0.2-0.2-0.5s0.3-0.2,0.5-0.2h1.9l0,0c0.6,0,1.2,0,1.7,0c0.4-0.1,0.8,0.2,0.9,0.6
		c0,0.1,0,0.2,0,0.2c0,0.3,0.3,0.7-0.2,0.8c-0.4,0.2-0.5-0.2-0.7-0.5c-0.3-0.7-0.9-0.4-1.5-0.5c-0.2,0-0.6,0.1-0.6,0.4
		c0,0.6-0.2,1.3,0.2,1.7c0.3,0.3,0.7,0.3,1,0c0.1-0.1,0.2-0.2,0.2-0.3c0.1-0.2,0.1-0.4,0.4-0.4c0.2,0,0.3,0.2,0.3,0.5
		c0,0.4,0,0.7,0,1.1c0,0.3,0.1,0.7-0.2,0.7c-0.4,0.1-0.3-0.3-0.4-0.5c-0.2-0.5-0.6-0.3-0.9-0.3c-0.4,0-0.4,0.4-0.4,0.7
		c0,0.2,0,0.4,0,0.6c0.1,0.4-0.3,1.1,0.4,1.2c0.7,0.1,1.5,0.5,1.9-0.5c0.1-0.3,0.4-0.5,0.7-0.4C153.8,88.5,153.7,88.8,153.7,89
		L153.7,89z M157,89.9c-0.1,0.2-0.2,0.2-0.4,0.2c-0.7,0-1.4,0-2,0c-0.2,0-0.5-0.2-0.3-0.3c1.1-0.8,0.3-2,0.5-2.6c0-1,0-1.7,0-2.3
		c0-0.3,0-0.6-0.3-0.8c-0.2-0.1-0.5-0.1-0.3-0.5c0.1-0.2,0.3-0.2,0.5-0.2c0.6,0,1.2,0,1.8,0c0.2,0,0.4,0,0.5,0.2
		c0.1,0.2-0.1,0.4-0.3,0.4c-0.6,0.1-0.5,0.5-0.5,0.9c0,1.3,0.1,2.6,0.1,4c0,0.3,0,0.6,0.5,0.7C156.9,89.6,157.1,89.7,157,89.9
		L157,89.9z M162.2,85c-0.5,0.2-0.4-0.3-0.6-0.6c-0.4-0.8-1.1-0.3-1.7-0.3c-0.6,0-0.5,0.5-0.4,0.9c0.1,0.5-0.4,1.4,0.7,1.4
		c0.3,0,0.6,0,0.7-0.4c0.1-0.2,0.1-0.5,0.4-0.4c0.3,0.1,0.3,0.3,0.3,0.6c0,0.3,0,0.6,0,1c0,0.3,0.1,0.7-0.2,0.8
		c-0.4,0.1-0.3-0.3-0.4-0.5c-0.2-0.5-0.6-0.3-0.9-0.3c-0.4,0-0.5,0.3-0.5,0.6c0.1,0.7-0.4,1.6,0.7,2c0.3,0.1,0,0.4-0.3,0.4
		c-0.4,0-0.8,0-1.3,0c-0.5-0.1-1.6,0.3-0.6-0.8c0.1-0.1,0.1-0.4,0.1-0.6c0-1.3-0.1-2.6-0.1-4c0-0.2,0-0.5-0.2-0.6
		c-0.2-0.1-0.5-0.2-0.4-0.5s0.4-0.2,0.7-0.3c0.5,0,1.1,0,1.6,0l0,0c0.5,0,1,0,1.5,0c0.6,0,0.9,0.2,1,0.8
		C162.3,84.5,162.6,84.9,162.2,85z M168.2,89.8c-0.1,0.4-0.4,0.4-0.7,0.4h-2v0h-2.1c-0.2,0-0.4-0.1-0.5-0.3
		c-0.1-0.3,0.1-0.3,0.3-0.4c0.5-0.1,0.4-0.5,0.4-0.8c0-1.3,0-2.6,0-3.9c0.1-0.3-0.1-0.7-0.3-0.9c-0.5-0.4-0.3-0.6,0.2-0.6
		c1.3,0,2.6,0,3.9,0c0.5,0,1,1,0.8,1.4c0,0.1-0.2,0.2-0.3,0.2c-0.2,0-0.4-0.1-0.5-0.4c-0.3-1-1.2-0.8-1.8-0.6
		c-0.6,0.2-0.3,1-0.3,1.5c0,0.3-0.1,0.7,0.4,0.7s0.9,0.1,0.9-0.5c0-0.1,0.1-0.3,0.3-0.2c0,0,0,0,0.1,0c0.2,0.1,0.3,0.2,0.2,0.4
		c0,0.4,0,0.7,0,1.1c0,0.3,0.1,0.7-0.2,0.8c-0.4,0.2-0.4-0.3-0.5-0.5c-0.2-0.3-0.6-0.2-0.9-0.2c-0.3,0-0.4,0.3-0.4,0.6
		c0,0.1,0,0.2,0,0.3c0.2,0.5-0.4,1.3,0.3,1.4c0.7,0.1,1.8,0.6,2.2-0.7c0-0.1,0.2-0.2,0.3-0.2c0.1,0,0.2,0.1,0.2,0.1
		C168.4,88.9,168.4,89.4,168.2,89.8L168.2,89.8z M173.1,90.2c-0.3,0-0.6,0-1,0h-0.9v0c-0.6,0-1.3,0-1.9,0c-0.2,0-0.4,0-0.5-0.2
		c-0.1-0.2,0.1-0.4,0.3-0.5c0.4-0.2,0.4-0.5,0.4-0.9c0-1.3,0-2.6-0.1-3.9c0-0.3,0-0.5-0.2-0.7c-0.2-0.1-0.5-0.2-0.3-0.5
		c0.1-0.2,0.3-0.2,0.5-0.2c0.6,0,1.2,0,1.8,0c0.2,0,0.3,0.1,0.4,0.2c0.1,0.1,0,0.3-0.2,0.3c0,0,0,0-0.1,0c-0.6,0.1-0.5,0.5-0.5,0.9
		c0,1.3,0,2.5,0,3.8c0,0.5,0.2,0.8,0.7,0.7c0.8,0,1.7,0.3,1.9-0.9c0.1-0.3,0.4-0.3,0.6,0c0.2,0.7-0.1,1.4-0.8,1.7
		C173.3,90.2,173.2,90.2,173.1,90.2L173.1,90.2z"/>
	<path class="st0" d="M142.3,174.9"/>
	<path class="st1" d="M145.1,175.1c8-2.4,6-8.8,21.7-19.8c6.7-4.7,7.6-5,8.8-5.4c7.5-2,16.4,1.2,21.7,7.1c5.7,6.2,5.8,13.6,5.9,23
		c0.2,10.5-2.9,16.2-3.8,17.8c-0.9,1.6-1.9,3-3.1,4.4c-8.5,9.4-25,1-49.3,5.2c-13.5,2.3-16.9,6.4-24.7,3.7
		c-7.1-2.5-16.5-10.3-14.6-19.2c1.6-7.3,10.3-13.2,20.5-12l0,0C140,177.1,145.1,175.1,145.1,175.1z"/>
	<path class="st8" d="M126.2,180c-0.2-0.6,8.7-2.7,20.2-9.9c3.2-2,6.4-4.2,9.4-6.6c10.5-8.3,10.8-11.9,16.7-14.2
		c7.7-3.1,15.3-0.1,16.3,0.3c9.1,3.7,12.6,12.5,13.8,15.5c6.2,15.6-1.7,31.6-2.9,31.4c-1.4-0.2,6.7-22.9-4.2-34.3
		c-0.3-0.3-8-8-17.7-7.2c-1.8,0.2-3.5,0.6-5.2,1.3c-5.5,2.2-7.7,6-10.9,9.4c-3.5,3.6-7.8,5.4-16.3,8.9
		C135.6,178.8,126.4,180.5,126.2,180z"/>
	<path class="st8" d="M164,181.3c0,0.2,0.1,0.6,0.8,1.6c0.7,0.9,5.3,6.6,11.3,5.6c7.5-1.1,11.2-11.6,8.9-14.4
		C181.9,170.1,163.8,176.8,164,181.3z"/>
	<path class="st1" d="M138.4,157.6c1.3-1.5,1.5-3.3,1.6-4.4c0.9-7.4-0.4-9.6,0.4-12.9c1.1-4.6,5.5-8.9,10.6-10
		c0.5-0.1,7.3-1.4,11.5,3.3c3.4,3.9,3.6,10.1,1,13.3c-1.4,1.8-3.1,1.9-5.7,3c-7,3-11.9,9.7-13.5,14.5c-0.2,0.6-0.3,1.3-0.5,1.9
		c-1.4,7.5,2.3,13,3.6,16.7c3.2,9-2.3,20.3-7.5,26.3c-1.1,1.3-12.3,13.9-27.8,10.3c-11.8-2.7-19.9-13.5-20.8-24.5
		c-0.7-9.2,3.6-18.8,10.6-23.8c4.5-3.2,13.5-5.9,31.4-11.1C135,159.8,136.9,159.3,138.4,157.6z"/>
	<path class="st9" d="M147.5,156.3c2.2-1.9,4.4-3.2,4.5-3.1s-0.7,0.6-1.8,1.8c-2.4,2.5-3.6,3.7-3.7,5c0,1.1-0.2,2.3-0.5,3.4l0,0
		c-0.2,0.6-0.3,1.3-0.5,1.9c-1.4,7.5,2.3,13,3.6,16.7c3.3,9.2-2.8,20.8-7.5,26.3c-7.8,9.3-23.3,16-35.7,9.8
		c-12.7-6.3-15.9-23-14.4-23.9c1.9-1.1,10.3,21.3,25.8,22.3c10.2,0.7,21.3-8.2,25.8-17.6c1.2-2.4,2.8-5.9,2.9-10.6
		c0-6.9-3.5-11.4-2.4-17.1c0.3-1.6,0.5-3.2,0.3-4.8c-0.2-1.8-0.5-2.5-1-4.5c-1-4.1-0.8-7.6-0.5-7.7c0.3,0,0.5,3.9,2.2,4.3
		C145.4,158.6,145.8,157.8,147.5,156.3z"/>
	<path class="st8" d="M140.2,143.6c1.2,3.7,1.9,7.5,2.2,11.3c0.2,2.8,0,4.2,0.7,6.8c0.5,1.5,0.8,3,0.9,4.6c0.1,1.5,0.1,2.5-0.4,3.3
		c-1.2,1.8-5.2,1-7.2,0.8c-10.5-0.8-16.2,14.4-22.6,12.5c-4-1.2-6.4-8.5-5.3-13c0.1-0.6,0.4-1.2,0.7-1.7c1.7-2.6,5-2.2,10.5-3.3
		c5.1-1.1,3.7-1.7,11-3.6c2.3-0.6,4.5-1.6,6.5-2.8c1.2-0.7,2.2-1.6,2.8-2.8c0.4-0.9,0.7-1.8,0.7-2.8"/>
	
		<radialGradient id="SVGID_2_" cx="-442.3313" cy="-33.6689" r="2.3588" gradientTransform="matrix(1.9 0 0 -1.87 990.298 118.9946)" gradientUnits="userSpaceOnUse">
		<stop  offset="8.000000e-02" style="stop-color:#668A3F"/>
		<stop  offset="1" style="stop-color:#185935"/>
	</radialGradient>
	<path class="st10" d="M145,180.2c-0.2,0.6,0.3,1.1,2.7,4.1c1.3,1.6,1.4,1.8,1.8,2c2.1,1.3,5,0.6,5,0c0.1-0.6-2.4-0.3-4.3-2.1
		c-2.2-2.1-1.7-5.1-3.2-5.3C146.1,178.8,145.3,179.3,145,180.2z"/>
	
		<radialGradient id="SVGID_3_" cx="-426.6625" cy="51.0597" r="27.1585" gradientTransform="matrix(1 0 0 -1 603.83 249.2178)" gradientUnits="userSpaceOnUse">
		<stop  offset="8.000000e-02" style="stop-color:#668A3F"/>
		<stop  offset="1" style="stop-color:#185935"/>
	</radialGradient>
	<path class="st11" d="M211.4,205.8c0.6,0.6,0.3,2.1-0.2,3c-1,2-3.6,3.8-6.1,3.5c-3.7-0.4-4.2-4.9-8.7-5.8c-1.2-0.2-2.2-0.1-4.2,0.3
		c-4.2,0.8-6.5,2.1-14.4,5.8c-3.9,1.8-4.6,2-5.6,2.2c-4.1,0.7-7.4-0.6-9.3-1.3c-6.8-2.7-9.1-7.2-15.7-13.2c-0.9-0.8-1.6-1.7-2.3-2.6
		c-0.8-1-1.3-2.2-1.7-3.4c-0.4-1.3-0.7-2.6-0.1-3.6c0.5-0.8,1-0.5,1.8-1.5c0.9-1.1,0.5-1.7,1.3-2.5c0.5-0.5,0.8-0.4,2.1-1
		c0.9-0.4,1.7-0.8,2.5-1.3c2.4-1.4,2.4-2.2,3.6-2.6c1.8-0.6,3.6,0.4,4.6,0.9c2.6,1.4,3,3.2,6.3,8.1c1.8,2.6,2.7,4,4.3,5.7
		c2.5,2.7,4.8,5.2,8,5.4c2.3,0.2,2.8-1.1,8-3.2c5.2-2.2,7.7-3.2,10.3-2.5c4.3,1.1,8.2,6.4,8.5,6.8c1,1.3,1.8,2.9,3.5,3.2
		C209.4,206.3,210.7,205.1,211.4,205.8z"/>
	<path class="st4" d="M233,163.3"/>
</g>
</svg>
