<?xml version="1.0" encoding="utf-8"?>
<!-- Generator: Adobe Illustrator 25.2.3, SVG Export Plug-In . SVG Version: 6.00 Build 0)  -->
<svg version="1.1" id="Calque_2" xmlns="http://www.w3.org/2000/svg" xmlns:xlink="http://www.w3.org/1999/xlink" x="0px" y="0px"
	 viewBox="0 0 1024 768" style="enable-background:new 0 0 1024 768;" xml:space="preserve">
<style type="text/css">
	.st0{fill:#CAA359;}
	.st1{fill:#E1B563;}
	.st2{fill:#D89833;}
	.st3{fill:#F2D188;}
	.st4{fill:#ECB22C;}
</style>
<polygon class="st0" points="430.1,272.5 489.7,265.2 593.5,293 592.2,340.3 "/>
<path class="st1" d="M595.9,496.4c-7.5,6.1-42.9,15.6-65.9,16.4c0,0-0.4-19.2-0.8-46c-0.1-5.5-0.2-11.4-0.3-17.5
	c-0.2-11.2-0.3-23.2-0.5-35.4c-0.1-9.9-0.2-19.9-0.3-29.7c-0.3-34.5-0.3-66.2,0.3-80c11.5-1,56-10,65.1-11.1
	c0.3,7-0.8,89.6-1.1,104.2C592.2,411.8,595.6,484.1,595.9,496.4z"/>
<path class="st2" d="M576.6,440.4c0-0.5-0.1-1-0.2-1.6c-0.1-0.6-0.3-1.3-0.6-1.9c-0.2-0.5-0.5-0.9-0.8-1.3c-0.2-0.2-0.4-0.5-0.5-0.7
	c-0.3-0.4-0.7-0.7-1.1-0.9c-0.1-0.1-0.3-0.2-0.5-0.2c-0.1-0.2-0.3-0.4-0.4-0.6c-0.2-0.2-0.5-0.4-0.7-0.6c-0.2-0.1-0.5-0.2-0.7-0.3
	l-0.4-0.1c-0.4-0.1-0.9-0.2-1.4-0.2h-0.2c-1,0-2,0.3-3,0.8c-0.7,0.4-1.4,0.8-2,1.3c-0.5,0.4-1,0.8-1.4,1.2c-0.4,0.5-0.7,0.9-1,1.4
	c-0.3,0.4-0.5,0.9-0.7,1.4c-0.2,0.4-0.3,0.8-0.4,1.2c-0.2,1-0.4,2-0.4,3c0,1,0.3,2,0.8,2.9c0.2,0.3,0.4,0.7,0.6,1
	c0.2,0.2,0.4,0.5,0.6,0.7c0.3,0.4,0.7,0.7,1.1,1c0.4,0.3,0.9,0.5,1.4,0.6c0.2,0.1,0.5,0.1,0.7,0.2s0.7,0.2,1.1,0.2
	c0.9,0.2,1.8,0.3,2.7,0.3c0.3,0,0.7,0,1,0c0.5,0,0.9-0.1,1.3-0.3c0.3-0.1,0.6-0.2,1-0.4s0.7-0.3,1-0.5c0.8-0.4,1.5-1.1,1.9-1.9
	C576.5,444.4,576.8,442.4,576.6,440.4z"/>
<path class="st2" d="M543,456c0,0.9-0.3,1.7-0.6,2.5c-0.7,1.6-1.5,3-2.6,4.3l-0.5,0.7c-0.3,0.5-0.7,1-1.1,1.5
	c-0.6,0.6-1.2,1.1-2,1.5c-0.4,0.2-0.9,0.4-1.4,0.5c-0.5,0.1-1,0.1-1.5,0.1h-0.3c-0.3,0-0.5,0-0.8,0h-0.2c-0.1,0-0.2,0-0.2,0
	c-0.1,0-0.2,0-0.4,0c-0.1,0-0.3,0.1-0.4,0l-1.9-0.5c-0.1-5.5-0.2-11.4-0.3-17.5c0.2-0.1,0.3-0.1,0.5-0.1c0,0,0.1,0,0.1,0
	c0-0.2,0.1-0.4,0.3-0.6c0.2-0.2,0.5-0.4,0.9-0.4c0.5-0.1,1-0.1,1.5-0.1h0.1c0.2,0,0.5,0.1,0.7,0.2c0.5-0.1,1-0.1,1.6-0.1l0,0.1
	c0.2,0,0.5,0,0.7,0c0.8,0.1,1.7,0.2,2.5,0.5c1,0.3,1.9,0.8,2.7,1.5c0.3,0.3,0.6,0.6,0.8,0.9l0.1,0.1c0.3,0.3,0.5,0.6,0.8,1
	c0.4,0.7,0.6,1.4,0.7,2.1C542.9,454.9,543,455.5,543,456z"/>
<path class="st2" d="M544.9,397.1c0-0.8-0.1-1.5-0.3-2.3c-0.2-0.6-0.3-1.2-0.6-1.7c-0.3-0.7-0.6-1.4-1.1-2c-0.6-1.1-1.4-2.1-2.3-3
	c-0.5-0.5-1-0.9-1.6-1.2c-0.5-0.3-0.9-0.5-1.3-0.8c-0.9-0.6-1.9-1.1-2.9-1.3c-0.2,0-0.3-0.1-0.5-0.1c-0.1,0-0.1-0.1-0.2-0.1
	c-0.5-0.2-0.9-0.2-1.4-0.4c-0.2,0-0.3-0.1-0.5-0.1c-0.1,0-0.2-0.1-0.3-0.1c-0.3-0.1-0.7-0.2-1.1-0.2c-0.3,0-0.7-0.1-1-0.1h-1l0,0
	c-0.3,0-0.6,0.2-0.8,0.5c0.1,9.8,0.2,19.8,0.3,29.7c0.4,0.2,0.9,0.2,1.2,0c0.1-0.1,0.2-0.2,0.3-0.3c0,0,0.1,0,0.1,0
	c0.1,0,0.2,0,0.3,0c0.3,0,0.6,0,0.9-0.1c0.4-0.2,0.9-0.3,1.3-0.5c0.6-0.2,1.2-0.5,1.8-0.9l1.4-0.9l0.8-0.6l0.7-0.5l0.4-0.3l0.2-0.1
	c0.3-0.2,0.6-0.4,0.8-0.6c0.6-0.4,1.2-0.9,1.7-1.4l0.2-0.1c0.4-0.3,0.8-0.7,1.1-1c0.4-0.4,0.8-0.9,1.2-1.4l0.1-0.2
	c0.4-0.5,0.7-1,0.9-1.5c0.3-0.6,0.6-1.3,0.8-2c0.1-0.3,0.1-0.5,0.2-0.8v-0.3c0.1-0.4,0.1-0.8,0.1-1.2
	C545,398.4,545,397.6,544.9,397.1z M530.8,389.8L530.8,389.8l0-0.2l0,0V389.8z M530.9,389.8L530.9,389.8L530.9,389.8
	C530.9,389.8,530.9,389.8,530.9,389.8C530.9,389.8,530.9,389.8,530.9,389.8z"/>
<path class="st2" d="M580.3,330.5c-0.9,0-1.8,0.2-2.7,0.6c-0.8,0.4-1.6,1-2.3,1.6c-0.7,0.6-1.3,1.2-1.9,1.8
	c-1.1,1.3-2.1,2.7-2.8,4.2c-0.8,1.6-1.4,3.3-1.8,5.1c-0.4,2-0.4,4.1,0,6.1c0.3,0.9,0.7,1.8,1.2,2.6c0.2,0.3,0.4,0.7,0.6,1
	c0.2,0.3,0.4,0.6,0.7,0.9c0.3,0.3,0.6,0.5,0.9,0.8l0.2,0.1l0.8,0.5l0.3,0.2c0.8,0.5,1.7,0.8,2.6,0.9c1,0.2,2.1,0.3,3.2,0.3h0.2
	c0.9,0,1.8-0.1,2.6-0.3c0.5-0.1,0.9-0.3,1.3-0.5l0.3-0.1l0.5-0.2c0.4-0.2,0.8-0.4,1.1-0.6c0.7-0.4,1.4-1,2-1.6
	c0.7-0.9,1.2-1.9,1.5-3c0.5-2,0.7-4,0.7-6v-0.2c0.1-1.7,0.1-3.4,0-5.1c-0.1-1-0.2-1.9-0.5-2.8c-0.3-0.9-0.7-1.8-1.2-2.6l-0.5-0.6
	l-0.1-0.1l-0.1-0.1c-0.2-0.2-0.3-0.4-0.5-0.6c-0.4-0.4-1-0.7-1.6-0.7h-0.1l-0.3-0.2l-0.3-0.2c-0.5-0.3-1-0.5-1.5-0.6
	c-0.6-0.2-1.2-0.3-1.8-0.4c-0.2,0-0.4,0-0.5,0L580.3,330.5z"/>
<path class="st2" d="M540.2,352.5c-0.2,0-0.4,0-0.6,0.1h-0.2c-0.6,0.1-1.3,0.3-1.8,0.5c-0.8,0.3-1.5,0.8-2.2,1.3
	c-0.5,0.3-0.9,0.7-1.3,1.1c-0.3,0.3-0.6,0.6-0.8,1l-0.2,0.2c-0.7,0.9-1.2,1.9-1.5,3c-0.1,0.5-0.2,1.1-0.3,1.6v0.1
	c-0.1,0.4-0.1,0.9-0.1,1.3c0,1.1,0.3,2.2,0.7,3.2c0.5,0.9,1.2,1.7,2.1,2.1c0.6,0.3,1.3,0.5,2,0.6c0.4,0.1,0.9,0.1,1.4,0.2
	c0.2,0,0.4,0,0.6,0c0.8,0,1.7-0.1,2.5-0.4c0.7-0.2,1.3-0.6,1.9-0.9c0.6-0.4,1.2-0.9,1.7-1.5c0.4-0.5,0.8-1,1.1-1.5
	c0.2-0.4,0.4-0.8,0.6-1.2c0.2-0.4,0.3-0.9,0.3-1.4c0.1-0.8,0.2-1.7,0.2-2.6c0-1-0.2-2-0.8-2.9c0.2-0.6,0.1-1.2-0.3-1.7l-0.2-0.2
	c-0.3-0.3-0.7-0.6-1.1-0.9c-0.3-0.2-0.6-0.4-1-0.6c-0.4-0.1-0.7-0.3-1.1-0.3c-0.2,0-0.4-0.1-0.6-0.1l-0.7-0.1h-0.2H540.2
	L540.2,352.5z"/>
<path class="st3" d="M530,512.8c-8.2-2.8-94.1-51.9-101.4-61.1c-0.4-8.2-0.4-8.9-0.4-8.9c7.6-1.2,7.1-7.6,7.1-10.8s-2.6-7.5-7.1-7.5
	c0-6.4,0.5-65.7,0.5-65.7c6.2-2.2,6.1-6.6,6.1-10.7s-1.2-9.4-5.3-11.9c0-9.7-2.4-59.3,0.6-63.8c8.1,3.1,98.3,31.5,98.3,31.5
	L530,512.8z"/>
<path class="st4" d="M459,316.4h-0.4c-1.1,0.1-2,0.7-2.6,1.6c-0.5,0.7-0.8,1.5-1,2.4c-0.2,1-0.4,1.9-0.4,2.9c0,0.5,0,1,0.1,1.5
	c0,0.2,0.1,0.4,0.1,0.6c0.3,1,0.9,1.9,1.7,2.5c0.4,0.2,0.7,0.4,1.1,0.5c0.2,0.1,0.4,0.1,0.6,0.2c0.5,0.1,1,0.2,1.5,0.2h0.2
	c0.9,0,1.7-0.2,2.5-0.6c0.6-0.3,1.1-0.7,1.5-1.2c0.5-0.7,0.8-1.6,0.8-2.5c0.1-1,0-1.9-0.3-2.9c-0.2-0.6-0.5-1.2-0.8-1.8
	c-0.1-0.3-0.3-0.6-0.5-0.9c0.1-0.6-0.1-1.2-0.7-1.4c-0.8-0.4-1.6-0.7-2.4-1C459.8,316.4,459.4,316.4,459,316.4L459,316.4z"/>
<path class="st4" d="M477.6,431.8c-1.2,0.4-2.2,1.5-2.4,2.8c-0.4,1.3-0.4,2.6,0,3.9c0.4,1.3,1.6,2.2,3,2.3c0.7,0,1.4-0.1,2-0.4
	c0.6-0.3,1.1-0.7,1.5-1.2c0.5-0.7,0.8-1.6,0.8-2.5c0.1-0.9-0.1-1.8-0.5-2.6c-0.2-0.3-0.5-0.6-0.8-0.8c-0.2-0.6-0.6-1-1.2-1.1
	c-0.6-0.2-1.2-0.4-1.9-0.4C478,431.7,477.8,431.7,477.6,431.8L477.6,431.8z M478.2,435.2L478.2,435.2z M478.7,436.1v0.1
	c0,0.1,0,0.3,0,0.4c0,0.1,0,0.2-0.1,0.3C478.6,436.6,478.6,436.4,478.7,436.1L478.7,436.1L478.7,436.1z M478.3,436.9l0.1,0.1
	L478.3,436.9z M478.8,437.4L478.8,437.4L478.8,437.4z"/>
<path class="st4" d="M455.6,443.1c-0.2,0-0.5,0-0.7,0.1l-0.6,0.3c-0.5,0.2-0.9,0.5-1.2,0.9c-0.2,0.2-0.3,0.4-0.5,0.5
	c-0.4,0.4-0.7,0.9-1,1.4c-0.5,0.9-0.8,1.9-1,2.9c-0.3,1.3-0.4,2.6-0.3,3.9c0.1,0.8,0.4,1.6,0.8,2.3c0.2,0.4,0.5,0.7,0.8,1
	c0.7,0.7,1.7,1.3,2.7,1.5c0.6,0.2,1.2,0.3,1.7,0.3c0.7,0.1,1.4,0,2-0.2c0.5-0.1,0.9-0.4,1.3-0.6c0.4-0.3,0.8-0.6,1.1-1
	c0.3-0.3,0.6-0.7,0.9-1.1c0.4-0.6,0.6-1.3,0.7-2c0.5-2,0.4-4.2-0.2-6.1c-0.1-0.4-0.3-0.7-0.5-1.1c-0.2-0.3-0.4-0.6-0.6-0.9
	c-0.3-0.4-0.7-0.8-1.1-1c-0.6-0.5-1.4-0.7-2.1-0.6h-0.1c-0.4-0.3-0.9-0.5-1.4-0.6c-0.2,0-0.4-0.1-0.6-0.1L455.6,443.1L455.6,443.1z"
	/>
<path class="st4" d="M503.5,417.5c-0.1-0.6-0.3-1.2-0.5-1.8c-0.1-0.3-0.3-0.6-0.5-0.9c0-0.2-0.1-0.4-0.1-0.6c-0.2-1-0.6-2-1-3
	c-0.3-0.5-0.6-1-1-1.5l-0.2-0.3l-0.1-0.1l-0.1-0.1c-0.2-0.1-0.3-0.3-0.5-0.4c-0.3-0.2-0.6-0.2-1-0.2l-0.3-0.2
	c-0.4-0.3-0.9-0.5-1.4-0.5l0.1,0h-0.1c-0.3,0-0.6,0.1-1,0.1c-0.3,0.1-0.5,0.2-0.8,0.3c-0.3,0.1-0.5,0.3-0.8,0.5l-0.1,0.1
	c-0.3,0.3-0.6,0.6-0.8,0.9l-0.1,0.2c-0.2,0.3-0.4,0.6-0.6,0.9c-0.9,1.8-1.5,3.7-1.7,5.7c-0.1,0.9-0.2,1.8-0.2,2.7
	c0,1.1,0.2,2.1,0.4,3.1c0.4,1.6,1,3,1.8,4.4c0.2,0.4,0.5,0.8,0.7,1.1c0.5,0.7,1.1,1.3,1.8,1.8c0.4,0.3,0.9,0.5,1.4,0.6
	c0.4,0.1,0.8,0.2,1.3,0.2h0.2c0.8,0,1.5-0.3,2.1-0.7c0.3-0.2,0.6-0.5,0.8-0.7c0.1-0.1,0.2-0.2,0.2-0.3c0.3-0.4,0.6-1,0.8-1.5
	c0.2-0.5,0.2-1.1,0.3-1.6c0.1-0.2,0.1-0.4,0.2-0.6c0.2-0.5,0.4-1.1,0.7-1.7c0.3-0.7,0.4-1.4,0.5-2.2
	C504.1,420.2,503.9,418.8,503.5,417.5z"/>
<path class="st4" d="M496.9,350c-0.1-0.4-0.3-0.7-0.5-1c-0.1-0.2-0.2-0.3-0.4-0.4c0-0.2,0-0.4-0.1-0.5c-0.1-0.2-0.3-0.5-0.6-0.6
	c-0.2-0.1-0.5-0.3-0.7-0.3c-0.3-0.1-0.5-0.1-0.8-0.1c-0.4,0-0.8-0.1-1.1-0.1c-0.1,0-0.3,0-0.4,0.1c-0.1,0-0.3,0-0.4,0v0
	c-0.5,0.1-1,0.4-1.4,0.8c-0.4,0.5-0.7,1-0.8,1.6c-0.4,1.5-0.4,3.3,0.8,4.5c0.7,0.6,1.6,0.9,2.5,0.9c0.8,0,1.6-0.2,2.3-0.5
	c0.3-0.1,0.5-0.3,0.7-0.5c0.2-0.2,0.4-0.4,0.6-0.7c0.2-0.3,0.3-0.6,0.4-0.9c0.1-0.2,0.1-0.5,0.1-0.7
	C497.1,351,497.1,350.5,496.9,350z"/>
<path class="st4" d="M521.3,334.8c-0.1,0-0.3,0-0.5,0l-0.7,0.1c-0.4,0.1-0.7,0.2-1.1,0.4c-0.7,0.4-1.2,1-1.6,1.7c-0.5,0.9-0.8,2-1,3
	c-0.1,0.4-0.2,0.9-0.2,1.3v0.2l-0.1,0.5c0,0.3-0.1,0.7-0.1,1c-0.1,0.9-0.1,1.8-0.2,2.9v0.1c-0.1,1,0,2,0.3,3
	c0.3,0.6,0.6,1.2,1.1,1.7c0.2,0.3,0.5,0.5,0.8,0.8c0.5,0.4,1,0.7,1.5,0.9c0.4,0.1,0.8,0.2,1.2,0.2c1.1,0,2.2-0.4,3-1.3
	c0.5-0.5,0.9-1,1.1-1.6c0.3-0.6,0.6-1.3,0.7-2c0.2-0.8,0.3-1.6,0.3-2.4c0-0.6,0-1.2-0.1-1.8l0,0c-0.2-1.2-0.3-2.5-0.5-3.7
	c-0.1-0.6-0.3-1.1-0.4-1.7c-0.2-0.8-0.6-1.6-1.2-2.2c-0.3-0.3-0.6-0.5-1-0.5c-0.1-0.2-0.3-0.4-0.5-0.5
	C521.9,334.9,521.6,334.8,521.3,334.8L521.3,334.8z"/>
<path class="st4" d="M464.6,360.4h-0.2c-0.6,0-1.2,0.1-1.9,0.2c-0.6,0.2-1.1,0.4-1.6,0.8c-0.4,0.4-0.8,0.8-1,1.3
	c-0.2,0.5-0.5,1-0.7,1.5c-0.2,0.4-0.3,0.8-0.4,1.2c-0.4,1.8-0.6,3.7-0.6,5.5c0,0.8,0,1.6,0,2.5c0.1,0.9,0.3,1.7,0.5,2.6
	c0.2,0.9,0.5,1.7,0.9,2.5c0.4,0.8,0.9,1.5,1.4,2.1c0.5,0.6,1.1,1.1,1.7,1.4c0.6,0.4,1.3,0.5,2.1,0.5h0.4c0.9-0.1,1.7-0.5,2.3-1.1
	c0.6-0.6,1-1.3,1.4-2c0.3-0.7,0.6-1.5,0.8-2.2c0.4-1.7,0.6-3.5,0.6-5.2c0-0.5,0-1-0.1-1.5c0-0.2,0-0.4-0.1-0.7
	c-0.1-0.9-0.2-1.8-0.4-2.7c-0.2-0.9-0.4-1.7-0.7-2.6c-0.2-0.6-0.4-1.1-0.8-1.6c-0.2-0.3-0.4-0.5-0.6-0.7c-0.2-0.1-0.3-0.3-0.5-0.4
	c-0.2-0.1-0.4-0.3-0.6-0.4l-0.1-0.1c-0.1,0-0.1-0.1-0.2-0.1c-0.4-0.3-0.8-0.5-1.3-0.5C465,360.5,464.8,360.4,464.6,360.4
	L464.6,360.4z"/>
<path class="st4" d="M460.4,407.2c0-0.1,0-0.2-0.1-0.4c-0.1-0.2-0.2-0.5-0.3-0.7c0-0.4-0.2-0.8-0.5-1.2c-0.4-0.4-0.8-0.7-1.2-1
	c-0.4-0.2-0.8-0.3-1.2-0.3c-0.5,0-0.9,0.1-1.3,0.4l0,0c-0.9,0.8-1.5,1.8-1.8,3c-0.3,0.8-0.4,1.7-0.5,2.6c-0.1,0.8,0,1.7,0.2,2.5
	c0.2,0.5,0.4,0.9,0.7,1.3c0.4,0.5,0.9,1,1.6,1.2c0.5,0.1,1,0.2,1.5,0.1c0.5-0.1,1-0.4,1.4-0.7c0.4-0.4,0.8-0.9,1-1.5
	c0.4-1,0.7-2.1,0.7-3.1C460.6,408.7,460.6,407.9,460.4,407.2z M457.2,408.5C457.2,408.5,457.1,408.5,457.2,408.5
	C457.1,408.5,457.1,408.5,457.2,408.5C457.1,408.5,457.1,408.4,457.2,408.5C457.1,408.4,457.1,408.5,457.2,408.5L457.2,408.5z"/>
<path class="st4" d="M488.3,386.2c-0.1-0.5-0.1-1.1-0.2-1.6c-0.1-0.5-0.2-0.9-0.3-1.4c-0.1-0.6-0.3-1.2-0.7-1.7
	c-0.1-0.2-0.2-0.3-0.4-0.4c0-0.2,0-0.4-0.1-0.6c-0.1-0.5-0.5-0.9-0.9-1.2c-0.5-0.3-1.1-0.5-1.6-0.7c-0.2-0.1-0.5-0.1-0.7-0.1
	c-0.4,0-0.7,0.1-1.1,0.2l0,0c-0.4,0.1-0.7,0.3-1,0.6c-0.2,0.3-0.4,0.5-0.6,0.8c-0.3,0.5-0.6,1-0.7,1.6c-0.2,0.5-0.3,1.1-0.4,1.6
	c-0.1,0.7-0.2,1.5-0.2,2.2l-0.1,1.4c0,0.8,0.1,1.7,0.3,2.5c0.2,0.9,0.7,1.8,1.4,2.5c0.5,0.4,1.1,0.7,1.8,0.9c0.6,0.1,1.2,0.1,1.8,0
	c0.5-0.1,1-0.4,1.5-0.7c0.4-0.3,0.8-0.6,1.1-1c0.3-0.4,0.6-0.8,0.8-1.3c0.1-0.3,0.2-0.7,0.3-1c0.1-0.6,0.2-1.1,0.2-1.7
	C488.4,387,488.3,386.6,488.3,386.2z M483.7,389.2h-0.1c0-0.1-0.1-0.2-0.1-0.3c0-0.1,0-0.1,0-0.2c0.2,0.1,0.4,0.2,0.6,0.3
	C484,389.1,483.9,389.2,483.7,389.2L483.7,389.2z"/>
<path class="st4" d="M529,383.6c-5.8,0-13.5,6.1-13.5,14.3c0,8.2,8,16.3,13.7,16.1C529.2,410,529,383.6,529,383.6z"/>
<path class="st4" d="M529.5,449.1c-3.5,1.3-17,9.5,0.1,17.7C529.6,464.4,529.5,449.1,529.5,449.1z"/>
</svg>
