<?xml version="1.0" encoding="utf-8"?>
<!-- Generator: Adobe Illustrator 25.1.0, SVG Export Plug-In . SVG Version: 6.00 Build 0)  -->
<svg version="1.1" id="Calque_1" xmlns="http://www.w3.org/2000/svg" xmlns:xlink="http://www.w3.org/1999/xlink" x="0px" y="0px"
	 viewBox="0 0 297.6 297.6" style="enable-background:new 0 0 297.6 297.6;" xml:space="preserve">
<style type="text/css">
	.st0{fill:#F1DFDA;}
	.st1{fill:#BE6F1B;}
	.st2{fill:#A49175;}
	.st3{fill:#E4AD2E;}
	.st4{fill:#8E7559;}
	.st5{fill:#AFABA7;}
	.st6{fill:#F4D06F;}
	.st7{fill:#80331D;}
	.st8{fill:#C1C5CE;}
</style>
<path class="st0" d="M227.4,277.4l-1.2-0.2c0.5-0.8,0.9-1.8,1.6-2.3c0.9-0.6,1.9-0.6,2.4,0.8L227.4,277.4z"/>
<path class="st1" d="M44.2,21.7c1-2,1-5.5,4.9-3.3l-1.5,2.1c-0.6,3.9-1.2,7.8-1.8,11.7c-0.1,0.1-0.1,0.2-0.1,0.3L45.4,33l-0.4,1.3
	C43.2,30.2,43.1,26.1,44.2,21.7z"/>
<path class="st2" d="M47.5,20.6c0.5-0.7,1-1.4,1.5-2.1c2.3,0.8,4.8,1.4,6.3,3.6c0,0.1,0,0.1-0.1,0.2l-2.8-0.4
	C50.9,20.9,49.5,19.8,47.5,20.6z"/>
<path class="st3" d="M55.3,22.3c0-0.1,0.1-0.1,0.1-0.2l6.7,3C59.2,25.5,57.2,24.1,55.3,22.3z"/>
<path class="st4" d="M82.1,34.9l-4-2.7l5,2.2L82.1,34.9z"/>
<path class="st0" d="M278.9,210c-0.2,2.8,2.7,0.7,3.3,2.2c-0.1,0.5-0.2,1-0.3,1.5l-0.8,0.4c-0.9-0.1-1.9-0.1-2.6-0.5
	c-1.2-0.7-3-1.6-3.3-2.6c-0.6-3-0.3-6.1,1.9-8.4c0.4-0.4,2-0.5,2.3-0.1c1.7,2,0,3.9-0.4,5.9C279,208.8,279,209.4,278.9,210z"/>
<path class="st3" d="M285.7,198.4c-4.3,1.4-4.1-2.7-5.7-4.7l6.6,0.8C286.3,195.8,286,197.1,285.7,198.4z"/>
<polygon class="st4" points="277.8,173.2 277.9,173.2 277.9,173.3 "/>
<path class="st5" d="M269.6,199.5l6,1.5c6.8,0.9,5.2,4.9,3.2,9c0.1-0.6,0.1-1.1,0.2-1.7c0.4-2,2.1-3.9,0.4-5.9
	c-0.3-0.4-1.9-0.3-2.3,0.1c-2.3,2.4-2.5,5.5-1.9,8.4c0.2,1.1,2,1.9,3.3,2.6c0.7,0.4,1.8,0.3,2.6,0.5c0,0.1,0,0.3,0,0.5l-3.5-0.4
	l-3.1-1.6c-0.1-0.2-0.1-0.4-0.2-0.5l-0.3-3.6c-0.7-1.4-1.4-2.9-2.1-4.3l1.8,2.1c0.4-1.3,1.3-2.7,1.1-4c-0.1-0.7-1.8-1.3-2.8-1.9
	l-1,1.9L269.6,199.5z"/>
<path class="st1" d="M275.1,227.1c-0.7-0.5-2-1.2-1.9-1.5c0.7-1.8-2.2-3.4-0.2-5.1c2.3-1.9,3,0.6,4.4,1.5c0,0.2,0,0.4,0,0.6
	c-0.1,0.1-0.1,0.1-0.1,0.3c-0.1,0.1-0.1,0.3-0.2,0.4c-0.1,0.2-0.3,0.4-0.4,0.7L275.1,227.1z"/>
<path class="st3" d="M274.6,212.5l3.1,1.6c1.7,2.7,0,3.5-2.2,4c-0.1-0.1-0.1-0.1-0.1-0.2C276.9,215.9,274.2,214.4,274.6,212.5z"/>
<path class="st5" d="M269.9,236.3c0-0.8-0.2-1.8,0.1-2.5c0.2-0.5,1.2-0.6,1.8-0.9L269.9,236.3z"/>
<path class="st0" d="M269.9,236.3l1.9-3.4h0.4l-2.1,3.9C270,236.7,269.9,236.5,269.9,236.3z"/>
<path class="st3" d="M276.6,223.9c0.1-0.2,0.3-0.4,0.4-0.7C276.9,223.4,276.7,223.7,276.6,223.9z"/>
<path class="st3" d="M277.2,222.8c0-0.1,0-0.2,0.1-0.3C277.3,222.7,277.3,222.8,277.2,222.8z"/>
<path class="st3" d="M48.1,32l-2.3,0.4c0.6-3.9,1.2-7.8,1.8-11.7c2-0.9,3.5,0.3,4.9,1.3c1.8,1.6,3.9,3.1,5.4,4.9
	c0.6,0.8,0.1,3.5-0.2,3.6c-2.3,0.4-4.7,0.6-7.1,0.4C49.3,30.8,48.5,30.6,48.1,32z"/>
<path class="st3" d="M56.7,34.4l-7.8-2.4C51.9,31.5,54.6,32.1,56.7,34.4z"/>
<path class="st3" d="M61.8,34.4l-0.7-0.2L61.8,34.4z"/>
<path class="st3" d="M60.3,34.2l-0.5,0L60.3,34.2z"/>
<path class="st5" d="M43.4,35.7c-0.1,0.1-0.1,0.2-0.2,0.3L43.4,35.7z"/>
<path class="st3" d="M45.6,32.7L45.4,33L45.6,32.7z"/>
<path class="st0" d="M42.6,39.5l0.9-1.8l0.4-0.4c0.8,1.2,4.5-1.2,3.2,2.6C47.1,40,47,40.1,47,40.1L44.4,42l-0.1,0.1l-2.8,0.9
	C41.9,41.8,42.3,40.7,42.6,39.5z"/>
<path class="st4" d="M276.4,172.9l0.3,0L276.4,172.9z"/>
<path class="st1" d="M274.6,212.5c-0.4,1.9,2.3,3.4,0.8,5.4c-5.3,2.3-4.6-2.3-5.7-4.9c0.4-0.2,0.7-0.4,1.1-0.6l3.6-0.4L274.6,212.5z
	"/>
<path class="st0" d="M272,204.1c0-0.1-0.1-0.2-0.1-0.3c-0.2-0.5-0.4-1.1-0.6-1.6l0-0.1l1-1.9c1,0.6,2.7,1.2,2.8,1.9
	c0.1,1.3-0.7,2.7-1.1,4L272,204.1z"/>
<path class="st4" d="M270.8,212.4c1.1-1.3,2.2-2.7,3.4-4l0.3,3.6L270.8,212.4z"/>
<path class="st6" d="M44.4,42l2.6-1.9L44.4,42z"/>
<path class="st0" d="M271.2,220.2l-0.1-0.1L271.2,220.2z"/>
<path class="st5" d="M270.9,203.5c0-0.2,0-0.4,0-0.6l0.4-0.6c0.2,0.5,0.4,1,0.6,1.6L270.9,203.5z"/>
<g>
	<path class="st7" d="M79.9,141.4c-0.4-2.3-0.9-5.9-1.1-10.2c-0.7-11.9,1.1-14.9-1.1-16.9c-4.5-4-19,2-24.9,7.5
		c-0.4,0.4-0.8,0.7-1.3,0.9c-5,2-13.3-7.1-19.7-15.4L76,38.4c24.9,11.5,32.5,18.4,34.2,22.8c0.2,0.6,2,5.3,3.4,5.1
		c0.8-0.1,0.7-1.5,1.6-2.5c1.6-1.7,4.7-1,14.5,1.8c7.2,2,8.6,2.5,10.1,4.1c1.6,1.7,2.8,3.7,3.5,5.9c0.4,1.1,0.6,2.2,0.7,3.3
		c0.1,0.7,0.1,1.2,0.1,1.4c0.8,22.7,43.8,125.9,30.5,135c-14.2,9.8-100-84.6-99.9-84.7c1,2.3,2.4,4.5,4.3,6.2
		C80,137.6,79.6,139.8,79.9,141.4z"/>
	<path class="st3" d="M95.7,133.5c2.3,1.4,4.3-2.5,8.9-2.5c17.7-0.2,20.6,48.4,49.9,66.3c8.3,5,21.6,9.4,43.5,5.3
		c2.7-3.4,8.8-11,9.9-11.9c0.1-0.1,0.5-0.4,0.7-0.3c0.2,0.1,0.1,0.7,0,1.1c-0.2,0.6-0.5,1.3-0.7,1.9c-0.3,1.8,1.3,4.1-1.3,5.3
		c0.1,0.3,0.1,0.5,0.2,0.8l1.2-0.5c1.8-4.9,5.1-7.6,10.6-6.4c1.5,1.6,2.6,3.3,1.2,5.5c-0.1,0.1-0.5-0.1-0.7-0.1l0,2
		c1.3-0.1,3.8-3.1,3.3,1.4c-0.1,1.1-0.1,2.1,0,3.2c1.1,7.5,0,11.1-3.1,10.3c-0.7,1.3,2.2,3.3-0.7,4.2l0.9,3.9l0,0.2
		c3.6,1.7,2.8-2.8,4.8-3.4l0.6-0.6c-0.5-6.9-1.1-13.8-1.5-20.7c0-0.6,0.9-1.1,1.4-1.7c0.3,0.5,0.8,1.1,0.8,1.6
		c0.5,6.1,0.8,12.3,1.4,18.4c0,0.5,0.9,0.9,1.3,1.4l1.2,0.3l0.1-0.5c-1.5-0.7-1.6-1.9-1.8-3.4c-1.2-7.7,2.5-16.8-7.2-22
		c-2.4-1.3-6.6-1.2-7-5.4c-0.6,0.5-1.1,1.2-1.8,1.5c-0.3,0.1-1.5-0.8-1.4-1.1c0.3-0.9,0.7-2,1.4-2.5c3.7-3.1,4.3-6.9,3.1-11.4
		c-0.7-2.7,3.1-0.3,3.5-3.3c0.6-5.4,2.5-10.5,3.9-15.8c0.1-0.4,0.5-0.8,0.8-1.2c0.1,0.4,0.3,0.9,0.2,1.3c-0.9,4.8-1.8,9.6-2.7,14.4
		c1-2.2,1.9-4.4,2.9-6.6l0.8-2.3c-0.8-4,1.5-8.3-0.9-12.2l-2.3-6.3c-0.1-0.3-0.3-0.6-0.5-0.8c-6.5-6.9-13.1-13.8-19.6-20.7
		c-0.3-0.1-0.5-0.2-0.7-0.4c-0.6-0.4-1-1-1.3-1.7l-3.7-3.9l-26.4-23.7c-5.5-2.2-11.1-3.6-16.8-4.6c-6.4-1.1-12.2-1.9-17.3-2.2
		c-4.7-0.3-13.2-0.1-21.4,4.7C93.9,100,89.8,129.9,95.7,133.5z"/>
	<path class="st6" d="M145.8,145.4c-1.3-3.7-3.8-9.7-9.5-13.7c-11.4-8.2-27.6-3.1-28.4-6.3c-0.3-1.1,1.1-3.2,10.8-7.9
		c2.8-2.8,14.8-14,31.7-13.2c16.6,0.8,27,12.6,34.2,20.8c15,17.2,19.9,38.4,17.4,39.8c-2.5,1.3-12.3-16-17.1-14
		c-2.1,0.9-1.8,4.9-3,20.2c-1.1,14.8-1.8,15.8-2.5,16.2C176.5,188.6,168.8,182.4,145.8,145.4z"/>
	<path class="st6" d="M210.4,239C210.4,239,210.4,239,210.4,239c0,0.1,0.1,0.1,0.1,0.1c0,0,0.1,0,0.1-0.1l0,0
		C210.5,239.1,210.4,239,210.4,239z M229.5,231.8l0,1C229.5,232.5,229.5,232.2,229.5,231.8z M227.8,227.4c1.2,1.4,1.6,2.9,1.8,4.5
		l-0.2-5.6L227.8,227.4z M213.1,245.1c-0.2-0.4-0.4-0.9-0.6-1.3C212.7,244.2,213,244.6,213.1,245.1z M207.9,243.8
		c-0.1-0.2-0.2-0.4-0.2-0.5C207.7,243.4,207.8,243.6,207.9,243.8z M205.2,228.6c0.1,0.6,0.1,1.1,0.1,1.6
		C205.3,229.7,205.3,229.1,205.2,228.6z M205.4,237.8c-0.5-1-1-1.8-1.3-2.5C204.4,236,204.9,236.8,205.4,237.8z M203.2,233.6
		L203.2,233.6c0.3,0.6,0.5,1.1,0.8,1.7C203.7,234.7,203.5,234.1,203.2,233.6z"/>
	<path class="st6" d="M277.7,214.2c1.7,2.7,0,3.5-2.2,4c-0.1,1.6,3.7,1.3,1.8,3.8l0,0.6c0,0.1,0,0.2-0.1,0.3
		c-0.1,0.1-0.1,0.3-0.2,0.4l-0.4,0.7l-1.5,3.2c-0.8,3.1-1.6,6.3-6,4.6c-0.2-0.1-0.5-0.1-0.7-0.1c0.2,0.5,0.5,0.9,0.5,1.4
		c0,5.6,0.8,11.6-5.9,14.5c0,0.1-0.1,0.1-0.1,0.2c-5.2,8.1-12.2,14.4-20.4,19c-2.4,1.3-2.7-3.7-3.3-5.9c-0.4-1.3,0.1-2.3-1.8-2.1
		c-7.2,0.6-11.9-4.6-17.5-7.6c-0.4-0.2-1.1,0.3-1.6,0.4c-7.3,0.3-1.7-6.9-5.4-9.3c-1.1-0.7-1.8-1.7-2.3-2.8c0-0.1,0-0.1-0.1-0.1
		c0,0,0,0,0,0l0,0c-1.3-2.8-1.8-6.5-5-8.2l0.1-0.1l0,0c1.4-1.1,0.7-5.3-1.2-6.9L204,224c0-0.1,0-0.1,0-0.1h0.3
		c0.2-0.8,0.4-1.7,0.5-2.5c0.8,1,1.7,2,2.4,3c4.1,5.7,4.3,13.9,10.8,17.7c4.9,2.9,8.4,6.9,12.2,10.6c0.4,0.4,1.2,0.2,1.8,0.3
		c-0.3-0.4-0.6-0.8-1-1.1c-2-2.3-4.2-4.5-6.1-7.1c-1-1.3,0.1-2.4,1.6-2.5c1.8-0.1,2.9-0.7,3.2-2.6l-0.2-6.8c0,1.9-0.4,3.9-0.4,5.7
		c0,1-0.6,3-2.8,2.7l-2.3,0.9c-6.4,1.5-8.5-3.7-11-7.6c-1.3-2-1.7-4.7-2.5-7.1c-0.1-0.6-0.3-1.2-0.4-1.8l1.7,0.1l-2-4.8l-2.6,0.2
		c0-0.5-0.3-1.2,0-1.5c0.9-1.2,2.1-2.3,3.8-1.9c0.1-0.2,0.3-0.4,0.4-0.6c-0.1-0.4-0.4-0.8-0.3-1.2c0.3-1.8,0.6-3.5,1-5.3l0.1,4.6
		c0.1,0.1,0.1,0.1,0.2,0.2c0.9-4.7,3.6-0.3,5.3-1l1.1-0.1c-0.1-0.2-0.1-0.3-0.2-0.5c-1.2-2.3-5-3.4-3.3-7.1c0.1-0.5,0.2-0.9,0.3-1.4
		l-6.4,5.7c-0.7,2.5-2.5,4.2-4.7,5.4l-0.2,0.3l-4,9c-1.4,6.6-4.4,12.9-3.8,19.9l0.6,1.6c0,0.2,0.1,0.4,0.1,0.6
		c1,4.5,5.8,3.4,8.5,5.5c2.9,2.2,7.5,2.1,10.2,4.5c2.6,2.2,6.4,3.3,7.8,7c0.6,1.5,2.5,1.7,3.4,4.2c2.6,7.8-3.6,9.2-7.5,12.4
		c3-0.5,5.8-1.4,7.7-4.1l-1.2-0.2c0.5-0.8,0.9-1.8,1.6-2.3c0.9-0.6,1.9-0.6,2.4,0.8c1.2-0.4,2.5-0.6,3.6-1.2
		c10.5-6.2,19.4-14.3,27.9-22.9c1.1-1.6,2-3.7,3.5-4.6c4.2-2.3,4.3-6.2,4.9-10c-0.1-0.2-0.1-0.3-0.2-0.5c0-0.8-0.2-1.8,0.1-2.5
		c0.2-0.5,1.2-0.6,1.8-0.9h0.4c4.8-1.8,3.8-7.4,6.8-10.4l2.3-8.1L277.7,214.2z M209.2,247.3L209.2,247.3
		C209.2,247.3,209.2,247.3,209.2,247.3L209.2,247.3z"/>
	<path class="st3" d="M197.3,248c1,4.5,5.8,3.4,8.5,5.5c2.9,2.2,7.5,2.1,10.2,4.5c2.6,2.2,6.4,3.3,7.8,7c0.6,1.5,2.5,1.7,3.4,4.2
		c2.6,7.8-3.6,9.2-7.5,12.4c-6.6,0.6-5.3-6.5-8.7-9c-1.3-1-2-3-2.9-4.5l-8.5-13.3c-1-2.2-2-4.4-3-6.6l0.1-2.4
		c0.2,0.5,0.4,1.1,0.6,1.6C197.2,247.6,197.3,247.8,197.3,248z"/>
	<path class="st1" d="M104,83c6.3,0.7,10.4-3.2,13.4-7.6c2.3-3.4,4.5-7.2,4.7-11.6c0-0.2,0.6-0.6,0.8-0.5c1.5,0.4,2.9,0.8,4.3,1.3
		c-0.2,0.4-0.4,0.8-0.5,1.2c-1.3,5.3-5.2,8.8-8.4,12.7c-0.3,0.4-0.3,0.9-0.4,1.4c0.4-0.1,0.8-0.3,1.3-0.4
		c6.8-3.4,13.6-6.8,20.3-10.1c0,0.1,0,0.1,0,0.1l0.3,0.2c6.4,1.9,11.4,6.3,17,9.8c4.7,3,8.6,6.7,12,11c-11-4.3-22.5-5.6-34.1-6.8
		c-0.5-2.1-2-3.3-4-3.8c0.6,0.7,1.5,1.4,1.8,2.3c0.5,1.7-0.9,1.2-1.8,1.2c0.2-2.5-1.9-1.8-3.2-2.2l-2.6,0.3c-2-0.4-3.4,0.4-4.4,2
		c-0.1,0.1,0.8,0.8,1.2,1.3c1.6,0.4-0.2,1,0.1,1.5c-0.8,0.2-2.1-1.5-2.5,0.6l-0.2,0.4c-3.2-5.4-4.1-0.5-5.7,1.2l-2.4,0l-0.3-0.9
		c0-0.2,0-0.5,0-0.7l-1.5,0.6c-1.3,0.7-3.3,1.1-1.7,3.3l2.5,0.1l0,0l0.7-0.2l3.6-1.2l0.9-0.2c1,0.8,4.4-0.7,3,2.2
		c-0.8,1.8-0.9,2.5,0.4,3.6l0,0l-0.5,0.7c-0.1,0.1-0.1,0.1-0.2,0.2l-0.8,1.1l-0.3,0.5l-2.8,2.6l-0.3,0.3l-0.7,0.2l0.4,0.4
		c-2,1.6-4.1,3.3-6.1,4.9c-1.7,1.3-4.6,3.9-4.8,3.6c-4.6-4.3-6.9-3.4-8.3,2.7c-0.8,3.7-3.1,7-2.1,11.1c0,0.2,0.1,0.4,0.3,0.5
		c0.2,0,0.4,0,0.6-0.1c7.7-4.6,12.5-12.1,18.2-18.6c1.1-1.2,1.7-2.8,2.6-4.2c0-0.1,0-0.2,0-0.4l0.3-0.3l3.7-2.6l3.8-3.4l0.4-0.2
		c-1.4,4.6-1.9,9.9-4.5,13.7c-4.2,6.3-9.4,12.2-14.9,17.4c-2.3,2.2-3.5,6.6-8,6c-0.8-0.1-1.7-0.7-2.5-1c0,0.7,0.3,1.5,0,2
		c-0.6,1-0.7,2.7-2.6,2.2c-0.5-1.2-1.5-1.6-2.7-1.3l-0.3-0.3c1.9-1.7,1.3-3.9,1.3-6.1l0.1-0.1l0-0.1l0.7-4.1c0.5-1,1.3-2,1.3-3
		c-0.1-1.9-1.1-1.8-2-0.3c-0.5,0.8-0.7,1.8-1.1,2.7l-0.2-0.6l-0.3,1l0,0.1c-0.5,0.2-0.9,0.4-1.3,0.7c-4.9,4-3.7,9.9-4.4,15.1
		c0,0.2,0.3,0.4,0.4,0.6l0.9-0.9c3.4,2.5,3.5,9.4,10.1,7.4c0.1,2.4-4.2,3.5-2.5,5.9c2.8,3.8,5.9,8.3,11.9,4.9
		c0.1-0.1,0.5,0.2,0.5,0.3c-0.8,4.1,2.4,5.1,4.9,6.6l0,0c0.6,1.4,1.2,2.9,3.1,2.9l1.5,0.1c0.3,4.1,3.6,5.7,6.6,7.4
		c1.2,0.7,2.5,0.5,3.3-0.9c0.1-0.1,0.1-0.3,0.2-0.4l0.6-0.4l2.8-0.5c-0.7,1.5-1.4,2.9-2.1,4.4c1.1-1,2.3-2,3.4-3
		c0.4-0.2,0.7-0.4,1.1-0.6c-2.4,3.8,2.2,6,3.2,6.5c4.6,2.5,8.4,5.6,12.1,9.1c4,3.8,9.3,6.2,12.3,11.1c-0.1,0-0.1,0-0.2,0l-0.3,0.2
		l-1.7,0.7l-1.1,0.6c-0.1,0-0.1,0.1-0.2,0.2l-4.6,1.1l-3.8-1.3c-0.1-0.1-0.2-0.1-0.3-0.1c-6.7-5.7-13.4-11.4-20.1-17
		c-11.5-9.6-23.1-19.2-34.7-28.7c-4.2-3.4-6.9-7.7-8.4-12.8c-0.3-1.6,0.1-3.9-0.8-4.7c-7.1-6.6-5.6-14.1-2.9-21.8l4.2-2.3
		c2.8-0.8,3.3-3.6,4.7-5.5c3.1-4.3,4.9-11,12.5-5.4c1.4,1,4.1,1.5,6.1-0.2c0.3-0.2,0.4-0.9,0.3-1.1c-1.3-2.1-3.3-1.3-5.2-1.6
		c-2-0.3-5,1.1-5.9-2.3l0.6-1.1l-1.3,0l4.4-5l0.9-1l0.5,0c1.6-2,5.7-1.7,5.1-5.6L104,83z M103.4,93.3l2.8-1.9l-1.5-2
		c-0.8,0.8-1.8,1.5-2.5,2.3C102,91.7,102.8,92.5,103.4,93.3z M98.1,94.5l-1.2-1.5l-2.5,2.2c0.2,0.1,0.4,0.5,0.6,0.4
		C95.9,95.4,96.9,95,98.1,94.5L98.1,94.5z"/>
	<path class="st1" d="M62,25.1l16.1,7.1l4,2.7c5.8,2.3,9.8,7.8,16.3,8.8c1.6,1.3,1.2,2.3,0,4c-2,2.6-3.4,5.8-5,8.7l-1.7-0.1
		c0.4-2.9,0.8-5.8,1.1-8.7c0.1-0.7-0.1-1.9-0.6-2.3c-4.5-3.3-6.7,0.8-9.3,3.2c-0.3,0.3,0.4,1.6,0.7,2.4c0.8,2.2,2.9,4,1.8,6.6
		C84,56.9,82,57,81.5,55c-0.1-0.2-0.5-0.3-0.7-0.4c0,0.4-0.1,1.1,0.1,1.3c3.7,2.7,4.9,6.7,5.6,11c0.3,2-3.5,2.8-1.8,5.4
		c-0.5,0.2-1.2,0.6-1.6,0.5c-6.1-2.5-5.9,1.2-6.2,5.5c-0.1,1.1,3,5.9-2.5,5.2c-0.2,0-0.7,0.5-0.7,0.8c-0.5,4.1-1,8.2-6.5,8.4
		c-0.4,0-0.8,0-1.2,0c0.2,0.4,0.3,1,0.6,1.3c0.4,0.2,0.9,0.3,1.4,0.1c5-1.5,8.6-5.2,12.8-8c-0.3,1.1-0.5,2.3-0.8,3.4l-1.3,0.6
		l-4.5,2.4l-3,2.6c-3.3,4.2-6.8,8.2-9.7,12.5c-2.1,3-6.3,4.2-7.1,8.3h-1.3c-0.1-0.1-0.1-0.2-0.1-0.3l2.7-4.8l-9.2-1.7l-0.2-0.4
		l-0.1,0.1l0.4,0.2c-0.4,1.6,2.4,2.3,1.1,4.2c-3.4-8.1-9.8-6.7-16.3-5.3c-3.3-2.1-6.2-4.2-6.6-8.8c-0.2-1.9-0.2-2.2,1.6-2.1
		c10,0.6,0.6-5.7,2.9-7.9c0-0.6-0.1-1.1-0.1-1.7c0-1,0.1-2,0.1-2.9l1.8-0.6l0,0.9v0l1.6,5.2l1.3,4.4c0.1,1,0.2,2,0.4,3L33,97.3
		l1.2,0.7l2,1.1l0,0l3.5,2.3c0.1-0.3,0.3-0.6,0.5-0.9c3.9-6.1-1-11-2.2-16.3c0-0.2-0.1-0.4-0.1-0.6c0.1-0.3,0.3-0.7,0.5-0.7
		c1.3-0.2,3.4-1,3.8-0.5c1.5,2,2.3,4.5,3.7,6.6c0.3,0.5-0.5,4,1.5,1.5c1.5-1.9,2.1-5.3,1.8-7.9c-0.8-6.7-2.5-13.3-3.6-20
		c-0.1-0.9,0.8-1.9,1.2-2.9c0.2,0.3,0.4,0.7,0.6,1c1.8,4.7,3.6,9.4,5.5,14.1c0.6,1.4,2.3,3.7,2.4,3.7c2.3-1.2,2.9-3.6,2.8-5.9
		c-0.5-11.2-4.8-21.6-7-32.4c-0.2-0.9,0.1-1.8,0.2-2.8c0.6,0.7,1.3,1.3,1.8,2.1c4.7,7.1,4.6,15.9,8,23.4c1,2.1,0.7,5.1,3.6,6
		c0.9-2.7,2.7-5.5,2.5-8.1c-0.4-5-1.9-9.9-2.8-14.9c-0.1-0.5,0.5-1.1,0.8-1.7c0.3,0.3,0.8,0.6,0.9,0.9c0.8,1.8,1.6,3.5,2.4,5.3
		c0.1,0.4,0.3,0.8,0.4,1.2l0.8,1.4l0.3,0.3c0.7,2,0.9,5.2,2.3,5.8c1.6,0.7,1.1-2.2,1.5-3.4c0.8-2.1,1.5-3.9,4.3-2.7l0.1,0.1
		l-0.1-0.1c-1.1-0.6-2.1-1.4-3.2-1.9c-2.3-1-2-3.3-2.8-5.2c0.9,0,1.8-0.1,2.6,0.1c0.8,0.2,1.7,0.6,2.5,1c-0.7-0.7-1.3-1.4-2-2.1
		c-0.4-0.4-0.8-0.7-1.1-1.1c-0.1-0.1,0.1-0.7,0.2-0.7c3.3,0.1,2.1-3,3.2-4.5c0.2-0.3-0.4-1.8-0.9-2c-4.4-1.8-9.2-2.6-14-2.4L62,34.2
		L61.3,34h-0.8L60,34l-3.1,0.3c-2.1-2.4-4.8-2.9-7.8-2.4l-0.8,0c0.4-1.4,1.2-1.2,2.5-1.1c2.4,0.2,4.7,0.1,7.1-0.4
		c0.3-0.1,0.8-2.8,0.2-3.6c-1.5-1.9-3.5-3.3-5.4-4.9l2.8,0.4C57.2,24.1,59.2,25.5,62,25.1z M79.2,54.4c-3.2,1.4-3.6,4.2-3.7,7
		c0,0.1,0.1,0.3,0.2,0.4c1.1-2.4,1-5.5,4.1-6.8L79.2,54.4z M73.1,61l-0.4-0.2c-0.1,0.1-0.2,0.3-0.1,0.4s0.2,0.2,0.3,0.3
		C72.9,61.3,73,61.2,73.1,61L73.1,61z"/>
	<path class="st0" d="M182.8,210.9l-4.6,2.5l-1.1,0.6l-0.1,0c-2.4,1.3-5,2-7.8,1.6c-2.2-5.4-7.3-9.5-7.4-16
		c3.9,1.7,11.4-2.1,10.5,6.9c0,0.3,0.8,0.8,1.3,1.1c0.3,0.1,0.8-0.2,1.2-0.4c-2.4-3.3,1.3-3.5,2.5-5l0.5-0.1
		c2.3-0.4,4.7-0.8,7.1-1.1c0.8-0.1,1.6,0.2,2.4,0.3c-0.3,0.6-0.4,1.5-0.8,1.6c-4.1,1.1-3.1,3.7-2.2,6.4L182.8,210.9z M170.4,208.9
		c-0.1,0.4,0.3-0.4,0.2-1.1c-0.4-2.1-2-2.9-3.9-3.1c-0.5-0.1-1.7,0.9-1.6,1.2C165.5,208,167,208.8,170.4,208.9L170.4,208.9z"/>
	<path class="st5" d="M161.8,199.7c0.1,6.4,5.2,10.5,7.4,16c-5.4-0.3-11.5-6.7-9.5-10c0.4-0.7,1.7-0.9,2.5-1.3l-6.4-0.2l-1.5,0.3
		l-2.6-4.2c0.1-0.1,0.1-0.1,0.2-0.2l0.9-0.2L161.8,199.7z"/>
	<path class="st1" d="M200.4,217.1c0-0.1,0-0.2,0-0.3l1.1-1.6c1.4,0.4,0.3-2.2,2.5-1.7c3.3,0.8-2,2.7,0.7,3l-0.2,0.3
		c-3.3,2.1-4.3,5.3-4,9c-1.4,6.6-4.4,12.9-3.8,19.9l-0.1,2.4c-0.3-0.7-0.5-1.4-0.8-2.1c-0.9-9.3-0.2-18.4,3.9-27L200.4,217.1z"/>
	<path class="st8" d="M24.2,95.9l1.1,0.3l-1.2-0.1C24.2,96,24.2,96,24.2,95.9z"/>
	<path class="st5" d="M24.2,95.9c0,0.1,0,0.1,0,0.1L23.8,96L24.2,95.9z"/>
	<polygon class="st5" points="23.7,96.1 23.7,96.1 23.7,96.3 	"/>
	<path class="st6" d="M96.3,58.2l-0.9,0.5l-2-2.2l-1.7-0.1c-0.3,1.3-0.5,2.6-0.8,3.9l0.4,1.2c1.2-1.2,2.6-0.6,2.2,0.7
		c-1.6,5.7-2.8,11.5-6.4,16.4L85.9,79h-0.1l-0.3,0.3c1,3.6-3,3.7-4,5.9l0.4,0.5c1.5,0,2.6,0.5,1.5,2.1c-0.6,0.9-1.8,1.5-2.8,2.2
		c2.1-0.6,3.9-1.6,4.9-3.8c0.2-0.5,1-0.8,1.5-1.2l1.6,2.5c0.5,0.3,0.9,0.6,1.4,0.9c3.2-2.5,5.6-2.4,6.6,2l0.9-1
		c-1.5-4,0.5-8.2,2.6-10.2c4.4-4,2.9,1.8,4,3.4l0.8-1.5c0.4-3,0.8-5.8-3.7-5.4c-0.1,0-0.6-1.6-0.4-2.1c0.5-1,1.3-2.3,2.3-2.6
		c0.7-0.2,1.8,1.1,2.7,1.7c0.4-1.5,0.9-2.9,1.3-4.4c-1-4.5-0.4-8.6,2.4-12.4c0.1-0.1-0.1-0.7-0.1-0.7c-0.9,0.1-1.9,0.3-2.8,0.5
		C103,56.6,99.6,57.4,96.3,58.2 M101.4,76.5c0.4-0.1,0.8,0.1,1.2,0.2c-0.4,0.2-0.6,0.6-1,0.7c-4.7,1.6-9.4,3.1-14.8,4.9
		c-0.1-0.3-0.5-0.8-0.4-1.2c0.3-0.7,0.9-2,1.2-2C92.5,79.8,96.8,77.1,101.4,76.5z"/>
	<path class="st3" d="M95.4,58.7l-2-2.2c1.6-2.9,3-6.1,5-8.7c1.3-1.6,1.6-2.6,0-4c6.4,1.7,11.1,5.8,15.4,10.6
		c3.5,3.8,1.7,7.1-0.5,10.6l-3,6.6c-0.3-0.6-0.6-1.3-0.9-1.9l-0.4-0.6c-0.1-0.1-0.1-0.1-0.1-0.2c0-0.1-0.1-0.1-0.1-0.1l-1.8-0.5
		c-1-4.5-0.4-8.6,2.4-12.4c0.1-0.1-0.1-0.7-0.1-0.7c-0.9,0.1-1.9,0.3-2.8,0.5c-3.3,0.8-6.7,1.6-10,2.4L95.4,58.7z"/>
	<path class="st1" d="M110.4,71.6l3-6.7c0.1,0.1,0.3,0.2,0.4,0.2c1.7-0.4,2.9-4.2,4.5-1.9c1.5,2-0.9,4.3-2.5,6.1
		c-2.8,3.1-5.3,6.4-8,9.7c-0.3-0.2-0.6-0.4-0.8-0.6l1.8-3.5L110.4,71.6z"/>
	<path class="st3" d="M97.4,89.4c-1.5-4,0.5-8.2,2.6-10.2c4.4-4,2.9,1.8,4,3.4c0,0.1,0.1,0.2,0,0.3l-1,0.8l-5.1,5.6H97.4z"/>
	<path class="st3" d="M108.8,74.9l-1.8,3.5l-2.1,2.7c0.4-3,0.8-5.8-3.7-5.5c-0.1,0-0.6-1.6-0.4-2.1c0.5-1,1.3-2.3,2.3-2.6
		c0.7-0.2,1.8,1.1,2.7,1.7l0,0l0.6,0.9L108.8,74.9z"/>
	<path class="st1" d="M217.8,179.2c6.9,0.6,11.9-4.3,17.9-6c6.5-1.8,12-5.9,18.3-7.8c3-1,7.1,1.3,10.8,2.1l8.4,3.2l3.1,2.2l0.3,0
		c0.1,0.1,0.1,0.1,0.2,0.2c3.4,4.7,6.7,9.6,10.3,14.2c2.3,2.8-0.2,4.8-0.6,7.2l-6.6-0.8c-2.4-3.7-3.5-8.3-8-10.3
		c-1.3-5.5-3.3-10.3-9.1-12.5c-1.9-0.7-3.6-1.6-5.4-2.4c-1.1-0.5-1.6-3.5-3-1.9c-2.6,2.9-4.2,6.7-6.7,9.8c-1.6,2,0.6,7.3-4.9,5.8
		c-3-0.8-4.4,2.5-6.9,2.6l5,4c-0.4,1.8,5.4,5.6-1.7,5.3c-1-0.1-2,0-3.1,0c0.7,0.5,1.7,0.9,2.1,1.6c1.1,1.9,2.3,3.8,3,5.9
		c2.3,7.3-0.9,15.3,3.5,22.3c1.1,1.8,2,3.9,0.6,6.1c-1.2-1.7-2.6-3.3-3.6-5.2c-4.6-8.1-2.9-17.8-6.2-26.4c-1.3-3.4-3.2-5.8-6.2-4.9
		c-2.1,0.6,1.6,2,1.4,3.7c-0.6,6.1,1.6,11.8,3.1,17.6c0.1,0.3-0.1,0.7-0.1,1.1c0,0-0.3,0.1-0.4,0c-0.4-0.5-0.4-2.3-1.4-1.3
		c-1,0.9-0.1,2.4,0.4,3.7c0.9,2.8,6,2.7,4.7,7c-0.3,1-0.2,2.2-0.4,3.3c-1.1,4.5,0,9.5-3.7,13.2c-0.3,0.3-1.8-0.1-1.9-0.4
		c-0.2-0.8,0.1-1.8-1.2-1.8l-0.4-13.4c0-0.1,0-0.1,0-0.2l0.7-0.3c1.3-0.9,4.2,1.3,3.9-0.7c-0.4-2.5-2.9-4.7-4.4-7
		c-1.5-0.7-1.6-1.9-1.8-3.4c-1.2-7.7,2.5-16.8-7.2-22c-2.4-1.3-6.6-1.2-7-5.4C215,184.5,216.4,181.9,217.8,179.2z"/>
	<path class="st6" d="M272,183.4c4.5,2,5.6,6.7,8,10.3c1.6,2,1.4,6.1,5.7,4.7l-3.5,13.8c-0.7-1.4-3.6,0.6-3.3-2.2
		c2-4.1,3.6-8.1-3.2-9l4.5-0.7c-0.6-1.4-0.9-3.4-2-4.1c-1.9-1.3-2.7-3-3.3-4.9c-2.3-7-4.9-3.7-8.3-0.7c-1.5,1.3-4.3,1-6.5,1.3
		c-0.2,0-0.5-0.3-0.8-0.4c0.6-1,1.1-2.5,1.9-2.8C265,187.3,267.4,183,272,183.4z"/>
	<path class="st3" d="M229.8,239.7c1.3,0.1,1,1,1.2,1.8c0.1,0.3,1.6,0.7,1.9,0.4c3.7-3.7,2.6-8.8,3.7-13.2c0.3-1.1,0.1-2.3,0.4-3.3
		c1.3-4.2-3.7-4.2-4.7-7c-0.5-1.4-1.3-2.8-0.4-3.7c1.1-1,1,0.8,1.4,1.3c0.1,0.1,0.4,0,0.4,0c0.1-0.4,0.2-0.8,0.1-1.1
		c-1.5-5.8-3.7-11.5-3.1-17.6c0.2-1.8-3.5-3.1-1.4-3.7c3-0.9,4.9,1.6,6.2,4.9c3.3,8.6,1.6,18.2,6.2,26.4c1,1.8,2.4,3.5,3.6,5.2
		c1.4-2.2,0.5-4.4-0.6-6.1c-4.4-7-1.2-15.1-3.5-22.3c-0.6-2.1-1.8-4-3-5.9c-0.4-0.7-1.4-1.1-2.1-1.6c1,0,2-0.1,3.1,0
		c7.1,0.3,1.3-3.5,1.7-5.3l0.1-0.1c4.3,0.5,7.2,3,9.4,6.5l0.2,0.7c1.8,1.2,0.8,2.3-0.1,3.5c-0.5-0.7-0.9-1.6-1.6-2
		c-1.3-0.9-2.8-1.7-4.3-2.5c-0.1,0.3-0.4,0.7-0.2,0.8c4.1,6.4,3.3,13.8,4.4,20.8c-0.4-0.6-1.1-1.1-1.2-1.7c-0.8-4.7-1.5-9.3-2-14
		c-0.2-1.8-0.9-3.2-2.5-4c-0.5-0.3-1.3,0.1-1.9,0.2c0.2,1.1,0.4,2.3,0.7,3.4c1.5,4.4,1.5,9.1,2.8,13.4c0.9,3.3-3.3,10.4,5.3,9.8
		c1,6.5,0.8,13.5,5.8,18.6c2,2.1,2.6,6.4,7,5.6c-5.2,8.1-12.2,14.4-20.4,19c-2.4,1.3-2.7-3.7-3.3-5.9c-0.4-1.3,0.1-2.3-1.8-2.1
		c-7.2,0.6-11.9-4.6-17.5-7.6c-0.4-0.2-1.1,0.3-1.6,0.4c-7.3,0.3-1.7-6.9-5.4-9.3c-3.8-2.4-2.8-8.8-7.4-11.2l0.1-0.1
		c1.4-1.1,0.7-5.3-1.2-6.9l0,0c0.2-0.8,0.4-1.7,0.5-2.5c0.8,1,1.7,2,2.4,3c4.1,5.7,4.3,13.9,10.8,17.7c4.9,2.9,8.4,6.9,12.2,10.6
		c0.4,0.4,1.2,0.2,1.8,0.3c-0.3-0.4-0.6-0.8-1-1.1c-2-2.3-4.2-4.5-6.1-7c-1-1.3,0.1-2.4,1.6-2.5
		C228.3,242.1,229.5,241.5,229.8,239.7z M233.6,209.6L233.6,209.6l0.3,0.4l0,0l2.3,7.2c0.4-2,0.8-3.9,1.1-5.9l-0.2-1.9
		c-0.3-0.8-0.5-1.7-0.8-2.5l0.1-0.9c-0.6-2.5-0.9-5-1.8-7.4c-0.4-1.1-1.6-1.9-2.5-2.8c-0.1,0.2-0.4,0.5-0.3,0.7
		c0.4,4,0.9,7.9,1.4,11.9c0,0.4,0,0.8,0,1.1L233.6,209.6z M250.5,239.5c-2.1,0.7-1.1,2.7-1.3,4c-0.4,2.3,1.4,4.1,3.2,4.8
		c2.4,0.8,1.2-1.6,1.6-2.5l3.1,4.8c0-1.3,0.4-2.9-0.2-4c-1.4-2.6-3.2-4.9-4.9-7.4c-0.3-0.3-0.6-0.6-0.9-0.8L250.5,239.5z
		 M247.1,242.8c0.7-6.4-4.6-10.5-5.8-16.2c-0.1-0.7-0.8-1.3-1.3-1.9c-0.1,0.9-0.5,1.8-0.4,2.7c0.6,4.7,1.1,9.4,1.9,14.1
		c0.5,2.9,0.1,7.3,3.5,7.6C247.4,249.3,247.1,245.2,247.1,242.8L247.1,242.8z M238.4,255.1c0.7-0.8,1.5-1.4,1.5-1.8
		c-0.1-0.7-0.8-1.3-1.2-1.9c-0.6,0.6-1.4,1.1-1.8,1.8C236.8,253.4,237.7,254.1,238.4,255.1z"/>
	<path class="st3" d="M272,183.4c-4.6-0.4-7,3.9-10.8,5.3c-0.8,0.3-1.3,1.8-1.9,2.8c0.2,0.1,0.5,0.4,0.8,0.4c2.2-0.4,5-0.1,6.5-1.3
		c3.4-2.9,6-6.3,8.3,0.7c0.6,1.9,1.5,3.6,3.3,4.9c1.1,0.8,1.4,2.7,2,4.1l-4.5,0.7l-6-1.5l-1.7-0.9l-0.6-0.8c-0.1,0-0.2,0-0.3,0
		c-0.7-2.7-3.1-3.9-5.2-4.9c-2.5-1.3-4.5-0.1-5.4,2.7l0,0c0.1,0.3,0.3,0.5,0.4,0.8c0.3-0.2,0.5-0.5,0.7-0.8c0.9-2,2.2-2.2,3.8-0.7
		l-0.8,0.1c-3.3-1-1.5,3-3.3,3.5l1,1c0,0.2,0.1,0.5,0.1,0.7c-0.1,0-0.1,0-0.2,0c-0.3,0.2-1,0.5-0.9,0.7c1,6.2,2,12.4,3.3,18.6
		c0.1,0.7,2.1,1,3.2,1.5c0-0.8,0.3-1.7,0.1-2.4c-1.1-5.2-2.2-10.3-3.3-15.5c1.3,0.3,2.1,1.1,2.3,2.4c0.3,2.4-0.8,5.2,1.8,7l0.4,0.5
		c0.1,0.1,0.2,0.2,0.3,0.4l1.5,7.8l-0.4,0.2c-0.3,0.2-0.8,0.3-1,0.6c-0.1,0.1,0.2,0.8,0.4,0.9c2.3,0.5,4.3,0.1,5.4-2.3l0,0l0.7-1.1
		c-5.2-0.3-1.4-4.3-2.6-6.3l0.4-0.4l0,0.5c1.1,2.6,0.4,7.2,5.7,4.9c0.1,0.1,0.1,0.1,0.1,0.2c-0.1,1.6,3.7,1.3,1.8,3.8
		c-1.3-0.8-2.1-3.4-4.4-1.5c-2,1.7,0.9,3.3,0.2,5.1c-0.1,0.2,1.2,1,1.9,1.5c-0.8,3.1-1.6,6.3-6.1,4.6c-0.2-0.1-0.5-0.1-0.7-0.1
		c0.1,0.4,0.5,0.9,0.5,1.4c0,5.6,0.8,11.6-5.9,14.5c-2.2-6-4.4-12-6.6-18.1c1,0.5,2.2,0.8,2.9,1.5c1.8,2.1,4,2.3,6.4,1.9
		c0.3-0.1,0.7-0.6,0.7-0.8c-0.8-2.3-3,0.6-4-1l-0.1-0.1c1.1-2.4-1.4-3.5-1.8-5.2c-1.8-8-3-16.2-4.7-24.2c-0.7-3.2,2-8-3.6-9.3
		c-0.4-0.1-0.8-0.2-1.1-0.4c0.4-0.2,0.8-0.5,1.1-0.7c0.5-0.3,1-0.6,1.5-1c-0.6-0.2-1.3-0.6-1.9-0.7c-2-0.4-4-0.8-6.1-1
		c-1.5-0.1-3.2-1.8-4.5,0.3l-0.1,0.1l-5-4c2.6-0.2,3.9-3.5,6.9-2.6c5.4,1.5,3.3-3.9,4.9-5.8c2.5-3.1,4.1-6.8,6.7-9.8
		c1.4-1.6,1.8,1.4,3,1.9c1.8,0.8,3.6,1.8,5.4,2.4C268.7,173,270.7,177.9,272,183.4z M265.8,226c-0.3-2.9-2.5-3-4-3.7
		c-0.1-0.1-0.9,0.6-0.8,0.9c0.2,1.9,0.9,3.7,3.2,3.8C264.8,227,265.4,226.2,265.8,226L265.8,226z"/>
	<path class="st1" d="M256.3,229.3l6.6,18.1c0,0.1-0.1,0.1-0.1,0.2c-4.4,0.8-5-3.5-7-5.6c-5.1-5.1-4.8-12.1-5.8-18.6
		c2.1-2.7-0.8-4.6-1.1-6.9c-1-7-0.2-14.4-4.4-20.8c-0.1-0.2,0.1-0.6,0.2-0.8c1.4,0.8,2.9,1.5,4.3,2.5c0.7,0.5,1.1,1.3,1.6,2l1.6,3.9
		c0.7,5.5,1.3,11,2.3,16.5c0.5,2.9-3,6.5,1.3,8.8L256.3,229.3z M260.4,245.5c-0.1,0.2-0.2,0.3-0.2,0.4c0,0.1,0.2,0.2,0.3,0.3
		c0.1-0.1,0.2-0.3,0.3-0.4C260.7,245.8,260.5,245.7,260.4,245.5L260.4,245.5z"/>
	<path class="st0" d="M212.6,215.4c0.9-4.7,3.6-0.3,5.3-1c-0.1,1.5-0.1,3-0.1,4.4l-0.4,0.2c0,0-0.1,0.1-0.1,0.1
		c-0.1,1.8-0.1,3.4,2.2,3.8c0,0.1,0,0.1,0,0.2l1,2.6c0.5,2.7,0.2,6.1,2.9,7.3c1,0.4,0.9-3,1.1-4.6l-0.3-8.6l0.6-0.6l3.3-0.6
		c1.8,2.3,1.9,4.8,1.3,7.4c0,0.1,0,0.1,0,0.2l-1.6,1.2l-0.1,0.1l0.1-0.1c2.9,3.4,1.4,7.4,1.3,11.2c0,1-0.6,3-2.7,2.7l-8.5-9.3
		C214.1,227,211.1,222,212.6,215.4z M226.7,227.2c-0.1,0-0.1,0-0.1,0c0,0,0,0.1,0,0.1c0.1,0,0.1,0,0.1,0
		C226.8,227.3,226.7,227.2,226.7,227.2L226.7,227.2z"/>
	<path class="st0" d="M215.7,205.3l-6.4,5.7c-0.1-3.8,0.5-7.8-3.7-10l0.9-1.5l1.2-0.5l4.1-0.1c-2-6.1,3.5-4.6,6.1-6.1
		c0.3,0.8,0.6,1.7,0.8,2.5c-4.3,1.3-0.8,4.4-1.6,6.5L215.7,205.3z"/>
	<path class="st0" d="M224.1,242.1c-6.4,1.5-8.5-3.7-11-7.6c-1.3-2-1.7-4.7-2.5-7.1c-0.1-0.6-0.3-1.2-0.4-1.8l1.7,0.1v0l0.4,0.9
		l4.8,5.5L224.1,242.1z"/>
	<path class="st1" d="M215.7,205.3l1.6-3.4l1.7-2c1.3-0.1,3.8-3.1,3.3,1.4c-0.1,1.1-0.1,2.1,0,3.2c1.1,7.5,0,11.2-3.1,10.3
		c-0.1-0.2-0.1-0.4-0.2-0.6c-0.1-0.2-0.1-0.3-0.2-0.5c-0.2-2.8,1-6.2-3.3-7.1L215.7,205.3z"/>
	<path class="st3" d="M205.7,201c4.2,2.2,3.7,6.2,3.7,10c-0.7,2.5-2.5,4.2-4.7,5.4c-2.6-0.3,2.6-2.2-0.7-3c-2.2-0.5-1.1,2.1-2.5,1.7
		C203.9,210.7,201.7,205,205.7,201z M205.7,208.4c2-0.2,3-1,3-2.5c0-1.6-1.5-1.9-2.6-2c-1.8-0.1-1.3,1.6-1.4,2.5
		C204.7,207.1,205.4,207.8,205.7,208.4z"/>
	<path class="st5" d="M217.1,232.2l-4.8-5.6l-0.4-0.9v0l-2-4.8l1.2-3.2c0.1-0.2,0.3-0.4,0.4-0.6l0.4,0.9l0.4-2.8
		c0.1,0.1,0.1,0.1,0.2,0.2c-1.6,6.5,1.5,11.6,5.2,16.5L217.1,232.2z"/>
	<path class="st8" d="M217.1,232.2l0.6-0.3l8.6,9.3l-2.3,0.9C221.8,238.8,219.5,235.5,217.1,232.2z"/>
	<path class="st3" d="M215.5,206.7c4.3,0.9,3.1,4.3,3.3,7.1C217.5,211.5,213.7,210.4,215.5,206.7z"/>
	<path class="st6" d="M205.4,237.8c-0.5-1-1-1.8-1.3-2.5C204.4,236,204.9,236.8,205.4,237.8z"/>
	<path class="st3" d="M200.5,225.8c-0.3-3.7,0.7-6.9,4-9L200.5,225.8z"/>
	<path class="st0" d="M211.2,217.8L210,221l-2.6,0.2c0-0.5-0.3-1.2,0-1.5C208.3,218.5,209.4,217.4,211.2,217.8z"/>
	<path class="st6" d="M210.6,239.1C210.5,239.2,210.5,239.2,210.6,239.1c-0.1,0-0.1,0-0.1-0.1C210.4,239.1,210.5,239.1,210.6,239.1z
		"/>
	<path class="st5" d="M219,214.3c0.1,0.2,0.1,0.4,0.2,0.6c-0.7,1.3,2.2,3.3-0.7,4.2l-0.7-0.2c0.1-1.5,0.1-3,0.1-4.4L219,214.3z"/>
	<path class="st1" d="M212.4,215.3l-0.4,2.8l-0.4-0.9c-0.1-0.4-0.4-0.8-0.3-1.2c0.3-1.8,0.6-3.5,1-5.3L212.4,215.3z"/>
	<path class="st3" d="M204.2,223.8L204,224c0-0.1,0-0.1,0-0.1L204.2,223.8L204.2,223.8z"/>
	<path class="st2" d="M197.3,248c-0.1-0.2-0.1-0.4-0.1-0.6C197.2,247.6,197.3,247.8,197.3,248z"/>
	<path class="st6" d="M213.5,187.2c-0.6,0.5-1.1,1.2-1.8,1.5c-0.3,0.1-1.5-0.8-1.4-1.1c0.3-0.9,0.7-2,1.4-2.5
		c3.7-3.1,4.3-6.9,3.1-11.4c-0.7-2.7,3.1-0.3,3.5-3.3c0.6-5.4,2.5-10.5,3.9-15.8c0.1-0.4,0.5-0.8,0.8-1.2c0.1,0.4,0.3,0.9,0.2,1.3
		c-0.9,4.8-1.8,9.6-2.7,14.4c-0.5,2.1-1.1,4.3-1.6,6.4l-0.7,0.6l-0.8-2c-0.3,0.3-0.8,0.7-0.8,0.9c0.4,1,0.8,2,1.2,3
		c0,0.4,0,0.8,0,1.2C216.4,181.9,215,184.5,213.5,187.2z"/>
	<path class="st1" d="M218.9,175.6c0.5-2.1,1.1-4.3,1.6-6.4l2.9-6.6C222.3,167,221.8,171.7,218.9,175.6z"/>
	<path class="st0" d="M217.9,178c-0.5-1-0.8-2-1.2-3c-0.1-0.2,0.5-0.6,0.8-0.9l0.8,2C218.1,176.8,218,177.4,217.9,178z"/>
	<path class="st0" d="M89.9,88.4c3.2-2.5,5.6-2.4,6.6,2c-1.5,1.6-2.9,3.3-4.4,5l-0.7,1.1l-11.2,16c-2-0.8-1.8-2.5-1.9-4.2
		c0-0.2,0.1-0.4,0.1-0.5c0.1,0,0.1-0.1,0.1-0.1l0.1-0.1c0.1,0,0.1-0.1,0.1-0.1l0.8-0.7l0,0c2.3-1.3,5.9-1.2,3.7-5.8
		c-0.9-1.9-5.4-5.3,0.4-7.3L89.9,88.4z M89.5,95c-2.3,0-3.3,1-3.5,2.7c0,0.3,1.2,1,1.3,0.9c1-0.9,2-1.9,2.9-2.9
		C89.9,95.4,89.7,95.2,89.5,95z"/>
	<path class="st6" d="M125.2,171c0.9-0.9,2.4-1.7,2.5-2.7c0.7-4.2-2.3-6.9-5.4-8.6c-8.3-4.3-10.5-11.2-9.5-19.7
		c1-8.1-4.7-5.9-8.8-5.9c-3,0-6,0.4-9,0.4c-0.8,0-1.7-0.4-2.4-0.9c-0.2-0.1,0.1-1.1,0.2-1.7c0.6,0.2,1.2,0.6,1.8,0.6
		c3.9,0,7.8,0.5,11.5-0.2c7.6-1.4,8.7,2.8,8.5,8.7c-0.1,2.5-0.3,5.1-0.1,7.7c0.4,5.1,4.9,7.3,8.4,9.1c5.6,2.8,8.5,9.7,4.6,13.9
		c-0.4,0.1-0.8,0.3-1.1,0.6c-1.2,1-2.3,2-3.4,3L125.2,171z"/>
	<path class="st2" d="M110.9,165l-0.7,0.7c-2,0-2.5-1.5-3.1-2.9l0,0c-2.5-1.5-5.8-2.5-4.9-6.6c0-0.1-0.4-0.3-0.5-0.3
		c-6,3.4-9.1-1.1-11.9-4.9c-1.8-2.3,2.6-3.4,2.5-5.9c0.3-0.4,0.8-0.4,0-1.2s-3.8-0.6-2.3-3.2c0.1-0.1,0.1-0.1,0.2-0.2l0.1-0.1
		c0-0.1,0.1-0.1,0.1-0.2h0.1l0.1,0c1.8-0.4,0.3,3.6,2.9,2.1c0.1-0.1,0.1-0.1,0.1-0.1l0.7-0.5l0.9-0.9l0.8,0.3
		c-0.1,0.4-0.2,0.7-0.3,1l-0.5,0.9c-0.1,0.1-0.2,0.3-0.3,0.4l-0.6,0.5c-1.5,1-2,2.9-1.2,3.8c1.9,2,2.2-1.3,3.5-1.6l0.8-0.1l0.5-0.1
		l1.5,0.4l0.6,0.4c2.3,1.5,0.8,3.1,0.1,4.7l-2.3,1.2c0.7,0.9,1.2,2.2,2.1,2.6c0.5,0.2,1.7-0.9,2.5-1.4l3.8-3.4
		c0.2-0.6,0.5-1.3,0.7-1.9c0.1,1,0.2,2,0.3,2.9c-1.1,1.2-2.1,2.4-3.2,3.6c-0.3,1-0.9,2-0.7,2.9s1.3,1.4,1.9,2.1l1.3-2l2.2-1.6
		c-0.6,1.5-3,2.7-0.9,4.8C107.9,163.3,109.1,164.4,110.9,165z M99.8,150.2c0.4-2.3-0.4-3-2-3.1c-1.3,0-1.8,0.7-1.8,1.9
		c-0.1,2,1.6,1.8,2.7,1.9C99.2,151,99.7,150.3,99.8,150.2z"/>
	<path class="st5" d="M78.3,108.2c0.1,1.6-0.1,3.4,1.9,4.2c0.1,0.1,0.1,0.2,0.1,0.3l-4.2,2.3l-13,4.3l-1.9,0.3
		c-2.3-1.1-5.2,1.4-7.1-1.5C62.9,116.5,70,110.9,78.3,108.2z"/>
	<path class="st7" d="M80.3,112.7c0-0.1-0.1-0.2-0.1-0.3l11.2-16l1.4,0.1c0.9,3.4,3.9,2,5.9,2.3c1.9,0.3,3.9-0.5,5.2,1.6
		c0.1,0.2-0.1,0.9-0.3,1.1c-1.9,1.7-4.7,1.2-6.1,0.2c-7.6-5.5-9.4,1.1-12.5,5.4C83.7,109.1,83.2,111.9,80.3,112.7z"/>
	<path class="st4" d="M89.8,140.8c-1.5,2.6,1.4,2.5,2.3,3.2s0.4,0.8,0,1.2c-6.6,2-6.7-5-10.1-7.4l2.7-4.1l0.6-0.2
		c0.3,1.6,1.2,2.6,2.8,3c0.1,0.2,0.2,0.4,0.3,0.7c-1.1,0.5-2.8,0.7-2.3,2.4C86.6,141.5,88.3,141,89.8,140.8z"/>
	<path class="st2" d="M111.7,165.8c2.9,0.8,4-0.6,4-3.3c0.3,1.3,0.5,2.6,0.8,3.9l0.8,1.1l0.5,0.8l0.2,0.4c-1.6,4,0.9,4,3.7,3.5
		c-0.8,1.4-2.2,1.6-3.3,0.9C115.3,171.5,112,169.9,111.7,165.8z"/>
	<path class="st6" d="M155.9,198.5c7.6-1.1,14.2,3.1,21.4,3.8c-1.2,1.5-4.9,1.7-2.5,5c-0.4,0.1-0.9,0.5-1.2,0.4
		c-0.5-0.2-1.4-0.7-1.3-1.1c0.9-9-6.6-5.2-10.5-6.9l-8.9,0.1c0.1-0.1,0.1-0.3,0.1-0.4l1.7-0.7l0.3-0.2c0.1,0,0.1,0,0.2,0
		c0.1,0,0.2,0,0.3-0.1L155.9,198.5z"/>
	<path class="st5" d="M121.6,172.3c-2.8,0.4-5.2,0.5-3.7-3.5l1.9-3.5l2,6.6C121.8,172,121.7,172.1,121.6,172.3z"/>
	<path class="st3" d="M84.9,127.5c0.1-0.3,0.2-0.6,0.2-0.9l2.8,0.1c0.1,2.1,0.6,4.4-1.3,6.1l-1.1,0.1
		C85.3,131,85.1,129.2,84.9,127.5z"/>
	<path class="st6" d="M103.4,93.3c-0.6-0.8-1.3-1.5-1.2-1.6c0.8-0.8,1.7-1.6,2.5-2.3l1.5,2L103.4,93.3z"/>
	<path class="st2" d="M87.9,126.6l-2.8-0.1l1.3-4.3l0-0.1h0.4l1.9,0.2c-0.2,1.4-0.5,2.7-0.7,4.1l0,0.1L87.9,126.6z M88.7,125.4
		c-0.8-1.8-1-2.2-1.1-2.6c-0.5,0.8-1,1.6-1.4,2.5c-0.1,0.1,0.4,0.7,0.5,0.6C87.5,125.8,88.3,125.5,88.7,125.4L88.7,125.4z"/>
	<path class="st2" d="M121.8,171.9l-2-6.6l1,0l1.1,1.1l1.2,2.3c-0.2,1-0.4,1.9-0.7,2.9L121.8,171.9z"/>
	<path class="st5" d="M85.5,132.7l1.1-0.1c0.1,0.1,0.2,0.2,0.3,0.3l2,2.6l-0.9,0.8c-1.6-0.4-2.5-1.4-2.8-3L85.5,132.7z"/>
	<path class="st7" d="M97.9,89.4l5.1-5.6C103.5,87.7,99.5,87.5,97.9,89.4z"/>
	<path class="st3" d="M88.8,122.3l-1.9-0.2c0-0.1,0.1-0.3,0.1-0.4c0.4-0.9,0.6-1.8,1.1-2.7c0.8-1.6,1.8-1.6,2,0.3
		C90.1,120.2,89.2,121.3,88.8,122.3z"/>
	<path class="st3" d="M110.7,88.8l0.3-0.4l2.4,0l0.9,1l-3.6,1.2C110.7,90,110.7,89.4,110.7,88.8z"/>
	<path class="st6" d="M98.1,94.5c-1.2,0.4-2.2,0.8-3.2,1.1c-0.1,0-0.4-0.3-0.6-0.4l2.5-2.2L98.1,94.5z"/>
	<path class="st2" d="M88.9,135.6l-2-2.6c1.3-0.3,2.2,0.1,2.7,1.3L88.9,135.6z"/>
	<path class="st3" d="M116.9,97.5l0.9,0l-3.7,2.6l0,0L116.9,97.5z"/>
	<path class="st6" d="M92.8,96.5l-1.4-0.1l0.7-1.1l1.3,0L92.8,96.5z"/>
	<path class="st3" d="M110.6,87.5l-1.5-0.1l1.5-0.6C110.6,87,110.6,87.3,110.6,87.5z"/>
	<path class="st2" d="M153.1,199.4c-0.1,0.1-0.1,0.3-0.1,0.4L152,200L153.1,199.4z"/>
	<path class="st3" d="M117.9,95.9l-0.8,1.1L117.9,95.9z"/>
	<path class="st7" d="M86.9,121.7c0,0.1-0.1,0.3-0.1,0.4h-0.4c0.1-0.3,0.2-0.6,0.3-1L86.9,121.7z"/>
	<path class="st3" d="M113.7,100.8l-0.3,0.2l-0.4-0.4l0.7-0.2l0,0C113.7,100.5,113.7,100.7,113.7,100.8z"/>
	<path class="st3" d="M118.6,95l-0.5,0.7L118.6,95z"/>
	<path class="st3" d="M88,126.5L88,126.5L88,126.5z"/>
	<path class="st7" d="M139.6,69.5l0.3,0.2L139.6,69.5z"/>
	<path class="st3" d="M110,90.9L110,90.9z"/>
	<path class="st3" d="M107.1,162.8L107.1,162.8z"/>
	<path class="st3" d="M113.7,100.4l0.3-0.3l0,0L113.7,100.4L113.7,100.4z"/>
	<path class="st3" d="M155,198.5l-0.3,0.2L155,198.5z"/>
	<path class="st3" d="M68.3,50.8c-0.8-1.8-1.6-3.6-2.4-5.3c-0.2-0.4-0.6-0.6-0.9-0.9c-0.3,0.6-0.8,1.2-0.8,1.7
		c0.9,5,2.5,9.9,2.8,14.9c0.2,2.6-1.6,5.4-2.5,8.1c-2.9-1-2.7-4-3.6-6c-3.4-7.5-3.3-16.3-8-23.4c-0.5-0.8-1.2-1.4-1.8-2.1
		c-0.1,0.9-0.4,1.9-0.2,2.8c2.2,10.8,6.5,21.2,7,32.4c0.1,2.3-0.5,4.7-2.8,5.9c-0.2,0.1-1.8-2.3-2.4-3.7c-1.9-4.7-3.7-9.4-5.5-14.1
		c-0.2-0.4-0.4-0.7-0.6-1c-0.4,1-1.3,2-1.2,2.9c1.1,6.7,2.8,13.3,3.6,20c0.3,2.6-0.3,5.9-1.8,7.9c-0.6,0.7-0.9,1-1.1,0.9
		c-0.5-0.2-0.1-2.3-0.4-2.4c-0.6-0.1-1.6,9.1-7.3,13.8c-2.6,2.1-7.2,4.5-10.5,3c-3.4-1.6-1.8-5.9-5.4-12.6
		c-4.3-8.3-10.2-8.7-10.2-13.7c0-2.3,1.2-4,7.6-10.6c6.6-6.7,11.7-11.2,12.6-12.2c13.4-15,10.4-38.6,13.8-38.6
		c1.8,0,2.8,6.7,7.5,19.2c1.2,3.3,2.3,5.9,4.8,12.9c0.8,2.3,1.7,4.6,2.5,6.9c-0.1-2.5,0.5-5.5-0.7-7.3s3.1-4.8-1.5-5.3
		c-0.4,0-0.9-0.8-1-1.3c-0.7-2.2-1.5-5.2,0.5-6.4c3.2-2.1,6.8-1.1,10,1c0.4,0.3,1.1,0.2,1.6,0.3c-0.4-0.4-0.7-0.8-1.2-1
		c-2.1-0.8-4.2-1.6-6.4-2.4c4.8-0.2,9.5,0.6,14,2.4c0.5,0.2,1.2,1.7,0.9,2c-1.1,1.4,0.1,4.6-3.2,4.5c-0.1,0-0.3,0.6-0.2,0.7
		c0.4,0.4,0.8,0.8,1.1,1.1c0.7,0.7,1.4,1.4,2,2.1c-0.8-0.4-1.6-0.8-2.5-1s-1.8-0.1-2.6-0.1c0.8,1.8,0.5,4.1,2.8,5.2
		c1.1,0.5,2.1,1.3,3.2,1.9l0,0c-2.8-1.2-3.5,0.6-4.3,2.7c-0.4,1.3,0.1,4.2-1.5,3.4c-1.3-0.6-1.6-3.8-2.3-5.8l2,0.5
		c0-0.2-0.1-0.4-0.2-0.6c-2.3-3.2-3.7-6.6-3.3-10.6c0.1-0.6-0.4-1.3-0.6-2c-0.3,0-0.6,0.1-0.9,0.2c-0.1,0.1-0.1,0.5-0.1,0.8
		C67.3,44.9,67.8,47.8,68.3,50.8z M37.4,70.6c-0.6,0.8-1.3,1.3-1.2,1.7c0.6,2.9,1.4,5.7,2.1,8.5c0.8-0.7,2.5-1.6,2.4-1.9
		C39.9,76.2,38.7,73.6,37.4,70.6z M43,80.1c0.1,1.2,0.1,2.4,0.3,3.6c0.1,0.3,0.6,0.6,1,0.8c0.6-0.8,1.5-1.5,1.6-2.3
		C46,80.8,44.9,80.2,43,80.1L43,80.1z"/>
	<path class="st7" d="M85.5,79.2c1,3.6-3,3.7-4,5.9L80.7,86c-0.1,0.1-0.1,0.1,0,0.2c-4.2,2.8-7.8,6.5-12.8,8
		c-0.5,0.1-0.9,0.1-1.4-0.1c-0.4-0.2-0.4-0.8-0.6-1.3c0.4,0,0.8,0,1.2,0c5.5-0.2,6-4.3,6.5-8.4c0-0.3,0.5-0.8,0.7-0.8
		c5.4,0.7,2.3-4.1,2.5-5.2c0.4-4.3,0.1-8,6.2-5.5c0.4,0.2,1.1-0.3,1.6-0.5c-1.8-2.6,2.1-3.4,1.8-5.4c-0.6-4.2-1.9-8.3-5.6-11
		c-0.2-0.2-0.1-0.9-0.1-1.3c0.3,0.1,0.7,0.2,0.7,0.4c0.6,2,2.5,1.9,3.9,2.7c1.1-2.7-1.1-4.5-1.8-6.6c-0.3-0.8-1-2.2-0.7-2.4
		c2.6-2.4,4.8-6.6,9.3-3.2c0.5,0.4,0.7,1.5,0.6,2.3c-0.3,2.9-0.7,5.8-1.1,8.7c-0.3,1.3-0.5,2.6-0.8,3.9c-2.4,6-4.5,12.2-5,18.7h-0.1
		L85.5,79.2z"/>
	<path class="st3" d="M74.1,92.5l4.5-2.4l-0.6,1.5l-0.1,0.1c-1.4,3.3,2.8,2.3,2.7,2.8c-0.7,4,4.1,8.5-0.9,12.1l0,0
		c-0.3,0.2-0.5,0.5-0.8,0.7c0,0-0.1,0.1-0.1,0.1c-0.1,0-0.1,0.1-0.1,0.1c0,0.1-0.1,0.1-0.1,0.1c-2.6,0.8-5.4,1.3-7.2-1
		c-1.5-1.9,0.6-4,0.9-6.1C72.5,97.8,75.6,95.8,74.1,92.5z"/>
	<path class="st3" d="M54.3,116c0.8-4.1,5-5.2,7.1-8.3c3-4.4,6.4-8.4,9.7-12.5c-0.7,4-1.3,7.9-2.2,11.8c-0.4,1.7,3.5,2.7,1.4,3.5
		C65,112.5,60.6,117,54.3,116z"/>
	<path class="st6" d="M62.4,34.6c2.1,0.8,4.3,1.5,6.4,2.4c0.4,0.2,0.8,0.7,1.2,1c-0.5-0.1-1.2,0-1.6-0.3c-3.2-2-6.8-3-10-1
		c-2,1.3-1.2,4.2-0.5,6.4c0.1,0.5,0.6,1.2,1,1.3c4.5,0.4,0.3,3.5,1.5,5.3c1.2,1.8,0.5,4.8,0.7,7.3c-0.8-2.3-1.6-4.6-2.5-6.9
		c-1.6-4.3-3.1-8.6-4.8-12.9c-0.5-1.2-1.9-2.8-2.9-2.8c-2,0-1.2,2.3-1.8,3.6c-0.4,0.9-0.4,2.1-1.8,1.8c1.3-3.8-2.5-1.4-3.3-2.6
		l1.1-3l0.4-1.3l0.2-0.3c0.1-0.1,0.1-0.2,0.1-0.3l2.4-0.4l0.8,0l7.8,2.4l3.1-0.3l0.5,0h0.8l0.7,0.2L62.4,34.6z"/>
	<path class="st6" d="M54.3,116c6.3,1.1,10.8-3.4,16-5.5c2.1-0.8-1.8-1.8-1.4-3.5c0.8-3.9,1.5-7.9,2.2-11.8l3-2.6
		c1.6,3.2-1.6,5.3-2,8.1c-0.3,2-2.4,4.2-0.9,6.1c1.8,2.3,4.6,1.8,7.2,1c0,0.2-0.1,0.4-0.1,0.5c-8.3,2.6-15.4,8.2-24.1,9.8l-1.2-0.5
		l-1,0.3c-0.1,0-0.1-0.1-0.2-0.1L53,116L54.3,116L54.3,116z"/>
	<path class="st6" d="M37.8,84.2c-1.5,3.4-3.2,6.7-3.2,10.7c0,1.8,3.7,2,1.4,4.2l0,0l-1.9-1.5c0-0.1-0.1-0.2-0.1-0.2
		c-0.1-1-0.2-2-0.4-3L32.3,90l-1.6-5.2v0l0-0.9c0.1-0.3,0.2-0.6,0.4-0.9l5.4-0.8l1.2,1.4C37.7,83.9,37.7,84.1,37.8,84.2z"/>
	<path class="st6" d="M68.3,50.8c-0.5-2.9-1-5.9-1.5-8.8c0-0.3-0.1-0.6,0.1-0.8c0.3-0.1,0.6-0.2,0.9-0.2c0.3,0.6,0.6,1.3,0.6,2
		c-0.3,4,1,7.5,3.3,10.6c0.1,0.2,0.2,0.4,0.2,0.6l-2-0.5l-0.3-0.3L68.7,52C68.6,51.6,68.5,51.2,68.3,50.8z"/>
	<path class="st3" d="M79.2,54.4l0.6,0.7c-3,1.3-3,4.4-4.1,6.8c-0.1-0.1-0.2-0.3-0.2-0.4C75.6,58.6,76,55.8,79.2,54.4z"/>
	<path class="st3" d="M81.8,85.6c1.5,0,2.6,0.5,1.5,2.1c-0.6,0.9-1.8,1.5-2.8,2.2l-0.6,0.1c0-0.1,0-0.3,0-0.5
		c0.3-1.1,0.5-2.3,0.8-3.4c0-0.1,0-0.1,0-0.2L81.8,85.6z"/>
	<path class="st3" d="M32.3,90.1l1.3,4.4L32.3,90.1z"/>
	<path class="st6" d="M79.9,89.6c0,0.1,0,0.3,0,0.5l-1.9,1.6l0.6-1.5L79.9,89.6z"/>
	<path class="st3" d="M34.2,97.6l1.9,1.5l-2-1.1C34.1,97.9,34.1,97.8,34.2,97.6z"/>
	<path class="st2" d="M34.2,97.6c0,0.1-0.1,0.3-0.1,0.4l-1.2-0.7l1.1,0.1C34.1,97.5,34.1,97.6,34.2,97.6z"/>
	<path class="st3" d="M68.8,52l0.8,1.4L68.8,52z"/>
	<path class="st3" d="M73.1,61c-0.1,0.2-0.2,0.3-0.2,0.5c-0.1-0.1-0.3-0.2-0.3-0.3c0-0.1,0.1-0.3,0.1-0.4L73.1,61z"/>
	<path class="st7" d="M46.4,109.1l-0.4-0.2l0.1-0.1L46.4,109.1L46.4,109.1z"/>
	<path class="st3" d="M53,116l-0.1-0.3L53,116L53,116z"/>
	<path class="st3" d="M77.9,53.4L77.9,53.4L77.9,53.4z"/>
	<path class="st4" d="M30.7,84.8L30.7,84.8z"/>
	<path class="st8" d="M53,117.5l1.2,0.5c1.9,2.9,4.8,0.4,7.1,1.5c-3.3,1.1-6.6,2.2-10,3.3c-0.2,0.1-0.6-0.5-1-0.7
		C52.5,121.3,53.1,119.6,53,117.5z"/>
	<path class="st0" d="M53,117.5c0.1,2-0.4,3.8-2.6,4.5c0-0.3,0.1-0.7,0.1-1l0.1-0.3l1.4-2.9L53,117.5z"/>
	<path class="st8" d="M50.6,120.7l-0.1,0.3L50.6,120.7z"/>
	<path class="st7" d="M199.8,198.4c0.2-0.4,0.4-0.8,0.6-1.3l1.7,0.4c-0.1,0.8-0.2,1.5-0.3,2.3l2.5-2l0.3-0.3l0.3-0.3l0.3-0.3
		l0.3-0.3l0,0l0.3-0.3l0.1-0.1h0.1l0.1,0l0.3,2.6c0.1,0.3,0.1,0.5,0.2,0.8l-0.9,1.5c-3.9,4-1.8,9.7-4.1,14.2
		c-0.4,0.6-0.8,1.1-1.1,1.6c0.4-2.5,1.1-5,1-7.6c0-2.1,1.4-5.7-1.8-5.9c-2.3-0.1-4.9,2-7.3,3.3c-3,1.8-5.4,5-9.6,4.2l1.5-1.4
		l13.1-8.1l1.2-0.7C199,199.9,199.4,199.2,199.8,198.4z"/>
	<path class="st7" d="M200.4,217.1l-0.6,2L200.4,217.1z"/>
	<path class="st5" d="M29.9,71.2l-0.2,1.1L29.9,71.2z"/>
	<polygon class="st5" points="31,62.2 31,62.2 30.9,62.2 	"/>
	<path class="st6" d="M197.4,201.4l-13.1,8.1c-0.9-2.7-1.9-5.4,2.2-6.4c0.4-0.1,0.5-1.1,0.8-1.6c-0.8-0.1-1.6-0.4-2.4-0.3
		c-2.4,0.3-4.7,0.7-7.1,1.1c2.7-0.5,5.1-1.3,4.4-4.9c2.4,1.5,6.4-2.8,8,2.3c0.2,0.7,2,0.9,3,1.3c-1.1,0.5-2.3,0.9-3.4,1.6
		c-0.8,0.4-1.4,1.1-2.1,1.7c1.3-0.2,2.7-0.2,3.9-0.6C193.6,202.9,195.5,202.1,197.4,201.4z"/>
	<path class="st6" d="M170.4,208.9c-3.4-0.1-4.9-0.8-5.3-2.9c-0.1-0.3,1.1-1.3,1.6-1.2c1.9,0.2,3.6,0.9,3.9,3.1
		C170.8,208.5,170.3,209.2,170.4,208.9z"/>
	<path class="st0" d="M77.9,91.7l1.9-1.6l0.6-0.1c2.1-0.6,3.9-1.6,4.9-3.8c0.2-0.5,1-0.8,1.5-1.2l1.6,2.5c-0.5,3.7-3.9,4.4-6.4,5.8
		C80.3,93.7,78.3,94.7,77.9,91.7L77.9,91.7z"/>
	<path class="st3" d="M91.3,61.4c1.2-1.2,2.6-0.6,2.3,0.7c-1.6,5.7-2.8,11.5-6.4,16.4L91.3,61.4z"/>
	<path class="st1" d="M91.3,61.4l-4.2,17.1L85.9,79c0.5-6.6,2.6-12.6,5-18.7L91.3,61.4z"/>
	<path class="st0" d="M86.8,82.2c-0.1-0.3-0.5-0.8-0.4-1.2c0.3-0.7,0.9-2,1.2-2c4.9,0.7,9.2-2,13.8-2.6c0.4-0.1,0.8,0.1,1.2,0.2
		c-0.4,0.2-0.6,0.6-1,0.7C96.9,79,92.1,80.5,86.8,82.2z"/>
	<path class="st0" d="M108.8,74.9l-2.5-1.3l-0.6-0.9l0,0c0.4-1.5,0.9-2.9,1.3-4.4l1.8,0.5V69h0.1c0,0.1,0.1,0.1,0.1,0.2l0.4,0.6
		c0.3,0.6,0.6,1.3,0.9,1.9L108.8,74.9z"/>
	<path class="st5" d="M82.1,93.3c2.6-1.5,5.9-2.1,6.4-5.8l1.4,0.9l-6.1,5.2L82.1,93.3z"/>
	<path class="st1" d="M81.8,85.6L80.7,86l0.8-0.8L81.8,85.6z"/>
	<path class="st1" d="M85.5,79.2l0.3-0.3L85.5,79.2z"/>
	<path class="st6" d="M109.5,69.7l-0.4-0.6L109.5,69.7z"/>
	<path class="st6" d="M108.8,69h-0.1v-0.1C108.8,68.9,108.8,68.9,108.8,69z"/>
	<path class="st6" d="M105.6,72.8l0.6,0.9L105.6,72.8z"/>
	<path class="st2" d="M229.6,218c1.6,2.3,4,4.5,4.4,7c0.3,2-2.6-0.2-3.9,0.7c1.3-2.5,0.8-4.9-0.6-7.3L229.6,218z"/>
	<path class="st5" d="M229.4,218.5c1.4,2.3,1.9,4.7,0.6,7.3l-0.7,0.3c0.6-2.7,0.5-5.2-1.3-7.4c0.1-0.1,0.1-0.3,0.2-0.4L229.4,218.5z
		"/>
	<path class="st6" d="M252.2,203.2l-1.6-3.8c0.9-1.1,2-2.3,0.1-3.5c1.4-0.6,2.8,2.4,3.9,0.4c0.6-1-0.1-2.9-2-2.9
		c-1.2-0.1-2.3,0.2-2.1,1.8c-2.2-3.5-5.1-6-9.4-6.5c1.4-2,3-0.4,4.5-0.3c2,0.2,4.1,0.6,6.1,1c0.7,0.1,1.3,0.5,1.9,0.7
		c-0.5,0.3-1,0.7-1.5,1c-0.4,0.2-0.8,0.5-1.1,0.7c0.4,0.1,0.8,0.2,1.1,0.4c5.6,1.4,2.9,6.1,3.6,9.3c1.8,8,2.9,16.2,4.7,24.2
		c0.4,1.7,2.9,2.8,1.8,5.2c-0.2-0.2-0.7-0.4-0.7-0.6c-0.1-0.9,0.7-2.2-1-2.3c-0.2,0-0.8,1.2-0.8,1.7c0.2,1.4,1.2,1.7,2.5,1.3
		c1,1.6,3.2-1.3,4,1c0.1,0.1-0.4,0.7-0.7,0.8c-2.4,0.5-4.6,0.2-6.4-1.9c-0.6-0.8-1.9-1-2.9-1.5c-0.1-0.3-0.3-0.5-0.4-0.8
		c-0.2-3.7-0.4-7.4-0.6-11.1c-0.2-3.4-0.6-6.7-0.9-10.1c1,3,2,5.9,3,8.9c0.2,0.5,0.5,0.9,0.7,1.3c0-0.5,0.1-1,0-1.5
		c-1-3.9-2-7.8-3-11.7c-0.3-1.3-0.2-2.8-2.1-2.9c0.1,0.8,0.2,1.7,0.3,2.5L252.2,203.2z"/>
	<path class="st1" d="M247.1,242.8c0,2.4,0.3,6.5-2.1,6.3c-3.4-0.4-3-4.8-3.5-7.6c-0.9-4.7-1.3-9.4-1.9-14.1
		c-0.1-0.8,0.2-1.8,0.4-2.7c0.4,0.6,1.2,1.2,1.3,1.9C242.5,232.2,247.9,236.5,247.1,242.8z"/>
	<path class="st6" d="M248.8,216.5c0.2,2.3,3.2,4.2,1.1,6.9c-8.6,0.7-4.3-6.5-5.3-9.8c-1.2-4.3-1.3-9-2.8-13.4
		c-0.4-1.1-0.5-2.2-0.7-3.4c0.6-0.1,1.5-0.4,1.9-0.2c1.6,0.8,2.3,2.2,2.5,4c0.5,4.7,1.3,9.3,2,14
		C247.7,215.4,248.4,215.9,248.8,216.5z M246,219.6c-0.1,1.5,1,2.8,2,2.5c2.3-0.6-0.9-2.8,0.7-4c-0.3-0.3-0.5-0.8-0.8-0.7
		C246.6,217.5,245.9,218.2,246,219.6L246,219.6z"/>
	<path class="st6" d="M250.5,239.5l0.6-1.2c0.3,0.3,0.6,0.6,0.9,0.8c1.7,2.4,3.5,4.8,4.9,7.4c0.6,1.1,0.1,2.6,0.2,4l-3.1-4.8l0,0
		c-0.2-0.4-0.5-0.8-0.7-1.3l-0.2-0.6l-0.6-1l-0.4-0.3c-0.1-0.2-0.2-0.4-0.3-0.6L250.5,239.5z"/>
	<path class="st1" d="M253,243.8c0.1,0.2,0.1,0.4,0.2,0.6c-0.4,0.8-0.4,1.3,0.7,1.3l0,0c-0.4,1,0.8,3.4-1.6,2.5
		c-1.9-0.7-3.6-2.5-3.2-4.8c0.2-1.3-0.7-3.3,1.3-4l1.2,2.4c0.1,0.2,0.2,0.4,0.3,0.6l0.4,0.3L253,243.8z"/>
	<path class="st6" d="M233.3,208.2c-0.5-4-0.9-7.9-1.4-11.9c0-0.2,0.2-0.4,0.3-0.7c0.8,0.9,2.1,1.7,2.5,2.8c0.8,2.4,1.2,4.9,1.8,7.4
		C232.2,202.1,234.9,208.2,233.3,208.2z"/>
	<path class="st6" d="M236.4,206.9c0.3,0.8,0.5,1.6,0.8,2.5c-0.4,0-1-0.2-1.1,0c-0.3,0.5-0.3,1.1-0.4,1.6l1.7,0.4
		c-0.4,2-0.8,3.9-1.1,5.9l-2.3-7.2L236.4,206.9z"/>
	<path class="st0" d="M250.5,195.2c-0.2-1.7,0.9-1.9,2.1-1.8c2,0.1,2.6,2,2,2.9c-1.1,2-2.5-0.9-3.9-0.4L250.5,195.2z"/>
	<path class="st0" d="M236.4,206.9l-2.5,3l0,0l-0.3-0.4l0,0l-0.3-0.2c0-0.4,0-0.8,0-1.1c1.6,0-1.1-6.1,3.2-2.3L236.4,206.9z"/>
	<path class="st6" d="M238.4,255.1c-0.7-0.9-1.6-1.7-1.5-2c0.3-0.7,1.1-1.2,1.8-1.8c0.4,0.6,1.1,1.3,1.2,1.9
		C239.9,253.7,239.1,254.2,238.4,255.1z"/>
	<path class="st0" d="M237.4,211.3l-1.7-0.4c0.1-0.5,0.2-1.1,0.4-1.6c0.1-0.1,0.7,0,1.1,0L237.4,211.3z"/>
	<path class="st6" d="M233.6,209.6l0.3,0.4L233.6,209.6z"/>
	<path class="st6" d="M233.3,209.4l0.3,0.2L233.3,209.4z"/>
	<path class="st0" d="M269.6,212.5l-0.4,0.4l-4.1,0.3c-0.1-0.1-0.2-0.2-0.3-0.4l-0.4-0.5c-2.6-1.8-1.5-4.6-1.8-7
		c-0.2-1.4-0.9-2.2-2.3-2.4l-0.4-0.6l-0.7-0.6l-1.1-1.4c0,0,0.1-0.1,0-0.1l0,0c0-0.2-0.1-0.5-0.1-0.7c1.2-1-0.6-4.3,2.8-3.6l0.8,0.2
		c0.1,0.9,0.3,1.8,0.4,2.7c0.1,0.6,0,1.3,0.1,1.9c0,0.2,0.2,0.4,0.3,0.6c0.6-3,2-2,3.4-0.6c0,0.2,0,0.4,0,0.6l0,0.6l1.4,2.6
		C268.1,207,270.3,209.4,269.6,212.5z"/>
	<path class="st1" d="M260.1,202.3l0.4,0.6c1.1,5.2,2.2,10.3,3.3,15.5c0.1,0.8-0.1,1.6-0.1,2.4c-1.1-0.5-3-0.8-3.2-1.5
		c-1.3-6.1-2.3-12.4-3.3-18.6c0-0.2,0.6-0.5,0.9-0.7c0,0.1,0.1,0.2,0.2,0.2l0,0c0.4,0.5,0.7,0.9,1.1,1.4L260.1,202.3z"/>
	<path class="st6" d="M265.2,213.1l4.1-0.3c1.2,2-2.6,6,2.6,6.3l-0.7,1.1l-0.1-0.1l0.1,0.1c-1.1,2.3-3.1,2.8-5.4,2.3
		c-0.2-0.1-0.5-0.7-0.4-0.9c0.2-0.3,0.6-0.4,1-0.6c0.1,0.3,0.2,0.7,0.3,1c1-0.4,2-0.8,3-1.3c0.1-0.1,0.1-0.4,0.1-0.7l-3,0.8
		L265.2,213.1z"/>
	<path class="st2" d="M270.8,212.4c-0.4,0.2-0.7,0.4-1.1,0.6l0-0.5c0.6-3.2-1.6-5.5-2.3-8.3c0.1-0.1,0.1-0.1,0.2-0.2
		c1.2,0.4,2.5,1.9,3.3-0.5l1,0.3c0,0.1,0.1,0.2,0.1,0.3c0.7,1.4,1.4,2.9,2.1,4.3C273,209.7,271.9,211,270.8,212.4z"/>
	<path class="st1" d="M256.4,195.5c0.9-2.8,2.9-3.9,5.4-2.7c2.1,1.1,4.5,2.3,5.2,4.9l-3.7-0.1l-0.6-0.6l-0.8-1.9l0,0l-0.4-0.3
		c-0.1,0-0.1,0-0.2-0.1c-1.6-1.5-2.9-1.3-3.8,0.7c-0.2,0.3-0.4,0.5-0.7,0.8C256.7,196,256.6,195.7,256.4,195.5L256.4,195.5z"/>
	<path class="st1" d="M265.8,226c-0.4,0.3-1.1,1.1-1.7,1c-2.3-0.1-2.9-1.9-3.2-3.8c0-0.3,0.7-1,0.8-0.9
		C263.4,223,265.5,223.1,265.8,226z"/>
	<path class="st2" d="M263.4,197.6l3.7,0.1c0.1,0,0.2,0.1,0.3,0l0.6,0.8l1.7,0.9c0.5,0.9,1.1,1.8,1.6,2.8l0,0.1l-0.4,0.6
		c-0.7,1.6-5.6-10-3.3,1.1c-0.1,0.1-0.1,0.1-0.2,0.2l-1.4-2.6c0-0.2,0-0.4,0-0.6s0-0.4,0-0.6C266.4,198.2,264.4,198.4,263.4,197.6z"
		/>
	<path class="st0" d="M266.7,220.9l3-0.8c0,0.2,0,0.6-0.1,0.7c-1,0.5-2,0.9-3,1.3c-0.1-0.3-0.2-0.7-0.3-1L266.7,220.9z"/>
	<path class="st6" d="M261,195.7c-3.4-0.6-1.6,2.7-2.8,3.6l-1-1c1.8-0.5,0-4.5,3.4-3.5L261,195.7z"/>
	<path class="st5" d="M261,195.7l-0.4-0.8l0.8-0.1c0.1,0.1,0.1,0.1,0.2,0.1l0.4,0.3l0,0c0,0.2,0,0.4,0,0.6l-0.1,0.1L261,195.7z"/>
	<path class="st1" d="M267.9,198.6l-0.6-0.8L267.9,198.6z"/>
	<path class="st6" d="M264.5,212.3l0.4,0.5L264.5,212.3z"/>
	<path class="st1" d="M256.4,195.5L256.4,195.5z"/>
	<path class="st6" d="M258.3,200.2c-0.1,0-0.2-0.1-0.2-0.2l0,0c0.1,0,0.1,0,0.2,0C258.3,200.1,258.3,200.1,258.3,200.2
		C258.3,200.2,258.3,200.2,258.3,200.2z"/>
	<path class="st3" d="M252.2,203.2l1.1,0.8l0.1,0.1c0.3,0.9,0.6,1.7,0.8,2.6l0,0l0,0.4c0.1,0.1,0.1,0.1,0.1,0.2
		c0.3,3.4,0.6,6.7,0.9,10.1c0.3,3.7,0.4,7.4,0.6,11.1c-4.3-2.3-0.8-5.9-1.3-8.8C253.5,214.2,252.9,208.7,252.2,203.2z"/>
	<path class="st3" d="M260.3,245.5c0.2,0.1,0.4,0.2,0.4,0.3c0,0.1-0.2,0.3-0.3,0.4c-0.1-0.1-0.3-0.2-0.3-0.3
		C260.1,245.8,260.3,245.7,260.3,245.5z"/>
	<path class="st6" d="M228.2,218.1c-0.1,0.1-0.1,0.3-0.2,0.4l-3.3,0.6c-0.5-6.9-1.1-13.8-1.5-20.7c0-0.6,0.9-1.1,1.4-1.7
		c0.3,0.5,0.8,1.1,0.8,1.6c0.5,6.1,0.8,12.3,1.4,18.4C227,217.3,227.8,217.7,228.2,218.1z"/>
	<path class="st5" d="M219.4,223.2c3.6,1.7,2.8-2.8,4.8-3.4l0.3,8.6l-4-2.6L219.4,223.2z"/>
	<path class="st8" d="M220.4,225.8l4,2.6c-0.2,1.7-0.2,5.1-1.1,4.6C220.7,231.8,221,228.4,220.4,225.8z"/>
	<path class="st6" d="M218.5,219.1l0.9,3.9c-2.3-0.4-2.3-2.1-2.2-3.8c0.1,0,0.1-0.1,0.1-0.1l0.4-0.2L218.5,219.1z"/>
	<path class="st6" d="M226.8,227.2c0,0,0,0.1,0,0.1c-0.1,0-0.1,0-0.1,0c0,0,0-0.1,0-0.1C226.6,227.2,226.7,227.2,226.8,227.2z"/>
	<path class="st5" d="M217.3,219.1c0,0.1-0.1,0.1-0.1,0.1C217.2,219.2,217.3,219.1,217.3,219.1z"/>
	<polygon class="st6" points="227.7,227.4 227.7,227.5 227.8,227.4 	"/>
	<path class="st6" d="M207.8,199c1.8-4.9,5.1-7.6,10.6-6.4l-0.4,0.2c-2.6,1.5-8.1-0.1-6.1,6.1L207.8,199z"/>
	<path class="st6" d="M219,198l0,2l-1.7,2c0.7-2.1-2.8-5.3,1.6-6.6C218.9,196.3,218.9,197.1,219,198z"/>
	<path class="st1" d="M219,198c0-0.9-0.1-1.7-0.1-2.6c-0.3-0.8-0.6-1.7-0.8-2.5l0.4-0.2c1.5,1.6,2.6,3.3,1.2,5.5
		C219.6,198.2,219.2,198,219,198z"/>
	<path class="st6" d="M212,225.8l0.4,0.9L212,225.8z"/>
	<path class="st1" d="M205.7,208.4c-0.3-0.6-1-1.3-1-2c0.1-0.9-0.5-2.6,1.4-2.5c1.1,0.1,2.6,0.3,2.6,2
		C208.7,207.4,207.7,208.1,205.7,208.4z"/>
	<path class="st6" d="M223.4,148.1l-2.3-6.3C222.8,143.5,223.5,145.7,223.4,148.1z"/>
	<path class="st0" d="M190.7,120.8l-3.6-0.3c0.5,0.6,1,1.2,1.4,1.9c3.4,5.4,0.6,15.7-5.7,20.3c-6.8,5.1-14.5,4.9-19.9-1
		c-5.3-5.8-12.9-11.1-11.1-21.2c0.9-5,2.6-9.7,7.4-11.6c6.3-2.5,13.2-3.6,19.1,0.9c1.6,1.2,0,4.3,4.5,1.8c3.8-2.1,7.9,3.8,10.4,8.1
		l-2,1L190.7,120.8z M157.5,123.2c0.2,1.3,0.4,2.5,0.6,3.8c0.2-0.7,0.7-1.4,0.7-2c0-6.6,4-9.8,9.9-11.4c0.6-0.2,1.1-0.9,1.6-1.4
		c-0.8-0.3-1.6-0.9-2.2-0.8C161.8,112.8,158.5,116.9,157.5,123.2z M175.9,116.9c1.1,0.2,1.9-0.1,1.7-1.3c-0.5-2.2-2.2-3.2-4.3-3.4
		c-0.4-0.1-1.5,0.8-1.4,1.2C172.2,115.6,174,116.4,175.9,116.9z"/>
	<path class="st6" d="M204.6,197.4l-0.3,0.3c-0.4-0.6,0.4-2-1.2-1.8c0.1-0.3,0.1-0.5,0.2-0.8c1.5-1.5,2.9-3.2,4.5-4.6
		c1-0.8,0.9,0.2,0.7,0.8c-0.2,0.7-0.5,1.3-0.7,1.9c-0.5,0.7-1.1,1.3-1.6,2c-0.1,0.3-0.2,0.5-0.3,0.8l-0.1,0.1l-0.3,0.3l0,0l-0.3,0.3
		l-0.3,0.3L204.6,197.4z"/>
	<path class="st1" d="M203.3,195.2c-0.1,0.3-0.1,0.5-0.2,0.8l-1,1.6l-1.7-0.4l0.3-1.1c0.1-0.3,0.3-0.6,0.4-0.9v0
		c1.1-1.9,2.2-3.7,3.4-5.6c0.2-0.4,0.4-0.7,0.5-1.1c0.5-1,1-2,1.6-3c1.5,3.3-2.8,4.4-2.7,7.2C203.8,193.6,203.5,194.4,203.3,195.2z"
		/>
	<path class="st1" d="M206.2,195.4c0.5-0.6,1.1-1.3,1.6-2c-0.3,1.8,1.3,4.1-1.3,5.3l-0.3-2.6L206.2,195.4z"/>
	<path class="st6" d="M149.4,142.4c-0.1-3.3,1.4-4,3-3.9c2,0.1,3.9,1.4,3.8,3.3c-0.1,1.4-1.8,3.9-2.7,3.9
		C151.4,145.5,149.6,143.9,149.4,142.4z M153.4,141l1.1-0.6c-0.7-0.4-1.4-1.2-2.2-1.3c-1.2-0.2-2.5,0.6-2.1,1.8
		C151.1,143.6,152.2,139.3,153.4,141L153.4,141z"/>
	<path class="st0" d="M155.8,147.1c0.3-0.6,0.6-1.2,0.8-1.8c3.5-1.1,3.7,4.5,7.2,3.5c-2.8,4-2.7,3.9-4.7,0.4c-0.3-0.6-2-0.4-3.1-0.5
		C156,148.2,155.9,147.6,155.8,147.1z"/>
	<path class="st8" d="M104,155.3c1.1-1.2,2.1-2.4,3.2-3.6c2.4-0.6,3.8,0.1,3.3,2.9l-1.1,1.1c-0.1,0.1-0.1,0.1-0.1,0.2l-0.4,0.5
		c-0.1,0.1-0.1,0.1-0.2,0.2l-2.2,1.6L104,155.3z"/>
	<path class="st6" d="M144.9,133.1c0.2-1.6,1.4-1.2,2.3-1.1c2.3,0.5,3.6,2,2.8,4.2c-0.5,1.5-1.7,2.7-2.6,4c-1.5-1.3-3.1-2.4-4.5-3.8
		c-0.2-0.2,0.4-1.3,0.6-1.9c0,1.1-0.1,2.4,1.5,2.2c1.3-0.1,3.3-0.1,3-2.2C147.9,132.9,146.3,133,144.9,133.1z"/>
	<path class="st0" d="M111.2,159.7c0.9-1.5,2-2.7,3.9-2.5c0.5,0.1,1.2,0.6,1.3,1.1c0.4,1.8-1,2.6-2.1,3.6l-0.6,0.6
		c0,0.1-0.1,0.1-0.1,0.1l-0.9,0.6l0,0l-0.7,0.6l-0.1,0.1C111.7,162.6,111.4,161.2,111.2,159.7z"/>
	<path class="st1" d="M199.8,198.4c-0.4,0.8-0.8,1.5-1.2,2.3c-2.5-0.9-3.3-3.3-4.5-5.2c-0.1-0.2,0.3-1.2,0.5-1.2
		c1.7,0,2.5,1.1,3.2,2.5C198.1,197.6,197.7,199.6,199.8,198.4z"/>
	<path class="st6" d="M142.5,132.9c-0.7-2.3-5.9,0.8-4.7-3.9c0.1,0,0.1,0.1,0.1,0.1c0.3,0.7,0,2.2,1.4,1.5c0.8-0.4,1.4-1.4,2-2.1
		l-2.2-0.7l-0.1-0.1c0.7-1.4,2-1.3,2.8-0.5c1.3,1.4,4,2.4,2,5.1c-0.3-0.8-0.6-1.6-1-2.4c0-0.1-0.9,0.2-0.9,0.2
		C142.1,131.1,142.3,132,142.5,132.9z"/>
	<path class="st6" d="M123.1,168.6c-0.4-0.8-0.8-1.5-1.2-2.3c0-0.1,0.1-0.2,0.1-0.4l1.5,0.3c-0.1-0.5-0.3-0.9-0.5-1.3
		c-1.6-2.3-3.6-3.5-6.4-2.6l-0.1-0.1c1.3-1.9,3-1.1,4.4-0.4c2.4,1.2,4.7,2.8,4.1,6.1C124.9,168.2,123.8,168.3,123.1,168.6z"/>
	<path class="st1" d="M89.8,140.8c-1.5,0.2-3.2,0.8-3.7-1.3c-0.5-1.7,1.1-2,2.3-2.4c1.8-0.3,2,1,2.2,2.3l-0.3,0.9
		c-0.1,0.1-0.1,0.1-0.1,0.2l-0.1,0.1C89.9,140.6,89.8,140.7,89.8,140.8z"/>
	<path class="st0" d="M144.9,133.1c1.3-0.1,3-0.3,3.2,1.4c0.3,2.1-1.7,2.1-3,2.2c-1.6,0.2-1.5-1.1-1.5-2.2l0.3-0.4l0.4-0.6l0,0
		l0.4-0.4C144.8,133.2,144.9,133.1,144.9,133.1z"/>
	<path class="st5" d="M111.2,159.7c0.2,1.4,0.5,2.8,0.7,4.2c-0.1,0.1-0.1,0.3-0.2,0.4c-0.1,0-0.1,0-0.1,0.1l0,0l-0.7,0.4
		c-1.8-0.6-3-1.6-3-3.6l1.1-0.2l0.5-0.2l0.6-0.4c0.1,0,0.1-0.1,0-0.1L111.2,159.7z"/>
	<path class="st6" d="M106.9,148.8c-0.2,0.6-0.5,1.2-0.7,1.9c-2.2-4.3-4.6-8.3-10.5-7.6l-0.6,0l0.5-0.9
		C101.5,140.7,103.4,146.1,106.9,148.8z"/>
	<path class="st1" d="M124.8,91.7l2.1-2.6l0,0l0.8-0.7l0.4-0.5c0.1-0.1,0.2-0.2,0.3-0.3l0.4-0.4c0.1-0.1,0.1-0.1,0.1-0.2l1.3-1.7
		l2.1,0.6L124.8,91.7z"/>
	<path class="st6" d="M163.8,148.8c-3.5,1-3.7-4.6-7.2-3.5c0.6-0.5,1.4-1.6,1.7-1.5c0.8,0.3,2,1.3,2,1.8
		C160,148.6,164.4,146,163.8,148.8z"/>
	<path class="st5" d="M93.4,142.4c-2.6,1.5-1.1-2.5-2.9-2.1v-0.1l1.7-2.1l0.5,0.3C92.9,139.7,93.2,141.1,93.4,142.4z"/>
	<path class="st6" d="M92.7,138.4l-0.5-0.3c1.2-1.6,2.7-1,3.7-0.1c1,0.8,1.1,2.1,0,3.2c-0.3-0.1-0.5-0.2-0.8-0.3l0.1-0.7l0.5-0.5
		l-0.6-0.5l-0.2-0.4l-0.4-0.3H92.7z"/>
	<path class="st1" d="M132.2,85.9l2.9,0.9l0.2,0.3c0.1,0,0.1,0.1,0.1,0.1c-0.4,0.6-0.8,1.3-1.2,1.9L132.2,85.9z"/>
	<path class="st0" d="M142.5,132.9c-0.2-0.9-0.4-1.8-0.5-2.7c0,0,0.8-0.3,0.9-0.2c0.4,0.8,0.7,1.6,1,2.4c-0.1,0.1-0.1,0.1-0.1,0.2
		h-0.1v0.1c-0.1,0-0.1,0.1-0.2,0.1L143,133L142.5,132.9z"/>
	<path class="st6" d="M116.5,166.5c-0.3-1.3-0.5-2.6-0.8-3.9l0.8-0.4l0.1,0.1L116.5,166.5z"/>
	<path class="st6" d="M155.8,147.1c0.1,0.5,0.1,1.1,0.2,1.6C154.8,148.3,154.6,147.8,155.8,147.1z"/>
	<path class="st2" d="M109.5,155.6l1.1-1.1L109.5,155.6z"/>
	<path class="st5" d="M112.7,163.3l0.9-0.6L112.7,163.3z"/>
	<path class="st6" d="M201,195.2c-0.1,0.3-0.3,0.6-0.4,0.9L201,195.2z"/>
	<path class="st5" d="M112,163.9l0.7-0.6L112,163.9z"/>
	<path class="st2" d="M108.9,156.3l0.4-0.5L108.9,156.3z"/>
	<path class="st5" d="M113.8,162.6l0.6-0.6L113.8,162.6z"/>
	<path class="st6" d="M138.4,128.3l0.6-0.6l0.1,0.1l-0.6,0.6L138.4,128.3z"/>
	<path class="st6" d="M137.8,129l0.6-0.7l0.1,0.1c-0.2,0.2-0.4,0.4-0.6,0.7C137.9,129.1,137.8,129,137.8,129z"/>
	<path class="st4" d="M90.5,140.2L90.5,140.2l-0.1,0.1h-0.1l0.3-0.9C90.5,139.7,90.5,140,90.5,140.2z"/>
	<path class="st2" d="M110.1,160.3c0,0.1,0,0.1,0,0.1C110,160.4,110,160.4,110.1,160.3L110.1,160.3z"/>
	<path class="st6" d="M144.3,133.6l-0.4,0.6L144.3,133.6z"/>
	<path class="st6" d="M144.8,133.2l-0.4,0.4L144.8,133.2z"/>
	<path class="st2" d="M109.5,160.8l-0.5,0.2L109.5,160.8z"/>
	<path class="st2" d="M111.6,164.5c0-0.1,0.1-0.1,0.1-0.1l0,0C111.7,164.5,111.6,164.5,111.6,164.5z"/>
	<path class="st6" d="M143,133l0.4-0.1L143,133z"/>
	<path class="st6" d="M143.6,132.7v-0.1h0.1C143.7,132.6,143.6,132.7,143.6,132.7z"/>
	<path class="st1" d="M155.9,198.5l-0.5-0.1L155.9,198.5z"/>
	<path class="st3" d="M136.9,106.5c4.4,0.2,10.6,0.1,15.5,4.5c0.3,0.2,0.7,0.7,0.6,1c-1.1,2.9-2.3,5.8-3.5,8.7
		c-0.8-0.4-1.8-0.8-2.5-1.4c-4.9-3.5-9.1-8.1-15.4-9.3c-0.3-0.1-0.7-0.7-0.6-0.8C131.9,107.5,132.9,105.9,136.9,106.5z"/>
	<path class="st0" d="M126,105.4c1.1-4.1,1.4-8.9,3.6-12.5c1.1-1.9,0.3,2.3,1.9,2.6c0.5,0.1,1,0.6,1.5,0.8c1.5,0.6,0.5-4.7,2.7-1.4
		c2,3,2.7,6.3-1.5,8.8c-2.5,1.5-4.6,3.5-6.9,5.3c-0.1,0.1-0.3,0.1-0.4,0.2L126,105.4z"/>
	<path class="st3" d="M198.9,173.8c-0.3-0.4-0.6-0.6-0.5-0.8c0.1-0.3,0.4-0.6,0.6-0.8c0.2,0.2,0.6,0.5,0.6,0.7
		C199.6,173,199.2,173.3,198.9,173.8z"/>
	<path class="st3" d="M135.4,87l-0.2-0.3L135.4,87z"/>
	<path class="st6" d="M82.1,93.3l1.8,0.2c-5.9,2-1.3,5.3-0.4,7.3c2.2,4.6-1.5,4.6-3.7,5.8c5-3.6,0.2-8.1,0.9-12.1
		c0.1-0.5-4.1,0.5-2.7-2.8C78.3,94.7,80.3,93.7,82.1,93.3z"/>
	<path class="st6" d="M89.5,95c0.2,0.2,0.4,0.5,0.6,0.7c-0.9,1-1.8,2-2.9,2.9c-0.1,0.1-1.3-0.7-1.3-0.9C86.2,95.9,87.2,94.9,89.5,95
		z"/>
	<path class="st6" d="M78.9,107.4c0.3-0.2,0.5-0.5,0.8-0.7L78.9,107.4z"/>
	<path class="st6" d="M78.6,107.6c0-0.1,0.1-0.1,0.1-0.1L78.6,107.6z"/>
	<path class="st0" d="M95.7,143.1c5.9-0.8,8.3,3.3,10.5,7.6l-3.8,3.4l-2.3-2.3c0.7-1.6,2.2-3.2-0.1-4.7l-0.6-0.4l-1.5-0.5l-0.5,0.1
		l-0.7,0.1l-2.3-2.3l0.6-0.5L95.7,143.1z"/>
	<path class="st1" d="M99.8,150.2c-0.1,0.1-0.6,0.7-1.1,0.7c-1.2-0.1-2.8,0.1-2.7-1.9c0-1.2,0.5-2,1.8-1.9
		C99.4,147.2,100.2,148,99.8,150.2z"/>
	<path class="st5" d="M100.1,151.7l2.3,2.4c-0.8,0.5-2,1.7-2.5,1.4c-0.9-0.4-1.4-1.7-2.1-2.6L100.1,151.7z"/>
	<path class="st5" d="M94.3,144l2.3,2.3c-1.3,0.3-1.6,3.6-3.5,1.6C92.2,146.9,92.8,145,94.3,144z"/>
	<path class="st8" d="M92.7,138.4l2,0l0.4,0.3c0.1,0.1,0.1,0.2,0.2,0.4c0,0.4,0,0.7,0,1l-0.1,0.7l-0.9,0.9l-0.7,0.5
		c-0.1,0.1-0.1,0.1-0.1,0.1C93.2,141.1,92.9,139.7,92.7,138.4z"/>
	<path class="st5" d="M104,155.3l2.5,2.9l-1.3,2c-0.7-0.7-1.7-1.3-1.9-2.1C103.1,157.3,103.7,156.2,104,155.3z"/>
	<path class="st5" d="M95.7,143.1l-0.9,0.4c0.1-0.1,0.2-0.3,0.3-0.4C95.3,143.1,95.5,143.1,95.7,143.1z"/>
	<path class="st5" d="M93.6,142.3l0.7-0.5L93.6,142.3z"/>
	<path class="st5" d="M97.3,146.2l0.5-0.1L97.3,146.2z"/>
	<path class="st5" d="M99.4,146.5l0.6,0.4L99.4,146.5z"/>
	<path class="st4" d="M90,140.6L90,140.6L90,140.6z"/>
	<path class="st1" d="M85.5,132.7l-0.2,0.7l-0.6,0.2c-2.4-1.7-2.3-4.6,0.2-6.1C85.1,129.2,85.3,131,85.5,132.7z"/>
	<path class="st0" d="M116.5,166.5l0.1-4.2c2.9-1,4.9,0.3,6.4,2.6c0.2,0.4,0.4,0.9,0.6,1.3l-1.5-0.3l-1.3-0.7l-1,0l-1.9,3.5
		c-0.1-0.1-0.1-0.3-0.2-0.4c0.1-0.4,0.2-0.8,0.3-1.3l-0.8,0.5L116.5,166.5z"/>
	<path class="st5" d="M117.3,167.6l0.8-0.5c-0.1,0.4-0.2,0.8-0.3,1.3L117.3,167.6z"/>
	<path class="st5" d="M123.9,86.8l-0.8,0.1L123.9,86.8z"/>
	<path class="st0" d="M88.7,125.4c-0.4,0.1-1.2,0.4-2,0.5c-0.1,0-0.6-0.5-0.5-0.6c0.4-0.8,0.9-1.7,1.4-2.5
		C87.7,123.2,87.9,123.6,88.7,125.4z"/>
	<path class="st5" d="M120.8,165.3l1.3,0.7c0,0.1-0.1,0.2-0.1,0.4C121.6,166,121.2,165.6,120.8,165.3z"/>
	<polygon class="st5" points="120,86.5 120,86.5 120,86.5 	"/>
	<path class="st0" d="M31.1,83c0.2-1.7,0.5-3.3,0.7-5l4.1-0.1c0,0.1,0.1,0.2,0.1,0.3L37,81c-0.2,0.4-0.4,0.8-0.5,1.2L31.1,83z
		 M33.8,79c-0.5,0.5-1.1,1.1-1.5,1.7c-0.1,0.1,0.3,0.5,0.5,0.8l2.2-1.9L33.8,79z"/>
	<path class="st6" d="M43.7,63c-0.3,3.5-0.6,7-0.9,10.5c0,0.2-0.4,0.4-0.6,0.6c-0.8-1.6-1.6-3.3-2.3-4.9L43.7,63z"/>
	<path class="st1" d="M37.4,70.6c1.3,3,2.5,5.6,3.3,8.3c0.1,0.4-1.6,1.3-2.4,1.9c-0.7-2.8-1.5-5.7-2.1-8.5
		C36.1,71.9,36.8,71.4,37.4,70.6z"/>
	<path class="st6" d="M44.6,59l-0.7-8.1c-0.9-1.8-1.3-4-3.5-4.8c0.4-1.1,0.8-2.1,1.1-3.2l2.8-0.9c-5.8,3.3,0.5,5.8,0.6,8.6
		C45,53.5,44.7,56.2,44.6,59z"/>
	<path class="st0" d="M43,80.1c1.9,0.2,3.1,0.7,2.9,2.2c-0.1,0.8-1,1.5-1.6,2.3c-0.4-0.3-1-0.5-1-0.8C43,82.5,43,81.3,43,80.1z"/>
	<path class="st6" d="M36,77.9l-4.1,0.1c0.3-2,0.6-4,0.9-6l1.3,0.1C34.1,74.3,33.8,76.5,36,77.9z"/>
	<path class="st6" d="M37,81l-0.9-2.9L37,81z"/>
	<path class="st2" d="M202.1,197.5l1-1.6c1.6-0.2,0.8,1.2,1.2,1.8l-2.5,2C201.9,199,202,198.3,202.1,197.5z"/>
	<path class="st2" d="M206.2,195.4l-0.1,0.7l-0.1,0h-0.1C206,195.9,206.1,195.6,206.2,195.4z"/>
	<path class="st2" d="M205.6,196.4l0.3-0.3L205.6,196.4z"/>
	<path class="st2" d="M205.2,196.8l0.3-0.3L205.2,196.8z"/>
	<path class="st2" d="M204.6,197.4l0.3-0.3L204.6,197.4z"/>
	<path class="st0" d="M254.3,207.4c0-0.1-0.1-0.1-0.1-0.2l0-0.4l0,0c-0.3-0.9-0.6-1.7-0.8-2.6l-0.1-0.1c-0.1-0.8-0.2-1.7-0.3-2.5
		c1.9,0.1,1.8,1.6,2.1,2.9c1,3.9,2,7.8,3,11.7c0.1,0.5,0,1,0,1.5c-0.3-0.4-0.5-0.9-0.7-1.3C256.3,213.3,255.3,210.3,254.3,207.4z"/>
	<path class="st0" d="M262.3,231c-1.3,0.5-2.3,0.1-2.5-1.3c-0.1-0.6,0.5-1.8,0.8-1.7c1.7,0.1,0.9,1.3,1,2.3c0,0.2,0.4,0.4,0.7,0.6
		L262.3,231z"/>
	<path class="st0" d="M246,219.6c-0.1-1.4,0.7-2.1,2-2.2c0.2,0,0.5,0.5,0.8,0.7c-1.6,1.1,1.6,3.3-0.7,4
		C246.9,222.4,245.9,221,246,219.6z"/>
	<path class="st3" d="M253.9,245.7c-1.1,0.1-1.1-0.5-0.7-1.3L253.9,245.7z"/>
	<path class="st3" d="M253,243.8l-0.6-1L253,243.8z"/>
	<path class="st3" d="M252,242.5c-0.1-0.2-0.2-0.4-0.3-0.6C251.8,242,251.9,242.2,252,242.5z"/>
	<path class="st5" d="M263.4,197.6c1.1,0.7,3,0.6,2.6,2.7c-1.4-1.4-2.8-2.4-3.4,0.6c-0.1-0.2-0.3-0.4-0.3-0.6
		c-0.1-0.6,0-1.3-0.1-1.9c-0.1-0.9-0.3-1.8-0.4-2.7l0.1-0.1l0.9,1.2L263.4,197.6z"/>
	<path class="st3" d="M260.1,202.3l-0.7-0.6L260.1,202.3z"/>
	<path class="st5" d="M266,201c0,0.2,0,0.4,0,0.6C266,201.4,266,201.2,266,201z"/>
	<path class="st1" d="M267.6,204c-2.3-11,2.6,0.6,3.3-1.1c0,0.2,0,0.4,0,0.6C270.1,205.9,268.8,204.4,267.6,204z"/>
	<path class="st3" d="M262.8,197l-0.9-1.2c0-0.2,0-0.4,0-0.6L262.8,197z"/>
	<path class="st3" d="M261.9,195.1l-0.4-0.3L261.9,195.1z"/>
	<path class="st6" d="M253.3,204.2c0.3,0.9,0.6,1.7,0.8,2.6C253.9,205.9,253.6,205,253.3,204.2z"/>
	<path class="st6" d="M254.2,206.8l0,0.4L254.2,206.8z"/>
	<path class="st6" d="M157.5,123.2c0.9-6.3,4.2-10.4,10.5-11.8c0.6-0.1,1.5,0.5,2.2,0.8c-0.5,0.5-1,1.2-1.6,1.4
		c-5.8,1.6-9.8,4.7-9.9,11.4c0,0.7-0.4,1.4-0.7,2C157.9,125.8,157.7,124.5,157.5,123.2z"/>
	<path class="st6" d="M175.9,116.9c-1.9-0.5-3.7-1.2-4-3.5c-0.1-0.4,1-1.2,1.4-1.2c2.1,0.2,3.8,1.2,4.3,3.4
		C177.8,116.8,177,117,175.9,116.9z"/>
	<path class="st0" d="M163.2,154.9c-0.6-1.9,0.6-2.8,2-3.4c0.2-0.1,0.9,0.4,1,0.8c0.7,2.6-1.3,2.5-2.9,2.8
		C163.2,155,163.2,155,163.2,154.9z"/>
	<path class="st0" d="M153.4,141c-1.2-1.7-2.3,2.6-3.2-0.1c-0.4-1.1,0.9-2,2.1-1.8c0.8,0.1,1.5,0.8,2.2,1.3L153.4,141z"/>
	<path class="st0" d="M137.9,129.1c0.2-0.2,0.4-0.4,0.6-0.7l0.6-0.6l2.2,0.7c-0.7,0.7-1.2,1.7-2,2.1
		C137.9,131.3,138.1,129.9,137.9,129.1z"/>
	<path class="st5" d="M128.4,87.7l0.4-0.4L128.4,87.7z"/>
	<path class="st5" d="M95.3,140.1c0-0.4,0-0.7,0-1l0.6,0.5L95.3,140.1z"/>
	<path class="st5" d="M95.1,138.8l-0.4-0.3L95.1,138.8z"/>
	<path class="st6" d="M33.8,79l1.1,0.6l-2.2,1.9c-0.2-0.3-0.6-0.7-0.5-0.8C32.8,80,33.3,79.5,33.8,79z"/>
</g>
</svg>
