<?xml version="1.0" encoding="utf-8"?>
<!-- Generator: Adobe Illustrator 25.1.0, SVG Export Plug-In . SVG Version: 6.00 Build 0)  -->
<svg version="1.1" id="Calque_1" xmlns="http://www.w3.org/2000/svg" xmlns:xlink="http://www.w3.org/1999/xlink" x="0px" y="0px"
	 viewBox="0 0 297.6 297.6" style="enable-background:new 0 0 297.6 297.6;" xml:space="preserve">
<style type="text/css">
	.st0{fill:url(#SVGID_1_);}
	.st1{fill:#EE7260;}
	.st2{fill:url(#SVGID_2_);}
	.st3{fill:url(#SVGID_3_);}
	.st4{fill:url(#SVGID_4_);}
	.st5{fill:url(#SVGID_5_);}
	.st6{fill:url(#SVGID_6_);}
	.st7{fill:#E31C1C;}
	.st8{fill:#DC1418;}
	.st9{fill:none;stroke:#F7E82A;stroke-miterlimit:10;}
	.st10{fill:#FFFFFF;}
	.st11{fill:#FFFFFF;stroke:#DC1418;stroke-width:0.5;stroke-miterlimit:10;}
</style>
<g>
	<g id="Calque_3">
		
			<linearGradient id="SVGID_1_" gradientUnits="userSpaceOnUse" x1="156.0922" y1="122.1844" x2="268.5649" y2="122.1844" gradientTransform="matrix(1 0 0 -1 -64.08 277.8911)">
			<stop  offset="0" style="stop-color:#C8B70A"/>
			<stop  offset="0.43" style="stop-color:#F1E51F"/>
			<stop  offset="0.98" style="stop-color:#D7C40F"/>
		</linearGradient>
		<path class="st0" d="M204.5,262.5c-14.3,11.9-32.1,18.7-50.6,19.4c-21.4,0.5-42.2-7.1-58.3-21.2c-1.2-77.1-2.4-154.2-3.6-231.3
			h110.6C203.3,107.2,203.9,184.8,204.5,262.5z"/>
		<path class="st1" d="M93.3,24.9"/>
		
			<linearGradient id="SVGID_2_" gradientUnits="userSpaceOnUse" x1="157.3598" y1="156.3845" x2="267.6568" y2="156.3845" gradientTransform="matrix(1 0 0 -1 -64.08 277.8911)">
			<stop  offset="0" style="stop-color:#04803B"/>
			<stop  offset="0.43" style="stop-color:#6DB64B"/>
			<stop  offset="0.98" style="stop-color:#07823C"/>
		</linearGradient>
		<path class="st2" d="M203.6,148.4c-18.4,6.7-37.8,9.9-57.3,9.7c-18.1-0.2-36-3.5-53-9.7V84.9c18,5.1,36.6,7.6,55.3,7.6
			c18.5,0,37-2.5,54.9-7.6L203.6,148.4z"/>
		
			<image style="overflow:visible;opacity:0.25;enable-background:new    ;" width="118" height="207" xlink:href="746EBB2.png"  transform="matrix(0.4541 0 0 0.4541 121.8283 38.0579)">
		</image>
		
			<linearGradient id="SVGID_3_" gradientUnits="userSpaceOnUse" x1="191.6029" y1="192.9573" x2="228.3623" y2="192.9573" gradientTransform="matrix(1 0 0 -1 -64.08 277.8911)">
			<stop  offset="0" style="stop-color:#04803B"/>
			<stop  offset="0.43" style="stop-color:#6DB64B"/>
			<stop  offset="0.98" style="stop-color:#07823C"/>
		</linearGradient>
		<path class="st3" d="M164.3,107.8c-5.5-0.6-10.9,0.9-15.4,4.1c-2.8,2.2-3.3,4.2-6.2,6.5c-4.3,3.4-9.7,5.1-15.1,5v-77h36.8
			L164.3,107.8z"/>
		<path class="st1" d="M92.2,31.4"/>
		
			<linearGradient id="SVGID_4_" gradientUnits="userSpaceOnUse" x1="154.9261" y1="237.3792" x2="267.2595" y2="237.3792" gradientTransform="matrix(1 0 0 -1 -64.08 277.8911)">
			<stop  offset="0" style="stop-color:#A82417"/>
			<stop  offset="0.49" style="stop-color:#E20E1A"/>
			<stop  offset="0.98" style="stop-color:#A42417"/>
		</linearGradient>
		<path class="st4" d="M147,41.1c8.4-5.7,15.5-7.1,21.1-6.6c6.3,0.5,7.4,3.1,13.6,3.1c10.8,0,19-8.4,21-6.2c0.3,0.6,0.4,1.3,0.4,2
			c0,1.7-0.1,3.4-0.3,5.1c0.1,1.3,0.2,2.7,0.4,4c-0.6,5.6-35.3,6.8-39.2,6.9c-20.4,0.6-30.8,0.9-38.6,0c-11.3-1.3-22.4-3.8-33.2-7.4
			c-0.4-2.2-0.7-4.1-0.9-5.7c-0.5-3.3-0.6-4.5,0.2-5.1c0.8-0.4,1.7-0.3,2.5,0.1"/>
		
			<linearGradient id="SVGID_5_" gradientUnits="userSpaceOnUse" x1="155.073" y1="251.1205" x2="268.6619" y2="251.1205" gradientTransform="matrix(1 0 0 -1 -64.08 277.8911)">
			<stop  offset="0" style="stop-color:#C41D18"/>
			<stop  offset="0.43" style="stop-color:#E20F1A"/>
			<stop  offset="0.98" style="stop-color:#DE1118"/>
		</linearGradient>
		<path class="st5" d="M91.4,31.3h0.2C91.6,31.3,91.4,31.3,91.4,31.3c-0.1,0-0.2,1.3-0.3,1.3c-0.2-2.7-0.1-5.5,0.4-8.2
			c0.1-0.4,0.2-0.8,0.3-1.1c0.4-1.4,1.1-2.7,2.1-3.8c0.5-0.6,1.6-1.6,1.6-1.6h0.7c18.9-1.4,30.3-3.1,30.3-3.1
			c7.8-1.1,12.8-2.2,18.4-2.5c4.6-0.3,9.3-0.2,9.3-0.2l3.8,0.1c6.7,0.3,13.5,1.3,17.5,1.7c0,0,25.4,2.9,26.9,5.1
			c0.3,0.4,0.5,0.8,0.5,0.8c0.1,0.3,0.3,0.5,0.4,0.8c0.3,0.7,3,9.9-1.3,13.2c-0.8,0.6-1.6,1-2.6,1.1c-38.9,6.7-47.3,6.6-47.3,6.6
			c-23.4-0.2-42-4-50.2-6.7L91.4,31.3z"/>
		
			<linearGradient id="SVGID_6_" gradientUnits="userSpaceOnUse" x1="94.2068" y1="280.1661" x2="202.3471" y2="280.1661" gradientTransform="matrix(1 0 0 -1 0 298.851)">
			<stop  offset="0" style="stop-color:#EA5D4A"/>
			<stop  offset="0.43" style="stop-color:#EE7062"/>
			<stop  offset="0.98" style="stop-color:#DE5841"/>
		</linearGradient>
		<ellipse class="st6" cx="148.3" cy="18.7" rx="54.1" ry="8.8"/>
		<path class="st7" d="M92.9,30.5"/>
		<path class="st7" d="M96.1,44.9"/>
		<path class="st8" d="M150.9,155.6c1.9-2.2,3.4-4.7,4.5-7.5c1-2.6,3.3-9.7,2.5-14.1c-0.2-0.8-0.1-1.6,0.2-2.4
			c0.5-1.2,1.9-2.5,3-2.3c1.1,0.2,1.1,2.5,2.9,3.5c1.3,0.6,2.8,0.6,4,0c4-1.3,6-6,5.4-6.6c-0.6-0.6-2.6,1.3-2.9,0.9
			c-0.3-0.4,2.1-2.9,1.7-3.4s-1.4,0.5-1.6,0.2s1.8-2.1,1.4-3.2c-0.6-1.5-6.3-1.6-8.2,0.6c-0.5,0.6-1,1.2-1.4,1.9
			c-0.8,1.3-0.6,1.6-1.1,2c-0.9,0.8-2,0.4-4.2,0.5c-1.3,0.1-2.7,0.3-4,0.7c-2,1.4-3.6,3.3-4.8,5.5c-1.4,2.9-1.2,4.9-3,6.1
			c-1.6,0.8-3.4,0.9-5.1,0.4c-4.6-0.6-9.4-0.4-13.9,0.5c-7.7,1.6-12.1,10-12.9,11.6c-4.3,8.1-3.8,18,1.3,25.6
			c1.1,1.5,6.9,9.8,16.6,9.6c8.1-0.4,15.1-5.6,17.7-13.2c1.5-4.4,1.5-9.2,0-13.6"/>
		<path class="st9" d="M115.3,157.8"/>
		<ellipse class="st10" cx="130.7" cy="164.2" rx="17.4" ry="19.7"/>
		<path class="st11" d="M166.4,154.9l0.3,0.1c1.9,1,4.1,1,6,0.2c2-1,3.2-3,3-5.2c-0.1-0.8-0.6-1.9-1.5-2.2c-1.2-0.3-2.6,1.5-2.6,1.4
			s2.5-2.2,2.1-3.1c-0.2-0.6-1.5-0.7-2.4-0.4c-1,0.4-1.8,1.3-2.3,2.3c0.3-0.6,0.6-1.1,1.1-1.6c0.7-0.9,1.3-1.2,1.2-1.8
			c0-0.2-0.1-0.4-0.3-0.5c-0.6-0.5-2-0.2-3.6,0.8c0.3-1.1,0.2-2.3-0.3-3.4c-0.1-0.2-0.7-1.4-1.2-1.3c-0.5,0.1-0.1,2-1.1,4.3
			c-0.4,0.9-0.9,1.8-1.6,2.6c-0.1,0.3-0.2,0.5-0.3,0.8C162.6,150.7,163.9,153.5,166.4,154.9z"/>
		<path class="st11" d="M158.1,139.8c4.8,3.1,6.3,4.4,6.1,5.5c-0.2,0.6-0.7,1.2-1.3,1.3c-4.7,1.7-13.8-14.9-18.9-13
			c-1.1,0.8-2.4,1.4-3.7,1.7c-1.3,0.2-2.6,0-3.8-0.6c-2.8-2-3.6-5.8-2-8.9c1.8-3.1,5.7-4.4,9-2.8c1.2,0.8,2.1,2,2.4,3.4
			c0,1,0.1,2,0.3,3c0.2,0.8,0.6,1.6,1.2,2.3C149.6,134.5,155.3,138,158.1,139.8z"/>
		<path class="st8" d="M166.1,155.5l0.9,10l-3,0.5c-4.1,0.7-6.1,1.1-6.9,1.3c-3.8,0.9-5.7,4.2-8.1,7.1c-5.2,6-12,10.4-19.6,12.8
			c-4.3,1.3-12.5,3-15.7,1.4c-0.2,0-0.9-0.5-1.2-0.2c-0.9,0.8,2.3,6.4,2.3,6.4c-0.2,0.8,0,1.7,0.4,2.4c1.4,2.3,6.2,1.9,11.4,1.4
			c6-0.6,5.7-1.4,9-1.2c4.3,0.2,4.4,1.5,9.6,2c4.4,0.4,7.2-0.2,7.7,1c0.4,0.9-0.5,2.1-1.3,3c-2.5,0.9-8.6,3.6-9.8,8.8
			c-0.3,2.1-0.1,4.2,0.8,6.2c3,10.6,6.6,16.2,5.4,17.1c-1.1,0.9-7-6.2-9.8-4.7c-2.1,1.1-2.2,7.1,0.8,10.7c1.6,2,4.7,4.1,7.3,3.4
			c1.9-0.5,2.6-2.4,4.1-2.1c1.5,0.3,1.2,1.5,2.6,2.1c1.9,0.5,3.9-0.2,5.1-1.7c1.7-2.2,1.3-5.3-0.8-7.2c-1.5-1.1-2.9,0.1-3.8-0.7
			c-1.9-1.9,4-7.4,2.1-12.8c-1-2.8-3.7-4.7-3.2-5.3c0.5-0.5,1.2,0.1,2,0.5c-3.3-1.2-3.8-1.9-3.8-2.2c0.2-1.6,10.7,0.4,14.1-4.8
			c1.3-1.9,1.2-4.3,2.6-4.6c1.5-0.3,1.9,1.2,3.6,2.3c3.6,2.4,9.6,4.1,13,1.9c0.7-0.5,1.6-1.3,3.6-7.7c1.3-4.1,2.1-7.6,2.6-10.2
			c1.2,4.3,3.5,7.1,5.3,7c2.7-0.3,3.5-7.4,3.6-7.7c0.2-1.5,0.6-6-1.7-7.6c-1.6-1-3.2,0.2-4.7-0.9c-1.2-1.3-1.7-3.1-1.3-4.9
			c-2.7-1.4-6-0.4-7.4,2.3c-0.7,1.2-0.8,2.7-0.5,4c0.6,2.1,2.3,2.1,2.4,3.6c0,2.2-3.8,2.5-5.8,6.5c-1.3,2.4-1.1,4.6-1.6,4.6
			c-0.5,0-0.2-3.8-2.6-6.9c-2-2.6-6-4.6-8.9-3.6c-1.9,0.6-2.4,2.1-3.5,1.8c-1.5-0.4-1.9-3.3-2-4.9c-0.3-2.6-0.8-6.1,1.2-8
			c1.5-1.5,3.1-0.2,6.6-1.3c2.1-0.6,6.5-1.9,8.3-5.1c2-3.6,0.4-9.2-3.8-13.9"/>
		<path class="st11" d="M174.6,194.9"/>
		<path class="st11" d="M111.8,189.1c-1.1-1.3-2.4-2.3-4-2.9c-2-0.6-4.1-0.3-4.1,0c0,0.3,3.6,1.2,3.5,1.6c-0.1,0.4-0.4,0.1-1.9,0.2
			c-2.5,0-2.3,0-2.7,0c-1.6-0.2-2-0.6-2.9-0.3c-0.6,0.2-1.4,0.6-1.3,1.1c0,0.8,2.3,1.4,3.7,1.6h0.6c1.5,0.2,3,0,4.5-0.4
			c0,0-5,0.3-5.1,1.3c0,0.5,1,1,1.3,1.1c1,0.4,2,0.6,3.1,0.5c-1-0.2-2-0.1-2.9,0.4c-0.2,0.1-0.9,0.6-0.8,1.2
			c0.1,0.3,0.2,0.6,0.5,0.7c1.2,1.1,3.8,0.2,3.8,0.4c0,0.2-3.2,0.8-3.2,1.3s2.5,0.8,5.1,0.6c1.9-0.2,5.9-0.5,6.6-2.6
			C115.8,193.4,113.9,191.4,111.8,189.1z"/>
	</g>
</g>
</svg>
