<?xml version="1.0" encoding="utf-8"?>
<!-- Generator: Adobe Illustrator 25.2.3, SVG Export Plug-In . SVG Version: 6.00 Build 0)  -->
<svg version="1.1" id="Calque_2_1_" xmlns="http://www.w3.org/2000/svg" xmlns:xlink="http://www.w3.org/1999/xlink" x="0px"
	 y="0px" viewBox="0 0 105 105" style="enable-background:new 0 0 105 105;" xml:space="preserve">
<style type="text/css">
	.st0{fill:#CAA359;}
	.st1{fill:#E1B563;}
	.st2{fill:#D89833;}
	.st3{fill:#F2D188;}
	.st4{fill:#ECB22C;}
</style>
<polygon class="st0" points="20,7.7 42.9,4.9 82.8,15.6 82.3,33.8 "/>
<path class="st1" d="M83.8,93.9c-2.9,2.3-16.5,6-25.3,6.3c0,0-0.2-7.4-0.3-17.7c0-2.1-0.1-4.4-0.1-6.7c-0.1-4.3-0.1-8.9-0.2-13.6
	c0-3.8-0.1-7.7-0.1-11.4c-0.1-13.3-0.1-25.5,0.1-30.8c4.4-0.4,21.5-3.8,25-4.3c0.1,2.7-0.3,34.5-0.4,40.1
	C82.3,61.3,83.6,89.1,83.8,93.9z"/>
<path class="st2" d="M76.3,72.3c0-0.2,0-0.4-0.1-0.6c0-0.2-0.1-0.5-0.2-0.7c-0.1-0.2-0.2-0.3-0.3-0.5c-0.1-0.1-0.2-0.2-0.2-0.3
	c-0.1-0.2-0.3-0.3-0.4-0.3c0,0-0.1-0.1-0.2-0.1c0-0.1-0.1-0.2-0.2-0.2c-0.1-0.1-0.2-0.2-0.3-0.2c-0.1,0-0.2-0.1-0.3-0.1l-0.2,0
	c-0.2,0-0.3-0.1-0.5-0.1h-0.1c-0.4,0-0.8,0.1-1.2,0.3c-0.3,0.2-0.5,0.3-0.8,0.5c-0.2,0.2-0.4,0.3-0.5,0.5c-0.2,0.2-0.3,0.3-0.4,0.5
	c-0.1,0.2-0.2,0.3-0.3,0.5c-0.1,0.2-0.1,0.3-0.2,0.5C70.1,72.3,70,72.7,70,73s0.1,0.8,0.3,1.1c0.1,0.1,0.2,0.3,0.2,0.4
	c0.1,0.1,0.2,0.2,0.2,0.3c0.1,0.2,0.3,0.3,0.4,0.4c0.2,0.1,0.3,0.2,0.5,0.2c0.1,0,0.2,0,0.3,0.1c0.1,0,0.3,0.1,0.4,0.1
	c0.3,0.1,0.7,0.1,1,0.1c0.1,0,0.3,0,0.4,0c0.2,0,0.3,0,0.5-0.1c0.1,0,0.2-0.1,0.4-0.2s0.3-0.1,0.4-0.2c0.3-0.2,0.6-0.4,0.7-0.7
	C76.3,73.9,76.4,73.1,76.3,72.3z"/>
<path class="st2" d="M63.4,78.3c0,0.3-0.1,0.7-0.2,1c-0.3,0.6-0.6,1.2-1,1.7L62,81.2c-0.1,0.2-0.3,0.4-0.4,0.6
	c-0.2,0.2-0.5,0.4-0.8,0.6c-0.2,0.1-0.3,0.2-0.5,0.2s-0.4,0-0.6,0h-0.1c-0.1,0-0.2,0-0.3,0h-0.1c0,0-0.1,0-0.1,0c0,0-0.1,0-0.2,0
	c0,0-0.1,0-0.2,0l-0.7-0.2c0-2.1-0.1-4.4-0.1-6.7c0.1,0,0.1,0,0.2,0h0c0-0.1,0-0.2,0.1-0.2c0.1-0.1,0.2-0.2,0.3-0.2
	c0.2,0,0.4,0,0.6,0h0c0.1,0,0.2,0,0.3,0.1c0.2,0,0.4,0,0.6,0v0c0.1,0,0.2,0,0.3,0c0.3,0,0.7,0.1,1,0.2c0.4,0.1,0.7,0.3,1,0.6
	c0.1,0.1,0.2,0.2,0.3,0.3l0,0c0.1,0.1,0.2,0.2,0.3,0.4c0.2,0.3,0.2,0.5,0.3,0.8C63.4,77.9,63.4,78.1,63.4,78.3z"/>
<path class="st2" d="M64.1,55.7c0-0.3,0-0.6-0.1-0.9c-0.1-0.2-0.1-0.5-0.2-0.7c-0.1-0.3-0.2-0.5-0.4-0.8c-0.2-0.4-0.5-0.8-0.9-1.2
	c-0.2-0.2-0.4-0.3-0.6-0.5c-0.2-0.1-0.3-0.2-0.5-0.3c-0.3-0.2-0.7-0.4-1.1-0.5c-0.1,0-0.1,0-0.2,0c0,0,0,0-0.1,0
	c-0.2-0.1-0.3-0.1-0.5-0.2c-0.1,0-0.1,0-0.2,0c0,0-0.1,0-0.1,0c-0.1,0-0.3-0.1-0.4-0.1c-0.1,0-0.3,0-0.4,0h-0.4l0,0
	c-0.1,0-0.2,0.1-0.3,0.2c0,3.8,0.1,7.6,0.1,11.4c0.2,0.1,0.3,0.1,0.5,0c0,0,0.1-0.1,0.1-0.1h0c0,0,0.1,0,0.1,0c0.1,0,0.2,0,0.3,0
	c0.2-0.1,0.3-0.1,0.5-0.2c0.2-0.1,0.5-0.2,0.7-0.3l0.5-0.3l0.3-0.2l0.3-0.2l0.2-0.1l0.1,0c0.1-0.1,0.2-0.2,0.3-0.2
	c0.2-0.2,0.5-0.3,0.7-0.5l0.1,0c0.2-0.1,0.3-0.3,0.4-0.4c0.2-0.2,0.3-0.3,0.5-0.5l0-0.1c0.2-0.2,0.3-0.4,0.3-0.6
	c0.1-0.2,0.2-0.5,0.3-0.8c0-0.1,0-0.2,0.1-0.3v-0.1c0-0.2,0-0.3,0-0.5C64.2,56.2,64.2,55.9,64.1,55.7z M58.7,52.9L58.7,52.9
	L58.7,52.9L58.7,52.9L58.7,52.9z M58.8,52.9L58.8,52.9L58.8,52.9L58.8,52.9L58.8,52.9z"/>
<path class="st2" d="M77.8,30c-0.3,0-0.7,0.1-1,0.2c-0.3,0.2-0.6,0.4-0.9,0.6c-0.3,0.2-0.5,0.5-0.7,0.7c-0.4,0.5-0.8,1-1.1,1.6
	c-0.3,0.6-0.5,1.3-0.7,2c-0.2,0.8-0.2,1.6,0,2.3c0.1,0.3,0.3,0.7,0.5,1c0.1,0.1,0.2,0.3,0.2,0.4c0.1,0.1,0.2,0.2,0.3,0.3
	c0.1,0.1,0.2,0.2,0.3,0.3l0.1,0l0.3,0.2l0.1,0.1c0.3,0.2,0.7,0.3,1,0.3c0.4,0.1,0.8,0.1,1.2,0.1h0.1c0.3,0,0.7,0,1-0.1
	c0.2,0,0.3-0.1,0.5-0.2l0.1,0l0.2-0.1c0.2-0.1,0.3-0.2,0.4-0.2c0.3-0.2,0.5-0.4,0.8-0.6c0.3-0.3,0.5-0.7,0.6-1.2
	c0.2-0.8,0.3-1.5,0.3-2.3v-0.1c0-0.7,0-1.3,0-2c0-0.4-0.1-0.7-0.2-1.1c-0.1-0.3-0.3-0.7-0.5-1l-0.2-0.2l0,0l0,0
	c-0.1-0.1-0.1-0.2-0.2-0.2c-0.2-0.2-0.4-0.3-0.6-0.3h0l-0.1-0.1l-0.1-0.1c-0.2-0.1-0.4-0.2-0.6-0.2c-0.2-0.1-0.5-0.1-0.7-0.2
	C77.9,30.1,77.9,30.1,77.8,30L77.8,30z"/>
<path class="st2" d="M62.3,38.5c-0.1,0-0.2,0-0.2,0H62c-0.2,0-0.5,0.1-0.7,0.2c-0.3,0.1-0.6,0.3-0.8,0.5c-0.2,0.1-0.3,0.3-0.5,0.4
	c-0.1,0.1-0.2,0.2-0.3,0.4l-0.1,0.1c-0.3,0.3-0.5,0.7-0.6,1.2c0,0.2-0.1,0.4-0.1,0.6v0c0,0.2,0,0.3,0,0.5c0,0.4,0.1,0.8,0.3,1.2
	c0.2,0.3,0.5,0.7,0.8,0.8c0.2,0.1,0.5,0.2,0.8,0.2c0.2,0,0.3,0,0.5,0.1c0.1,0,0.2,0,0.2,0c0.3,0,0.7,0,1-0.2
	c0.3-0.1,0.5-0.2,0.7-0.3c0.2-0.2,0.5-0.3,0.7-0.6c0.2-0.2,0.3-0.4,0.4-0.6c0.1-0.2,0.2-0.3,0.2-0.5c0.1-0.2,0.1-0.3,0.1-0.5
	c0-0.3,0.1-0.7,0.1-1c0-0.4-0.1-0.8-0.3-1.1c0.1-0.2,0-0.5-0.1-0.7l-0.1-0.1c-0.1-0.1-0.3-0.2-0.4-0.3c-0.1-0.1-0.2-0.2-0.4-0.2
	c-0.2,0-0.3-0.1-0.4-0.1c-0.1,0-0.2,0-0.2,0l-0.3,0L62.3,38.5L62.3,38.5L62.3,38.5z"/>
<path class="st3" d="M58.4,100.2c-3.2-1.1-36.2-20-39-23.5c-0.2-3.2-0.2-3.4-0.2-3.4c2.9-0.5,2.7-2.9,2.7-4.2c0-1.2-1-2.9-2.7-2.9
	c0-2.5,0.2-25.3,0.2-25.3c2.4-0.8,2.3-2.5,2.3-4.1c0-1.6-0.5-3.6-2-4.6c0-3.7-0.9-22.8,0.2-24.5c3.1,1.2,37.8,12.1,37.8,12.1
	L58.4,100.2z"/>
<path class="st4" d="M31.1,24.6h-0.2c-0.4,0-0.8,0.3-1,0.6c-0.2,0.3-0.3,0.6-0.4,0.9c-0.1,0.4-0.2,0.7-0.2,1.1c0,0.2,0,0.4,0,0.6
	c0,0.1,0,0.2,0,0.2c0.1,0.4,0.3,0.7,0.7,1c0.2,0.1,0.3,0.2,0.4,0.2c0.1,0,0.2,0,0.2,0.1c0.2,0,0.4,0.1,0.6,0.1h0.1
	c0.3,0,0.7-0.1,1-0.2c0.2-0.1,0.4-0.3,0.6-0.5c0.2-0.3,0.3-0.6,0.3-1c0-0.4,0-0.7-0.1-1.1c-0.1-0.2-0.2-0.5-0.3-0.7
	c0-0.1-0.1-0.2-0.2-0.3c0-0.2,0-0.5-0.3-0.5c-0.3-0.2-0.6-0.3-0.9-0.4C31.4,24.6,31.2,24.6,31.1,24.6L31.1,24.6z"/>
<path class="st4" d="M38.2,69c-0.5,0.2-0.8,0.6-0.9,1.1c-0.2,0.5-0.2,1,0,1.5c0.2,0.5,0.6,0.8,1.2,0.9c0.3,0,0.5,0,0.8-0.2
	c0.2-0.1,0.4-0.3,0.6-0.5c0.2-0.3,0.3-0.6,0.3-1c0-0.3,0-0.7-0.2-1c-0.1-0.1-0.2-0.2-0.3-0.3c-0.1-0.2-0.2-0.4-0.5-0.4
	c-0.2-0.1-0.5-0.2-0.7-0.2C38.4,69,38.3,69,38.2,69L38.2,69z M38.5,70.3L38.5,70.3z M38.7,70.7L38.7,70.7c0,0.1,0,0.2,0,0.2
	c0,0,0,0.1,0,0.1C38.6,70.9,38.6,70.8,38.7,70.7L38.7,70.7L38.7,70.7z M38.5,71L38.5,71L38.5,71z M38.7,71.2L38.7,71.2L38.7,71.2z"
	/>
<path class="st4" d="M29.8,73.4c-0.1,0-0.2,0-0.3,0l-0.2,0.1c-0.2,0.1-0.3,0.2-0.5,0.3c-0.1,0.1-0.1,0.2-0.2,0.2
	c-0.2,0.2-0.3,0.3-0.4,0.5c-0.2,0.3-0.3,0.7-0.4,1.1c-0.1,0.5-0.2,1-0.1,1.5c0,0.3,0.2,0.6,0.3,0.9c0.1,0.2,0.2,0.3,0.3,0.4
	c0.3,0.3,0.7,0.5,1,0.6c0.2,0.1,0.5,0.1,0.7,0.1c0.3,0,0.5,0,0.8-0.1c0.2,0,0.3-0.2,0.5-0.2c0.2-0.1,0.3-0.2,0.4-0.4
	c0.1-0.1,0.2-0.3,0.3-0.4c0.2-0.2,0.2-0.5,0.3-0.8c0.2-0.8,0.2-1.6-0.1-2.3c0-0.2-0.1-0.3-0.2-0.4c-0.1-0.1-0.2-0.2-0.2-0.3
	c-0.1-0.2-0.3-0.3-0.4-0.4c-0.2-0.2-0.5-0.3-0.8-0.2h0c-0.2-0.1-0.3-0.2-0.5-0.2C30,73.3,29.9,73.3,29.8,73.4L29.8,73.4L29.8,73.4z"
	/>
<path class="st4" d="M48.2,63.5c0-0.2-0.1-0.5-0.2-0.7c0-0.1-0.1-0.2-0.2-0.3c0-0.1,0-0.2,0-0.2c-0.1-0.4-0.2-0.8-0.4-1.2
	c-0.1-0.2-0.2-0.4-0.4-0.6l-0.1-0.1l0,0l0,0c-0.1,0-0.1-0.1-0.2-0.2c-0.1-0.1-0.2-0.1-0.4-0.1L46.2,60c-0.2-0.1-0.3-0.2-0.5-0.2h0h0
	c-0.1,0-0.2,0-0.4,0c-0.1,0-0.2,0.1-0.3,0.1c-0.1,0-0.2,0.1-0.3,0.2l0,0c-0.1,0.1-0.2,0.2-0.3,0.3l0,0.1c-0.1,0.1-0.2,0.2-0.2,0.3
	c-0.3,0.7-0.6,1.4-0.7,2.2c0,0.3-0.1,0.7-0.1,1c0,0.4,0.1,0.8,0.2,1.2c0.2,0.6,0.4,1.2,0.7,1.7c0.1,0.2,0.2,0.3,0.3,0.4
	c0.2,0.3,0.4,0.5,0.7,0.7c0.2,0.1,0.3,0.2,0.5,0.2c0.2,0,0.3,0.1,0.5,0.1h0.1c0.3,0,0.6-0.1,0.8-0.3c0.1-0.1,0.2-0.2,0.3-0.3
	c0,0,0.1-0.1,0.1-0.1c0.1-0.2,0.2-0.4,0.3-0.6c0.1-0.2,0.1-0.4,0.1-0.6c0-0.1,0-0.2,0.1-0.2c0.1-0.2,0.2-0.4,0.3-0.7
	c0.1-0.3,0.2-0.5,0.2-0.8C48.4,64.5,48.4,64,48.2,63.5z"/>
<path class="st4" d="M45.7,37.5c0-0.2-0.1-0.3-0.2-0.4c0-0.1-0.1-0.1-0.2-0.2c0-0.1,0-0.2,0-0.2c0-0.1-0.1-0.2-0.2-0.2
	c-0.1,0-0.2-0.1-0.3-0.1c-0.1,0-0.2,0-0.3,0c-0.2,0-0.3,0-0.4,0c0,0-0.1,0-0.2,0c0,0-0.1,0-0.2,0l0,0c-0.2,0-0.4,0.2-0.5,0.3
	c-0.2,0.2-0.3,0.4-0.3,0.6c-0.2,0.6-0.2,1.3,0.3,1.7c0.3,0.2,0.6,0.3,1,0.3c0.3,0,0.6-0.1,0.9-0.2c0.1,0,0.2-0.1,0.3-0.2
	c0.1-0.1,0.2-0.2,0.2-0.3c0.1-0.1,0.1-0.2,0.2-0.3c0-0.1,0-0.2,0-0.3C45.7,37.9,45.7,37.7,45.7,37.5z"/>
<path class="st4" d="M55.1,31.7c0,0-0.1,0-0.2,0l-0.3,0c-0.2,0-0.3,0.1-0.4,0.2c-0.3,0.2-0.5,0.4-0.6,0.7c-0.2,0.3-0.3,0.8-0.4,1.2
	c0,0.2-0.1,0.3-0.1,0.5v0.1l0,0.2c0,0.1,0,0.3,0,0.4c0,0.3,0,0.7-0.1,1.1v0c0,0.4,0,0.8,0.1,1.2c0.1,0.2,0.2,0.5,0.4,0.7
	c0.1,0.1,0.2,0.2,0.3,0.3c0.2,0.2,0.4,0.3,0.6,0.3c0.2,0,0.3,0.1,0.5,0.1c0.4,0,0.8-0.2,1.2-0.5c0.2-0.2,0.3-0.4,0.4-0.6
	c0.1-0.2,0.2-0.5,0.3-0.8c0.1-0.3,0.1-0.6,0.1-0.9c0-0.2,0-0.5,0-0.7l0,0c-0.1-0.5-0.1-1-0.2-1.4c0-0.2-0.1-0.4-0.2-0.7
	c-0.1-0.3-0.2-0.6-0.5-0.8c-0.1-0.1-0.2-0.2-0.4-0.2c0-0.1-0.1-0.2-0.2-0.2C55.3,31.7,55.2,31.7,55.1,31.7L55.1,31.7z"/>
<path class="st4" d="M33.2,41.5L33.2,41.5c-0.3,0-0.5,0-0.8,0.1c-0.2,0.1-0.4,0.2-0.6,0.3c-0.2,0.2-0.3,0.3-0.4,0.5
	s-0.2,0.4-0.3,0.6c-0.1,0.2-0.1,0.3-0.2,0.5c-0.2,0.7-0.2,1.4-0.2,2.1c0,0.3,0,0.6,0,1c0,0.3,0.1,0.7,0.2,1c0.1,0.3,0.2,0.7,0.3,1
	c0.2,0.3,0.3,0.6,0.5,0.8c0.2,0.2,0.4,0.4,0.7,0.5C32.7,50,33,50,33.3,50h0.2c0.3,0,0.7-0.2,0.9-0.4c0.2-0.2,0.4-0.5,0.5-0.8
	c0.1-0.3,0.2-0.6,0.3-0.8c0.2-0.7,0.2-1.3,0.2-2c0-0.2,0-0.4,0-0.6c0-0.1,0-0.2,0-0.3c0-0.3-0.1-0.7-0.2-1c-0.1-0.3-0.2-0.7-0.3-1
	c-0.1-0.2-0.2-0.4-0.3-0.6c-0.1-0.1-0.2-0.2-0.2-0.3c-0.1,0-0.1-0.1-0.2-0.2c-0.1,0-0.2-0.1-0.2-0.2l0,0c0,0,0,0-0.1,0
	c-0.2-0.1-0.3-0.2-0.5-0.2C33.4,41.6,33.3,41.5,33.2,41.5L33.2,41.5z"/>
<path class="st4" d="M31.6,59.5c0,0,0-0.1,0-0.2c0-0.1-0.1-0.2-0.1-0.3c0-0.2-0.1-0.3-0.2-0.5c-0.2-0.2-0.3-0.3-0.5-0.4
	c-0.2-0.1-0.3-0.1-0.5-0.1c-0.2,0-0.3,0-0.5,0.2l0,0c-0.3,0.3-0.6,0.7-0.7,1.2c-0.1,0.3-0.2,0.7-0.2,1c0,0.3,0,0.7,0.1,1
	c0.1,0.2,0.2,0.3,0.3,0.5c0.2,0.2,0.3,0.4,0.6,0.5c0.2,0,0.4,0.1,0.6,0c0.2,0,0.4-0.2,0.5-0.3c0.2-0.2,0.3-0.3,0.4-0.6
	c0.2-0.4,0.3-0.8,0.3-1.2C31.7,60.1,31.7,59.8,31.6,59.5z M30.4,60C30.4,60,30.4,60,30.4,60C30.4,60,30.4,60,30.4,60
	C30.4,60,30.4,60,30.4,60C30.4,60,30.4,60,30.4,60L30.4,60z"/>
<path class="st4" d="M42.4,51.5c0-0.2,0-0.4-0.1-0.6c0-0.2-0.1-0.3-0.1-0.5c0-0.2-0.1-0.5-0.3-0.7c0-0.1-0.1-0.1-0.2-0.2
	c0-0.1,0-0.2,0-0.2c0-0.2-0.2-0.3-0.3-0.5c-0.2-0.1-0.4-0.2-0.6-0.3c-0.1,0-0.2,0-0.3,0c-0.2,0-0.3,0-0.4,0.1l0,0
	c-0.2,0-0.3,0.1-0.4,0.2c-0.1,0.1-0.2,0.2-0.2,0.3c-0.1,0.2-0.2,0.4-0.3,0.6c-0.1,0.2-0.1,0.4-0.2,0.6c0,0.3-0.1,0.6-0.1,0.8l0,0.5
	c0,0.3,0,0.7,0.1,1c0.1,0.3,0.3,0.7,0.5,1c0.2,0.2,0.4,0.3,0.7,0.3c0.2,0,0.5,0,0.7,0c0.2,0,0.4-0.2,0.6-0.3
	c0.2-0.1,0.3-0.2,0.4-0.4c0.1-0.2,0.2-0.3,0.3-0.5c0-0.1,0.1-0.3,0.1-0.4c0-0.2,0.1-0.4,0.1-0.7C42.4,51.8,42.4,51.6,42.4,51.5z
	 M40.6,52.6L40.6,52.6c0,0-0.1-0.1-0.1-0.1c0,0,0,0,0-0.1c0.1,0,0.2,0.1,0.2,0.1C40.7,52.6,40.7,52.6,40.6,52.6L40.6,52.6z"/>
<path class="st4" d="M58,50.5c-2.2,0-5.2,2.3-5.2,5.5c0,3.2,3.1,6.3,5.3,6.2C58.1,60.6,58,50.5,58,50.5z"/>
<path class="st4" d="M58.2,75.7c-1.3,0.5-6.5,3.7,0,6.8C58.3,81.5,58.2,75.7,58.2,75.7z"/>
</svg>
